<svg width="18" height="18" viewBox="0 0 18 18" fill="none" xmlns="http://www.w3.org/2000/svg">
<path d="M17.3066 3.96082L10.8263 0.0970177C10.3827 -0.165564 9.82332 0.134567 9.82332 0.640884L9.82332 2.59148L7.23892 2.59148C3.86373 2.59161 1.125 5.23615 1.125 8.51848C1.125 8.93112 1.64578 9.15616 1.95426 8.87488L2.74506 8.16211C3.99863 7.03666 5.65733 6.39898 7.37389 6.39898L9.84274 6.39911L9.84274 8.3497C9.84274 8.83733 10.402 9.15616 10.8457 8.89357L17.3068 5.04852C17.7311 4.80465 17.7311 4.20452 17.3068 3.96065L17.3066 3.96082Z" fill="#00C2FF"/>
<path d="M16.0284 9.13714L15.2386 9.84894C13.9864 10.9729 12.3297 11.6097 10.6151 11.6097L8.16848 11.6097L8.16848 9.64277C8.16848 9.1558 7.60988 8.83741 7.16669 9.09964L0.69384 12.9582C0.270021 13.2017 0.270021 13.801 0.69384 14.0446L7.18596 17.9031C7.62901 18.1653 8.18774 17.8656 8.18774 17.36L8.18774 15.4119L10.7691 15.4119C14.1404 15.4119 16.876 12.771 16.876 9.49299C16.876 9.06208 16.3558 8.83735 16.0283 9.13707L16.0284 9.13714Z" fill="#00C2FF"/>
</svg>
