<svg width="23" height="20" viewBox="0 0 23 20" fill="none" xmlns="http://www.w3.org/2000/svg">
<path d="M8.967 8.9364C8.75486 8.9364 8.55128 9.02069 8.40128 9.17069C8.25128 9.32069 8.16699 9.52409 8.16699 9.73641V10.4003C8.16699 10.6862 8.31949 10.9503 8.567 11.0932C8.8145 11.236 9.11951 11.236 9.36701 11.0932C9.61451 10.9503 9.76701 10.6862 9.76701 10.4003V9.73641C9.76701 9.52409 9.68272 9.32069 9.53272 9.17069C9.38272 9.02069 9.17915 8.9364 8.967 8.9364Z" fill="#28C79B"/>
<path d="M20.967 0H1.76674C1.32888 0.0146429 0.91457 0.202146 0.614772 0.521606C0.314947 0.840897 0.153875 1.26607 0.16673 1.70393V7.10376C0.156015 7.54037 0.317982 7.96361 0.617629 8.2811C0.917276 8.59878 1.33032 8.7852 1.76676 8.79987H4.9668V17.6C4.9668 18.2366 5.21966 18.8469 5.66966 19.2971C6.11985 19.7471 6.7302 20 7.36683 20H15.3669C16.0035 20 16.6139 19.7471 17.0641 19.2971C17.5141 18.847 17.7669 18.2366 17.7669 17.6V8.79987H20.967C21.4034 8.78523 21.8165 8.5988 22.1161 8.2811C22.4158 7.9636 22.5777 7.54038 22.567 7.10376V1.70393C22.5799 1.26607 22.4188 0.840878 22.119 0.521606C21.8191 0.202137 21.4048 0.0146287 20.967 0ZM6.56679 17.6002V4.93629H8.16681V6.93631C8.16681 7.22203 8.31931 7.48612 8.56682 7.62898C8.81432 7.77202 9.11933 7.77202 9.36683 7.62898C9.61433 7.48612 9.76683 7.22201 9.76683 6.93631V4.93629H12.1669C12.1633 4.97879 12.1633 5.02164 12.1669 5.06415V18.4005H7.3668C7.15466 18.4005 6.95108 18.3162 6.80108 18.1662C6.65108 18.0162 6.56679 17.8127 6.56679 17.6005V17.6002ZM16.1669 17.6002C16.1669 17.8123 16.0826 18.0159 15.9326 18.1659C15.7826 18.3159 15.579 18.4002 15.3669 18.4002H13.7669V5.05606C13.7704 5.01338 13.7704 4.97052 13.7669 4.92802H16.1669V17.6002ZM20.967 7.10408V7.20016H17.7669V4.93622H18.5669C18.8528 4.93622 19.1169 4.78372 19.2598 4.53622C19.4026 4.28853 19.4026 3.98371 19.2598 3.73621C19.1169 3.48852 18.8528 3.3362 18.5669 3.3362H4.16677C3.88087 3.3362 3.61677 3.48852 3.47391 3.73621C3.33105 3.98371 3.33105 4.28853 3.47391 4.53622C3.61677 4.78372 3.88088 4.93622 4.16677 4.93622H4.96678V7.20016H1.76674C1.75156 7.16426 1.75156 7.1239 1.76674 7.08819V1.7039V1.59997H20.967C20.9821 1.63587 20.9821 1.67622 20.967 1.71194V7.10408Z" fill="#28C79B"/>
</svg>
