<svg width="86" height="88" viewBox="0 0 86 88" fill="none" xmlns="http://www.w3.org/2000/svg">
<g filter="url(#filter0_d_740_7588)">
<path d="M27.7219 35.75L30.4008 59.8604C30.4571 60.3669 30.8852 60.75 31.3947 60.75H54.6046C55.1142 60.75 55.5422 60.3669 55.5985 59.8604L58.2775 35.75M27.7219 35.75L26.333 23.25H59.6663L58.2775 35.75M27.7219 35.75H58.2775" stroke="#0047FF" stroke-width="2.5"/>
<path d="M47.1663 50.6622C47.1663 52.7818 45.3009 54.5 42.9997 54.5C40.6985 54.5 38.833 52.7818 38.833 50.6622C38.833 46.1666 42.9997 43.0416 42.9997 43.0416C42.9997 43.0416 47.1663 46.1666 47.1663 50.6622Z" stroke="#0047FF" stroke-width="2.5"/>
</g>
<defs>
<filter id="filter0_d_740_7588" x="-6" y="-5" width="98" height="98" filterUnits="userSpaceOnUse" color-interpolation-filters="sRGB">
<feFlood flood-opacity="0" result="BackgroundImageFix"/>
<feColorMatrix in="SourceAlpha" type="matrix" values="0 0 0 0 0 0 0 0 0 0 0 0 0 0 0 0 0 0 127 0" result="hardAlpha"/>
<feOffset dy="2"/>
<feGaussianBlur stdDeviation="12"/>
<feColorMatrix type="matrix" values="0 0 0 0 0 0 0 0 0 0.278431 0 0 0 0 1 0 0 0 1 0"/>
<feBlend mode="normal" in2="BackgroundImageFix" result="effect1_dropShadow_740_7588"/>
<feBlend mode="normal" in="SourceGraphic" in2="effect1_dropShadow_740_7588" result="shape"/>
</filter>
</defs>
</svg>
