<svg width="282" height="178" viewBox="0 0 282 178" fill="none" xmlns="http://www.w3.org/2000/svg">
<g filter="url(#filter0_b_0_1)">
<mask id="path-1-inside-1_0_1" fill="white">
<path fill-rule="evenodd" clip-rule="evenodd" d="M44 7C44 9.20913 45.7909 11 48 11L253 11C255.209 11 257 9.20914 257 7.00001L267.937 7C271.838 7 275 10.1621 275 14.0627V48.2551C272.791 48.2551 271 50.046 271 52.2551V127.083C271 129.292 272.791 131.083 275 131.083V163.937C275 167.838 271.838 171 267.937 171L257 171C257 168.791 255.209 167 253 167L48 167C45.7909 167 44 168.791 44 171L14.0627 171C10.1621 171 7 167.838 7 163.937V131.083C9.20914 131.083 11 129.292 11 127.083V52.2551C11 50.046 9.20914 48.2551 7 48.2551V14.0627C7 10.1621 10.1621 7 14.0627 7H44Z"/>
</mask>
<path fill-rule="evenodd" clip-rule="evenodd" d="M44 7C44 9.20913 45.7909 11 48 11L253 11C255.209 11 257 9.20914 257 7.00001L267.937 7C271.838 7 275 10.1621 275 14.0627V48.2551C272.791 48.2551 271 50.046 271 52.2551V127.083C271 129.292 272.791 131.083 275 131.083V163.937C275 167.838 271.838 171 267.937 171L257 171C257 168.791 255.209 167 253 167L48 167C45.7909 167 44 168.791 44 171L14.0627 171C10.1621 171 7 167.838 7 163.937V131.083C9.20914 131.083 11 129.292 11 127.083V52.2551C11 50.046 9.20914 48.2551 7 48.2551V14.0627C7 10.1621 10.1621 7 14.0627 7H44Z" fill="#050A17" fill-opacity="0.5"/>
<path d="M48 11V10.5V11ZM44 7H44.5V6.5H44V7ZM253 11V11.5V11ZM257 7.00001V6.50001L256.5 6.50001V7.00001H257ZM267.937 7V6.5V7ZM275 48.2551V48.7551H275.5V48.2551H275ZM275 131.083H275.5V130.583H275V131.083ZM267.937 171V170.5V171ZM257 171H256.5V171.5H257V171ZM253 167V166.5V167ZM48 167V167.5V167ZM44 171V171.5H44.5V171H44ZM14.0627 171L14.0627 170.5H14.0627V171ZM7 131.083V130.583H6.5V131.083H7ZM7 48.2551H6.5V48.7551H7V48.2551ZM48 10.5C46.067 10.5 44.5 8.93299 44.5 7H43.5C43.5 9.48527 45.5147 11.5 48 11.5V10.5ZM253 10.5L48 10.5V11.5L253 11.5V10.5ZM256.5 7.00001C256.5 8.933 254.933 10.5 253 10.5V11.5C255.485 11.5 257.5 9.48528 257.5 7.00001H256.5ZM257 7.50001L267.937 7.5V6.5L257 6.50001V7.50001ZM267.937 7.5C271.562 7.5 274.5 10.4382 274.5 14.0627H275.5C275.5 9.88592 272.114 6.5 267.937 6.5V7.5ZM274.5 14.0627V48.2551H275.5V14.0627H274.5ZM271.5 52.2551C271.5 50.3221 273.067 48.7551 275 48.7551V47.7551C272.515 47.7551 270.5 49.7698 270.5 52.2551H271.5ZM271.5 127.083V52.2551H270.5V127.083H271.5ZM275 130.583C273.067 130.583 271.5 129.016 271.5 127.083H270.5C270.5 129.568 272.515 131.583 275 131.583V130.583ZM274.5 131.083V163.937H275.5V131.083H274.5ZM274.5 163.937C274.5 167.562 271.562 170.5 267.937 170.5V171.5C272.114 171.5 275.5 168.114 275.5 163.937H274.5ZM267.937 170.5L257 170.5V171.5L267.937 171.5V170.5ZM253 167.5C254.933 167.5 256.5 169.067 256.5 171H257.5C257.5 168.515 255.485 166.5 253 166.5V167.5ZM48 167.5L253 167.5V166.5L48 166.5V167.5ZM44.5 171C44.5 169.067 46.067 167.5 48 167.5V166.5C45.5147 166.5 43.5 168.515 43.5 171H44.5ZM44 170.5L14.0627 170.5L14.0627 171.5L44 171.5V170.5ZM14.0627 170.5C10.4382 170.5 7.5 167.562 7.5 163.937H6.5C6.5 168.114 9.88594 171.5 14.0627 171.5V170.5ZM7.5 163.937V131.083H6.5V163.937H7.5ZM7 131.583C9.48528 131.583 11.5 129.568 11.5 127.083H10.5C10.5 129.016 8.933 130.583 7 130.583V131.583ZM11.5 127.083V52.2551H10.5V127.083H11.5ZM11.5 52.2551C11.5 49.7699 9.48528 47.7551 7 47.7551V48.7551C8.933 48.7551 10.5 50.3221 10.5 52.2551H11.5ZM7.5 48.2551V14.0627H6.5V48.2551H7.5ZM7.5 14.0627C7.5 10.4382 10.4382 7.5 14.0627 7.5V6.5C9.88592 6.5 6.5 9.88592 6.5 14.0627H7.5ZM14.0627 7.5H44V6.5H14.0627V7.5Z" fill="white" fill-opacity="0.5" mask="url(#path-1-inside-1_0_1)"/>
</g>
<g filter="url(#filter1_d_0_1)">
<path d="M7 51C8.10457 51 9 51.8954 9 53V126C9 127.105 8.10457 128 7 128V51Z" fill="#52FF00"/>
</g>
<g opacity="0.35" filter="url(#filter2_d_0_1)">
<path d="M254 7C254 8.10457 253.105 9 252 9L49 9C47.8954 9 47 8.10457 47 7L254 7Z" fill="#52FF00"/>
</g>
<g opacity="0.35" filter="url(#filter3_d_0_1)">
<path d="M254 171C254 169.895 253.105 169 252 169L50 169C48.8954 169 48 169.895 48 171L254 171Z" fill="#52FF00"/>
</g>
<g filter="url(#filter4_d_0_1)">
<path d="M275 51C273.895 51 273 51.8954 273 53V126C273 127.105 273.895 128 275 128V51Z" fill="#52FF00"/>
</g>
<defs>
<filter id="filter0_b_0_1" x="-73" y="-73" width="428" height="324" filterUnits="userSpaceOnUse" color-interpolation-filters="sRGB">
<feFlood flood-opacity="0" result="BackgroundImageFix"/>
<feGaussianBlur in="BackgroundImageFix" stdDeviation="40"/>
<feComposite in2="SourceAlpha" operator="in" result="effect1_backgroundBlur_0_1"/>
<feBlend mode="normal" in="SourceGraphic" in2="effect1_backgroundBlur_0_1" result="shape"/>
</filter>
<filter id="filter1_d_0_1" x="0.722071" y="44.7221" width="14.5559" height="89.5559" filterUnits="userSpaceOnUse" color-interpolation-filters="sRGB">
<feFlood flood-opacity="0" result="BackgroundImageFix"/>
<feColorMatrix in="SourceAlpha" type="matrix" values="0 0 0 0 0 0 0 0 0 0 0 0 0 0 0 0 0 0 127 0" result="hardAlpha"/>
<feOffset/>
<feGaussianBlur stdDeviation="3.13896"/>
<feComposite in2="hardAlpha" operator="out"/>
<feColorMatrix type="matrix" values="0 0 0 0 0.32 0 0 0 0 1 0 0 0 0 0 0 0 0 0.8 0"/>
<feBlend mode="normal" in2="BackgroundImageFix" result="effect1_dropShadow_0_1"/>
<feBlend mode="normal" in="SourceGraphic" in2="effect1_dropShadow_0_1" result="shape"/>
</filter>
<filter id="filter2_d_0_1" x="40.7221" y="0.722071" width="219.556" height="14.5559" filterUnits="userSpaceOnUse" color-interpolation-filters="sRGB">
<feFlood flood-opacity="0" result="BackgroundImageFix"/>
<feColorMatrix in="SourceAlpha" type="matrix" values="0 0 0 0 0 0 0 0 0 0 0 0 0 0 0 0 0 0 127 0" result="hardAlpha"/>
<feOffset/>
<feGaussianBlur stdDeviation="3.13896"/>
<feComposite in2="hardAlpha" operator="out"/>
<feColorMatrix type="matrix" values="0 0 0 0 0.32 0 0 0 0 1 0 0 0 0 0 0 0 0 0.8 0"/>
<feBlend mode="normal" in2="BackgroundImageFix" result="effect1_dropShadow_0_1"/>
<feBlend mode="normal" in="SourceGraphic" in2="effect1_dropShadow_0_1" result="shape"/>
</filter>
<filter id="filter3_d_0_1" x="41.7221" y="162.722" width="218.556" height="14.5559" filterUnits="userSpaceOnUse" color-interpolation-filters="sRGB">
<feFlood flood-opacity="0" result="BackgroundImageFix"/>
<feColorMatrix in="SourceAlpha" type="matrix" values="0 0 0 0 0 0 0 0 0 0 0 0 0 0 0 0 0 0 127 0" result="hardAlpha"/>
<feOffset/>
<feGaussianBlur stdDeviation="3.13896"/>
<feComposite in2="hardAlpha" operator="out"/>
<feColorMatrix type="matrix" values="0 0 0 0 0.32 0 0 0 0 1 0 0 0 0 0 0 0 0 0.8 0"/>
<feBlend mode="normal" in2="BackgroundImageFix" result="effect1_dropShadow_0_1"/>
<feBlend mode="normal" in="SourceGraphic" in2="effect1_dropShadow_0_1" result="shape"/>
</filter>
<filter id="filter4_d_0_1" x="266.722" y="44.7221" width="14.5559" height="89.5559" filterUnits="userSpaceOnUse" color-interpolation-filters="sRGB">
<feFlood flood-opacity="0" result="BackgroundImageFix"/>
<feColorMatrix in="SourceAlpha" type="matrix" values="0 0 0 0 0 0 0 0 0 0 0 0 0 0 0 0 0 0 127 0" result="hardAlpha"/>
<feOffset/>
<feGaussianBlur stdDeviation="3.13896"/>
<feComposite in2="hardAlpha" operator="out"/>
<feColorMatrix type="matrix" values="0 0 0 0 0.32 0 0 0 0 1 0 0 0 0 0 0 0 0 0.8 0"/>
<feBlend mode="normal" in2="BackgroundImageFix" result="effect1_dropShadow_0_1"/>
<feBlend mode="normal" in="SourceGraphic" in2="effect1_dropShadow_0_1" result="shape"/>
</filter>
</defs>
</svg>
