<svg width="288" height="50" viewBox="0 0 288 50" fill="none" xmlns="http://www.w3.org/2000/svg">
<g filter="url(#filter0_b_740_4208)">
<mask id="path-1-inside-1_740_4208" fill="white">
<path fill-rule="evenodd" clip-rule="evenodd" d="M12 15C5.37258 15 0 20.3726 0 27V50H288V27C288 20.3726 282.627 15 276 15H238H12ZM238 15L50 15C50 19.4183 53.5817 23 58 23L230 23C234.418 23 238 19.4183 238 15Z"/>
</mask>
<path fill-rule="evenodd" clip-rule="evenodd" d="M12 15C5.37258 15 0 20.3726 0 27V50H288V27C288 20.3726 282.627 15 276 15H238H12ZM238 15L50 15C50 19.4183 53.5817 23 58 23L230 23C234.418 23 238 19.4183 238 15Z" fill="white" fill-opacity="0.1"/>
<path d="M0 50H-0.9V50.9H0V50ZM288 50V50.9H288.9V50H288ZM238 15L238 14.1L238 14.1L238 15ZM50 15L50 14.1L49.1 14.1V15H50ZM58 23L58 23.9L58 23.9L58 23ZM230 23L230 23.9L230 23ZM0.9 27C0.9 20.8696 5.86964 15.9 12 15.9V14.1C4.87553 14.1 -0.9 19.8755 -0.9 27H0.9ZM0.9 50V27H-0.9V50H0.9ZM288 49.1H0V50.9H288V49.1ZM287.1 27V50H288.9V27H287.1ZM276 15.9C282.13 15.9 287.1 20.8696 287.1 27H288.9C288.9 19.8755 283.124 14.1 276 14.1V15.9ZM238 15.9H276V14.1H238V15.9ZM12 15.9H238V14.1H12V15.9ZM238 14.1L50 14.1L50 15.9L238 15.9L238 14.1ZM49.1 15C49.1 19.9153 53.0847 23.9 58 23.9V22.1C54.0788 22.1 50.9 18.9212 50.9 15H49.1ZM58 23.9L230 23.9L230 22.1L58 22.1L58 23.9ZM230 23.9C234.915 23.9 238.9 19.9153 238.9 15H237.1C237.1 18.9212 233.921 22.1 230 22.1L230 23.9Z" fill="white" fill-opacity="0.15" mask="url(#path-1-inside-1_740_4208)"/>
</g>
<g filter="url(#filter1_d_740_4208)">
<path d="M234 15C234 17.7614 231.761 20 229 20L59 20C56.2386 20 54 17.7614 54 15L234 15Z" fill="url(#paint0_linear_740_4208)"/>
</g>
<defs>
<filter id="filter0_b_740_4208" x="-72" y="-57" width="432" height="179" filterUnits="userSpaceOnUse" color-interpolation-filters="sRGB">
<feFlood flood-opacity="0" result="BackgroundImageFix"/>
<feGaussianBlur in="BackgroundImageFix" stdDeviation="36"/>
<feComposite in2="SourceAlpha" operator="in" result="effect1_backgroundBlur_740_4208"/>
<feBlend mode="normal" in="SourceGraphic" in2="effect1_backgroundBlur_740_4208" result="shape"/>
</filter>
<filter id="filter1_d_740_4208" x="39.6" y="0.6" width="208.8" height="33.8" filterUnits="userSpaceOnUse" color-interpolation-filters="sRGB">
<feFlood flood-opacity="0" result="BackgroundImageFix"/>
<feColorMatrix in="SourceAlpha" type="matrix" values="0 0 0 0 0 0 0 0 0 0 0 0 0 0 0 0 0 0 127 0" result="hardAlpha"/>
<feOffset/>
<feGaussianBlur stdDeviation="7.2"/>
<feComposite in2="hardAlpha" operator="out"/>
<feColorMatrix type="matrix" values="0 0 0 0 1 0 0 0 0 0 0 0 0 0 0.541176 0 0 0 0.8 0"/>
<feBlend mode="normal" in2="BackgroundImageFix" result="effect1_dropShadow_740_4208"/>
<feBlend mode="normal" in="SourceGraphic" in2="effect1_dropShadow_740_4208" result="shape"/>
</filter>
<linearGradient id="paint0_linear_740_4208" x1="236.381" y1="17.6316" x2="47.1626" y2="43.0257" gradientUnits="userSpaceOnUse">
<stop stop-color="#FDCB24"/>
<stop offset="0.286458" stop-color="#E73C66"/>
<stop offset="0.53125" stop-color="#8D5CDD"/>
<stop offset="0.723958" stop-color="#26F2D3"/>
<stop offset="1" stop-color="#00BDFF"/>
</linearGradient>
</defs>
</svg>
