<svg xmlns="http://www.w3.org/2000/svg" width="744" height="332" fill="none">
  <g filter="url(#a)">
    <path fill="#28C79B" d="M579 16a6 6 0 0 1-6 6H171a6 6 0 0 1-6-6h414Z"/>
  </g>
  <g filter="url(#b)">
    <path fill="#28C79B" d="M579 316a6 6 0 0 0-6-6H171a6 6 0 0 0-6 6h414Z"/>
  </g>
  <g filter="url(#c)" opacity=".3">
    <path fill="#28C79B" d="M728 71a6 6 0 0 0-6 6v179a6 6 0 0 0 6 6V71Z"/>
  </g>
  <g filter="url(#d)" opacity=".3">
    <path fill="#28C79B" d="M16 71a6 6 0 0 1 6 6v178a6 6 0 0 1-6 6V71Z"/>
  </g>
  <g fill="#fff" filter="url(#e)">
    <mask id="f">
      <path fill-rule="evenodd" d="M16 34c0-10 8-18 18-18h126c0 5.6 4.6 10.2 10.2 10.2h403.6c5.6 0 10.2-4.6 10.2-10.2H160h550c10 0 18 8 18 18v32c-6 0-11 5-11 11v179c0 6 5 11 11 11v31c0 10-8 18-18 18H584c0-6-5-11-11-11H171c-6 0-11 5-11 11H34c-10 0-18-8-18-18v-32c6 0 11-5 11-11V77c0-6-5-11-11-11V34Z" clip-rule="evenodd"/>
    </mask>
    <path fill-opacity=".1" fill-rule="evenodd" d="M16 34c0-10 8-18 18-18h126c0 5.6 4.6 10.2 10.2 10.2h403.6c5.6 0 10.2-4.6 10.2-10.2H160h550c10 0 18 8 18 18v32c-6 0-11 5-11 11v179c0 6 5 11 11 11v31c0 10-8 18-18 18H584c0-6-5-11-11-11H171c-6 0-11 5-11 11H34c-10 0-18-8-18-18v-32c6 0 11-5 11-11V77c0-6-5-11-11-11V34Z" clip-rule="evenodd"/>
    <path fill-opacity=".1" d="M170.2 26.2v-1 1Zm403.6 0v1-1ZM584 16h1v-1h-1v1Zm144 50v1h1v-1h-1Zm0 201h1v-1h-1v1Zm-18 49v1-1Zm-126 0h-1v1h1v-1Zm-11-11v-1 1Zm-402 0v1-1Zm-11 11v1h1v-1h-1ZM16 266v-1h-1v1h1Zm0-200h-1v1h1v-1Zm18-51a19 19 0 0 0-19 19h2a17 17 0 0 1 17-17v-2Zm126 0H34v2h126v-2Zm10.2 10.2c-5 0-9.2-4.1-9.2-9.2h-2c0 6.2 5 11.2 11.2 11.2v-2Zm403.6 0H170.2v2h403.6v-2ZM583 16c0 5-4.1 9.2-9.2 9.2v2c6.2 0 11.2-5 11.2-11.2h-2Zm-423 1h424v-2H160v2Zm550-2H160v2h550v-2Zm19 19a19 19 0 0 0-19-19v2a17 17 0 0 1 17 17h2Zm0 32V34h-2v32h2Zm-11 11a10 10 0 0 1 10-10v-2a12 12 0 0 0-12 12h2Zm0 179V77h-2v179h2Zm10 10a10 10 0 0 1-10-10h-2a12 12 0 0 0 12 12v-2Zm1 32v-31h-2v31h2Zm-19 19a19 19 0 0 0 19-19h-2a17 17 0 0 1-17 17v2Zm-126 0h126v-2H584v2Zm-11-11a10 10 0 0 1 10 10h2a12 12 0 0 0-12-12v2Zm-402 0h402v-2H171v2Zm-10 10a10 10 0 0 1 10-10v-2a12 12 0 0 0-12 12h2Zm-127 1h126v-2H34v2Zm-19-19a19 19 0 0 0 19 19v-2a17 17 0 0 1-17-17h-2Zm0-32v32h2v-32h-2Zm11-11a10 10 0 0 1-10 10v2a12 12 0 0 0 12-12h-2Zm0-178v178h2V77h-2ZM16 67a10 10 0 0 1 10 10h2a12 12 0 0 0-12-12v2Zm-1-33v32h2V34h-2Z" mask="url(#f)"/>
  </g>
  <defs>
    <filter id="a" width="446" height="38" x="149" y="0" color-interpolation-filters="sRGB" filterUnits="userSpaceOnUse">
      <feFlood flood-opacity="0" result="BackgroundImageFix"/>
      <feColorMatrix in="SourceAlpha" result="hardAlpha" values="0 0 0 0 0 0 0 0 0 0 0 0 0 0 0 0 0 0 127 0"/>
      <feOffset/>
      <feGaussianBlur stdDeviation="8"/>
      <feComposite in2="hardAlpha" operator="out"/>
      <feColorMatrix values="0 0 0 0 0.313726 0 0 0 0 0.686275 0 0 0 0 0.584314 0 0 0 0.8 0"/>
      <feBlend in2="BackgroundImageFix" result="effect1_dropShadow_909_2746"/>
      <feBlend in="SourceGraphic" in2="effect1_dropShadow_909_2746" result="shape"/>
    </filter>
    <filter id="b" width="446" height="38" x="149" y="294" color-interpolation-filters="sRGB" filterUnits="userSpaceOnUse">
      <feFlood flood-opacity="0" result="BackgroundImageFix"/>
      <feColorMatrix in="SourceAlpha" result="hardAlpha" values="0 0 0 0 0 0 0 0 0 0 0 0 0 0 0 0 0 0 127 0"/>
      <feOffset/>
      <feGaussianBlur stdDeviation="8"/>
      <feComposite in2="hardAlpha" operator="out"/>
      <feColorMatrix values="0 0 0 0 0.313726 0 0 0 0 0.686275 0 0 0 0 0.584314 0 0 0 0.8 0"/>
      <feBlend in2="BackgroundImageFix" result="effect1_dropShadow_909_2746"/>
      <feBlend in="SourceGraphic" in2="effect1_dropShadow_909_2746" result="shape"/>
    </filter>
    <filter id="c" width="38" height="223" x="706" y="55" color-interpolation-filters="sRGB" filterUnits="userSpaceOnUse">
      <feFlood flood-opacity="0" result="BackgroundImageFix"/>
      <feColorMatrix in="SourceAlpha" result="hardAlpha" values="0 0 0 0 0 0 0 0 0 0 0 0 0 0 0 0 0 0 127 0"/>
      <feOffset/>
      <feGaussianBlur stdDeviation="8"/>
      <feComposite in2="hardAlpha" operator="out"/>
      <feColorMatrix values="0 0 0 0 0.32 0 0 0 0 1 0 0 0 0 0 0 0 0 0.8 0"/>
      <feBlend in2="BackgroundImageFix" result="effect1_dropShadow_909_2746"/>
      <feBlend in="SourceGraphic" in2="effect1_dropShadow_909_2746" result="shape"/>
    </filter>
    <filter id="d" width="38" height="222" x="0" y="55" color-interpolation-filters="sRGB" filterUnits="userSpaceOnUse">
      <feFlood flood-opacity="0" result="BackgroundImageFix"/>
      <feColorMatrix in="SourceAlpha" result="hardAlpha" values="0 0 0 0 0 0 0 0 0 0 0 0 0 0 0 0 0 0 127 0"/>
      <feOffset/>
      <feGaussianBlur stdDeviation="8"/>
      <feComposite in2="hardAlpha" operator="out"/>
      <feColorMatrix values="0 0 0 0 0.32 0 0 0 0 1 0 0 0 0 0 0 0 0 0.8 0"/>
      <feBlend in2="BackgroundImageFix" result="effect1_dropShadow_909_2746"/>
      <feBlend in="SourceGraphic" in2="effect1_dropShadow_909_2746" result="shape"/>
    </filter>
    <filter id="e" width="1192" height="780" x="-224" y="-224" color-interpolation-filters="sRGB" filterUnits="userSpaceOnUse">
      <feFlood flood-opacity="0" result="BackgroundImageFix"/>
      <feGaussianBlur in="BackgroundImageFix" stdDeviation="120"/>
      <feComposite in2="SourceAlpha" operator="in" result="effect1_backgroundBlur_909_2746"/>
      <feBlend in="SourceGraphic" in2="effect1_backgroundBlur_909_2746" result="shape"/>
    </filter>
  </defs>
</svg>
