<svg width="316" height="457" viewBox="0 0 316 457" fill="none" xmlns="http://www.w3.org/2000/svg">
    <g filter="url(#filter0_b_0_1)">
        <mask id="path-1-inside-1_0_1" fill="white">
            <path fill-rule="evenodd" clip-rule="evenodd" d="M249.801 14.5C249.801 18.9735 246.174 22.6 241.701 22.6L73.4008 22.6C68.9273 22.6 65.3008 18.9735 65.3008 14.5L30.4423 14.5C21.3615 14.5 14 21.8615 14 30.9423V66.7C18.4733 66.7002 22.0996 70.3266 22.0996 74.8L22.0996 386.2C22.0996 390.673 18.4733 394.3 14 394.3V425.558C14 434.639 21.3615 442 30.4423 442L65.3008 442C65.3008 437.526 68.9273 433.9 73.4008 433.9H241.701C246.174 433.9 249.801 437.526 249.801 442L285.558 442C294.639 442 302 434.639 302 425.558V394.3C297.527 394.3 293.9 390.673 293.9 386.2V74.8C293.9 70.3266 297.527 66.7002 302 66.7V30.9423C302 21.8615 294.639 14.5 285.558 14.5L249.801 14.5Z"/>
        </mask>
        <path fill-rule="evenodd" clip-rule="evenodd" d="M249.801 14.5C249.801 18.9735 246.174 22.6 241.701 22.6L73.4008 22.6C68.9273 22.6 65.3008 18.9735 65.3008 14.5L30.4423 14.5C21.3615 14.5 14 21.8615 14 30.9423V66.7C18.4733 66.7002 22.0996 70.3266 22.0996 74.8L22.0996 386.2C22.0996 390.673 18.4733 394.3 14 394.3V425.558C14 434.639 21.3615 442 30.4423 442L65.3008 442C65.3008 437.526 68.9273 433.9 73.4008 433.9H241.701C246.174 433.9 249.801 437.526 249.801 442L285.558 442C294.639 442 302 434.639 302 425.558V394.3C297.527 394.3 293.9 390.673 293.9 386.2V74.8C293.9 70.3266 297.527 66.7002 302 66.7V30.9423C302 21.8615 294.639 14.5 285.558 14.5L249.801 14.5Z" fill="white" fill-opacity="0.1"/>
        <path d="M241.701 22.6V21.7V22.6ZM249.801 14.5V13.6L248.901 13.6V14.5H249.801ZM73.4008 22.6V23.5V22.6ZM65.3008 14.5H66.2008V13.6L65.3008 13.6V14.5ZM30.4423 14.5V15.4V14.5ZM14 66.7H13.1V67.6L14 67.6L14 66.7ZM22.0996 74.8H21.1996H22.0996ZM22.0996 386.2H22.9996H22.0996ZM14 394.3L14 393.4L13.1 393.4V394.3H14ZM30.4423 442V442.9V442ZM65.3008 442V442.9H66.2008V442H65.3008ZM249.801 442H248.901V442.9H249.801V442ZM285.558 442V442.9V442ZM302 394.3H302.9V393.4L302 393.4L302 394.3ZM302 66.7L302 67.6L302.9 67.6V66.7H302ZM285.558 14.5V15.4V14.5ZM241.701 23.5C246.671 23.5 250.701 19.4706 250.701 14.5H248.901C248.901 18.4765 245.677 21.7 241.701 21.7V23.5ZM73.4008 23.5L241.701 23.5V21.7L73.4008 21.7V23.5ZM64.4008 14.5C64.4008 19.4706 68.4302 23.5 73.4008 23.5V21.7C69.4243 21.7 66.2008 18.4764 66.2008 14.5H64.4008ZM30.4423 15.4L65.3008 15.4V13.6L30.4423 13.6V15.4ZM14.9 30.9423C14.9 22.3586 21.8585 15.4 30.4423 15.4V13.6C20.8644 13.6 13.1 21.3645 13.1 30.9423H14.9ZM14.9 66.7V30.9423H13.1V66.7H14.9ZM14 67.6C17.9762 67.6002 21.1996 70.8237 21.1996 74.8H22.9996C22.9996 69.8296 18.9704 65.8002 14 65.8L14 67.6ZM21.1996 74.8L21.1996 386.2H22.9996L22.9996 74.8H21.1996ZM21.1996 386.2C21.1996 390.176 17.9762 393.4 14 393.4L14 395.2C18.9704 395.2 22.9996 391.17 22.9996 386.2H21.1996ZM14.9 425.558V394.3H13.1V425.558H14.9ZM30.4423 441.1C21.8585 441.1 14.9 434.141 14.9 425.558H13.1C13.1 435.136 20.8644 442.9 30.4423 442.9V441.1ZM65.3008 441.1L30.4423 441.1V442.9L65.3008 442.9V441.1ZM73.4008 433C68.4302 433 64.4008 437.029 64.4008 442H66.2008C66.2008 438.024 69.4243 434.8 73.4008 434.8V433ZM241.701 433H73.4008V434.8H241.701V433ZM250.701 442C250.701 437.029 246.671 433 241.701 433V434.8C245.677 434.8 248.901 438.024 248.901 442H250.701ZM285.558 441.1L249.801 441.1V442.9L285.558 442.9V441.1ZM301.1 425.558C301.1 434.141 294.141 441.1 285.558 441.1V442.9C295.136 442.9 302.9 435.136 302.9 425.558H301.1ZM301.1 394.3V425.558H302.9V394.3H301.1ZM302 393.4C298.024 393.4 294.8 390.176 294.8 386.2H293C293 391.17 297.03 395.2 302 395.2L302 393.4ZM294.8 386.2V74.8H293V386.2H294.8ZM294.8 74.8C294.8 70.8237 298.024 67.6002 302 67.6L302 65.8C297.03 65.8002 293 69.8296 293 74.8H294.8ZM301.1 30.9423V66.7H302.9V30.9423H301.1ZM285.558 15.4C294.141 15.4 301.1 22.3586 301.1 30.9423H302.9C302.9 21.3644 295.136 13.6 285.558 13.6V15.4ZM249.801 15.4L285.558 15.4V13.6L249.801 13.6V15.4Z" fill="white" fill-opacity="0.15" mask="url(#path-1-inside-1_0_1)"/>
    </g>
    <g filter="url(#filter1_d_0_1)">
        <path d="M245.3 14.5C245.3 16.9853 243.285 19 240.8 19L74.2998 19C71.8145 19 69.7998 16.9853 69.7998 14.5L245.3 14.5Z" fill="#FF008A"/>
    </g>
    <g opacity="0.4" filter="url(#filter2_d_0_1)">
        <path d="M14 70.2999C16.4853 70.2999 18.5 72.3146 18.5 74.7999L18.5 385.3C18.5 387.785 16.4853 389.8 14 389.8L14 70.2999Z" fill="#FF008A"/>
    </g>
    <g opacity="0.4" filter="url(#filter3_d_0_1)">
        <path d="M302 70.2999C299.515 70.2999 297.5 72.3146 297.5 74.7999L297.5 385.3C297.5 387.785 299.515 389.8 302 389.8L302 70.2999Z" fill="#FF008A"/>
    </g>
    <g filter="url(#filter4_d_0_1)">
        <path d="M245.3 442C245.3 439.515 243.285 437.5 240.8 437.5L74.2998 437.5C71.8145 437.5 69.7998 439.515 69.7998 442L245.3 442Z" fill="#FF008A"/>
    </g>
    <defs>
        <filter id="filter0_b_0_1" x="-58" y="-57.5" width="432" height="571.5" filterUnits="userSpaceOnUse" color-interpolation-filters="sRGB">
            <feFlood flood-opacity="0" result="BackgroundImageFix"/>
            <feGaussianBlur in="BackgroundImageFix" stdDeviation="36"/>
            <feComposite in2="SourceAlpha" operator="in" result="effect1_backgroundBlur_0_1"/>
            <feBlend mode="normal" in="SourceGraphic" in2="effect1_backgroundBlur_0_1" result="shape"/>
        </filter>
        <filter id="filter1_d_0_1" x="55.3998" y="0.1" width="204.3" height="33.3" filterUnits="userSpaceOnUse" color-interpolation-filters="sRGB">
            <feFlood flood-opacity="0" result="BackgroundImageFix"/>
            <feColorMatrix in="SourceAlpha" type="matrix" values="0 0 0 0 0 0 0 0 0 0 0 0 0 0 0 0 0 0 127 0" result="hardAlpha"/>
            <feOffset/>
            <feGaussianBlur stdDeviation="7.2"/>
            <feComposite in2="hardAlpha" operator="out"/>
            <feColorMatrix type="matrix" values="0 0 0 0 1 0 0 0 0 0 0 0 0 0 0.541176 0 0 0 0.8 0"/>
            <feBlend mode="normal" in2="BackgroundImageFix" result="effect1_dropShadow_0_1"/>
            <feBlend mode="normal" in="SourceGraphic" in2="effect1_dropShadow_0_1" result="shape"/>
        </filter>
        <filter id="filter2_d_0_1" x="0.846154" y="57.1461" width="30.8077" height="345.808" filterUnits="userSpaceOnUse" color-interpolation-filters="sRGB">
            <feFlood flood-opacity="0" result="BackgroundImageFix"/>
            <feColorMatrix in="SourceAlpha" type="matrix" values="0 0 0 0 0 0 0 0 0 0 0 0 0 0 0 0 0 0 127 0" result="hardAlpha"/>
            <feOffset/>
            <feGaussianBlur stdDeviation="6.57692"/>
            <feComposite in2="hardAlpha" operator="out"/>
            <feColorMatrix type="matrix" values="0 0 0 0 1 0 0 0 0 0 0 0 0 0 0.541176 0 0 0 0.8 0"/>
            <feBlend mode="normal" in2="BackgroundImageFix" result="effect1_dropShadow_0_1"/>
            <feBlend mode="normal" in="SourceGraphic" in2="effect1_dropShadow_0_1" result="shape"/>
        </filter>
        <filter id="filter3_d_0_1" x="284.346" y="57.1461" width="30.8077" height="345.808" filterUnits="userSpaceOnUse" color-interpolation-filters="sRGB">
            <feFlood flood-opacity="0" result="BackgroundImageFix"/>
            <feColorMatrix in="SourceAlpha" type="matrix" values="0 0 0 0 0 0 0 0 0 0 0 0 0 0 0 0 0 0 127 0" result="hardAlpha"/>
            <feOffset/>
            <feGaussianBlur stdDeviation="6.57692"/>
            <feComposite in2="hardAlpha" operator="out"/>
            <feColorMatrix type="matrix" values="0 0 0 0 1 0 0 0 0 0 0 0 0 0 0.541176 0 0 0 0.8 0"/>
            <feBlend mode="normal" in2="BackgroundImageFix" result="effect1_dropShadow_0_1"/>
            <feBlend mode="normal" in="SourceGraphic" in2="effect1_dropShadow_0_1" result="shape"/>
        </filter>
        <filter id="filter4_d_0_1" x="55.3998" y="423.1" width="204.3" height="33.3" filterUnits="userSpaceOnUse" color-interpolation-filters="sRGB">
            <feFlood flood-opacity="0" result="BackgroundImageFix"/>
            <feColorMatrix in="SourceAlpha" type="matrix" values="0 0 0 0 0 0 0 0 0 0 0 0 0 0 0 0 0 0 127 0" result="hardAlpha"/>
            <feOffset/>
            <feGaussianBlur stdDeviation="7.2"/>
            <feComposite in2="hardAlpha" operator="out"/>
            <feColorMatrix type="matrix" values="0 0 0 0 1 0 0 0 0 0 0 0 0 0 0.541176 0 0 0 0.8 0"/>
            <feBlend mode="normal" in2="BackgroundImageFix" result="effect1_dropShadow_0_1"/>
            <feBlend mode="normal" in="SourceGraphic" in2="effect1_dropShadow_0_1" result="shape"/>
        </filter>
    </defs>
</svg>
