<svg width="307" height="507"  viewBox="0 0 307 446" fill="none" xmlns="http://www.w3.org/2000/svg">
<g filter="url(#filter0_b_918_2744)">
<mask id="path-1-inside-1_918_2744" fill="white">
<path fill-rule="evenodd" clip-rule="evenodd" d="M29 15C20.1634 15 13 22.1635 13 31V65.7959C17.353 65.796 20.8818 69.3249 20.8818 73.678L20.8818 376.701C20.8818 381.054 17.353 384.583 13 384.583V415C13 423.837 20.1634 431 29 431H277.253C286.089 431 293.253 423.837 293.253 415V384.583C288.9 384.583 285.371 381.054 285.371 376.701V73.678C285.371 69.325 288.9 65.7962 293.253 65.7959V31C293.253 22.1634 286.089 15 277.253 15H29ZM242.457 15.0002C242.457 19.3534 238.928 22.8823 234.575 22.8823L70.8023 22.8823C66.4491 22.8823 62.9202 19.3534 62.9202 15.0002L242.457 15.0002ZM62.9199 431C62.9199 426.647 66.4489 423.118 70.802 423.118H234.575C238.928 423.118 242.457 426.647 242.457 431H62.9199Z"/>
</mask>
<path fill-rule="evenodd" clip-rule="evenodd" d="M29 15C20.1634 15 13 22.1635 13 31V65.7959C17.353 65.796 20.8818 69.3249 20.8818 73.678L20.8818 376.701C20.8818 381.054 17.353 384.583 13 384.583V415C13 423.837 20.1634 431 29 431H277.253C286.089 431 293.253 423.837 293.253 415V384.583C288.9 384.583 285.371 381.054 285.371 376.701V73.678C285.371 69.325 288.9 65.7962 293.253 65.7959V31C293.253 22.1634 286.089 15 277.253 15H29ZM242.457 15.0002C242.457 19.3534 238.928 22.8823 234.575 22.8823L70.8023 22.8823C66.4491 22.8823 62.9202 19.3534 62.9202 15.0002L242.457 15.0002ZM62.9199 431C62.9199 426.647 66.4489 423.118 70.802 423.118H234.575C238.928 423.118 242.457 426.647 242.457 431H62.9199Z" fill="white" fill-opacity="0.1"/>
<path d="M13 65.7959H12.1242V66.6717L13 66.6717L13 65.7959ZM20.8818 73.678L20.006 73.678L20.8818 73.678ZM20.8818 376.701L21.7576 376.701L20.8818 376.701ZM13 384.583L13 383.707L12.1242 383.707V384.583H13ZM293.253 384.583H294.128V383.708L293.253 383.707L293.253 384.583ZM293.253 65.7959L293.253 66.6717L294.128 66.6716V65.7959H293.253ZM234.575 22.8823L234.575 23.7581H234.575V22.8823ZM242.457 15.0002H243.333V14.1244L242.457 14.1244L242.457 15.0002ZM70.8023 22.8823L70.8023 23.7581L70.8023 23.7581L70.8023 22.8823ZM62.9202 15.0002L62.9202 14.1244L62.0444 14.1244V15.0002H62.9202ZM62.9199 431H62.0441V431.876H62.9199V431ZM242.457 431V431.876H243.333V431H242.457ZM13.8758 31C13.8758 22.6471 20.6471 15.8758 29 15.8758V14.1242C19.6798 14.1242 12.1242 21.6798 12.1242 31H13.8758ZM13.8758 65.7959V31H12.1242V65.7959H13.8758ZM13 66.6717C16.8693 66.6718 20.006 69.8086 20.006 73.678H21.7576C21.7576 68.8413 17.8367 64.9203 13 64.9201L13 66.6717ZM20.006 73.678L20.0061 376.701L21.7576 376.701L21.7576 73.678L20.006 73.678ZM20.0061 376.701C20.0061 380.571 16.8693 383.707 13 383.707L13 385.459C17.8367 385.459 21.7576 381.538 21.7576 376.701H20.0061ZM13.8758 415V384.583H12.1242V415H13.8758ZM29 430.124C20.6471 430.124 13.8758 423.353 13.8758 415H12.1242C12.1242 424.32 19.6797 431.876 29 431.876V430.124ZM277.253 430.124H29V431.876H277.253V430.124ZM292.377 415C292.377 423.353 285.605 430.124 277.253 430.124V431.876C286.573 431.876 294.128 424.32 294.128 415H292.377ZM292.377 384.583V415H294.128V384.583H292.377ZM293.253 383.707C289.383 383.707 286.247 380.57 286.247 376.701H284.495C284.495 381.538 288.416 385.459 293.253 385.459L293.253 383.707ZM286.247 376.701V73.678H284.495V376.701H286.247ZM286.247 73.678C286.247 69.8087 289.383 66.672 293.253 66.6717L293.253 64.9201C288.416 64.9205 284.495 68.8414 284.495 73.678H286.247ZM292.377 31V65.7959H294.128V31H292.377ZM277.253 15.8758C285.606 15.8758 292.377 22.6471 292.377 31H294.128C294.128 21.6798 286.573 14.1242 277.253 14.1242V15.8758ZM29 15.8758H277.253V14.1242H29V15.8758ZM234.575 23.7581C239.412 23.7581 243.333 19.8371 243.333 15.0002H241.581C241.581 18.8697 238.444 22.0065 234.575 22.0065V23.7581ZM70.8023 23.7581L234.575 23.7581L234.575 22.0065L70.8023 22.0065L70.8023 23.7581ZM62.0444 15.0002C62.0444 19.8371 65.9655 23.7581 70.8023 23.7581L70.8023 22.0065C66.9328 22.0065 63.796 18.8697 63.796 15.0002H62.0444ZM242.457 14.1244L62.9202 14.1244L62.9202 15.876L242.457 15.876L242.457 14.1244ZM70.802 422.242C65.9652 422.242 62.0441 426.163 62.0441 431H63.7957C63.7957 427.13 66.9325 423.993 70.802 423.993V422.242ZM234.575 422.242H70.802V423.993H234.575V422.242ZM243.333 431C243.333 426.163 239.411 422.242 234.575 422.242V423.993C238.444 423.993 241.581 427.13 241.581 431H243.333ZM62.9199 431.876H242.457V430.124H62.9199V431.876Z" fill="white" fill-opacity="0.15" mask="url(#path-1-inside-1_918_2744)"/>
</g>
<g filter="url(#filter1_d_918_2744)">
<path d="M238.078 15C238.078 17.4184 236.118 19.3789 233.699 19.3789L71.6781 19.3789C69.2597 19.3789 67.2992 17.4184 67.2992 15V15L238.078 15V15Z" fill="#52ff00"/>
</g>
<g opacity="0.4" filter="url(#filter2_d_918_2744)">
<path d="M13 69.2988C15.4184 69.2988 17.3789 71.2594 17.3789 73.6778L17.3789 375.825C17.3789 378.244 15.4184 380.204 13 380.204V380.204L13 69.2988V69.2988Z" fill="#52ff00"/>
</g>
<g opacity="0.4" filter="url(#filter3_d_918_2744)">
<path d="M293.253 69.2988C290.835 69.2988 288.874 71.2594 288.874 73.6778L288.874 375.825C288.874 378.244 290.835 380.204 293.253 380.204V380.204L293.253 69.2988V69.2988Z" fill="#52ff00"/>
</g>
<g filter="url(#filter4_d_918_2744)">
<path d="M238.078 431C238.078 428.582 236.118 426.621 233.699 426.621L71.6781 426.621C69.2597 426.621 67.2992 428.582 67.2992 431V431L238.078 431V431Z" fill="#52ff00"/>
</g>
<defs>
<filter id="filter0_b_918_2744" x="-57.0632" y="-55.0632" width="420.379" height="556.126" filterUnits="userSpaceOnUse" color-interpolation-filters="sRGB">
<feFlood flood-opacity="0" result="BackgroundImageFix"/>
<feGaussianBlur in="BackgroundImageFix" stdDeviation="35.0316"/>
<feComposite in2="SourceAlpha" operator="in" result="effect1_backgroundBlur_918_2744"/>
<feBlend mode="normal" in="SourceGraphic" in2="effect1_backgroundBlur_918_2744" result="shape"/>
</filter>
<filter id="filter1_d_918_2744" x="53.2862" y="0.987369" width="198.805" height="32.4042" filterUnits="userSpaceOnUse" color-interpolation-filters="sRGB">
<feFlood flood-opacity="0" result="BackgroundImageFix"/>
<feColorMatrix in="SourceAlpha" type="matrix" values="0 0 0 0 0 0 0 0 0 0 0 0 0 0 0 0 0 0 127 0" result="hardAlpha"/>
<feOffset/>
<feGaussianBlur stdDeviation="7.00632"/>
<feComposite in2="hardAlpha" operator="out"/>
<feColorMatrix type="matrix" values="0 0 0 0 0 0 0 0 0 0.760784 0 0 0 0 1 0 0 0 0.8 0"/>
<feBlend mode="normal" in2="BackgroundImageFix" result="effect1_dropShadow_918_2744"/>
<feBlend mode="normal" in="SourceGraphic" in2="effect1_dropShadow_918_2744" result="shape"/>
</filter>
<filter id="filter2_d_918_2744" x="0.2" y="56.4988" width="29.9789" height="336.505" filterUnits="userSpaceOnUse" color-interpolation-filters="sRGB">
<feFlood flood-opacity="0" result="BackgroundImageFix"/>
<feColorMatrix in="SourceAlpha" type="matrix" values="0 0 0 0 0 0 0 0 0 0 0 0 0 0 0 0 0 0 127 0" result="hardAlpha"/>
<feOffset/>
<feGaussianBlur stdDeviation="6.4"/>
<feComposite in2="hardAlpha" operator="out"/>
<feColorMatrix type="matrix" values="0 0 0 0 0 0 0 0 0 0.760784 0 0 0 0 1 0 0 0 0.8 0"/>
<feBlend mode="normal" in2="BackgroundImageFix" result="effect1_dropShadow_918_2744"/>
<feBlend mode="normal" in="SourceGraphic" in2="effect1_dropShadow_918_2744" result="shape"/>
</filter>
<filter id="filter3_d_918_2744" x="276.074" y="56.4988" width="29.9789" height="336.505" filterUnits="userSpaceOnUse" color-interpolation-filters="sRGB">
<feFlood flood-opacity="0" result="BackgroundImageFix"/>
<feColorMatrix in="SourceAlpha" type="matrix" values="0 0 0 0 0 0 0 0 0 0 0 0 0 0 0 0 0 0 127 0" result="hardAlpha"/>
<feOffset/>
<feGaussianBlur stdDeviation="6.4"/>
<feComposite in2="hardAlpha" operator="out"/>
<feColorMatrix type="matrix" values="0 0 0 0 0 0 0 0 0 0.760784 0 0 0 0 1 0 0 0 0.8 0"/>
<feBlend mode="normal" in2="BackgroundImageFix" result="effect1_dropShadow_918_2744"/>
<feBlend mode="normal" in="SourceGraphic" in2="effect1_dropShadow_918_2744" result="shape"/>
</filter>
<filter id="filter4_d_918_2744" x="53.2862" y="412.608" width="198.805" height="32.4042" filterUnits="userSpaceOnUse" color-interpolation-filters="sRGB">
<feFlood flood-opacity="0" result="BackgroundImageFix"/>
<feColorMatrix in="SourceAlpha" type="matrix" values="0 0 0 0 0 0 0 0 0 0 0 0 0 0 0 0 0 0 127 0" result="hardAlpha"/>
<feOffset/>
<feGaussianBlur stdDeviation="7.00632"/>
<feComposite in2="hardAlpha" operator="out"/>
<feColorMatrix type="matrix" values="0 0 0 0 0 0 0 0 0 0.760784 0 0 0 0 1 0 0 0 0.8 0"/>
<feBlend mode="normal" in2="BackgroundImageFix" result="effect1_dropShadow_918_2744"/>
<feBlend mode="normal" in="SourceGraphic" in2="effect1_dropShadow_918_2744" result="shape"/>
</filter>
</defs>
</svg>
