<svg width="431" height="156" viewBox="0 0 431 156" fill="none" xmlns="http://www.w3.org/2000/svg">
<circle cx="375.192" cy="119.341" r="2.48665" stroke="#52FF00" stroke-width="0.710471"/>
<ellipse cx="214.933" cy="135.702" rx="3.93305" ry="3.92156" fill="#050A17"/>
<g opacity="0.5" filter="url(#filter0_dd_1307_2787)">
<path d="M361.467 127.862C353.874 125.814 346.82 122.111 340.805 117.014C334.791 111.917 329.963 105.552 326.664 98.3692L328.064 97.7174C331.269 104.694 335.958 110.876 341.799 115.826C347.64 120.776 354.491 124.373 361.867 126.362L361.467 127.862Z" fill="url(#paint0_linear_1307_2787)" shape-rendering="crispEdges"/>
</g>
<g filter="url(#filter1_dd_1307_2787)">
</g>
<g filter="url(#filter2_dd_1307_2787)">
<rect x="375.192" y="21" width="76.6398" height="76.6398" rx="7.81518" transform="rotate(45 375.192 21)" fill="#050A17"/>
<rect x="375.192" y="21.5024" width="75.9293" height="75.9293" rx="7.45994" transform="rotate(45 375.192 21.5024)" stroke="#52FF00" stroke-width="0.710471"/>
</g>
<g filter="url(#filter3_dd_1307_2787)">
<path d="M344.738 73.3629H348.685C348.685 70.8473 349.595 69.6112 352.003 69.6112C354.041 69.6112 354.518 70.5654 354.518 71.3678C354.518 73.8183 350.073 74.7725 344.955 75.1411V81.7554H358.443V78.2856H346.473C353.152 77.2447 358.443 76.2037 358.443 71.4545C358.443 67.9631 355.863 66.1631 352.068 66.1631C347.969 66.1631 344.738 68.2667 344.738 73.3629ZM367.882 82.059C372.631 82.059 375.537 78.8928 375.537 74.1002C375.537 69.3293 372.631 66.1631 367.882 66.1631C363.089 66.1631 360.183 69.3293 360.183 74.1002C360.183 78.8928 363.089 82.059 367.882 82.059ZM364.13 74.1002C364.13 70.9774 365.583 69.5678 367.882 69.5678C368.684 69.5678 369.378 69.7413 369.942 70.0883L364.303 75.8351C364.195 75.3363 364.13 74.7508 364.13 74.1002ZM365.8 78.0904L371.416 72.387C371.525 72.8858 371.59 73.4496 371.59 74.1002C371.59 77.2664 370.159 78.6326 367.882 78.6326C367.079 78.6326 366.363 78.4591 365.8 78.0904ZM377.457 73.3629H381.403C381.403 70.8473 382.314 69.6112 384.721 69.6112C386.76 69.6112 387.237 70.5654 387.237 71.3678C387.237 73.8183 382.791 74.7725 377.673 75.1411V81.7554H391.162V78.2856H379.191C385.871 77.2447 391.162 76.2037 391.162 71.4545C391.162 67.9631 388.581 66.1631 384.786 66.1631C380.688 66.1631 377.457 68.2667 377.457 73.3629ZM401.21 72.9725V76.0303H394.443C399.735 74.946 402.836 71.6497 403.031 66.4667H399.279C399.063 70.1967 396.851 72.387 393.077 72.8207V79.3048H401.21V81.7554H404.94V79.3048H406.566V76.0303H404.94V72.9725H401.21Z" fill="white"/>
</g>
<g filter="url(#filter4_dd_1307_2787)">
<circle cx="331.143" cy="75.2911" r="2.48665" transform="rotate(90 331.143 75.2911)" stroke="#52FF00" stroke-width="0.710471" shape-rendering="crispEdges"/>
</g>
<g filter="url(#filter5_dd_1307_2787)">
<rect x="55.1924" y="21" width="76.6398" height="76.6398" rx="7.81518" transform="rotate(45 55.1924 21)" fill="#050A17"/>
<rect x="55.1924" y="21.5024" width="75.9293" height="75.9293" rx="7.45994" transform="rotate(45 55.1924 21.5024)" stroke="#52FF00" stroke-width="0.710471"/>
</g>
<g filter="url(#filter6_dd_1307_2787)">
<path d="M24.6001 73.3629H23.8404V74.1226H24.6001V73.3629ZM28.547 73.3629V74.1226H29.3067V73.3629H28.547ZM24.817 75.1411L24.7624 74.3834L24.0573 74.4342V75.1411H24.817ZM24.817 81.7554H24.0573V82.5151H24.817V81.7554ZM38.3057 81.7554V82.5151H39.0654V81.7554H38.3057ZM38.3057 78.2856H39.0654V77.5259H38.3057V78.2856ZM26.335 78.2856L26.218 77.535L26.335 79.0453V78.2856ZM24.6001 74.1226H28.547V72.6032H24.6001V74.1226ZM29.3067 73.3629C29.3067 72.1688 29.5284 71.453 29.8827 71.035C30.2126 70.6459 30.7839 70.3709 31.8649 70.3709V68.8515C30.5388 68.8515 29.4511 69.1945 28.7238 70.0524C28.021 70.8814 27.7873 72.0414 27.7873 73.3629H29.3067ZM31.8649 70.3709C32.7778 70.3709 33.1936 70.5854 33.3771 70.7516C33.5495 70.9078 33.6208 71.1158 33.6208 71.3678H35.1402C35.1402 70.8174 34.973 70.1471 34.3972 69.6255C33.8326 69.1141 32.9906 68.8515 31.8649 68.8515V70.3709ZM33.6208 71.3678C33.6208 71.7171 33.4739 72.0415 33.1023 72.3705C32.713 72.7152 32.1046 73.0354 31.275 73.3153C29.6187 73.8743 27.307 74.2001 24.7624 74.3834L24.8716 75.8989C27.4449 75.7135 29.9149 75.3779 31.7609 74.755C32.6824 74.444 33.5053 74.0431 34.1095 73.5081C34.7314 72.9575 35.1402 72.2437 35.1402 71.3678H33.6208ZM24.0573 75.1411V81.7554H25.5767V75.1411H24.0573ZM24.817 82.5151H38.3057V80.9957H24.817V82.5151ZM39.0654 81.7554V78.2856H37.546V81.7554H39.0654ZM38.3057 77.5259H26.335V79.0453H38.3057V77.5259ZM26.452 79.0363C29.7667 78.5197 32.8696 77.9874 35.1403 76.9519C36.2883 76.4284 37.2762 75.7543 37.977 74.8418C38.6878 73.9165 39.0654 72.7949 39.0654 71.4545H37.546C37.546 72.4887 37.2622 73.2782 36.772 73.9163C36.272 74.5673 35.5196 75.109 34.5099 75.5694C32.465 76.502 29.5826 77.0106 26.218 77.535L26.452 79.0363ZM39.0654 71.4545C39.0654 69.5022 38.3333 67.9496 37.0126 66.9039C35.7166 65.8778 33.9357 65.4034 31.93 65.4034V66.9228C33.7194 66.9228 35.1263 67.3484 36.0694 68.0951C36.9878 68.8223 37.546 69.9153 37.546 71.4545H39.0654ZM31.93 65.4034C29.761 65.4034 27.7269 65.9596 26.2259 67.2818C24.7083 68.6187 23.8404 70.646 23.8404 73.3629H25.3598C25.3598 70.9835 26.1076 69.4109 27.2302 68.422C28.3695 67.4184 30.0004 66.9228 31.93 66.9228V65.4034ZM49.804 70.0883L50.3463 70.6203L51.0134 69.9405L50.2022 69.4413L49.804 70.0883ZM44.1657 75.8351L43.4233 75.9965L43.7223 77.3718L44.7079 76.3671L44.1657 75.8351ZM45.662 78.0904L45.1207 77.5574L44.4696 78.2185L45.2462 78.7263L45.662 78.0904ZM51.2787 72.387L52.021 72.2256L51.7227 70.8534L50.7374 71.8539L51.2787 72.387ZM47.7438 82.8187C50.2935 82.8187 52.4184 81.9642 53.9034 80.3999C55.3838 78.8404 56.1587 76.6493 56.1587 74.1002H54.6393C54.6393 76.3438 53.9612 78.132 52.8014 79.3538C51.6462 80.5707 49.9434 81.2993 47.7438 81.2993V82.8187ZM56.1587 74.1002C56.1587 71.5611 55.3833 69.3754 53.9029 67.819C52.418 66.2579 50.2934 65.4034 47.7438 65.4034V66.9228C49.9435 66.9228 51.6465 67.6514 52.8019 68.8661C53.9617 70.0855 54.6393 71.8683 54.6393 74.1002H56.1587ZM47.7438 65.4034C45.1745 65.4034 43.0391 66.2566 41.548 67.8178C40.0611 69.3747 39.2856 71.5611 39.2856 74.1002H40.805C40.805 71.8684 41.4825 70.0863 42.6467 68.8673C43.8068 67.6527 45.5206 66.9228 47.7438 66.9228V65.4034ZM39.2856 74.1002C39.2856 76.6493 40.0605 78.8411 41.5474 80.401C43.0387 81.9654 45.1744 82.8187 47.7438 82.8187V81.2993C45.5206 81.2993 43.8071 80.5694 42.6473 79.3526C41.483 78.1313 40.805 76.3437 40.805 74.1002H39.2856ZM44.7519 74.1002C44.7519 72.644 45.0917 71.7181 45.5775 71.1635C46.0488 70.6254 46.7541 70.3275 47.7438 70.3275V68.8081C46.4349 68.8081 45.2643 69.215 44.4345 70.1624C43.6191 71.0933 43.2325 72.4336 43.2325 74.1002H44.7519ZM47.7438 70.3275C48.4377 70.3275 48.9864 70.4772 49.4059 70.7353L50.2022 69.4413C49.4939 69.0054 48.6547 68.8081 47.7438 68.8081V70.3275ZM49.2617 69.5562L43.6234 75.303L44.7079 76.3671L50.3463 70.6203L49.2617 69.5562ZM44.908 75.6737C44.8121 75.2324 44.7519 74.7013 44.7519 74.1002H43.2325C43.2325 74.8003 43.3024 75.4402 43.4233 75.9965L44.908 75.6737ZM46.2033 78.6235L51.82 72.9201L50.7374 71.8539L45.1207 77.5574L46.2033 78.6235ZM50.5363 72.5484C50.6326 72.9915 50.6924 73.5012 50.6924 74.1002H52.2119C52.2119 73.3981 52.1416 72.78 52.021 72.2256L50.5363 72.5484ZM50.6924 74.1002C50.6924 75.5832 50.3557 76.5077 49.8791 77.0546C49.4184 77.5834 48.727 77.8729 47.7438 77.8729V79.3923C49.0377 79.3923 50.2005 78.9987 51.0247 78.0528C51.833 77.1251 52.2119 75.7834 52.2119 74.1002H50.6924ZM47.7438 77.8729C47.0451 77.8729 46.4857 77.7213 46.0777 77.4546L45.2462 78.7263C45.966 79.1969 46.8378 79.3923 47.7438 79.3923V77.8729ZM57.3189 73.3629H56.5592V74.1226H57.3189V73.3629ZM61.2658 73.3629V74.1226H62.0255V73.3629H61.2658ZM57.5358 75.1411L57.4812 74.3834L56.7761 74.4342V75.1411H57.5358ZM57.5358 81.7554H56.7761V82.5151H57.5358V81.7554ZM71.0245 81.7554V82.5151H71.7842V81.7554H71.0245ZM71.0245 78.2856H71.7842V77.5259H71.0245V78.2856ZM59.0538 78.2856L58.9368 77.535L59.0538 79.0453V78.2856ZM57.3189 74.1226H61.2658V72.6032H57.3189V74.1226ZM62.0255 73.3629C62.0255 72.1688 62.2471 71.453 62.6015 71.035C62.9314 70.6459 63.5027 70.3709 64.5837 70.3709V68.8515C63.2576 68.8515 62.1699 69.1945 61.4426 70.0524C60.7398 70.8814 60.5061 72.0414 60.5061 73.3629H62.0255ZM64.5837 70.3709C65.4966 70.3709 65.9124 70.5854 66.0959 70.7516C66.2683 70.9078 66.3396 71.1158 66.3396 71.3678H67.859C67.859 70.8174 67.6917 70.1471 67.116 69.6255C66.5514 69.1141 65.7094 68.8515 64.5837 68.8515V70.3709ZM66.3396 71.3678C66.3396 71.7171 66.1927 72.0415 65.8211 72.3705C65.4318 72.7152 64.8234 73.0354 63.9938 73.3153C62.3375 73.8743 60.0258 74.2001 57.4812 74.3834L57.5903 75.8989C60.1637 75.7135 62.6337 75.3779 64.4797 74.755C65.4012 74.444 66.2241 74.0431 66.8283 73.5081C67.4502 72.9575 67.859 72.2437 67.859 71.3678H66.3396ZM56.7761 75.1411V81.7554H58.2955V75.1411H56.7761ZM57.5358 82.5151H71.0245V80.9957H57.5358V82.5151ZM71.7842 81.7554V78.2856H70.2648V81.7554H71.7842ZM71.0245 77.5259H59.0538V79.0453H71.0245V77.5259ZM59.1708 79.0363C62.4855 78.5197 65.5884 77.9874 67.8591 76.9519C69.0071 76.4284 69.995 75.7543 70.6958 74.8418C71.4066 73.9165 71.7842 72.7949 71.7842 71.4545H70.2648C70.2648 72.4887 69.981 73.2782 69.4908 73.9163C68.9908 74.5673 68.2384 75.109 67.2286 75.5694C65.1838 76.502 62.3014 77.0106 58.9368 77.535L59.1708 79.0363ZM71.7842 71.4545C71.7842 69.5022 71.052 67.9496 69.7314 66.9039C68.4354 65.8778 66.6545 65.4034 64.6488 65.4034V66.9228C66.4382 66.9228 67.8451 67.3484 68.7882 68.0951C69.7066 68.8223 70.2648 69.9153 70.2648 71.4545H71.7842ZM64.6488 65.4034C62.4797 65.4034 60.4457 65.9596 58.9447 67.2818C57.4271 68.6187 56.5592 70.646 56.5592 73.3629H58.0786C58.0786 70.9835 58.8263 69.4109 59.949 68.422C61.0883 67.4184 62.7192 66.9228 64.6488 66.9228V65.4034ZM73.1065 73.3629H72.3468V74.1226H73.1065V73.3629ZM77.0534 73.3629V74.1226H77.8131V73.3629H77.0534ZM73.3234 75.1411L73.2688 74.3834L72.5637 74.4342V75.1411H73.3234ZM73.3234 81.7554H72.5637V82.5151H73.3234V81.7554ZM86.8121 81.7554V82.5151H87.5718V81.7554H86.8121ZM86.8121 78.2856H87.5718V77.5259H86.8121V78.2856ZM74.8414 78.2856L74.7244 77.535L74.8414 79.0453V78.2856ZM73.1065 74.1226H77.0534V72.6032H73.1065V74.1226ZM77.8131 73.3629C77.8131 72.1688 78.0347 71.453 78.3891 71.035C78.719 70.6459 79.2903 70.3709 80.3713 70.3709V68.8515C79.0452 68.8515 77.9575 69.1945 77.2302 70.0524C76.5274 70.8814 76.2936 72.0414 76.2936 73.3629H77.8131ZM80.3713 70.3709C81.2841 70.3709 81.7 70.5854 81.8835 70.7516C82.0559 70.9078 82.1272 71.1158 82.1272 71.3678H83.6466C83.6466 70.8174 83.4793 70.1471 82.9036 69.6255C82.339 69.1141 81.497 68.8515 80.3713 68.8515V70.3709ZM82.1272 71.3678C82.1272 71.7171 81.9803 72.0415 81.6087 72.3705C81.2194 72.7152 80.611 73.0354 79.7814 73.3153C78.1251 73.8743 75.8134 74.2001 73.2688 74.3834L73.3779 75.8989C75.9513 75.7135 78.4213 75.3779 80.2673 74.755C81.1888 74.444 82.0117 74.0431 82.6159 73.5081C83.2378 72.9575 83.6466 72.2437 83.6466 71.3678H82.1272ZM72.5637 75.1411V81.7554H74.0831V75.1411H72.5637ZM73.3234 82.5151H86.8121V80.9957H73.3234V82.5151ZM87.5718 81.7554V78.2856H86.0524V81.7554H87.5718ZM86.8121 77.5259H74.8414V79.0453H86.8121V77.5259ZM74.9584 79.0363C78.2731 78.5197 81.376 77.9874 83.6467 76.9519C84.7947 76.4284 85.7826 75.7543 86.4834 74.8418C87.1942 73.9165 87.5718 72.7949 87.5718 71.4545H86.0524C86.0524 72.4887 85.7686 73.2782 85.2784 73.9163C84.7784 74.5673 84.026 75.109 83.0162 75.5694C80.9714 76.502 78.089 77.0106 74.7244 77.535L74.9584 79.0363ZM87.5718 71.4545C87.5718 69.5022 86.8396 67.9496 85.519 66.9039C84.223 65.8778 82.4421 65.4034 80.4364 65.4034V66.9228C82.2257 66.9228 83.6327 67.3484 84.5758 68.0951C85.4942 68.8223 86.0524 69.9153 86.0524 71.4545H87.5718ZM80.4364 65.4034C78.2673 65.4034 76.2333 65.9596 74.7323 67.2818C73.2147 68.6187 72.3468 70.646 72.3468 73.3629H73.8662C73.8662 70.9835 74.6139 69.4109 75.7366 68.422C76.8759 67.4184 78.5068 66.9228 80.4364 66.9228V65.4034Z" fill="#52FF00"/>
</g>
<g filter="url(#filter7_dd_1307_2787)">
<circle cx="99.2421" cy="75.2913" r="2.48665" transform="rotate(90 99.2421 75.2913)" stroke="#52FF00" stroke-width="0.710471" shape-rendering="crispEdges"/>
</g>
<g opacity="0.5" filter="url(#filter8_dd_1307_2787)">
<path d="M195.55 147.461C185.04 144.635 175.278 139.524 166.955 132.491C158.631 125.458 151.949 116.675 147.383 106.763L149.321 105.864C153.756 115.491 160.245 124.021 168.33 130.852C176.414 137.682 185.895 142.646 196.103 145.391L195.55 147.461Z" fill="url(#paint1_linear_1307_2787)" shape-rendering="crispEdges"/>
</g>
<g filter="url(#filter9_dd_1307_2787)">
</g>
<g filter="url(#filter10_dd_1307_2787)">
<rect width="105.912" height="105.912" rx="10.7634" transform="matrix(0.70814 0.706072 -0.70814 0.706072 215 0)" fill="url(#paint2_radial_1307_2787)" shape-rendering="crispEdges"/>
<rect y="1.12972" width="104.312" height="104.312" rx="9.96335" transform="matrix(0.70814 0.706072 -0.70814 0.706072 215.8 0.332057)" stroke="#050A17" stroke-width="1.60001" shape-rendering="crispEdges"/>
</g>
<g filter="url(#filter11_dd_1307_2787)">
<path d="M172.27 72.7594H177.706C177.706 69.2949 178.96 67.5925 182.275 67.5925C185.083 67.5925 185.74 68.9066 185.74 70.0117C185.74 73.3866 179.617 74.7008 172.569 75.2085V84.3179H191.146V79.5392H174.659C183.858 78.1056 191.146 76.672 191.146 70.1311C191.146 65.3226 187.592 62.8436 182.365 62.8436C176.72 62.8436 172.27 65.7407 172.27 72.7594ZM204.145 84.736C210.685 84.736 214.688 80.3755 214.688 73.7749C214.688 67.2042 210.685 62.8436 204.145 62.8436C197.544 62.8436 193.542 67.2042 193.542 73.7749C193.542 80.3755 197.544 84.736 204.145 84.736ZM198.978 73.7749C198.978 69.4741 200.979 67.5327 204.145 67.5327C205.25 67.5327 206.205 67.7717 206.982 68.2495L199.217 76.1642C199.067 75.4773 198.978 74.6709 198.978 73.7749ZM201.277 79.2704L209.013 71.4154C209.162 72.1023 209.252 72.8789 209.252 73.7749C209.252 78.1354 207.281 80.017 204.145 80.017C203.039 80.017 202.054 79.7781 201.277 79.2704ZM217.332 72.7594H222.767C222.767 69.2949 224.022 67.5925 227.337 67.5925C230.145 67.5925 230.802 68.9066 230.802 70.0117C230.802 73.3866 224.679 74.7008 217.63 75.2085V84.3179H236.207V79.5392H219.721C228.92 78.1056 236.207 76.672 236.207 70.1311C236.207 65.3226 232.653 62.8436 227.427 62.8436C221.782 62.8436 217.332 65.7407 217.332 72.7594ZM244.061 76.2837H238.625C238.625 82.8843 243.404 84.736 248.809 84.736C253.797 84.736 258.158 83.1232 258.158 78.4341C258.158 74.9098 255.559 73.8048 254.006 73.536C255.888 72.9983 257.859 71.3855 257.859 68.5781C257.859 64.4863 253.797 62.8436 248.78 62.8436C243.404 62.8436 238.924 64.6954 238.924 70.4597H244.359C244.359 68.2794 245.524 67.5925 248.391 67.5925C251.348 67.5925 252.423 68.3093 252.423 69.713C252.423 70.7285 251.736 71.3557 250.153 71.3557H247.226V75.7461H250.153C251.736 75.7461 252.722 76.5226 252.722 77.777C252.722 79.4197 251.259 79.9573 248.541 79.9573C245.554 79.9573 244.061 79.36 244.061 76.2837Z" fill="#050A17"/>
</g>
<g filter="url(#filter12_dd_1307_2787)">
<ellipse cx="276.067" cy="74.9167" rx="3.92156" ry="3.93305" transform="rotate(90 276.067 74.9167)" fill="#050A17"/>
<ellipse cx="154.143" cy="74.9167" rx="3.92156" ry="3.93305" transform="rotate(90 154.143 74.9167)" fill="#050A17"/>
</g>
<g filter="url(#filter13_dd_1307_2787)">
<line x1="293.5" y1="76.5" x2="316.5" y2="76.5" stroke="#52FF00" stroke-width="3" stroke-linecap="round" stroke-dasharray="0.01 8"/>
</g>
<g filter="url(#filter14_dd_1307_2787)">
<line x1="115.5" y1="76.5" x2="138.5" y2="76.5" stroke="#52FF00" stroke-width="3" stroke-linecap="round" stroke-dasharray="0.01 8"/>
</g>
<defs>
<filter id="filter0_dd_1307_2787" x="322.663" y="97.7174" width="43.2041" height="38.1449" filterUnits="userSpaceOnUse" color-interpolation-filters="sRGB">
<feFlood flood-opacity="0" result="BackgroundImageFix"/>
<feColorMatrix in="SourceAlpha" type="matrix" values="0 0 0 0 0 0 0 0 0 0 0 0 0 0 0 0 0 0 127 0" result="hardAlpha"/>
<feOffset dy="4"/>
<feGaussianBlur stdDeviation="2"/>
<feComposite in2="hardAlpha" operator="out"/>
<feColorMatrix type="matrix" values="0 0 0 0 0 0 0 0 0 0 0 0 0 0 0 0 0 0 0.25 0"/>
<feBlend mode="normal" in2="BackgroundImageFix" result="effect1_dropShadow_1307_2787"/>
<feColorMatrix in="SourceAlpha" type="matrix" values="0 0 0 0 0 0 0 0 0 0 0 0 0 0 0 0 0 0 127 0" result="hardAlpha"/>
<feOffset dy="4"/>
<feGaussianBlur stdDeviation="2"/>
<feComposite in2="hardAlpha" operator="out"/>
<feColorMatrix type="matrix" values="0 0 0 0 0 0 0 0 0 0 0 0 0 0 0 0 0 0 0.25 0"/>
<feBlend mode="normal" in2="effect1_dropShadow_1307_2787" result="effect2_dropShadow_1307_2787"/>
<feBlend mode="normal" in="SourceGraphic" in2="effect2_dropShadow_1307_2787" result="shape"/>
</filter>
<filter id="filter1_dd_1307_2787" x="323.591" y="27.6895" width="103.647" height="103.648" filterUnits="userSpaceOnUse" color-interpolation-filters="sRGB">
<feFlood flood-opacity="0" result="BackgroundImageFix"/>
<feColorMatrix in="SourceAlpha" type="matrix" values="0 0 0 0 0 0 0 0 0 0 0 0 0 0 0 0 0 0 127 0" result="hardAlpha"/>
<feOffset dy="4"/>
<feGaussianBlur stdDeviation="2"/>
<feComposite in2="hardAlpha" operator="out"/>
<feColorMatrix type="matrix" values="0 0 0 0 0 0 0 0 0 0 0 0 0 0 0 0 0 0 0.25 0"/>
<feBlend mode="normal" in2="BackgroundImageFix" result="effect1_dropShadow_1307_2787"/>
<feColorMatrix in="SourceAlpha" type="matrix" values="0 0 0 0 0 0 0 0 0 0 0 0 0 0 0 0 0 0 127 0" result="hardAlpha"/>
<feOffset dy="4"/>
<feGaussianBlur stdDeviation="2"/>
<feComposite in2="hardAlpha" operator="out"/>
<feColorMatrix type="matrix" values="0 0 0 0 0 0 0 0 0 0 0 0 0 0 0 0 0 0 0.25 0"/>
<feBlend mode="normal" in2="effect1_dropShadow_1307_2787" result="effect2_dropShadow_1307_2787"/>
<feBlend mode="normal" in="SourceGraphic" in2="effect2_dropShadow_1307_2787" result="shape"/>
</filter>
<filter id="filter2_dd_1307_2787" x="320.237" y="24.2372" width="109.91" height="109.911" filterUnits="userSpaceOnUse" color-interpolation-filters="sRGB">
<feFlood flood-opacity="0" result="BackgroundImageFix"/>
<feColorMatrix in="SourceAlpha" type="matrix" values="0 0 0 0 0 0 0 0 0 0 0 0 0 0 0 0 0 0 127 0" result="hardAlpha"/>
<feOffset dy="4"/>
<feGaussianBlur stdDeviation="2"/>
<feComposite in2="hardAlpha" operator="out"/>
<feColorMatrix type="matrix" values="0 0 0 0 0 0 0 0 0 0 0 0 0 0 0 0 0 0 0.25 0"/>
<feBlend mode="normal" in2="BackgroundImageFix" result="effect1_dropShadow_1307_2787"/>
<feColorMatrix in="SourceAlpha" type="matrix" values="0 0 0 0 0 0 0 0 0 0 0 0 0 0 0 0 0 0 127 0" result="hardAlpha"/>
<feOffset dy="4"/>
<feGaussianBlur stdDeviation="2"/>
<feComposite in2="hardAlpha" operator="out"/>
<feColorMatrix type="matrix" values="0 0 0 0 0 0 0 0 0 0 0 0 0 0 0 0 0 0 0.25 0"/>
<feBlend mode="normal" in2="effect1_dropShadow_1307_2787" result="effect2_dropShadow_1307_2787"/>
<feBlend mode="normal" in="SourceGraphic" in2="effect2_dropShadow_1307_2787" result="shape"/>
</filter>
<filter id="filter3_dd_1307_2787" x="340.737" y="66.1631" width="69.8291" height="23.8959" filterUnits="userSpaceOnUse" color-interpolation-filters="sRGB">
<feFlood flood-opacity="0" result="BackgroundImageFix"/>
<feColorMatrix in="SourceAlpha" type="matrix" values="0 0 0 0 0 0 0 0 0 0 0 0 0 0 0 0 0 0 127 0" result="hardAlpha"/>
<feOffset dy="4"/>
<feGaussianBlur stdDeviation="2"/>
<feComposite in2="hardAlpha" operator="out"/>
<feColorMatrix type="matrix" values="0 0 0 0 0 0 0 0 0 0 0 0 0 0 0 0 0 0 0.25 0"/>
<feBlend mode="normal" in2="BackgroundImageFix" result="effect1_dropShadow_1307_2787"/>
<feColorMatrix in="SourceAlpha" type="matrix" values="0 0 0 0 0 0 0 0 0 0 0 0 0 0 0 0 0 0 127 0" result="hardAlpha"/>
<feOffset dy="4"/>
<feGaussianBlur stdDeviation="2"/>
<feComposite in2="hardAlpha" operator="out"/>
<feColorMatrix type="matrix" values="0 0 0 0 0 0 0 0 0 0 0 0 0 0 0 0 0 0 0.25 0"/>
<feBlend mode="normal" in2="effect1_dropShadow_1307_2787" result="effect2_dropShadow_1307_2787"/>
<feBlend mode="normal" in="SourceGraphic" in2="effect2_dropShadow_1307_2787" result="shape"/>
</filter>
<filter id="filter4_dd_1307_2787" x="324.302" y="72.4492" width="13.6836" height="13.6837" filterUnits="userSpaceOnUse" color-interpolation-filters="sRGB">
<feFlood flood-opacity="0" result="BackgroundImageFix"/>
<feColorMatrix in="SourceAlpha" type="matrix" values="0 0 0 0 0 0 0 0 0 0 0 0 0 0 0 0 0 0 127 0" result="hardAlpha"/>
<feOffset dy="4"/>
<feGaussianBlur stdDeviation="2"/>
<feComposite in2="hardAlpha" operator="out"/>
<feColorMatrix type="matrix" values="0 0 0 0 0 0 0 0 0 0 0 0 0 0 0 0 0 0 0.25 0"/>
<feBlend mode="normal" in2="BackgroundImageFix" result="effect1_dropShadow_1307_2787"/>
<feColorMatrix in="SourceAlpha" type="matrix" values="0 0 0 0 0 0 0 0 0 0 0 0 0 0 0 0 0 0 127 0" result="hardAlpha"/>
<feOffset dy="4"/>
<feGaussianBlur stdDeviation="2"/>
<feComposite in2="hardAlpha" operator="out"/>
<feColorMatrix type="matrix" values="0 0 0 0 0 0 0 0 0 0 0 0 0 0 0 0 0 0 0.25 0"/>
<feBlend mode="normal" in2="effect1_dropShadow_1307_2787" result="effect2_dropShadow_1307_2787"/>
<feBlend mode="normal" in="SourceGraphic" in2="effect2_dropShadow_1307_2787" result="shape"/>
</filter>
<filter id="filter5_dd_1307_2787" x="0.237305" y="24.2372" width="109.91" height="109.911" filterUnits="userSpaceOnUse" color-interpolation-filters="sRGB">
<feFlood flood-opacity="0" result="BackgroundImageFix"/>
<feColorMatrix in="SourceAlpha" type="matrix" values="0 0 0 0 0 0 0 0 0 0 0 0 0 0 0 0 0 0 127 0" result="hardAlpha"/>
<feOffset dy="4"/>
<feGaussianBlur stdDeviation="2"/>
<feComposite in2="hardAlpha" operator="out"/>
<feColorMatrix type="matrix" values="0 0 0 0 0 0 0 0 0 0 0 0 0 0 0 0 0 0 0.25 0"/>
<feBlend mode="normal" in2="BackgroundImageFix" result="effect1_dropShadow_1307_2787"/>
<feColorMatrix in="SourceAlpha" type="matrix" values="0 0 0 0 0 0 0 0 0 0 0 0 0 0 0 0 0 0 127 0" result="hardAlpha"/>
<feOffset dy="4"/>
<feGaussianBlur stdDeviation="2"/>
<feComposite in2="hardAlpha" operator="out"/>
<feColorMatrix type="matrix" values="0 0 0 0 0 0 0 0 0 0 0 0 0 0 0 0 0 0 0.25 0"/>
<feBlend mode="normal" in2="effect1_dropShadow_1307_2787" result="effect2_dropShadow_1307_2787"/>
<feBlend mode="normal" in="SourceGraphic" in2="effect2_dropShadow_1307_2787" result="shape"/>
</filter>
<filter id="filter6_dd_1307_2787" x="20.6006" y="66.1631" width="70.2119" height="23.8959" filterUnits="userSpaceOnUse" color-interpolation-filters="sRGB">
<feFlood flood-opacity="0" result="BackgroundImageFix"/>
<feColorMatrix in="SourceAlpha" type="matrix" values="0 0 0 0 0 0 0 0 0 0 0 0 0 0 0 0 0 0 127 0" result="hardAlpha"/>
<feOffset dy="4"/>
<feGaussianBlur stdDeviation="2"/>
<feComposite in2="hardAlpha" operator="out"/>
<feColorMatrix type="matrix" values="0 0 0 0 0 0 0 0 0 0 0 0 0 0 0 0 0 0 0.25 0"/>
<feBlend mode="normal" in2="BackgroundImageFix" result="effect1_dropShadow_1307_2787"/>
<feColorMatrix in="SourceAlpha" type="matrix" values="0 0 0 0 0 0 0 0 0 0 0 0 0 0 0 0 0 0 127 0" result="hardAlpha"/>
<feOffset dy="4"/>
<feGaussianBlur stdDeviation="2"/>
<feComposite in2="hardAlpha" operator="out"/>
<feColorMatrix type="matrix" values="0 0 0 0 0 0 0 0 0 0 0 0 0 0 0 0 0 0 0.25 0"/>
<feBlend mode="normal" in2="effect1_dropShadow_1307_2787" result="effect2_dropShadow_1307_2787"/>
<feBlend mode="normal" in="SourceGraphic" in2="effect2_dropShadow_1307_2787" result="shape"/>
</filter>
<filter id="filter7_dd_1307_2787" x="92.4004" y="72.4495" width="13.6836" height="13.6837" filterUnits="userSpaceOnUse" color-interpolation-filters="sRGB">
<feFlood flood-opacity="0" result="BackgroundImageFix"/>
<feColorMatrix in="SourceAlpha" type="matrix" values="0 0 0 0 0 0 0 0 0 0 0 0 0 0 0 0 0 0 127 0" result="hardAlpha"/>
<feOffset dy="4"/>
<feGaussianBlur stdDeviation="2"/>
<feComposite in2="hardAlpha" operator="out"/>
<feColorMatrix type="matrix" values="0 0 0 0 0 0 0 0 0 0 0 0 0 0 0 0 0 0 0.25 0"/>
<feBlend mode="normal" in2="BackgroundImageFix" result="effect1_dropShadow_1307_2787"/>
<feColorMatrix in="SourceAlpha" type="matrix" values="0 0 0 0 0 0 0 0 0 0 0 0 0 0 0 0 0 0 127 0" result="hardAlpha"/>
<feOffset dy="4"/>
<feGaussianBlur stdDeviation="2"/>
<feComposite in2="hardAlpha" operator="out"/>
<feColorMatrix type="matrix" values="0 0 0 0 0 0 0 0 0 0 0 0 0 0 0 0 0 0 0.25 0"/>
<feBlend mode="normal" in2="effect1_dropShadow_1307_2787" result="effect2_dropShadow_1307_2787"/>
<feBlend mode="normal" in="SourceGraphic" in2="effect2_dropShadow_1307_2787" result="shape"/>
</filter>
<filter id="filter8_dd_1307_2787" x="143.383" y="105.864" width="56.7197" height="49.5975" filterUnits="userSpaceOnUse" color-interpolation-filters="sRGB">
<feFlood flood-opacity="0" result="BackgroundImageFix"/>
<feColorMatrix in="SourceAlpha" type="matrix" values="0 0 0 0 0 0 0 0 0 0 0 0 0 0 0 0 0 0 127 0" result="hardAlpha"/>
<feOffset dy="4"/>
<feGaussianBlur stdDeviation="2"/>
<feComposite in2="hardAlpha" operator="out"/>
<feColorMatrix type="matrix" values="0 0 0 0 0 0 0 0 0 0 0 0 0 0 0 0 0 0 0.25 0"/>
<feBlend mode="normal" in2="BackgroundImageFix" result="effect1_dropShadow_1307_2787"/>
<feColorMatrix in="SourceAlpha" type="matrix" values="0 0 0 0 0 0 0 0 0 0 0 0 0 0 0 0 0 0 127 0" result="hardAlpha"/>
<feOffset dy="4"/>
<feGaussianBlur stdDeviation="2"/>
<feComposite in2="hardAlpha" operator="out"/>
<feColorMatrix type="matrix" values="0 0 0 0 0 0 0 0 0 0 0 0 0 0 0 0 0 0 0.25 0"/>
<feBlend mode="normal" in2="effect1_dropShadow_1307_2787" result="effect2_dropShadow_1307_2787"/>
<feBlend mode="normal" in="SourceGraphic" in2="effect2_dropShadow_1307_2787" result="shape"/>
</filter>
<filter id="filter9_dd_1307_2787" x="145" y="9.23145" width="140.373" height="139.986" filterUnits="userSpaceOnUse" color-interpolation-filters="sRGB">
<feFlood flood-opacity="0" result="BackgroundImageFix"/>
<feColorMatrix in="SourceAlpha" type="matrix" values="0 0 0 0 0 0 0 0 0 0 0 0 0 0 0 0 0 0 127 0" result="hardAlpha"/>
<feOffset dy="4"/>
<feGaussianBlur stdDeviation="2"/>
<feComposite in2="hardAlpha" operator="out"/>
<feColorMatrix type="matrix" values="0 0 0 0 0 0 0 0 0 0 0 0 0 0 0 0 0 0 0.25 0"/>
<feBlend mode="normal" in2="BackgroundImageFix" result="effect1_dropShadow_1307_2787"/>
<feColorMatrix in="SourceAlpha" type="matrix" values="0 0 0 0 0 0 0 0 0 0 0 0 0 0 0 0 0 0 127 0" result="hardAlpha"/>
<feOffset dy="4"/>
<feGaussianBlur stdDeviation="2"/>
<feComposite in2="hardAlpha" operator="out"/>
<feColorMatrix type="matrix" values="0 0 0 0 0 0 0 0 0 0 0 0 0 0 0 0 0 0 0.25 0"/>
<feBlend mode="normal" in2="effect1_dropShadow_1307_2787" result="effect2_dropShadow_1307_2787"/>
<feBlend mode="normal" in="SourceGraphic" in2="effect2_dropShadow_1307_2787" result="shape"/>
</filter>
<filter id="filter10_dd_1307_2787" x="140.465" y="4.45178" width="149.07" height="148.659" filterUnits="userSpaceOnUse" color-interpolation-filters="sRGB">
<feFlood flood-opacity="0" result="BackgroundImageFix"/>
<feColorMatrix in="SourceAlpha" type="matrix" values="0 0 0 0 0 0 0 0 0 0 0 0 0 0 0 0 0 0 127 0" result="hardAlpha"/>
<feOffset dy="4"/>
<feGaussianBlur stdDeviation="2"/>
<feComposite in2="hardAlpha" operator="out"/>
<feColorMatrix type="matrix" values="0 0 0 0 0 0 0 0 0 0 0 0 0 0 0 0 0 0 0.25 0"/>
<feBlend mode="normal" in2="BackgroundImageFix" result="effect1_dropShadow_1307_2787"/>
<feColorMatrix in="SourceAlpha" type="matrix" values="0 0 0 0 0 0 0 0 0 0 0 0 0 0 0 0 0 0 127 0" result="hardAlpha"/>
<feOffset dy="4"/>
<feGaussianBlur stdDeviation="2"/>
<feComposite in2="hardAlpha" operator="out"/>
<feColorMatrix type="matrix" values="0 0 0 0 0 0 0 0 0 0 0 0 0 0 0 0 0 0 0.25 0"/>
<feBlend mode="normal" in2="effect1_dropShadow_1307_2787" result="effect2_dropShadow_1307_2787"/>
<feBlend mode="normal" in="SourceGraphic" in2="effect2_dropShadow_1307_2787" result="shape"/>
</filter>
<filter id="filter11_dd_1307_2787" x="168.271" y="62.8436" width="93.8877" height="29.8923" filterUnits="userSpaceOnUse" color-interpolation-filters="sRGB">
<feFlood flood-opacity="0" result="BackgroundImageFix"/>
<feColorMatrix in="SourceAlpha" type="matrix" values="0 0 0 0 0 0 0 0 0 0 0 0 0 0 0 0 0 0 127 0" result="hardAlpha"/>
<feOffset dy="4"/>
<feGaussianBlur stdDeviation="2"/>
<feComposite in2="hardAlpha" operator="out"/>
<feColorMatrix type="matrix" values="0 0 0 0 0 0 0 0 0 0 0 0 0 0 0 0 0 0 0.25 0"/>
<feBlend mode="normal" in2="BackgroundImageFix" result="effect1_dropShadow_1307_2787"/>
<feColorMatrix in="SourceAlpha" type="matrix" values="0 0 0 0 0 0 0 0 0 0 0 0 0 0 0 0 0 0 127 0" result="hardAlpha"/>
<feOffset dy="4"/>
<feGaussianBlur stdDeviation="2"/>
<feComposite in2="hardAlpha" operator="out"/>
<feColorMatrix type="matrix" values="0 0 0 0 0 0 0 0 0 0 0 0 0 0 0 0 0 0 0.25 0"/>
<feBlend mode="normal" in2="effect1_dropShadow_1307_2787" result="effect2_dropShadow_1307_2787"/>
<feBlend mode="normal" in="SourceGraphic" in2="effect2_dropShadow_1307_2787" result="shape"/>
</filter>
<filter id="filter12_dd_1307_2787" x="146.21" y="70.9951" width="137.79" height="15.8431" filterUnits="userSpaceOnUse" color-interpolation-filters="sRGB">
<feFlood flood-opacity="0" result="BackgroundImageFix"/>
<feColorMatrix in="SourceAlpha" type="matrix" values="0 0 0 0 0 0 0 0 0 0 0 0 0 0 0 0 0 0 127 0" result="hardAlpha"/>
<feOffset dy="4"/>
<feGaussianBlur stdDeviation="2"/>
<feComposite in2="hardAlpha" operator="out"/>
<feColorMatrix type="matrix" values="0 0 0 0 0 0 0 0 0 0 0 0 0 0 0 0 0 0 0.25 0"/>
<feBlend mode="normal" in2="BackgroundImageFix" result="effect1_dropShadow_1307_2787"/>
<feColorMatrix in="SourceAlpha" type="matrix" values="0 0 0 0 0 0 0 0 0 0 0 0 0 0 0 0 0 0 127 0" result="hardAlpha"/>
<feOffset dy="4"/>
<feGaussianBlur stdDeviation="2"/>
<feComposite in2="hardAlpha" operator="out"/>
<feColorMatrix type="matrix" values="0 0 0 0 0 0 0 0 0 0 0 0 0 0 0 0 0 0 0.25 0"/>
<feBlend mode="normal" in2="effect1_dropShadow_1307_2787" result="effect2_dropShadow_1307_2787"/>
<feBlend mode="normal" in="SourceGraphic" in2="effect2_dropShadow_1307_2787" result="shape"/>
</filter>
<filter id="filter13_dd_1307_2787" x="288" y="75" width="34" height="11" filterUnits="userSpaceOnUse" color-interpolation-filters="sRGB">
<feFlood flood-opacity="0" result="BackgroundImageFix"/>
<feColorMatrix in="SourceAlpha" type="matrix" values="0 0 0 0 0 0 0 0 0 0 0 0 0 0 0 0 0 0 127 0" result="hardAlpha"/>
<feOffset dy="4"/>
<feGaussianBlur stdDeviation="2"/>
<feComposite in2="hardAlpha" operator="out"/>
<feColorMatrix type="matrix" values="0 0 0 0 0 0 0 0 0 0 0 0 0 0 0 0 0 0 0.25 0"/>
<feBlend mode="normal" in2="BackgroundImageFix" result="effect1_dropShadow_1307_2787"/>
<feColorMatrix in="SourceAlpha" type="matrix" values="0 0 0 0 0 0 0 0 0 0 0 0 0 0 0 0 0 0 127 0" result="hardAlpha"/>
<feOffset dy="4"/>
<feGaussianBlur stdDeviation="2"/>
<feComposite in2="hardAlpha" operator="out"/>
<feColorMatrix type="matrix" values="0 0 0 0 0 0 0 0 0 0 0 0 0 0 0 0 0 0 0.25 0"/>
<feBlend mode="normal" in2="effect1_dropShadow_1307_2787" result="effect2_dropShadow_1307_2787"/>
<feBlend mode="normal" in="SourceGraphic" in2="effect2_dropShadow_1307_2787" result="shape"/>
</filter>
<filter id="filter14_dd_1307_2787" x="110" y="75" width="34" height="11" filterUnits="userSpaceOnUse" color-interpolation-filters="sRGB">
<feFlood flood-opacity="0" result="BackgroundImageFix"/>
<feColorMatrix in="SourceAlpha" type="matrix" values="0 0 0 0 0 0 0 0 0 0 0 0 0 0 0 0 0 0 127 0" result="hardAlpha"/>
<feOffset dy="4"/>
<feGaussianBlur stdDeviation="2"/>
<feComposite in2="hardAlpha" operator="out"/>
<feColorMatrix type="matrix" values="0 0 0 0 0 0 0 0 0 0 0 0 0 0 0 0 0 0 0.25 0"/>
<feBlend mode="normal" in2="BackgroundImageFix" result="effect1_dropShadow_1307_2787"/>
<feColorMatrix in="SourceAlpha" type="matrix" values="0 0 0 0 0 0 0 0 0 0 0 0 0 0 0 0 0 0 127 0" result="hardAlpha"/>
<feOffset dy="4"/>
<feGaussianBlur stdDeviation="2"/>
<feComposite in2="hardAlpha" operator="out"/>
<feColorMatrix type="matrix" values="0 0 0 0 0 0 0 0 0 0 0 0 0 0 0 0 0 0 0.25 0"/>
<feBlend mode="normal" in2="effect1_dropShadow_1307_2787" result="effect2_dropShadow_1307_2787"/>
<feBlend mode="normal" in="SourceGraphic" in2="effect2_dropShadow_1307_2787" result="shape"/>
</filter>
<linearGradient id="paint0_linear_1307_2787" x1="375.351" y1="110.584" x2="375.351" y2="21.7106" gradientUnits="userSpaceOnUse">
<stop stop-color="#52FF00"/>
<stop offset="1" stop-color="#52FF00" stop-opacity="0"/>
</linearGradient>
<linearGradient id="paint1_linear_1307_2787" x1="214.764" y1="123.619" x2="214.764" y2="0.980705" gradientUnits="userSpaceOnUse">
<stop stop-color="#52FF00"/>
<stop offset="1" stop-color="#52FF00" stop-opacity="0"/>
</linearGradient>
<radialGradient id="paint2_radial_1307_2787" cx="0" cy="0" r="1" gradientUnits="userSpaceOnUse" gradientTransform="translate(52.9557 52.9558) rotate(90) scale(291.966)">
<stop offset="0.0652387" stop-color="#52FF00"/>
<stop offset="1" stop-color="#52FF00" stop-opacity="0"/>
</radialGradient>
</defs>
</svg>
