<svg  viewBox="0 0 905 525" fill="none" xmlns="http://www.w3.org/2000/svg">
<g filter="url(#filter0_b_615_910)">
<path fill-rule="evenodd" clip-rule="evenodd" d="M129.959 17.8577C130.726 24.6764 136.512 29.9762 143.536 29.9762L758.424 29.9762C765.448 29.9762 771.234 24.6764 772.002 17.8577H870.233C880.174 17.8577 888.233 25.9165 888.233 35.8577L888.233 138.097C880.687 138.097 874.569 144.214 874.569 151.761V375.842C874.569 383.388 880.687 389.506 888.233 389.506L888.233 490.379C888.233 500.32 880.174 508.379 870.233 508.379H772.075C771.762 501.11 765.77 495.314 758.424 495.314L143.536 495.314C136.19 495.314 130.199 501.11 129.885 508.379H34.4595C24.5184 508.379 16.4595 500.32 16.4595 490.379V35.8577C16.4595 25.9165 24.5183 17.8577 34.4595 17.8577H129.959ZM16.4595 138.097C24.0061 138.097 30.1237 144.214 30.1237 151.761V375.842C30.1237 383.388 24.0061 389.506 16.4595 389.506V138.097Z" fill="#050A17" fill-opacity="0.9"/>
<path d="M129.959 17.8577L130.456 17.8017L130.406 17.3577H129.959V17.8577ZM143.536 29.9762L143.536 29.4762H143.536V29.9762ZM758.424 29.9762L758.424 30.4762H758.424V29.9762ZM772.002 17.8577V17.3577H771.555L771.505 17.8017L772.002 17.8577ZM888.233 35.8577L887.733 35.8577L887.733 35.8577L888.233 35.8577ZM888.233 138.097V138.597H888.733L888.733 138.097L888.233 138.097ZM888.233 389.506L888.733 389.506L888.733 389.006H888.233V389.506ZM888.233 490.379L887.733 490.379V490.379H888.233ZM772.075 508.379L771.576 508.4L771.596 508.879H772.075V508.379ZM758.424 495.314L758.424 494.814H758.424L758.424 495.314ZM143.536 495.314L143.536 495.814H143.536L143.536 495.314ZM129.885 508.379V508.879H130.364L130.385 508.4L129.885 508.379ZM16.4595 138.097V137.597H15.9595V138.097H16.4595ZM16.4595 389.506H15.9595V390.006H16.4595V389.506ZM129.462 17.9136C130.257 24.9824 136.255 30.4762 143.536 30.4762V29.4762C136.769 29.4762 131.195 24.3705 130.456 17.8017L129.462 17.9136ZM143.536 30.4762L758.424 30.4762L758.424 29.4762L143.536 29.4762L143.536 30.4762ZM758.424 30.4762C765.706 30.4762 771.703 24.9824 772.499 17.9136L771.505 17.8017C770.766 24.3705 765.191 29.4762 758.424 29.4762V30.4762ZM772.002 18.3577H870.233V17.3577H772.002V18.3577ZM870.233 18.3577C879.898 18.3577 887.733 26.1927 887.733 35.8577H888.733C888.733 25.6404 880.45 17.3577 870.233 17.3577V18.3577ZM887.733 35.8577L887.733 138.097L888.733 138.097L888.733 35.8577L887.733 35.8577ZM875.069 151.761C875.069 144.491 880.963 138.597 888.233 138.597V137.597C880.41 137.597 874.069 143.938 874.069 151.761H875.069ZM875.069 375.842V151.761H874.069V375.842H875.069ZM888.233 389.006C880.963 389.006 875.069 383.112 875.069 375.842H874.069C874.069 383.664 880.41 390.006 888.233 390.006V389.006ZM887.733 389.506L887.733 490.379L888.733 490.379L888.733 389.506L887.733 389.506ZM887.733 490.379C887.733 500.044 879.898 507.879 870.233 507.879V508.879C880.45 508.879 888.733 500.596 888.733 490.379H887.733ZM870.233 507.879H772.075V508.879H870.233V507.879ZM772.575 508.357C772.25 500.822 766.039 494.814 758.424 494.814V495.814C765.501 495.814 771.274 501.398 771.576 508.4L772.575 508.357ZM758.424 494.814L143.536 494.814L143.536 495.814L758.424 495.814L758.424 494.814ZM143.536 494.814C135.921 494.814 129.711 500.822 129.386 508.357L130.385 508.4C130.687 501.398 136.459 495.814 143.536 495.814V494.814ZM129.885 507.879H34.4595V508.879H129.885V507.879ZM34.4595 507.879C24.7945 507.879 16.9595 500.044 16.9595 490.379H15.9595C15.9595 500.596 24.2422 508.879 34.4595 508.879V507.879ZM16.9595 490.379V35.8577H15.9595V490.379H16.9595ZM16.9595 35.8577C16.9595 26.1927 24.7945 18.3577 34.4595 18.3577V17.3577C24.2422 17.3577 15.9595 25.6404 15.9595 35.8577H16.9595ZM34.4595 18.3577H129.959V17.3577H34.4595V18.3577ZM30.6237 151.761C30.6237 143.938 24.2822 137.597 16.4595 137.597V138.597C23.7299 138.597 29.6237 144.491 29.6237 151.761H30.6237ZM30.6237 375.842V151.761H29.6237V375.842H30.6237ZM16.4595 390.006C24.2822 390.006 30.6237 383.664 30.6237 375.842H29.6237C29.6237 383.112 23.7299 389.006 16.4595 389.006V390.006ZM15.9595 138.097V389.506H16.9595V138.097H15.9595Z" fill="white" fill-opacity="0.5"/>
</g>
<g filter="url(#filter1_d_615_910)">
<path d="M16.4595 147.317V147.317C19.7392 147.317 22.398 149.976 22.398 153.256V374.168C22.398 377.448 19.7392 380.107 16.4595 380.107V380.107V147.317Z" fill="#52FF00" />
</g>
<g opacity="0.35" filter="url(#filter2_d_615_910)">
<path d="M763.524 16.6699V16.6699C763.524 19.9497 760.866 22.6084 757.586 22.6084L147.107 22.6084C143.827 22.6084 141.168 19.9497 141.168 16.6699V16.6699L763.524 16.6699Z" fill="#52FF00"  />
</g>
<g opacity="0.35" filter="url(#filter3_d_615_910)">
<path d="M763.524 508.379V508.379C763.524 505.099 760.866 502.44 757.586 502.44L147.107 502.44C143.827 502.44 141.168 505.099 141.168 508.379V508.379L763.524 508.379Z" fill="#52FF00"/>
</g>
<g filter="url(#filter4_d_615_910)">
<path d="M888.233 147.317V147.317C884.953 147.317 882.294 149.976 882.294 153.256V374.168C882.294 377.448 884.953 380.107 888.233 380.107V380.107V147.317Z" fill="#52FF00"/>
</g>
<defs>
<filter id="filter0_b_615_910" x="-64.0405" y="-62.6423" width="1032.77" height="651.521" filterUnits="userSpaceOnUse" color-interpolation-filters="sRGB">
<feFlood flood-opacity="0" result="BackgroundImageFix"/>
<feGaussianBlur in="BackgroundImageFix" stdDeviation="40"/>
<feComposite in2="SourceAlpha" operator="in" result="effect1_backgroundBlur_615_910"/>
<feBlend mode="normal" in="SourceGraphic" in2="effect1_backgroundBlur_615_910" result="shape"/>
</filter>
<filter id="filter1_d_615_910" x="0.459473" y="131.317" width="37.9385" height="264.79" filterUnits="userSpaceOnUse" color-interpolation-filters="sRGB">
<feFlood flood-opacity="0" result="BackgroundImageFix"/>
<feColorMatrix in="SourceAlpha" type="matrix" values="0 0 0 0 0 0 0 0 0 0 0 0 0 0 0 0 0 0 127 0" result="hardAlpha"/>
<feOffset/>
<feGaussianBlur stdDeviation="8"/>
<feComposite in2="hardAlpha" operator="out"/>
<feColorMatrix type="matrix" values="0 0 0 0 0.32 0 0 0 0 1 0 0 0 0 0 0 0 0 0.8 0"/>
<feBlend mode="normal" in2="BackgroundImageFix" result="effect1_dropShadow_615_910"/>
<feBlend mode="normal" in="SourceGraphic" in2="effect1_dropShadow_615_910" result="shape"/>
</filter>
<filter id="filter2_d_615_910" x="125.168" y="0.669922" width="654.356" height="37.9385" filterUnits="userSpaceOnUse" color-interpolation-filters="sRGB">
<feFlood flood-opacity="0" result="BackgroundImageFix"/>
<feColorMatrix in="SourceAlpha" type="matrix" values="0 0 0 0 0 0 0 0 0 0 0 0 0 0 0 0 0 0 127 0" result="hardAlpha"/>
<feOffset/>
<feGaussianBlur stdDeviation="8"/>
<feComposite in2="hardAlpha" operator="out"/>
<feColorMatrix type="matrix" values="0 0 0 0 0.32 0 0 0 0 1 0 0 0 0 0 0 0 0 0.8 0"/>
<feBlend mode="normal" in2="BackgroundImageFix" result="effect1_dropShadow_615_910"/>
<feBlend mode="normal" in="SourceGraphic" in2="effect1_dropShadow_615_910" result="shape"/>
</filter>
<filter id="filter3_d_615_910" x="125.168" y="486.44" width="654.356" height="37.9385" filterUnits="userSpaceOnUse" color-interpolation-filters="sRGB">
<feFlood flood-opacity="0" result="BackgroundImageFix"/>
<feColorMatrix in="SourceAlpha" type="matrix" values="0 0 0 0 0 0 0 0 0 0 0 0 0 0 0 0 0 0 127 0" result="hardAlpha"/>
<feOffset/>
<feGaussianBlur stdDeviation="8"/>
<feComposite in2="hardAlpha" operator="out"/>
<feColorMatrix type="matrix" values="0 0 0 0 0.32 0 0 0 0 1 0 0 0 0 0 0 0 0 0.8 0"/>
<feBlend mode="normal" in2="BackgroundImageFix" result="effect1_dropShadow_615_910"/>
<feBlend mode="normal" in="SourceGraphic" in2="effect1_dropShadow_615_910" result="shape"/>
</filter>
<filter id="filter4_d_615_910" x="866.294" y="131.317" width="37.9385" height="264.79" filterUnits="userSpaceOnUse" color-interpolation-filters="sRGB">
<feFlood flood-opacity="0" result="BackgroundImageFix"/>
<feColorMatrix in="SourceAlpha" type="matrix" values="0 0 0 0 0 0 0 0 0 0 0 0 0 0 0 0 0 0 127 0" result="hardAlpha"/>
<feOffset/>
<feGaussianBlur stdDeviation="8"/>
<feComposite in2="hardAlpha" operator="out"/>
<feColorMatrix type="matrix" values="0 0 0 0 0.32 0 0 0 0 1 0 0 0 0 0 0 0 0 0.8 0"/>
<feBlend mode="normal" in2="BackgroundImageFix" result="effect1_dropShadow_615_910"/>
<feBlend mode="normal" in="SourceGraphic" in2="effect1_dropShadow_615_910" result="shape"/>
</filter>
</defs>
</svg>
