<svg width="60" height="56" viewBox="0 0 60 56" fill="none" xmlns="http://www.w3.org/2000/svg">
<path d="M36.5431 10.9245L36.4738 10.8971C35.5403 10.5541 35.5037 10.5429 34.9238 10.3757C34.1526 10.1721 34.1526 10.1721 33.7393 10.0863C33.099 9.96411 33.099 9.96411 32.7722 9.91481L32.4278 9.86764C30.9393 9.70128 29.6864 9.69914 28.2363 9.86378L28.0455 9.88822C27.0036 10.0469 25.8466 10.2544 24.1816 10.8795C24.8865 10.6124 25.8316 10.3877 26.9833 10.2334C30.3869 9.7776 34.4321 10.091 36.5418 10.9267" fill="url(#paint0_linear_740_7753)"/>
<path d="M41.9203 14.3396L41.7817 14.211C40.6523 13.2432 40.5331 13.1421 39.6108 12.5191C39.5459 12.477 39.4767 12.4353 39.4033 12.3939C36.9452 11.003 30.8889 10.4207 25.8762 11.0909C23.5999 11.3957 21.9301 11.9055 21.0156 12.5058C19.841 13.3311 19.6916 13.4375 18.8744 14.1655L18.7354 14.2941C19.6628 13.431 21.844 12.676 25.0026 12.2532C30.9957 11.4497 38.2369 12.1473 41.1755 13.8101C41.444 13.9565 41.694 14.1343 41.9203 14.3396Z" fill="url(#paint1_linear_740_7753)"/>
<path d="M45.4481 19.0661L45.1795 18.5537C44.8406 17.9852 44.3739 17.2357 43.998 16.6907C43.7659 16.3739 43.3849 16.06 42.8471 15.7556C39.4547 13.8365 31.0953 13.0313 24.1766 13.9578C20.137 14.4989 17.4817 15.5104 16.646 16.6406C16.2736 17.1885 15.7918 17.9299 15.4564 18.5014L15.1855 19.0133C15.8667 17.6735 18.863 16.4515 23.5906 15.8182C31.1646 14.8042 40.3158 15.6853 44.0299 17.7867C44.7618 18.2017 45.2298 18.633 45.4481 19.0661Z" fill="url(#paint2_linear_740_7753)"/>
<path d="M47.1242 24.7624L46.9869 23.7707C46.8732 23.2304 46.7242 22.5088 46.5813 21.9759C46.4233 21.4245 45.8945 20.8718 44.9615 20.3436C40.9939 18.099 31.2179 17.1575 23.1259 18.2426C17.7632 18.9604 14.4862 20.3865 14.041 21.9223C13.9088 22.4587 13.7301 23.1738 13.6281 23.7167L13.4873 24.7071C13.6742 23.0396 17.1066 21.4614 22.8977 20.6857C31.2399 19.571 41.3181 20.5391 45.4084 22.8531C46.4986 23.4701 47.0532 24.1197 47.1229 24.7624" fill="url(#paint3_linear_740_7753)"/>
<path d="M46.6824 30.8178L46.9463 29.6254C47.0148 29.1405 47.1186 28.4952 47.1616 28.0077C47.2232 27.2835 46.6734 26.5435 45.4394 25.8459C41.3404 23.5263 31.2381 22.5547 22.8761 23.6733C16.7841 24.4893 13.2965 26.1915 13.4377 27.9524C13.5238 28.6688 13.6642 29.622 13.8024 30.3303L13.9066 30.7621C13.4463 28.9698 16.8775 27.2033 23.0634 26.3745C31.2088 25.2838 41.0498 26.2313 45.0437 28.4913C46.3702 29.2417 46.8848 30.0426 46.6824 30.8178Z" fill="url(#paint4_linear_740_7753)"/>
<path d="M44.2137 36.1723C44.472 35.7684 44.8255 35.2329 45.0653 34.817L45.6126 33.7605C45.9962 32.9549 45.554 32.1094 44.1633 31.3222C40.4062 29.1968 31.1491 28.3054 23.4867 29.3314C17.3796 30.1491 14.1293 31.9383 14.9616 33.7069C15.2303 34.2262 15.5924 34.9173 15.8907 35.422L16.3527 36.1213C15.1713 34.4238 18.1667 32.6582 24.0413 31.8714C31.075 30.9281 39.5735 31.7479 43.0223 33.6992C44.4354 34.4984 44.7816 35.3641 44.2145 36.1723" fill="url(#paint5_linear_740_7753)"/>
<path d="M39.9629 40.4137C40.4649 40.0394 41.1232 39.5253 41.599 39.121L42.1872 38.57C42.9897 37.7875 42.79 36.9214 41.3902 36.13C38.3814 34.4278 30.968 33.7139 24.8316 34.5358C19.3793 35.2647 16.7701 36.9626 18.3667 38.5259C18.7167 38.8479 19.1796 39.2818 19.5443 39.5871C19.8573 39.8263 20.2689 40.153 20.591 40.3798C18.5613 38.9855 20.7343 37.3785 25.6802 36.7182C30.8573 36.0249 37.1117 36.6273 39.6499 38.0632C41.0074 38.8312 41.0277 39.6822 39.9607 40.4137" fill="url(#paint6_linear_740_7753)"/>
<path d="M25.3258 42.558C24.5781 42.3836 23.848 42.1417 23.1445 41.8351C23.2936 41.9168 23.4468 41.9907 23.6035 42.0568L24.1305 42.2711C25.064 42.6141 25.1002 42.6253 25.6806 42.7929C26.4513 42.9962 26.4513 42.9962 26.865 43.0819L27.2633 43.1591C26.4603 43.0142 25.7817 42.8101 25.3258 42.5558" fill="url(#paint7_linear_740_7753)"/>
<path d="M25.3055 42.5477C23.96 41.7862 25.0936 40.8717 27.8372 40.5042C30.5808 40.1368 33.8957 40.4558 35.2429 41.2168C36.5303 41.9457 35.5482 42.8144 33.0578 43.2097C34.318 42.9777 35.1193 42.7839 36.5342 42.2506L36.9453 42.0821C38.4368 41.4544 38.7219 40.6294 37.4362 39.9018C35.4987 38.805 30.7194 38.345 26.7664 38.8728C22.8134 39.4006 21.179 40.7207 23.1178 41.8175C23.8238 42.1263 24.5566 42.3703 25.3072 42.5464" fill="url(#paint8_linear_740_7753)"/>
<path d="M30.2718 42.7678C29.5041 42.8741 28.7289 42.9171 27.954 42.8965C28.59 43.2493 30.1344 43.3964 31.4132 43.2253C32.6989 43.0538 33.2297 42.6251 32.5994 42.2679C31.9691 41.9107 30.4164 41.7637 29.1312 41.9352C27.846 42.1067 27.3147 42.5354 27.945 42.8926C28.7221 42.9148 29.4997 42.8737 30.27 42.7695" fill="url(#paint9_linear_740_7753)"/>
<path d="M28.3649 10.7061C27.8409 10.4094 28.2831 10.0523 29.3552 9.90907C30.4273 9.76586 31.719 9.8902 32.2438 10.1869C32.7687 10.4836 32.3265 10.8408 31.2561 10.9844C30.1858 11.128 28.9048 11.0041 28.3752 10.7104C28.9513 10.5784 29.7225 10.4103 30.3059 10.316C29.6522 10.4039 29.005 10.5342 28.3683 10.7061" fill="url(#paint10_linear_740_7753)"/>
<path d="M32.7445 9.82835C33.3563 9.92697 33.38 9.93083 33.7111 9.99986C34.4374 10.1632 34.4805 10.1709 34.8956 10.288C35.7752 10.5577 35.8669 10.5855 36.4477 10.8098L36.5171 10.8368C36.7265 10.9182 36.9301 11.0139 37.1263 11.1232C38.9743 12.1685 37.4174 13.4252 33.6486 13.9299C29.898 14.4324 25.3706 14.0006 23.5059 12.966C24.2102 12.4896 24.9494 12.0664 25.7172 11.6999C26.9762 12.3979 30.0315 12.6895 32.5632 12.3503C35.107 12.0099 36.1575 11.1618 34.9106 10.4561C34.3599 10.1452 33.4562 9.9141 32.3996 9.78162L32.744 9.82835" fill="url(#paint11_linear_740_7753)"/>
<path d="M23.478 12.9504C22.1949 12.2245 22.5536 11.3966 24.1544 10.7895C25.0035 10.4821 26.166 10.0606 28.0183 9.79861L28.209 9.77417C25.292 10.1708 24.7426 10.9657 25.4663 11.5364C25.5405 11.5921 25.618 11.6432 25.6984 11.6895C24.9278 12.0542 24.1856 12.4757 23.478 12.9504Z" fill="url(#paint12_linear_740_7753)"/>
<path d="M41.7563 14.1243L41.8949 14.253C43.5341 15.7901 40.9877 17.4687 35.6195 18.1873C29.6549 18.9861 22.455 18.2996 19.4893 16.6545C20.0359 15.9832 20.6277 15.3497 21.2606 14.7585C23.7415 16.1344 29.7634 16.7089 34.7519 16.0405C39.6172 15.3892 41.7098 13.7963 39.5854 12.432C40.6924 13.2145 40.9899 13.4246 41.7563 14.1243Z" fill="url(#paint13_linear_740_7753)"/>
<path d="M19.4441 16.6297C18.0538 15.8434 17.8756 14.9815 18.7079 14.2072L18.8469 14.0786C20.0181 13.0813 20.0882 13.0217 20.9881 12.4171C19.8885 13.1353 19.8807 13.9782 21.2224 14.7376C20.5874 15.3274 19.9933 15.9594 19.4441 16.6293" fill="url(#paint14_linear_740_7753)"/>
<path d="M45.1523 18.4673L45.421 18.9818C46.3071 20.7419 43.0912 22.5294 37.013 23.3432C29.4751 24.3525 20.376 23.4851 16.6279 21.4056C16.9698 20.5961 17.3661 19.8106 17.8141 19.0542C21.238 20.9537 29.5496 21.7464 36.4351 20.8246C42.2572 20.0447 45.2044 18.2876 43.97 16.6064C44.3399 17.1553 44.8311 17.8897 45.1515 18.469" fill="url(#paint15_linear_740_7753)"/>
<path d="M16.573 21.3729C15.1771 20.5822 14.7483 19.7333 15.1582 18.9264L15.4286 18.4144C15.77 17.8467 16.2406 17.0981 16.6187 16.5536C16.0228 17.3592 16.3521 18.2258 17.764 19.0241C17.3146 19.7796 16.9167 20.5643 16.573 21.3729Z" fill="url(#paint16_linear_740_7753)"/>
<path d="M46.9595 23.6841L47.0951 24.6758C47.2867 26.4449 43.8017 28.1599 37.683 28.9793C29.3826 30.0911 19.3616 29.1354 15.2334 26.8453C15.3214 25.9583 15.4738 25.0787 15.6894 24.2136C19.6936 26.4346 29.4144 27.3616 37.4668 26.2837C43.6553 25.4549 47.0684 23.6815 46.5517 21.8893C46.6809 22.4257 46.8699 23.1391 46.9578 23.6841" fill="url(#paint17_linear_740_7753)"/>
<path d="M15.1739 26.8121C13.9253 26.1046 13.3776 25.3543 13.4603 24.6203L13.6011 23.629C13.7164 23.0887 13.8684 22.3675 14.0135 21.8346C13.7871 22.6154 14.2934 23.424 15.6316 24.1812C15.4152 25.046 15.2622 25.9252 15.1739 26.8121Z" fill="url(#paint18_linear_740_7753)"/>
<path d="M46.9182 29.5382L46.6543 30.7306C46.247 32.2888 42.939 33.7423 37.4992 34.4707C29.3934 35.5559 19.6084 34.6229 15.5779 32.3869C15.3817 31.5521 15.2522 30.703 15.1904 29.8478C19.3299 32.1434 29.3749 33.1021 37.6964 31.9873C43.5435 31.2044 46.9914 29.6056 47.1344 27.9214C47.0737 28.4072 47.0134 29.0585 46.9191 29.5387" fill="url(#paint19_linear_740_7753)"/>
<path d="M15.5195 32.3541C14.5598 31.8108 14.0246 31.2414 13.879 30.6746L13.7748 30.2428C13.6427 29.5337 13.4907 28.5822 13.4102 27.8654C13.4635 28.5209 14.0198 29.1847 15.1324 29.8137C15.1935 30.6694 15.3231 31.5189 15.5199 32.3541" fill="url(#paint20_linear_740_7753)"/>
<path d="M45.0385 34.7316C44.7871 35.1407 44.4581 35.6904 44.1873 36.087C43.3692 37.2511 40.6567 38.2964 36.5039 38.8525C29.5042 39.7898 21.054 38.9841 17.5733 37.0517C17.139 36.3947 16.7614 35.7024 16.4443 34.982C20.2363 37.083 29.4409 37.9632 37.0658 36.9419C41.8911 36.2958 44.933 35.0434 45.5857 33.6735L45.0385 34.7316Z" fill="url(#paint21_linear_740_7753)"/>
<path d="M17.5225 37.0231C16.9559 36.7037 16.558 36.3692 16.3247 36.0339L15.8657 35.3316C15.5768 34.8231 15.1953 34.1422 14.9365 33.6166C15.1492 34.0672 15.6254 34.517 16.3888 34.9457C16.7075 35.667 17.0867 36.3602 17.5225 37.0179" fill="url(#paint22_linear_740_7753)"/>
<path d="M41.5741 39.0348C41.0932 39.4357 40.44 39.9566 39.9354 40.3275C39.0076 40.9638 37.2565 41.51 34.8479 41.8325C29.6962 42.5223 23.4771 41.9294 20.9174 40.508C20.2991 40.0723 19.7211 39.5824 19.1904 39.0442C22.2268 40.7288 29.5984 41.4316 35.7047 40.6139C38.9882 40.1744 41.2405 39.3838 42.1632 38.4834L41.575 39.0348" fill="url(#paint23_linear_740_7753)"/>
<path d="M20.8778 40.487C20.7644 40.423 20.6605 40.3583 20.5661 40.2932C20.2509 40.0569 19.8251 39.7486 19.5194 39.5004C19.1625 39.1857 18.6832 38.7715 18.3418 38.4392C18.5831 38.666 18.8527 38.8608 19.1439 39.0189C19.6772 39.5583 20.2574 40.0496 20.8778 40.487Z" fill="url(#paint24_linear_740_7753)"/>
<path d="M36.5056 42.1635C35.61 42.4962 34.7644 42.8105 33.0288 43.1227C32.9164 43.1402 32.801 43.1574 32.6822 43.1733C30.8738 43.4155 28.8148 43.3593 27.2373 43.0746L26.8394 42.9975C26.1152 42.835 26.0717 42.826 25.6549 42.708C24.7753 42.4388 24.6836 42.4105 24.1028 42.1867L23.5762 41.9723C25.7458 42.895 30.1039 43.2513 33.7586 42.7616C35.0907 42.5833 36.159 42.3157 36.9168 41.9967L36.5056 42.1657" fill="url(#paint25_linear_740_7753)"/>
<g style="mix-blend-mode:hard-light">
<path fill-rule="evenodd" clip-rule="evenodd" d="M55.5372 23.4682C53.5056 22.8965 50.6193 22.3915 47.2463 21.9942L47.3839 20.8362C50.7818 21.2364 53.7378 21.7502 55.8556 22.3461C56.9101 22.6428 57.7898 22.9688 58.4181 23.3288C58.732 23.5087 59.0107 23.7125 59.2168 23.9481C59.4257 24.187 59.5851 24.4894 59.5851 24.8456C59.5851 25.4265 59.1955 25.8716 58.7579 26.1929C58.3048 26.5255 57.6737 26.8219 56.9173 27.0905C55.3975 27.6303 53.2309 28.1064 50.593 28.5027C45.3082 29.2966 38.0276 29.7852 29.9996 29.7852C21.9716 29.7852 14.691 29.2966 9.40613 28.5027C6.76823 28.1064 4.60167 27.6303 3.08183 27.0905C2.32546 26.8219 1.69437 26.5255 1.2413 26.1929C0.803697 25.8716 0.414062 25.4265 0.414062 24.8456C0.414062 24.4916 0.571627 24.1908 0.778562 23.9529C0.982659 23.7182 1.25858 23.5153 1.56912 23.3363C2.19058 22.9781 3.06037 22.6538 4.10229 22.3586C6.19515 21.7655 9.11601 21.2535 12.4736 20.853L12.6129 22.0107C9.28019 22.4083 6.42921 22.9116 4.4228 23.4801C3.4151 23.7656 2.65339 24.0587 2.15578 24.3455C1.90678 24.489 1.75127 24.6156 1.66381 24.7162C1.62171 24.7646 1.60176 24.7997 1.59272 24.8205C1.58833 24.8305 1.58654 24.8371 1.58581 24.8404C1.5851 24.8437 1.58509 24.8452 1.58509 24.8456C1.58509 24.8662 1.6012 25.0084 1.93621 25.2543C2.25575 25.4889 2.76414 25.7397 3.47525 25.9922C4.89037 26.4948 6.97076 26.9576 9.58083 27.3497C14.7919 28.1325 22.0113 28.6192 29.9996 28.6192C37.9878 28.6192 45.2073 28.1325 50.4183 27.3497C53.0284 26.9576 55.1088 26.4948 56.5239 25.9922C57.235 25.7397 57.7434 25.4889 58.0629 25.2543C58.3979 25.0084 58.4141 24.8662 58.4141 24.8456C58.4141 24.8451 58.414 24.8435 58.4133 24.8402C58.4126 24.8367 58.4107 24.83 58.4062 24.8197C58.3969 24.7986 58.3765 24.7629 58.3337 24.7139C58.2446 24.6121 58.0865 24.4842 57.834 24.3395C57.3294 24.0504 56.5575 23.7553 55.5372 23.4682Z" fill="url(#paint26_linear_740_7753)"/>
</g>
<g style="mix-blend-mode:hard-light">
<path fill-rule="evenodd" clip-rule="evenodd" d="M51.5252 11.7253C48.8389 12.4286 45.4339 13.5928 42.2688 14.8202L41.8438 13.7337C45.032 12.4973 48.4823 11.3162 51.2275 10.5976C52.5959 10.2393 53.8141 9.98923 54.7461 9.91062C55.2087 9.8716 55.6354 9.87152 55.9875 9.9377C56.3164 9.99952 56.7308 10.1484 56.9412 10.542C57.2153 11.0548 57.0814 11.63 56.8467 12.1183C56.6037 12.6239 56.1865 13.1808 55.6456 13.7718C54.5587 14.9595 52.8708 16.3934 50.7292 17.9774C46.4387 21.1508 40.2425 24.9885 33.1558 28.7446C26.0692 32.5007 19.4118 35.4757 14.3721 37.2475C11.8565 38.1319 9.71934 38.7254 8.123 38.9599C7.32855 39.0767 6.63162 39.1103 6.07471 39.0287C5.53684 38.9498 4.98286 38.7392 4.70874 38.2264C4.54172 37.914 4.53887 37.5747 4.60926 37.2679C4.67868 36.9652 4.82652 36.6571 5.01618 36.3538C5.39574 35.7468 6.0105 35.0535 6.79093 34.3054C8.35853 32.8028 10.6953 30.9842 13.4702 29.0597L14.1394 30.0165C11.3851 31.9267 9.10593 33.7049 7.60308 35.1455C6.84828 35.869 6.31417 36.4841 6.01025 36.9701C5.85818 37.2133 5.78063 37.3978 5.75089 37.5275C5.73657 37.5899 5.73553 37.6303 5.73733 37.6528C5.7382 37.6637 5.73972 37.6704 5.74066 37.6737C5.74156 37.6768 5.74225 37.6782 5.74245 37.6785C5.75218 37.6967 5.83349 37.8147 6.24527 37.8751C6.63803 37.9326 7.20514 37.9161 7.95204 37.8064C9.43838 37.588 11.4932 37.0231 13.9822 36.148C18.9516 34.4009 25.5541 31.4528 32.6056 27.7153C39.6572 23.9778 45.8004 20.1705 50.031 17.0413C52.1499 15.474 53.768 14.0922 54.7801 12.9864C55.2886 12.4308 55.619 11.9716 55.7904 11.615C55.9274 11.33 55.9292 11.185 55.918 11.124C55.8931 11.1135 55.8473 11.098 55.7703 11.0835C55.5694 11.0458 55.2638 11.0372 54.8449 11.0725C54.0139 11.1426 52.8725 11.3726 51.5252 11.7253Z" fill="url(#paint27_linear_740_7753)"/>
</g>
<g style="mix-blend-mode:hard-light">
<path fill-rule="evenodd" clip-rule="evenodd" d="M52.3926 36.1767C50.4619 34.1883 47.7757 31.8015 45.1516 29.654L45.8951 28.7532C48.5384 30.9163 51.2615 33.3342 53.2345 35.3661C54.218 36.379 55.0333 37.3144 55.5583 38.0852C55.819 38.4678 56.0278 38.8382 56.1422 39.1764C56.2491 39.4922 56.3215 39.925 56.0798 40.3003C55.7649 40.7893 55.1957 40.9546 54.6531 40.9898C54.0914 41.0263 53.3995 40.9366 52.6172 40.7562C51.0451 40.3937 48.9632 39.6299 46.5278 38.5457C41.6486 36.3734 35.2549 32.8715 28.497 28.5565C21.739 24.2415 15.875 19.917 11.8566 16.4081C9.8508 14.6566 8.28505 13.0914 7.29827 11.82C6.80718 11.1873 6.43659 10.5987 6.2355 10.0751C6.04128 9.56948 5.95457 8.98536 6.26948 8.49635C6.46135 8.19838 6.75705 8.02986 7.06024 7.94078C7.35927 7.85291 7.7015 7.83046 8.05995 7.84669C8.77728 7.87918 9.68527 8.07368 10.7224 8.38517C12.8057 9.01084 15.542 10.1497 18.5856 11.6173L18.0752 12.6668C15.0542 11.2101 12.3815 10.1014 10.3843 9.50155C9.38118 9.20029 8.58112 9.03756 8.00674 9.01155C7.71933 8.99853 7.51979 9.02151 7.39166 9.05916C7.32997 9.07729 7.29413 9.09614 7.2753 9.10871C7.26615 9.11482 7.26109 9.11939 7.25864 9.12182C7.2563 9.12416 7.25548 9.12541 7.25525 9.12577C7.24408 9.14312 7.18057 9.27146 7.32926 9.65857C7.47108 10.0278 7.76312 10.5121 8.22481 11.107C9.1436 12.2907 10.6441 13.7984 12.6287 15.5313C16.591 18.9913 22.4045 23.2813 29.1291 27.5749C35.8536 31.8685 42.1947 35.3393 47.0058 37.4812C49.4155 38.554 51.4176 39.2827 52.8813 39.6202C53.6169 39.7898 54.1808 39.8519 54.5769 39.8262C54.8935 39.8057 55.0214 39.7363 55.0693 39.6967C55.0663 39.6699 55.0575 39.6226 55.0325 39.5486C54.9672 39.3557 54.8251 39.0861 54.5892 38.7397C54.1211 38.0525 53.361 37.1739 52.3926 36.1767Z" fill="url(#paint28_linear_740_7753)"/>
</g>
<g style="mix-blend-mode:hard-light">
<path fill-rule="evenodd" clip-rule="evenodd" d="M20.5773 49.2928C21.0973 46.5759 22.0298 43.1134 23.0421 39.8848L21.9243 39.5373C20.9046 42.7894 19.9584 46.2981 19.427 49.0745C19.1621 50.4585 18.9952 51.6859 18.9805 52.6171C18.9732 53.0794 19.0025 53.5032 19.093 53.8484C19.1775 54.1709 19.3552 54.5724 19.7639 54.7543C20.2965 54.9914 20.8636 54.8189 21.3368 54.5522C21.8266 54.276 22.3559 53.8233 22.9109 53.2453C24.026 52.084 25.3467 50.3088 26.7865 48.0725C29.6712 43.5922 33.0904 37.1731 36.3666 29.8752C39.6428 22.5773 42.166 15.7594 43.5949 10.6311C44.3081 8.07138 44.7558 5.90756 44.8811 4.30564C44.9435 3.50841 44.9293 2.81377 44.8092 2.26615C44.6933 1.73724 44.4442 1.20139 43.9116 0.964322C43.5871 0.81987 43.247 0.840352 42.9444 0.931359C42.6459 1.02112 42.3474 1.18916 42.0565 1.39842C41.4745 1.81718 40.8222 2.47551 40.1263 3.30219C38.7285 4.96271 37.067 7.40898 35.3296 10.2978L36.3342 10.8969C38.0588 8.02951 39.6837 5.64318 41.0237 4.05126C41.6968 3.25172 42.2763 2.67888 42.7423 2.34357C42.9755 2.17579 43.1551 2.08608 43.283 2.04762C43.3445 2.0291 43.3849 2.0253 43.4076 2.02554C43.4186 2.02565 43.4253 2.02671 43.4287 2.02741C43.432 2.02808 43.4333 2.02868 43.4337 2.02886C43.4526 2.03727 43.5764 2.10993 43.6652 2.51485C43.7498 2.90106 43.7723 3.46556 43.7136 4.21507C43.5969 5.70662 43.1722 7.78665 42.4665 10.3194C41.0576 15.376 38.5575 22.1375 35.2975 29.3993C32.0375 36.6611 28.6451 43.0254 25.8007 47.4431C24.376 49.6558 23.1028 51.3582 22.0645 52.4395C21.5427 52.9828 21.1053 53.3427 20.7599 53.5374C20.4838 53.693 20.3386 53.7049 20.2768 53.6979C20.2645 53.6739 20.2458 53.6295 20.226 53.5539C20.1744 53.357 20.1448 53.0539 20.1514 52.6354C20.1645 51.8051 20.3165 50.6554 20.5773 49.2928Z" fill="url(#paint29_linear_740_7753)"/>
</g>
<ellipse opacity="0.6" cx="20.8289" cy="45.6255" rx="1.68044" ry="1.67331" fill="url(#paint30_radial_740_7753)"/>
<ellipse cx="8.22514" cy="27.2243" rx="3.31987" ry="3.30577" fill="url(#paint31_radial_740_7753)"/>
<ellipse cx="51.831" cy="16.2241" rx="3.91011" ry="3.89351" fill="url(#paint32_radial_740_7753)"/>
<ellipse cx="47.2829" cy="38.3085" rx="1.95286" ry="1.94457" fill="url(#paint33_radial_740_7753)"/>
<defs>
<linearGradient id="paint0_linear_740_7753" x1="24.0181" y1="10.3029" x2="37.2268" y2="9.78933" gradientUnits="userSpaceOnUse">
<stop stop-color="#AE8A12"/>
<stop offset="0.286458" stop-color="#9D1B3B"/>
<stop offset="0.53125" stop-color="#532997"/>
<stop offset="0.723958" stop-color="#0D8471"/>
<stop offset="1" stop-color="#00678B"/>
</linearGradient>
<linearGradient id="paint1_linear_740_7753" x1="18.4287" y1="12.4834" x2="43.2251" y2="11.8757" gradientUnits="userSpaceOnUse">
<stop stop-color="#AE8A12"/>
<stop offset="0.286458" stop-color="#9D1B3B"/>
<stop offset="0.53125" stop-color="#532997"/>
<stop offset="0.723958" stop-color="#0D8471"/>
<stop offset="1" stop-color="#00678B"/>
</linearGradient>
<linearGradient id="paint2_linear_740_7753" x1="14.7852" y1="16.1751" x2="47.157" y2="15.5102" gradientUnits="userSpaceOnUse">
<stop stop-color="#AE8A12"/>
<stop offset="0.286458" stop-color="#9D1B3B"/>
<stop offset="0.53125" stop-color="#532997"/>
<stop offset="0.723958" stop-color="#0D8471"/>
<stop offset="1" stop-color="#00678B"/>
</linearGradient>
<linearGradient id="paint3_linear_740_7753" x1="13.0424" y1="21.0937" x2="49.0272" y2="20.4464" gradientUnits="userSpaceOnUse">
<stop stop-color="#AE8A12"/>
<stop offset="0.286458" stop-color="#9D1B3B"/>
<stop offset="0.53125" stop-color="#532997"/>
<stop offset="0.723958" stop-color="#0D8471"/>
<stop offset="1" stop-color="#00678B"/>
</linearGradient>
<linearGradient id="paint4_linear_740_7753" x1="12.9874" y1="26.8132" x2="49.0764" y2="26.2167" gradientUnits="userSpaceOnUse">
<stop stop-color="#AE8A12"/>
<stop offset="0.286458" stop-color="#9D1B3B"/>
<stop offset="0.53125" stop-color="#532997"/>
<stop offset="0.723958" stop-color="#0D8471"/>
<stop offset="1" stop-color="#00678B"/>
</linearGradient>
<linearGradient id="paint5_linear_740_7753" x1="14.4241" y1="32.3477" x2="47.4959" y2="31.8232" gradientUnits="userSpaceOnUse">
<stop stop-color="#AE8A12"/>
<stop offset="0.286458" stop-color="#9D1B3B"/>
<stop offset="0.53125" stop-color="#532997"/>
<stop offset="0.723958" stop-color="#0D8471"/>
<stop offset="1" stop-color="#00678B"/>
</linearGradient>
<linearGradient id="paint6_linear_740_7753" x1="17.5749" y1="37.1405" x2="44.0603" y2="36.7475" gradientUnits="userSpaceOnUse">
<stop stop-color="#AE8A12"/>
<stop offset="0.286458" stop-color="#9D1B3B"/>
<stop offset="0.53125" stop-color="#532997"/>
<stop offset="0.723958" stop-color="#0D8471"/>
<stop offset="1" stop-color="#00678B"/>
</linearGradient>
<linearGradient id="paint7_linear_740_7753" x1="23.0901" y1="42.4622" x2="27.4971" y2="42.4111" gradientUnits="userSpaceOnUse">
<stop stop-color="#AE8A12"/>
<stop offset="0.286458" stop-color="#9D1B3B"/>
<stop offset="0.53125" stop-color="#532997"/>
<stop offset="0.723958" stop-color="#0D8471"/>
<stop offset="1" stop-color="#00678B"/>
</linearGradient>
<linearGradient id="paint8_linear_740_7753" x1="22.0908" y1="40.812" x2="39.1574" y2="40.5892" gradientUnits="userSpaceOnUse">
<stop stop-color="#AE8A12"/>
<stop offset="0.286458" stop-color="#9D1B3B"/>
<stop offset="0.53125" stop-color="#532997"/>
<stop offset="0.723958" stop-color="#0D8471"/>
<stop offset="1" stop-color="#00678B"/>
</linearGradient>
<linearGradient id="paint9_linear_740_7753" x1="27.6111" y1="42.5424" x2="33.1589" y2="42.4676" gradientUnits="userSpaceOnUse">
<stop stop-color="#AE8A12"/>
<stop offset="0.286458" stop-color="#9D1B3B"/>
<stop offset="0.53125" stop-color="#532997"/>
<stop offset="0.723958" stop-color="#0D8471"/>
<stop offset="1" stop-color="#00678B"/>
</linearGradient>
<linearGradient id="paint10_linear_740_7753" x1="28.0874" y1="10.4155" x2="32.7099" y2="10.3532" gradientUnits="userSpaceOnUse">
<stop stop-color="#FDCB24"/>
<stop offset="0.286458" stop-color="#E73C66"/>
<stop offset="0.53125" stop-color="#8D5CDD"/>
<stop offset="0.723958" stop-color="#26F2D3"/>
<stop offset="1" stop-color="#00BDFF"/>
</linearGradient>
<linearGradient id="paint11_linear_740_7753" x1="23.3154" y1="11.8459" x2="38.7215" y2="11.6562" gradientUnits="userSpaceOnUse">
<stop stop-color="#FDCB24"/>
<stop offset="0.286458" stop-color="#E73C66"/>
<stop offset="0.53125" stop-color="#8D5CDD"/>
<stop offset="0.723958" stop-color="#26F2D3"/>
<stop offset="1" stop-color="#00BDFF"/>
</linearGradient>
<linearGradient id="paint12_linear_740_7753" x1="22.6273" y1="11.2787" x2="28.5223" y2="11.2406" gradientUnits="userSpaceOnUse">
<stop stop-color="#FDCB24"/>
<stop offset="0.286458" stop-color="#E73C66"/>
<stop offset="0.53125" stop-color="#8D5CDD"/>
<stop offset="0.723958" stop-color="#26F2D3"/>
<stop offset="1" stop-color="#00BDFF"/>
</linearGradient>
<linearGradient id="paint13_linear_740_7753" x1="19.1864" y1="15.316" x2="43.6857" y2="14.9726" gradientUnits="userSpaceOnUse">
<stop stop-color="#FDCB24"/>
<stop offset="0.286458" stop-color="#E73C66"/>
<stop offset="0.53125" stop-color="#8D5CDD"/>
<stop offset="0.723958" stop-color="#26F2D3"/>
<stop offset="1" stop-color="#00BDFF"/>
</linearGradient>
<linearGradient id="paint14_linear_740_7753" x1="18.1671" y1="14.4126" x2="21.394" y2="14.4039" gradientUnits="userSpaceOnUse">
<stop stop-color="#FDCB24"/>
<stop offset="0.286458" stop-color="#E73C66"/>
<stop offset="0.53125" stop-color="#8D5CDD"/>
<stop offset="0.723958" stop-color="#26F2D3"/>
<stop offset="1" stop-color="#00BDFF"/>
</linearGradient>
<linearGradient id="paint15_linear_740_7753" x1="16.2451" y1="19.997" x2="47.2063" y2="19.5303" gradientUnits="userSpaceOnUse">
<stop stop-color="#FDCB24"/>
<stop offset="0.286458" stop-color="#E73C66"/>
<stop offset="0.53125" stop-color="#8D5CDD"/>
<stop offset="0.723958" stop-color="#26F2D3"/>
<stop offset="1" stop-color="#00BDFF"/>
</linearGradient>
<linearGradient id="paint16_linear_740_7753" x1="14.9733" y1="18.8364" x2="17.9207" y2="18.8301" gradientUnits="userSpaceOnUse">
<stop stop-color="#FDCB24"/>
<stop offset="0.286458" stop-color="#E73C66"/>
<stop offset="0.53125" stop-color="#8D5CDD"/>
<stop offset="0.723958" stop-color="#26F2D3"/>
<stop offset="1" stop-color="#00BDFF"/>
</linearGradient>
<linearGradient id="paint17_linear_740_7753" x1="14.8118" y1="25.4674" x2="48.9081" y2="24.9311" gradientUnits="userSpaceOnUse">
<stop stop-color="#FDCB24"/>
<stop offset="0.286458" stop-color="#E73C66"/>
<stop offset="0.53125" stop-color="#8D5CDD"/>
<stop offset="0.723958" stop-color="#26F2D3"/>
<stop offset="1" stop-color="#00BDFF"/>
</linearGradient>
<linearGradient id="paint18_linear_740_7753" x1="13.4233" y1="24.1924" x2="15.7556" y2="24.1886" gradientUnits="userSpaceOnUse">
<stop stop-color="#FDCB24"/>
<stop offset="0.286458" stop-color="#E73C66"/>
<stop offset="0.53125" stop-color="#8D5CDD"/>
<stop offset="0.723958" stop-color="#26F2D3"/>
<stop offset="1" stop-color="#00BDFF"/>
</linearGradient>
<linearGradient id="paint19_linear_740_7753" x1="14.7679" y1="31.2381" x2="48.9427" y2="30.6569" gradientUnits="userSpaceOnUse">
<stop stop-color="#FDCB24"/>
<stop offset="0.286458" stop-color="#E73C66"/>
<stop offset="0.53125" stop-color="#8D5CDD"/>
<stop offset="0.723958" stop-color="#26F2D3"/>
<stop offset="1" stop-color="#00BDFF"/>
</linearGradient>
<linearGradient id="paint20_linear_740_7753" x1="13.3822" y1="29.9916" x2="15.64" y2="29.9876" gradientUnits="userSpaceOnUse">
<stop stop-color="#FDCB24"/>
<stop offset="0.286458" stop-color="#E73C66"/>
<stop offset="0.53125" stop-color="#8D5CDD"/>
<stop offset="0.723958" stop-color="#26F2D3"/>
<stop offset="1" stop-color="#00BDFF"/>
</linearGradient>
<linearGradient id="paint21_linear_740_7753" x1="16.0589" y1="36.3119" x2="47.2326" y2="35.7039" gradientUnits="userSpaceOnUse">
<stop stop-color="#FDCB24"/>
<stop offset="0.286458" stop-color="#E73C66"/>
<stop offset="0.53125" stop-color="#8D5CDD"/>
<stop offset="0.723958" stop-color="#26F2D3"/>
<stop offset="1" stop-color="#00BDFF"/>
</linearGradient>
<linearGradient id="paint22_linear_740_7753" x1="14.9023" y1="35.2302" x2="17.6697" y2="35.2224" gradientUnits="userSpaceOnUse">
<stop stop-color="#FDCB24"/>
<stop offset="0.286458" stop-color="#E73C66"/>
<stop offset="0.53125" stop-color="#8D5CDD"/>
<stop offset="0.723958" stop-color="#26F2D3"/>
<stop offset="1" stop-color="#00BDFF"/>
</linearGradient>
<linearGradient id="paint23_linear_740_7753" x1="18.8866" y1="40.2061" x2="43.4571" y2="39.6275" gradientUnits="userSpaceOnUse">
<stop stop-color="#FDCB24"/>
<stop offset="0.286458" stop-color="#E73C66"/>
<stop offset="0.53125" stop-color="#8D5CDD"/>
<stop offset="0.723958" stop-color="#26F2D3"/>
<stop offset="1" stop-color="#00BDFF"/>
</linearGradient>
<linearGradient id="paint24_linear_740_7753" x1="18.3083" y1="39.4092" x2="21.0221" y2="39.3967" gradientUnits="userSpaceOnUse">
<stop stop-color="#FDCB24"/>
<stop offset="0.286458" stop-color="#E73C66"/>
<stop offset="0.53125" stop-color="#8D5CDD"/>
<stop offset="0.723958" stop-color="#26F2D3"/>
<stop offset="1" stop-color="#00BDFF"/>
</linearGradient>
<linearGradient id="paint25_linear_740_7753" x1="23.3997" y1="42.6134" x2="37.6568" y2="42.0896" gradientUnits="userSpaceOnUse">
<stop stop-color="#FDCB24"/>
<stop offset="0.286458" stop-color="#E73C66"/>
<stop offset="0.53125" stop-color="#8D5CDD"/>
<stop offset="0.723958" stop-color="#26F2D3"/>
<stop offset="1" stop-color="#00BDFF"/>
</linearGradient>
<linearGradient id="paint26_linear_740_7753" x1="29.9996" y1="29.2022" x2="29.9996" y2="20.5499" gradientUnits="userSpaceOnUse">
<stop stop-color="#FFE500"/>
<stop offset="1" stop-color="#FFE500" stop-opacity="0"/>
</linearGradient>
<linearGradient id="paint27_linear_740_7753" x1="32.8807" y1="28.2299" x2="28.825" y2="20.578" gradientUnits="userSpaceOnUse">
<stop stop-color="#FFE500"/>
<stop offset="1" stop-color="#FFE500" stop-opacity="0"/>
</linearGradient>
<linearGradient id="paint28_linear_740_7753" x1="28.813" y1="28.0657" x2="33.475" y2="20.7642" gradientUnits="userSpaceOnUse">
<stop stop-color="#FFE500"/>
<stop offset="1" stop-color="#FFE500" stop-opacity="0"/>
</linearGradient>
<linearGradient id="paint29_linear_740_7753" x1="35.832" y1="29.6373" x2="27.5606" y2="26.4145" gradientUnits="userSpaceOnUse">
<stop stop-color="#FFE500"/>
<stop offset="1" stop-color="#FFE500" stop-opacity="0"/>
</linearGradient>
<radialGradient id="paint30_radial_740_7753" cx="0" cy="0" r="1" gradientUnits="userSpaceOnUse" gradientTransform="translate(19.7972 44.2944) rotate(44.8781) scale(4.32306 4.32303)">
<stop stop-color="#FDCB24"/>
<stop offset="0.286458" stop-color="#E73C66"/>
<stop offset="0.53125" stop-color="#8D5CDD"/>
<stop offset="0.723958" stop-color="#26F2D3"/>
<stop offset="1" stop-color="#00BDFF"/>
</radialGradient>
<radialGradient id="paint31_radial_740_7753" cx="0" cy="0" r="1" gradientUnits="userSpaceOnUse" gradientTransform="translate(6.187 24.5947) rotate(44.8781) scale(8.5406 8.54052)">
<stop stop-color="#FDCB24"/>
<stop offset="0.286458" stop-color="#E73C66"/>
<stop offset="0.53125" stop-color="#8D5CDD"/>
<stop offset="0.723958" stop-color="#26F2D3"/>
<stop offset="1" stop-color="#00BDFF"/>
</radialGradient>
<radialGradient id="paint32_radial_740_7753" cx="0" cy="0" r="1" gradientUnits="userSpaceOnUse" gradientTransform="translate(49.4305 13.1269) rotate(44.8781) scale(10.0591 10.059)">
<stop stop-color="#FDCB24"/>
<stop offset="0.286458" stop-color="#E73C66"/>
<stop offset="0.53125" stop-color="#8D5CDD"/>
<stop offset="0.723958" stop-color="#26F2D3"/>
<stop offset="1" stop-color="#00BDFF"/>
</radialGradient>
<radialGradient id="paint33_radial_740_7753" cx="0" cy="0" r="1" gradientUnits="userSpaceOnUse" gradientTransform="translate(46.084 36.7616) rotate(44.8781) scale(5.02388 5.02384)">
<stop stop-color="#FDCB24"/>
<stop offset="0.286458" stop-color="#E73C66"/>
<stop offset="0.53125" stop-color="#8D5CDD"/>
<stop offset="0.723958" stop-color="#26F2D3"/>
<stop offset="1" stop-color="#00BDFF"/>
</radialGradient>
</defs>
</svg>
