<svg width="314" height="514" viewBox="0 0 314 452" fill="none" xmlns="http://www.w3.org/2000/svg">
<g filter="url(#filter0_d_918_2809)">
<path d="M242.076 18C242.076 20.4184 240.116 22.3789 237.697 22.3789L75.6778 22.3789C73.2594 22.3789 71.2989 20.4184 71.2989 18V18L242.076 18V18Z" fill="#FFE600"/>
</g>
<g filter="url(#filter1_b_918_2809)">
<mask id="path-2-inside-1_918_2809" fill="white">
<path fill-rule="evenodd" clip-rule="evenodd" d="M246.455 18C246.455 22.353 242.926 25.8818 238.573 25.8818L74.8021 25.8818C70.449 25.8818 66.9201 22.353 66.92 18H37.0391C25.9718 18 17 26.9718 17 38.039V413.961C17 425.028 25.9718 434 37.0391 434H66.92C66.9202 429.647 70.4491 426.118 74.8021 426.118H238.573C242.926 426.118 246.455 429.647 246.455 434H277.211C288.278 434 297.25 425.028 297.25 413.961V38.0391C297.25 26.9718 288.278 18 277.211 18H246.455ZM24.8822 76.6779C24.8822 72.3248 21.3533 68.7959 17.0002 68.7959L17.0002 387.583C21.3533 387.583 24.8822 384.054 24.8822 379.701L24.8822 76.6779ZM297.25 68.7959C292.897 68.7959 289.368 72.3248 289.368 76.6779V379.701C289.368 384.054 292.897 387.583 297.25 387.583V68.7959Z"/>
</mask>
<path fill-rule="evenodd" clip-rule="evenodd" d="M246.455 18C246.455 22.353 242.926 25.8818 238.573 25.8818L74.8021 25.8818C70.449 25.8818 66.9201 22.353 66.92 18H37.0391C25.9718 18 17 26.9718 17 38.039V413.961C17 425.028 25.9718 434 37.0391 434H66.92C66.9202 429.647 70.4491 426.118 74.8021 426.118H238.573C242.926 426.118 246.455 429.647 246.455 434H277.211C288.278 434 297.25 425.028 297.25 413.961V38.0391C297.25 26.9718 288.278 18 277.211 18H246.455ZM24.8822 76.6779C24.8822 72.3248 21.3533 68.7959 17.0002 68.7959L17.0002 387.583C21.3533 387.583 24.8822 384.054 24.8822 379.701L24.8822 76.6779ZM297.25 68.7959C292.897 68.7959 289.368 72.3248 289.368 76.6779V379.701C289.368 384.054 292.897 387.583 297.25 387.583V68.7959Z" fill="white" fill-opacity="0.1"/>
<path d="M238.573 25.8818L238.573 26.9787H238.573V25.8818ZM246.455 18V16.9031H245.358L245.358 18L246.455 18ZM74.8021 25.8818L74.8021 24.7849H74.8021V25.8818ZM66.92 18L68.0169 18L68.0168 16.9031H66.92V18ZM66.92 434V435.097H68.0168L68.0169 434L66.92 434ZM246.455 434L245.358 434L245.358 435.097H246.455V434ZM17.0002 68.7959V67.699H15.9033L15.9033 68.7959L17.0002 68.7959ZM24.8822 76.6779L23.7853 76.6779L24.8822 76.6779ZM17.0002 387.583L15.9033 387.583L15.9033 388.68H17.0002V387.583ZM24.8822 379.701L25.9791 379.701L24.8822 379.701ZM297.25 68.7959H298.347V67.699H297.25V68.7959ZM297.25 387.583V388.68H298.347V387.583H297.25ZM238.573 26.9787C243.532 26.9787 247.552 22.9588 247.552 18L245.358 18C245.358 21.7472 242.32 24.785 238.573 24.785V26.9787ZM74.8021 26.9787L238.573 26.9787L238.573 24.785L74.8021 24.7849L74.8021 26.9787ZM65.8231 18C65.8233 22.9588 69.8432 26.9787 74.8021 26.9787V24.7849C71.0548 24.7849 68.017 21.7472 68.0169 18L65.8231 18ZM37.0391 19.0969H66.92V16.9031H37.0391V19.0969ZM18.0969 38.039C18.0969 27.5776 26.5776 19.0969 37.0391 19.0969V16.9031C25.366 16.9031 15.9031 26.366 15.9031 38.039H18.0969ZM18.0969 413.961V38.039H15.9031V413.961H18.0969ZM37.0391 432.903C26.5776 432.903 18.0969 424.422 18.0969 413.961H15.9031C15.9031 425.634 25.366 435.097 37.0391 435.097V432.903ZM66.92 432.903H37.0391V435.097H66.92V432.903ZM74.8021 425.021C69.8433 425.021 65.8234 429.041 65.8231 434L68.0169 434C68.0171 430.253 71.0548 427.215 74.8021 427.215V425.021ZM238.573 425.021H74.8021V427.215H238.573V425.021ZM247.552 434C247.552 429.041 243.532 425.021 238.573 425.021V427.215C242.32 427.215 245.358 430.253 245.358 434L247.552 434ZM277.211 432.903H246.455V435.097H277.211V432.903ZM296.153 413.961C296.153 424.422 287.672 432.903 277.211 432.903V435.097C288.884 435.097 298.347 425.634 298.347 413.961H296.153ZM296.153 38.0391V413.961H298.347V38.0391H296.153ZM277.211 19.0969C287.672 19.0969 296.153 27.5776 296.153 38.0391H298.347C298.347 26.366 288.884 16.9031 277.211 16.9031V19.0969ZM246.455 19.0969H277.211V16.9031H246.455V19.0969ZM17.0002 69.8928C20.7475 69.8928 23.7853 72.9306 23.7853 76.6779H25.9791C25.9791 71.719 21.9591 67.699 17.0002 67.699V69.8928ZM18.097 387.583L18.097 68.7959L15.9033 68.7959L15.9033 387.583L18.097 387.583ZM23.7853 379.701C23.7853 383.448 20.7475 386.486 17.0002 386.486V388.68C21.9591 388.68 25.9791 384.66 25.9791 379.701H23.7853ZM23.7853 76.6779L23.7853 379.701L25.9791 379.701L25.9791 76.6779L23.7853 76.6779ZM290.465 76.6779C290.465 72.9306 293.502 69.8928 297.25 69.8928V67.699C292.291 67.699 288.271 71.719 288.271 76.6779H290.465ZM290.465 379.701V76.6779H288.271V379.701H290.465ZM297.25 386.486C293.502 386.486 290.465 383.448 290.465 379.701H288.271C288.271 384.66 292.291 388.68 297.25 388.68V386.486ZM296.153 68.7959V387.583H298.347V68.7959H296.153Z" fill="white" fill-opacity="0.15" mask="url(#path-2-inside-1_918_2809)"/>
</g>
<g opacity="0.4" filter="url(#filter2_d_918_2809)">
<path d="M17 72.2988C19.4184 72.2988 21.3789 74.2593 21.3789 76.6777L21.3789 378.825C21.3789 381.243 19.4184 383.204 17 383.204V383.204L17 72.2988V72.2988Z" fill="#FFE600"/>
</g>
<g opacity="0.4" filter="url(#filter3_d_918_2809)">
<path d="M297.25 72.2988C294.832 72.2988 292.871 74.2593 292.871 76.6777L292.871 378.825C292.871 381.243 294.832 383.204 297.25 383.204V383.204L297.25 72.2988V72.2988Z" fill="#FFE600"/>
</g>
<g filter="url(#filter4_d_918_2809)">
<path d="M242.076 434C242.076 431.582 240.116 429.621 237.697 429.621L75.6778 429.621C73.2594 429.621 71.2989 431.582 71.2989 434V434L242.076 434V434Z" fill="#FFE600"/>
</g>
<defs>
<filter id="filter0_d_918_2809" x="53.7488" y="0.450001" width="205.877" height="39.4789" filterUnits="userSpaceOnUse" color-interpolation-filters="sRGB">
<feFlood flood-opacity="0" result="BackgroundImageFix"/>
<feColorMatrix in="SourceAlpha" type="matrix" values="0 0 0 0 0 0 0 0 0 0 0 0 0 0 0 0 0 0 127 0" result="hardAlpha"/>
<feOffset/>
<feGaussianBlur stdDeviation="8.775"/>
<feComposite in2="hardAlpha" operator="out"/>
<feColorMatrix type="matrix" values="0 0 0 0 0.32 0 0 0 0 1 0 0 0 0 0 0 0 0 0.8 0"/>
<feBlend mode="normal" in2="BackgroundImageFix" result="effect1_dropShadow_918_2809"/>
<feBlend mode="normal" in="SourceGraphic" in2="effect1_dropShadow_918_2809" result="shape"/>
</filter>
<filter id="filter1_b_918_2809" x="-70.75" y="-69.75" width="455.75" height="591.5" filterUnits="userSpaceOnUse" color-interpolation-filters="sRGB">
<feFlood flood-opacity="0" result="BackgroundImageFix"/>
<feGaussianBlur in="BackgroundImageFix" stdDeviation="43.875"/>
<feComposite in2="SourceAlpha" operator="in" result="effect1_backgroundBlur_918_2809"/>
<feBlend mode="normal" in="SourceGraphic" in2="effect1_backgroundBlur_918_2809" result="shape"/>
</filter>
<filter id="filter2_d_918_2809" x="0.96875" y="56.2676" width="36.4414" height="342.968" filterUnits="userSpaceOnUse" color-interpolation-filters="sRGB">
<feFlood flood-opacity="0" result="BackgroundImageFix"/>
<feColorMatrix in="SourceAlpha" type="matrix" values="0 0 0 0 0 0 0 0 0 0 0 0 0 0 0 0 0 0 127 0" result="hardAlpha"/>
<feOffset/>
<feGaussianBlur stdDeviation="8.01562"/>
<feComposite in2="hardAlpha" operator="out"/>
<feColorMatrix type="matrix" values="0 0 0 0 1 0 0 0 0 0.901961 0 0 0 0 0 0 0 0 0.8 0"/>
<feBlend mode="normal" in2="BackgroundImageFix" result="effect1_dropShadow_918_2809"/>
<feBlend mode="normal" in="SourceGraphic" in2="effect1_dropShadow_918_2809" result="shape"/>
</filter>
<filter id="filter3_d_918_2809" x="276.84" y="56.2676" width="36.4414" height="342.968" filterUnits="userSpaceOnUse" color-interpolation-filters="sRGB">
<feFlood flood-opacity="0" result="BackgroundImageFix"/>
<feColorMatrix in="SourceAlpha" type="matrix" values="0 0 0 0 0 0 0 0 0 0 0 0 0 0 0 0 0 0 127 0" result="hardAlpha"/>
<feOffset/>
<feGaussianBlur stdDeviation="8.01562"/>
<feComposite in2="hardAlpha" operator="out"/>
<feColorMatrix type="matrix" values="0 0 0 0 1 0 0 0 0 0.901961 0 0 0 0 0 0 0 0 0.8 0"/>
<feBlend mode="normal" in2="BackgroundImageFix" result="effect1_dropShadow_918_2809"/>
<feBlend mode="normal" in="SourceGraphic" in2="effect1_dropShadow_918_2809" result="shape"/>
</filter>
<filter id="filter4_d_918_2809" x="53.7488" y="412.071" width="205.877" height="39.4789" filterUnits="userSpaceOnUse" color-interpolation-filters="sRGB">
<feFlood flood-opacity="0" result="BackgroundImageFix"/>
<feColorMatrix in="SourceAlpha" type="matrix" values="0 0 0 0 0 0 0 0 0 0 0 0 0 0 0 0 0 0 127 0" result="hardAlpha"/>
<feOffset/>
<feGaussianBlur stdDeviation="8.775"/>
<feComposite in2="hardAlpha" operator="out"/>
<feColorMatrix type="matrix" values="0 0 0 0 1 0 0 0 0 0.901961 0 0 0 0 0 0 0 0 0.8 0"/>
<feBlend mode="normal" in2="BackgroundImageFix" result="effect1_dropShadow_918_2809"/>
<feBlend mode="normal" in="SourceGraphic" in2="effect1_dropShadow_918_2809" result="shape"/>
</filter>
</defs>
</svg>
