<svg width="64.5" height="66" viewBox="0 0 86 88" fill="none" xmlns="http://www.w3.org/2000/svg">
<g filter="url(#filter0_d_456_4324)">
<path d="M27.7224 35.75L30.4013 59.8604C30.4576 60.3669 30.8857 60.75 31.3952 60.75H54.6051C55.1147 60.75 55.5427 60.3669 55.599 59.8604L58.2779 35.75M27.7224 35.75L26.3335 23.25H59.6668L58.2779 35.75M27.7224 35.75H58.2779" stroke="#0047FF" stroke-width="2.5"/>
<path d="M47.1668 50.6622C47.1668 52.7818 45.3013 54.5 43.0002 54.5C40.699 54.5 38.8335 52.7818 38.8335 50.6622C38.8335 46.1666 43.0002 43.0416 43.0002 43.0416C43.0002 43.0416 47.1668 46.1666 47.1668 50.6622Z" stroke="#0047FF" stroke-width="2.5"/>
</g>
<defs>
<filter id="filter0_d_456_4324" x="-6" y="-5" width="98" height="98" filterUnits="userSpaceOnUse" color-interpolation-filters="sRGB">
<feFlood flood-opacity="0" result="BackgroundImageFix"/>
<feColorMatrix in="SourceAlpha" type="matrix" values="0 0 0 0 0 0 0 0 0 0 0 0 0 0 0 0 0 0 127 0" result="hardAlpha"/>
<feOffset dy="2"/>
<feGaussianBlur stdDeviation="12"/>
<feColorMatrix type="matrix" values="0 0 0 0 0 0 0 0 0 0.278431 0 0 0 0 1 0 0 0 1 0"/>
<feBlend mode="normal" in2="BackgroundImageFix" result="effect1_dropShadow_456_4324"/>
<feBlend mode="normal" in="SourceGraphic" in2="effect1_dropShadow_456_4324" result="shape"/>
</filter>
</defs>
</svg>
