<svg width="35" height="32" viewBox="0 0 35 32" fill="none" xmlns="http://www.w3.org/2000/svg">
    <path d="M21.2227 6.24275L21.1833 6.22707C20.6522 6.03107 20.6313 6.0247 20.3014 5.92914C19.8626 5.81277 19.8626 5.81277 19.6274 5.76376C19.2631 5.69394 19.2631 5.69394 19.0772 5.66576L18.8812 5.63881C18.0343 5.54375 17.3215 5.54252 16.4964 5.63661L16.3879 5.65057C15.795 5.74122 15.1368 5.85981 14.1895 6.21703C14.5905 6.06439 15.1282 5.936 15.7835 5.8478C17.72 5.58736 20.0216 5.76646 21.222 6.24398" fill="url(#paint0_linear_740_7726)"/>
    <path d="M24.2823 8.19466L24.2034 8.12116C23.5608 7.56818 23.493 7.51036 22.9682 7.15436C22.9313 7.13035 22.892 7.1065 22.8502 7.08282C21.4516 6.28802 18.0058 5.9553 15.1537 6.33824C13.8586 6.51244 12.9085 6.80376 12.3882 7.14677C11.7199 7.6184 11.6349 7.67917 11.1699 8.09519L11.0908 8.16869C11.6185 7.67549 12.8595 7.24403 14.6567 7.00246C18.0665 6.54331 22.1865 6.94194 23.8585 7.89208C24.0112 7.97577 24.1535 8.07734 24.2823 8.19466Z" fill="url(#paint1_linear_740_7726)"/>
    <path d="M26.2897 10.8955L26.1368 10.6027C25.944 10.2778 25.6784 9.84955 25.4646 9.53814C25.3325 9.35708 25.1157 9.17774 24.8098 9.00378C22.8796 7.90713 18.1234 7.44701 14.1869 7.97647C11.8885 8.28567 10.3777 8.86364 9.90225 9.50948C9.69034 9.8226 9.41622 10.2462 9.22538 10.5728L9.07129 10.8653C9.45884 10.0997 11.1636 9.40143 13.8535 9.03955C18.1628 8.46011 23.3696 8.9636 25.4827 10.1644C25.8992 10.4015 26.1655 10.648 26.2897 10.8955Z" fill="url(#paint2_linear_740_7726)"/>
    <path d="M27.2437 14.1504L27.1656 13.5837C27.1009 13.275 27.0161 12.8626 26.9348 12.5581C26.8449 12.243 26.5441 11.9272 26.0132 11.6254C23.7558 10.3427 18.1936 9.80471 13.5895 10.4248C10.5383 10.835 8.67381 11.6499 8.42051 12.5275C8.3453 12.834 8.24364 13.2427 8.18558 13.5528L8.10547 14.1188C8.21179 13.166 10.1647 12.2641 13.4597 11.8209C18.2061 11.1839 23.9402 11.7371 26.2675 13.0594C26.8878 13.4119 27.2033 13.7831 27.243 14.1504" fill="url(#paint3_linear_740_7726)"/>
    <path d="M26.9916 17.6105L27.1418 16.9291C27.1808 16.652 27.2398 16.2833 27.2643 16.0047C27.2993 15.5909 26.9865 15.168 26.2844 14.7694C23.9522 13.4439 18.2044 12.8887 13.4467 13.5279C9.98052 13.9942 7.99622 14.9668 8.07657 15.9731C8.12556 16.3825 8.20543 16.9271 8.28406 17.3319L8.34335 17.5786C8.08147 16.5545 10.0337 15.5451 13.5532 15.0715C18.1877 14.4482 23.7869 14.9896 26.0593 16.2811C26.814 16.7098 27.1068 17.1675 26.9916 17.6105Z" fill="url(#paint4_linear_740_7726)"/>
    <path d="M25.5877 20.6705C25.7347 20.4397 25.9358 20.1337 26.0722 19.8961L26.3836 19.2924C26.6019 18.832 26.3503 18.3488 25.559 17.899C23.4213 16.6845 18.1544 16.1751 13.7948 16.7614C10.32 17.2287 8.47071 18.2511 8.94425 19.2617C9.09712 19.5584 9.30314 19.9534 9.47291 20.2418L9.73577 20.6414C9.06355 19.6714 10.7679 18.6624 14.1103 18.2129C18.1122 17.6738 22.9476 18.1423 24.9098 19.2573C25.7138 19.714 25.9108 20.2087 25.5882 20.6705" fill="url(#paint5_linear_740_7726)"/>
    <path d="M23.1689 23.0937C23.4545 22.8798 23.8291 22.5861 24.0998 22.355L24.4344 22.0402C24.8911 21.593 24.7774 21.0981 23.981 20.6458C22.2691 19.6732 18.0511 19.2652 14.5597 19.7349C11.4576 20.1514 9.973 21.1216 10.8814 22.0149C11.0805 22.1989 11.3439 22.4469 11.5514 22.6213C11.7295 22.758 11.9637 22.9447 12.1469 23.0744C10.9921 22.2776 12.2285 21.3593 15.0425 20.982C17.9881 20.5858 21.5466 20.9301 22.9908 21.7506C23.7632 22.1894 23.7747 22.6757 23.1676 23.0937" fill="url(#paint6_linear_740_7726)"/>
    <path d="M14.8407 24.3193C14.4153 24.2197 13.9999 24.0814 13.5996 23.9062C13.6844 23.9529 13.7716 23.9952 13.8608 24.0329L14.1606 24.1554C14.6917 24.3514 14.7123 24.3578 15.0425 24.4536C15.481 24.5697 15.481 24.5697 15.7164 24.6187L15.943 24.6628C15.4862 24.58 15.1001 24.4634 14.8407 24.3181" fill="url(#paint7_linear_740_7726)"/>
    <path d="M14.8291 24.3133C14.0636 23.8782 14.7086 23.3556 16.2696 23.1456C17.8306 22.9356 19.7166 23.1179 20.4832 23.5528C21.2157 23.9693 20.6569 24.4657 19.2399 24.6916C19.957 24.5591 20.4129 24.4483 21.2179 24.1435L21.4518 24.0472C22.3004 23.6885 22.4626 23.2172 21.7311 22.8014C20.6287 22.1747 17.9095 21.9118 15.6603 22.2134C13.4112 22.515 12.4813 23.2693 13.5844 23.8961C13.9861 24.0725 14.4031 24.212 14.8301 24.3126" fill="url(#paint8_linear_740_7726)"/>
    <path d="M17.6545 24.4389C17.2177 24.4996 16.7766 24.5242 16.3358 24.5124C16.6976 24.7141 17.5763 24.7981 18.3039 24.7003C19.0354 24.6023 19.3375 24.3573 18.9788 24.1532C18.6202 23.9491 17.7368 23.8651 17.0056 23.9631C16.2743 24.0611 15.972 24.3061 16.3306 24.5102C16.7728 24.5229 17.2152 24.4994 17.6535 24.4399" fill="url(#paint9_linear_740_7726)"/>
    <path d="M16.5697 6.11811C16.2716 5.94856 16.5232 5.74447 17.1332 5.66264C17.7432 5.58081 18.4781 5.65186 18.7767 5.8214C19.0753 5.99095 18.8237 6.19504 18.2147 6.27712C17.6057 6.35919 16.8769 6.28839 16.5756 6.12056C16.9034 6.04509 17.3421 5.94905 17.6741 5.89515C17.3021 5.94539 16.9339 6.01987 16.5717 6.11811" fill="url(#paint10_linear_740_7726)"/>
    <path d="M19.0611 5.61643C19.4092 5.67278 19.4227 5.67498 19.6111 5.71443C20.0244 5.80778 20.0489 5.81219 20.285 5.87907C20.7855 6.03318 20.8377 6.04911 21.1682 6.17725L21.2076 6.19268C21.3268 6.2392 21.4426 6.29389 21.5543 6.35635C22.6057 6.95368 21.7199 7.67179 19.5756 7.96016C17.4416 8.24731 14.8657 8.00059 13.8047 7.40939C14.2054 7.13716 14.626 6.89531 15.0629 6.68588C15.7792 7.08475 17.5175 7.25136 18.958 7.05756C20.4053 6.86302 21.0031 6.3784 20.2936 5.97512C19.9803 5.79749 19.4661 5.66543 18.8649 5.58972L19.0609 5.61643" fill="url(#paint11_linear_740_7726)"/>
    <path d="M13.7892 7.40034C13.0592 6.98554 13.2633 6.51243 14.1741 6.1655C14.6572 5.98983 15.3186 5.74899 16.3725 5.59929L16.481 5.58533C14.8213 5.81196 14.5087 6.2662 14.9205 6.59231C14.9627 6.62415 15.0068 6.65336 15.0526 6.67977C14.6141 6.8882 14.1918 7.12906 13.7892 7.40034Z" fill="url(#paint12_linear_740_7726)"/>
    <path d="M24.1887 8.07153L24.2676 8.14504C25.2002 9.02339 23.7514 9.98259 20.6971 10.3932C17.3034 10.8497 13.2069 10.4574 11.5195 9.51732C11.8305 9.13375 12.1672 8.77177 12.5274 8.4339C13.9389 9.22013 17.3651 9.54844 20.2034 9.16647C22.9717 8.79431 24.1622 7.8841 22.9535 7.10449C23.5834 7.55163 23.7526 7.67168 24.1887 8.07153Z" fill="url(#paint13_linear_740_7726)"/>
    <path d="M11.4939 9.50277C10.7029 9.05343 10.6015 8.56097 11.075 8.11849L11.1541 8.04498C11.8205 7.4751 11.8604 7.44104 12.3724 7.09558C11.7467 7.50597 11.7423 7.98765 12.5057 8.42156C12.1444 8.7586 11.8063 9.11975 11.4939 9.50253" fill="url(#paint14_linear_740_7726)"/>
    <path d="M26.121 10.553L26.2739 10.847C26.778 11.8527 24.9483 12.8742 21.49 13.3392C17.2012 13.9159 12.0241 13.4203 9.8916 12.232C10.0861 11.7694 10.3116 11.3206 10.5665 10.8884C12.5146 11.9738 17.2436 12.4268 21.1612 11.9C24.4738 11.4543 26.1506 10.4503 25.4483 9.48962C25.6587 9.80323 25.9383 10.2229 26.1205 10.5539" fill="url(#paint15_linear_740_7726)"/>
    <path d="M9.86014 12.2136C9.06593 11.7618 8.82193 11.2767 9.05515 10.8156L9.20899 10.523C9.40326 10.1987 9.67102 9.77088 9.88611 9.45972C9.54706 9.92008 9.73447 10.4152 10.5377 10.8714C10.2821 11.3031 10.0557 11.7515 9.86014 12.2136Z" fill="url(#paint16_linear_740_7726)"/>
    <path d="M27.1497 13.534L27.2268 14.1007C27.3359 15.1116 25.353 16.0917 21.8717 16.5599C17.149 17.1952 11.4475 16.649 9.09863 15.3405C9.14869 14.8336 9.23539 14.331 9.35806 13.8366C11.6363 15.1057 17.1672 15.6354 21.7487 15.0195C25.2697 14.5459 27.2117 13.5326 26.9177 12.5084C26.9912 12.8149 27.0987 13.2226 27.1487 13.534" fill="url(#paint17_linear_740_7726)"/>
    <path d="M9.06458 15.3215C8.35415 14.9172 8.04254 14.4884 8.08958 14.069L8.16968 13.5025C8.23534 13.1938 8.32181 12.7817 8.40437 12.4772C8.27551 12.9233 8.5636 13.3854 9.32499 13.8181C9.20186 14.3122 9.11482 14.8147 9.06458 15.3215Z" fill="url(#paint18_linear_740_7726)"/>
    <path d="M27.1262 16.8791L26.9761 17.5605C26.7443 18.4508 24.8622 19.2814 21.7672 19.6977C17.1552 20.3178 11.5879 19.7847 9.2947 18.5069C9.18306 18.0299 9.10934 17.5447 9.07422 17.056C11.4294 18.3678 17.1447 18.9156 21.8794 18.2786C25.2061 17.8312 27.1679 16.9176 27.2492 15.9552C27.2147 16.2328 27.1804 16.605 27.1267 16.8794" fill="url(#paint19_linear_740_7726)"/>
    <path d="M9.26068 18.4883C8.71463 18.1779 8.41013 17.8525 8.32733 17.5286L8.26804 17.2819C8.19283 16.8767 8.10636 16.333 8.06055 15.9233C8.09092 16.298 8.40743 16.6772 9.04045 17.0367C9.07523 17.5256 9.14896 18.0111 9.26093 18.4883" fill="url(#paint20_linear_740_7726)"/>
    <path d="M26.0562 19.8472C25.9131 20.081 25.726 20.3951 25.5719 20.6217C25.1064 21.2869 23.5631 21.8842 21.2003 22.202C17.2177 22.7376 12.4098 22.2772 10.4294 21.173C10.1824 20.7976 9.96749 20.4019 9.78711 19.9903C11.9446 21.1909 17.1817 21.6938 21.52 21.1102C24.2654 20.741 25.9962 20.0254 26.3676 19.2426L26.0562 19.8472Z" fill="url(#paint21_linear_740_7726)"/>
    <path d="M10.401 21.1567C10.0786 20.9741 9.85227 20.783 9.71949 20.5914L9.45835 20.1901C9.29397 19.8995 9.07692 19.5105 8.92969 19.2101C9.05071 19.4676 9.32165 19.7246 9.75599 19.9696C9.93729 20.3818 10.1531 20.7779 10.401 21.1537" fill="url(#paint22_linear_740_7726)"/>
    <path d="M24.0852 22.3058C23.8115 22.5349 23.4399 22.8326 23.1528 23.0445C22.6249 23.4081 21.6286 23.7202 20.2582 23.9045C17.327 24.2987 13.7886 23.9598 12.3322 23.1476C11.9804 22.8987 11.6516 22.6187 11.3496 22.3112C13.0772 23.2738 17.2714 23.6754 20.7457 23.2082C22.6138 22.957 23.8953 22.5052 24.4203 21.9907L24.0857 22.3058" fill="url(#paint23_linear_740_7726)"/>
    <path d="M12.3091 23.1361C12.2446 23.0995 12.1855 23.0626 12.1318 23.0254C11.9524 22.8904 11.7102 22.7142 11.5362 22.5723C11.3331 22.3925 11.0605 22.1558 10.8662 21.9659C11.0035 22.0955 11.1569 22.2068 11.3226 22.2972C11.626 22.6054 11.9561 22.8862 12.3091 23.1361Z" fill="url(#paint24_linear_740_7726)"/>
    <path d="M21.2021 24.094C20.6925 24.2841 20.2114 24.4637 19.2239 24.6421C19.16 24.6521 19.0943 24.6619 19.0267 24.671C17.9978 24.8094 16.8263 24.7773 15.9287 24.6147L15.7024 24.5706C15.2903 24.4777 15.2656 24.4725 15.0284 24.4052C14.528 24.2513 14.4758 24.2351 14.1453 24.1072L13.8457 23.9847C15.0801 24.512 17.5598 24.7156 19.6391 24.4358C20.3971 24.3339 21.0049 24.181 21.436 23.9987L21.2021 24.0952" fill="url(#paint25_linear_740_7726)"/>
    <g style="mix-blend-mode:hard-light">
        <path fill-rule="evenodd" clip-rule="evenodd" d="M32.0302 13.4105C30.8742 13.0838 29.232 12.7952 27.3129 12.5682L27.3912 11.9065C29.3245 12.1352 31.0063 12.4288 32.2113 12.7693C32.8113 12.9389 33.3118 13.1251 33.6693 13.3309C33.8479 13.4337 34.0064 13.5501 34.1237 13.6848C34.2426 13.8213 34.3333 13.994 34.3333 14.1976C34.3333 14.5295 34.1116 14.7839 33.8626 14.9675C33.6048 15.1575 33.2458 15.3269 32.8154 15.4804C31.9507 15.7889 30.718 16.0609 29.2171 16.2873C26.2102 16.741 22.0678 17.0202 17.5001 17.0202C12.9325 17.0202 8.79008 16.741 5.78317 16.2873C4.2823 16.0609 3.0496 15.7889 2.18486 15.4804C1.75451 15.3269 1.39544 15.1575 1.13766 14.9675C0.888681 14.7839 0.666992 14.5295 0.666992 14.1976C0.666992 13.9953 0.756641 13.8234 0.87438 13.6875C0.990504 13.5534 1.14749 13.4374 1.32418 13.3352C1.67777 13.1305 2.17265 12.9451 2.76547 12.7764C3.95623 12.4376 5.6181 12.145 7.52847 11.9161L7.60772 12.5777C5.71151 12.8048 4.0894 13.0924 2.94783 13.4173C2.37448 13.5805 1.94109 13.7479 1.65797 13.9118C1.5163 13.9938 1.42782 14.0662 1.37806 14.1236C1.3541 14.1513 1.34275 14.1714 1.33761 14.1832C1.33511 14.189 1.33409 14.1927 1.33367 14.1946C1.33327 14.1965 1.33327 14.1973 1.33327 14.1976C1.33327 14.2094 1.34243 14.2906 1.53304 14.4311C1.71485 14.5652 2.00411 14.7085 2.4087 14.8528C3.21385 15.14 4.39753 15.4044 5.88257 15.6285C8.84749 16.0758 12.9551 16.3539 17.5001 16.3539C22.0452 16.3539 26.1528 16.0758 29.1177 15.6285C30.6027 15.4044 31.7864 15.14 32.5916 14.8528C32.9962 14.7085 33.2854 14.5652 33.4672 14.4311C33.6578 14.2906 33.667 14.2094 33.667 14.1976C33.667 14.1973 33.667 14.1964 33.6666 14.1945C33.6661 14.1925 33.6651 14.1887 33.6625 14.1828C33.6573 14.1707 33.6456 14.1504 33.6212 14.1223C33.5706 14.0641 33.4806 13.9911 33.337 13.9084C33.0499 13.7432 32.6107 13.5746 32.0302 13.4105Z" fill="url(#paint26_linear_740_7726)"/>
    </g>
    <g style="mix-blend-mode:hard-light">
        <path fill-rule="evenodd" clip-rule="evenodd" d="M29.7467 6.70016C28.2183 7.10201 26.2809 7.76728 24.4801 8.46869L24.2383 7.8478C26.0523 7.14127 28.0154 6.4664 29.5773 6.05574C30.3559 5.85103 31.049 5.70811 31.5793 5.66319C31.8425 5.6409 32.0852 5.64085 32.2856 5.67867C32.4727 5.71399 32.7085 5.79909 32.8282 6.02398C32.9842 6.317 32.908 6.6457 32.7745 6.92474C32.6362 7.21366 32.3988 7.53188 32.091 7.86961C31.4726 8.54824 30.5123 9.36762 29.2938 10.2728C26.8527 12.0862 23.3272 14.2791 19.2952 16.4255C15.2631 18.5718 11.4753 20.2718 8.60783 21.2843C7.17656 21.7897 5.9606 22.1288 5.05234 22.2628C4.60032 22.3295 4.20379 22.3487 3.88693 22.3021C3.5809 22.257 3.2657 22.1367 3.10974 21.8437C3.01471 21.6651 3.01309 21.4713 3.05314 21.2959C3.09264 21.123 3.17675 20.9469 3.28467 20.7736C3.50062 20.4267 3.8504 20.0306 4.29443 19.6031C5.18635 18.7444 6.51587 17.7052 8.09469 16.6055L8.47548 17.1523C6.90837 18.2438 5.61159 19.2599 4.75652 20.0831C4.32706 20.4966 4.02317 20.848 3.85026 21.1258C3.76373 21.2647 3.71961 21.3702 3.70269 21.4443C3.69454 21.4799 3.69395 21.503 3.69497 21.5159C3.69547 21.5221 3.69633 21.5259 3.69687 21.5278C3.69738 21.5296 3.69777 21.5304 3.69789 21.5306C3.70342 21.541 3.74968 21.6084 3.98397 21.6429C4.20744 21.6758 4.5301 21.6663 4.95506 21.6036C5.80074 21.4788 6.96984 21.156 8.38601 20.656C11.2134 19.6577 14.97 17.973 18.9821 15.8373C22.9942 13.7016 26.4895 11.526 28.8965 9.73787C30.1021 8.84227 31.0228 8.05267 31.5986 7.4208C31.8879 7.10328 32.0759 6.84087 32.1734 6.63711C32.2514 6.47428 32.2524 6.39139 32.2461 6.35658C32.2319 6.35054 32.2058 6.3417 32.162 6.33343C32.0477 6.31185 31.8738 6.30695 31.6355 6.32713C31.1627 6.36718 30.5133 6.49861 29.7467 6.70016Z" fill="url(#paint27_linear_740_7726)"/>
    </g>
    <g style="mix-blend-mode:hard-light">
        <path fill-rule="evenodd" clip-rule="evenodd" d="M30.2405 20.6725C29.142 19.5363 27.6136 18.1724 26.1206 16.9453L26.5436 16.4305C28.0475 17.6666 29.5969 19.0483 30.7194 20.2093C31.279 20.7881 31.7429 21.3227 32.0416 21.7631C32.1899 21.9817 32.3088 22.1934 32.3738 22.3866C32.4346 22.5671 32.4759 22.8144 32.3383 23.0289C32.1592 23.3083 31.8353 23.4027 31.5266 23.4229C31.207 23.4437 30.8133 23.3924 30.3682 23.2894C29.4738 23.0822 28.2893 22.6458 26.9036 22.0262C24.1275 20.7849 20.4897 18.7838 16.6446 16.3181C12.7996 13.8524 9.46318 11.3812 7.17683 9.37616C6.03562 8.37533 5.14476 7.4809 4.58331 6.75443C4.3039 6.39289 4.09305 6.0565 3.97863 5.75734C3.86813 5.4684 3.8188 5.13461 3.99796 4.85518C4.10714 4.68491 4.27538 4.58862 4.44788 4.53771C4.61802 4.4875 4.81274 4.47467 5.01668 4.48395C5.42482 4.50251 5.94144 4.61365 6.53153 4.79165C7.71683 5.14917 9.27373 5.79997 11.0054 6.63856L10.715 7.23827C8.99619 6.4059 7.47547 5.77234 6.33913 5.42958C5.76842 5.25743 5.31321 5.16444 4.98641 5.14958C4.82288 5.14214 4.70935 5.15527 4.63645 5.17679C4.60135 5.18714 4.58096 5.19791 4.57024 5.2051C4.56504 5.20859 4.56216 5.2112 4.56077 5.21259C4.55943 5.21393 4.55897 5.21464 4.55884 5.21485C4.55248 5.22476 4.51634 5.2981 4.60094 5.5193C4.68164 5.73029 4.84779 6.00706 5.11048 6.34696C5.63324 7.02337 6.48695 7.88491 7.61612 8.87518C9.87055 10.8523 13.1782 13.3037 17.0043 15.7572C20.8303 18.2107 24.4382 20.194 27.1755 21.4179C28.5466 22.031 29.6857 22.4474 30.5185 22.6402C30.937 22.7371 31.2578 22.7727 31.4832 22.758C31.6634 22.7462 31.7362 22.7066 31.7634 22.684C31.7617 22.6686 31.7567 22.6416 31.7424 22.5993C31.7053 22.4891 31.6245 22.335 31.4902 22.1371C31.2239 21.7444 30.7914 21.2424 30.2405 20.6725Z" fill="url(#paint28_linear_740_7726)"/>
    </g>
    <g style="mix-blend-mode:hard-light">
        <path fill-rule="evenodd" clip-rule="evenodd" d="M12.1388 28.1675C12.4347 26.615 12.9652 24.6364 13.5412 22.7915L12.9052 22.593C12.325 24.4513 11.7867 26.4563 11.4843 28.0428C11.3336 28.8336 11.2387 29.535 11.2303 30.0671C11.2261 30.3313 11.2428 30.5735 11.2943 30.7707C11.3424 30.955 11.4434 31.1844 11.676 31.2884C11.979 31.4239 12.3017 31.3253 12.5709 31.1729C12.8496 31.0151 13.1508 30.7564 13.4665 30.4261C14.101 29.7625 14.8524 28.7481 15.6716 27.4702C17.3129 24.91 19.2583 21.242 21.1223 17.0717C22.9864 12.9015 24.422 9.00556 25.235 6.07513C25.6408 4.61242 25.8955 3.37596 25.9668 2.46057C26.0023 2.00502 25.9942 1.60808 25.9259 1.29515C25.86 0.992919 25.7182 0.686718 25.4152 0.551251C25.2306 0.468706 25.0371 0.480411 24.8649 0.532415C24.6951 0.583705 24.5252 0.679731 24.3597 0.799304C24.0286 1.0386 23.6574 1.41479 23.2615 1.88718C22.4662 2.83604 21.5209 4.23391 20.5323 5.88467L21.1039 6.22702C22.0851 4.5885 23.0097 3.22488 23.7721 2.31521C24.155 1.85834 24.4848 1.531 24.7499 1.33939C24.8826 1.24352 24.9848 1.19225 25.0575 1.17028C25.0926 1.1597 25.1155 1.15752 25.1284 1.15766C25.1347 1.15772 25.1385 1.15833 25.1405 1.15873C25.1423 1.15911 25.1431 1.15946 25.1433 1.15956C25.1541 1.16436 25.2245 1.20589 25.275 1.43727C25.3232 1.65796 25.3359 1.98053 25.3026 2.40882C25.2362 3.26113 24.9945 4.44972 24.593 5.89699C23.7914 8.78651 22.3689 12.6502 20.5141 16.7998C18.6592 20.9494 16.7291 24.5862 15.1107 27.1106C14.3001 28.375 13.5757 29.3477 12.985 29.9656C12.6881 30.2761 12.4392 30.4817 12.2427 30.593C12.0856 30.6819 12.003 30.6887 11.9678 30.6847C11.9608 30.671 11.9502 30.6456 11.9389 30.6024C11.9096 30.4899 11.8927 30.3167 11.8965 30.0776C11.9039 29.6031 11.9904 28.9462 12.1388 28.1675Z" fill="url(#paint29_linear_740_7726)"/>
    </g>
    <ellipse opacity="0.6" cx="12.2823" cy="26.072" rx="0.956115" ry="0.956176" fill="url(#paint30_radial_740_7726)"/>
    <ellipse cx="5.11057" cy="15.5565" rx="1.88889" ry="1.88901" fill="url(#paint31_radial_740_7726)"/>
    <ellipse cx="29.921" cy="9.27113" rx="2.22472" ry="2.22486" fill="url(#paint32_radial_740_7726)"/>
    <ellipse cx="27.3338" cy="21.8906" rx="1.11111" ry="1.11118" fill="url(#paint33_radial_740_7726)"/>
    <defs>
        <linearGradient id="paint0_linear_740_7726" x1="14.0964" y1="5.88755" x2="21.6118" y2="5.59658" gradientUnits="userSpaceOnUse">
            <stop stop-color="#AE8A12"/>
            <stop offset="0.286458" stop-color="#9D1B3B"/>
            <stop offset="0.53125" stop-color="#532997"/>
            <stop offset="0.723958" stop-color="#0D8471"/>
            <stop offset="1" stop-color="#00678B"/>
        </linearGradient>
        <linearGradient id="paint1_linear_740_7726" x1="10.9163" y1="7.13396" x2="25.0247" y2="6.78969" gradientUnits="userSpaceOnUse">
            <stop stop-color="#AE8A12"/>
            <stop offset="0.286458" stop-color="#9D1B3B"/>
            <stop offset="0.53125" stop-color="#532997"/>
            <stop offset="0.723958" stop-color="#0D8471"/>
            <stop offset="1" stop-color="#00678B"/>
        </linearGradient>
        <linearGradient id="paint2_linear_740_7726" x1="8.84353" y1="9.2435" x2="27.262" y2="8.86684" gradientUnits="userSpaceOnUse">
            <stop stop-color="#AE8A12"/>
            <stop offset="0.286458" stop-color="#9D1B3B"/>
            <stop offset="0.53125" stop-color="#532997"/>
            <stop offset="0.723958" stop-color="#0D8471"/>
            <stop offset="1" stop-color="#00678B"/>
        </linearGradient>
        <linearGradient id="paint3_linear_740_7726" x1="7.85232" y1="12.054" x2="28.3265" y2="11.6873" gradientUnits="userSpaceOnUse">
            <stop stop-color="#AE8A12"/>
            <stop offset="0.286458" stop-color="#9D1B3B"/>
            <stop offset="0.53125" stop-color="#532997"/>
            <stop offset="0.723958" stop-color="#0D8471"/>
            <stop offset="1" stop-color="#00678B"/>
        </linearGradient>
        <linearGradient id="paint4_linear_740_7726" x1="7.82035" y1="15.3221" x2="28.3538" y2="14.9842" gradientUnits="userSpaceOnUse">
            <stop stop-color="#AE8A12"/>
            <stop offset="0.286458" stop-color="#9D1B3B"/>
            <stop offset="0.53125" stop-color="#532997"/>
            <stop offset="0.723958" stop-color="#0D8471"/>
            <stop offset="1" stop-color="#00678B"/>
        </linearGradient>
        <linearGradient id="paint5_linear_740_7726" x1="8.63845" y1="18.485" x2="27.4552" y2="18.1879" gradientUnits="userSpaceOnUse">
            <stop stop-color="#AE8A12"/>
            <stop offset="0.286458" stop-color="#9D1B3B"/>
            <stop offset="0.53125" stop-color="#532997"/>
            <stop offset="0.723958" stop-color="#0D8471"/>
            <stop offset="1" stop-color="#00678B"/>
        </linearGradient>
        <linearGradient id="paint6_linear_740_7726" x1="10.4309" y1="21.2233" x2="25.5002" y2="21.0006" gradientUnits="userSpaceOnUse">
            <stop stop-color="#AE8A12"/>
            <stop offset="0.286458" stop-color="#9D1B3B"/>
            <stop offset="0.53125" stop-color="#532997"/>
            <stop offset="0.723958" stop-color="#0D8471"/>
            <stop offset="1" stop-color="#00678B"/>
        </linearGradient>
        <linearGradient id="paint7_linear_740_7726" x1="13.5686" y1="24.2646" x2="16.0761" y2="24.2357" gradientUnits="userSpaceOnUse">
            <stop stop-color="#AE8A12"/>
            <stop offset="0.286458" stop-color="#9D1B3B"/>
            <stop offset="0.53125" stop-color="#532997"/>
            <stop offset="0.723958" stop-color="#0D8471"/>
            <stop offset="1" stop-color="#00678B"/>
        </linearGradient>
        <linearGradient id="paint8_linear_740_7726" x1="13.0001" y1="23.3215" x2="22.7104" y2="23.1953" gradientUnits="userSpaceOnUse">
            <stop stop-color="#AE8A12"/>
            <stop offset="0.286458" stop-color="#9D1B3B"/>
            <stop offset="0.53125" stop-color="#532997"/>
            <stop offset="0.723958" stop-color="#0D8471"/>
            <stop offset="1" stop-color="#00678B"/>
        </linearGradient>
        <linearGradient id="paint9_linear_740_7726" x1="16.1407" y1="24.3101" x2="19.2972" y2="24.2677" gradientUnits="userSpaceOnUse">
            <stop stop-color="#AE8A12"/>
            <stop offset="0.286458" stop-color="#9D1B3B"/>
            <stop offset="0.53125" stop-color="#532997"/>
            <stop offset="0.723958" stop-color="#0D8471"/>
            <stop offset="1" stop-color="#00678B"/>
        </linearGradient>
        <linearGradient id="paint10_linear_740_7726" x1="16.4118" y1="5.95203" x2="19.0419" y2="5.91673" gradientUnits="userSpaceOnUse">
            <stop stop-color="#FDCB24"/>
            <stop offset="0.286458" stop-color="#E73C66"/>
            <stop offset="0.53125" stop-color="#8D5CDD"/>
            <stop offset="0.723958" stop-color="#26F2D3"/>
            <stop offset="1" stop-color="#00BDFF"/>
        </linearGradient>
        <linearGradient id="paint11_linear_740_7726" x1="13.6963" y1="6.76932" x2="22.4619" y2="6.66182" gradientUnits="userSpaceOnUse">
            <stop stop-color="#FDCB24"/>
            <stop offset="0.286458" stop-color="#E73C66"/>
            <stop offset="0.53125" stop-color="#8D5CDD"/>
            <stop offset="0.723958" stop-color="#26F2D3"/>
            <stop offset="1" stop-color="#00BDFF"/>
        </linearGradient>
        <linearGradient id="paint12_linear_740_7726" x1="13.3052" y1="6.44507" x2="16.6593" y2="6.42348" gradientUnits="userSpaceOnUse">
            <stop stop-color="#FDCB24"/>
            <stop offset="0.286458" stop-color="#E73C66"/>
            <stop offset="0.53125" stop-color="#8D5CDD"/>
            <stop offset="0.723958" stop-color="#26F2D3"/>
            <stop offset="1" stop-color="#00BDFF"/>
        </linearGradient>
        <linearGradient id="paint13_linear_740_7726" x1="11.3472" y1="8.75251" x2="25.2865" y2="8.55793" gradientUnits="userSpaceOnUse">
            <stop stop-color="#FDCB24"/>
            <stop offset="0.286458" stop-color="#E73C66"/>
            <stop offset="0.53125" stop-color="#8D5CDD"/>
            <stop offset="0.723958" stop-color="#26F2D3"/>
            <stop offset="1" stop-color="#00BDFF"/>
        </linearGradient>
        <linearGradient id="paint14_linear_740_7726" x1="10.7673" y1="8.23583" x2="12.6033" y2="8.23095" gradientUnits="userSpaceOnUse">
            <stop stop-color="#FDCB24"/>
            <stop offset="0.286458" stop-color="#E73C66"/>
            <stop offset="0.53125" stop-color="#8D5CDD"/>
            <stop offset="0.723958" stop-color="#26F2D3"/>
            <stop offset="1" stop-color="#00BDFF"/>
        </linearGradient>
        <linearGradient id="paint15_linear_740_7726" x1="9.67381" y1="11.4271" x2="27.2897" y2="11.1627" gradientUnits="userSpaceOnUse">
            <stop stop-color="#FDCB24"/>
            <stop offset="0.286458" stop-color="#E73C66"/>
            <stop offset="0.53125" stop-color="#8D5CDD"/>
            <stop offset="0.723958" stop-color="#26F2D3"/>
            <stop offset="1" stop-color="#00BDFF"/>
        </linearGradient>
        <linearGradient id="paint16_linear_740_7726" x1="8.94998" y1="10.7642" x2="10.6269" y2="10.7606" gradientUnits="userSpaceOnUse">
            <stop stop-color="#FDCB24"/>
            <stop offset="0.286458" stop-color="#E73C66"/>
            <stop offset="0.53125" stop-color="#8D5CDD"/>
            <stop offset="0.723958" stop-color="#26F2D3"/>
            <stop offset="1" stop-color="#00BDFF"/>
        </linearGradient>
        <linearGradient id="paint17_linear_740_7726" x1="8.85878" y1="14.5531" x2="28.2584" y2="14.2493" gradientUnits="userSpaceOnUse">
            <stop stop-color="#FDCB24"/>
            <stop offset="0.286458" stop-color="#E73C66"/>
            <stop offset="0.53125" stop-color="#8D5CDD"/>
            <stop offset="0.723958" stop-color="#26F2D3"/>
            <stop offset="1" stop-color="#00BDFF"/>
        </linearGradient>
        <linearGradient id="paint18_linear_740_7726" x1="8.06856" y1="13.8245" x2="9.39557" y2="13.8223" gradientUnits="userSpaceOnUse">
            <stop stop-color="#FDCB24"/>
            <stop offset="0.286458" stop-color="#E73C66"/>
            <stop offset="0.53125" stop-color="#8D5CDD"/>
            <stop offset="0.723958" stop-color="#26F2D3"/>
            <stop offset="1" stop-color="#00BDFF"/>
        </linearGradient>
        <linearGradient id="paint19_linear_740_7726" x1="8.83381" y1="17.8505" x2="28.2782" y2="17.5212" gradientUnits="userSpaceOnUse">
            <stop stop-color="#FDCB24"/>
            <stop offset="0.286458" stop-color="#E73C66"/>
            <stop offset="0.53125" stop-color="#8D5CDD"/>
            <stop offset="0.723958" stop-color="#26F2D3"/>
            <stop offset="1" stop-color="#00BDFF"/>
        </linearGradient>
        <linearGradient id="paint20_linear_740_7726" x1="8.04467" y1="17.1383" x2="9.32925" y2="17.1361" gradientUnits="userSpaceOnUse">
            <stop stop-color="#FDCB24"/>
            <stop offset="0.286458" stop-color="#E73C66"/>
            <stop offset="0.53125" stop-color="#8D5CDD"/>
            <stop offset="0.723958" stop-color="#26F2D3"/>
            <stop offset="1" stop-color="#00BDFF"/>
        </linearGradient>
        <linearGradient id="paint21_linear_740_7726" x1="9.56779" y1="20.7502" x2="27.3046" y2="20.4058" gradientUnits="userSpaceOnUse">
            <stop stop-color="#FDCB24"/>
            <stop offset="0.286458" stop-color="#E73C66"/>
            <stop offset="0.53125" stop-color="#8D5CDD"/>
            <stop offset="0.723958" stop-color="#26F2D3"/>
            <stop offset="1" stop-color="#00BDFF"/>
        </linearGradient>
        <linearGradient id="paint22_linear_740_7726" x1="8.91023" y1="20.1321" x2="10.4847" y2="20.1277" gradientUnits="userSpaceOnUse">
            <stop stop-color="#FDCB24"/>
            <stop offset="0.286458" stop-color="#E73C66"/>
            <stop offset="0.53125" stop-color="#8D5CDD"/>
            <stop offset="0.723958" stop-color="#26F2D3"/>
            <stop offset="1" stop-color="#00BDFF"/>
        </linearGradient>
        <linearGradient id="paint23_linear_740_7726" x1="11.1767" y1="22.9751" x2="25.1566" y2="22.6474" gradientUnits="userSpaceOnUse">
            <stop stop-color="#FDCB24"/>
            <stop offset="0.286458" stop-color="#E73C66"/>
            <stop offset="0.53125" stop-color="#8D5CDD"/>
            <stop offset="0.723958" stop-color="#26F2D3"/>
            <stop offset="1" stop-color="#00BDFF"/>
        </linearGradient>
        <linearGradient id="paint24_linear_740_7726" x1="10.8471" y1="22.5202" x2="12.3912" y2="22.5131" gradientUnits="userSpaceOnUse">
            <stop stop-color="#FDCB24"/>
            <stop offset="0.286458" stop-color="#E73C66"/>
            <stop offset="0.53125" stop-color="#8D5CDD"/>
            <stop offset="0.723958" stop-color="#26F2D3"/>
            <stop offset="1" stop-color="#00BDFF"/>
        </linearGradient>
        <linearGradient id="paint25_linear_740_7726" x1="13.7453" y1="24.3511" x2="21.8572" y2="24.0543" gradientUnits="userSpaceOnUse">
            <stop stop-color="#FDCB24"/>
            <stop offset="0.286458" stop-color="#E73C66"/>
            <stop offset="0.53125" stop-color="#8D5CDD"/>
            <stop offset="0.723958" stop-color="#26F2D3"/>
            <stop offset="1" stop-color="#00BDFF"/>
        </linearGradient>
        <linearGradient id="paint26_linear_740_7726" x1="17.5001" y1="16.6871" x2="17.5001" y2="11.7429" gradientUnits="userSpaceOnUse">
            <stop stop-color="#FFE500"/>
            <stop offset="1" stop-color="#FFE500" stop-opacity="0"/>
        </linearGradient>
        <linearGradient id="paint27_linear_740_7726" x1="19.1386" y1="16.1314" x2="16.8155" y2="11.7671" gradientUnits="userSpaceOnUse">
            <stop stop-color="#FFE500"/>
            <stop offset="1" stop-color="#FFE500" stop-opacity="0"/>
        </linearGradient>
        <linearGradient id="paint28_linear_740_7726" x1="16.8245" y1="16.0377" x2="19.4933" y2="11.8758" gradientUnits="userSpaceOnUse">
            <stop stop-color="#FFE500"/>
            <stop offset="1" stop-color="#FFE500" stop-opacity="0"/>
        </linearGradient>
        <linearGradient id="paint29_linear_740_7726" x1="20.8182" y1="16.9358" x2="16.1067" y2="15.108" gradientUnits="userSpaceOnUse">
            <stop stop-color="#FFE500"/>
            <stop offset="1" stop-color="#FFE500" stop-opacity="0"/>
        </linearGradient>
        <radialGradient id="paint30_radial_740_7726" cx="0" cy="0" r="1" gradientUnits="userSpaceOnUse" gradientTransform="translate(11.6953 25.3114) rotate(45.0018) scale(2.46498)">
            <stop stop-color="#FDCB24"/>
            <stop offset="0.286458" stop-color="#E73C66"/>
            <stop offset="0.53125" stop-color="#8D5CDD"/>
            <stop offset="0.723958" stop-color="#26F2D3"/>
            <stop offset="1" stop-color="#00BDFF"/>
        </radialGradient>
        <radialGradient id="paint31_radial_740_7726" cx="0" cy="0" r="1" gradientUnits="userSpaceOnUse" gradientTransform="translate(3.95094 14.0538) rotate(45.0018) scale(4.86979)">
            <stop stop-color="#FDCB24"/>
            <stop offset="0.286458" stop-color="#E73C66"/>
            <stop offset="0.53125" stop-color="#8D5CDD"/>
            <stop offset="0.723958" stop-color="#26F2D3"/>
            <stop offset="1" stop-color="#00BDFF"/>
        </radialGradient>
        <radialGradient id="paint32_radial_740_7726" cx="0" cy="0" r="1" gradientUnits="userSpaceOnUse" gradientTransform="translate(28.5552 7.50132) rotate(45.0018) scale(5.7356)">
            <stop stop-color="#FDCB24"/>
            <stop offset="0.286458" stop-color="#E73C66"/>
            <stop offset="0.53125" stop-color="#8D5CDD"/>
            <stop offset="0.723958" stop-color="#26F2D3"/>
            <stop offset="1" stop-color="#00BDFF"/>
        </radialGradient>
        <radialGradient id="paint33_radial_740_7726" cx="0" cy="0" r="1" gradientUnits="userSpaceOnUse" gradientTransform="translate(26.6516 21.0067) rotate(45.0018) scale(2.86458)">
            <stop stop-color="#FDCB24"/>
            <stop offset="0.286458" stop-color="#E73C66"/>
            <stop offset="0.53125" stop-color="#8D5CDD"/>
            <stop offset="0.723958" stop-color="#26F2D3"/>
            <stop offset="1" stop-color="#00BDFF"/>
        </radialGradient>
    </defs>
</svg>
