<svg width="66" height="68" viewBox="0 0 66 68" fill="none" xmlns="http://www.w3.org/2000/svg">
<g filter="url(#filter0_d_456_7155)">
<path d="M25.6667 29L26.9012 40.1104C26.9574 40.6169 27.3855 41 27.895 41H38.105C38.6145 41 39.0426 40.6169 39.0988 40.1104L40.3333 29M25.6667 29L25 23H41L40.3333 29M25.6667 29H40.3333" stroke="#2260FF" stroke-width="1.5"/>
<path d="M35 36.1579C35 37.1753 34.1046 38 33 38C31.8954 38 31 37.1753 31 36.1579C31 34 33 32.5 33 32.5C33 32.5 35 34 35 36.1579Z" stroke="#2260FF" stroke-width="1.5"/>
</g>
<defs>
<filter id="filter0_d_456_7155" x="-3" y="-2" width="72" height="72" filterUnits="userSpaceOnUse" color-interpolation-filters="sRGB">
<feFlood flood-opacity="0" result="BackgroundImageFix"/>
<feColorMatrix in="SourceAlpha" type="matrix" values="0 0 0 0 0 0 0 0 0 0 0 0 0 0 0 0 0 0 127 0" result="hardAlpha"/>
<feOffset dy="2"/>
<feGaussianBlur stdDeviation="12"/>
<feColorMatrix type="matrix" values="0 0 0 0 0 0 0 0 0 0.278431 0 0 0 0 1 0 0 0 1 0"/>
<feBlend mode="normal" in2="BackgroundImageFix" result="effect1_dropShadow_456_7155"/>
<feBlend mode="normal" in="SourceGraphic" in2="effect1_dropShadow_456_7155" result="shape"/>
</filter>
</defs>
</svg>
