<svg width="74" height="76" viewBox="0 0 74 76" fill="none" xmlns="http://www.w3.org/2000/svg">
    <g filter="url(#filter0_d_740_5415)">
        <path d="M27.2224 32L28.9013 47.1104C28.9576 47.6169 29.3857 48 29.8952 48H44.1051C44.6147 48 45.0427 47.6169 45.099 47.1104L46.7779 32M27.2224 32L26.3335 24H47.6668L46.7779 32M27.2224 32H46.7779" stroke="#2260FF" stroke-width="2.5"/>
        <path d="M39.6668 41.5439C39.6668 42.9004 38.4729 44.0001 37.0002 44.0001C35.5274 44.0001 34.3335 42.9004 34.3335 41.5439C34.3335 38.6667 37.0002 36.6667 37.0002 36.6667C37.0002 36.6667 39.6668 38.6667 39.6668 41.5439Z" stroke="#2260FF" stroke-width="2.5"/>
    </g>
    <defs>
        <filter id="filter0_d_740_5415" x="-3" y="-2" width="80" height="80" filterUnits="userSpaceOnUse" color-interpolation-filters="sRGB">
            <feFlood flood-opacity="0" result="BackgroundImageFix"/>
            <feColorMatrix in="SourceAlpha" type="matrix" values="0 0 0 0 0 0 0 0 0 0 0 0 0 0 0 0 0 0 127 0" result="hardAlpha"/>
            <feOffset dy="2"/>
            <feGaussianBlur stdDeviation="12"/>
            <feColorMatrix type="matrix" values="0 0 0 0 0 0 0 0 0 0.278431 0 0 0 0 1 0 0 0 1 0"/>
            <feBlend mode="normal" in2="BackgroundImageFix" result="effect1_dropShadow_740_5415"/>
            <feBlend mode="normal" in="SourceGraphic" in2="effect1_dropShadow_740_5415" result="shape"/>
        </filter>
    </defs>
</svg>

