<svg width="349" height="97" viewBox="0 0 909 251" fill="none" xmlns="http://www.w3.org/2000/svg">
<mask id="mask0_488_843" style="mask-type:alpha" maskUnits="userSpaceOnUse" x="127" y="12" width="195" height="196">
<circle cx="224.834" cy="110.013" r="97.0192" fill="url(#paint0_radial_488_843)"/>
</mask>
<g mask="url(#mask0_488_843)">
<g filter="url(#filter0_iiii_488_843)">
<mask id="mask1_488_843" style="mask-type:alpha" maskUnits="userSpaceOnUse" x="129" y="15" width="190" height="190">
<path fill-rule="evenodd" clip-rule="evenodd" d="M129.863 109.796C129.863 125.206 132.241 131.45 137.354 144.684C170.737 140.774 209.561 129.202 248.332 109.796C249.774 109.074 251.194 108.364 252.596 107.663C273.583 97.1694 290.39 88.7653 312.246 75.3236C298.475 40.217 264.29 15.3599 224.3 15.3599C172.144 15.3599 129.863 57.6405 129.863 109.796ZM318.733 109.797C318.733 161.952 276.452 204.233 224.297 204.233C201.448 204.233 189.682 200.323 170.133 187.391C205.791 175.781 245.689 155.884 279.306 133.556C287.193 128.317 293.549 123.844 299.622 119.57C305.824 115.205 311.732 111.047 318.676 106.492C318.714 107.589 318.733 108.69 318.733 109.797Z" fill="#2AEED3"/>
</mask>
<g mask="url(#mask1_488_843)">
<ellipse cx="77.2287" cy="29.5617" rx="77.2287" ry="29.5617" transform="matrix(0.525725 -0.850654 0.878265 0.478174 87.459 121.335)" fill="#FDCB24"/>
<ellipse cx="41.7235" cy="15.971" rx="41.7235" ry="15.971" transform="matrix(0.525725 -0.850654 0.878265 0.478174 94.79 80.4253)" fill="#BBE73C"/>
<ellipse cx="110.386" cy="40.2777" rx="110.386" ry="40.2777" transform="matrix(0.525725 -0.850654 0.878265 0.478174 100.432 166.279)" fill="#E73C66"/>
<path fill-rule="evenodd" clip-rule="evenodd" d="M202.063 18.3022C203.47 33.8041 195.552 58.7273 179.988 83.911C164.386 109.156 145.212 128.011 130.16 134.517C135.296 115.967 144.925 94.2791 158.46 72.3778C172.052 50.3846 187.402 31.7082 202.063 18.3022Z" fill="#EC6827"/>
<ellipse cx="121.272" cy="41.9235" rx="121.272" ry="41.9235" transform="matrix(0.525725 -0.850654 0.878265 0.478174 136.502 198.584)" fill="#615DA6"/>
<path opacity="0.5" fill-rule="evenodd" clip-rule="evenodd" d="M261.768 23.915C260.941 45.9302 249.439 78.1761 229.216 110.898C208.919 143.74 184.703 169.186 164.711 180.731C168.537 157.528 180.898 126.75 200.258 95.424C219.705 63.9584 242.146 38.5206 261.768 23.915Z" fill="#882168"/>
<ellipse cx="110.386" cy="40.2777" rx="110.386" ry="40.2777" transform="matrix(-0.525726 0.850654 -0.878265 -0.478174 372.567 62.4307)" fill="#4AB8A7"/>
<path opacity="0.5" fill-rule="evenodd" clip-rule="evenodd" d="M309.92 47.064C306.742 70.5889 294.149 102.753 273.901 135.517C254.056 167.627 231.093 193.459 211.19 207.909C210.972 185.89 222.587 152.113 243.786 117.812C264.638 84.0722 289.625 58.1386 309.92 47.064Z" fill="#09566E"/>
<ellipse cx="77.8038" cy="29.7818" rx="77.8038" ry="29.7818" transform="matrix(-0.525726 0.850654 -0.878265 -0.478174 385.838 106.886)" fill="#6DC8E8"/>
<path opacity="0.5" fill-rule="evenodd" clip-rule="evenodd" d="M343.014 93.5215C337.926 112.218 328.228 134.166 314.529 156.332C300.773 178.59 285.218 197.45 270.397 210.889C268.891 195.287 276.87 170.07 292.618 144.589C308.404 119.046 327.82 99.996 343.014 93.5215Z" fill="#278CA2"/>
<ellipse cx="41.7235" cy="15.971" rx="41.7235" ry="15.971" transform="matrix(0.525725 -0.850654 0.878265 0.478174 309.083 200.529)" fill="#6D79E8"/>
</g>
</g>
</g>
<path d="M431.742 126.271H407.496L433.472 77.06H463.331L489.405 126.271H465.126L461.504 118.275H435.365L431.742 126.271ZM448.483 89.1668L440.978 105.81H455.923L448.483 89.1668Z" fill="white"/>
<path d="M564.004 126.271H541.357L514.761 100.099L515.479 103.297L515.772 126.271H493.321V77.06H515.968L542.629 103.33L541.911 100.034L541.552 77.06H564.004V126.271Z" fill="white"/>
<path d="M645.13 77.06L617.522 109.595V126.271H594.059V109.595L566.419 77.06H593.472L605.807 95.9219L618.11 77.06H645.13Z" fill="white"/>
<path d="M684.267 126.271L670.822 77.06H695.624L699.474 107.963L699.833 112.858H699.898L700.747 107.963L709.949 77.06H734.261V77.1252L743.464 107.931L744.312 112.826L744.704 107.931L748.587 77.0273H773.388L759.943 126.271H730.835L723.003 98.5651L722.089 94.845L721.208 98.5651L713.376 126.271H684.267Z" fill="white"/>
<path d="M790.52 126.271H766.274L792.25 77.06H822.109L848.183 126.271H823.904L820.282 118.275H794.143L790.52 126.271ZM807.261 89.1668L799.755 105.81H814.701L807.261 89.1668Z" fill="white"/>
<path d="M908.946 77.06L881.338 109.595V126.271H857.875V109.595L830.235 77.06H857.287L869.623 95.9219L881.925 77.06H908.946Z" fill="white"/>
<path d="M481.769 157.094V158.171C481.769 164.404 479.158 169.103 474.851 172.236C470.51 175.369 464.506 176.968 457.718 176.968H436.964V189.303H413.533V140.06H456.054C463.396 140.06 469.825 141.626 474.426 144.531C478.995 147.435 481.769 151.71 481.769 157.094ZM457.849 158.563V158.073C457.849 156.344 457.229 155.202 456.348 154.451C455.467 153.701 454.357 153.407 453.345 153.407H436.964V163.621H453.411C454.096 163.621 455.238 163.197 456.185 162.316C457.098 161.435 457.849 160.227 457.849 158.53V158.563Z" fill="white"/>
<path d="M540.019 189.271H487.512V140.093L511.041 140.06V175.956H540.019V189.271Z" fill="white"/>
<path d="M565.799 189.271H541.552L567.528 140.06H597.388L623.461 189.271H599.182L595.56 181.275H569.421L565.799 189.271ZM582.54 152.167L575.034 168.81H589.98L582.54 152.167Z" fill="white"/>
<path d="M698.06 189.271H675.413L648.817 163.099L649.535 166.297L649.829 189.271H627.377V140.06H650.025L676.686 166.33L675.968 163.034L675.609 140.06H698.06V189.271Z" fill="white"/>
<path d="M765.872 189.271H708.013V140.06H765.545V153.407H731.15V157.943H762.086V171.322H731.15V175.956H765.872V189.271Z" fill="white"/>
<path d="M834.825 153.407H814.267V189.271H790.771V153.407H770.245V140.06H834.825V153.407Z" fill="white"/>
<path fill-rule="evenodd" clip-rule="evenodd" d="M465.451 60.0428C464.713 60.8772 463.637 61.3909 462.461 61.3909H449.218C448.012 61.3909 446.87 60.845 446.113 59.9061C445.515 59.1638 445.207 58.239 445.231 57.3018C444.923 57.3777 444.602 57.4179 444.271 57.4179H431.398C430.423 57.4179 429.514 57.0644 428.811 56.4649L428.532 58.0812C428.201 59.9938 426.542 61.3909 424.601 61.3909H411.553C410.349 61.3909 409.21 60.8474 408.453 59.9119C407.696 58.9765 407.401 57.7491 407.652 56.5719L413.903 27.2033C414.295 25.3618 415.922 24.0452 417.805 24.0452H436.734C437.911 24.0452 439.027 24.5645 439.785 25.4642C440.507 26.321 440.833 27.4397 440.69 28.5458L441.682 33.6506L446.192 26.007C446.937 24.7433 448.302 24.0093 449.729 24.0463C449.76 24.0456 449.791 24.0452 449.822 24.0452H468.732C469.874 24.0452 470.957 24.534 471.712 25.3823C472.449 24.5544 473.521 24.0452 474.692 24.0452H488.714C489.917 24.0452 491.056 24.5887 491.814 25.5242C492.375 26.2179 492.682 27.0722 492.701 27.9476C494.127 26.8886 495.831 25.9887 497.824 25.273L497.853 25.2628C501.452 24.002 505.995 23.3052 511.675 23.3052C516.461 23.3052 520.395 23.8331 523.481 24.9088C526.495 25.9528 528.969 27.5977 530.519 30.0141C532.272 28.0312 534.718 26.417 537.904 25.273L537.933 25.2628C541.532 24.002 546.075 23.3052 551.755 23.3052C556.541 23.3052 560.475 23.8331 563.561 24.9088C566.448 25.9088 568.839 27.4602 570.398 29.7127L570.932 27.2033C571.324 25.3618 572.95 24.0452 574.833 24.0452H588.855C590.059 24.0452 591.198 24.5887 591.955 25.5242C592.712 26.4596 593.007 27.687 592.756 28.8642L592.501 30.064C593.696 29.0111 595.024 28.0862 596.47 27.288C601.59 24.4615 608.089 23.3247 615.147 23.3247C619.851 23.3247 624.261 23.8564 627.969 25.085C631.603 26.289 634.831 28.269 636.922 31.2803L637.79 27.2033C638.182 25.3618 639.809 24.0452 641.691 24.0452H655.402C656.585 24.0452 657.706 24.5701 658.464 25.4781C658.727 25.7933 658.937 26.1434 659.09 26.5148L665.372 34.2954L666.564 27.3581C666.893 25.4441 668.553 24.0452 670.495 24.0452H684.089C685.293 24.0452 686.432 24.5891 687.19 25.5251C687.947 26.4612 688.241 27.6892 687.989 28.8666L681.718 58.2352C681.325 60.0756 679.7 61.3909 677.818 61.3909H664.302C663.1 61.3909 661.961 60.8483 661.204 59.9143L654.153 51.2183L652.963 58.0834C652.632 59.9949 650.973 61.3909 649.033 61.3909H635.44C634.236 61.3909 633.097 60.8474 632.34 59.9119C631.582 58.9765 631.288 57.7491 631.539 56.5719L631.776 55.4577C630.641 56.4289 629.389 57.2912 628.032 58.0439C622.912 60.9019 616.444 62.1309 609.343 62.1309C604.635 62.1309 600.231 61.6219 596.525 60.4173C592.794 59.2109 589.503 57.2103 587.406 54.0643C587.403 54.059 587.399 54.0536 587.395 54.0483L586.505 58.2327C586.113 60.0743 584.486 61.3909 582.604 61.3909H568.581C567.378 61.3909 566.239 60.8474 565.481 59.9119C565.061 59.3923 564.783 58.7827 564.662 58.1416C564.418 58.2995 564.167 58.4528 563.908 58.6013C559.622 61.0646 553.608 62.1114 546.243 62.1114C539.227 62.1114 533.608 60.9136 529.825 58.3131C528.836 57.6329 527.961 56.8488 527.229 55.9629C526.284 56.9572 525.15 57.8415 523.828 58.6013C519.542 61.0646 513.528 62.1114 506.163 62.1114C499.147 62.1114 493.528 60.9136 489.745 58.3131C488.646 57.5573 487.688 56.6733 486.91 55.6638L486.363 58.2327C485.971 60.0743 484.345 61.3909 482.462 61.3909H468.44C467.294 61.3909 466.206 60.8979 465.451 60.0428ZM488.889 47.4116C488.636 48.6016 488.63 49.7372 488.889 50.7944C488.939 50.9993 488.999 51.2012 489.069 51.4001C489.554 52.7777 490.52 54.0057 492.005 55.0264C494.809 56.9544 499.464 58.1229 506.163 58.1229C513.272 58.1229 518.452 57.0907 521.841 55.1432C523.285 54.3135 524.4 53.3142 525.204 52.1527C526.227 50.6756 526.747 48.9363 526.802 46.9503C526.806 46.8323 526.807 46.7134 526.807 46.5936H526.827C526.827 46.3924 526.82 46.1943 526.807 45.9994C526.767 45.3974 526.663 44.8261 526.488 44.2888C526.309 43.7407 526.056 43.2282 525.721 42.7547C525.493 42.4318 525.226 42.127 524.918 41.8417C524.785 41.7198 524.643 41.6017 524.494 41.4872C523.139 40.4486 521.115 39.7133 518.238 39.3099L509.241 38.044C508.684 37.9571 508.202 37.8702 507.792 37.7816C507.282 37.6716 506.883 37.5589 506.592 37.4403C506.066 37.226 505.793 36.9144 505.793 36.486C505.793 36.0965 505.988 35.668 506.65 35.3564C506.887 35.2451 507.185 35.1462 507.56 35.0651C508.023 34.9647 508.601 34.8915 509.32 34.8555C509.44 34.8496 509.564 34.8446 509.691 34.8407C509.708 34.8402 509.725 34.8398 509.741 34.8393C509.947 34.8336 510.163 34.8306 510.39 34.8306C512.746 34.8306 514.226 35.0643 515.103 35.5317C515.769 35.9038 516.09 36.3992 516.154 37.0083C516.171 37.1644 516.17 37.3279 516.154 37.4987H528.093C528.263 36.4662 528.27 35.4687 528.093 34.5283C528.07 34.4089 528.044 34.2905 528.016 34.1731C527.961 33.9485 527.896 33.7274 527.818 33.5102C527.672 33.0983 527.485 32.7003 527.255 32.3183C526.34 30.7992 524.704 29.5528 522.172 28.6764C519.66 27.8 516.213 27.2937 511.675 27.2937C506.3 27.2937 502.229 27.9558 499.172 29.027C496.134 30.1176 494.167 31.6172 492.94 33.2531C491.693 34.889 491.187 36.6807 491.187 38.3751C491.187 40.0694 491.693 41.6469 492.862 42.8933C493.031 43.0769 493.215 43.2537 493.414 43.423C494.568 44.4033 496.232 45.1319 498.49 45.464L510.487 47.2363C511.597 47.47 512.201 48.0153 512.201 48.6774C512.201 49.0085 512.201 49.4759 511.597 49.8654C511.305 50.0797 510.838 50.2744 510.214 50.3913C510.15 50.4048 510.084 50.4178 510.015 50.4302C509.948 50.4422 509.879 50.4536 509.807 50.4645C509.539 50.5052 509.238 50.5377 508.902 50.5613C508.49 50.5902 508.025 50.6055 507.507 50.6055C505.307 50.6055 503.904 50.2549 503.125 49.6317C502.547 49.1947 502.265 48.6659 502.191 48.0896C502.162 47.8697 502.164 47.6428 502.191 47.4116H488.889ZM532.141 34.6596C531.588 35.7682 531.32 36.9128 531.274 38.0235C531.269 38.1411 531.267 38.2583 531.267 38.3751C531.267 38.8434 531.306 39.3027 531.386 39.7487C531.597 40.9161 532.096 41.9914 532.942 42.8933C533.111 43.0769 533.295 43.2537 533.494 43.423C534.648 44.4033 536.312 45.1319 538.57 45.464L550.567 47.2363C551.677 47.47 552.281 48.0153 552.281 48.6774C552.281 49.0085 552.281 49.4759 551.677 49.8654C551.385 50.0797 550.917 50.2744 550.294 50.3913C550.23 50.4048 550.164 50.4178 550.095 50.4302C550.028 50.4422 549.959 50.4536 549.887 50.4645C549.619 50.5052 549.318 50.5377 548.982 50.5613C548.57 50.5902 548.105 50.6055 547.587 50.6055C545.386 50.6055 543.984 50.2549 543.205 49.6317C542.627 49.1947 542.345 48.6659 542.27 48.0896C542.242 47.8697 542.244 47.6428 542.27 47.4116H528.969C528.775 48.3242 528.726 49.2049 528.831 50.0427C528.863 50.2973 528.909 50.548 528.969 50.7944C529.019 50.9993 529.079 51.2012 529.149 51.4001C529.272 51.7502 529.427 52.0907 529.613 52.4206C530.159 53.3885 530.978 54.2651 532.085 55.0264C534.889 56.9544 539.544 58.1229 546.243 58.1229C553.352 58.1229 558.532 57.0907 561.921 55.1432C563.706 54.1175 564.988 52.8326 565.802 51.3026C566.534 49.9274 566.887 48.3543 566.887 46.5936H566.907C566.907 46.4478 566.903 46.3037 566.896 46.1612C566.894 46.1071 566.891 46.0532 566.887 45.9995C566.806 44.7834 566.464 43.6923 565.801 42.7547C565.572 42.4318 565.306 42.127 564.998 41.8417C564.865 41.7198 564.723 41.6017 564.574 41.4872C563.218 40.4486 561.195 39.7133 558.318 39.3099L549.32 38.044C548.764 37.9571 548.282 37.8702 547.872 37.7816C547.362 37.6716 546.963 37.5589 546.672 37.4403C546.146 37.226 545.873 36.9144 545.873 36.486C545.873 36.0965 546.068 35.668 546.73 35.3564C546.967 35.2451 547.265 35.1462 547.64 35.0651C548.102 34.9647 548.681 34.8915 549.4 34.8555C549.52 34.8496 549.644 34.8446 549.771 34.8407C549.788 34.8402 549.804 34.8398 549.821 34.8393C550.027 34.8336 550.243 34.8306 550.47 34.8306C552.826 34.8306 554.306 35.0643 555.183 35.5317C555.849 35.9038 556.17 36.3992 556.234 37.0083C556.251 37.1643 556.25 37.3279 556.234 37.4987H568.172C568.343 36.4662 568.35 35.4687 568.172 34.5283C568.107 34.1807 568.016 33.841 567.898 33.5102C567.752 33.0983 567.565 32.7003 567.335 32.3183C566.42 30.7992 564.784 29.5528 562.252 28.6764C559.74 27.8 556.293 27.2937 551.755 27.2937C546.38 27.2937 542.309 27.9558 539.252 29.027C536.214 30.1176 534.247 31.6172 533.02 33.2531C532.67 33.7116 532.379 34.1822 532.141 34.6596ZM568.581 57.4023H582.604L588.855 28.0338H574.833L568.581 57.4023ZM589.614 43.5407C589.607 43.5679 589.601 43.5951 589.595 43.6222C589.522 43.9479 589.461 44.2675 589.411 44.5811C589.243 45.6233 589.198 46.5991 589.267 47.511C589.392 49.1625 589.893 50.6045 590.725 51.8519C592.166 54.0136 594.561 55.5911 597.755 56.6233C600.93 57.6555 604.883 58.1424 609.343 58.1424C616.042 58.1424 621.768 56.9739 626.092 54.559C629.777 52.5169 632.444 49.569 633.862 45.6549C634.108 44.9776 634.316 44.2714 634.485 43.536L634.855 41.9196C635.066 40.9978 635.185 40.1224 635.217 39.2923C635.3 37.1233 634.788 35.2645 633.745 33.701C632.304 31.5393 629.889 29.9228 626.715 28.8712C623.54 27.8195 619.587 27.3132 615.147 27.3132C608.447 27.3132 602.702 28.4038 598.398 30.7798C594.749 32.7944 592.079 35.7191 590.651 39.6845C590.395 40.3958 590.179 41.1406 590.004 41.9196L589.595 43.536H589.615C589.614 43.5376 589.614 43.5391 589.614 43.5407ZM635.44 57.4023H649.033L651.409 43.6918L651.448 41.5495L664.302 57.4023H677.818L684.089 28.0338H670.495L668.139 41.7443L668.1 44.0229L655.363 28.248L655.402 28.0338H641.691L638.556 42.7635L638.555 42.7665L638.21 44.3886L638.209 44.3941L635.44 57.4023ZM449.802 28.0727L449.627 28.0338L441.136 42.4259L439.695 44.8408L439.325 42.4259L436.637 28.5985L436.734 28.0338H417.805L411.553 57.4023H424.601L427.464 40.8289L427.503 38.5698L431.398 53.4294H444.271V53.3904L452.782 40.9653L449.218 57.4023H462.461L468.732 28.0338H449.822L449.802 28.0727ZM474.692 28.0338H488.714L482.462 57.4023H468.44L474.692 28.0338ZM613.002 45.7141C613.02 45.7085 613.038 45.7031 613.055 45.6978C613.923 45.4347 614.7 45.026 615.255 44.5101L615.282 44.4845C615.79 44.0213 616.217 43.3891 616.414 42.3916L616.416 42.3838L616.59 41.5152C616.59 41.5137 616.59 41.5122 616.591 41.5107C616.694 40.9869 616.67 40.6796 616.643 40.5335C616.622 40.4167 616.592 40.3586 616.569 40.3234C616.449 40.1694 616.14 39.9041 615.493 39.6696C614.83 39.4493 614.098 39.3644 613.608 39.3644C613.099 39.3644 612.278 39.4496 611.43 39.7084C610.514 40.002 609.755 40.415 609.259 40.8838L609.235 40.9065C608.686 41.4174 608.247 42.0901 608.054 43.0523C608.049 43.0801 608.043 43.1077 608.037 43.1353L607.859 43.9335C607.772 44.4352 607.799 44.7318 607.826 44.8767C607.851 45.0085 607.887 45.0723 607.915 45.1131C608.056 45.306 608.364 45.5655 608.929 45.757C609.649 46.0009 610.383 46.0911 610.823 46.0911H610.843C611.281 46.0911 612.1 46.0011 613.002 45.7141ZM604.669 47.431C603.948 46.4183 603.598 45.0356 603.948 43.1465L604.143 42.2701C604.513 40.42 605.409 39.0178 606.519 37.9856C607.59 36.9729 608.954 36.3107 610.239 35.9017C611.505 35.5122 612.732 35.3759 613.608 35.3759C614.465 35.3759 615.653 35.5122 616.802 35.9017C617.951 36.3107 619.061 36.9729 619.801 37.9856C620.541 39.0178 620.872 40.42 620.502 42.2896L620.327 43.166C619.957 45.0356 619.081 46.4183 617.971 47.431C616.86 48.4632 615.497 49.1254 614.212 49.5149C612.926 49.9239 611.7 50.0797 610.843 50.0797H610.823C609.966 50.0797 608.798 49.9239 607.649 49.5344C606.5 49.1449 605.409 48.4632 604.669 47.431Z" fill="url(#paint1_linear_488_843)"/>
<path d="M315.812 -0.000487246C313.637 5.61255 309.655 9.52786 303.968 11.8441C309.655 14.1604 313.637 18.0757 315.812 23.6888C317.988 18.0757 321.97 14.1604 327.657 11.8441C321.97 9.52786 317.988 5.61255 315.812 -0.000487246Z" fill="url(#paint2_angular_488_843)"/>
<path d="M315.812 -0.000487246C313.637 5.61255 309.655 9.52786 303.968 11.8441C309.655 14.1604 313.637 18.0757 315.812 23.6888C317.988 18.0757 321.97 14.1604 327.657 11.8441C321.97 9.52786 317.988 5.61255 315.812 -0.000487246Z" fill="url(#paint3_angular_488_843)"/>
<path d="M136.403 216.69C133.252 224.819 127.484 230.49 119.248 233.845C127.484 237.2 133.252 242.87 136.403 251C139.554 242.87 145.322 237.2 153.558 233.845C145.322 230.49 139.554 224.819 136.403 216.69Z" fill="url(#paint4_angular_488_843)"/>
<path d="M136.403 216.69C133.252 224.819 127.484 230.49 119.248 233.845C127.484 237.2 133.252 242.87 136.403 251C139.554 242.87 145.322 237.2 153.558 233.845C145.322 230.49 139.554 224.819 136.403 216.69Z" fill="url(#paint5_angular_488_843)"/>
<circle cx="333.853" cy="199.535" r="21.2721" fill="url(#paint6_radial_488_843)"/>
<circle cx="95.0711" cy="60.2996" r="15.075" fill="url(#paint7_radial_488_843)"/>
<g filter="url(#filter1_dd_488_843)">
<path d="M53.7738 172.84C42.9003 150.753 84.1722 110.162 118.846 102.402V116.728C103.754 122.1 86.6508 140.378 95.9211 153.738C102.549 163.289 119.72 162.413 135.687 160.304C189.231 154.469 272.278 115.161 344.885 66.0532L350.269 74.3097C297.263 115.496 211.151 161.391 144.122 179.405C102.45 190.603 63.9959 193.603 53.7738 172.84Z" fill="#FFE500"/>
</g>
<ellipse cx="365.573" cy="56.7612" rx="11.0126" ry="10.9106" fill="#050A17"/>
<path d="M324.104 60.1459L332.426 64.9145L332.426 64.9145C331.104 67.2742 329.974 69.7343 329.045 72.2718L328.511 73.7356L339.471 87.9155L341.031 87.7888L341.032 87.7883C343.739 87.5507 346.424 87.0999 349.06 86.4396L351.553 95.6563L351.553 95.6557C351.602 95.8412 351.742 95.9894 351.925 96.0506C352.109 96.1113 352.31 96.0765 352.462 95.9577L358.704 91.1953L358.704 91.1954C360.764 89.6238 362.058 87.2605 362.266 84.6898L362.535 81.1447C373.74 74.9799 385.813 63.1862 391.662 40.6259C391.978 39.482 391.738 38.2573 391.013 37.3145C390.289 36.3723 389.162 35.8207 387.968 35.8227C364.518 35.6438 349.926 44.1974 341.045 53.3316L337.533 52.6915C334.985 52.2194 332.355 52.8388 330.291 54.3957L324.05 59.1582C323.877 59.2694 323.777 59.4639 323.788 59.6685C323.799 59.8726 323.92 60.0552 324.104 60.1465L324.104 60.1459ZM361.262 51.3881C362.712 50.2855 364.543 49.7998 366.352 50.037C368.162 50.2742 369.802 51.2151 370.913 52.6528C372.024 54.0906 372.514 55.9083 372.276 57.7057C372.039 59.503 371.092 61.134 369.644 62.2396C368.197 63.3452 366.368 63.8359 364.557 63.6023C362.747 63.3693 361.104 62.4325 359.99 60.9969C358.873 59.5571 358.379 57.7347 358.617 55.9316C358.856 54.1285 359.807 52.4937 361.262 51.3881Z" fill="url(#paint8_linear_488_843)"/>
<defs>
<filter id="filter0_iiii_488_843" x="126.783" y="15.3599" width="198.11" height="195.033" filterUnits="userSpaceOnUse" color-interpolation-filters="sRGB">
<feFlood flood-opacity="0" result="BackgroundImageFix"/>
<feBlend mode="normal" in="SourceGraphic" in2="BackgroundImageFix" result="shape"/>
<feColorMatrix in="SourceAlpha" type="matrix" values="0 0 0 0 0 0 0 0 0 0 0 0 0 0 0 0 0 0 127 0" result="hardAlpha"/>
<feOffset/>
<feGaussianBlur stdDeviation="0.769994"/>
<feComposite in2="hardAlpha" operator="arithmetic" k2="-1" k3="1"/>
<feColorMatrix type="matrix" values="0 0 0 0 1 0 0 0 0 1 0 0 0 0 1 0 0 0 0.8 0"/>
<feBlend mode="normal" in2="shape" result="effect1_innerShadow_488_843"/>
<feColorMatrix in="SourceAlpha" type="matrix" values="0 0 0 0 0 0 0 0 0 0 0 0 0 0 0 0 0 0 127 0" result="hardAlpha"/>
<feOffset dx="-3.07998" dy="3.07998"/>
<feGaussianBlur stdDeviation="12.3199"/>
<feComposite in2="hardAlpha" operator="arithmetic" k2="-1" k3="1"/>
<feColorMatrix type="matrix" values="0 0 0 0 1 0 0 0 0 1 0 0 0 0 1 0 0 0 0.8 0"/>
<feBlend mode="normal" in2="effect1_innerShadow_488_843" result="effect2_innerShadow_488_843"/>
<feColorMatrix in="SourceAlpha" type="matrix" values="0 0 0 0 0 0 0 0 0 0 0 0 0 0 0 0 0 0 127 0" result="hardAlpha"/>
<feOffset dx="3.07998"/>
<feGaussianBlur stdDeviation="9.23993"/>
<feComposite in2="hardAlpha" operator="arithmetic" k2="-1" k3="1"/>
<feColorMatrix type="matrix" values="0 0 0 0 0.220833 0 0 0 0 0.220833 0 0 0 0 0.220833 0 0 0 0.65 0"/>
<feBlend mode="multiply" in2="effect2_innerShadow_488_843" result="effect3_innerShadow_488_843"/>
<feColorMatrix in="SourceAlpha" type="matrix" values="0 0 0 0 0 0 0 0 0 0 0 0 0 0 0 0 0 0 127 0" result="hardAlpha"/>
<feOffset dx="6.15995" dy="6.15995"/>
<feGaussianBlur stdDeviation="15.3999"/>
<feComposite in2="hardAlpha" operator="arithmetic" k2="-1" k3="1"/>
<feColorMatrix type="matrix" values="0 0 0 0 0.2 0 0 0 0 0.199167 0 0 0 0 0.199217 0 0 0 0.2 0"/>
<feBlend mode="multiply" in2="effect3_innerShadow_488_843" result="effect4_innerShadow_488_843"/>
</filter>
<filter id="filter1_dd_488_843" x="0.314342" y="14.3676" width="401.641" height="225.464" filterUnits="userSpaceOnUse" color-interpolation-filters="sRGB">
<feFlood flood-opacity="0" result="BackgroundImageFix"/>
<feColorMatrix in="SourceAlpha" type="matrix" values="0 0 0 0 0 0 0 0 0 0 0 0 0 0 0 0 0 0 127 0" result="hardAlpha"/>
<feOffset/>
<feGaussianBlur stdDeviation="25.8428"/>
<feColorMatrix type="matrix" values="0 0 0 0 1 0 0 0 0 0.898039 0 0 0 0 0 0 0 0 1 0"/>
<feBlend mode="normal" in2="BackgroundImageFix" result="effect1_dropShadow_488_843"/>
<feColorMatrix in="SourceAlpha" type="matrix" values="0 0 0 0 0 0 0 0 0 0 0 0 0 0 0 0 0 0 127 0" result="hardAlpha"/>
<feOffset/>
<feGaussianBlur stdDeviation="8.61428"/>
<feComposite in2="hardAlpha" operator="out"/>
<feColorMatrix type="matrix" values="0 0 0 0 1 0 0 0 0 0.898039 0 0 0 0 0 0 0 0 0.5 0"/>
<feBlend mode="normal" in2="effect1_dropShadow_488_843" result="effect2_dropShadow_488_843"/>
<feBlend mode="normal" in="SourceGraphic" in2="effect2_dropShadow_488_843" result="shape"/>
</filter>
<radialGradient id="paint0_radial_488_843" cx="0" cy="0" r="1" gradientUnits="userSpaceOnUse" gradientTransform="translate(198.654 39.1739) rotate(60.14) scale(203.858 263.525)">
<stop offset="0.361059" stop-color="white"/>
<stop offset="1" stop-color="#D9D9D9" stop-opacity="0"/>
</radialGradient>
<linearGradient id="paint1_linear_488_843" x1="435.288" y1="41.5975" x2="696.899" y2="34.3226" gradientUnits="userSpaceOnUse">
<stop stop-color="#FDCB24"/>
<stop offset="0.286458" stop-color="#E73C66"/>
<stop offset="0.53125" stop-color="#8D5CDD"/>
<stop offset="0.723958" stop-color="#26F2D3"/>
<stop offset="1" stop-color="#00BDFF"/>
</linearGradient>
<radialGradient id="paint2_angular_488_843" cx="0" cy="0" r="1" gradientUnits="userSpaceOnUse" gradientTransform="translate(315.812 11.8441) rotate(90) scale(11.8446)">
<stop stop-color="#E73C66"/>
<stop offset="1" stop-color="#E73C66" stop-opacity="0"/>
</radialGradient>
<radialGradient id="paint3_angular_488_843" cx="0" cy="0" r="1" gradientUnits="userSpaceOnUse" gradientTransform="translate(315.812 11.8441) rotate(90) scale(11.8446)">
<stop stop-color="#E73C66"/>
<stop offset="1" stop-color="#E73C66" stop-opacity="0"/>
</radialGradient>
<radialGradient id="paint4_angular_488_843" cx="0" cy="0" r="1" gradientUnits="userSpaceOnUse" gradientTransform="translate(136.403 233.845) rotate(90) scale(17.1549)">
<stop stop-color="#945AD5"/>
<stop offset="1" stop-color="#945AD5" stop-opacity="0"/>
</radialGradient>
<radialGradient id="paint5_angular_488_843" cx="0" cy="0" r="1" gradientUnits="userSpaceOnUse" gradientTransform="translate(136.403 233.845) rotate(90) scale(17.1549)">
<stop stop-color="#945AD5"/>
<stop offset="1" stop-color="#945AD5" stop-opacity="0"/>
</radialGradient>
<radialGradient id="paint6_radial_488_843" cx="0" cy="0" r="1" gradientUnits="userSpaceOnUse" gradientTransform="translate(327.082 185.207) rotate(58.1726) scale(36.7529)">
<stop offset="0.234967" stop-color="#4DBAD7"/>
<stop offset="1" stop-color="#4DBAD7" stop-opacity="0"/>
</radialGradient>
<radialGradient id="paint7_radial_488_843" cx="0" cy="0" r="1" gradientUnits="userSpaceOnUse" gradientTransform="translate(90.2725 50.1456) rotate(58.1726) scale(26.0458)">
<stop offset="0.234967" stop-color="#FDCB24"/>
<stop offset="1" stop-color="#FDCB24" stop-opacity="0"/>
</radialGradient>
<linearGradient id="paint8_linear_488_843" x1="392.265" y1="36.6109" x2="332.071" y2="80.9033" gradientUnits="userSpaceOnUse">
<stop stop-color="#FFE500"/>
<stop offset="1" stop-color="#FFE500"/>
</linearGradient>
</defs>
</svg>
