<svg width="157" height="53" viewBox="0 0 157 53" fill="none" xmlns="http://www.w3.org/2000/svg">
<path opacity="0.5" fill-rule="evenodd" clip-rule="evenodd" d="M2.26953 52.8805L0.937988 4.97021L25.7724 4.28001L31.8634 36.8816L36.1342 3.99202L60.7148 3.30887L62.0463 51.2191L47.3877 51.6265L46.7158 27.4519L43.0681 51.7466L21.3112 52.3513L16.3198 28.2967L16.9916 52.4713L2.26953 52.8805ZM14.2359 10.4432L22.5952 50.7279L41.6959 50.1971L47.8048 9.51025L48.93 49.996L60.4158 49.6768L59.1724 4.9394L37.5335 5.54079L32.1455 47.0332L24.4613 5.9041L2.56851 6.51256L3.81187 51.25L15.3611 50.929L14.2359 10.4432ZM62.2093 51.2146L76.2362 2.87749L99.6839 2.22582L115.35 46.981L114.095 1.8253L133.323 1.29092C140.446 1.09293 145.988 2.11908 149.805 4.97942C153.712 7.90764 155.48 12.4942 155.649 18.5792C155.817 24.6062 154.302 29.2518 150.562 32.3746C146.911 35.4234 141.438 36.7559 134.314 36.9539L129.809 37.0791L130.149 49.3264L100.718 50.1444L96.154 36.7444L81.486 37.152L77.6735 50.7848L62.2093 51.2146ZM80.2726 35.5981L97.2792 35.1254L101.843 48.5254L114.09 48.1851L98.569 3.84447L77.4377 4.43176L64.3397 49.5678L76.4601 49.2309L80.2726 35.5981ZM83.1651 25.4202L93.8259 25.1239L88.0211 8.20203L83.1651 25.4202ZM85.2783 23.7738L91.6244 23.5974L88.169 13.5243L85.2783 23.7738ZM128.518 47.7841L116.969 48.1051L115.726 3.36764L133.367 2.87735C147.391 2.48759 153.74 7.01059 154.063 18.6233C154.382 30.1091 148.294 34.9777 134.27 35.3675L128.178 35.5368L128.518 47.7841ZM129.186 14.6787L129.44 23.8166L134.643 23.6719C137.374 23.5961 138.939 23.162 139.809 22.4957C140.546 21.9311 141.046 20.9839 140.991 18.9866C140.933 16.911 140.371 15.9631 139.603 15.4304C138.701 14.8056 137.122 14.4582 134.389 14.5341L129.186 14.6787ZM127.898 25.4471L134.688 25.2584C140.272 25.1032 142.704 23.5114 142.577 18.9425C142.447 14.2467 139.93 12.7925 134.345 12.9477L127.555 13.1364L127.898 25.4471Z" fill="url(#paint0_linear_816_885)"/>
<path d="M3.3374 45.9998H14.8911V5.4984L22.128 45.9998H41.236L48.473 5.4984V45.9998H59.9632V1.24512H38.3159L31.7773 42.5718L25.2386 1.24512H3.3374V45.9998Z" fill="url(#paint1_linear_816_885)"/>
<path d="M63.8886 45.9998H76.0137L80.2035 32.4782H97.2166L101.406 45.9998H113.658L99.375 1.24512H78.2355L63.8886 45.9998ZM83.3776 22.3846L88.71 5.30795L94.0425 22.3846H83.3776Z" fill="url(#paint2_linear_816_885)"/>
<path d="M116.538 45.9998H128.092V33.7478H134.186C148.216 33.7478 154.437 29.0502 154.437 17.5599C154.437 5.94277 148.216 1.24512 134.186 1.24512H116.538V45.9998ZM128.092 23.6542V11.3387H134.885C140.471 11.3387 142.947 12.8623 142.947 17.5599C142.947 22.1306 140.471 23.6542 134.885 23.6542H128.092Z" fill="url(#paint3_linear_816_885)"/>
<defs>
<linearGradient id="paint0_linear_816_885" x1="-0.471152" y1="27.7213" x2="164.482" y2="21.1553" gradientUnits="userSpaceOnUse">
<stop stop-color="#FDCB24"/>
<stop offset="0.286458" stop-color="#E73C66"/>
<stop offset="0.53125" stop-color="#8D5CDD"/>
<stop offset="0.723958" stop-color="#26F2D3"/>
<stop offset="1" stop-color="#00BDFF"/>
</linearGradient>
<linearGradient id="paint1_linear_816_885" x1="1.33873" y1="22.4447" x2="163.012" y2="20.4099" gradientUnits="userSpaceOnUse">
<stop stop-color="#FDCB24"/>
<stop offset="0.286458" stop-color="#E73C66"/>
<stop offset="0.53125" stop-color="#8D5CDD"/>
<stop offset="0.723958" stop-color="#26F2D3"/>
<stop offset="1" stop-color="#00BDFF"/>
</linearGradient>
<linearGradient id="paint2_linear_816_885" x1="1.33873" y1="22.4447" x2="163.012" y2="20.4099" gradientUnits="userSpaceOnUse">
<stop stop-color="#FDCB24"/>
<stop offset="0.286458" stop-color="#E73C66"/>
<stop offset="0.53125" stop-color="#8D5CDD"/>
<stop offset="0.723958" stop-color="#26F2D3"/>
<stop offset="1" stop-color="#00BDFF"/>
</linearGradient>
<linearGradient id="paint3_linear_816_885" x1="1.33873" y1="22.4447" x2="163.012" y2="20.4099" gradientUnits="userSpaceOnUse">
<stop stop-color="#FDCB24"/>
<stop offset="0.286458" stop-color="#E73C66"/>
<stop offset="0.53125" stop-color="#8D5CDD"/>
<stop offset="0.723958" stop-color="#26F2D3"/>
<stop offset="1" stop-color="#00BDFF"/>
</linearGradient>
</defs>
</svg>
