<svg width="107" height="99" viewBox="0 0 107 99" fill="none" xmlns="http://www.w3.org/2000/svg">
<g clip-path="url(#clip0_740_7105)" filter="url(#filter0_d_740_7105)">
<path fill-rule="evenodd" clip-rule="evenodd" d="M34.802 22.2505L24.0442 44.7045C24.0033 44.788 23.9903 44.8824 24.0072 44.9737C24.0241 45.0651 24.07 45.1487 24.1381 45.2123L53.1922 72.8774C53.2748 72.956 53.3847 73 53.499 73C53.6134 73 53.7233 72.956 53.8058 72.8774L82.86 45.214C82.9281 45.1504 82.974 45.0668 82.9909 44.9755C83.0077 44.8841 82.9948 44.7898 82.9538 44.7062L72.1961 22.2522C72.1614 22.1768 72.1055 22.1129 72.0352 22.0682C71.965 22.0235 71.8832 21.9998 71.7998 22H35.2018C35.1179 21.999 35.0356 22.0221 34.9646 22.0665C34.8937 22.111 34.8372 22.1749 34.802 22.2505Z" stroke="#50AF95" stroke-width="1.5"/>
<path fill-rule="evenodd" clip-rule="evenodd" d="M57.2337 47.0103C57.0251 47.0258 55.9474 47.0897 53.5435 47.0897C51.6314 47.0897 50.2739 47.0327 49.7976 47.0103C42.4085 46.6873 36.8932 45.4091 36.8932 43.8788C36.8932 42.3485 42.4085 41.0721 49.7976 40.7439V45.7373C50.2808 45.7719 51.6645 45.853 53.5765 45.853C55.8709 45.853 57.0199 45.758 57.2267 45.739V40.7473C64.6002 41.0738 70.1034 42.3519 70.1034 43.8788C70.1034 45.4057 64.6019 46.6838 57.2267 47.0086L57.2337 47.0103ZM57.2337 40.2309V35.7625H67.5239V28.9486H39.5074V35.7625H49.7959V40.2292C41.4334 40.6109 35.1445 42.2569 35.1445 44.2294C35.1445 46.2019 41.4334 47.8463 49.7959 48.2297V62.5485H57.2319V48.2245C65.5753 47.8428 71.8537 46.1985 71.8537 44.2277C71.8537 42.2569 65.5806 40.6126 57.2319 40.2292L57.2337 40.2309Z" fill="#50AF95"/>
</g>
<defs>
<filter id="filter0_d_740_7105" x="0" y="0" width="107" height="99" filterUnits="userSpaceOnUse" color-interpolation-filters="sRGB">
<feFlood flood-opacity="0" result="BackgroundImageFix"/>
<feColorMatrix in="SourceAlpha" type="matrix" values="0 0 0 0 0 0 0 0 0 0 0 0 0 0 0 0 0 0 127 0" result="hardAlpha"/>
<feOffset dy="2"/>
<feGaussianBlur stdDeviation="12"/>
<feColorMatrix type="matrix" values="0 0 0 0 0.313726 0 0 0 0 0.686275 0 0 0 0 0.584314 0 0 0 1 0"/>
<feBlend mode="normal" in2="BackgroundImageFix" result="effect1_dropShadow_740_7105"/>
<feBlend mode="normal" in="SourceGraphic" in2="effect1_dropShadow_740_7105" result="shape"/>
</filter>
<clipPath id="clip0_740_7105">
<rect width="59" height="51" fill="white" transform="translate(24 22)"/>
</clipPath>
</defs>
</svg>
