<svg width="29" height="31" viewBox="0 0 29 31" fill="none" xmlns="http://www.w3.org/2000/svg">
<path fill-rule="evenodd" clip-rule="evenodd" d="M14.4888 31C10.0171 30.9965 6.41499 29.9031 3.89819 27.9392C1.35119 25.9517 0 23.1313 0 19.9399C0 16.8648 1.34822 14.6474 2.87371 13.1485C4.06923 11.9739 5.38849 11.2216 6.30709 10.7889C6.09939 10.1393 5.84018 9.28884 5.6083 8.41046C5.29807 7.23502 4.99367 5.85594 4.99367 4.84538C4.99367 3.64922 5.24962 2.44793 5.9397 1.51448C6.66879 0.528306 7.76637 0 9.08683 0C10.1188 0 10.995 0.390022 11.6809 1.06295C12.3365 1.70613 12.7729 2.56036 13.0742 3.45079C13.6036 5.01542 13.8098 6.98119 13.8676 8.94291H15.1324C15.1902 6.98119 15.3964 5.01542 15.9258 3.45079C16.2271 2.56036 16.6635 1.70613 17.3192 1.06295C18.0051 0.390022 18.8812 0 19.9132 0C21.2337 0 22.3313 0.528306 23.0603 1.51448C23.7504 2.44793 24.0064 3.64922 24.0064 4.84538C24.0064 5.85594 23.702 7.23502 23.3917 8.41046C23.1598 9.28884 22.9007 10.1393 22.6929 10.7889C23.6116 11.2216 24.9308 11.9739 26.1263 13.1485C27.6518 14.6474 29 16.8648 29 19.9399C29 23.1313 27.6489 25.9517 25.1019 27.9392C22.5851 29.9031 18.983 30.9965 14.5112 31H14.4888Z" fill="#633001"/>
<path d="M9.08746 1.1377C7.15342 1.1377 6.26315 2.62291 6.26315 4.67697C6.26315 6.30959 7.2976 9.57937 7.722 10.8523C7.81745 11.1385 7.66743 11.4522 7.39391 11.5632C5.84387 12.1924 1.26953 14.4959 1.26953 19.7715C1.26953 25.3287 5.91807 29.5188 14.4904 29.5254C14.4938 29.5254 14.4972 29.5254 14.5006 29.5254C14.504 29.5254 14.5074 29.5254 14.5109 29.5254C23.0832 29.5188 27.7318 25.3287 27.7318 19.7715C27.7318 14.4959 23.1574 12.1924 21.6074 11.5632C21.3338 11.4522 21.1838 11.1385 21.2793 10.8523C21.7037 9.57937 22.7381 6.30959 22.7381 4.67697C22.7381 2.62291 21.8478 1.1377 19.9138 1.1377C17.1299 1.1377 16.4359 5.19708 16.3864 9.55381C16.3831 9.84467 16.1547 10.0807 15.8721 10.0807H13.1292C12.8465 10.0807 12.6182 9.84467 12.6149 9.55381C12.5654 5.19708 11.8714 1.1377 9.08746 1.1377Z" fill="#D1884F"/>
<path d="M14.5109 27.745C8.21237 27.745 1.2804 24.2744 1.26953 19.7817C1.26953 19.7888 1.26953 19.7958 1.26953 19.8028C1.26953 25.3645 5.92549 29.5568 14.5109 29.5568C23.0963 29.5568 27.7522 25.3645 27.7522 19.8028C27.7522 19.7958 27.7522 19.7888 27.7522 19.7817C27.7413 24.2744 20.8094 27.745 14.5109 27.745Z" fill="#FEDC90"/>
<path d="M11.0112 18.402C11.0112 19.9189 10.3148 20.7089 9.45579 20.7089C8.59674 20.7089 7.90039 19.9189 7.90039 18.402C7.90039 16.8852 8.59674 16.0952 9.45579 16.0952C10.3148 16.0952 11.0112 16.8852 11.0112 18.402Z" fill="#633001"/>
<path d="M21.1206 18.402C21.1206 19.9189 20.4242 20.7089 19.5652 20.7089C18.7062 20.7089 18.0098 19.9189 18.0098 18.402C18.0098 16.8852 18.7062 16.0952 19.5652 16.0952C20.4242 16.0952 21.1206 16.8852 21.1206 18.402Z" fill="#633001"/>
</svg>
