<svg width="19" height="14" viewBox="0 0 19 14" fill="none" xmlns="http://www.w3.org/2000/svg">
<path fill-rule="evenodd" clip-rule="evenodd" d="M16.2659 1.14809C17.0111 1.35257 17.5979 1.95505 17.7971 2.72014C18.159 4.10679 18.159 7.00003 18.159 7.00003C18.159 7.00003 18.159 9.89317 17.7971 11.2799C17.5979 12.045 17.0111 12.6475 16.2659 12.8521C14.9156 13.2236 9.50015 13.2236 9.50015 13.2236C9.50015 13.2236 4.08473 13.2236 2.73425 12.8521C1.9891 12.6475 1.40226 12.045 1.20311 11.2799C0.841309 9.89317 0.841309 7.00003 0.841309 7.00003C0.841309 7.00003 0.841309 4.10679 1.20311 2.72014C1.40226 1.95505 1.9891 1.35257 2.73425 1.14809C4.08473 0.776489 9.50015 0.776489 9.50015 0.776489C9.50015 0.776489 14.9156 0.776489 16.2659 1.14809ZM7.87622 4.56473V9.97651L12.2056 7.27072L7.87622 4.56473Z" fill="#FF0000"/>
</svg>
