<?xml version="1.0" standalone="no"?>
<!DOCTYPE svg PUBLIC "-//W3C//DTD SVG 1.1//EN" "http://www.w3.org/Graphics/SVG/1.1/DTD/svg11.dtd" >
<svg xmlns="http://www.w3.org/2000/svg" xmlns:xlink="http://www.w3.org/1999/xlink" version="1.1">
<metadata>
Created by FontForge 20170731 at Thu Jan 26 18:05:03 2023
 By Aleksey,,,
Copyright (c) 2019 by Mathieu Desjardins. All rights reserved.
</metadata>
<defs>
<font id="PPNeueMachina-PlainLight" horiz-adv-x="1335" >
  <font-face 
    font-family="PP Neue Machina Plain Light"
    font-weight="300"
    font-stretch="normal"
    units-per-em="2048"
    panose-1="0 0 0 0 0 0 0 0 0 0"
    ascent="1638"
    descent="-410"
    x-height="1016"
    cap-height="1444"
    bbox="-119 -483 3168 2013"
    underline-thickness="102"
    underline-position="-307"
    unicode-range="U+0020-FB02"
  />
<missing-glyph horiz-adv-x="952" 
d="M780 1516v-1905h-604v1905h604zM317 -258h318v63h-195l133 91h62v61h-318v-61h134l-134 -91v-63zM317 2h318v215h-318v-215zM317 332h318v215h-191v-107h64v43h63v-90h-190v154h-64v-215zM317 588h318v190h-64v-125h-254v-65zM317 696h191v133h127v64h-318v-64h127v-69
h-127v-64zM317 944h318v66h-127v133h-191v-199zM317 1192h318v63h-127v70h127v64h-316v-64h125v-70h-127v-63zM381 63v91h190v-91h-190zM381 1010v67h63v-67h-63z" />
    <glyph glyph-name="fi" unicode="fi" horiz-adv-x="1554" 
d="M643 1376q-96 0 -135 -54t-39 -161v-145h604q69 0 99 -32.5t30 -104.5v-750h283v-129h-1393v129h227v758h-227v129h227v149q0 160 79 250t247 90h465v-129h-467zM469 129h584v758h-584v-758z" />
    <glyph glyph-name="fl" unicode="fl" horiz-adv-x="1531" 
d="M92 887v129h225v168q0 153 79.5 237t248.5 84h436q95 0 95 -90v-1286h284v-129h-1368v129h225v758h-225zM469 129h555v1247h-381q-98 0 -136 -45.5t-38 -148.5v-166h295v-129h-295v-758z" />
    <glyph glyph-name="f_f" unicode="ff" horiz-adv-x="1546" 
d="M92 887v129h232v65q0 328 325 328h412q80 96 258 96h176v-129h-178q-98 0 -136 -45.5t-38 -148.5v-166h295v-129h-295v-758h295v-129h-1346v129h232v758h-232zM473 129h518v758h-518v-758zM473 1016h518v168q0 59 10 98h-352q-99 0 -137.5 -48t-38.5 -155v-63z" />
    <glyph glyph-name="f_f_i" unicode="ffi" horiz-adv-x="2228" 
d="M92 887v129h232v65q0 328 325 328h418q80 96 252 96h465v-129h-467q-96 0 -135 -54t-39 -161v-145h604q69 0 99 -32.5t30 -104.5v-750h283v-129h-2067v129h232v758h-232zM473 129h520v758h-520v-758zM473 1016h520v149q0 60 13 117h-357q-99 0 -137.5 -48t-38.5 -155v-63
zM1143 129h583v758h-583v-758z" />
    <glyph glyph-name=".notdef" horiz-adv-x="952" 
d="M780 1516v-1905h-604v1905h604zM317 -258h318v63h-195l133 91h62v61h-318v-61h134l-134 -91v-63zM317 2h318v215h-318v-215zM317 332h318v215h-191v-107h64v43h63v-90h-190v154h-64v-215zM317 588h318v190h-64v-125h-254v-65zM317 696h191v133h127v64h-318v-64h127v-69
h-127v-64zM317 944h318v66h-127v133h-191v-199zM317 1192h318v63h-127v70h127v64h-316v-64h125v-70h-127v-63zM381 63v91h190v-91h-190zM381 1010v67h63v-67h-63z" />
    <glyph glyph-name=".null" horiz-adv-x="0" 
 />
    <glyph glyph-name="nonmarkingreturn" horiz-adv-x="682" 
 />
    <glyph glyph-name="space" unicode=" " horiz-adv-x="690" 
 />
    <glyph glyph-name="space" unicode="&#xa0;" horiz-adv-x="690" 
 />
    <glyph glyph-name="exclam" unicode="!" horiz-adv-x="675" 
d="M336 -20q-69 0 -115.5 47.5t-46.5 117.5q0 68 46.5 115t115.5 47q68 0 117 -47.5t49 -114.5q0 -70 -49 -117.5t-117 -47.5zM262 1444h152l-15 -948h-120z" />
    <glyph glyph-name="quotedbl" unicode="&#x22;" horiz-adv-x="753" 
d="M170 1511h147v-503h-147v503zM436 1008v503h148v-503h-148z" />
    <glyph glyph-name="numbersign" unicode="#" horiz-adv-x="2207" 
d="M371 1016h497l256 561l119 -53l-231 -508h532l256 561l119 -53l-231 -508h348v-123h-404l-225 -492h432v-122h-487l-269 -590l-118 53l243 537h-532l-268 -590l-119 53l243 537h-358v122h416l223 492h-442v123zM731 401h535l223 492h-533z" />
    <glyph glyph-name="dollar" unicode="$" horiz-adv-x="1388" 
d="M1294 377q0 -397 -536 -397h-2v-283h-119v289q-262 26 -400.5 167.5t-138.5 385.5h154q0 -185 98.5 -291t286.5 -131v579l-150 39q-319 82 -319 357q0 176 120.5 271t348.5 101v283h119v-287q243 -20 369 -146t126 -343h-153q0 322 -342 360v-522l190 -49
q172 -44 260 -142.5t88 -240.5zM322 1098q0 -180 239 -240l76 -18v495q-315 -9 -315 -237zM756 109h6q195 0 287 65t92 197q0 94 -65 162t-199 102l-121 31v-557z" />
    <glyph glyph-name="percent" unicode="%" horiz-adv-x="2269" 
d="M481 608q-185 0 -302.5 121t-117.5 297t117.5 297t302.5 121q184 0 301 -121.5t117 -296.5t-117 -296.5t-301 -121.5zM186 1026q0 -121 83.5 -207t211.5 -86q127 0 210 86t83 207t-83 207t-210 86q-128 0 -211.5 -86t-83.5 -207zM723 27l713 1425l112 -49l-712 -1426z
M1370 406q0 176 117.5 296.5t302.5 120.5q184 0 301 -121t117 -296t-117 -296.5t-301 -121.5q-185 0 -302.5 121t-117.5 297zM1495 406q0 -121 83.5 -207t211.5 -86q127 0 210 86t83 207t-83 206.5t-210 85.5q-128 0 -211.5 -85.5t-83.5 -206.5z" />
    <glyph glyph-name="ampersand" unicode="&#x26;" horiz-adv-x="1812" 
d="M115 481q0 225 125.5 356.5t322.5 131.5q143 0 234 -66l-353 447l-2 94h1074v-129h-867l721 -918q148 239 148 613h153q0 -452 -207 -734l244 -311l-117 -78l-221 283q-239 -225 -608 -225q-185 0 -331.5 64.5t-231 187t-84.5 284.5zM266 492q0 -191 137 -303.5
t361 -112.5q322 0 518 205l-287 366q-90 113 -174 159t-205 46q-160 0 -255 -95t-95 -265z" />
    <glyph glyph-name="quotesingle" unicode="'" horiz-adv-x="489" 
d="M170 1511h147v-503h-147v503z" />
    <glyph glyph-name="parenleft" unicode="(" horiz-adv-x="876" 
d="M702 -246q-113 24 -202.5 79.5t-150 134.5t-100.5 183.5t-57.5 222.5t-17.5 257q0 174 29 316t90 258t164.5 193t244.5 107v-135q-385 -94 -385 -739q0 -648 385 -742v-135z" />
    <glyph glyph-name="parenright" unicode=")" horiz-adv-x="876" 
d="M174 1505q141 -30 244.5 -107t164.5 -193.5t90 -259t29 -316.5t-29 -316.5t-90 -258.5t-164.5 -193t-244.5 -107v135q385 94 385 740q0 647 -385 741v135z" />
    <glyph glyph-name="asterisk" unicode="*" horiz-adv-x="1036" 
d="M133 1180l37 118l242 -77l69 -52l-22 82v254h121v-254l-23 -84l68 50l241 77l37 -116l-241 -78l-82 -4l65 -47l150 -205l-101 -74l-149 207l-29 78l-29 -78l-149 -205l-98 72l149 205l68 49l-82 4z" />
    <glyph glyph-name="plus" unicode="+" horiz-adv-x="1310" 
d="M174 575h418v418h127v-418h418v-126h-418v-418h-127v418h-418v126z" />
    <glyph glyph-name="comma" unicode="," horiz-adv-x="561" 
d="M246 330l143 -39l-156 -578l-143 37z" />
    <glyph glyph-name="hyphen" unicode="-" horiz-adv-x="1310" 
d="M174 575h963v-126h-963v126z" />
    <glyph glyph-name="period" unicode="." horiz-adv-x="675" 
d="M336 -20q-69 0 -115.5 47.5t-46.5 117.5q0 68 46.5 115t115.5 47q68 0 117 -47.5t49 -114.5q0 -70 -49 -117.5t-117 -47.5z" />
    <glyph glyph-name="slash" unicode="/" horiz-adv-x="1001" 
d="M860 1659l119 -53l-836 -1835l-118 53z" />
    <glyph glyph-name="zero" unicode="0" horiz-adv-x="1476" 
d="M739 -20q-147 0 -264 56.5t-192 156.5t-114.5 235t-39.5 295q0 127 24.5 239t75 204t122.5 158.5t171 103t217 36.5q194 0 333 -98t206.5 -263.5t67.5 -379.5q0 -215 -67.5 -381t-206.5 -264t-333 -98zM283 723q0 -220 69 -367l690 852q-117 127 -303 127
q-149 0 -253.5 -80t-153.5 -216t-49 -316zM432 236q117 -127 307 -127q221 0 338 168.5t117 445.5q0 214 -72 367z" />
    <glyph glyph-name="one" unicode="1" horiz-adv-x="966" 
d="M111 795q418 150 432 649h254v-1444h-154v1370q-8 -97 -25.5 -179t-53 -166.5t-88 -149.5t-133.5 -120t-185 -87z" />
    <glyph glyph-name="two" unicode="2" horiz-adv-x="1366" 
d="M111 745q0 153 31 275t86 204t133 136.5t167.5 79t194.5 24.5q235 0 373.5 -127t138.5 -360q0 -135 -52 -255t-143.5 -214t-219 -169.5t-277 -127t-318.5 -80.5h1010v-131h-1104v240q34 3 82 12t113 26.5t134.5 41.5t144 59t143 77t130 97.5t107 117.5t72 141t26.5 165
q0 174 -93.5 266t-266.5 92q-102 0 -182 -30.5t-144 -97t-98.5 -183.5t-34.5 -279h-153z" />
    <glyph glyph-name="three" unicode="3" horiz-adv-x="1378" 
d="M281 551q0 -236 105.5 -339t322.5 -103q385 0 385 317q0 130 -75.5 201t-209.5 71h-201v127h201q129 0 196.5 62.5t67.5 167.5q0 131 -88 205.5t-278 74.5q-208 0 -307 -89.5t-99 -272.5h-154q0 238 145.5 364.5t422.5 126.5q250 0 381 -105t131 -274q0 -119 -62 -207.5
t-180 -113.5q122 -33 192 -126.5t70 -231.5q0 -200 -137.5 -313t-394.5 -113q-285 0 -436.5 140t-151.5 431h154z" />
    <glyph glyph-name="four" unicode="4" horiz-adv-x="1351" 
d="M899 999h154v-544h188v-129h-188v-326h-154v326h-768v247q125 58 233.5 143.5t197 194.5t146.5 246t74 287h152q-90 -664 -741 -989h706v544z" />
    <glyph glyph-name="five" unicode="5" horiz-adv-x="1439" 
d="M711 -20q-268 0 -424 138.5t-156 391.5h154q0 -193 112.5 -297t315.5 -104q208 0 325 110t117 309q0 179 -102.5 278t-292.5 99q-273 0 -412 -184l-174 86l100 637h930v-129h-803l-79 -506q159 221 475 221q242 0 376 -133.5t134 -366.5q0 -255 -158.5 -402.5
t-437.5 -147.5z" />
    <glyph glyph-name="six" unicode="6" horiz-adv-x="1402" 
d="M725 -20q-283 0 -438.5 172.5t-155.5 500.5q0 140 18 252t65 215.5t122.5 172.5t197 110t283.5 41h352v-131h-372q-490 0 -527 -549q57 124 182 194t304 70q234 0 376 -144.5t142 -367.5q0 -243 -146.5 -389.5t-402.5 -146.5zM285 516q0 -80 28 -152.5t81 -130t137 -91
t188 -33.5q191 0 296 107t105 298q0 175 -107 282t-288 107q-199 0 -319.5 -106.5t-120.5 -280.5z" />
    <glyph glyph-name="seven" unicode="7" horiz-adv-x="1193" 
d="M309 0q0 469 187 789.5t567 523.5h-991v131h1052v-209q-655 -346 -655 -1235h-160z" />
    <glyph glyph-name="eight" unicode="8" horiz-adv-x="1370" 
d="M686 -20q-273 0 -426.5 116.5t-153.5 313.5q0 137 82.5 238.5t241.5 146.5q-119 38 -180.5 119.5t-61.5 195.5q0 92 37.5 161t106 110.5t157 62t197.5 20.5t197 -20.5t155.5 -62t104.5 -110.5t37 -161q0 -114 -61 -195.5t-179 -119.5q156 -44 239 -144.5t83 -240.5
q0 -198 -152 -314t-424 -116zM260 420q0 -145 106.5 -228t319.5 -83q211 0 316.5 83t105.5 228q0 142 -105.5 225.5t-316.5 83.5q-212 0 -319 -83.5t-107 -225.5zM342 1096q0 -130 87.5 -185t256.5 -55q168 0 254 54.5t86 185.5q0 129 -86.5 184t-253.5 55
q-169 0 -256.5 -55t-87.5 -184z" />
    <glyph glyph-name="nine" unicode="9" horiz-adv-x="1402" 
d="M678 1464q283 0 438.5 -172.5t155.5 -500.5q-1 -140 -19 -252t-65 -215.5t-123 -172.5t-197.5 -110t-283.5 -41h-353v131h373q111 0 199 29t146.5 78.5t98.5 120.5t59.5 149.5t25.5 171.5q-58 -124 -183.5 -194t-304.5 -70q-234 0 -375 144t-141 368q0 243 146.5 389.5
t402.5 146.5zM283 930q0 -175 106 -282t287 -107q199 0 320.5 106.5t121.5 280.5q0 80 -28 152.5t-81 130t-137 91t-188 33.5q-191 0 -296 -107t-105 -298z" />
    <glyph glyph-name="colon" unicode=":" horiz-adv-x="675" 
d="M336 -20q-69 0 -115.5 47.5t-46.5 117.5q0 68 46.5 115t115.5 47q68 0 117 -47.5t49 -114.5q0 -70 -49 -117.5t-117 -47.5zM174 866q0 68 46.5 115t115.5 47q68 0 117 -47.5t49 -114.5q0 -70 -49 -118t-117 -48q-69 0 -115.5 47.5t-46.5 118.5z" />
    <glyph glyph-name="semicolon" unicode=";" horiz-adv-x="561" 
d="M246 330l143 -39l-156 -578l-143 37zM174 866q0 68 46.5 115t115.5 47q68 0 117 -47.5t49 -114.5q0 -70 -49 -118t-117 -48q-69 0 -115.5 47.5t-46.5 118.5z" />
    <glyph glyph-name="less" unicode="&#x3c;" horiz-adv-x="1310" 
d="M172 584l913 313l52 -121l-805 -268l805 -275l-52 -120l-913 317v154z" />
    <glyph glyph-name="equal" unicode="=" horiz-adv-x="1310" 
d="M174 780h963v-125h-963v125zM174 242v127h963v-127h-963z" />
    <glyph glyph-name="greater" unicode="&#x3e;" horiz-adv-x="1310" 
d="M1139 434l-914 -313l-51 121l805 268l-805 274l51 121l914 -317v-154z" />
    <glyph glyph-name="question" unicode="?" horiz-adv-x="880" 
d="M438 -20q-69 0 -115.5 47.5t-46.5 117.5q0 68 46.5 115t115.5 47q68 0 117 -47.5t49 -114.5q0 -70 -49 -117.5t-117 -47.5zM14 1034q0 202 118 320.5t335 118.5q191 0 294 -93.5t103 -244.5q0 -104 -47.5 -192t-132 -152t-194.5 -108.5t-242 -68.5h477v-112h-573v205
q43 3 90 11.5t104 24.5t109.5 38.5t103 56t87 73.5t59 95t22.5 118q0 107 -68.5 171.5t-193.5 64.5q-151 0 -232 -85t-81 -241h-138z" />
    <glyph glyph-name="at" unicode="@" horiz-adv-x="2099" 
d="M1098 -307q-309 0 -536 109t-346.5 308t-119.5 465t117 470t331.5 316t493.5 112q270 0 475.5 -104t318 -296t112.5 -444q0 -256 -113 -413t-299 -157h-53q-47 0 -77 27t-30 72v176q-49 -126 -164.5 -197t-263.5 -71q-201 0 -326.5 139t-125.5 368q0 226 125.5 365
t326.5 139q153 0 268 -71.5t160 -198.5v250h133v-889h45q118 0 191.5 124.5t73.5 323.5q0 338 -213.5 540t-563.5 202q-242 0 -427.5 -98t-286.5 -276t-101 -409q0 -352 233 -563t642 -211h682v-108h-682zM633 573q0 -179 98 -284t266 -105t269.5 105.5t101.5 283.5
q0 176 -101.5 280.5t-269.5 104.5t-266 -104t-98 -281z" />
    <glyph glyph-name="A" unicode="A" horiz-adv-x="1394" 
d="M63 0l498 1444h273l497 -1444h-157l-199 575h-555l-199 -575h-158zM465 705h467l-234 675z" />
    <glyph glyph-name="B" unicode="B" horiz-adv-x="1400" 
d="M154 0v1444h462q110 0 191.5 -9.5t152 -33t114.5 -63.5t68.5 -102t24.5 -146q0 -131 -71.5 -218t-180.5 -110q163 -16 261 -113t98 -266q0 -206 -141.5 -294.5t-415.5 -88.5h-563zM305 127h412q102 0 170.5 11t124 40.5t82 86t26.5 143.5q0 156 -101 219t-302 63h-412
v-563zM305 813h313q79 0 136.5 5.5t109.5 21.5t83.5 44t50 73t18.5 108q0 50 -10 88.5t-25.5 65t-44.5 45t-57.5 29t-74.5 16t-86 7t-100 1.5h-313v-504z" />
    <glyph glyph-name="C" unicode="C" horiz-adv-x="1574" 
d="M799 -20q-206 0 -359.5 98t-232 265.5t-78.5 379.5q0 211 78.5 378t232 265t359.5 98q273 0 444 -154t203 -423h-154q-25 214 -151 330t-342 116q-126 0 -225 -45.5t-162.5 -127.5t-96 -193t-32.5 -244q0 -134 32.5 -245t96 -193.5t162.5 -128t225 -45.5q216 0 342 116.5
t151 331.5h154q-32 -270 -203 -424.5t-444 -154.5z" />
    <glyph glyph-name="D" unicode="D" horiz-adv-x="1449" 
d="M154 0v1444h450q80 0 149 -7t144 -27.5t135 -53.5t115.5 -88.5t92.5 -129.5t59 -179.5t22 -235.5t-22 -236t-59 -180t-92.5 -130t-115.5 -89t-135 -53.5t-144 -27.5t-149 -7h-450zM305 131h299q63 0 112 4t110 18t106.5 38.5t92 69t76 105.5t48 152t18.5 205
q0 113 -18.5 204t-48 151.5t-75.5 105t-92 69t-107 38.5t-110 18t-112 4h-299v-1182z" />
    <glyph glyph-name="E" unicode="E" horiz-adv-x="1243" 
d="M154 0v1444h976v-131h-825v-525h723v-129h-723v-528h825v-131h-976z" />
    <glyph glyph-name="F" unicode="F" horiz-adv-x="1202" 
d="M154 0v1444h938v-131h-787v-549h686v-131h-686v-633h-151z" />
    <glyph glyph-name="G" unicode="G" horiz-adv-x="1609" 
d="M772 -20q-161 0 -285.5 55.5t-201.5 155t-116.5 230.5t-39.5 288q0 344 179 549.5t499 205.5q257 0 419 -141.5t197 -394.5h-155q-25 194 -143 300.5t-314 106.5q-169 0 -289 -79.5t-179.5 -220.5t-59.5 -330q0 -126 28.5 -230.5t87.5 -188t161 -130.5t239 -47
q249 0 375.5 138t117.5 402h-598v119h637q62 0 90.5 -25.5t28.5 -80.5v-662h-154v303q-12 -42 -34.5 -82.5t-65.5 -85.5t-98.5 -78.5t-140.5 -55t-185 -21.5z" />
    <glyph glyph-name="H" unicode="H" horiz-adv-x="1470" 
d="M154 1444h151v-666h858v666h154v-1444h-154v649h-858v-649h-151v1444z" />
    <glyph glyph-name="I" unicode="I" horiz-adv-x="1060" 
d="M131 1444h797v-131h-322v-1182h322v-131h-797v131h324v1182h-324v131z" />
    <glyph glyph-name="J" unicode="J" horiz-adv-x="1083" 
d="M559 0h-489v131h458q142 0 206.5 88t64.5 262v832h-512v131h530q76 0 105.5 -26.5t29.5 -96.5v-877q0 -219 -101 -331.5t-292 -112.5z" />
    <glyph glyph-name="K" unicode="K" horiz-adv-x="1325" 
d="M154 0v1444h151v-649l729 649h211l-799 -707l805 -737h-223l-723 664v-664h-151z" />
    <glyph glyph-name="L" unicode="L" horiz-adv-x="1103" 
d="M270 0q-56 0 -86 31t-30 88v1325h151v-1313h729v-131h-764z" />
    <glyph glyph-name="M" unicode="M" horiz-adv-x="1820" 
d="M154 0v1444h282l477 -1381l478 1381h278v-1444h-153v1376l-484 -1376h-241l-486 1376v-1376h-151z" />
    <glyph glyph-name="N" unicode="N" horiz-adv-x="1533" 
d="M154 0v1444h280l795 -1385v1385h151v-1444h-280l-795 1384v-1384h-151z" />
    <glyph glyph-name="O" unicode="O" horiz-adv-x="1595" 
d="M129 723q0 211 78.5 378t232 265t359.5 98q205 0 357.5 -98t230 -265t77.5 -378q0 -158 -45.5 -294t-129 -236t-210 -156.5t-280.5 -56.5q-206 0 -359.5 98t-232 265.5t-78.5 379.5zM283 723q0 -133 32.5 -244t95.5 -193.5t162 -128.5t226 -46t225.5 46t160.5 128.5
t94 193t32 244.5t-32 244.5t-94 192.5t-160.5 127.5t-225.5 45.5t-226 -46t-162 -128t-95.5 -192.5t-32.5 -243.5z" />
    <glyph glyph-name="P" unicode="P" horiz-adv-x="1249" 
d="M154 0v1444h393q116 0 205.5 -13.5t164.5 -46.5t123 -86t74.5 -134t26.5 -189q0 -135 -39.5 -228t-119 -145.5t-184.5 -75t-251 -22.5h-242v-504h-151zM305 633h244q82 0 143 7.5t119.5 29t95 58.5t58.5 99t22 148q0 85 -22 146t-58.5 98t-95 58.5t-119.5 28.5t-143 7
h-244v-680z" />
    <glyph glyph-name="Q" unicode="Q" horiz-adv-x="1566" 
d="M1507 -315q-197 43 -364 63.5t-363.5 19.5t-402.5 -32l-15 125q4 1 88.5 13t106 16t96 18t111 25.5t95.5 30t104.5 41t87.5 50.5q-135 -55 -299 -55q-177 0 -319.5 94.5t-223 262t-80.5 374.5q0 212 79 377t232 260.5t359 95.5q154 0 280.5 -56.5t211 -156t130 -235
t45.5 -293.5q0 -138 -30.5 -258t-82.5 -209t-124.5 -162t-151 -121.5t-168.5 -81.5q227 3 598 -75v-131zM283 731q0 -268 139 -435t377 -167q245 0 379.5 156.5t134.5 437.5q0 274 -136.5 442t-377.5 168q-243 0 -379.5 -164t-136.5 -438z" />
    <glyph glyph-name="R" unicode="R" horiz-adv-x="1363" 
d="M154 0v1444h516q107 0 188 -10.5t151.5 -37.5t115 -71.5t69.5 -114t25 -163.5q0 -304 -244 -365h115q129 0 129 -131v-551h-154v586h-760v-586h-151zM305 717h365q82 0 136.5 5.5t108.5 23t84.5 49.5t49 87t18.5 134q0 58 -9.5 102.5t-25.5 76t-44.5 53.5t-57.5 34.5
t-74 19.5t-86 9t-100 2h-365v-596z" />
    <glyph glyph-name="S" unicode="S" horiz-adv-x="1378" 
d="M1288 377q0 -397 -536 -397q-319 0 -489.5 144.5t-170.5 414.5h154q0 -214 130.5 -322t379.5 -108q195 0 287 65t92 197q0 94 -65.5 162t-199.5 102l-389 100q-319 82 -319 357q0 182 127.5 277t369.5 95q286 0 436 -128.5t150 -364.5h-153q0 364 -433 364
q-344 0 -344 -237q0 -179 240 -240l385 -98q172 -44 260 -142.5t88 -240.5z" />
    <glyph glyph-name="T" unicode="T" horiz-adv-x="1341" 
d="M90 1444h1161v-131h-503v-1313h-152v1313h-506v131z" />
    <glyph glyph-name="U" unicode="U" horiz-adv-x="1353" 
d="M113 537v907h153v-893q0 -227 94.5 -333.5t315.5 -106.5t317.5 107t96.5 333v893h153v-907q0 -557 -567 -557q-288 0 -425.5 141t-137.5 416z" />
    <glyph glyph-name="V" unicode="V" horiz-adv-x="1394" 
d="M559 0l-496 1444h158l475 -1381l478 1381h157l-500 -1444h-272z" />
    <glyph glyph-name="W" unicode="W" horiz-adv-x="1855" 
d="M1810 1444l-297 -1444h-270l-315 1380l-312 -1380h-274l-297 1444h152l272 -1278l18 -96l312 1374h260l313 -1372l17 94l268 1278h153z" />
    <glyph glyph-name="X" unicode="X" horiz-adv-x="1366" 
d="M1311 0h-174l-453 651l-453 -651h-174l504 723l-504 721h174l453 -647l453 647h174l-506 -721z" />
    <glyph glyph-name="Y" unicode="Y" 
d="M1104 1444h162l-471 -826h-52v-618h-151v618h-49l-473 826h161l437 -776z" />
    <glyph glyph-name="Z" unicode="Z" horiz-adv-x="1333" 
d="M113 0v266l1056 1047h-1056v131h1108v-268l-1055 -1045h1055v-131h-1108z" />
    <glyph glyph-name="bracketleft" unicode="[" horiz-adv-x="876" 
d="M174 1505h528v-123h-387v-1505h387v-123h-528v1751z" />
    <glyph glyph-name="backslash" unicode="\" horiz-adv-x="1001" 
d="M141 1659l836 -1835l-119 -53l-835 1835z" />
    <glyph glyph-name="bracketright" unicode="]" horiz-adv-x="876" 
d="M702 -246h-528v123h387v1505h-387v123h528v-1751z" />
    <glyph glyph-name="asciicircum" unicode="^" horiz-adv-x="1110" 
d="M791 786l-213 613h-43l-216 -613h-145l236 658h292l234 -658h-145z" />
    <glyph glyph-name="underscore" unicode="_" horiz-adv-x="1228" 
d="M133 -96h963v-127h-963v127z" />
    <glyph glyph-name="grave" unicode="`" horiz-adv-x="989" 
d="M815 1309l-31 -121l-610 160l31 120z" />
    <glyph glyph-name="a" unicode="a" horiz-adv-x="1202" 
d="M111 283q0 125 79 201.5t246 90.5l414 39q-9 151 -77.5 223t-211.5 72q-116 0 -189 -60.5t-87 -191.5h-154q21 174 130.5 276.5t299.5 102.5q216 0 328 -125t112 -331v-451h150v-129h-176q-57 0 -87 30.5t-30 86.5v135q-39 -120 -140.5 -196t-271.5 -76q-84 0 -147 22
t-98 53.5t-56 75.5t-27.5 79.5t-6.5 72.5zM262 299q0 -93 53.5 -143t149.5 -50q172 0 278.5 111t106.5 279l-389 -39q-103 -9 -151 -45.5t-48 -112.5z" />
    <glyph glyph-name="b" unicode="b" 
d="M152 0v1505h151v-747q54 129 167.5 203.5t277.5 74.5q213 0 345 -146.5t132 -381.5t-132 -381.5t-345 -146.5q-162 0 -276 73.5t-169 204.5v-258h-151zM309 508q0 -97 32.5 -174.5t87.5 -125.5t124.5 -73.5t146.5 -25.5q163 0 268 102t105 297t-105 297t-268 102
q-104 0 -191.5 -43.5t-143.5 -136t-56 -219.5z" />
    <glyph glyph-name="c" unicode="c" horiz-adv-x="1202" 
d="M111 508q0 147 58.5 265t177 190.5t278.5 72.5q59 0 118.5 -13t119.5 -43.5t107.5 -75.5t80.5 -114.5t41 -154.5h-154q-22 144 -105.5 208t-207.5 64q-90 0 -161 -32t-114 -87.5t-65.5 -126.5t-22.5 -153t22.5 -153t65.5 -126.5t114 -87.5t161 -32q124 0 207.5 64
t105.5 208h154q-8 -85 -41 -154.5t-80.5 -114.5t-107.5 -75.5t-119.5 -43.5t-118.5 -13q-160 0 -278.5 72.5t-177 190.5t-58.5 265z" />
    <glyph glyph-name="d" unicode="d" 
d="M588 -20q-213 0 -345 146.5t-132 381.5t132 381.5t345 146.5q163 0 276 -74.5t168 -203.5v747h152v-1505h-152v258q-55 -131 -168.5 -204.5t-275.5 -73.5zM262 508q0 -195 105 -297t268 -102q77 0 146.5 25.5t124.5 73.5t87.5 125.5t32.5 174.5q0 96 -32.5 173.5
t-87 125.5t-124.5 74t-147 26q-163 0 -268 -102t-105 -297z" />
    <glyph glyph-name="e" unicode="e" horiz-adv-x="1185" 
d="M111 522q0 243 129.5 378.5t347.5 135.5q221 0 353 -131t132 -362v-62h-817q5 -168 91.5 -272.5t248.5 -104.5q136 0 219.5 66t112.5 184h149q-14 -58 -36 -108.5t-61 -100.5t-90 -85.5t-125.5 -57.5t-164.5 -22q-120 0 -215 42.5t-154 117.5t-89.5 172t-30.5 210z
M258 600h666q-10 147 -101.5 229t-236.5 82q-136 0 -226 -83t-102 -228z" />
    <glyph glyph-name="f" unicode="f" horiz-adv-x="872" 
d="M92 887v129h225v168q0 153 79.5 237t248.5 84h176v-129h-178q-98 0 -136 -45.5t-38 -148.5v-166h295v-129h-295v-758h295v-129h-672v129h225v758h-225z" />
    <glyph glyph-name="g" unicode="g" 
d="M588 -20q-213 0 -345 146.5t-132 381.5t132 381.5t345 146.5q163 0 276 -74.5t168 -203.5v258h152v-1292q0 -119 -135 -119h-758v129h741v524q-55 -131 -168.5 -204.5t-275.5 -73.5zM262 508q0 -195 105 -297t268 -102q77 0 146.5 25.5t124.5 73.5t87.5 125.5t32.5 174.5
q0 96 -32.5 173.5t-87 125.5t-124.5 74t-147 26q-163 0 -268 -102t-105 -297z" />
    <glyph glyph-name="h" unicode="h" horiz-adv-x="1220" 
d="M152 0v1505h151v-772q42 144 150 223.5t272 79.5q173 0 269 -107.5t96 -305.5v-623h-154v610q0 157 -63 227t-199 70q-170 0 -270.5 -129t-100.5 -336v-442h-151z" />
    <glyph glyph-name="i" unicode="i" horiz-adv-x="886" 
d="M113 0v129h280v758h-203v129h238q53 0 78.5 -26.5t25.5 -84.5v-776h285v-129h-704zM309 1335q0 54 39 92.5t94 38.5q56 0 96 -38.5t40 -92.5q0 -55 -40 -94t-96 -39t-94.5 39t-38.5 94z" />
    <glyph glyph-name="j" unicode="j" horiz-adv-x="589" 
d="M248 -57q22 40 29.5 72.5t7.5 82.5v789h-207v129h239q58 0 87.5 -24.5t29.5 -82.5v-839q0 -86 -37 -156l-157 -295h-162zM207 1335q0 54 39 92.5t94 38.5q56 0 95.5 -38.5t39.5 -92.5q0 -55 -39.5 -94t-95.5 -39t-94.5 39t-38.5 94z" />
    <glyph glyph-name="k" unicode="k" horiz-adv-x="1089" 
d="M152 0v1505h151v-921l508 432h205l-576 -492l570 -524h-201l-506 465v-465h-151z" />
    <glyph glyph-name="l" unicode="l" horiz-adv-x="882" 
d="M92 0v129h285v1247h-207v129h262q46 0 71 -23t25 -67v-1286h285v-129h-721z" />
    <glyph glyph-name="m" unicode="m" horiz-adv-x="1835" 
d="M152 0v1016h151v-262q41 126 135 204t238 78q126 0 204 -73.5t103 -210.5q43 126 140.5 205t244.5 79q163 0 249.5 -111.5t86.5 -312.5v-612h-152v590q0 155 -50 236t-165 81q-107 0 -183 -61.5t-113 -166.5t-37 -243v-436h-152v590q0 155 -50 236t-165 81
q-160 0 -247 -130t-87 -341v-436h-151z" />
    <glyph glyph-name="n" unicode="n" horiz-adv-x="1220" 
d="M152 0v1016h151v-283q42 144 150 223.5t272 79.5q173 0 269 -107.5t96 -305.5v-623h-154v610q0 157 -63 227t-199 70q-170 0 -270.5 -129t-100.5 -336v-442h-151z" />
    <glyph glyph-name="o" unicode="o" horiz-adv-x="1284" 
d="M111 508q0 146 64 265.5t186.5 191t281.5 71.5q119 0 219.5 -41.5t168 -113t105.5 -168t38 -205.5t-38 -205.5t-105.5 -168t-168 -113t-219.5 -41.5q-159 0 -281.5 71.5t-186.5 191t-64 265.5zM262 508q0 -110 42 -199t130 -144.5t209 -55.5q120 0 207.5 55.5
t129.5 144.5t42 199t-42 199t-129.5 144.5t-207.5 55.5q-121 0 -209 -55.5t-130 -144.5t-42 -199z" />
    <glyph glyph-name="p" unicode="p" 
d="M152 -373v1389h151v-258q55 131 169 204.5t276 73.5q213 0 345 -146.5t132 -383.5q0 -234 -132 -380t-345 -146q-164 0 -277.5 74.5t-167.5 203.5v-631h-151zM309 506q0 -126 56 -218t143.5 -135.5t191.5 -43.5q78 0 145 24.5t118.5 72t80.5 125t29 175.5
q0 196 -105 298.5t-268 102.5q-78 0 -147 -25.5t-124 -74t-87.5 -126.5t-32.5 -175z" />
    <glyph glyph-name="q" unicode="q" 
d="M1184 1016v-1389h-152v635q-53 -131 -166 -206.5t-278 -75.5q-213 0 -345 146t-132 380q0 237 132 383.5t345 146.5q162 0 276 -75t168 -207v262h152zM262 506q0 -193 104.5 -295t266.5 -102q78 0 148 25.5t125 74t87.5 125.5t32.5 172q0 97 -32.5 175t-87.5 126.5
t-125 74t-148 25.5q-162 0 -266.5 -102.5t-104.5 -298.5z" />
    <glyph glyph-name="r" unicode="r" horiz-adv-x="894" 
d="M152 881q0 69 33.5 102t103.5 33h555v-129h-541v-887h-151v881z" />
    <glyph glyph-name="s" unicode="s" horiz-adv-x="1013" 
d="M559 -20q-220 0 -343.5 104t-123.5 291h152q0 -133 82.5 -202t232.5 -69q232 0 232 162q0 58 -37.5 93.5t-124.5 60.5l-264 78q-232 67 -232 264q0 130 100 202t275 72q191 0 299 -88.5t108 -249.5h-151q0 99 -67 156t-187 57q-104 0 -164.5 -40t-60.5 -103
q0 -55 36.5 -91t114.5 -59l238 -69q134 -38 200 -106t66 -179q0 -137 -98 -210.5t-283 -73.5z" />
    <glyph glyph-name="t" unicode="t" horiz-adv-x="870" 
d="M780 129v-129h-372q-69 0 -102.5 33.5t-33.5 103.5v750h-221v129h221v270l152 45v-315h315v-129h-315v-760z" />
    <glyph glyph-name="u" unicode="u" horiz-adv-x="1220" 
d="M496 -20q-173 0 -269 107.5t-96 305.5v623h154v-610q0 -158 63.5 -227.5t198.5 -69.5q170 0 270.5 128.5t100.5 335.5v443h151v-1016h-151v283q-42 -144 -150 -223.5t-272 -79.5z" />
    <glyph glyph-name="v" unicode="v" horiz-adv-x="1087" 
d="M891 1016h151l-366 -1016h-258l-373 1016h156l346 -957z" />
    <glyph glyph-name="w" unicode="w" horiz-adv-x="1757" 
d="M76 1016h143l252 -848l27 -100l254 948h256l252 -936l24 90l252 846h143l-295 -1016h-251l-254 954l-252 -954h-260z" />
    <glyph glyph-name="x" unicode="x" horiz-adv-x="1132" 
d="M72 0l377 510l-377 506h172l321 -441l322 441h174l-377 -506l377 -510h-174l-322 440l-321 -440h-172z" />
    <glyph glyph-name="y" unicode="y" horiz-adv-x="1202" 
d="M1071 1016v-1016h2v-276q0 -119 -135 -119h-758v129h742v266h-2v283q-42 -144 -150 -223.5t-272 -79.5q-173 0 -269 107.5t-96 305.5v623h154v-610q0 -157 63 -227t199 -70q170 0 270.5 128.5t100.5 335.5v443h151z" />
    <glyph glyph-name="z" unicode="z" horiz-adv-x="1085" 
d="M111 0v250l809 643h-809v123h864v-248l-809 -645h809v-123h-864z" />
    <glyph glyph-name="braceleft" unicode="{" horiz-adv-x="974" 
d="M174 627q179 23 255.5 104t76.5 211q0 133 -68.5 225t-177.5 107v170h541v-103h-467q151 -45 224 -152.5t73 -246.5q0 -142 -78 -242t-231 -133q153 -33 231 -134t78 -243q0 -138 -73 -243t-226 -152h469v-102h-541v170q111 17 178.5 106.5t67.5 220.5q0 130 -77 212.5
t-255 105.5v119z" />
    <glyph glyph-name="bar" unicode="|" horiz-adv-x="473" 
d="M174 1747h125v-2050h-125v2050z" />
    <glyph glyph-name="braceright" unicode="}" horiz-adv-x="974" 
d="M801 510q-179 -23 -255.5 -104t-76.5 -211q0 -133 68.5 -225t177.5 -107v-170h-541v102h467q-151 45 -224 153t-73 247q0 142 78 241.5t231 132.5q-153 33 -231 134t-78 243q0 138 73 243t226 152h-469v103h541v-170q-111 -17 -178.5 -107t-67.5 -221q0 -130 77 -211.5
t255 -105.5v-119z" />
    <glyph glyph-name="asciitilde" unicode="~" horiz-adv-x="1308" 
d="M174 385q0 73 21.5 128t57 85t75.5 44.5t82 14.5q66 0 137 -25.5t121.5 -56t113 -56t113.5 -25.5q115 0 115 143h125q0 -72 -21.5 -126.5t-57 -84.5t-75.5 -44.5t-82 -14.5q-66 0 -137.5 25.5t-122 56t-113 56t-112.5 25.5q-115 0 -115 -145h-125z" />
    <glyph glyph-name="exclamdown" unicode="&#xa1;" horiz-adv-x="675" 
d="M340 1036q69 0 115.5 -47.5t46.5 -118.5q0 -68 -46.5 -114.5t-115.5 -46.5q-68 0 -117 47t-49 114q0 70 49 118t117 48zM262 -428l14 948h121l17 -948h-152z" />
    <glyph glyph-name="cent" unicode="&#xa2;" horiz-adv-x="1202" 
d="M111 723q0 204 114.5 349.5t315.5 172.5v502l118 -2v-496q58 -4 113.5 -19.5t111 -47t98.5 -76t73 -110.5t37 -146h-152q-39 252 -281 270l3 -796q109 8 183 73.5t95 198.5h152q-7 -80 -37 -146t-72.5 -110.5t-97.5 -76t-110.5 -47t-112.5 -19.5v-500l-119 2v502
q-136 17 -235 92t-148 185.5t-49 244.5zM260 723q0 -150 72 -258t211 -135l-2 784q-137 -27 -209 -135t-72 -256z" />
    <glyph glyph-name="sterling" unicode="&#xa3;" horiz-adv-x="1261" 
d="M174 195q295 109 295 354q0 47 -14 115h-281v90h252q-10 29 -35 94.5t-38.5 104t-25.5 93.5t-12 101q0 58 14 104t35.5 77t58.5 53t72.5 34t87.5 19t94 8.5t101 1.5h402v-129h-377q-78 0 -128.5 -4t-93.5 -15.5t-66 -33t-35.5 -55.5t-12.5 -85q0 -41 12 -91.5t25 -86
t38 -98.5t36 -92h428v-90h-402q19 -68 19 -127q0 -70 -21.5 -128.5t-56 -100.5t-85.5 -77.5t-102 -58t-114 -43.5h936v-129h-1006v195z" />
    <glyph glyph-name="currency" unicode="&#xa4;" horiz-adv-x="1370" 
d="M690 305q-143 0 -254 80l-286 -287l-89 86l289 289q-78 111 -78 250t76 248l-287 286l89 86l284 -284q109 82 256 82q142 0 250 -78l281 280l88 -86l-281 -280q82 -108 82 -254q0 -145 -84 -256l283 -283l-88 -86l-283 283q-110 -76 -248 -76zM397 723q0 -122 83 -207.5
t210 -85.5t210 85.5t83 207.5q0 121 -83 207t-210 86t-210 -86t-83 -207z" />
    <glyph glyph-name="yen" unicode="&#xa5;" horiz-adv-x="1349" 
d="M1110 1444h162l-449 -785h271v-118h-344v-103h344v-119h-344v-319h-152v319h-344v119h344v103h-344v118h272l-450 785h162l436 -776z" />
    <glyph glyph-name="brokenbar" unicode="&#xa6;" horiz-adv-x="473" 
d="M174 989v758h125v-758h-125zM174 -303v758h125v-758h-125z" />
    <glyph glyph-name="section" unicode="&#xa7;" horiz-adv-x="1329" 
d="M666 -371q-104 0 -186 23t-134 61t-86.5 91t-48.5 109.5t-14 119.5h153q0 -144 82.5 -218.5t239.5 -74.5q126 0 202 50.5t76 160.5q0 81 -50 122.5t-177 82.5l-283 92q-282 91 -282 317q0 116 68 197.5t202 103.5q-188 79 -188 269q0 148 113 235.5t321 87.5
q101 0 181.5 -22.5t133 -60.5t87 -90.5t49 -109.5t14.5 -120h-154q0 144 -81 216t-238 72q-80 0 -138.5 -18t-96.5 -65.5t-38 -122.5q0 -77 48.5 -120.5t181.5 -86.5l274 -90q287 -91 287 -316q0 -113 -67 -197.5t-195 -105.5q180 -77 180 -264q0 -152 -111.5 -240
t-324.5 -88zM309 588q0 -167 195 -228l190 -61q110 -35 185 -13t114 80t39 138q0 164 -182 223l-201 64q-150 48 -245 -15t-95 -188z" />
    <glyph glyph-name="dieresis" unicode="&#xa8;" horiz-adv-x="1038" 
d="M315 1184q-60 0 -100.5 41t-40.5 100q0 57 41 98t100 41t101.5 -41t42.5 -98q0 -58 -42.5 -99.5t-101.5 -41.5zM582 1325q0 57 40.5 98t98.5 41q60 0 101.5 -41t41.5 -98q0 -59 -41.5 -100t-101.5 -41q-58 0 -98.5 41t-40.5 100z" />
    <glyph glyph-name="copyright" unicode="&#xa9;" horiz-adv-x="2269" 
d="M1135 -473q-208 0 -391.5 76t-315 207.5t-207.5 315.5t-76 392t76 391.5t207.5 314.5t315 207t391.5 76t391.5 -76t314.5 -207t207 -314.5t76 -391.5t-76 -392t-207 -315.5t-314.5 -207.5t-391.5 -76zM254 518q0 -188 67.5 -354t184 -284t280.5 -186.5t349 -68.5
t348.5 68.5t280 186.5t184 284t67.5 354t-67.5 354t-184 284t-280 186.5t-348.5 68.5t-349 -68.5t-280.5 -186.5t-184 -284t-67.5 -354zM633 508q0 147 58.5 265t177 190.5t278.5 72.5q59 0 118.5 -13t119.5 -43.5t107.5 -75.5t80.5 -114.5t41 -154.5h-154
q-22 144 -105.5 208t-207.5 64q-90 0 -161 -32t-114 -87.5t-65.5 -126.5t-22.5 -153t22.5 -153t65.5 -126.5t114 -87.5t161 -32q124 0 207.5 64t105.5 208h154q-8 -85 -41 -154.5t-80.5 -114.5t-107.5 -75.5t-119.5 -43.5t-118.5 -13q-160 0 -278.5 72.5t-177 190.5
t-58.5 265z" />
    <glyph glyph-name="guillemotleft" unicode="&#xab;" horiz-adv-x="1409" 
d="M836 41l-103 -90l-559 557l559 555l103 -90l-469 -465zM575 508l560 555l102 -90l-469 -465l469 -467l-102 -90z" />
    <glyph glyph-name="logicalnot" unicode="&#xac;" horiz-adv-x="1198" 
d="M174 729h963v-479h-125v354h-838v125z" />
    <glyph glyph-name="registered" unicode="&#xae;" horiz-adv-x="1318" 
d="M659 565q-223 0 -354 139t-131 347q0 135 56 244t168 175t261 66t261 -65.5t168.5 -175t56.5 -244.5t-56.5 -244.5t-168.5 -175.5t-261 -66zM270 1051q0 -81 26 -153t74 -127.5t122.5 -87.5t166.5 -32q122 0 212 55.5t134 145.5t44 199t-44 198.5t-134 145t-212 55.5
q-92 0 -166.5 -32t-122.5 -87t-74 -127t-26 -153zM453 813v481h196q39 0 70.5 -3t64.5 -12t55 -23.5t36 -40.5t14 -60q0 -44 -19 -74.5t-51 -42.5h8q29 0 45.5 -16t16.5 -43v-166h-98v160h-242v-160h-96zM549 1061h121q66 0 93.5 15t27.5 59q0 42 -27 56.5t-94 14.5h-121
v-145z" />
    <glyph glyph-name="macron" unicode="&#xaf;" horiz-adv-x="985" 
d="M174 1393h637v-125l-637 -2v127z" />
    <glyph glyph-name="degree" unicode="&#xb0;" horiz-adv-x="960" 
d="M481 608q-185 0 -302.5 121t-117.5 297t117.5 297t302.5 121q184 0 301 -121.5t117 -296.5t-117 -296.5t-301 -121.5zM186 1026q0 -121 83.5 -207t211.5 -86q127 0 210 86t83 207t-83 207t-210 86q-128 0 -211.5 -86t-83.5 -207z" />
    <glyph glyph-name="plusminus" unicode="&#xb1;" horiz-adv-x="1310" 
d="M174 733h418v295h127v-295h418v-125h-418v-293h-127v293h-418v125zM174 55v127h963v-127h-963z" />
    <glyph glyph-name="uni00B2" unicode="&#xb2;" horiz-adv-x="960" 
d="M74 1468q0 130 33.5 228t93.5 156t137.5 86t171.5 28q168 0 268.5 -89t100.5 -253q0 -94 -37 -175.5t-101.5 -142.5t-156.5 -110.5t-196.5 -83t-227.5 -55.5h719v-117h-791v215q27 3 69.5 11t106 26t127 42.5t128.5 63t114.5 84t80.5 108.5t31 134q0 108 -59.5 166.5
t-175.5 58.5q-303 0 -303 -381h-133z" />
    <glyph glyph-name="uni00B3" unicode="&#xb3;" horiz-adv-x="974" 
d="M211 1325q0 -153 69 -218t218 -65q254 0 254 197q0 176 -187 176h-137v111h137q172 0 172 147q0 176 -239 176q-142 0 -207.5 -55.5t-65.5 -173.5h-133q0 170 107 258t303 88q177 0 273.5 -73t96.5 -193q0 -91 -46.5 -149.5t-133.5 -77.5q195 -49 195 -254
q0 -138 -102.5 -215.5t-282.5 -77.5q-203 0 -313.5 97t-110.5 302h133z" />
    <glyph glyph-name="acute" unicode="&#xb4;" horiz-adv-x="989" 
d="M205 1188l-31 121l610 159l31 -120z" />
    <glyph glyph-name="paragraph" unicode="&#xb6;" horiz-adv-x="1329" 
d="M776 500q-311 0 -456.5 119t-145.5 352t145.5 353t456.5 120h127v-1784h-127v840zM1051 -340v1784h127v-1784h-127z" />
    <glyph glyph-name="periodcentered" unicode="&#xb7;" horiz-adv-x="675" 
d="M336 344q-69 0 -115.5 47.5t-46.5 118.5q0 68 46.5 115t115.5 47q68 0 117 -47.5t49 -114.5q0 -70 -49 -118t-117 -48z" />
    <glyph glyph-name="cedilla" unicode="&#xb8;" horiz-adv-x="759" 
d="M174 -254q85 0 123.5 1t84.5 7t62.5 20t16.5 38q0 43 -47 43q-30 0 -59.5 -11t-80.5 -45l-69 95l92 106h145l-114 -115q67 29 131 29q54 0 91.5 -28.5t37.5 -84.5q0 -38 -12.5 -67t-39.5 -48t-60 -31.5t-83.5 -18.5t-100 -8.5t-118.5 -2.5v121z" />
    <glyph glyph-name="uni00B9" unicode="&#xb9;" horiz-adv-x="710" 
d="M463 940v944q-7 -88 -26 -158t-57 -137.5t-105 -117.5t-162 -78l-43 116q143 55 208 165.5t68 277.5h252v-1012h-135z" />
    <glyph glyph-name="guillemotright" unicode="&#xbb;" horiz-adv-x="1409" 
d="M573 973l103 90l559 -557l-561 -555l-103 90l471 465zM172 41l469 465l-469 467l102 90l560 -557l-560 -555z" />
    <glyph glyph-name="onequarter" unicode="&#xbc;" horiz-adv-x="2068" 
d="M463 428v944q-7 -88 -26 -158t-57 -137.5t-105 -117.5t-162 -78l-43 116q143 55 208 165.5t68 277.5h252v-1012h-135zM580 27l712 1425l113 -49l-713 -1426zM1200 215v225q179 70 299.5 220t140.5 352h136q-53 -478 -525 -680h482v344h135v-344h127v-117h-127v-215h-135
v215h-533z" />
    <glyph glyph-name="onehalf" unicode="&#xbd;" horiz-adv-x="2248" 
d="M463 428v944q-7 -88 -26 -158t-57 -137.5t-105 -117.5t-162 -78l-43 116q143 55 208 165.5t68 277.5h252v-1012h-135zM580 27l712 1425l113 -49l-713 -1426zM1360 528q0 130 33.5 228t93.5 156t137.5 86t171.5 28q168 0 268.5 -89t100.5 -253q0 -94 -37 -175.5
t-101.5 -142.5t-156.5 -110.5t-196.5 -83t-227.5 -55.5h719v-117h-791v215q27 3 69.5 11t106 26t127 42.5t129 63t114.5 84t80.5 108.5t31.5 134q0 108 -60 166.5t-176 58.5q-303 0 -303 -381h-133z" />
    <glyph glyph-name="threequarters" unicode="&#xbe;" horiz-adv-x="2301" 
d="M211 817q0 -153 69 -217.5t218 -64.5q254 0 254 196q0 176 -187 176h-137v111h137q172 0 172 147q0 176 -239 176q-142 0 -207.5 -55.5t-65.5 -173.5h-133q0 170 107 258t303 88q177 0 273.5 -73t96.5 -193q0 -91 -46.5 -149.5t-133.5 -77.5q195 -49 195 -254
q0 -138 -102.5 -215.5t-282.5 -77.5q-203 0 -313.5 97t-110.5 302h133zM813 27l713 1425l112 -49l-712 -1426zM1434 215v225q179 70 299.5 220t140.5 352h135q-54 -479 -524 -680h481v344h135v-344h127v-117h-127v-215h-135v215h-532z" />
    <glyph glyph-name="questiondown" unicode="&#xbf;" horiz-adv-x="880" 
d="M442 1036q69 0 115.5 -47.5t46.5 -118.5q0 -68 -46.5 -114.5t-115.5 -46.5q-68 0 -117 47t-49 114q0 70 49 118t117 48zM16 -119q0 104 47.5 192t132.5 152t195 108t242 68h-477v113h573v-205q-43 -3 -90 -11.5t-104 -25t-109.5 -38.5t-103 -56t-87 -74t-59 -95
t-22.5 -118q0 -107 68.5 -171t193.5 -64q151 0 232 85t81 241h137q0 -202 -117.5 -320.5t-334.5 -118.5q-191 0 -294.5 93.5t-103.5 244.5z" />
    <glyph glyph-name="Agrave" unicode="&#xc0;" horiz-adv-x="1394" 
d="M63 0l498 1444h273l497 -1444h-157l-199 575h-555l-199 -575h-158zM379 1776l31 120l610 -159l-31 -121zM465 705h467l-234 675z" />
    <glyph glyph-name="Aacute" unicode="&#xc1;" horiz-adv-x="1394" 
d="M63 0l498 1444h273l497 -1444h-157l-199 575h-555l-199 -575h-158zM375 1737l610 159l31 -120l-610 -160zM465 705h467l-234 675z" />
    <glyph glyph-name="Acircumflex" unicode="&#xc2;" horiz-adv-x="1394" 
d="M63 0l498 1444h273l497 -1444h-157l-199 575h-555l-199 -575h-158zM377 1669l319 264l322 -264l-90 -90l-232 195l-229 -195zM465 705h467l-234 675z" />
    <glyph glyph-name="Atilde" unicode="&#xc3;" horiz-adv-x="1394" 
d="M63 0l498 1444h273l497 -1444h-157l-199 575h-555l-199 -575h-158zM338 1636q0 269 199 269q47 0 88 -17t69 -41t52 -48t49 -41t49 -17q40 0 63 29.5t23 113.5h125q0 -141 -53.5 -204.5t-145.5 -63.5q-47 0 -88 17t-68.5 41t-51.5 48t-49.5 41t-49.5 17q-40 0 -63 -30
t-23 -114h-125zM465 705h467l-234 675z" />
    <glyph glyph-name="Adieresis" unicode="&#xc4;" horiz-adv-x="1394" 
d="M63 0l498 1444h273l497 -1444h-157l-199 575h-555l-199 -575h-158zM352 1753q0 57 41 98t101 41q59 0 101 -41t42 -98q0 -58 -42 -99.5t-101 -41.5q-60 0 -101 41t-41 100zM465 705h467l-234 675zM760 1753q0 57 40.5 98t98.5 41q60 0 101.5 -41t41.5 -98
q0 -59 -41.5 -100t-101.5 -41q-58 0 -98.5 41t-40.5 100z" />
    <glyph glyph-name="Aring" unicode="&#xc5;" horiz-adv-x="1394" 
d="M63 0l498 1444h273l497 -1444h-157l-199 575h-555l-199 -575h-158zM463 1794q0 90 62 154.5t171 64.5t171.5 -64.5t62.5 -154.5q0 -89 -63 -154t-171 -65q-109 0 -171 64.5t-62 154.5zM465 705h467l-234 675zM586 1794q0 -47 28 -73.5t82 -26.5t82.5 26.5t28.5 73.5
q0 45 -29 71.5t-82 26.5q-54 0 -82 -26t-28 -72z" />
    <glyph glyph-name="AE" unicode="&#xc6;" horiz-adv-x="2070" 
d="M-16 0l860 1444h1114v-131h-825v-525h722v-129h-722v-528h825v-131h-977v575h-483l-344 -575h-170zM575 707h406v677z" />
    <glyph glyph-name="Ccedilla" unicode="&#xc7;" horiz-adv-x="1574" 
d="M592 -254q85 0 123.5 1t84.5 7t62.5 20t16.5 38q0 43 -48 43q-29 0 -58 -11t-81 -45l-69 95l79 92q-177 22 -308 124t-198 260t-67 353q0 211 78.5 378t232 265t359.5 98q273 0 444 -154t203 -423h-154q-25 214 -151 330t-342 116q-126 0 -225 -45.5t-162.5 -127.5
t-96 -193t-32.5 -244q0 -134 32.5 -245t96 -193.5t162.5 -128t225 -45.5q216 0 342 116.5t151 331.5h154q-31 -259 -190 -412.5t-414 -166.5l-97 -95q67 29 132 29q54 0 91.5 -28.5t37.5 -84.5q0 -38 -12.5 -67t-39.5 -48t-60 -31.5t-83.5 -18.5t-100 -8.5t-118.5 -2.5v121z
" />
    <glyph glyph-name="Egrave" unicode="&#xc8;" horiz-adv-x="1243" 
d="M154 0v1444h976v-131h-825v-525h723v-129h-723v-528h825v-131h-976zM276 1776l31 120l611 -159l-31 -121z" />
    <glyph glyph-name="Eacute" unicode="&#xc9;" horiz-adv-x="1243" 
d="M154 0v1444h976v-131h-825v-525h723v-129h-723v-528h825v-131h-976zM272 1737l611 159l30 -120l-610 -160z" />
    <glyph glyph-name="Ecircumflex" unicode="&#xca;" horiz-adv-x="1243" 
d="M154 0v1444h976v-131h-825v-525h723v-129h-723v-528h825v-131h-976zM274 1669l320 264l321 -264l-90 -90l-231 195l-229 -195z" />
    <glyph glyph-name="Edieresis" unicode="&#xcb;" horiz-adv-x="1243" 
d="M154 0v1444h976v-131h-825v-525h723v-129h-723v-528h825v-131h-976zM250 1753q0 57 41 98t100 41t101.5 -41t42.5 -98q0 -58 -42.5 -99.5t-101.5 -41.5q-60 0 -100.5 41t-40.5 100zM657 1753q0 57 41 98t99 41q60 0 101.5 -41t41.5 -98q0 -59 -41.5 -100t-101.5 -41
q-58 0 -99 41t-41 100z" />
    <glyph glyph-name="Igrave" unicode="&#xcc;" horiz-adv-x="1060" 
d="M131 1444h797v-131h-322v-1182h322v-131h-797v131h324v1182h-324v131zM211 1776l31 120l610 -159l-31 -121z" />
    <glyph glyph-name="Iacute" unicode="&#xcd;" horiz-adv-x="1060" 
d="M131 1444h797v-131h-322v-1182h322v-131h-797v131h324v1182h-324v131zM209 1737l610 159l31 -120l-610 -160z" />
    <glyph glyph-name="Icircumflex" unicode="&#xce;" horiz-adv-x="1060" 
d="M131 1444h797v-131h-322v-1182h322v-131h-797v131h324v1182h-324v131zM211 1669l319 264l322 -264l-90 -90l-232 195l-229 -195z" />
    <glyph glyph-name="Idieresis" unicode="&#xcf;" horiz-adv-x="1060" 
d="M131 1444h797v-131h-322v-1182h322v-131h-797v131h324v1182h-324v131zM184 1753q0 57 41 98t101 41q59 0 101 -41t42 -98q0 -58 -42 -99.5t-101 -41.5q-60 0 -101 41t-41 100zM592 1753q0 57 40.5 98t98.5 41q60 0 101.5 -41t41.5 -98q0 -59 -41.5 -100t-101.5 -41
q-58 0 -98.5 41t-40.5 100z" />
    <glyph glyph-name="Eth" unicode="&#xd0;" horiz-adv-x="1464" 
d="M164 0v657h-182v125h182v662h450q80 0 149 -7t144 -27.5t135 -53.5t115.5 -88.5t92.5 -129.5t59 -179.5t22 -235.5t-22 -236t-59 -180t-92.5 -130t-115.5 -89t-135 -53.5t-144 -27.5t-149 -7h-450zM315 131h299q63 0 112 4t110.5 18t107 38.5t92 69t76 105.5t48 152
t18.5 205q0 113 -18.5 204t-48 151.5t-76 105t-92 69t-107 38.5t-110.5 18t-112 4h-299v-531h369v-125h-369v-526z" />
    <glyph glyph-name="Ntilde" unicode="&#xd1;" horiz-adv-x="1533" 
d="M154 0v1444h280l795 -1385v1385h151v-1444h-280l-795 1384v-1384h-151zM451 1636q0 269 198 269q47 0 88 -17t69 -41t52 -48t49 -41t49 -17q40 0 63 29.5t23 113.5h125q0 -268 -198 -268q-47 0 -88 17t-68.5 41t-51.5 48t-49.5 41t-49.5 17q-40 0 -63.5 -30t-23.5 -114
h-124z" />
    <glyph glyph-name="Ograve" unicode="&#xd2;" horiz-adv-x="1595" 
d="M129 723q0 211 78.5 378t232 265t359.5 98q205 0 357.5 -98t230 -265t77.5 -378q0 -158 -45.5 -294t-129 -236t-210 -156.5t-280.5 -56.5q-206 0 -359.5 98t-232 265.5t-78.5 379.5zM283 723q0 -133 32.5 -244t95.5 -193.5t162 -128.5t226 -46t225.5 46t160.5 128.5
t94 193t32 244.5t-32 244.5t-94 192.5t-160.5 127.5t-225.5 45.5t-226 -46t-162 -128t-95.5 -192.5t-32.5 -243.5zM479 1776l31 120l610 -159l-30 -121z" />
    <glyph glyph-name="Oacute" unicode="&#xd3;" horiz-adv-x="1595" 
d="M129 723q0 211 78.5 378t232 265t359.5 98q205 0 357.5 -98t230 -265t77.5 -378q0 -158 -45.5 -294t-129 -236t-210 -156.5t-280.5 -56.5q-206 0 -359.5 98t-232 265.5t-78.5 379.5zM283 723q0 -133 32.5 -244t95.5 -193.5t162 -128.5t226 -46t225.5 46t160.5 128.5
t94 193t32 244.5t-32 244.5t-94 192.5t-160.5 127.5t-225.5 45.5t-226 -46t-162 -128t-95.5 -192.5t-32.5 -243.5zM477 1737l610 159l31 -120l-610 -160z" />
    <glyph glyph-name="Ocircumflex" unicode="&#xd4;" horiz-adv-x="1595" 
d="M129 723q0 211 78.5 378t232 265t359.5 98q205 0 357.5 -98t230 -265t77.5 -378q0 -158 -45.5 -294t-129 -236t-210 -156.5t-280.5 -56.5q-206 0 -359.5 98t-232 265.5t-78.5 379.5zM283 723q0 -133 32.5 -244t95.5 -193.5t162 -128.5t226 -46t225.5 46t160.5 128.5
t94 193t32 244.5t-32 244.5t-94 192.5t-160.5 127.5t-225.5 45.5t-226 -46t-162 -128t-95.5 -192.5t-32.5 -243.5zM479 1669l320 264l321 -264l-90 -90l-231 195l-230 -195z" />
    <glyph glyph-name="Otilde" unicode="&#xd5;" horiz-adv-x="1595" 
d="M129 723q0 211 78.5 378t232 265t359.5 98q205 0 357.5 -98t230 -265t77.5 -378q0 -158 -45.5 -294t-129 -236t-210 -156.5t-280.5 -56.5q-206 0 -359.5 98t-232 265.5t-78.5 379.5zM283 723q0 -133 32.5 -244t95.5 -193.5t162 -128.5t226 -46t225.5 46t160.5 128.5
t94 193t32 244.5t-32 244.5t-94 192.5t-160.5 127.5t-225.5 45.5t-226 -46t-162 -128t-95.5 -192.5t-32.5 -243.5zM440 1636q0 269 199 269q47 0 88 -17t69 -41t52 -48t49 -41t49 -17q40 0 63 29.5t23 113.5h125q0 -141 -53.5 -204.5t-145.5 -63.5q-47 0 -88 17t-68.5 41
t-51.5 48t-49.5 41t-49.5 17q-40 0 -63 -30t-23 -114h-125z" />
    <glyph glyph-name="Odieresis" unicode="&#xd6;" horiz-adv-x="1595" 
d="M129 723q0 211 78.5 378t232 265t359.5 98q205 0 357.5 -98t230 -265t77.5 -378q0 -158 -45.5 -294t-129 -236t-210 -156.5t-280.5 -56.5q-206 0 -359.5 98t-232 265.5t-78.5 379.5zM283 723q0 -133 32.5 -244t95.5 -193.5t162 -128.5t226 -46t225.5 46t160.5 128.5
t94 193t32 244.5t-32 244.5t-94 192.5t-160.5 127.5t-225.5 45.5t-226 -46t-162 -128t-95.5 -192.5t-32.5 -243.5zM453 1753q0 57 40.5 98t100.5 41q59 0 101 -41t42 -98q0 -58 -42 -99.5t-101 -41.5q-60 0 -100.5 41t-40.5 100zM860 1753q0 57 40.5 98t98.5 41
q60 0 102 -41t42 -98q0 -59 -42 -100t-102 -41q-58 0 -98.5 41t-40.5 100z" />
    <glyph glyph-name="multiply" unicode="&#xd7;" horiz-adv-x="1118" 
d="M262 895l297 -295l295 295l90 -88l-297 -297l297 -295l-90 -88l-295 295l-297 -295l-88 88l297 297l-297 295z" />
    <glyph glyph-name="Oslash" unicode="&#xd8;" horiz-adv-x="1599" 
d="M129 723q0 211 78.5 378t232 265t359.5 98q175 0 315 -73l100 174l107 -62l-104 -180q120 -99 183.5 -254.5t63.5 -345.5q0 -158 -45.5 -294t-129 -236t-210 -156.5t-280.5 -56.5q-178 0 -318 73l-102 -176l-105 62l105 182q-121 99 -185.5 255.5t-64.5 346.5zM283 723
q0 -315 166 -481l600 1034q-108 57 -250 57q-127 0 -226 -46t-162 -128t-95.5 -192.5t-32.5 -243.5zM549 168q108 -57 250 -57q127 0 225.5 46t160.5 128.5t94 193t32 244.5q0 318 -164 479z" />
    <glyph glyph-name="Ugrave" unicode="&#xd9;" horiz-adv-x="1353" 
d="M113 537v907h153v-893q0 -227 94.5 -333.5t315.5 -106.5t317.5 107t96.5 333v893h153v-907q0 -557 -567 -557q-288 0 -425.5 141t-137.5 416zM358 1776l31 120l610 -159l-30 -121z" />
    <glyph glyph-name="Uacute" unicode="&#xda;" horiz-adv-x="1353" 
d="M113 537v907h153v-893q0 -227 94.5 -333.5t315.5 -106.5t317.5 107t96.5 333v893h153v-907q0 -557 -567 -557q-288 0 -425.5 141t-137.5 416zM354 1737l611 159l30 -120l-610 -160z" />
    <glyph glyph-name="Ucircumflex" unicode="&#xdb;" horiz-adv-x="1353" 
d="M113 537v907h153v-893q0 -227 94.5 -333.5t315.5 -106.5t317.5 107t96.5 333v893h153v-907q0 -557 -567 -557q-288 0 -425.5 141t-137.5 416zM356 1669l320 264l321 -264l-90 -90l-231 195l-230 -195z" />
    <glyph glyph-name="Udieresis" unicode="&#xdc;" horiz-adv-x="1353" 
d="M113 537v907h153v-893q0 -227 94.5 -333.5t315.5 -106.5t317.5 107t96.5 333v893h153v-907q0 -557 -567 -557q-288 0 -425.5 141t-137.5 416zM332 1753q0 57 41 98t100 41t101 -41t42 -98q0 -58 -42 -99.5t-101 -41.5q-60 0 -100.5 41t-40.5 100zM739 1753q0 57 41 98
t99 41q60 0 101.5 -41t41.5 -98q0 -59 -41.5 -100t-101.5 -41q-58 0 -99 41t-41 100z" />
    <glyph glyph-name="Yacute" unicode="&#xdd;" 
d="M1104 1444h162l-471 -826h-52v-618h-151v618h-49l-473 826h161l437 -776zM346 1737l610 159l31 -120l-610 -160z" />
    <glyph glyph-name="Thorn" unicode="&#xde;" horiz-adv-x="1251" 
d="M154 0v1444h151v-252h242q116 0 205.5 -13.5t164.5 -46.5t123 -86t74.5 -134t26.5 -189q0 -136 -39.5 -229t-119 -146t-184.5 -75.5t-251 -22.5h-242v-250h-151zM305 381h244q82 0 143 7.5t119.5 29t95 58.5t58.5 99t22 148q0 85 -22 146t-58.5 98t-95 58.5t-119.5 28.5
t-143 7h-244v-680z" />
    <glyph glyph-name="germandbls" unicode="&#xdf;" horiz-adv-x="1099" 
d="M418 0v129l258 2q126 1 185 58t59 169q0 82 -34 133t-95 93l-89 59q-9 6 -33.5 23t-34 24.5t-27.5 24t-25.5 30.5t-14 35.5t-6.5 46.5q0 17 2.5 32t5.5 26t10 24.5t11.5 20.5t15.5 19.5t15.5 17.5t19 19t18.5 18l66 61q59 56 59 141q0 87 -58.5 136t-166.5 49
q-122 0 -189 -71t-67 -208v-1112h-149v1122q0 198 106 298t297 100q186 0 283.5 -82.5t97.5 -218.5q0 -119 -88 -201l-68 -64q-5 -5 -17.5 -18t-17 -18t-13 -16t-12 -19t-6.5 -19.5t-3 -23.5q0 -18 5 -32t20 -28t23 -20.5t33 -22.5t31 -20l82 -58q34 -24 58.5 -47t51 -59
t40.5 -85.5t14 -109.5q0 -183 -106 -270.5t-285 -87.5h-262z" />
    <glyph glyph-name="agrave" unicode="&#xe0;" horiz-adv-x="1202" 
d="M111 283q0 125 79 201.5t246 90.5l414 39q-9 151 -77.5 223t-211.5 72q-116 0 -189 -60.5t-87 -191.5h-154q21 174 130.5 276.5t299.5 102.5q216 0 328 -125t112 -331v-451h150v-129h-176q-57 0 -87 30.5t-30 86.5v135q-39 -120 -140.5 -196t-271.5 -76q-84 0 -147 22
t-98 53.5t-56 75.5t-27.5 79.5t-6.5 72.5zM256 1348l31 120l610 -159l-31 -121zM262 299q0 -93 53.5 -143t149.5 -50q172 0 278.5 111t106.5 279l-389 -39q-103 -9 -151 -45.5t-48 -112.5z" />
    <glyph glyph-name="aacute" unicode="&#xe1;" horiz-adv-x="1202" 
d="M111 283q0 125 79 201.5t246 90.5l414 39q-9 151 -77.5 223t-211.5 72q-116 0 -189 -60.5t-87 -191.5h-154q21 174 130.5 276.5t299.5 102.5q216 0 328 -125t112 -331v-451h150v-129h-176q-57 0 -87 30.5t-30 86.5v135q-39 -120 -140.5 -196t-271.5 -76q-84 0 -147 22
t-98 53.5t-56 75.5t-27.5 79.5t-6.5 72.5zM254 1309l610 159l31 -120l-610 -160zM262 299q0 -93 53.5 -143t149.5 -50q172 0 278.5 111t106.5 279l-389 -39q-103 -9 -151 -45.5t-48 -112.5z" />
    <glyph glyph-name="acircumflex" unicode="&#xe2;" horiz-adv-x="1202" 
d="M111 283q0 125 79 201.5t246 90.5l414 39q-9 151 -77.5 223t-211.5 72q-116 0 -189 -60.5t-87 -191.5h-154q21 174 130.5 276.5t299.5 102.5q216 0 328 -125t112 -331v-451h150v-129h-176q-57 0 -87 30.5t-30 86.5v135q-39 -120 -140.5 -196t-271.5 -76q-84 0 -147 22
t-98 53.5t-56 75.5t-27.5 79.5t-6.5 72.5zM256 1241l319 264l322 -264l-90 -90l-232 195l-229 -195zM262 299q0 -93 53.5 -143t149.5 -50q172 0 278.5 111t106.5 279l-389 -39q-103 -9 -151 -45.5t-48 -112.5z" />
    <glyph glyph-name="atilde" unicode="&#xe3;" horiz-adv-x="1202" 
d="M111 283q0 125 79 201.5t246 90.5l414 39q-9 151 -77.5 223t-211.5 72q-116 0 -189 -60.5t-87 -191.5h-154q21 174 130.5 276.5t299.5 102.5q216 0 328 -125t112 -331v-451h150v-129h-176q-57 0 -87 30.5t-30 86.5v135q-39 -120 -140.5 -196t-271.5 -76q-84 0 -147 22
t-98 53.5t-56 75.5t-27.5 79.5t-6.5 72.5zM217 1208q0 269 199 269q47 0 88 -17t69 -41t52 -48t49 -41t49 -17q40 0 63 29.5t23 113.5h125q0 -141 -53.5 -204.5t-145.5 -63.5q-47 0 -88 17t-68.5 41t-51.5 48t-49.5 41t-49.5 17q-40 0 -63 -30t-23 -114h-125zM262 299
q0 -93 53.5 -143t149.5 -50q172 0 278.5 111t106.5 279l-389 -39q-103 -9 -151 -45.5t-48 -112.5z" />
    <glyph glyph-name="adieresis" unicode="&#xe4;" horiz-adv-x="1202" 
d="M111 283q0 125 79 201.5t246 90.5l414 39q-9 151 -77.5 223t-211.5 72q-116 0 -189 -60.5t-87 -191.5h-154q21 174 130.5 276.5t299.5 102.5q216 0 328 -125t112 -331v-451h150v-129h-176q-57 0 -87 30.5t-30 86.5v135q-39 -120 -140.5 -196t-271.5 -76q-84 0 -147 22
t-98 53.5t-56 75.5t-27.5 79.5t-6.5 72.5zM229 1325q0 57 41 98t101 41q59 0 101 -41t42 -98q0 -58 -42 -99.5t-101 -41.5q-60 0 -101 41t-41 100zM262 299q0 -93 53.5 -143t149.5 -50q172 0 278.5 111t106.5 279l-389 -39q-103 -9 -151 -45.5t-48 -112.5zM637 1325
q0 57 40.5 98t98.5 41q60 0 102 -41t42 -98q0 -59 -42 -100t-102 -41q-58 0 -98.5 41t-40.5 100z" />
    <glyph glyph-name="aring" unicode="&#xe5;" horiz-adv-x="1202" 
d="M111 283q0 125 79 201.5t246 90.5l414 39q-9 151 -77.5 223t-211.5 72q-116 0 -189 -60.5t-87 -191.5h-154q21 174 130.5 276.5t299.5 102.5q216 0 328 -125t112 -331v-451h150v-129h-176q-57 0 -87 30.5t-30 86.5v135q-39 -120 -140.5 -196t-271.5 -76q-84 0 -147 22
t-98 53.5t-56 75.5t-27.5 79.5t-6.5 72.5zM262 299q0 -93 53.5 -143t149.5 -50q172 0 278.5 111t106.5 279l-389 -39q-103 -9 -151 -45.5t-48 -112.5zM340 1366q0 90 62 154.5t171 64.5t171.5 -64.5t62.5 -154.5q0 -89 -63 -154t-171 -65q-109 0 -171 64.5t-62 154.5z
M463 1366q0 -47 28 -73.5t82 -26.5t82.5 26.5t28.5 73.5q0 45 -29 71.5t-82 26.5q-54 0 -82 -26t-28 -72z" />
    <glyph glyph-name="ae" unicode="&#xe6;" horiz-adv-x="1931" 
d="M111 270q0 135 86 209.5t258 93.5l401 37q0 143 -82.5 223t-218.5 80q-59 0 -110 -15t-94 -46t-68 -86t-25 -127h-145q0 78 29 149.5t83.5 126.5t139 88t188.5 33q133 0 228.5 -56t146.5 -157q60 103 164.5 158t240.5 55q221 0 353.5 -131.5t132.5 -361.5v-62h-818
q5 -168 91.5 -272.5t248.5 -104.5q136 0 219.5 66t112.5 184h150q-14 -58 -36 -108.5t-61 -100.5t-90 -85.5t-125.5 -57.5t-164.5 -22q-172 0 -287 83t-164 226q-50 -139 -164.5 -224t-284.5 -85q-168 0 -251.5 81.5t-83.5 208.5zM262 291q0 -89 57 -140t158 -51
q88 0 162 38t120 99.5t71.5 135t25.5 147.5l-377 -35q-106 -9 -161.5 -58t-55.5 -136zM1004 600h665q-10 147 -101.5 229t-236.5 82q-136 0 -225.5 -83t-101.5 -228z" />
    <glyph glyph-name="ccedilla" unicode="&#xe7;" horiz-adv-x="1202" 
d="M111 508q0 147 58.5 265t177 190.5t278.5 72.5q59 0 118.5 -13t119.5 -43.5t107.5 -75.5t80.5 -114.5t41 -154.5h-154q-22 144 -105.5 208t-207.5 64q-90 0 -161 -32t-114 -87.5t-65.5 -126.5t-22.5 -153t22.5 -153t65.5 -126.5t114 -87.5t161 -32q124 0 207.5 64
t105.5 208h154q-7 -81 -37.5 -148t-74.5 -111.5t-100 -76t-112 -46.5t-113 -19l-96 -95q67 29 131 29q54 0 91.5 -28.5t37.5 -84.5q0 -38 -12.5 -67t-39 -48t-59.5 -31.5t-83.5 -18.5t-100 -8.5t-118.5 -2.5v121q85 0 123.5 1t84 7t62 20t16.5 38q0 43 -47 43q-29 0 -58 -11
t-81 -45l-70 95l82 94q-191 34 -299 178t-108 342z" />
    <glyph glyph-name="egrave" unicode="&#xe8;" horiz-adv-x="1185" 
d="M928 1309l-31 -121l-610 160l30 120zM111 522q0 243 129.5 378.5t347.5 135.5q221 0 353 -131t132 -362v-62h-817q5 -168 91.5 -272.5t248.5 -104.5q136 0 219.5 66t112.5 184h149q-14 -58 -36 -108.5t-61 -100.5t-90 -85.5t-125.5 -57.5t-164.5 -22q-120 0 -215 42.5
t-154 117.5t-89.5 172t-30.5 210zM258 600h666q-10 147 -101.5 229t-236.5 82q-136 0 -226 -83t-102 -228z" />
    <glyph glyph-name="eacute" unicode="&#xe9;" horiz-adv-x="1185" 
d="M315 1188l-30 121l610 159l31 -120zM111 522q0 243 129.5 378.5t347.5 135.5q221 0 353 -131t132 -362v-62h-817q5 -168 91.5 -272.5t248.5 -104.5q136 0 219.5 66t112.5 184h149q-14 -58 -36 -108.5t-61 -100.5t-90 -85.5t-125.5 -57.5t-164.5 -22q-120 0 -215 42.5
t-154 117.5t-89.5 172t-30.5 210zM258 600h666q-10 147 -101.5 229t-236.5 82q-136 0 -226 -83t-102 -228z" />
    <glyph glyph-name="ecircumflex" unicode="&#xea;" horiz-adv-x="1185" 
d="M928 1241l-90 -90l-232 195l-229 -195l-90 90l319 264zM111 522q0 243 129.5 378.5t347.5 135.5q221 0 353 -131t132 -362v-62h-817q5 -168 91.5 -272.5t248.5 -104.5q136 0 219.5 66t112.5 184h149q-14 -58 -36 -108.5t-61 -100.5t-90 -85.5t-125.5 -57.5t-164.5 -22
q-120 0 -215 42.5t-154 117.5t-89.5 172t-30.5 210zM258 600h666q-10 147 -101.5 229t-236.5 82q-136 0 -226 -83t-102 -228z" />
    <glyph glyph-name="edieresis" unicode="&#xeb;" horiz-adv-x="1185" 
d="M401 1184q-60 0 -100.5 41t-40.5 100q0 57 41 98t100 41t101.5 -41t42.5 -98q0 -58 -42.5 -99.5t-101.5 -41.5zM111 522q0 243 129.5 378.5t347.5 135.5q221 0 353 -131t132 -362v-62h-817q5 -168 91.5 -272.5t248.5 -104.5q136 0 219.5 66t112.5 184h149
q-14 -58 -36 -108.5t-61 -100.5t-90 -85.5t-125.5 -57.5t-164.5 -22q-120 0 -215 42.5t-154 117.5t-89.5 172t-30.5 210zM258 600h666q-10 147 -101.5 229t-236.5 82q-136 0 -226 -83t-102 -228zM668 1325q0 57 40.5 98t98.5 41q60 0 101.5 -41t41.5 -98q0 -59 -41.5 -100
t-101.5 -41q-58 0 -98.5 41t-40.5 100z" />
    <glyph glyph-name="igrave" unicode="&#xec;" horiz-adv-x="886" 
d="M113 0v129h280v758h-203v129h238q53 0 78.5 -26.5t25.5 -84.5v-776h285v-129h-704zM125 1348l31 120l610 -159l-31 -121z" />
    <glyph glyph-name="iacute" unicode="&#xed;" horiz-adv-x="886" 
d="M113 0v129h280v758h-203v129h238q53 0 78.5 -26.5t25.5 -84.5v-776h285v-129h-704zM121 1309l610 159l31 -120l-610 -160z" />
    <glyph glyph-name="icircumflex" unicode="&#xee;" horiz-adv-x="890" 
d="M115 0v129h280v758h-202v129h237q53 0 79 -26.5t26 -84.5v-776h284v-129h-704zM125 1241l319 264l322 -264l-90 -90l-232 195l-229 -195z" />
    <glyph glyph-name="idieresis" unicode="&#xef;" horiz-adv-x="892" 
d="M117 0v129h280v758h-202v129h237q53 0 79 -26.5t26 -84.5v-776h284v-129h-704zM98 1325q0 57 41 98t101 41q59 0 101 -41t42 -98q0 -58 -42 -99.5t-101 -41.5q-60 0 -101 41t-41 100zM506 1325q0 57 40.5 98t98.5 41q60 0 101.5 -41t41.5 -98q0 -59 -41.5 -100
t-101.5 -41q-58 0 -98.5 41t-40.5 100z" />
    <glyph glyph-name="eth" unicode="&#xf0;" horiz-adv-x="1325" 
d="M649 -20q-172 0 -295 69.5t-183 189.5t-60 277q0 227 146.5 373.5t385.5 146.5q163 0 282.5 -79.5t172.5 -221.5l-2 19q-18 152 -105.5 272.5t-230.5 204.5l-234 -119l-84 98l176 90q-149 60 -315 84v129q257 -30 461 -139l262 135l86 -98l-225 -115q155 -113 240 -276
t85 -367q0 -314 -153 -493.5t-410 -179.5zM262 516q0 -192 102.5 -299.5t286.5 -107.5q121 0 214.5 58t141.5 150t48 199q0 178 -106 284.5t-285 106.5q-187 0 -294.5 -107t-107.5 -284z" />
    <glyph glyph-name="ntilde" unicode="&#xf1;" horiz-adv-x="1220" 
d="M152 0v1016h151v-283q42 144 150 223.5t272 79.5q173 0 269 -107.5t96 -305.5v-623h-154v610q0 157 -63 227t-199 70q-170 0 -270.5 -129t-100.5 -336v-442h-151zM303 1208q0 269 199 269q47 0 88 -17t69 -41t52 -48t49 -41t49 -17q40 0 63 29.5t23 113.5h125
q0 -141 -53.5 -204.5t-145.5 -63.5q-47 0 -88 17t-68.5 41t-51.5 48t-49.5 41t-49.5 17q-40 0 -63 -30t-23 -114h-125z" />
    <glyph glyph-name="ograve" unicode="&#xf2;" horiz-adv-x="1284" 
d="M111 508q0 146 64 265.5t186.5 191t281.5 71.5q119 0 219.5 -41.5t168 -113t105.5 -168t38 -205.5t-38 -205.5t-105.5 -168t-168 -113t-219.5 -41.5q-159 0 -281.5 71.5t-186.5 191t-64 265.5zM262 508q0 -110 42 -199t130 -144.5t209 -55.5q120 0 207.5 55.5
t129.5 144.5t42 199t-42 199t-129.5 144.5t-207.5 55.5q-121 0 -209 -55.5t-130 -144.5t-42 -199zM324 1348l30 120l611 -159l-31 -121z" />
    <glyph glyph-name="oacute" unicode="&#xf3;" horiz-adv-x="1284" 
d="M111 508q0 146 64 265.5t186.5 191t281.5 71.5q119 0 219.5 -41.5t168 -113t105.5 -168t38 -205.5t-38 -205.5t-105.5 -168t-168 -113t-219.5 -41.5q-159 0 -281.5 71.5t-186.5 191t-64 265.5zM262 508q0 -110 42 -199t130 -144.5t209 -55.5q120 0 207.5 55.5
t129.5 144.5t42 199t-42 199t-129.5 144.5t-207.5 55.5q-121 0 -209 -55.5t-130 -144.5t-42 -199zM322 1309l610 159l31 -120l-611 -160z" />
    <glyph glyph-name="ocircumflex" unicode="&#xf4;" horiz-adv-x="1284" 
d="M111 508q0 146 64 265.5t186.5 191t281.5 71.5q119 0 219.5 -41.5t168 -113t105.5 -168t38 -205.5t-38 -205.5t-105.5 -168t-168 -113t-219.5 -41.5q-159 0 -281.5 71.5t-186.5 191t-64 265.5zM262 508q0 -110 42 -199t130 -144.5t209 -55.5q120 0 207.5 55.5
t129.5 144.5t42 199t-42 199t-129.5 144.5t-207.5 55.5q-121 0 -209 -55.5t-130 -144.5t-42 -199zM324 1241l319 264l322 -264l-91 -90l-231 195l-229 -195z" />
    <glyph glyph-name="otilde" unicode="&#xf5;" horiz-adv-x="1284" 
d="M111 508q0 146 64 265.5t186.5 191t281.5 71.5q119 0 219.5 -41.5t168 -113t105.5 -168t38 -205.5t-38 -205.5t-105.5 -168t-168 -113t-219.5 -41.5q-159 0 -281.5 71.5t-186.5 191t-64 265.5zM262 508q0 -110 42 -199t130 -144.5t209 -55.5q120 0 207.5 55.5
t129.5 144.5t42 199t-42 199t-129.5 144.5t-207.5 55.5q-121 0 -209 -55.5t-130 -144.5t-42 -199zM285 1208q0 269 198 269q47 0 88 -17t69 -41t52.5 -48t49.5 -41t49 -17q40 0 63 29.5t23 113.5h124q0 -268 -198 -268q-47 0 -88 17t-68.5 41t-51.5 48t-49.5 41t-49.5 17
q-40 0 -63 -30t-23 -114h-125z" />
    <glyph glyph-name="odieresis" unicode="&#xf6;" horiz-adv-x="1284" 
d="M111 508q0 146 64 265.5t186.5 191t281.5 71.5q119 0 219.5 -41.5t168 -113t105.5 -168t38 -205.5t-38 -205.5t-105.5 -168t-168 -113t-219.5 -41.5q-159 0 -281.5 71.5t-186.5 191t-64 265.5zM262 508q0 -110 42 -199t130 -144.5t209 -55.5q120 0 207.5 55.5
t129.5 144.5t42 199t-42 199t-129.5 144.5t-207.5 55.5q-121 0 -209 -55.5t-130 -144.5t-42 -199zM297 1325q0 57 40.5 98t100.5 41q59 0 101.5 -41t42.5 -98q0 -58 -42.5 -99.5t-101.5 -41.5q-60 0 -100.5 41t-40.5 100zM705 1325q0 57 40.5 98t98.5 41q60 0 101.5 -41
t41.5 -98q0 -59 -41.5 -100t-101.5 -41q-58 0 -98.5 41t-40.5 100z" />
    <glyph glyph-name="divide" unicode="&#xf7;" horiz-adv-x="1310" 
d="M174 573h963v-124h-963v124zM492 137q0 69 47 116.5t116 47.5q68 0 117 -48t49 -116t-49 -116t-117 -48q-69 0 -116 47.5t-47 116.5zM492 881q0 68 47 114.5t116 46.5q68 0 117 -47t49 -114q0 -70 -49 -118t-117 -48q-69 0 -116 48t-47 118z" />
    <glyph glyph-name="oslash" unicode="&#xf8;" horiz-adv-x="1284" 
d="M111 508q0 146 64 265.5t186.5 191t281.5 71.5q112 0 215 -39l72 125l104 -59l-71 -123q100 -72 155.5 -185.5t55.5 -246.5q0 -109 -38 -205.5t-105.5 -168t-168 -113t-219.5 -41.5t-215 38l-74 -124l-102 57l72 125q-101 72 -157 185.5t-56 246.5zM262 508
q0 -95 33.5 -176.5t97.5 -136.5l398 688q-65 24 -148 24q-121 0 -209 -55.5t-130 -144.5t-42 -199zM494 135q65 -26 149 -26q120 0 207.5 55.5t129.5 144.5t42 199q0 199 -129 313z" />
    <glyph glyph-name="ugrave" unicode="&#xf9;" horiz-adv-x="1220" 
d="M496 -20q-173 0 -269 107.5t-96 305.5v623h154v-610q0 -158 63.5 -227.5t198.5 -69.5q170 0 270.5 128.5t100.5 335.5v443h151v-1016h-151v283q-42 -144 -150 -223.5t-272 -79.5zM301 1348l31 120l610 -159l-31 -121z" />
    <glyph glyph-name="uacute" unicode="&#xfa;" horiz-adv-x="1220" 
d="M496 -20q-173 0 -269 107.5t-96 305.5v623h154v-610q0 -158 63.5 -227.5t198.5 -69.5q170 0 270.5 128.5t100.5 335.5v443h151v-1016h-151v283q-42 -144 -150 -223.5t-272 -79.5zM297 1309l610 159l31 -120l-610 -160z" />
    <glyph glyph-name="ucircumflex" unicode="&#xfb;" horiz-adv-x="1220" 
d="M496 -20q-173 0 -269 107.5t-96 305.5v623h154v-610q0 -158 63.5 -227.5t198.5 -69.5q170 0 270.5 128.5t100.5 335.5v443h151v-1016h-151v283q-42 -144 -150 -223.5t-272 -79.5zM299 1241l319 264l322 -264l-90 -90l-232 195l-229 -195z" />
    <glyph glyph-name="udieresis" unicode="&#xfc;" horiz-adv-x="1220" 
d="M496 -20q-173 0 -269 107.5t-96 305.5v623h154v-610q0 -158 63.5 -227.5t198.5 -69.5q170 0 270.5 128.5t100.5 335.5v443h151v-1016h-151v283q-42 -144 -150 -223.5t-272 -79.5zM274 1325q0 57 41 98t101 41q59 0 101 -41t42 -98q0 -58 -42 -99.5t-101 -41.5
q-60 0 -101 41t-41 100zM682 1325q0 57 40.5 98t98.5 41q60 0 102 -41t42 -98q0 -59 -42 -100t-102 -41q-58 0 -98.5 41t-40.5 100z" />
    <glyph glyph-name="yacute" unicode="&#xfd;" horiz-adv-x="1202" 
d="M1071 1016v-1016h2v-276q0 -119 -135 -119h-758v129h742v266h-2v283q-42 -144 -150 -223.5t-272 -79.5q-173 0 -269 107.5t-96 305.5v623h154v-610q0 -157 63 -227t199 -70q170 0 270.5 128.5t100.5 335.5v443h151zM299 1309l610 159l31 -120l-610 -160z" />
    <glyph glyph-name="thorn" unicode="&#xfe;" 
d="M152 -373v1878h151v-747q55 131 169 204.5t276 73.5q213 0 345 -146.5t132 -383.5q0 -234 -132 -380t-345 -146q-164 0 -277.5 74.5t-167.5 203.5v-631h-151zM309 506q0 -126 56 -218t143.5 -135.5t191.5 -43.5q78 0 145 24.5t118.5 72t80.5 125t29 175.5
q0 196 -105 298.5t-268 102.5q-78 0 -147 -25.5t-124 -74t-87.5 -126.5t-32.5 -175z" />
    <glyph glyph-name="ydieresis" unicode="&#xff;" horiz-adv-x="1202" 
d="M1071 1016v-1016h2v-276q0 -119 -135 -119h-758v129h742v266h-2v283q-42 -144 -150 -223.5t-272 -79.5q-173 0 -269 107.5t-96 305.5v623h154v-610q0 -157 63 -227t199 -70q170 0 270.5 128.5t100.5 335.5v443h151zM274 1325q0 57 41 98t101 41q59 0 101 -41t42 -98
q0 -58 -42 -99.5t-101 -41.5q-60 0 -101 41t-41 100zM682 1325q0 57 40.5 98t98.5 41q60 0 102 -41t42 -98q0 -59 -42 -100t-102 -41q-58 0 -98.5 41t-40.5 100z" />
    <glyph glyph-name="Amacron" unicode="&#x100;" horiz-adv-x="1394" 
d="M63 0l498 1444h273l497 -1444h-157l-199 575h-555l-199 -575h-158zM379 1694v127h637v-125zM465 705h467l-234 675z" />
    <glyph glyph-name="amacron" unicode="&#x101;" horiz-adv-x="1202" 
d="M111 283q0 125 79 201.5t246 90.5l414 39q-9 151 -77.5 223t-211.5 72q-116 0 -189 -60.5t-87 -191.5h-154q21 174 130.5 276.5t299.5 102.5q216 0 328 -125t112 -331v-451h150v-129h-176q-57 0 -87 30.5t-30 86.5v135q-39 -120 -140.5 -196t-271.5 -76q-84 0 -147 22
t-98 53.5t-56 75.5t-27.5 79.5t-6.5 72.5zM258 1266v127h637v-125zM262 299q0 -93 53.5 -143t149.5 -50q172 0 278.5 111t106.5 279l-389 -39q-103 -9 -151 -45.5t-48 -112.5z" />
    <glyph glyph-name="Abreve" unicode="&#x102;" horiz-adv-x="1394" 
d="M63 0l498 1444h273l497 -1444h-157l-199 575h-555l-199 -575h-158zM383 1929h125q0 -116 44 -169.5t144 -53.5q101 0 146 53.5t45 169.5h125q0 -157 -86 -252.5t-230 -95.5q-142 0 -227.5 95.5t-85.5 252.5zM465 705h467l-234 675z" />
    <glyph glyph-name="abreve" unicode="&#x103;" horiz-adv-x="1202" 
d="M111 283q0 125 79 201.5t246 90.5l414 39q-9 151 -77.5 223t-211.5 72q-116 0 -189 -60.5t-87 -191.5h-154q21 174 130.5 276.5t299.5 102.5q216 0 328 -125t112 -331v-451h150v-129h-176q-57 0 -87 30.5t-30 86.5v135q-39 -120 -140.5 -196t-271.5 -76q-84 0 -147 22
t-98 53.5t-56 75.5t-27.5 79.5t-6.5 72.5zM262 299q0 -93 53.5 -143t149.5 -50q172 0 278.5 111t106.5 279l-389 -39q-103 -9 -151 -45.5t-48 -112.5zM262 1501h125q0 -116 44 -169.5t144 -53.5q101 0 146 53.5t45 169.5h125q0 -157 -86 -252.5t-230 -95.5
q-142 0 -227.5 95.5t-85.5 252.5z" />
    <glyph glyph-name="Aogonek" unicode="&#x104;" horiz-adv-x="1394" 
d="M63 0l498 1444h273l497 -1444h-10l-137 -266l391 2v-127h-408q-76 0 -107 47.5t3 112.5l121 231h-10l-199 575h-555l-199 -575h-158zM465 705h467l-234 675z" />
    <glyph glyph-name="aogonek" unicode="&#x105;" horiz-adv-x="1202" 
d="M111 283q0 125 79 201.5t246 90.5l414 39q-9 151 -77.5 223t-211.5 72q-116 0 -189 -60.5t-87 -191.5h-154q21 174 130.5 276.5t299.5 102.5q216 0 328 -125t112 -331v-451h150l-2 -129l-137 -266l391 2v-127h-408q-76 0 -107 47.5t3 112.5l121 231h-37q-57 0 -87 30.5
t-30 86.5v135q-39 -120 -140.5 -196t-271.5 -76q-84 0 -147 22t-98 53.5t-56 75.5t-27.5 79.5t-6.5 72.5zM262 299q0 -93 53.5 -143t149.5 -50q172 0 278.5 111t106.5 279l-389 -39q-103 -9 -151 -45.5t-48 -112.5z" />
    <glyph glyph-name="Cacute" unicode="&#x106;" horiz-adv-x="1574" 
d="M799 -20q-206 0 -359.5 98t-232 265.5t-78.5 379.5q0 211 78.5 378t232 265t359.5 98q273 0 444 -154t203 -423h-154q-25 214 -151 330t-342 116q-126 0 -225 -45.5t-162.5 -127.5t-96 -193t-32.5 -244q0 -134 32.5 -245t96 -193.5t162.5 -128t225 -45.5q216 0 342 116.5
t151 331.5h154q-32 -270 -203 -424.5t-444 -154.5zM465 1737l610 159l31 -120l-610 -160z" />
    <glyph glyph-name="cacute" unicode="&#x107;" horiz-adv-x="1202" 
d="M111 508q0 147 58.5 265t177 190.5t278.5 72.5q59 0 118.5 -13t119.5 -43.5t107.5 -75.5t80.5 -114.5t41 -154.5h-154q-22 144 -105.5 208t-207.5 64q-90 0 -161 -32t-114 -87.5t-65.5 -126.5t-22.5 -153t22.5 -153t65.5 -126.5t114 -87.5t161 -32q124 0 207.5 64
t105.5 208h154q-8 -85 -41 -154.5t-80.5 -114.5t-107.5 -75.5t-119.5 -43.5t-118.5 -13q-160 0 -278.5 72.5t-177 190.5t-58.5 265zM303 1309l610 159l31 -120l-610 -160z" />
    <glyph glyph-name="Ccircumflex" unicode="&#x108;" horiz-adv-x="1574" 
d="M799 -20q-206 0 -359.5 98t-232 265.5t-78.5 379.5q0 211 78.5 378t232 265t359.5 98q273 0 444 -154t203 -423h-154q-25 214 -151 330t-342 116q-126 0 -225 -45.5t-162.5 -127.5t-96 -193t-32.5 -244q0 -134 32.5 -245t96 -193.5t162.5 -128t225 -45.5q216 0 342 116.5
t151 331.5h154q-32 -270 -203 -424.5t-444 -154.5zM469 1669l319 264l322 -264l-90 -90l-232 195l-229 -195z" />
    <glyph glyph-name="ccircumflex" unicode="&#x109;" horiz-adv-x="1202" 
d="M111 508q0 147 58.5 265t177 190.5t278.5 72.5q59 0 118.5 -13t119.5 -43.5t107.5 -75.5t80.5 -114.5t41 -154.5h-154q-22 144 -105.5 208t-207.5 64q-90 0 -161 -32t-114 -87.5t-65.5 -126.5t-22.5 -153t22.5 -153t65.5 -126.5t114 -87.5t161 -32q124 0 207.5 64
t105.5 208h154q-8 -85 -41 -154.5t-80.5 -114.5t-107.5 -75.5t-119.5 -43.5t-118.5 -13q-160 0 -278.5 72.5t-177 190.5t-58.5 265zM305 1241l320 264l321 -264l-90 -90l-231 195l-230 -195z" />
    <glyph glyph-name="Cdotaccent" unicode="&#x10a;" horiz-adv-x="1574" 
d="M799 -20q-206 0 -359.5 98t-232 265.5t-78.5 379.5q0 211 78.5 378t232 265t359.5 98q273 0 444 -154t203 -423h-154q-25 214 -151 330t-342 116q-126 0 -225 -45.5t-162.5 -127.5t-96 -193t-32.5 -244q0 -134 32.5 -245t96 -193.5t162.5 -128t225 -45.5q216 0 342 116.5
t151 331.5h154q-32 -270 -203 -424.5t-444 -154.5zM653 1763q0 54 39 92.5t94 38.5q56 0 96 -38.5t40 -92.5q0 -55 -40 -94t-96 -39t-94.5 39t-38.5 94z" />
    <glyph glyph-name="cdotaccent" unicode="&#x10b;" horiz-adv-x="1202" 
d="M111 508q0 147 58.5 265t177 190.5t278.5 72.5q59 0 118.5 -13t119.5 -43.5t107.5 -75.5t80.5 -114.5t41 -154.5h-154q-22 144 -105.5 208t-207.5 64q-90 0 -161 -32t-114 -87.5t-65.5 -126.5t-22.5 -153t22.5 -153t65.5 -126.5t114 -87.5t161 -32q124 0 207.5 64
t105.5 208h154q-8 -85 -41 -154.5t-80.5 -114.5t-107.5 -75.5t-119.5 -43.5t-118.5 -13q-160 0 -278.5 72.5t-177 190.5t-58.5 265zM489 1335q0 54 39.5 92.5t94.5 38.5q56 0 95.5 -38.5t39.5 -92.5q0 -55 -39.5 -94t-95.5 -39t-95 39t-39 94z" />
    <glyph glyph-name="Ccaron" unicode="&#x10c;" horiz-adv-x="1574" 
d="M799 -20q-206 0 -359.5 98t-232 265.5t-78.5 379.5q0 211 78.5 378t232 265t359.5 98q273 0 444 -154t203 -423h-154q-25 214 -151 330t-342 116q-126 0 -225 -45.5t-162.5 -127.5t-96 -193t-32.5 -244q0 -134 32.5 -245t96 -193.5t162.5 -128t225 -45.5q216 0 342 116.5
t151 331.5h154q-32 -270 -203 -424.5t-444 -154.5zM469 1845l90 88l229 -192l232 192l90 -88l-322 -264z" />
    <glyph glyph-name="ccaron" unicode="&#x10d;" horiz-adv-x="1202" 
d="M111 508q0 147 58.5 265t177 190.5t278.5 72.5q59 0 118.5 -13t119.5 -43.5t107.5 -75.5t80.5 -114.5t41 -154.5h-154q-22 144 -105.5 208t-207.5 64q-90 0 -161 -32t-114 -87.5t-65.5 -126.5t-22.5 -153t22.5 -153t65.5 -126.5t114 -87.5t161 -32q124 0 207.5 64
t105.5 208h154q-8 -85 -41 -154.5t-80.5 -114.5t-107.5 -75.5t-119.5 -43.5t-118.5 -13q-160 0 -278.5 72.5t-177 190.5t-58.5 265zM305 1417l90 88l230 -192l231 192l90 -88l-321 -264z" />
    <glyph glyph-name="Dcaron" unicode="&#x10e;" horiz-adv-x="1449" 
d="M154 0v1444h450q80 0 149 -7t144 -27.5t135 -53.5t115.5 -88.5t92.5 -129.5t59 -179.5t22 -235.5t-22 -236t-59 -180t-92.5 -130t-115.5 -89t-135 -53.5t-144 -27.5t-149 -7h-450zM289 1845l90 88l229 -192l232 192l90 -88l-322 -264zM305 131h299q63 0 112 4t110 18
t106.5 38.5t92 69t76 105.5t48 152t18.5 205q0 113 -18.5 204t-48 151.5t-75.5 105t-92 69t-107 38.5t-110 18t-112 4h-299v-1182z" />
    <glyph glyph-name="dcaron" unicode="&#x10f;" horiz-adv-x="1652" 
d="M588 -20q-213 0 -345 146.5t-132 381.5t132 381.5t345 146.5q163 0 276 -74.5t168 -203.5v747h152v-1505h-152v258q-55 -131 -168.5 -204.5t-275.5 -73.5zM262 508q0 -195 105 -297t268 -102q77 0 146.5 25.5t124.5 73.5t87.5 125.5t32.5 174.5q0 96 -32.5 173.5
t-87 125.5t-124.5 74t-147 26q-163 0 -268 -102t-105 -297zM1339 999v506h144v-506h-144z" />
    <glyph glyph-name="Dcroat" unicode="&#x110;" horiz-adv-x="1464" 
d="M164 0v657h-182v125h182v662h450q80 0 149 -7t144 -27.5t135 -53.5t115.5 -88.5t92.5 -129.5t59 -179.5t22 -235.5t-22 -236t-59 -180t-92.5 -130t-115.5 -89t-135 -53.5t-144 -27.5t-149 -7h-450zM315 131h299q63 0 112 4t110.5 18t107 38.5t92 69t76 105.5t48 152
t18.5 205q0 113 -18.5 204t-48 151.5t-76 105t-92 69t-107 38.5t-110.5 18t-112 4h-299v-531h369v-125h-369v-526z" />
    <glyph glyph-name="dcroat" unicode="&#x111;" horiz-adv-x="1341" 
d="M588 -20q-213 0 -345 146.5t-132 381.5t132 381.5t345 146.5q163 0 276 -74.5t168 -203.5v504h-293v124h293v119h152v-119h114v-124h-114v-1262h-152v258q-55 -131 -168.5 -204.5t-275.5 -73.5zM262 508q0 -195 105 -297t268 -102q77 0 146.5 25.5t124.5 73.5t87.5 125.5
t32.5 174.5q0 96 -32.5 173.5t-87 125.5t-124.5 74t-147 26q-163 0 -268 -102t-105 -297z" />
    <glyph glyph-name="Emacron" unicode="&#x112;" horiz-adv-x="1243" 
d="M154 0v1444h976v-131h-825v-525h723v-129h-723v-528h825v-131h-976zM276 1694v127h637v-125z" />
    <glyph glyph-name="emacron" unicode="&#x113;" horiz-adv-x="1185" 
d="M289 1393h637v-125l-637 -2v127zM111 522q0 243 129.5 378.5t347.5 135.5q221 0 353 -131t132 -362v-62h-817q5 -168 91.5 -272.5t248.5 -104.5q136 0 219.5 66t112.5 184h149q-14 -58 -36 -108.5t-61 -100.5t-90 -85.5t-125.5 -57.5t-164.5 -22q-120 0 -215 42.5
t-154 117.5t-89.5 172t-30.5 210zM258 600h666q-10 147 -101.5 229t-236.5 82q-136 0 -226 -83t-102 -228z" />
    <glyph glyph-name="Edotaccent" unicode="&#x116;" horiz-adv-x="1243" 
d="M154 0v1444h976v-131h-825v-525h723v-129h-723v-528h825v-131h-976zM461 1763q0 54 39 92.5t94 38.5q56 0 95.5 -38.5t39.5 -92.5q0 -55 -39.5 -94t-95.5 -39t-94.5 39t-38.5 94z" />
    <glyph glyph-name="edotaccent" unicode="&#x117;" horiz-adv-x="1185" 
d="M604 1202q-56 0 -94.5 39t-38.5 94q0 54 39 92.5t94 38.5q56 0 95.5 -38.5t39.5 -92.5q0 -55 -39.5 -94t-95.5 -39zM111 522q0 243 129.5 378.5t347.5 135.5q221 0 353 -131t132 -362v-62h-817q5 -168 91.5 -272.5t248.5 -104.5q136 0 219.5 66t112.5 184h149
q-14 -58 -36 -108.5t-61 -100.5t-90 -85.5t-125.5 -57.5t-164.5 -22q-120 0 -215 42.5t-154 117.5t-89.5 172t-30.5 210zM258 600h666q-10 147 -101.5 229t-236.5 82q-136 0 -226 -83t-102 -228z" />
    <glyph glyph-name="Eogonek" unicode="&#x118;" horiz-adv-x="1243" 
d="M154 0v1444h976v-131h-825v-525h723v-129h-723v-528h825v-131h-290l-138 -266l392 2v-127h-408q-76 0 -107 47.5t3 112.5l120 231h-548z" />
    <glyph glyph-name="eogonek" unicode="&#x119;" horiz-adv-x="1185" 
d="M1018 -264v-127h-408q-76 0 -107 47.5t3 112.5l110 211h-16q-120 0 -215 42.5t-154 117.5t-89.5 172t-30.5 210q0 243 129.5 378.5t347.5 135.5q221 0 353 -131t132 -362v-62h-817q5 -168 91.5 -272.5t248.5 -104.5q136 0 219.5 66t112.5 184h149q-69 -283 -311 -352
l-139 -268zM258 600h666q-10 147 -101.5 229t-236.5 82q-136 0 -226 -83t-102 -228z" />
    <glyph glyph-name="Ecaron" unicode="&#x11a;" horiz-adv-x="1243" 
d="M154 0v1444h976v-131h-825v-525h723v-129h-723v-528h825v-131h-976zM274 1845l91 88l229 -192l231 192l90 -88l-321 -264z" />
    <glyph glyph-name="ecaron" unicode="&#x11b;" horiz-adv-x="1185" 
d="M287 1417l90 88l229 -192l232 192l90 -88l-322 -264zM111 522q0 243 129.5 378.5t347.5 135.5q221 0 353 -131t132 -362v-62h-817q5 -168 91.5 -272.5t248.5 -104.5q136 0 219.5 66t112.5 184h149q-14 -58 -36 -108.5t-61 -100.5t-90 -85.5t-125.5 -57.5t-164.5 -22
q-120 0 -215 42.5t-154 117.5t-89.5 172t-30.5 210zM258 600h666q-10 147 -101.5 229t-236.5 82q-136 0 -226 -83t-102 -228z" />
    <glyph glyph-name="Gcircumflex" unicode="&#x11c;" horiz-adv-x="1609" 
d="M772 -20q-161 0 -285.5 55.5t-201.5 155t-116.5 230.5t-39.5 288q0 344 179 549.5t499 205.5q257 0 419 -141.5t197 -394.5h-155q-25 194 -143 300.5t-314 106.5q-169 0 -289 -79.5t-179.5 -220.5t-59.5 -330q0 -126 28.5 -230.5t87.5 -188t161 -130.5t239 -47
q249 0 375.5 138t117.5 402h-598v119h637q62 0 90.5 -25.5t28.5 -80.5v-662h-154v303q-12 -42 -34.5 -82.5t-65.5 -85.5t-98.5 -78.5t-140.5 -55t-185 -21.5zM477 1669l320 264l321 -264l-90 -90l-231 195l-230 -195z" />
    <glyph glyph-name="gcircumflex" unicode="&#x11d;" 
d="M588 -20q-213 0 -345 146.5t-132 381.5t132 381.5t345 146.5q163 0 276 -74.5t168 -203.5v258h152v-1292q0 -119 -135 -119h-758v129h741v524q-55 -131 -168.5 -204.5t-275.5 -73.5zM262 508q0 -195 105 -297t268 -102q77 0 146.5 25.5t124.5 73.5t87.5 125.5t32.5 174.5
q0 96 -32.5 173.5t-87 125.5t-124.5 74t-147 26q-163 0 -268 -102t-105 -297zM346 1241l320 264l321 -264l-90 -90l-231 195l-230 -195z" />
    <glyph glyph-name="Gbreve" unicode="&#x11e;" horiz-adv-x="1609" 
d="M772 -20q-161 0 -285.5 55.5t-201.5 155t-116.5 230.5t-39.5 288q0 344 179 549.5t499 205.5q257 0 419 -141.5t197 -394.5h-155q-25 194 -143 300.5t-314 106.5q-169 0 -289 -79.5t-179.5 -220.5t-59.5 -330q0 -126 28.5 -230.5t87.5 -188t161 -130.5t239 -47
q249 0 375.5 138t117.5 402h-598v119h637q62 0 90.5 -25.5t28.5 -80.5v-662h-154v303q-12 -42 -34.5 -82.5t-65.5 -85.5t-98.5 -78.5t-140.5 -55t-185 -21.5zM483 1929h125q0 -115 44.5 -169t144.5 -54q101 0 145.5 53.5t44.5 169.5h125q0 -158 -85.5 -253t-229.5 -95
q-142 0 -228 95.5t-86 252.5z" />
    <glyph glyph-name="gbreve" unicode="&#x11f;" 
d="M588 -20q-213 0 -345 146.5t-132 381.5t132 381.5t345 146.5q163 0 276 -74.5t168 -203.5v258h152v-1292q0 -119 -135 -119h-758v129h741v524q-55 -131 -168.5 -204.5t-275.5 -73.5zM262 508q0 -195 105 -297t268 -102q77 0 146.5 25.5t124.5 73.5t87.5 125.5t32.5 174.5
q0 96 -32.5 173.5t-87 125.5t-124.5 74t-147 26q-163 0 -268 -102t-105 -297zM352 1501h125q0 -115 44.5 -169t144.5 -54q101 0 145.5 53.5t44.5 169.5h125q0 -158 -85.5 -253t-229.5 -95q-142 0 -228 95.5t-86 252.5z" />
    <glyph glyph-name="Gdotaccent" unicode="&#x120;" horiz-adv-x="1609" 
d="M772 -20q-161 0 -285.5 55.5t-201.5 155t-116.5 230.5t-39.5 288q0 344 179 549.5t499 205.5q257 0 419 -141.5t197 -394.5h-155q-25 194 -143 300.5t-314 106.5q-169 0 -289 -79.5t-179.5 -220.5t-59.5 -330q0 -126 28.5 -230.5t87.5 -188t161 -130.5t239 -47
q249 0 375.5 138t117.5 402h-598v119h637q62 0 90.5 -25.5t28.5 -80.5v-662h-154v303q-12 -42 -34.5 -82.5t-65.5 -85.5t-98.5 -78.5t-140.5 -55t-185 -21.5zM662 1763q0 54 39 92.5t94 38.5q56 0 95.5 -38.5t39.5 -92.5q0 -55 -39.5 -94t-95.5 -39q-55 0 -94 39t-39 94z
" />
    <glyph glyph-name="gdotaccent" unicode="&#x121;" 
d="M588 -20q-213 0 -345 146.5t-132 381.5t132 381.5t345 146.5q163 0 276 -74.5t168 -203.5v258h152v-1292q0 -119 -135 -119h-758v129h741v524q-55 -131 -168.5 -204.5t-275.5 -73.5zM262 508q0 -195 105 -297t268 -102q77 0 146.5 25.5t124.5 73.5t87.5 125.5t32.5 174.5
q0 96 -32.5 173.5t-87 125.5t-124.5 74t-147 26q-163 0 -268 -102t-105 -297zM530 1335q0 54 39.5 92.5t94.5 38.5q56 0 95.5 -38.5t39.5 -92.5q0 -55 -39.5 -94t-95.5 -39t-95 39t-39 94z" />
    <glyph glyph-name="uni0122" unicode="&#x122;" horiz-adv-x="1609" 
d="M772 -20q-161 0 -285.5 55.5t-201.5 155t-116.5 230.5t-39.5 288q0 344 179 549.5t499 205.5q257 0 419 -141.5t197 -394.5h-155q-25 194 -143 300.5t-314 106.5q-169 0 -289 -79.5t-179.5 -220.5t-59.5 -330q0 -126 28.5 -230.5t87.5 -188t161 -130.5t239 -47
q249 0 375.5 138t117.5 402h-598v119h637q62 0 90.5 -25.5t28.5 -80.5v-662h-154v303q-12 -42 -34.5 -82.5t-65.5 -85.5t-98.5 -78.5t-140.5 -55t-185 -21.5zM582 -438l106 338l139 -39l-106 -336z" />
    <glyph glyph-name="uni0123" unicode="&#x123;" 
d="M588 -20q-213 0 -345 146.5t-132 381.5t132 381.5t345 146.5q163 0 276 -74.5t168 -203.5v258h152v-1292q0 -119 -135 -119h-758v129h741v524q-55 -131 -168.5 -204.5t-275.5 -73.5zM262 508q0 -195 105 -297t268 -102q77 0 146.5 25.5t124.5 73.5t87.5 125.5t32.5 174.5
q0 96 -32.5 173.5t-87 125.5t-124.5 74t-147 26q-163 0 -268 -102t-105 -297zM606 1221l101 364l139 -37l-101 -364z" />
    <glyph glyph-name="Hcircumflex" unicode="&#x124;" horiz-adv-x="1470" 
d="M154 1444h151v-666h858v666h154v-1444h-154v649h-858v-649h-151v1444zM416 1669l319 264l322 -264l-90 -90l-232 195l-229 -195z" />
    <glyph glyph-name="hcircumflex" unicode="&#x125;" horiz-adv-x="1220" 
d="M152 0v1505h151v-772q42 144 150 223.5t272 79.5q173 0 269 -107.5t96 -305.5v-623h-154v610q0 157 -63 227t-199 70q-170 0 -270.5 -129t-100.5 -336v-442h-151zM-94 1731l319 264l322 -264l-90 -91l-232 195l-229 -195z" />
    <glyph glyph-name="Hbar" unicode="&#x126;" horiz-adv-x="1476" 
d="M158 1444h151v-207h858v207h154v-207h123v-125h-123v-1112h-154v649h-858v-649h-151v1112h-125v125h125v207zM309 778h858v334h-858v-334z" />
    <glyph glyph-name="hbar" unicode="&#x127;" horiz-adv-x="1228" 
d="M160 0v1262h-117v124h117v119h151v-119h291v-124h-291v-529q42 144 150 223.5t272 79.5q173 0 269 -107.5t96 -305.5v-623h-154v610q0 157 -63 227t-199 70q-170 0 -270.5 -129t-100.5 -336v-442h-151z" />
    <glyph glyph-name="Itilde" unicode="&#x128;" horiz-adv-x="1060" 
d="M131 1444h797v-131h-322v-1182h322v-131h-797v131h324v1182h-324v131zM172 1636q0 269 199 269q47 0 88 -17t69 -41t52 -48t49 -41t49 -17q40 0 63 29.5t23 113.5h125q0 -141 -53.5 -204.5t-145.5 -63.5q-47 0 -88 17t-68.5 41t-51.5 48t-49.5 41t-49.5 17q-40 0 -63 -30
t-23 -114h-125z" />
    <glyph glyph-name="itilde" unicode="&#x129;" horiz-adv-x="886" 
d="M113 0v129h280v758h-203v129h238q53 0 78.5 -26.5t25.5 -84.5v-776h285v-129h-704zM86 1208q0 269 199 269q47 0 88 -17t69 -41t52 -48t49 -41t49 -17q40 0 63 29.5t23 113.5h125q0 -141 -53.5 -204.5t-145.5 -63.5q-47 0 -88 17t-68.5 41t-51.5 48t-49.5 41t-49.5 17
q-40 0 -63 -30t-23 -114h-125z" />
    <glyph glyph-name="Imacron" unicode="&#x12a;" horiz-adv-x="1060" 
d="M131 1444h797v-131h-322v-1182h322v-131h-797v131h324v1182h-324v131zM213 1694v127h637v-125z" />
    <glyph glyph-name="imacron" unicode="&#x12b;" horiz-adv-x="890" 
d="M115 0v129h280v758h-202v129h237q53 0 79 -26.5t26 -84.5v-776h284v-129h-704zM129 1266v127h637v-125z" />
    <glyph glyph-name="Iogonek" unicode="&#x12e;" horiz-adv-x="1060" 
d="M131 1444h797v-131h-322v-1182h322v-131h-328l-137 -266l391 2v-127h-408q-76 0 -107 47.5t3 112.5l121 231h-332v131h324v1182h-324v131z" />
    <glyph glyph-name="iogonek" unicode="&#x12f;" horiz-adv-x="886" 
d="M113 0v129h280v758h-203v129h238q53 0 78.5 -26.5t25.5 -84.5v-776h285v-129h-270l-137 -266l391 2v-127h-408q-76 0 -107 47.5t3 112.5l121 231h-297zM309 1335q0 54 39 92.5t94 38.5q56 0 96 -38.5t40 -92.5q0 -55 -40 -94t-96 -39t-94.5 39t-38.5 94z" />
    <glyph glyph-name="Idotaccent" unicode="&#x130;" horiz-adv-x="1060" 
d="M131 1444h797v-131h-322v-1182h322v-131h-797v131h324v1182h-324v131zM395 1763q0 54 39 92.5t94 38.5q56 0 96 -38.5t40 -92.5q0 -55 -40 -94t-96 -39t-94.5 39t-38.5 94z" />
    <glyph glyph-name="dotlessi" unicode="&#x131;" horiz-adv-x="886" 
d="M113 0v129h280v758h-203v129h238q53 0 78.5 -26.5t25.5 -84.5v-776h285v-129h-704z" />
    <glyph glyph-name="IJ" unicode="&#x132;" horiz-adv-x="1210" 
d="M154 0v131h501q144 0 208.5 88t64.5 262v963h151v-1000q0 -219 -100 -331.5t-291 -112.5h-534zM154 309v1135h151v-1135h-151z" />
    <glyph glyph-name="ij" unicode="&#x133;" horiz-adv-x="1413" 
d="M1071 -57q22 40 29.5 72.5t7.5 82.5v789h-576v-758h285v-129h-704v129h280v758h-203v129h949q59 0 88.5 -24.5t29.5 -82.5v-839q0 -88 -36 -156l-158 -295h-164zM309 1335q0 54 39 92.5t94 38.5q56 0 96 -38.5t40 -92.5q0 -55 -40 -94t-96 -39t-94.5 39t-38.5 94z
M1028 1335q0 54 39 92.5t94 38.5q56 0 95.5 -38.5t39.5 -92.5q0 -55 -39.5 -94t-95.5 -39q-55 0 -94 39t-39 94z" />
    <glyph glyph-name="Jcircumflex" unicode="&#x134;" horiz-adv-x="1083" 
d="M559 0h-489v131h458q142 0 206.5 88t64.5 262v832h-512v131h530q76 0 105.5 -26.5t29.5 -96.5v-877q0 -219 -101 -331.5t-292 -112.5zM297 1669l319 264l322 -264l-90 -90l-232 195l-229 -195z" />
    <glyph glyph-name="jcircumflex" unicode="&#x135;" horiz-adv-x="589" 
d="M248 -57q22 40 29.5 72.5t7.5 82.5v789h-207v129h239q58 0 87.5 -24.5t29.5 -82.5v-839q0 -86 -37 -156l-157 -295h-162zM20 1241l320 264l322 -264l-91 -90l-231 195l-229 -195z" />
    <glyph glyph-name="uni0136" unicode="&#x136;" horiz-adv-x="1325" 
d="M154 0v1444h151v-649l729 649h211l-799 -707l805 -737h-223l-723 664v-664h-151zM473 -438l107 338l139 -39l-107 -336z" />
    <glyph glyph-name="uni0137" unicode="&#x137;" horiz-adv-x="1089" 
d="M152 0v1505h151v-921l508 432h205l-576 -492l570 -524h-201l-506 465v-465h-151zM356 -438l107 338l139 -39l-106 -336z" />
    <glyph glyph-name="Lacute" unicode="&#x139;" horiz-adv-x="1105" 
d="M272 0q-56 0 -86 31t-30 88v1325h151v-1313h729v-131h-764zM156 1737l610 159l31 -120l-611 -160z" />
    <glyph glyph-name="lacute" unicode="&#x13a;" horiz-adv-x="886" 
d="M96 0v129h285v1247h-207v129h262q46 0 71 -23t25 -67v-1286h285v-129h-721zM88 1798l610 160l31 -121l-610 -160z" />
    <glyph glyph-name="uni013B" unicode="&#x13b;" horiz-adv-x="1103" 
d="M270 0q-56 0 -86 31t-30 88v1325h151v-1313h729v-131h-764zM457 -438l106 338l139 -39l-106 -336z" />
    <glyph glyph-name="uni013C" unicode="&#x13c;" horiz-adv-x="882" 
d="M92 0v129h285v1247h-207v129h262q46 0 71 -23t25 -67v-1286h285v-129h-721zM264 -438l107 338l139 -39l-107 -336z" />
    <glyph glyph-name="Lcaron" unicode="&#x13d;" horiz-adv-x="1103" 
d="M270 0q-56 0 -86 31t-30 88v1325h151v-1313h729v-131h-764zM702 938v506h144v-506h-144z" />
    <glyph glyph-name="lcaron" unicode="&#x13e;" horiz-adv-x="890" 
d="M92 0v129h285v1247h-207v129h262q46 0 71 -23t25 -67v-1286h285v-129h-721zM659 999v506h144v-506h-144z" />
    <glyph glyph-name="Lslash" unicode="&#x141;" horiz-adv-x="1118" 
d="M283 0q-56 0 -86.5 31t-30.5 88v549l-252 -68l-31 121l283 76v647h151v-606l252 67l31 -121l-283 -75v-578h730v-131h-764z" />
    <glyph glyph-name="lslash" unicode="&#x142;" horiz-adv-x="882" 
d="M92 0v129h285v535l-248 -68l-31 121l279 76v583h-207v129h262q46 0 71 -23t25 -67v-584l248 68l31 -121l-279 -76v-573h285v-129h-721z" />
    <glyph glyph-name="Nacute" unicode="&#x143;" horiz-adv-x="1533" 
d="M154 0v1444h280l795 -1385v1385h151v-1444h-280l-795 1384v-1384h-151zM485 1737l611 159l30 -120l-610 -160z" />
    <glyph glyph-name="nacute" unicode="&#x144;" horiz-adv-x="1220" 
d="M152 0v1016h151v-283q42 144 150 223.5t272 79.5q173 0 269 -107.5t96 -305.5v-623h-154v610q0 157 -63 227t-199 70q-170 0 -270.5 -129t-100.5 -336v-442h-151zM338 1309l610 159l31 -120l-610 -160z" />
    <glyph glyph-name="uni0145" unicode="&#x145;" horiz-adv-x="1533" 
d="M154 0v1444h280l795 -1385v1385h151v-1444h-280l-795 1384v-1384h-151zM580 -438l106 338l139 -39l-106 -336z" />
    <glyph glyph-name="uni0146" unicode="&#x146;" horiz-adv-x="1220" 
d="M152 0v1016h151v-283q42 144 150 223.5t272 79.5q173 0 269 -107.5t96 -305.5v-623h-154v610q0 157 -63 227t-199 70q-170 0 -270.5 -129t-100.5 -336v-442h-151zM434 -438l107 338l139 -39l-107 -336z" />
    <glyph glyph-name="Ncaron" unicode="&#x147;" horiz-adv-x="1533" 
d="M154 0v1444h280l795 -1385v1385h151v-1444h-280l-795 1384v-1384h-151zM489 1845l91 88l229 -192l231 192l90 -88l-321 -264z" />
    <glyph glyph-name="ncaron" unicode="&#x148;" horiz-adv-x="1220" 
d="M152 0v1016h151v-283q42 144 150 223.5t272 79.5q173 0 269 -107.5t96 -305.5v-623h-154v610q0 157 -63 227t-199 70q-170 0 -270.5 -129t-100.5 -336v-442h-151zM342 1417l90 88l230 -192l231 192l90 -88l-321 -264z" />
    <glyph glyph-name="Eng" unicode="&#x14a;" horiz-adv-x="1531" 
d="M154 0v1444h280l795 -1385v1385h151v-1444h2v-287q0 -58 -27 -81t-98 -23h-395v129h367v262h-129l-795 1384v-1384h-151z" />
    <glyph glyph-name="eng" unicode="&#x14b;" horiz-adv-x="1220" 
d="M152 0v1016h151v-283q42 144 150 223.5t272 79.5q173 0 269 -107.5t96 -305.5v-897q0 -119 -138 -119h-383v129h367v874q0 157 -63 227t-199 70q-170 0 -270.5 -129t-100.5 -336v-442h-151z" />
    <glyph glyph-name="Omacron" unicode="&#x14c;" horiz-adv-x="1595" 
d="M129 723q0 211 78.5 378t232 265t359.5 98q205 0 357.5 -98t230 -265t77.5 -378q0 -158 -45.5 -294t-129 -236t-210 -156.5t-280.5 -56.5q-206 0 -359.5 98t-232 265.5t-78.5 379.5zM283 723q0 -133 32.5 -244t95.5 -193.5t162 -128.5t226 -46t225.5 46t160.5 128.5
t94 193t32 244.5t-32 244.5t-94 192.5t-160.5 127.5t-225.5 45.5t-226 -46t-162 -128t-95.5 -192.5t-32.5 -243.5zM481 1694v127h637v-125z" />
    <glyph glyph-name="omacron" unicode="&#x14d;" horiz-adv-x="1284" 
d="M111 508q0 146 64 265.5t186.5 191t281.5 71.5q119 0 219.5 -41.5t168 -113t105.5 -168t38 -205.5t-38 -205.5t-105.5 -168t-168 -113t-219.5 -41.5q-159 0 -281.5 71.5t-186.5 191t-64 265.5zM262 508q0 -110 42 -199t130 -144.5t209 -55.5q120 0 207.5 55.5
t129.5 144.5t42 199t-42 199t-129.5 144.5t-207.5 55.5q-121 0 -209 -55.5t-130 -144.5t-42 -199zM326 1266v127h637v-125z" />
    <glyph glyph-name="Ohungarumlaut" unicode="&#x150;" horiz-adv-x="1595" 
d="M129 723q0 211 78.5 378t232 265t359.5 98q205 0 357.5 -98t230 -265t77.5 -378q0 -158 -45.5 -294t-129 -236t-210 -156.5t-280.5 -56.5q-206 0 -359.5 98t-232 265.5t-78.5 379.5zM283 723q0 -133 32.5 -244t95.5 -193.5t162 -128.5t226 -46t225.5 46t160.5 128.5
t94 193t32 244.5t-32 244.5t-94 192.5t-160.5 127.5t-225.5 45.5t-226 -46t-162 -128t-95.5 -192.5t-32.5 -243.5zM455 1669l278 277l88 -91l-280 -274zM774 1669l281 277l88 -91l-281 -274z" />
    <glyph glyph-name="ohungarumlaut" unicode="&#x151;" horiz-adv-x="1284" 
d="M111 508q0 146 64 265.5t186.5 191t281.5 71.5q119 0 219.5 -41.5t168 -113t105.5 -168t38 -205.5t-38 -205.5t-105.5 -168t-168 -113t-219.5 -41.5q-159 0 -281.5 71.5t-186.5 191t-64 265.5zM262 508q0 -110 42 -199t130 -144.5t209 -55.5q120 0 207.5 55.5
t129.5 144.5t42 199t-42 199t-129.5 144.5t-207.5 55.5q-121 0 -209 -55.5t-130 -144.5t-42 -199zM299 1241l279 277l88 -91l-281 -274zM618 1241l281 277l88 -91l-280 -274z" />
    <glyph glyph-name="OE" unicode="&#x152;" horiz-adv-x="2404" 
d="M129 723q0 211 78.5 378t232 265t359.5 98q166 0 296.5 -64t219.5 -181v225h977v-131h-826v-525h723v-129h-723v-528h826v-131h-977v225q-89 -117 -219.5 -181t-296.5 -64q-206 0 -359.5 98t-232 265.5t-78.5 379.5zM283 723q0 -133 32.5 -244t95.5 -193.5t162 -128.5
t226 -46t225.5 46t160.5 128.5t94 193t32 244.5t-32 244.5t-94 192.5t-160.5 127.5t-225.5 45.5t-226 -46t-162 -128t-95.5 -192.5t-32.5 -243.5z" />
    <glyph glyph-name="oe" unicode="&#x153;" horiz-adv-x="2105" 
d="M111 508q0 146 64 265.5t186.5 191t281.5 71.5q147 0 263 -62t184 -169q58 112 165 171.5t250 59.5q221 0 353.5 -131.5t132.5 -361.5v-62h-817q5 -168 91 -272.5t248 -104.5q136 0 219.5 66t112.5 184h150q-14 -58 -36 -108.5t-61 -100.5t-90 -85.5t-125.5 -57.5
t-164.5 -22q-150 0 -256.5 64t-165.5 177q-68 -112 -185 -176.5t-268 -64.5q-159 0 -281.5 71.5t-186.5 191t-64 265.5zM262 508q0 -110 42 -199t130 -144.5t209 -55.5q120 0 207.5 55.5t129.5 144.5t42 199t-42 199t-129.5 144.5t-207.5 55.5q-121 0 -209 -55.5
t-130 -144.5t-42 -199zM1176 600h665q-10 147 -101.5 229t-236.5 82q-136 0 -225.5 -83t-101.5 -228z" />
    <glyph glyph-name="Racute" unicode="&#x154;" horiz-adv-x="1363" 
d="M154 0v1444h516q107 0 188 -10.5t151.5 -37.5t115 -71.5t69.5 -114t25 -163.5q0 -304 -244 -365h115q129 0 129 -131v-551h-154v586h-760v-586h-151zM305 717h365q82 0 136.5 5.5t108.5 23t84.5 49.5t49 87t18.5 134q0 58 -9.5 102.5t-25.5 76t-44.5 53.5t-57.5 34.5
t-74 19.5t-86 9t-100 2h-365v-596zM324 1737l610 159l31 -120l-611 -160z" />
    <glyph glyph-name="racute" unicode="&#x155;" horiz-adv-x="897" 
d="M154 881q0 69 33.5 102t103.5 33h555v-129h-541v-887h-151v881zM197 1309l610 159l31 -120l-611 -160z" />
    <glyph glyph-name="uni0156" unicode="&#x156;" horiz-adv-x="1363" 
d="M154 0v1444h516q107 0 188 -10.5t151.5 -37.5t115 -71.5t69.5 -114t25 -163.5q0 -304 -244 -365h115q129 0 129 -131v-551h-154v586h-760v-586h-151zM305 717h365q82 0 136.5 5.5t108.5 23t84.5 49.5t49 87t18.5 134q0 58 -9.5 102.5t-25.5 76t-44.5 53.5t-57.5 34.5
t-74 19.5t-86 9t-100 2h-365v-596zM518 -438l107 338l139 -39l-107 -336z" />
    <glyph glyph-name="uni0157" unicode="&#x157;" horiz-adv-x="894" 
d="M152 881q0 69 33.5 102t103.5 33h555v-129h-541v-887h-151v881zM41 -438l106 338l140 -39l-107 -336z" />
    <glyph glyph-name="Rcaron" unicode="&#x158;" horiz-adv-x="1363" 
d="M154 0v1444h516q107 0 188 -10.5t151.5 -37.5t115 -71.5t69.5 -114t25 -163.5q0 -304 -244 -365h115q129 0 129 -131v-551h-154v586h-760v-586h-151zM305 717h365q82 0 136.5 5.5t108.5 23t84.5 49.5t49 87t18.5 134q0 58 -9.5 102.5t-25.5 76t-44.5 53.5t-57.5 34.5
t-74 19.5t-86 9t-100 2h-365v-596zM326 1845l90 88l229 -192l232 192l90 -88l-322 -264z" />
    <glyph glyph-name="rcaron" unicode="&#x159;" horiz-adv-x="897" 
d="M154 881q0 69 33.5 102t103.5 33h555v-129h-541v-887h-151v881zM199 1417l90 88l229 -192l232 192l90 -88l-322 -264z" />
    <glyph glyph-name="Sacute" unicode="&#x15a;" horiz-adv-x="1378" 
d="M1288 377q0 -397 -536 -397q-319 0 -489.5 144.5t-170.5 414.5h154q0 -214 130.5 -322t379.5 -108q195 0 287 65t92 197q0 94 -65.5 162t-199.5 102l-389 100q-319 82 -319 357q0 182 127.5 277t369.5 95q286 0 436 -128.5t150 -364.5h-153q0 364 -433 364
q-344 0 -344 -237q0 -179 240 -240l385 -98q172 -44 260 -142.5t88 -240.5zM369 1737l610 159l31 -120l-611 -160z" />
    <glyph glyph-name="sacute" unicode="&#x15b;" horiz-adv-x="1013" 
d="M559 -20q-220 0 -343.5 104t-123.5 291h152q0 -133 82.5 -202t232.5 -69q232 0 232 162q0 58 -37.5 93.5t-124.5 60.5l-264 78q-232 67 -232 264q0 130 100 202t275 72q191 0 299 -88.5t108 -249.5h-151q0 99 -67 156t-187 57q-104 0 -164.5 -40t-60.5 -103
q0 -55 36.5 -91t114.5 -59l238 -69q134 -38 200 -106t66 -179q0 -137 -98 -210.5t-283 -73.5zM195 1309l610 159l31 -120l-611 -160z" />
    <glyph glyph-name="Scircumflex" unicode="&#x15c;" horiz-adv-x="1378" 
d="M1288 377q0 -397 -536 -397q-319 0 -489.5 144.5t-170.5 414.5h154q0 -214 130.5 -322t379.5 -108q195 0 287 65t92 197q0 94 -65.5 162t-199.5 102l-389 100q-319 82 -319 357q0 182 127.5 277t369.5 95q286 0 436 -128.5t150 -364.5h-153q0 364 -433 364
q-344 0 -344 -237q0 -179 240 -240l385 -98q172 -44 260 -142.5t88 -240.5zM371 1669l319 264l322 -264l-90 -90l-232 195l-229 -195z" />
    <glyph glyph-name="scircumflex" unicode="&#x15d;" horiz-adv-x="1013" 
d="M559 -20q-220 0 -343.5 104t-123.5 291h152q0 -133 82.5 -202t232.5 -69q232 0 232 162q0 58 -37.5 93.5t-124.5 60.5l-264 78q-232 67 -232 264q0 130 100 202t275 72q191 0 299 -88.5t108 -249.5h-151q0 99 -67 156t-187 57q-104 0 -164.5 -40t-60.5 -103
q0 -55 36.5 -91t114.5 -59l238 -69q134 -38 200 -106t66 -179q0 -137 -98 -210.5t-283 -73.5zM197 1241l319 264l322 -264l-90 -90l-232 195l-229 -195z" />
    <glyph glyph-name="Scedilla" unicode="&#x15e;" horiz-adv-x="1378" 
d="M1288 377q0 -397 -536 -397h-9l-94 -95q67 29 131 29q54 0 91.5 -28.5t37.5 -84.5q0 -38 -12.5 -67t-39 -48t-59.5 -31.5t-83.5 -18.5t-100 -8.5t-118.5 -2.5v121q85 0 123.5 1t84 7t62 20t16.5 38q0 43 -47 43q-29 0 -58 -11t-81 -45l-70 95l82 94q-251 31 -383.5 172
t-132.5 379h154q0 -214 130.5 -322t379.5 -108q195 0 287 65t92 197q0 94 -65.5 162t-199.5 102l-389 100q-319 82 -319 357q0 182 127.5 277t369.5 95q286 0 436 -128.5t150 -364.5h-153q0 364 -433 364q-344 0 -344 -237q0 -179 240 -240l385 -98q172 -44 260 -142.5
t88 -240.5z" />
    <glyph glyph-name="scedilla" unicode="&#x15f;" horiz-adv-x="1013" 
d="M322 -254q85 0 123.5 1t84 7t62 20t16.5 38q0 43 -47 43q-29 0 -58 -11t-81 -45l-70 95l82 96q-164 28 -253 127t-89 258h152q0 -133 82.5 -202t232.5 -69q232 0 232 162q0 58 -37.5 93.5t-124.5 60.5l-264 78q-232 67 -232 264q0 130 100 202t275 72q191 0 299 -88.5
t108 -249.5h-151q0 99 -67 156t-187 57q-104 0 -164.5 -40t-60.5 -103q0 -55 36.5 -91t114.5 -59l238 -69q134 -38 200 -106t66 -179q0 -136 -95 -209.5t-276 -74.5l-94 -95q67 29 131 29q54 0 91.5 -28.5t37.5 -84.5q0 -38 -12.5 -67t-39 -48t-59.5 -31.5t-83.5 -18.5
t-100 -8.5t-118.5 -2.5v121z" />
    <glyph glyph-name="Scaron" unicode="&#x160;" horiz-adv-x="1378" 
d="M1288 377q0 -397 -536 -397q-319 0 -489.5 144.5t-170.5 414.5h154q0 -214 130.5 -322t379.5 -108q195 0 287 65t92 197q0 94 -65.5 162t-199.5 102l-389 100q-319 82 -319 357q0 182 127.5 277t369.5 95q286 0 436 -128.5t150 -364.5h-153q0 364 -433 364
q-344 0 -344 -237q0 -179 240 -240l385 -98q172 -44 260 -142.5t88 -240.5zM371 1845l90 88l229 -192l232 192l90 -88l-322 -264z" />
    <glyph glyph-name="scaron" unicode="&#x161;" horiz-adv-x="1013" 
d="M559 -20q-220 0 -343.5 104t-123.5 291h152q0 -133 82.5 -202t232.5 -69q232 0 232 162q0 58 -37.5 93.5t-124.5 60.5l-264 78q-232 67 -232 264q0 130 100 202t275 72q191 0 299 -88.5t108 -249.5h-151q0 99 -67 156t-187 57q-104 0 -164.5 -40t-60.5 -103
q0 -55 36.5 -91t114.5 -59l238 -69q134 -38 200 -106t66 -179q0 -137 -98 -210.5t-283 -73.5zM199 1417l90 88l229 -192l232 192l90 -88l-322 -264z" />
    <glyph glyph-name="uni0162" unicode="&#x162;" horiz-adv-x="1341" 
d="M90 1444h1161v-131h-503v-1313h-3l-114 -115q67 29 131 29q54 0 91.5 -28.5t37.5 -84.5q0 -38 -12.5 -67t-39.5 -48t-60 -31.5t-83.5 -18.5t-100 -8.5t-118.5 -2.5v121q85 0 123.5 1t84.5 7t62.5 20t16.5 38q0 43 -47 43q-29 0 -58 -11t-81 -45l-70 95l92 106h-4v1313
h-506v131z" />
    <glyph glyph-name="uni0163" unicode="&#x163;" horiz-adv-x="870" 
d="M780 129v-129h-170l-114 -115q67 29 131 29q54 0 91.5 -28.5t37.5 -84.5q0 -38 -12.5 -67t-39.5 -48t-60 -31.5t-83.5 -18.5t-100 -8.5t-118.5 -2.5v121q85 0 123.5 1t84.5 7t62.5 20t16.5 38q0 43 -47 43q-30 0 -59.5 -11t-80.5 -45l-69 95l92 106h-57
q-69 0 -102.5 33.5t-33.5 103.5v750h-221v129h221v270l152 45v-315h315v-129h-315v-760z" />
    <glyph glyph-name="Tcaron" unicode="&#x164;" horiz-adv-x="1341" 
d="M90 1444h1161v-131h-503v-1313h-152v1313h-506v131zM352 1845l90 88l230 -192l231 192l90 -88l-321 -264z" />
    <glyph glyph-name="tcaron" unicode="&#x165;" horiz-adv-x="872" 
d="M780 129v-129h-372q-69 0 -102.5 33.5t-33.5 103.5v750h-221v129h221v270l152 45v-315h315v-129h-315v-760zM629 1137v368h145v-368h-145z" />
    <glyph glyph-name="Tbar" unicode="&#x166;" horiz-adv-x="1341" 
d="M90 1444h1161v-131h-503v-531h276v-125h-276v-657h-152v657h-274v125h274v531h-506v131z" />
    <glyph glyph-name="tbar" unicode="&#x167;" horiz-adv-x="870" 
d="M780 129v-129h-372q-69 0 -102.5 33.5t-33.5 103.5v398h-180v122h180v230h-221v129h221v270l152 45v-315h315v-129h-315v-230h254v-122h-254v-408z" />
    <glyph glyph-name="Utilde" unicode="&#x168;" horiz-adv-x="1353" 
d="M113 537v907h153v-893q0 -227 94.5 -333.5t315.5 -106.5t317.5 107t96.5 333v893h153v-907q0 -557 -567 -557q-288 0 -425.5 141t-137.5 416zM317 1636q0 269 199 269q47 0 88 -17t69 -41t52 -48t49 -41t49 -17q40 0 63 29.5t23 113.5h125q0 -268 -198 -268q-47 0 -88 17
t-69 41t-52 48t-49.5 41t-49.5 17q-40 0 -63 -30t-23 -114h-125z" />
    <glyph glyph-name="utilde" unicode="&#x169;" horiz-adv-x="1220" 
d="M496 -20q-173 0 -269 107.5t-96 305.5v623h154v-610q0 -158 63.5 -227.5t198.5 -69.5q170 0 270.5 128.5t100.5 335.5v443h151v-1016h-151v283q-42 -144 -150 -223.5t-272 -79.5zM260 1208q0 269 199 269q47 0 88 -17t69 -41t52 -48t49 -41t49 -17q40 0 63 29.5t23 113.5
h125q0 -141 -53.5 -204.5t-145.5 -63.5q-47 0 -88 17t-68.5 41t-51.5 48t-49.5 41t-49.5 17q-40 0 -63 -30t-23 -114h-125z" />
    <glyph glyph-name="Umacron" unicode="&#x16a;" horiz-adv-x="1353" 
d="M113 537v907h153v-893q0 -227 94.5 -333.5t315.5 -106.5t317.5 107t96.5 333v893h153v-907q0 -557 -567 -557q-288 0 -425.5 141t-137.5 416zM358 1694v127h637v-125z" />
    <glyph glyph-name="umacron" unicode="&#x16b;" horiz-adv-x="1220" 
d="M496 -20q-173 0 -269 107.5t-96 305.5v623h154v-610q0 -158 63.5 -227.5t198.5 -69.5q170 0 270.5 128.5t100.5 335.5v443h151v-1016h-151v283q-42 -144 -150 -223.5t-272 -79.5zM301 1266v127h637v-125z" />
    <glyph glyph-name="Ubreve" unicode="&#x16c;" horiz-adv-x="1353" 
d="M113 537v907h153v-893q0 -227 94.5 -333.5t315.5 -106.5t317.5 107t96.5 333v893h153v-907q0 -557 -567 -557q-288 0 -425.5 141t-137.5 416zM362 1929h125q0 -115 44.5 -169t144.5 -54q101 0 145.5 53.5t44.5 169.5h125q0 -158 -85.5 -253t-229.5 -95q-142 0 -228 95.5
t-86 252.5z" />
    <glyph glyph-name="ubreve" unicode="&#x16d;" horiz-adv-x="1220" 
d="M496 -20q-173 0 -269 107.5t-96 305.5v623h154v-610q0 -158 63.5 -227.5t198.5 -69.5q170 0 270.5 128.5t100.5 335.5v443h151v-1016h-151v283q-42 -144 -150 -223.5t-272 -79.5zM305 1501h125q0 -116 44 -169.5t144 -53.5q101 0 146 53.5t45 169.5h125
q0 -157 -86 -252.5t-230 -95.5q-142 0 -227.5 95.5t-85.5 252.5z" />
    <glyph glyph-name="Uring" unicode="&#x16e;" horiz-adv-x="1353" 
d="M113 537v907h153v-893q0 -227 94.5 -333.5t315.5 -106.5t317.5 107t96.5 333v893h153v-907q0 -557 -567 -557q-288 0 -425.5 141t-137.5 416zM442 1794q0 90 62.5 154.5t171.5 64.5t171 -64.5t62 -154.5q0 -89 -62.5 -154t-170.5 -65q-109 0 -171.5 64.5t-62.5 154.5z
M565 1794q0 -47 28.5 -73.5t82.5 -26.5t82 26.5t28 73.5q0 45 -28.5 71.5t-81.5 26.5q-54 0 -82.5 -26.5t-28.5 -71.5z" />
    <glyph glyph-name="uring" unicode="&#x16f;" horiz-adv-x="1220" 
d="M496 -20q-173 0 -269 107.5t-96 305.5v623h154v-610q0 -158 63.5 -227.5t198.5 -69.5q170 0 270.5 128.5t100.5 335.5v443h151v-1016h-151v283q-42 -144 -150 -223.5t-272 -79.5zM385 1366q0 90 62 154.5t171 64.5t171.5 -64.5t62.5 -154.5q0 -89 -63 -154t-171 -65
q-109 0 -171 64.5t-62 154.5zM508 1366q0 -47 28 -73.5t82 -26.5t82.5 26.5t28.5 73.5q0 45 -29 71.5t-82 26.5q-54 0 -82 -26t-28 -72z" />
    <glyph glyph-name="Uhungarumlaut" unicode="&#x170;" horiz-adv-x="1353" 
d="M113 537v907h153v-893q0 -227 94.5 -333.5t315.5 -106.5t317.5 107t96.5 333v893h153v-907q0 -557 -567 -557q-288 0 -425.5 141t-137.5 416zM334 1669l278 277l88 -91l-280 -274zM653 1669l281 277l88 -91l-281 -274z" />
    <glyph glyph-name="uhungarumlaut" unicode="&#x171;" horiz-adv-x="1220" 
d="M496 -20q-173 0 -269 107.5t-96 305.5v623h154v-610q0 -158 63.5 -227.5t198.5 -69.5q170 0 270.5 128.5t100.5 335.5v443h151v-1016h-151v283q-42 -144 -150 -223.5t-272 -79.5zM276 1241l279 277l88 -91l-281 -274zM596 1241l281 277l88 -91l-281 -274z" />
    <glyph glyph-name="Uogonek" unicode="&#x172;" horiz-adv-x="1353" 
d="M113 537v907h153v-893q0 -227 94.5 -333.5t315.5 -106.5t317.5 107t96.5 333v893h153v-907q0 -451 -371 -537l-137 -266l391 2v-127h-407q-76 0 -107.5 47.5t2.5 112.5l113 213q-16 -2 -51 -2q-288 0 -425.5 141t-137.5 416z" />
    <glyph glyph-name="uogonek" unicode="&#x173;" horiz-adv-x="1220" 
d="M496 -20q-173 0 -269 107.5t-96 305.5v623h154v-610q0 -158 63.5 -227.5t198.5 -69.5q170 0 270.5 128.5t100.5 335.5v443h151l-2 -1016l-137 -266l391 2v-127h-408q-76 0 -107 47.5t3 112.5l121 231h-12v283q-42 -144 -150 -223.5t-272 -79.5z" />
    <glyph glyph-name="Wcircumflex" unicode="&#x174;" horiz-adv-x="1855" 
d="M1810 1444l-297 -1444h-270l-315 1380l-312 -1380h-274l-297 1444h152l272 -1278l18 -96l312 1374h260l313 -1372l17 94l268 1278h153zM608 1669l320 264l321 -264l-90 -90l-231 195l-230 -195z" />
    <glyph glyph-name="wcircumflex" unicode="&#x175;" horiz-adv-x="1757" 
d="M76 1016h143l252 -848l27 -100l254 948h256l252 -936l24 90l252 846h143l-295 -1016h-251l-254 954l-252 -954h-260zM559 1241l320 264l321 -264l-90 -90l-231 195l-230 -195z" />
    <glyph glyph-name="Ycircumflex" unicode="&#x176;" 
d="M1104 1444h162l-471 -826h-52v-618h-151v618h-49l-473 826h161l437 -776zM348 1669l320 264l321 -264l-90 -90l-231 195l-230 -195z" />
    <glyph glyph-name="ycircumflex" unicode="&#x177;" horiz-adv-x="1202" 
d="M1071 1016v-1016h2v-276q0 -119 -135 -119h-758v129h742v266h-2v283q-42 -144 -150 -223.5t-272 -79.5q-173 0 -269 107.5t-96 305.5v623h154v-610q0 -157 63 -227t199 -70q170 0 270.5 128.5t100.5 335.5v443h151zM301 1241l320 264l321 -264l-90 -90l-231 195
l-230 -195z" />
    <glyph glyph-name="Ydieresis" unicode="&#x178;" 
d="M1104 1444h162l-471 -826h-52v-618h-151v618h-49l-473 826h161l437 -776zM324 1753q0 57 41 98t100 41t101 -41t42 -98q0 -58 -42 -99.5t-101 -41.5q-60 0 -100.5 41t-40.5 100zM731 1753q0 57 40.5 98t98.5 41q60 0 102 -41t42 -98q0 -59 -42 -100t-102 -41
q-58 0 -98.5 41t-40.5 100z" />
    <glyph glyph-name="Zacute" unicode="&#x179;" horiz-adv-x="1333" 
d="M113 0v266l1056 1047h-1056v131h1108v-268l-1055 -1045h1055v-131h-1108zM346 1737l610 159l31 -120l-610 -160z" />
    <glyph glyph-name="zacute" unicode="&#x17a;" horiz-adv-x="1085" 
d="M111 0v250l809 643h-809v123h864v-248l-809 -645h809v-123h-864zM221 1309l610 159l31 -120l-610 -160z" />
    <glyph glyph-name="Zdotaccent" unicode="&#x17b;" horiz-adv-x="1333" 
d="M113 0v266l1056 1047h-1056v131h1108v-268l-1055 -1045h1055v-131h-1108zM532 1763q0 54 39.5 92.5t94.5 38.5q56 0 95.5 -38.5t39.5 -92.5q0 -55 -39.5 -94t-95.5 -39t-95 39t-39 94z" />
    <glyph glyph-name="zdotaccent" unicode="&#x17c;" horiz-adv-x="1085" 
d="M111 0v250l809 643h-809v123h864v-248l-809 -645h809v-123h-864zM410 1335q0 54 39 92.5t94 38.5q56 0 95.5 -38.5t39.5 -92.5q0 -55 -39.5 -94t-95.5 -39q-55 0 -94 39t-39 94z" />
    <glyph glyph-name="Zcaron" unicode="&#x17d;" horiz-adv-x="1333" 
d="M113 0v266l1056 1047h-1056v131h1108v-268l-1055 -1045h1055v-131h-1108zM348 1845l90 88l230 -192l231 192l90 -88l-321 -264z" />
    <glyph glyph-name="zcaron" unicode="&#x17e;" horiz-adv-x="1085" 
d="M111 0v250l809 643h-809v123h864v-248l-809 -645h809v-123h-864zM223 1417l90 88l230 -192l231 192l90 -88l-321 -264z" />
    <glyph glyph-name="uni018F" unicode="&#x18f;" horiz-adv-x="1566" 
d="M788 -4q-300 0 -479.5 181.5t-179.5 502.5v80h1153q-4 124 -37 226t-96 179.5t-164 120.5t-233 43q-184 0 -302.5 -101.5t-164.5 -279.5h-152q19 80 50 150t82.5 137.5t118 115t161 76.5t207.5 29q172 0 305 -58.5t214.5 -161.5t123 -237t41.5 -292q0 -337 -174 -524
t-474 -187zM291 637q3 -244 137.5 -379t359.5 -135q140 0 249.5 60t174.5 177t70 277h-991z" />
    <glyph glyph-name="uni0218" unicode="&#x218;" horiz-adv-x="1378" 
d="M1288 377q0 -397 -536 -397q-319 0 -489.5 144.5t-170.5 414.5h154q0 -214 130.5 -322t379.5 -108q195 0 287 65t92 197q0 94 -65.5 162t-199.5 102l-389 100q-319 82 -319 357q0 182 127.5 277t369.5 95q286 0 436 -128.5t150 -364.5h-153q0 364 -433 364
q-344 0 -344 -237q0 -179 240 -240l385 -98q172 -44 260 -142.5t88 -240.5zM504 -438l106 338l140 -39l-107 -336z" />
    <glyph glyph-name="uni0219" unicode="&#x219;" horiz-adv-x="1013" 
d="M559 -20q-220 0 -343.5 104t-123.5 291h152q0 -133 82.5 -202t232.5 -69q232 0 232 162q0 58 -37.5 93.5t-124.5 60.5l-264 78q-232 67 -232 264q0 130 100 202t275 72q191 0 299 -88.5t108 -249.5h-151q0 99 -67 156t-187 57q-104 0 -164.5 -40t-60.5 -103
q0 -55 36.5 -91t114.5 -59l238 -69q134 -38 200 -106t66 -179q0 -137 -98 -210.5t-283 -73.5zM330 -438l106 338l139 -39l-106 -336z" />
    <glyph glyph-name="uni021A" unicode="&#x21a;" horiz-adv-x="1341" 
d="M90 1444h1161v-131h-503v-1313h-152v1313h-506v131zM483 -438l107 338l139 -39l-106 -336z" />
    <glyph glyph-name="uni021B" unicode="&#x21b;" horiz-adv-x="870" 
d="M780 129v-129h-372q-69 0 -102.5 33.5t-33.5 103.5v750h-221v129h221v270l152 45v-315h315v-129h-315v-760zM350 -438l107 338l139 -39l-107 -336z" />
    <glyph glyph-name="uni0237" unicode="&#x237;" horiz-adv-x="589" 
d="M248 -57q22 40 29.5 72.5t7.5 82.5v789h-207v129h239q58 0 87.5 -24.5t29.5 -82.5v-839q0 -86 -37 -156l-157 -295h-162z" />
    <glyph glyph-name="uni0259" unicode="&#x259;" horiz-adv-x="1185" 
d="M109 662q14 58 36 108.5t61 100.5t90 85.5t125.5 57.5t164.5 22q120 0 215 -42.5t154 -117.5t89.5 -172t30.5 -210q0 -243 -129.5 -378.5t-347.5 -135.5q-221 0 -353 131t-132 362v62h817q-5 168 -91.5 272t-248.5 104q-136 0 -219.5 -65.5t-112.5 -183.5h-149zM262 416
q10 -147 101.5 -229.5t236.5 -82.5q136 0 226 83.5t102 228.5h-666z" />
    <glyph glyph-name="circumflex" unicode="&#x2c6;" horiz-adv-x="987" 
d="M815 1241l-90 -90l-231 195l-230 -195l-90 90l320 264z" />
    <glyph glyph-name="caron" unicode="&#x2c7;" horiz-adv-x="987" 
d="M174 1417l90 88l230 -192l231 192l90 -88l-321 -264z" />
    <glyph glyph-name="breve" unicode="&#x2d8;" horiz-adv-x="976" 
d="M487 1153q-142 0 -227.5 95.5t-85.5 252.5h125q0 -116 44 -169.5t144 -53.5q101 0 146 53.5t45 169.5h125q0 -157 -86 -252.5t-230 -95.5z" />
    <glyph glyph-name="dotaccent" unicode="&#x2d9;" horiz-adv-x="634" 
d="M315 1202q-55 0 -94 39t-39 94q0 54 39 92.5t94 38.5q56 0 96 -38.5t40 -92.5q0 -55 -40 -94t-96 -39z" />
    <glyph glyph-name="ring" unicode="&#x2da;" horiz-adv-x="755" 
d="M408 1147q-109 0 -171.5 64.5t-62.5 154.5t62.5 154.5t171.5 64.5t171 -64.5t62 -154.5q0 -89 -62.5 -154t-170.5 -65zM297 1366q0 -47 28.5 -73.5t82.5 -26.5t82 26.5t28 73.5q0 45 -28.5 71.5t-81.5 26.5q-54 0 -82.5 -26.5t-28.5 -71.5z" />
    <glyph glyph-name="ogonek" unicode="&#x2db;" horiz-adv-x="876" 
d="M705 -264v-127h-408q-76 0 -107 47.5t3 112.5l122 233h138l-140 -268z" />
    <glyph glyph-name="tilde" unicode="&#x2dc;" horiz-adv-x="1064" 
d="M174 1208q0 269 199 269q47 0 88 -17t69 -41t52 -48t49 -41t49 -17q40 0 63 29.5t23 113.5h125q0 -141 -53.5 -204.5t-145.5 -63.5q-47 0 -88 17t-68.5 41t-51.5 48t-49.5 41t-49.5 17q-40 0 -63 -30t-23 -114h-125z" />
    <glyph glyph-name="hungarumlaut" unicode="&#x2dd;" horiz-adv-x="1034" 
d="M494 1241l280 277l88 -91l-280 -274zM174 1241l279 277l88 -91l-281 -274z" />
    <glyph glyph-name="gravecomb" unicode="&#x300;" horiz-adv-x="0" 
d="M815 1309l-31 -121l-610 160l31 120z" />
    <glyph glyph-name="acutecomb" unicode="&#x301;" horiz-adv-x="0" 
d="M205 1188l-31 121l610 159l31 -120z" />
    <glyph glyph-name="uni0302" unicode="&#x302;" horiz-adv-x="0" 
d="M815 1241l-90 -90l-231 195l-230 -195l-90 90l320 264z" />
    <glyph glyph-name="tildecomb" unicode="&#x303;" horiz-adv-x="0" 
d="M174 1208q0 269 199 269q47 0 88 -17t69 -41t52 -48t49 -41t49 -17q40 0 63 29.5t23 113.5h125q0 -141 -53.5 -204.5t-145.5 -63.5q-47 0 -88 17t-68.5 41t-51.5 48t-49.5 41t-49.5 17q-40 0 -63 -30t-23 -114h-125z" />
    <glyph glyph-name="uni0304" unicode="&#x304;" horiz-adv-x="0" 
d="M174 1393h637v-125l-637 -2v127z" />
    <glyph glyph-name="uni0306" unicode="&#x306;" horiz-adv-x="0" 
d="M487 1153q-142 0 -227.5 95.5t-85.5 252.5h125q0 -116 44 -169.5t144 -53.5q101 0 146 53.5t45 169.5h125q0 -157 -86 -252.5t-230 -95.5z" />
    <glyph glyph-name="uni0307" unicode="&#x307;" horiz-adv-x="0" 
d="M315 1202q-55 0 -94 39t-39 94q0 54 39 92.5t94 38.5q56 0 96 -38.5t40 -92.5q0 -55 -40 -94t-96 -39z" />
    <glyph glyph-name="uni0308" unicode="&#x308;" horiz-adv-x="0" 
d="M315 1184q-60 0 -100.5 41t-40.5 100q0 57 41 98t100 41t101.5 -41t42.5 -98q0 -58 -42.5 -99.5t-101.5 -41.5zM582 1325q0 57 40.5 98t98.5 41q60 0 101.5 -41t41.5 -98q0 -59 -41.5 -100t-101.5 -41q-58 0 -98.5 41t-40.5 100z" />
    <glyph glyph-name="uni030A" unicode="&#x30a;" horiz-adv-x="0" 
d="M408 1147q-109 0 -171.5 64.5t-62.5 154.5t62.5 154.5t171.5 64.5t171 -64.5t62 -154.5q0 -89 -62.5 -154t-170.5 -65zM297 1366q0 -47 28.5 -73.5t82.5 -26.5t82 26.5t28 73.5q0 45 -28.5 71.5t-81.5 26.5q-54 0 -82.5 -26.5t-28.5 -71.5z" />
    <glyph glyph-name="uni030B" unicode="&#x30b;" horiz-adv-x="0" 
d="M494 1241l280 277l88 -91l-280 -274zM174 1241l279 277l88 -91l-281 -274z" />
    <glyph glyph-name="uni030C" unicode="&#x30c;" horiz-adv-x="0" 
d="M174 1417l90 88l230 -192l231 192l90 -88l-321 -264z" />
    <glyph glyph-name="uni0312" unicode="&#x312;" horiz-adv-x="0" 
d="M274 1585l140 -37l-101 -364l-139 37z" />
    <glyph glyph-name="uni0326" unicode="&#x326;" horiz-adv-x="0" 
d="M240 -100l139 -39l-107 -336l-139 37z" />
    <glyph glyph-name="uni0327" unicode="&#x327;" horiz-adv-x="0" 
d="M174 -254q85 0 123.5 1t84.5 7t62.5 20t16.5 38q0 43 -47 43q-30 0 -59.5 -11t-80.5 -45l-69 95l92 106h145l-114 -115q67 29 131 29q54 0 91.5 -28.5t37.5 -84.5q0 -38 -12.5 -67t-39.5 -48t-60 -31.5t-83.5 -18.5t-100 -8.5t-118.5 -2.5v121z" />
    <glyph glyph-name="uni0328" unicode="&#x328;" horiz-adv-x="0" 
d="M705 -264v-127h-408q-76 0 -107 47.5t3 112.5l122 233h138l-140 -268z" />
    <glyph glyph-name="uni0335" unicode="&#x335;" horiz-adv-x="0" 
d="M113 1384h559v-124h-559v124z" />
    <glyph glyph-name="uni0337" unicode="&#x337;" horiz-adv-x="0" 
d="M98 717l678 182l31 -121l-678 -182z" />
    <glyph glyph-name="uni0338" unicode="&#x338;" horiz-adv-x="0" 
d="M1217 1565l106 -62l-942 -1626l-105 62z" />
    <glyph glyph-name="uni0400" unicode="&#x400;" horiz-adv-x="1243" 
d="M154 0v1444h976v-131h-825v-525h723v-129h-723v-528h825v-131h-976zM276 1776l31 120l611 -159l-31 -121z" />
    <glyph glyph-name="uni0401" unicode="&#x401;" horiz-adv-x="1243" 
d="M154 0v1444h976v-131h-825v-525h723v-129h-723v-528h825v-131h-976zM250 1753q0 57 41 98t100 41t101.5 -41t42.5 -98q0 -58 -42.5 -99.5t-101.5 -41.5q-60 0 -100.5 41t-40.5 100zM657 1753q0 57 41 98t99 41q60 0 101.5 -41t41.5 -98q0 -59 -41.5 -100t-101.5 -41
q-58 0 -99 41t-41 100z" />
    <glyph glyph-name="uni0402" unicode="&#x402;" horiz-adv-x="1720" 
d="M90 1444h1155v-131h-500v-400h371q267 0 381.5 -102t114.5 -336q0 -113 -29 -198t-77 -137t-119 -84t-146 -44t-168 -12v131q113 0 190 24t119 72t59 108t17 144q0 94 -20.5 154t-68 92.5t-109.5 44.5t-160 12h-355v-782h-153v1313h-502v131z" />
    <glyph glyph-name="uni0403" unicode="&#x403;" horiz-adv-x="1103" 
d="M270 1444h764v-131h-729v-1313h-153v1325q0 57 30.5 88t87.5 31zM231 1737l611 159l30 -120l-610 -160z" />
    <glyph glyph-name="uni0404" unicode="&#x404;" horiz-adv-x="1576" 
d="M799 -20q-206 0 -359.5 98t-232 265.5t-78.5 379.5q0 211 78.5 378t232 265t359.5 98q273 0 444 -154t203 -423h-154q-25 214 -151 330t-342 116q-235 0 -367.5 -150t-146.5 -399h618v-127h-618q16 -248 148 -397t366 -149q216 0 342 116.5t151 331.5h154
q-32 -270 -203 -424.5t-444 -154.5z" />
    <glyph glyph-name="uni0405" unicode="&#x405;" horiz-adv-x="1378" 
d="M1288 377q0 -397 -536 -397q-319 0 -489.5 144.5t-170.5 414.5h154q0 -214 130.5 -322t379.5 -108q195 0 287 65t92 197q0 94 -65.5 162t-199.5 102l-389 100q-319 82 -319 357q0 182 127.5 277t369.5 95q286 0 436 -128.5t150 -364.5h-153q0 364 -433 364
q-344 0 -344 -237q0 -179 240 -240l385 -98q172 -44 260 -142.5t88 -240.5z" />
    <glyph glyph-name="uni0406" unicode="&#x406;" horiz-adv-x="1060" 
d="M131 1444h797v-131h-322v-1182h322v-131h-797v131h324v1182h-324v131z" />
    <glyph glyph-name="uni0407" unicode="&#x407;" horiz-adv-x="1060" 
d="M131 1444h797v-131h-322v-1182h322v-131h-797v131h324v1182h-324v131zM184 1753q0 57 41 98t101 41q59 0 101 -41t42 -98q0 -58 -42 -99.5t-101 -41.5q-60 0 -101 41t-41 100zM592 1753q0 57 40.5 98t98.5 41q60 0 101.5 -41t41.5 -98q0 -59 -41.5 -100t-101.5 -41
q-58 0 -98.5 41t-40.5 100z" />
    <glyph glyph-name="uni0408" unicode="&#x408;" horiz-adv-x="1083" 
d="M559 0h-489v131h458q142 0 206.5 88t64.5 262v832h-512v131h530q76 0 105.5 -26.5t29.5 -96.5v-877q0 -219 -101 -331.5t-292 -112.5z" />
    <glyph glyph-name="uni0409" unicode="&#x409;" horiz-adv-x="2226" 
d="M70 131q173 0 247 252q61 211 68 695q2 107 2 366h864v-553h320q133 0 228 -20.5t169 -69.5t111 -136.5t37 -215.5q0 -129 -37 -218t-110.5 -139t-169.5 -71t-228 -21h-471v1313h-561q0 -135 -2 -230.5t-7.5 -216.5t-15 -205.5t-26.5 -182t-41 -163t-59.5 -129.5
t-80.5 -102t-105 -61t-132 -23v131zM1251 129h324q97 0 164 13.5t120.5 48t79 98.5t25.5 160q0 95 -25.5 158t-79.5 96.5t-120 46t-164 12.5h-324v-633z" />
    <glyph glyph-name="uni040A" unicode="&#x40a;" horiz-adv-x="2291" 
d="M154 1444h151v-666h858v666h154v-553h319q133 0 228 -20.5t169 -69.5t111 -136.5t37 -215.5q0 -129 -37 -218t-110.5 -139t-169.5 -71t-228 -21h-473v649h-858v-649h-151v1444zM1317 129h323q97 0 164 13.5t120.5 48t79.5 98.5t26 160q0 95 -26 158t-79.5 96.5t-120 46
t-164.5 12.5h-323v-633z" />
    <glyph glyph-name="uni040B" unicode="&#x40b;" horiz-adv-x="1861" 
d="M1556 0v780h-808v-780h-152v1313h-506v131h1161v-131h-503v-400h858q53 0 78.5 -25t25.5 -81v-807h-154z" />
    <glyph glyph-name="uni040C" unicode="&#x40c;" horiz-adv-x="1341" 
d="M154 0v1444h151v-649h115l463 575q32 38 64 57t77 19h242v-131h-248l-465 -586l698 -729h-198l-643 666h-105v-666h-151zM348 1737l610 159l31 -120l-610 -160z" />
    <glyph glyph-name="uni040D" unicode="&#x40d;" horiz-adv-x="1533" 
d="M1380 0h-151v1384l-795 -1384h-280v1444h151v-1385l795 1385h280v-1444zM449 1776l30 120l611 -159l-31 -121z" />
    <glyph glyph-name="uni040F" unicode="&#x40f;" horiz-adv-x="1392" 
d="M154 0v1444h151v-1313h780v1313h154v-1444h-467v-268h-151v268h-467z" />
    <glyph glyph-name="uni0410" unicode="&#x410;" horiz-adv-x="1394" 
d="M63 0l498 1444h273l497 -1444h-157l-199 575h-555l-199 -575h-158zM465 705h467l-234 675z" />
    <glyph glyph-name="uni0411" unicode="&#x411;" horiz-adv-x="1282" 
d="M1065 1444v-131h-760v-422h320q105 0 186 -12.5t150 -43t113.5 -80.5t69.5 -126.5t25 -179.5q0 -104 -25 -182t-69.5 -128.5t-113.5 -81.5t-150 -44t-186 -13h-471v1444h911zM305 129h324q97 0 164 13.5t120.5 48t79 98.5t25.5 160q0 95 -25.5 158t-79.5 96.5t-120 46
t-164 12.5h-324v-633z" />
    <glyph glyph-name="uni0412" unicode="&#x412;" horiz-adv-x="1400" 
d="M154 0v1444h462q110 0 191.5 -9.5t152 -33t114.5 -63.5t68.5 -102t24.5 -146q0 -131 -71.5 -218t-180.5 -110q163 -16 261 -113t98 -266q0 -206 -141.5 -294.5t-415.5 -88.5h-563zM305 127h412q102 0 170.5 11t124 40.5t82 86t26.5 143.5q0 156 -101 219t-302 63h-412
v-563zM305 813h313q79 0 136.5 5.5t109.5 21.5t83.5 44t50 73t18.5 108q0 50 -10 88.5t-25.5 65t-44.5 45t-57.5 29t-74.5 16t-86 7t-100 1.5h-313v-504z" />
    <glyph glyph-name="uni0413" unicode="&#x413;" horiz-adv-x="1103" 
d="M270 1444h764v-131h-729v-1313h-153v1325q0 57 30.5 88t87.5 31z" />
    <glyph glyph-name="uni0414" unicode="&#x414;" horiz-adv-x="1605" 
d="M1313 1444v-1313h96q57 0 88 -31t31 -88v-280h-154v268h-1163v-268h-152v280q0 57 30.5 88t86.5 31h78q97 255 136.5 554.5t39.5 758.5h883zM408 131h751v1182h-573q-6 -399 -47 -672.5t-131 -509.5z" />
    <glyph glyph-name="uni0415" unicode="&#x415;" horiz-adv-x="1243" 
d="M154 0v1444h976v-131h-825v-525h723v-129h-723v-528h825v-131h-976z" />
    <glyph glyph-name="uni0416" unicode="&#x416;" horiz-adv-x="2066" 
d="M1790 0l-588 666h-92v-666h-152v666h-92l-587 -666h-199l639 733l-410 582h-246v131h246q92 0 146 -76l405 -575h98v649h152v-649h100l404 575q55 76 147 76h244v-131h-248l-407 -582l639 -733h-199z" />
    <glyph glyph-name="uni0417" unicode="&#x417;" horiz-adv-x="1378" 
d="M281 551q0 -236 105.5 -339t322.5 -103q385 0 385 317q0 130 -75.5 201t-209.5 71h-201v127h201q129 0 196.5 62.5t67.5 167.5q0 131 -88 205.5t-278 74.5q-208 0 -307 -89.5t-99 -272.5h-154q0 238 145.5 364.5t422.5 126.5q250 0 381 -105t131 -274q0 -119 -62 -207.5
t-180 -113.5q122 -33 192 -126.5t70 -231.5q0 -200 -137.5 -313t-394.5 -113q-285 0 -436.5 140t-151.5 431h154z" />
    <glyph glyph-name="uni0418" unicode="&#x418;" horiz-adv-x="1533" 
d="M1380 0h-151v1384l-795 -1384h-280v1444h151v-1385l795 1385h280v-1444z" />
    <glyph glyph-name="uni0419" unicode="&#x419;" horiz-adv-x="1533" 
d="M1380 0h-151v1384l-795 -1384h-280v1444h151v-1385l795 1385h280v-1444zM453 1929h125q0 -116 44 -169.5t144 -53.5q101 0 145.5 53.5t44.5 169.5h125q0 -158 -85.5 -253t-229.5 -95q-142 0 -227.5 95.5t-85.5 252.5z" />
    <glyph glyph-name="uni041A" unicode="&#x41a;" horiz-adv-x="1341" 
d="M154 0v1444h151v-649h115l463 575q32 38 64 57t77 19h242v-131h-248l-465 -586l698 -729h-198l-643 666h-105v-666h-151z" />
    <glyph glyph-name="uni041B" unicode="&#x41b;" horiz-adv-x="1404" 
d="M70 131q173 0 247 252q61 211 68 695q2 107 2 366h864v-1444h-151v1313h-561q0 -135 -2 -230.5t-7.5 -216.5t-15 -205.5t-26.5 -182t-41 -163t-59.5 -129.5t-80.5 -102t-105 -61t-132 -23v131z" />
    <glyph glyph-name="uni041C" unicode="&#x41c;" horiz-adv-x="1820" 
d="M154 0v1444h282l477 -1381l478 1381h278v-1444h-153v1376l-484 -1376h-241l-486 1376v-1376h-151z" />
    <glyph glyph-name="uni041D" unicode="&#x41d;" horiz-adv-x="1472" 
d="M154 1444h151v-666h858v666h154v-1444h-154v649h-858v-649h-151v1444z" />
    <glyph glyph-name="uni041E" unicode="&#x41e;" horiz-adv-x="1595" 
d="M129 723q0 211 78.5 378t232 265t359.5 98q205 0 357.5 -98t230 -265t77.5 -378q0 -158 -45.5 -294t-129 -236t-210 -156.5t-280.5 -56.5q-206 0 -359.5 98t-232 265.5t-78.5 379.5zM283 723q0 -133 32.5 -244t95.5 -193.5t162 -128.5t226 -46t225.5 46t160.5 128.5
t94 193t32 244.5t-32 244.5t-94 192.5t-160.5 127.5t-225.5 45.5t-226 -46t-162 -128t-95.5 -192.5t-32.5 -243.5z" />
    <glyph glyph-name="uni041F" unicode="&#x41f;" horiz-adv-x="1388" 
d="M154 1444h1081v-1444h-152v1313h-778v-1313h-151v1444z" />
    <glyph glyph-name="uni0420" unicode="&#x420;" horiz-adv-x="1249" 
d="M154 0v1444h393q116 0 205.5 -13.5t164.5 -46.5t123 -86t74.5 -134t26.5 -189q0 -135 -39.5 -228t-119 -145.5t-184.5 -75t-251 -22.5h-242v-504h-151zM305 633h244q82 0 143 7.5t119.5 29t95 58.5t58.5 99t22 148q0 85 -22 146t-58.5 98t-95 58.5t-119.5 28.5t-143 7
h-244v-680z" />
    <glyph glyph-name="uni0421" unicode="&#x421;" horiz-adv-x="1574" 
d="M799 -20q-206 0 -359.5 98t-232 265.5t-78.5 379.5q0 211 78.5 378t232 265t359.5 98q273 0 444 -154t203 -423h-154q-25 214 -151 330t-342 116q-126 0 -225 -45.5t-162.5 -127.5t-96 -193t-32.5 -244q0 -134 32.5 -245t96 -193.5t162.5 -128t225 -45.5q216 0 342 116.5
t151 331.5h154q-32 -270 -203 -424.5t-444 -154.5z" />
    <glyph glyph-name="uni0422" unicode="&#x422;" horiz-adv-x="1341" 
d="M90 1444h1161v-131h-503v-1313h-152v1313h-506v131z" />
    <glyph glyph-name="uni0423" unicode="&#x423;" horiz-adv-x="1308" 
d="M1079 1444h160l-496 -1012v-313q0 -119 -137 -119l-440 2v131l424 -2v301l-500 1012h160l416 -856z" />
    <glyph glyph-name="uni0424" unicode="&#x424;" horiz-adv-x="1662" 
d="M762 1452h139v-205q332 -11 502 -143t170 -385q0 -255 -170.5 -387.5t-501.5 -143.5v-196h-139v196q-332 12 -502 145t-170 386q0 252 170 384t502 144v205zM244 719q0 -199 128 -296t390 -106v801q-262 -9 -390 -105.5t-128 -293.5zM901 317q262 9 390 105.5t128 296.5
q0 198 -128 294t-390 105v-801z" />
    <glyph glyph-name="uni0425" unicode="&#x425;" horiz-adv-x="1366" 
d="M1311 0h-174l-453 651l-453 -651h-174l504 723l-504 721h174l453 -647l453 647h174l-506 -721z" />
    <glyph glyph-name="uni0426" unicode="&#x426;" horiz-adv-x="1398" 
d="M154 0v1444h151v-1313h778v1313h152v-1313h88q57 0 88 -31t31 -88v-280h-154v268h-1134z" />
    <glyph glyph-name="uni0427" unicode="&#x427;" horiz-adv-x="1421" 
d="M152 1444h153v-807h809v807h154v-1444h-154v504h-858q-54 0 -79 25t-25 83v832z" />
    <glyph glyph-name="uni0428" unicode="&#x428;" horiz-adv-x="1929" 
d="M154 0v1444h151v-1313h584v1313h151v-1313h584v1313h152v-1444h-1622z" />
    <glyph glyph-name="uni0429" unicode="&#x429;" horiz-adv-x="1939" 
d="M154 0v1444h151v-1313h584v1313h151v-1313h584v1313h152v-1313h135q57 0 88 -31t31 -88v-280h-154v268h-1722z" />
    <glyph glyph-name="uni042A" unicode="&#x42a;" horiz-adv-x="1294" 
d="M319 1444v-553h320q133 0 228 -20.5t169 -69.5t111 -136.5t37 -215.5q0 -129 -37 -218t-110.5 -139t-169.5 -71t-228 -21h-471v1313h-252v131h403zM319 129h324q97 0 164 13.5t120.5 48t79 98.5t25.5 160q0 95 -25.5 158t-79.5 96.5t-120 46t-164 12.5h-324v-633z" />
    <glyph glyph-name="uni042B" unicode="&#x42b;" horiz-adv-x="1736" 
d="M305 1444v-553h320q105 0 186 -12.5t150 -43t113.5 -80.5t69.5 -126.5t25 -179.5q0 -104 -25 -182t-69.5 -128.5t-113.5 -81.5t-150 -44t-186 -13h-471v1444h151zM305 129h324q97 0 164 13.5t120.5 48t79 98.5t25.5 160q0 95 -25.5 158t-79.5 96.5t-120 46t-164 12.5
h-324v-633zM1434 0v1444h149v-1444h-149z" />
    <glyph glyph-name="uni042C" unicode="&#x42c;" horiz-adv-x="1280" 
d="M305 1444v-553h320q105 0 186 -12.5t150 -43t113.5 -80.5t69.5 -126.5t25 -179.5q0 -104 -25 -182t-69.5 -128.5t-113.5 -81.5t-150 -44t-186 -13h-471v1444h151zM305 129h324q97 0 164 13.5t120.5 48t79 98.5t25.5 160q0 95 -25.5 158t-79.5 96.5t-120 46t-164 12.5
h-324v-633z" />
    <glyph glyph-name="uni042D" unicode="&#x42d;" horiz-adv-x="1576" 
d="M778 1464q206 0 359.5 -98t232 -265.5t78.5 -379.5q0 -211 -78.5 -378t-232 -265t-359.5 -98q-273 0 -444 154t-203 423h154q25 -214 151 -330t342 -116q235 0 367.5 150t146.5 398h-618v127h618q-16 248 -148 397.5t-366 149.5q-216 0 -342 -116.5t-151 -331.5h-154
q32 270 203 424.5t444 154.5z" />
    <glyph glyph-name="uni042E" unicode="&#x42e;" horiz-adv-x="1890" 
d="M698 723q0 -133 27.5 -243t82 -193t143 -129.5t204.5 -46.5q115 0 203 46t142 129.5t81 193.5t27 243t-27 242.5t-81 192.5t-142 129t-203 46q-116 0 -204.5 -46t-143 -129t-82 -192.5t-27.5 -242.5zM154 0v1444h151v-656h242q8 147 50.5 270t117 214t187.5 141.5
t253 50.5q117 0 215.5 -36.5t170 -103t121.5 -158.5t74.5 -204t24.5 -239q0 -160 -39 -295t-113.5 -235t-191 -156.5t-262.5 -56.5q-141 0 -253.5 50.5t-187 141.5t-117 214t-50.5 271h-242v-657h-151z" />
    <glyph glyph-name="uni042F" unicode="&#x42f;" horiz-adv-x="1294" 
d="M1141 0h-152v668h-287h-34l-215 -590q-15 -38 -53 -58t-89 -20h-237v131h243l199 547q-183 24 -274.5 112t-91.5 267q0 113 36.5 189.5t111 119.5t171 60.5t233.5 17.5h439v-1444zM303 1057q0 -68 18 -115t48.5 -75.5t83 -44t108 -20.5t137.5 -5h291v518h-291
q-82 0 -137 -5t-108 -20t-83.5 -43t-48.5 -75t-18 -115z" />
    <glyph glyph-name="uni0430" unicode="&#x430;" horiz-adv-x="1202" 
d="M111 283q0 125 79 201.5t246 90.5l414 39q-9 151 -77.5 223t-211.5 72q-116 0 -189 -60.5t-87 -191.5h-154q21 174 130.5 276.5t299.5 102.5q216 0 328 -125t112 -331v-451h150v-129h-176q-57 0 -87 30.5t-30 86.5v135q-39 -120 -140.5 -196t-271.5 -76q-84 0 -147 22
t-98 53.5t-56 75.5t-27.5 79.5t-6.5 72.5zM262 299q0 -93 53.5 -143t149.5 -50q172 0 278.5 111t106.5 279l-389 -39q-103 -9 -151 -45.5t-48 -112.5z" />
    <glyph glyph-name="uni0431" unicode="&#x431;" horiz-adv-x="1300" 
d="M131 651q0 145 32.5 254.5t101 190t166 136.5t237.5 99q166 52 226 87.5t73 92.5h178q-11 -53 -39 -94.5t-56.5 -67t-96.5 -52.5t-109.5 -39.5t-144.5 -40.5q-5 -2 -8 -2.5t-8 -2t-9 -2.5q-206 -58 -315 -176.5t-109 -296.5v-8q46 136 161.5 221.5t272.5 85.5
q238 0 372 -143t134 -373q0 -158 -57 -278t-178 -191t-293 -71q-257 0 -394 172t-137 499zM283 498q0 -74 25 -143t71 -124.5t119.5 -88.5t163.5 -33q181 0 278.5 108.5t97.5 302.5q0 179 -96.5 283t-277.5 104q-175 0 -278 -109.5t-103 -299.5z" />
    <glyph glyph-name="uni0432" unicode="&#x432;" horiz-adv-x="1120" 
d="M152 0v1016h407q97 0 166.5 -11t126 -38.5t85 -78t28.5 -124.5q0 -98 -52 -154.5t-137 -72.5q123 -11 193.5 -76t70.5 -191q0 -270 -405 -270h-483zM295 109h340q135 0 197.5 41t62.5 137q0 104 -63.5 145t-196.5 41h-340v-364zM295 584h264q56 0 93 3t71.5 13t53.5 28
t30.5 48t11.5 74q0 87 -61.5 122t-198.5 35h-264v-323z" />
    <glyph glyph-name="uni0433" unicode="&#x433;" horiz-adv-x="892" 
d="M152 881q0 69 33.5 102t103.5 33h555v-129h-541v-887h-151v881z" />
    <glyph glyph-name="uni0434" unicode="&#x434;" horiz-adv-x="1347" 
d="M250 129q82 171 116.5 377t34.5 510h680v-887h86q55 0 86 -30.5t31 -86.5v-280h-151v268h-914v-268h-151v280q0 56 30.5 86.5t87.5 30.5h64zM399 129h533v758h-383q-6 -248 -41.5 -426t-108.5 -332z" />
    <glyph glyph-name="uni0435" unicode="&#x435;" horiz-adv-x="1185" 
d="M111 522q0 243 129.5 378.5t347.5 135.5q221 0 353 -131t132 -362v-62h-817q5 -168 91.5 -272.5t248.5 -104.5q136 0 219.5 66t112.5 184h149q-14 -58 -36 -108.5t-61 -100.5t-90 -85.5t-125.5 -57.5t-164.5 -22q-120 0 -215 42.5t-154 117.5t-89.5 172t-30.5 210z
M258 600h666q-10 147 -101.5 229t-236.5 82q-136 0 -226 -83t-102 -228z" />
    <glyph glyph-name="uni0436" unicode="&#x436;" horiz-adv-x="1609" 
d="M881 1016v-443h49l301 367q34 39 66.5 57.5t76.5 18.5h158v-129h-164l-299 -371l481 -516h-186l-418 446h-65v-446h-152v446h-65l-418 -446h-189l482 516l-297 371h-164v129h158q44 0 76.5 -18.5t66.5 -57.5l299 -367h51v443h152z" />
    <glyph glyph-name="uni0437" unicode="&#x437;" horiz-adv-x="1138" 
d="M276 397q0 -156 77 -229.5t239 -73.5q146 0 207 54t61 155q0 87 -53.5 133.5t-161.5 46.5h-139v111h139q195 0 195 162q0 73 -59 119.5t-199 46.5q-283 0 -283 -222h-147q0 161 107.5 248.5t318.5 87.5q197 0 303 -75t106 -193q0 -90 -48.5 -148t-135.5 -79
q92 -20 149.5 -85t57.5 -165q0 -144 -111 -227.5t-313 -83.5q-220 0 -338.5 102t-118.5 315h147z" />
    <glyph glyph-name="uni0438" unicode="&#x438;" horiz-adv-x="1259" 
d="M1108 0h-147v956l-547 -956h-262v1016h143v-955l551 955h262v-1016z" />
    <glyph glyph-name="uni0439" unicode="&#x439;" horiz-adv-x="1259" 
d="M1108 0h-147v956l-547 -956h-262v1016h143v-955l551 955h262v-1016zM315 1501h125q0 -115 44.5 -169t144.5 -54q101 0 145.5 53.5t44.5 169.5h125q0 -158 -85.5 -253t-229.5 -95q-142 0 -228 95.5t-86 252.5z" />
    <glyph glyph-name="uni043A" unicode="&#x43a;" horiz-adv-x="1050" 
d="M152 1016h151v-445h70l297 369q60 76 141 76h158v-129h-164l-297 -369l483 -518h-186l-420 446h-82v-446h-151v1016z" />
    <glyph glyph-name="uni043B" unicode="&#x43b;" horiz-adv-x="1177" 
d="M1026 1016v-1016h-152v887h-417q0 -106 -1.5 -180.5t-6 -159.5t-12 -143t-20.5 -119.5t-31 -102t-44 -78t-59.5 -58.5t-77 -33.5t-96.5 -12.5v129q134 0 165 179.5t31 666.5v41h721z" />
    <glyph glyph-name="uni043C" unicode="&#x43c;" horiz-adv-x="1466" 
d="M152 0v1016h290l281 -971h18l281 971h293v-1016h-146v971h-12l-285 -971h-280l-281 971h-16v-971h-143z" />
    <glyph glyph-name="uni043D" unicode="&#x43d;" horiz-adv-x="1187" 
d="M152 1016h151v-443h582v443h151v-1016h-151v444h-582v-444h-151v1016z" />
    <glyph glyph-name="uni043E" unicode="&#x43e;" horiz-adv-x="1284" 
d="M111 508q0 146 64 265.5t186.5 191t281.5 71.5q119 0 219.5 -41.5t168 -113t105.5 -168t38 -205.5t-38 -205.5t-105.5 -168t-168 -113t-219.5 -41.5q-159 0 -281.5 71.5t-186.5 191t-64 265.5zM262 508q0 -110 42 -199t130 -144.5t209 -55.5q120 0 207.5 55.5
t129.5 144.5t42 199t-42 199t-129.5 144.5t-207.5 55.5q-121 0 -209 -55.5t-130 -144.5t-42 -199z" />
    <glyph glyph-name="uni043F" unicode="&#x43f;" horiz-adv-x="1122" 
d="M152 1016h819v-1016h-150v887h-518v-887h-151v1016z" />
    <glyph glyph-name="uni0440" unicode="&#x440;" 
d="M152 -373v1389h151v-258q55 131 169 204.5t276 73.5q213 0 345 -146.5t132 -383.5q0 -234 -132 -380t-345 -146q-164 0 -277.5 74.5t-167.5 203.5v-631h-151zM309 506q0 -126 56 -218t143.5 -135.5t191.5 -43.5q78 0 145 24.5t118.5 72t80.5 125t29 175.5
q0 196 -105 298.5t-268 102.5q-78 0 -147 -25.5t-124 -74t-87.5 -126.5t-32.5 -175z" />
    <glyph glyph-name="uni0441" unicode="&#x441;" horiz-adv-x="1202" 
d="M111 508q0 147 58.5 265t177 190.5t278.5 72.5q59 0 118.5 -13t119.5 -43.5t107.5 -75.5t80.5 -114.5t41 -154.5h-154q-22 144 -105.5 208t-207.5 64q-90 0 -161 -32t-114 -87.5t-65.5 -126.5t-22.5 -153t22.5 -153t65.5 -126.5t114 -87.5t161 -32q124 0 207.5 64
t105.5 208h154q-8 -85 -41 -154.5t-80.5 -114.5t-107.5 -75.5t-119.5 -43.5t-118.5 -13q-160 0 -278.5 72.5t-177 190.5t-58.5 265z" />
    <glyph glyph-name="uni0442" unicode="&#x442;" horiz-adv-x="1101" 
d="M92 1016h918v-129h-383v-887h-152v887h-383v129z" />
    <glyph glyph-name="uni0443" unicode="&#x443;" horiz-adv-x="1122" 
d="M911 1016h166l-438 -1010v-293q0 -106 -104 -106h-416v133h366v266l-440 1010h162l354 -838z" />
    <glyph glyph-name="uni0444" unicode="&#x444;" horiz-adv-x="1499" 
d="M676 1382h149v-348q138 -10 246.5 -55t177.5 -116t104.5 -160.5t35.5 -192.5q0 -215 -146 -361.5t-418 -166.5v-351h-149v351q-138 10 -247.5 55.5t-178 117t-104 162t-35.5 193.5t35.5 192.5t104 160.5t178 116t247.5 55v348zM262 510q0 -164 101.5 -272.5t312.5 -126.5
v794q-211 -18 -312.5 -126t-101.5 -269zM825 111q210 18 311 127t101 272q0 77 -23.5 142.5t-71.5 119.5t-129 89t-188 44v-794z" />
    <glyph glyph-name="uni0445" unicode="&#x445;" horiz-adv-x="1169" 
d="M72 0l377 510l-377 506h172l321 -441l322 441h174l-377 -506l377 -510h-174l-322 440l-321 -440h-172z" />
    <glyph glyph-name="uni0446" unicode="&#x446;" horiz-adv-x="1138" 
d="M152 0v1016h149v-887h518v887h152v-887h90q55 0 86 -30.5t31 -86.5v-280h-152v268h-874z" />
    <glyph glyph-name="uni0447" unicode="&#x447;" horiz-adv-x="1230" 
d="M150 1016h151v-527h627v527h151v-1016h-151v358h-674q-104 0 -104 91v567z" />
    <glyph glyph-name="uni0448" unicode="&#x448;" horiz-adv-x="1556" 
d="M152 0v1016h151v-887h399v887h152v-887h399v887h152v-1016h-1253z" />
    <glyph glyph-name="uni0449" unicode="&#x449;" horiz-adv-x="1570" 
d="M152 0v1016h151v-887h399v887h152v-887h399v887h152v-887h88q55 0 86 -30.5t31 -86.5v-280h-152v268h-1306z" />
    <glyph glyph-name="uni044A" unicode="&#x44a;" horiz-adv-x="1079" 
d="M539 717q96 0 170 -17t134.5 -56.5t93 -111.5t32.5 -174q0 -101 -32.5 -173t-93 -111.5t-134.5 -56.5t-170 -17h-375v893h-252v129h403v-305h224zM315 127h203q59 0 98.5 4t81 17.5t65.5 38t39 67.5t15 104t-15 104t-39 68t-65 38.5t-81 17.5t-99 4h-203v-463z" />
    <glyph glyph-name="uni044B" unicode="&#x44b;" horiz-adv-x="1480" 
d="M526 717q96 0 170 -17t134.5 -56.5t93 -111.5t32.5 -174q0 -101 -32.5 -173t-93 -111.5t-134.5 -56.5t-170 -17h-374v1016h151v-299h223zM303 127h203q59 0 98.5 4t81 17.5t65.5 38t39 67.5t15 104t-15 104t-39 68t-65 38.5t-81 17.5t-99 4h-203v-463zM1198 0v1016h152
v-1016h-152z" />
    <glyph glyph-name="uni044C" unicode="&#x44c;" horiz-adv-x="1067" 
d="M526 717q96 0 170 -17t134.5 -56.5t93 -111.5t32.5 -174q0 -101 -32.5 -173t-93 -111.5t-134.5 -56.5t-170 -17h-374v1016h151v-299h223zM303 127h203q59 0 98.5 4t81 17.5t65.5 38t39 67.5t15 104t-15 104t-39 68t-65 38.5t-81 17.5t-99 4h-203v-463z" />
    <glyph glyph-name="uni044D" unicode="&#x44d;" horiz-adv-x="1202" 
d="M1092 508q0 -147 -58.5 -265t-177 -190.5t-278.5 -72.5q-59 0 -118.5 13t-119.5 43.5t-107.5 75.5t-80.5 114.5t-41 154.5h153q22 -144 106 -208t208 -64q161 0 252.5 95t107.5 245h-485v120h483q-14 149 -106 243.5t-252 94.5q-124 0 -208 -64t-106 -208h-153
q8 85 41 154.5t80.5 114.5t107.5 75.5t119.5 43.5t118.5 13q160 0 278.5 -72.5t177 -190.5t58.5 -265z" />
    <glyph glyph-name="uni044E" unicode="&#x44e;" horiz-adv-x="1636" 
d="M1038 -20q-147 0 -255.5 63t-165 166t-68.5 235h-246v-444h-151v1016h151v-443h246q10 98 45 181t94.5 146.5t149 99.5t200.5 36q119 0 213.5 -42t153.5 -115t90 -167.5t31 -203.5t-31 -203.5t-90 -167.5t-153.5 -115t-213.5 -42zM698 508q0 -84 19 -153.5t57.5 -126
t106 -88t157.5 -31.5q89 0 155.5 31.5t105 88t57 126t18.5 153.5t-18.5 153.5t-57 126t-105 88t-155.5 31.5q-90 0 -157.5 -31.5t-106 -88t-57.5 -126t-19 -153.5z" />
    <glyph glyph-name="uni044F" unicode="&#x44f;" horiz-adv-x="1015" 
d="M864 0h-151v446h-232l-184 -368q-44 -78 -141 -78h-119v121h147l150 330q-140 13 -210.5 76.5t-70.5 197.5q0 154 92.5 222.5t280.5 68.5h438v-1016zM205 733q0 -95 52 -138.5t165 -43.5h291v362h-291q-113 0 -165 -43t-52 -137z" />
    <glyph glyph-name="uni0450" unicode="&#x450;" horiz-adv-x="1185" 
d="M928 1309l-31 -121l-610 160l30 120zM111 522q0 243 129.5 378.5t347.5 135.5q221 0 353 -131t132 -362v-62h-817q5 -168 91.5 -272.5t248.5 -104.5q136 0 219.5 66t112.5 184h149q-14 -58 -36 -108.5t-61 -100.5t-90 -85.5t-125.5 -57.5t-164.5 -22q-120 0 -215 42.5
t-154 117.5t-89.5 172t-30.5 210zM258 600h666q-10 147 -101.5 229t-236.5 82q-136 0 -226 -83t-102 -228z" />
    <glyph glyph-name="uni0451" unicode="&#x451;" horiz-adv-x="1185" 
d="M401 1184q-60 0 -100.5 41t-40.5 100q0 57 41 98t100 41t101.5 -41t42.5 -98q0 -58 -42.5 -99.5t-101.5 -41.5zM111 522q0 243 129.5 378.5t347.5 135.5q221 0 353 -131t132 -362v-62h-817q5 -168 91.5 -272.5t248.5 -104.5q136 0 219.5 66t112.5 184h149
q-14 -58 -36 -108.5t-61 -100.5t-90 -85.5t-125.5 -57.5t-164.5 -22q-120 0 -215 42.5t-154 117.5t-89.5 172t-30.5 210zM258 600h666q-10 147 -101.5 229t-236.5 82q-136 0 -226 -83t-102 -228zM668 1325q0 57 40.5 98t98.5 41q60 0 101.5 -41t41.5 -98q0 -59 -41.5 -100
t-101.5 -41q-58 0 -98.5 41t-40.5 100z" />
    <glyph glyph-name="uni0452" unicode="&#x452;" horiz-adv-x="1228" 
d="M160 0v1262h-117v124h117v119h151v-119h291v-124h-291v-529q42 144 150 223.5t272 79.5q173 0 269 -107.5t96 -305.5v-623h-2v-274q0 -119 -138 -119h-383v129h367v264h2v610q0 157 -63 227t-199 70q-170 0 -270.5 -129t-100.5 -336v-442h-151z" />
    <glyph glyph-name="uni0453" unicode="&#x453;" horiz-adv-x="897" 
d="M152 881q0 69 33.5 102t103.5 33h555v-129h-541v-887h-151v881zM199 1309l610 159l31 -120l-611 -160z" />
    <glyph glyph-name="uni0454" unicode="&#x454;" horiz-adv-x="1202" 
d="M111 508q0 147 58.5 265t177 190.5t278.5 72.5q59 0 118.5 -13t119.5 -43.5t107.5 -75.5t80.5 -114.5t41 -154.5h-154q-22 144 -105.5 208t-207.5 64q-161 0 -253 -95t-108 -245h486v-121h-484q14 -149 106.5 -243t252.5 -94q124 0 207.5 64t105.5 208h154
q-8 -85 -41 -154.5t-80.5 -114.5t-107.5 -75.5t-119.5 -43.5t-118.5 -13q-160 0 -278.5 72.5t-177 190.5t-58.5 265z" />
    <glyph glyph-name="uni0455" unicode="&#x455;" horiz-adv-x="1013" 
d="M559 -20q-220 0 -343.5 104t-123.5 291h152q0 -133 82.5 -202t232.5 -69q232 0 232 162q0 58 -37.5 93.5t-124.5 60.5l-264 78q-232 67 -232 264q0 130 100 202t275 72q191 0 299 -88.5t108 -249.5h-151q0 99 -67 156t-187 57q-104 0 -164.5 -40t-60.5 -103
q0 -55 36.5 -91t114.5 -59l238 -69q134 -38 200 -106t66 -179q0 -137 -98 -210.5t-283 -73.5z" />
    <glyph glyph-name="uni0456" unicode="&#x456;" horiz-adv-x="886" 
d="M113 0v129h280v758h-203v129h238q53 0 78.5 -26.5t25.5 -84.5v-776h285v-129h-704zM309 1335q0 54 39 92.5t94 38.5q56 0 96 -38.5t40 -92.5q0 -55 -40 -94t-96 -39t-94.5 39t-38.5 94z" />
    <glyph glyph-name="uni0457" unicode="&#x457;" horiz-adv-x="886" 
d="M113 0v129h280v758h-203v129h238q53 0 78.5 -26.5t25.5 -84.5v-776h285v-129h-704zM98 1325q0 57 41 98t101 41q59 0 101 -41t42 -98q0 -58 -42 -99.5t-101 -41.5q-60 0 -101 41t-41 100zM506 1325q0 57 40.5 98t98.5 41q60 0 101.5 -41t41.5 -98q0 -59 -41.5 -100
t-101.5 -41q-58 0 -98.5 41t-40.5 100z" />
    <glyph glyph-name="uni0458" unicode="&#x458;" horiz-adv-x="589" 
d="M248 -57q22 40 29.5 72.5t7.5 82.5v789h-207v129h239q58 0 87.5 -24.5t29.5 -82.5v-839q0 -86 -37 -156l-157 -295h-162zM207 1335q0 54 39 92.5t94 38.5q56 0 95.5 -38.5t39.5 -92.5q0 -55 -39.5 -94t-95.5 -39t-94.5 39t-38.5 94z" />
    <glyph glyph-name="uni0459" unicode="&#x459;" horiz-adv-x="1789" 
d="M1026 1016v-299h223q96 0 170 -17t134.5 -56.5t93 -111.5t32.5 -174q0 -101 -32.5 -173t-93 -111.5t-134.5 -56.5t-170 -17h-375v887h-417q0 -106 -1.5 -180.5t-6 -159.5t-12 -143t-20.5 -119.5t-31 -102t-44 -78t-59.5 -58.5t-77 -33.5t-96.5 -12.5v129q134 0 165 179.5
t31 666.5v41h721zM1026 127h203q59 0 98.5 4t81 17.5t65.5 38t39 67.5t15 104t-15 104t-39 68t-65 38.5t-81 17.5t-99 4h-203v-463z" />
    <glyph glyph-name="uni045A" unicode="&#x45a;" horiz-adv-x="1798" 
d="M152 1016h151v-443h582v443h151v-299h224q96 0 170 -17t134.5 -56.5t93 -111.5t32.5 -174q0 -101 -32.5 -173t-93 -111.5t-134.5 -56.5t-170 -17h-375v444h-582v-444h-151v1016zM1036 127h203q59 0 98.5 4t81 17.5t65.5 38t39 67.5t15 104t-15 104t-39 68t-65 38.5
t-81 17.5t-99 4h-203v-463z" />
    <glyph glyph-name="uni045B" unicode="&#x45b;" horiz-adv-x="1228" 
d="M160 0v1262h-117v124h117v119h151v-119h291v-124h-291v-529q42 144 150 223.5t272 79.5q173 0 269 -107.5t96 -305.5v-623h-154v610q0 157 -63 227t-199 70q-170 0 -270.5 -129t-100.5 -336v-442h-151z" />
    <glyph glyph-name="uni045C" unicode="&#x45c;" horiz-adv-x="1050" 
d="M152 1016h151v-445h70l297 369q60 76 141 76h158v-129h-164l-297 -369l483 -518h-186l-420 446h-82v-446h-151v1016zM203 1309l610 159l31 -120l-611 -160z" />
    <glyph glyph-name="uni045F" unicode="&#x45f;" horiz-adv-x="1187" 
d="M152 0v1014h151v-885h580v885h151v-1014h-364v-268h-152v268h-366z" />
    <glyph glyph-name="uni0490" unicode="&#x490;" horiz-adv-x="1101" 
d="M270 1444h611v188h151v-188h2v-131h-729v-1313h-153v1325q0 57 30.5 88t87.5 31z" />
    <glyph glyph-name="uni0491" unicode="&#x491;" horiz-adv-x="897" 
d="M152 881q0 69 33.5 102t103.5 33h403v248h152v-377h-541v-887h-151v881z" />
    <glyph glyph-name="uni1E20" unicode="&#x1e20;" horiz-adv-x="1609" 
d="M772 -20q-161 0 -285.5 55.5t-201.5 155t-116.5 230.5t-39.5 288q0 344 179 549.5t499 205.5q257 0 419 -141.5t197 -394.5h-155q-25 194 -143 300.5t-314 106.5q-169 0 -289 -79.5t-179.5 -220.5t-59.5 -330q0 -126 28.5 -230.5t87.5 -188t161 -130.5t239 -47
q249 0 375.5 138t117.5 402h-598v119h637q62 0 90.5 -25.5t28.5 -80.5v-662h-154v303q-12 -42 -34.5 -82.5t-65.5 -85.5t-98.5 -78.5t-140.5 -55t-185 -21.5zM479 1694v127h637v-125z" />
    <glyph glyph-name="uni1E21" unicode="&#x1e21;" 
d="M588 -20q-213 0 -345 146.5t-132 381.5t132 381.5t345 146.5q163 0 276 -74.5t168 -203.5v258h152v-1292q0 -119 -135 -119h-758v129h741v524q-55 -131 -168.5 -204.5t-275.5 -73.5zM262 508q0 -195 105 -297t268 -102q77 0 146.5 25.5t124.5 73.5t87.5 125.5t32.5 174.5
q0 96 -32.5 173.5t-87 125.5t-124.5 74t-147 26q-163 0 -268 -102t-105 -297zM348 1266v127h637v-125z" />
    <glyph glyph-name="Wgrave" unicode="&#x1e80;" horiz-adv-x="1855" 
d="M1810 1444l-297 -1444h-270l-315 1380l-312 -1380h-274l-297 1444h152l272 -1278l18 -96l312 1374h260l313 -1372l17 94l268 1278h153zM608 1776l31 120l610 -159l-30 -121z" />
    <glyph glyph-name="wgrave" unicode="&#x1e81;" horiz-adv-x="1757" 
d="M76 1016h143l252 -848l27 -100l254 948h256l252 -936l24 90l252 846h143l-295 -1016h-251l-254 954l-252 -954h-260zM561 1348l31 120l610 -159l-31 -121z" />
    <glyph glyph-name="Wacute" unicode="&#x1e82;" horiz-adv-x="1855" 
d="M1810 1444l-297 -1444h-270l-315 1380l-312 -1380h-274l-297 1444h152l272 -1278l18 -96l312 1374h260l313 -1372l17 94l268 1278h153zM606 1737l611 159l30 -120l-610 -160z" />
    <glyph glyph-name="wacute" unicode="&#x1e83;" horiz-adv-x="1757" 
d="M76 1016h143l252 -848l27 -100l254 948h256l252 -936l24 90l252 846h143l-295 -1016h-251l-254 954l-252 -954h-260zM557 1309l610 159l31 -120l-610 -160z" />
    <glyph glyph-name="Wdieresis" unicode="&#x1e84;" horiz-adv-x="1855" 
d="M1810 1444l-297 -1444h-270l-315 1380l-312 -1380h-274l-297 1444h152l272 -1278l18 -96l312 1374h260l313 -1372l17 94l268 1278h153zM582 1753q0 57 41 98t100 41t101 -41t42 -98q0 -58 -42 -99.5t-101 -41.5q-60 0 -100.5 41t-40.5 100zM989 1753q0 57 40.5 98
t98.5 41q60 0 102 -41t42 -98q0 -59 -42 -100t-102 -41q-58 0 -98.5 41t-40.5 100z" />
    <glyph glyph-name="wdieresis" unicode="&#x1e85;" horiz-adv-x="1757" 
d="M76 1016h143l252 -848l27 -100l254 948h256l252 -936l24 90l252 846h143l-295 -1016h-251l-254 954l-252 -954h-260zM535 1325q0 57 40.5 98t100.5 41q59 0 101 -41t42 -98q0 -58 -42 -99.5t-101 -41.5q-60 0 -100.5 41t-40.5 100zM942 1325q0 57 40.5 98t98.5 41
q60 0 102 -41t42 -98q0 -59 -42 -100t-102 -41q-58 0 -98.5 41t-40.5 100z" />
    <glyph glyph-name="uni1E9E" unicode="&#x1e9e;" horiz-adv-x="1302" 
d="M154 1001q0 124 35 215t100.5 144.5t150 78.5t191.5 25q100 0 179 -21.5t127 -55t80 -78t44 -87t12 -85.5q0 -102 -76 -195.5t-231 -150.5q211 28 345 -78.5t134 -311.5q0 -199 -131.5 -300t-380.5 -101h-313v131h313q172 0 264.5 76t92.5 215q0 161 -114.5 235
t-303.5 25l-45 158q85 24 144.5 56t91 69.5t44.5 74t13 78.5q0 95 -67 156t-220 61q-165 0 -246.5 -83.5t-81.5 -266.5v-985h-151v1001z" />
    <glyph glyph-name="uni1EBC" unicode="&#x1ebc;" horiz-adv-x="1243" 
d="M154 0v1444h976v-131h-825v-525h723v-129h-723v-528h825v-131h-976zM236 1636q0 269 198 269q47 0 88 -17t69 -41t52 -48t49 -41t49 -17q40 0 63 29.5t23 113.5h125q0 -268 -198 -268q-47 0 -88 17t-69 41t-52 48t-49.5 41t-49.5 17q-40 0 -63 -30t-23 -114h-124z" />
    <glyph glyph-name="uni1EBD" unicode="&#x1ebd;" horiz-adv-x="1185" 
d="M248 1208q0 269 198 269q47 0 88 -17t69 -41t52.5 -48t49.5 -41t49 -17q40 0 63 29.5t23 113.5h125q0 -141 -53.5 -204.5t-145.5 -63.5q-47 0 -88 17t-68.5 41t-51.5 48t-49.5 41t-49.5 17q-40 0 -63 -30t-23 -114h-125zM111 522q0 243 129.5 378.5t347.5 135.5
q221 0 353 -131t132 -362v-62h-817q5 -168 91.5 -272.5t248.5 -104.5q136 0 219.5 66t112.5 184h149q-14 -58 -36 -108.5t-61 -100.5t-90 -85.5t-125.5 -57.5t-164.5 -22q-120 0 -215 42.5t-154 117.5t-89.5 172t-30.5 210zM258 600h666q-10 147 -101.5 229t-236.5 82
q-136 0 -226 -83t-102 -228z" />
    <glyph glyph-name="Ygrave" unicode="&#x1ef2;" 
d="M1104 1444h162l-471 -826h-52v-618h-151v618h-49l-473 826h161l437 -776zM350 1776l31 120l610 -159l-30 -121z" />
    <glyph glyph-name="ygrave" unicode="&#x1ef3;" horiz-adv-x="1202" 
d="M1071 1016v-1016h2v-276q0 -119 -135 -119h-758v129h742v266h-2v283q-42 -144 -150 -223.5t-272 -79.5q-173 0 -269 107.5t-96 305.5v623h154v-610q0 -157 63 -227t199 -70q170 0 270.5 128.5t100.5 335.5v443h151zM301 1348l31 120l610 -159l-31 -121z" />
    <glyph glyph-name="uni1EF8" unicode="&#x1ef8;" 
d="M1104 1444h162l-471 -826h-52v-618h-151v618h-49l-473 826h161l437 -776zM309 1636q0 269 199 269q47 0 88 -17t69 -41t52 -48t49 -41t49 -17q40 0 63 29.5t23 113.5h125q0 -141 -53.5 -204.5t-145.5 -63.5q-47 0 -88 17t-68.5 41t-51.5 48t-49.5 41t-49.5 17
q-40 0 -63 -30t-23 -114h-125z" />
    <glyph glyph-name="uni1EF9" unicode="&#x1ef9;" horiz-adv-x="1202" 
d="M1071 1016v-1016h2v-276q0 -119 -135 -119h-758v129h742v266h-2v283q-42 -144 -150 -223.5t-272 -79.5q-173 0 -269 107.5t-96 305.5v623h154v-610q0 -157 63 -227t199 -70q170 0 270.5 128.5t100.5 335.5v443h151zM262 1208q0 269 199 269q47 0 88 -17t69 -41t52 -48
t49 -41t49 -17q40 0 63 29.5t23 113.5h125q0 -141 -53.5 -204.5t-145.5 -63.5q-47 0 -88 17t-68.5 41t-51.5 48t-49.5 41t-49.5 17q-40 0 -63 -30t-23 -114h-125z" />
    <glyph glyph-name="endash" unicode="&#x2013;" horiz-adv-x="1722" 
d="M174 575h1374v-126h-1374v126z" />
    <glyph glyph-name="emdash" unicode="&#x2014;" horiz-adv-x="2131" 
d="M174 575h1784v-126h-1784v126z" />
    <glyph glyph-name="quoteleft" unicode="&#x2018;" horiz-adv-x="643" 
d="M315 942l-143 39l156 578l143 -37z" />
    <glyph glyph-name="quoteright" unicode="&#x2019;" horiz-adv-x="643" 
d="M328 942l-156 578l143 39l156 -580z" />
    <glyph glyph-name="quotesinglbase" unicode="&#x201a;" horiz-adv-x="643" 
d="M328 330l143 -39l-156 -578l-143 37z" />
    <glyph glyph-name="quotedblleft" unicode="&#x201c;" horiz-adv-x="909" 
d="M315 942l-143 39l156 578l143 -37zM438 981l156 578l143 -37l-155 -580z" />
    <glyph glyph-name="quotedblright" unicode="&#x201d;" horiz-adv-x="909" 
d="M328 942l-156 578l143 39l156 -580zM438 1520l144 39l155 -580l-143 -37z" />
    <glyph glyph-name="quotedblbase" unicode="&#x201e;" horiz-adv-x="909" 
d="M328 330l143 -39l-156 -578l-143 37zM438 -250l156 580l143 -39l-155 -578z" />
    <glyph glyph-name="dagger" unicode="&#x2020;" horiz-adv-x="1134" 
d="M506 1747h125v-401h332v-127h-332v-910h-125v910h-332v127h332v401z" />
    <glyph glyph-name="daggerdbl" unicode="&#x2021;" horiz-adv-x="1134" 
d="M174 838h332v381h-332v127h332v401h125v-401h332v-127h-332v-381h332v-127h-332v-402h-125v402h-332v127z" />
    <glyph glyph-name="bullet" unicode="&#x2022;" horiz-adv-x="1306" 
d="M647 27q-201 0 -337 139t-136 346q0 129 62 237.5t170.5 172t240.5 63.5q130 0 242 -63t178 -172.5t66 -237.5q0 -135 -66 -247t-177.5 -175t-242.5 -63z" />
    <glyph glyph-name="ellipsis" unicode="&#x2026;" horiz-adv-x="1904" 
d="M336 -20q-69 0 -115.5 47.5t-46.5 117.5q0 68 46.5 115t115.5 47q68 0 117 -47.5t49 -114.5q0 -70 -49 -117.5t-117 -47.5zM788 145q0 68 46.5 115t115.5 47q68 0 117 -47.5t49 -114.5q0 -70 -49 -117.5t-117 -47.5q-69 0 -115.5 47.5t-46.5 117.5zM1403 145
q0 68 46.5 115t115.5 47q68 0 117 -47.5t49 -114.5q0 -70 -49 -117.5t-117 -47.5q-69 0 -115.5 47.5t-46.5 117.5z" />
    <glyph glyph-name="perthousand" unicode="&#x2030;" horiz-adv-x="3229" 
d="M481 608q-185 0 -302.5 121t-117.5 297t117.5 297t302.5 121q184 0 301 -121.5t117 -296.5t-117 -296.5t-301 -121.5zM186 1026q0 -121 83.5 -207t211.5 -86q127 0 210 86t83 207t-83 207t-210 86q-128 0 -211.5 -86t-83.5 -207zM723 27l713 1425l112 -49l-712 -1426z
M1370 406q0 176 117.5 296.5t302.5 120.5q184 0 301 -121t117 -296t-117 -296.5t-301 -121.5q-185 0 -302.5 121t-117.5 297zM1495 406q0 -121 83.5 -207t211.5 -86q127 0 210 86t83 207t-83 206.5t-210 85.5q-128 0 -211.5 -85.5t-83.5 -206.5zM2331 406q0 176 117 296.5
t302 120.5q184 0 301 -121t117 -296t-117 -296.5t-301 -121.5q-185 0 -302 121t-117 297zM2456 406q0 -121 83 -207t211 -86q127 0 210 86t83 207t-83 206.5t-210 85.5q-128 0 -211 -85.5t-83 -206.5z" />
    <glyph glyph-name="guilsinglleft" unicode="&#x2039;" horiz-adv-x="1007" 
d="M836 41l-103 -90l-559 557l559 555l103 -90l-469 -465z" />
    <glyph glyph-name="guilsinglright" unicode="&#x203a;" horiz-adv-x="1007" 
d="M172 973l102 90l560 -557l-560 -555l-102 90l469 465z" />
    <glyph glyph-name="fraction" unicode="&#x2044;" horiz-adv-x="587" 
d="M594 1452l113 -49l-713 -1426l-113 50z" />
    <glyph glyph-name="uni2070" unicode="&#x2070;" horiz-adv-x="1042" 
d="M84 1446q0 150 49 266.5t149.5 185t239.5 68.5q206 0 321 -145t115 -375q0 -151 -49 -267.5t-149 -184.5t-238 -68q-139 0 -239.5 68t-149.5 184.5t-49 267.5zM219 1446q0 -131 41 -227l459 553q-74 77 -197 77q-148 0 -225.5 -109t-77.5 -294zM322 1120q78 -78 200 -78
q147 0 224 109t77 295q0 133 -41 229z" />
    <glyph glyph-name="uni2074" unicode="&#x2074;" horiz-adv-x="956" 
d="M88 1380q179 70 299.5 220t140.5 352h136q-53 -478 -525 -680h482v344h135v-344h127v-117h-127v-215h-135v215h-533v225z" />
    <glyph glyph-name="uni2075" unicode="&#x2075;" horiz-adv-x="1013" 
d="M502 926q-190 0 -304 96.5t-114 277.5h135q0 -124 74.5 -191t210.5 -67q137 0 212 70t75 199q0 116 -69 178.5t-192 62.5q-188 0 -272 -120l-147 73l75 447h666v-117h-555l-55 -334q107 162 329 162q166 0 260.5 -92.5t94.5 -257.5q0 -181 -113 -284t-311 -103z" />
    <glyph glyph-name="uni2076" unicode="&#x2076;" horiz-adv-x="991" 
d="M88 1407q0 96 13 174t47 149t87.5 118.5t138.5 75.5t197 28h267v-117h-279q-347 0 -371 -381v-8q34 102 126.5 158.5t226.5 56.5q170 0 271 -99t101 -259q0 -171 -107 -274t-292 -103q-201 0 -313.5 123t-112.5 358zM221 1300q0 -107 76 -182.5t211 -75.5q128 0 199 68
t71 193q0 116 -71 182.5t-195 66.5q-135 0 -213 -68.5t-78 -183.5z" />
    <glyph glyph-name="uni2077" unicode="&#x2077;" horiz-adv-x="841" 
d="M203 940q0 325 137.5 545t407.5 350h-699v117h744v-183q-227 -115 -338 -317.5t-111 -511.5h-141z" />
    <glyph glyph-name="uni2078" unicode="&#x2078;" horiz-adv-x="960" 
d="M63 1219q0 105 65 176t189 102q-90 24 -143 80.5t-53 142.5q0 123 100 184.5t260 61.5q102 0 181 -25t128.5 -81.5t49.5 -139.5q0 -86 -53 -142.5t-144 -80.5q121 -32 187.5 -102.5t66.5 -177.5q0 -132 -112.5 -211.5t-305.5 -79.5q-190 0 -303 79.5t-113 213.5z
M197 1235q0 -89 71.5 -145t212.5 -56q139 0 210 56t71 145q0 93 -70.5 147t-210.5 54q-143 0 -213.5 -54t-70.5 -147zM254 1704q0 -152 227 -152q224 0 224 152q0 77 -58 115.5t-166 38.5q-109 0 -168 -38.5t-59 -115.5z" />
    <glyph glyph-name="uni2079" unicode="&#x2079;" horiz-adv-x="991" 
d="M903 1485q0 -122 -22.5 -215.5t-75.5 -170.5t-150.5 -118t-236.5 -41h-266v117h276q347 0 375 379v10q-36 -103 -127 -160t-227 -57q-170 0 -270.5 99.5t-100.5 258.5q0 172 106.5 275.5t290.5 103.5q202 0 315 -123.5t113 -357.5zM211 1587q0 -115 72 -182.5t194 -67.5
q135 0 213 68.5t78 183.5q0 108 -75.5 184t-209.5 76q-129 0 -200.5 -68t-71.5 -194z" />
    <glyph glyph-name="uni2080" unicode="&#x2080;" horiz-adv-x="1042" 
d="M84 301q0 150 49 266.5t149.5 185t239.5 68.5q206 0 321 -145t115 -375q0 -151 -49 -267.5t-149 -184.5t-238 -68q-139 0 -239.5 68t-149.5 184.5t-49 267.5zM219 301q0 -131 41 -227l459 553q-75 78 -197 78q-148 0 -225.5 -109.5t-77.5 -294.5zM322 -25q77 -77 200 -77
q147 0 224 109t77 294q0 133 -41 229z" />
    <glyph glyph-name="uni2081" unicode="&#x2081;" horiz-adv-x="710" 
d="M463 -205v944q-7 -88 -26 -158t-57 -137.5t-105 -117.5t-162 -78l-43 117q143 55 208 165.5t68 276.5h252v-1012h-135z" />
    <glyph glyph-name="uni2082" unicode="&#x2082;" horiz-adv-x="960" 
d="M74 324q0 130 33.5 228t93.5 155.5t137.5 85.5t171.5 28q168 0 268.5 -89t100.5 -253q0 -94 -37 -175.5t-101.5 -142.5t-156.5 -110.5t-196.5 -83t-227.5 -55.5h719v-117h-791v215q27 3 69.5 11t106 26t127 42.5t128.5 63t114.5 84t80.5 108.5t31 134q0 109 -59.5 167.5
t-175.5 58.5q-303 0 -303 -381h-133z" />
    <glyph glyph-name="uni2083" unicode="&#x2083;" horiz-adv-x="974" 
d="M211 180q0 -153 69 -217.5t218 -64.5q254 0 254 196q0 176 -187 176h-137v111h137q172 0 172 147q0 177 -239 177q-142 0 -207.5 -56t-65.5 -174h-133q0 170 107 258t303 88q177 0 273.5 -73t96.5 -193q0 -91 -46.5 -149.5t-133.5 -77.5q195 -49 195 -254
q0 -138 -102.5 -215.5t-282.5 -77.5q-203 0 -313.5 97t-110.5 302h133z" />
    <glyph glyph-name="uni2084" unicode="&#x2084;" horiz-adv-x="956" 
d="M88 236q179 71 299.5 220t140.5 351h136q-53 -478 -525 -680h482v344h135v-344h127v-117h-127v-215h-135v215h-533v226z" />
    <glyph glyph-name="uni2085" unicode="&#x2085;" horiz-adv-x="1013" 
d="M502 -219q-190 0 -304 97t-114 278h135q0 -124 74.5 -191t210.5 -67q137 0 212 69.5t75 198.5q0 116 -69 179t-192 63q-187 0 -272 -121l-147 73l75 447h666v-117h-555l-55 -334q107 162 329 162q166 0 260.5 -92.5t94.5 -257.5q0 -181 -113 -284t-311 -103z" />
    <glyph glyph-name="uni2086" unicode="&#x2086;" horiz-adv-x="991" 
d="M88 262q0 96 13 174t47 149t87.5 118.5t138.5 75.5t197 28h267v-117h-279q-347 0 -371 -381v-8q34 102 126.5 158.5t226.5 56.5q170 0 271 -99t101 -259q0 -171 -107 -274t-292 -103q-201 0 -313.5 123t-112.5 358zM221 156q0 -107 76 -182.5t211 -75.5q128 0 199 67.5
t71 192.5q0 116 -71 183t-195 67q-135 0 -213 -68.5t-78 -183.5z" />
    <glyph glyph-name="uni2087" unicode="&#x2087;" horiz-adv-x="841" 
d="M203 -205q0 325 137.5 545t407.5 350h-699v117h744v-182q-226 -115 -337.5 -318t-111.5 -512h-141z" />
    <glyph glyph-name="uni2088" unicode="&#x2088;" horiz-adv-x="960" 
d="M63 74q0 105 65 176t189 102q-90 24 -143 80.5t-53 142.5q0 123 100 184.5t260 61.5q102 0 181 -25t128.5 -81.5t49.5 -139.5q0 -86 -53 -142.5t-144 -80.5q121 -32 187.5 -102.5t66.5 -177.5q0 -132 -112.5 -211.5t-305.5 -79.5q-190 0 -303 79.5t-113 213.5zM197 90
q0 -89 71.5 -145t212.5 -56q139 0 210 56t71 145q0 93 -70.5 147t-210.5 54q-143 0 -213.5 -54t-70.5 -147zM254 559q0 -151 227 -151q224 0 224 151q0 77 -58 115.5t-166 38.5q-109 0 -168 -38.5t-59 -115.5z" />
    <glyph glyph-name="uni2089" unicode="&#x2089;" horiz-adv-x="991" 
d="M903 340q0 -122 -22.5 -215.5t-75.5 -170.5t-150.5 -118t-236.5 -41h-266v117h276q347 0 375 379v10q-36 -103 -127 -160t-227 -57q-170 0 -270.5 99.5t-100.5 258.5q0 172 106.5 275.5t290.5 103.5q202 0 315 -123.5t113 -357.5zM211 442q0 -115 72 -182t194 -67
q135 0 213 68t78 183q0 108 -75.5 184.5t-209.5 76.5q-129 0 -200.5 -68.5t-71.5 -194.5z" />
    <glyph glyph-name="Euro" unicode="&#x20ac;" horiz-adv-x="1652" 
d="M356 723l2 59h-176v119h187q37 259 182.5 411t392.5 152q225 0 362.5 -126.5t172.5 -344.5h-150q-22 163 -118.5 252.5t-266.5 89.5q-368 0 -426 -434h492v-119h-500q-2 -18 -2 -59l2 -64h500v-118h-490q58 -432 424 -432q170 0 266.5 90.5t120.5 253.5h148
q-35 -218 -172.5 -345.5t-362.5 -127.5q-247 0 -392 151t-183 410h-187v118h176q-2 20 -2 64z" />
    <glyph glyph-name="trademark" unicode="&#x2122;" horiz-adv-x="1798" 
d="M174 1444h551v-96h-219v-588h-113v588h-219v96zM823 760v684h209l189 -625l194 625h205v-684h-113v612l-190 -612h-189l-192 612v-612h-113z" />
    <glyph glyph-name="oneeighth" unicode="&#x215b;" horiz-adv-x="2189" 
d="M463 428v944q-7 -88 -26 -158t-57 -137.5t-105 -117.5t-162 -78l-43 116q143 55 208 165.5t68 277.5h252v-1012h-135zM580 27l712 1425l113 -49l-713 -1426zM1292 279q0 105 65 176t189 102q-90 24 -143 80.5t-53 142.5q0 123 100 184.5t260 61.5q102 0 180.5 -25
t128 -81.5t49.5 -139.5q0 -86 -53 -142.5t-143 -80.5q120 -32 187 -103t67 -178q0 -132 -112.5 -211t-305.5 -79q-190 0 -303 79.5t-113 213.5zM1425 295q0 -89 72 -145t213 -56q139 0 210 56t71 145q0 93 -70.5 147t-210.5 54q-143 0 -214 -54t-71 -147zM1483 764
q0 -152 227 -152q223 0 223 152q0 77 -57.5 115.5t-165.5 38.5q-109 0 -168 -38.5t-59 -115.5z" />
    <glyph glyph-name="threeeighths" unicode="&#x215c;" horiz-adv-x="2422" 
d="M211 817q0 -153 69 -217.5t218 -64.5q254 0 254 196q0 176 -187 176h-137v111h137q172 0 172 147q0 176 -239 176q-142 0 -207.5 -55.5t-65.5 -173.5h-133q0 170 107 258t303 88q177 0 273.5 -73t96.5 -193q0 -91 -46.5 -149.5t-133.5 -77.5q195 -49 195 -254
q0 -138 -102.5 -215.5t-282.5 -77.5q-203 0 -313.5 97t-110.5 302h133zM813 27l713 1425l112 -49l-712 -1426zM1526 279q0 105 65 176t189 102q-91 24 -144 80.5t-53 142.5q0 83 49.5 139.5t128.5 81.5t183 25q102 0 180.5 -25t128 -81.5t49.5 -139.5q0 -86 -53 -142.5
t-144 -80.5q120 -32 187 -103t67 -178q0 -132 -112 -211t-305 -79q-190 0 -303 79.5t-113 213.5zM1659 295q0 -89 72 -145t213 -56q139 0 209.5 56t70.5 145q0 93 -70 147t-210 54q-143 0 -214 -54t-71 -147zM1716 764q0 -152 228 -152q223 0 223 152q0 77 -57.5 115.5
t-165.5 38.5q-109 0 -168.5 -38.5t-59.5 -115.5z" />
    <glyph glyph-name="fiveeighths" unicode="&#x215d;" horiz-adv-x="2461" 
d="M502 418q-190 0 -304 97t-114 278h135q0 -124 74.5 -191t210.5 -67q137 0 212 69.5t75 198.5q0 116 -69 178.5t-192 62.5q-188 0 -272 -120l-147 73l75 447h666v-117h-555l-55 -334q107 162 329 162q166 0 260.5 -92.5t94.5 -257.5q0 -181 -113 -284t-311 -103zM852 27
l713 1425l112 -49l-712 -1426zM1565 279q0 105 65 176t189 102q-91 24 -144 80.5t-53 142.5q0 123 100 184.5t260 61.5q102 0 181 -25t128.5 -81.5t49.5 -139.5q0 -86 -53 -142.5t-144 -80.5q120 -32 187 -103t67 -178q0 -132 -112.5 -211t-305.5 -79q-190 0 -302.5 79.5
t-112.5 213.5zM1698 295q0 -89 71.5 -145t212.5 -56q139 0 210 56t71 145q0 93 -70.5 147t-210.5 54q-143 0 -213.5 -54t-70.5 -147zM1755 764q0 -152 227 -152q224 0 224 152q0 77 -58 115.5t-166 38.5q-109 0 -168 -38.5t-59 -115.5z" />
    <glyph glyph-name="seveneighths" unicode="&#x215e;" horiz-adv-x="2107" 
d="M203 432q0 325 137.5 545t407.5 350h-699v117h744v-182q-226 -115 -337.5 -318t-111.5 -512h-141zM498 27l712 1425l113 -49l-713 -1426zM1210 279q0 105 65 176t189 102q-90 24 -143 80.5t-53 142.5q0 123 100 184.5t260 61.5q102 0 181 -25t128.5 -81.5t49.5 -139.5
q0 -86 -53 -142.5t-144 -80.5q120 -32 187 -103t67 -178q0 -132 -112.5 -211t-305.5 -79q-190 0 -303 79.5t-113 213.5zM1343 295q0 -89 72 -145t213 -56q139 0 210 56t71 145q0 93 -70.5 147t-210.5 54q-143 0 -214 -54t-71 -147zM1401 764q0 -152 227 -152q223 0 223 152
q0 77 -57.5 115.5t-165.5 38.5q-109 0 -168 -38.5t-59 -115.5z" />
    <glyph glyph-name="arrowleft" unicode="&#x2190;" horiz-adv-x="1501" 
d="M1327 575v-135h-897l406 -401l-103 -88l-559 555l559 557l103 -88l-402 -400h893z" />
    <glyph glyph-name="arrowup" unicode="&#x2191;" horiz-adv-x="1460" 
d="M662 -63v892l-400 -401l-88 102l557 560l555 -560l-88 -102l-401 406v-897h-135z" />
    <glyph glyph-name="arrowright" unicode="&#x2192;" horiz-adv-x="1501" 
d="M174 575h893l-401 400l102 88l559 -557l-559 -555l-102 88l405 401h-897v135z" />
    <glyph glyph-name="arrowdown" unicode="&#x2193;" horiz-adv-x="1460" 
d="M662 1087h135v-897l401 406l88 -102l-555 -560l-557 560l88 102l400 -401v892z" />
    <glyph glyph-name="arrowboth" unicode="&#x2194;" horiz-adv-x="2297" 
d="M971 907h893l-402 400l103 88l559 -557l-559 -555l-103 88l406 401h-897v135zM174 506l559 557l103 -88l-402 -400h893v-135h-897l406 -401l-103 -88z" />
    <glyph glyph-name="arrowupdn" unicode="&#x2195;" horiz-adv-x="1753" 
d="M641 315v893l-399 -401l-88 102l557 559l555 -559l-88 -102l-402 405v-897h-135zM487 76l88 102l400 -401v893h135v-897l401 405l88 -102l-555 -559z" />
    <glyph glyph-name="uni2196" unicode="&#x2196;" horiz-adv-x="1460" 
d="M1051 55l-631 631l2 -565l-135 10l-2 791l788 -4l10 -136l-571 4l635 -634z" />
    <glyph glyph-name="uni2197" unicode="&#x2197;" horiz-adv-x="1460" 
d="M274 154l629 630l-563 -2l8 136l791 2l-4 -789l-134 -10l3 571l-635 -635z" />
    <glyph glyph-name="uni2198" unicode="&#x2198;" horiz-adv-x="1460" 
d="M381 920l631 -633l-2 567l135 -10l2 -789l-789 2l-10 136l572 -3l-635 633z" />
    <glyph glyph-name="uni2199" unicode="&#x2199;" horiz-adv-x="1460" 
d="M1137 823l-631 -630l565 2l-10 -136l-789 -2l4 789l134 10l-2 -571l634 635z" />
    <glyph glyph-name="partialdiff" unicode="&#x2202;" horiz-adv-x="1323" 
d="M649 -20q-172 0 -295 69.5t-183 189.5t-60 277q0 227 146.5 373.5t385.5 146.5q163 0 282.5 -79.5t172.5 -221.5l-2 19q-20 170 -130.5 304t-279.5 214.5t-383 111.5v129q195 -24 359.5 -92t287.5 -175t192.5 -259t69.5 -334q0 -314 -153 -493.5t-410 -179.5zM262 516
q0 -192 102.5 -299.5t286.5 -107.5q121 0 214.5 58t141.5 150t48 199q0 178 -106 284.5t-285 106.5q-187 0 -294.5 -107t-107.5 -284z" />
    <glyph glyph-name="emptyset" unicode="&#x2205;" horiz-adv-x="2009" 
d="M1004 -256q-199 0 -363 76l-123 -213l-110 61l122 213q-168 111 -262 293.5t-94 400.5q0 229 102.5 418t293.5 301.5t434 112.5q200 0 364 -76l123 213l111 -61l-123 -213q168 -113 262 -296t94 -399q0 -171 -60.5 -323.5t-167.5 -264.5t-263.5 -177.5t-339.5 -65.5z
M299 575q0 -178 78.5 -332t216.5 -251l711 1231q-135 63 -301 63q-152 0 -285 -57.5t-224 -154.5t-143.5 -226.5t-52.5 -272.5zM705 -72q135 -63 299 -63q153 0 286 57t224.5 154t143.5 226.5t52 272.5q0 178 -78.5 332.5t-216.5 251.5z" />
    <glyph glyph-name="product" unicode="&#x220f;" horiz-adv-x="1546" 
d="M174 1444h1198v-125h-266v-1688h-148v1688h-370v-1688h-146v1688h-268v125z" />
    <glyph glyph-name="summation" unicode="&#x2211;" horiz-adv-x="1210" 
d="M174 -369v174l623 734l-623 731v174h862v-125h-735l623 -715v-131l-623 -717h735v-125h-862z" />
    <glyph glyph-name="minus" unicode="&#x2212;" horiz-adv-x="1310" 
d="M174 575h963v-126h-963v126z" />
    <glyph glyph-name="radical" unicode="&#x221a;" horiz-adv-x="1638" 
d="M961 1341q24 103 126 103h377v-117h-389l-434 -1696h-258l-209 789h119l196 -744h46z" />
    <glyph glyph-name="infinity" unicode="&#x221e;" horiz-adv-x="2068" 
d="M174 614q0 168 113.5 274.5t290.5 106.5q64 0 123.5 -17.5t102.5 -42t88.5 -66t74 -74t67.5 -82.5q39 49 67.5 82t74.5 74.5t89.5 66t103 42t124.5 17.5q177 0 290 -106.5t113 -274.5t-113 -274.5t-290 -106.5q-65 0 -124.5 17.5t-103 42t-89.5 66.5t-74.5 74.5
t-67.5 82.5q-39 -50 -67.5 -82.5t-74 -74.5t-88.5 -66.5t-102.5 -42t-123.5 -17.5q-177 0 -290.5 106.5t-113.5 274.5zM317 614q0 -117 72 -186.5t193 -69.5q60 0 112.5 18.5t100 58t83 78.5t83.5 101q-48 62 -83.5 101t-83 78.5t-100 58t-112.5 18.5q-121 0 -193 -69.5
t-72 -186.5zM1108 614q48 -62 83.5 -101t83 -78.5t100 -58t112.5 -18.5q121 0 192.5 69.5t71.5 186.5t-71.5 186.5t-192.5 69.5q-60 0 -112.5 -18.5t-100 -58t-83 -78.5t-83.5 -101z" />
    <glyph glyph-name="integral" unicode="&#x222b;" horiz-adv-x="1388" 
d="M174 -369v125h287l340 1583q22 105 129 105h284v-125h-280l-340 -1583q-22 -105 -129 -105h-291z" />
    <glyph glyph-name="approxequal" unicode="&#x2248;" horiz-adv-x="1308" 
d="M174 592q0 73 21.5 128t57 85t75.5 44.5t82 14.5q54 0 110 -17t102.5 -41t91 -48t92 -41t89.5 -17q115 0 115 144h125q0 -72 -21.5 -126.5t-57 -85t-75.5 -45t-82 -14.5q-66 0 -137.5 25.5t-122 56.5t-113 56.5t-112.5 25.5q-115 0 -115 -145h-125zM174 176
q0 73 21.5 128t57 85.5t75.5 45t82 14.5q54 0 110 -17t102.5 -41t91 -48t92 -41t89.5 -17q115 0 115 143h125q0 -72 -21.5 -126.5t-57 -84.5t-75.5 -44.5t-82 -14.5q-66 0 -137.5 25.5t-122 56.5t-113 56.5t-112.5 25.5q-115 0 -115 -146h-125z" />
    <glyph glyph-name="notequal" unicode="&#x2260;" horiz-adv-x="1310" 
d="M174 780h565l174 301l107 -59l-139 -242h256v-125h-328l-166 -286h494v-127h-568l-174 -301l-104 61l137 240h-254v127h328l166 286h-494v125z" />
    <glyph glyph-name="lessequal" unicode="&#x2264;" horiz-adv-x="1310" 
d="M174 770l911 313l54 -120l-807 -269l807 -274l-54 -121l-911 319v152zM174 55v127h963v-127h-963z" />
    <glyph glyph-name="greaterequal" unicode="&#x2265;" horiz-adv-x="1310" 
d="M1139 612l-914 -313l-51 121l805 268l-805 275l51 120l914 -317v-154zM174 55v127h963v-127h-963z" />
    <glyph glyph-name="uni2460" unicode="&#x2460;" horiz-adv-x="2240" 
d="M1120 -240q-208 0 -391.5 76.5t-314.5 208t-207 316t-76 393.5q0 208 76 391.5t207 314.5t314.5 207t391.5 76q209 0 393 -76t315 -207t207 -314.5t76 -391.5q0 -209 -76 -393.5t-207 -316t-315 -208t-393 -76.5zM240 754q0 -188 67.5 -354t184 -284t280 -186.5
t348.5 -68.5t349 68.5t280.5 186.5t184 284t67.5 354t-67.5 354t-184 284t-280.5 186.5t-349 68.5t-348.5 -68.5t-280 -186.5t-184 -284t-67.5 -354zM733 805q143 54 208.5 164t68.5 278h254v-1011h-138v925q-7 -68 -20.5 -123t-39 -111.5t-63 -100t-95 -80t-132.5 -58.5z
" />
    <glyph glyph-name="uni2461" unicode="&#x2461;" horiz-adv-x="2240" 
d="M1120 -240q-208 0 -391.5 76.5t-314.5 208t-207 316t-76 393.5q0 208 76 391.5t207 314.5t314.5 207t391.5 76q209 0 393 -76t315 -207t207 -314.5t76 -391.5q0 -209 -76 -393.5t-207 -316t-315 -208t-393 -76.5zM240 754q0 -188 67.5 -354t184 -284t280 -186.5
t348.5 -68.5t349 68.5t280.5 186.5t184 284t67.5 354t-67.5 354t-184 284t-280.5 186.5t-349 68.5t-348.5 -68.5t-280 -186.5t-184 -284t-67.5 -354zM719 764q0 130 33.5 228t94 156t137.5 86t171 28q168 0 268.5 -89t100.5 -253q0 -118 -57 -215.5t-159 -166t-229.5 -115
t-283.5 -73.5h729v-114h-791v215q27 3 69.5 11t106 26t127 42.5t129 63t114.5 84t80.5 108.5t31.5 134q0 108 -60 166.5t-176 58.5q-303 0 -303 -381h-133z" />
    <glyph glyph-name="uni2462" unicode="&#x2462;" horiz-adv-x="2240" 
d="M1120 -240q-208 0 -391.5 76.5t-314.5 208t-207 316t-76 393.5q0 208 76 391.5t207 314.5t314.5 207t391.5 76q209 0 393 -76t315 -207t207 -314.5t76 -391.5q0 -209 -76 -393.5t-207 -316t-315 -208t-393 -76.5zM240 754q0 -188 67.5 -354t184 -284t280 -186.5
t348.5 -68.5t349 68.5t280.5 186.5t184 284t67.5 354t-67.5 354t-184 284t-280.5 186.5t-349 68.5t-348.5 -68.5t-280 -186.5t-184 -284t-67.5 -354zM717 621h133q0 -153 69.5 -219t217.5 -66q252 0 252 199q0 176 -185 176h-139v110h139q170 0 170 148q0 176 -237 176
q-142 0 -207.5 -56.5t-65.5 -175.5h-133q0 171 106.5 260t301.5 89q178 0 274 -73t96 -194q0 -180 -200 -211v-36q107 -21 161 -72t54 -162q0 -138 -102 -215.5t-283 -77.5q-201 0 -311.5 97.5t-110.5 302.5z" />
    <glyph glyph-name="uni2463" unicode="&#x2463;" horiz-adv-x="2240" 
d="M1120 -240q-208 0 -391.5 76.5t-314.5 208t-207 316t-76 393.5q0 208 76 391.5t207 314.5t314.5 207t391.5 76q209 0 393 -76t315 -207t207 -314.5t76 -391.5q0 -209 -76 -393.5t-207 -316t-315 -208t-393 -76.5zM240 754q0 -188 67.5 -354t184 -284t280 -186.5
t348.5 -68.5t349 68.5t280.5 186.5t184 284t67.5 354t-67.5 354t-184 284t-280.5 186.5t-349 68.5t-348.5 -68.5t-280 -186.5t-184 -284t-67.5 -354zM686 451v223q180 72 300 221.5t140 351.5h136q-53 -478 -525 -680h480v342h135v-342h127v-116h-127v-215h-135v215h-531z
" />
    <glyph glyph-name="uni2464" unicode="&#x2464;" horiz-adv-x="2240" 
d="M1120 -240q-208 0 -391.5 76.5t-314.5 208t-207 316t-76 393.5q0 208 76 391.5t207 314.5t314.5 207t391.5 76q209 0 393 -76t315 -207t207 -314.5t76 -391.5q0 -209 -76 -393.5t-207 -316t-315 -208t-393 -76.5zM240 754q0 -188 67.5 -354t184 -284t280 -186.5
t348.5 -68.5t349 68.5t280.5 186.5t184 284t67.5 354t-67.5 354t-184 284t-280.5 186.5t-349 68.5t-348.5 -68.5t-280 -186.5t-184 -284t-67.5 -354zM698 596h136q0 -125 75 -192.5t211 -67.5q137 0 212 70.5t75 199.5q0 116 -68.5 179t-191.5 63q-186 0 -273 -121l-147 74
l74 446h667v-117h-555l-53 -331q99 159 328 159q166 0 260 -92.5t94 -257.5q0 -181 -113 -284t-311 -103q-190 0 -305 97t-115 278z" />
    <glyph glyph-name="uni2465" unicode="&#x2465;" horiz-adv-x="2240" 
d="M1120 -240q-208 0 -391.5 76.5t-314.5 208t-207 316t-76 393.5q0 208 76 391.5t207 314.5t314.5 207t391.5 76q209 0 393 -76t315 -207t207 -314.5t76 -391.5q0 -209 -76 -393.5t-207 -316t-315 -208t-393 -76.5zM240 754q0 -188 67.5 -354t184 -284t280 -186.5
t348.5 -68.5t349 68.5t280.5 186.5t184 284t67.5 354t-67.5 354t-184 284t-280.5 186.5t-349 68.5t-348.5 -68.5t-280 -186.5t-184 -284t-67.5 -354zM709 702q0 96 13 174t47 149t87.5 118.5t138.5 75.5t197 28h264v-117h-276q-347 0 -371 -380v-7q34 102 125.5 157.5
t226.5 55.5q168 0 269.5 -99.5t101.5 -258.5q0 -172 -105.5 -274.5t-291.5 -102.5q-201 0 -313.5 123t-112.5 358zM842 596q0 -107 75.5 -183.5t210.5 -76.5q128 0 198.5 68t70.5 194q0 115 -71 182.5t-193 67.5q-135 0 -213 -68.5t-78 -183.5z" />
    <glyph glyph-name="uni2466" unicode="&#x2466;" horiz-adv-x="2240" 
d="M1120 -240q-208 0 -391.5 76.5t-314.5 208t-207 316t-76 393.5q0 208 76 391.5t207 314.5t314.5 207t391.5 76q209 0 393 -76t315 -207t207 -314.5t76 -391.5q0 -209 -76 -393.5t-207 -316t-315 -208t-393 -76.5zM240 754q0 -188 67.5 -354t184 -284t280 -186.5
t348.5 -68.5t349 68.5t280.5 186.5t184 284t67.5 354t-67.5 354t-184 284t-280.5 186.5t-349 68.5t-348.5 -68.5t-280 -186.5t-184 -284t-67.5 -354zM750 1130v117h743v-184q-225 -115 -337 -317.5t-112 -509.5h-141q0 325 137.5 544.5t407.5 349.5h-698z" />
    <glyph glyph-name="uni2467" unicode="&#x2467;" horiz-adv-x="2240" 
d="M1120 -240q-208 0 -391.5 76.5t-314.5 208t-207 316t-76 393.5q0 208 76 391.5t207 314.5t314.5 207t391.5 76q209 0 393 -76t315 -207t207 -314.5t76 -391.5q0 -209 -76 -393.5t-207 -316t-315 -208t-393 -76.5zM240 754q0 -188 67.5 -354t184 -284t280 -186.5
t348.5 -68.5t349 68.5t280.5 186.5t184 284t67.5 354t-67.5 354t-184 284t-280.5 186.5t-349 68.5t-348.5 -68.5t-280 -186.5t-184 -284t-67.5 -354zM705 514q0 104 65 176t188 103q-90 24 -143 80.5t-53 142.5q0 123 99.5 184.5t258.5 61.5q103 0 182.5 -25t129 -81.5
t49.5 -139.5q0 -86 -54 -142t-145 -81q121 -32 187.5 -102.5t66.5 -178.5q0 -132 -112.5 -211.5t-305.5 -79.5q-190 0 -301.5 79t-111.5 214zM838 530q0 -88 71 -144t211 -56q139 0 210 55.5t71 144.5q0 93 -70.5 147t-210.5 54q-141 0 -211.5 -54t-70.5 -147zM895 999
q0 -151 225 -151q226 0 226 151q0 152 -226 152q-225 0 -225 -152z" />
    <glyph glyph-name="uni2468" unicode="&#x2468;" horiz-adv-x="2240" 
d="M1120 -240q-208 0 -391.5 76.5t-314.5 208t-207 316t-76 393.5q0 208 76 391.5t207 314.5t314.5 207t391.5 76q209 0 393 -76t315 -207t207 -314.5t76 -391.5q0 -209 -76 -393.5t-207 -316t-315 -208t-393 -76.5zM240 754q0 -188 67.5 -354t184 -284t280 -186.5
t348.5 -68.5t349 68.5t280.5 186.5t184 284t67.5 354t-67.5 354t-184 284t-280.5 186.5t-349 68.5t-348.5 -68.5t-280 -186.5t-184 -284t-67.5 -354zM709 883q0 172 106 275.5t289 103.5q204 0 316 -123.5t112 -358.5q0 -97 -13.5 -175t-47 -148.5t-87.5 -118t-139 -75
t-196 -27.5h-267v114h277q349 0 373 383q-37 -98 -129.5 -153.5t-225.5 -55.5q-168 0 -268 100t-100 259zM842 883q0 -115 72 -182.5t194 -67.5q135 0 212 68.5t77 183.5q0 108 -75 184t-210 76q-128 0 -199 -67.5t-71 -194.5z" />
    <glyph glyph-name="uni24EA" unicode="&#x24ea;" horiz-adv-x="2240" 
d="M1120 -240q-208 0 -391.5 76.5t-314.5 208t-207 316t-76 393.5q0 208 76 391.5t207 314.5t314.5 207t391.5 76q209 0 393 -76t315 -207t207 -314.5t76 -391.5q0 -209 -76 -393.5t-207 -316t-315 -208t-393 -76.5zM240 754q0 -188 67.5 -354t184 -284t280 -186.5
t348.5 -68.5t349 68.5t280.5 186.5t184 284t67.5 354t-67.5 354t-184 284t-280.5 186.5t-349 68.5t-348.5 -68.5t-280 -186.5t-184 -284t-67.5 -354zM684 741q0 150 49 266.5t149.5 185.5t239.5 69q206 0 321.5 -145.5t115.5 -375.5q0 -232 -115 -376t-322 -144
q-208 0 -323 143.5t-115 376.5zM819 741q0 -133 41 -229l461 553q-77 80 -199 80q-148 0 -225.5 -110t-77.5 -294zM924 416q77 -80 198 -80q147 0 224 109.5t77 295.5q0 134 -41 230z" />
    <glyph glyph-name="uni24FF" unicode="&#x24ff;" horiz-adv-x="2240" 
d="M1120 -240q-208 0 -391.5 76.5t-314.5 208t-207 316t-76 393.5q0 208 76 391.5t207 314.5t314.5 207t391.5 76q209 0 393 -76t315 -207t207 -314.5t76 -391.5q0 -209 -76 -393.5t-207 -316t-315 -208t-393 -76.5zM684 741q0 -233 115 -376.5t323 -143.5q207 0 322 144
t115 376q0 230 -115.5 375.5t-321.5 145.5q-139 0 -239.5 -69t-149.5 -185.5t-49 -266.5zM819 741q0 184 77.5 294t225.5 110q122 0 199 -80l-461 -553q-41 96 -41 229zM924 416l456 555q43 -87 43 -230q0 -186 -77 -295.5t-224 -109.5q-121 0 -198 80z" />
    <glyph glyph-name="lozenge" unicode="&#x25ca;" horiz-adv-x="1110" 
d="M410 63l-236 658l236 657h292l234 -657l-234 -658h-292zM322 721l213 -612h43l210 612l-210 612h-43z" />
    <glyph glyph-name="circle" unicode="&#x25cb;" horiz-adv-x="2269" 
d="M1135 -473q-208 0 -391.5 76t-315 207.5t-207.5 315.5t-76 392t76 391.5t207.5 314.5t315 207t391.5 76t391.5 -76t314.5 -207t207 -314.5t76 -391.5t-76 -392t-207 -315.5t-314.5 -207.5t-391.5 -76zM254 518q0 -188 67.5 -354t184 -284t280.5 -186.5t349 -68.5
t348.5 68.5t280 186.5t184 284t67.5 354t-67.5 354t-184 284t-280 186.5t-348.5 68.5t-349 -68.5t-280.5 -186.5t-184 -284t-67.5 -354z" />
    <glyph glyph-name="uni25CF" unicode="&#x25cf;" horiz-adv-x="2269" 
d="M1135 -473q-208 0 -391.5 76t-315 207.5t-207.5 315.5t-76 392t76 391.5t207.5 314.5t315 207t391.5 76t391.5 -76t314.5 -207t207 -314.5t76 -391.5t-76 -392t-207 -315.5t-314.5 -207.5t-391.5 -76z" />
    <glyph glyph-name="uni2776" unicode="&#x2776;" horiz-adv-x="2240" 
d="M1120 -240q-208 0 -391.5 76.5t-314.5 208t-207 316t-76 393.5q0 208 76 391.5t207 314.5t314.5 207t391.5 76q209 0 393 -76t315 -207t207 -314.5t76 -391.5q0 -209 -76 -393.5t-207 -316t-315 -208t-393 -76.5zM733 805l43 -117q80 24 140.5 64.5t97.5 88.5t61 110.5
t34 123t13 133.5h4v-972h138v1011h-254q-3 -168 -68.5 -278t-208.5 -164z" />
    <glyph glyph-name="uni2777" unicode="&#x2777;" horiz-adv-x="2240" 
d="M1120 -240q-208 0 -391.5 76.5t-314.5 208t-207 316t-76 393.5q0 208 76 391.5t207 314.5t314.5 207t391.5 76q209 0 393 -76t315 -207t207 -314.5t76 -391.5q0 -209 -76 -393.5t-207 -316t-315 -208t-393 -76.5zM719 764h133q0 381 303 381q116 0 176 -58.5t60 -166.5
q0 -71 -31.5 -134t-80.5 -108.5t-114.5 -84t-129 -63t-127 -42.5t-106 -26t-69.5 -11v-215h791v114h-754v4q160 23 292.5 67.5t238 112.5t164.5 166.5t59 219.5q0 164 -100.5 253t-268.5 89q-94 0 -171 -28t-137.5 -86t-94 -156t-33.5 -228z" />
    <glyph glyph-name="uni2778" unicode="&#x2778;" horiz-adv-x="2240" 
d="M1120 -240q-208 0 -391.5 76.5t-314.5 208t-207 316t-76 393.5q0 208 76 391.5t207 314.5t314.5 207t391.5 76q209 0 393 -76t315 -207t207 -314.5t76 -391.5q0 -209 -76 -393.5t-207 -316t-315 -208t-393 -76.5zM717 621q0 -205 110.5 -302.5t311.5 -97.5
q181 0 283 77.5t102 215.5q0 212 -219 250v4q98 15 151 73.5t53 153.5q0 121 -96 194t-274 73q-195 0 -301.5 -89t-106.5 -260h133q0 119 65.5 175.5t207.5 56.5q237 0 237 -176q0 -148 -170 -148h-139v-110h139q185 0 185 -176q0 -199 -252 -199q-148 0 -217.5 66
t-69.5 219h-133z" />
    <glyph glyph-name="uni2779" unicode="&#x2779;" horiz-adv-x="2240" 
d="M1120 -240q-208 0 -391.5 76.5t-314.5 208t-207 316t-76 393.5q0 208 76 391.5t207 314.5t314.5 207t391.5 76q209 0 393 -76t315 -207t207 -314.5t76 -391.5q0 -209 -76 -393.5t-207 -316t-315 -208t-393 -76.5zM686 451h531v-215h135v215h127v116h-127v342h-135v-342
h-488v4q242 95 374.5 270.5t158.5 405.5h-136q-20 -202 -140 -351.5t-300 -221.5v-223z" />
    <glyph glyph-name="uni277A" unicode="&#x277a;" horiz-adv-x="2240" 
d="M1120 -240q-208 0 -391.5 76.5t-314.5 208t-207 316t-76 393.5q0 208 76 391.5t207 314.5t314.5 207t391.5 76q209 0 393 -76t315 -207t207 -314.5t76 -391.5q0 -209 -76 -393.5t-207 -316t-315 -208t-393 -76.5zM698 596q0 -181 115 -278t305 -97q198 0 311 103t113 284
q0 165 -94 257.5t-260 92.5q-242 0 -332 -176l-4 2l61 346h555v117h-667l-74 -446l147 -74q87 121 273 121q123 0 191.5 -63t68.5 -179q0 -129 -75 -199.5t-212 -70.5q-136 0 -211 67.5t-75 192.5h-136z" />
    <glyph glyph-name="uni277B" unicode="&#x277b;" horiz-adv-x="2240" 
d="M1120 -240q-208 0 -391.5 76.5t-314.5 208t-207 316t-76 393.5q0 208 76 391.5t207 314.5t314.5 207t391.5 76q209 0 393 -76t315 -207t207 -314.5t76 -391.5q0 -209 -76 -393.5t-207 -316t-315 -208t-393 -76.5zM709 702q0 -235 112.5 -358t313.5 -123
q186 0 291.5 102.5t105.5 274.5q0 159 -101.5 258.5t-269.5 99.5q-146 0 -239 -65t-113 -182h-4l4 41q10 176 98.5 278t272.5 102h276v117h-264q-112 0 -197 -28t-138.5 -75.5t-87.5 -118.5t-47 -149t-13 -174zM842 596q0 115 78 183.5t213 68.5q122 0 193 -67.5t71 -182.5
q0 -126 -70.5 -194t-198.5 -68q-135 0 -210.5 76.5t-75.5 183.5z" />
    <glyph glyph-name="uni277C" unicode="&#x277c;" horiz-adv-x="2240" 
d="M1120 -240q-208 0 -391.5 76.5t-314.5 208t-207 316t-76 393.5q0 208 76 391.5t207 314.5t314.5 207t391.5 76q209 0 393 -76t315 -207t207 -314.5t76 -391.5q0 -209 -76 -393.5t-207 -316t-315 -208t-393 -76.5zM750 1130h698v-4q-545 -255 -545 -890h141
q0 307 112 509.5t337 317.5v184h-743v-117z" />
    <glyph glyph-name="uni277D" unicode="&#x277d;" horiz-adv-x="2240" 
d="M1120 -240q-208 0 -391.5 76.5t-314.5 208t-207 316t-76 393.5q0 208 76 391.5t207 314.5t314.5 207t391.5 76q209 0 393 -76t315 -207t207 -314.5t76 -391.5q0 -209 -76 -393.5t-207 -316t-315 -208t-393 -76.5zM705 514q0 -135 111.5 -214t301.5 -79q193 0 305.5 79.5
t112.5 211.5q0 217 -266 279v4q211 54 211 221q0 83 -49.5 139.5t-129 81.5t-182.5 25q-159 0 -258.5 -61.5t-99.5 -184.5q0 -167 209 -221v-4q-130 -29 -198 -99.5t-68 -177.5zM838 530q0 93 70.5 147t211.5 54q140 0 210.5 -54t70.5 -147q0 -89 -71 -144.5t-210 -55.5
q-140 0 -211 56t-71 144zM895 999q0 152 225 152q226 0 226 -152q0 -151 -226 -151q-225 0 -225 151z" />
    <glyph glyph-name="uni277E" unicode="&#x277e;" horiz-adv-x="2240" 
d="M1120 -240q-208 0 -391.5 76.5t-314.5 208t-207 316t-76 393.5q0 208 76 391.5t207 314.5t314.5 207t391.5 76q209 0 393 -76t315 -207t207 -314.5t76 -391.5q0 -209 -76 -393.5t-207 -316t-315 -208t-393 -76.5zM709 883q0 -159 100 -259t268 -100q146 0 241 64.5
t114 169.5h4l-4 -27q-24 -381 -373 -381h-277v-114h267q111 0 196 27.5t139 75t87.5 118t47 148.5t13.5 175q0 235 -112 358.5t-316 123.5q-183 0 -289 -103.5t-106 -275.5zM842 883q0 127 71 194.5t199 67.5q135 0 210 -76t75 -184q0 -115 -77 -183.5t-212 -68.5
q-122 0 -194 67.5t-72 182.5z" />
    <glyph glyph-name="uniA78B" unicode="&#xa78b;" horiz-adv-x="491" 
d="M170 1444h147v-504h-147v504z" />
    <glyph glyph-name="uniA78C" unicode="&#xa78c;" horiz-adv-x="491" 
d="M170 1511h147v-503h-147v503z" />
    <glyph glyph-name="uni004A0301" horiz-adv-x="1083" 
d="M559 0h-489v131h458q142 0 206.5 88t64.5 262v832h-512v131h530q76 0 105.5 -26.5t29.5 -96.5v-877q0 -219 -101 -331.5t-292 -112.5zM295 1737l610 159l31 -120l-610 -160z" />
    <glyph glyph-name="M.001" horiz-adv-x="1814" 
d="M154 0v1444h278l475 -1387l477 1387h277v-1444h-152v1376l-481 -1376h-242l-481 1376v-1376h-151z" />
    <glyph glyph-name="uni013B.loclMAH" horiz-adv-x="1103" 
d="M270 0q-56 0 -86 31t-30 88v1325h151v-1313h729v-131h-764zM457 -438l106 338l139 -39l-106 -336z" />
    <glyph glyph-name="uni0145.loclMAH" horiz-adv-x="1533" 
d="M154 0v1444h280l795 -1385v1385h151v-1444h-280l-795 1384v-1384h-151zM580 -438l106 338l139 -39l-106 -336z" />
    <glyph glyph-name="G.ss03" horiz-adv-x="1652" 
d="M129 705q0 226 82 397.5t237 266.5t363 95q258 0 410 -145t186 -391h-154q-55 407 -440 407q-253 0 -391.5 -169t-138.5 -461q0 -130 27.5 -235.5t84.5 -187.5t152.5 -127.5t222.5 -45.5q224 0 340.5 140.5t110.5 391.5h-547v127h702q62 0 90.5 -25.5t28.5 -80.5v-662
h-152v621q-23 -328 -168 -484.5t-407 -156.5q-129 0 -235 36.5t-180.5 101.5t-125 156.5t-74.5 199.5t-24 231z" />
    <glyph glyph-name="Gbreve.ss03" horiz-adv-x="1652" 
d="M129 705q0 226 82 397.5t237 266.5t363 95q258 0 410 -145t186 -391h-154q-55 407 -440 407q-253 0 -391.5 -169t-138.5 -461q0 -130 27.5 -235.5t84.5 -187.5t152.5 -127.5t222.5 -45.5q224 0 340.5 140.5t110.5 391.5h-547v127h702q62 0 90.5 -25.5t28.5 -80.5v-662
h-152v621q-23 -328 -168 -484.5t-407 -156.5q-129 0 -235 36.5t-180.5 101.5t-125 156.5t-74.5 199.5t-24 231zM483 1929h125q0 -115 44.5 -169t144.5 -54q101 0 145.5 53.5t44.5 169.5h125q0 -158 -85.5 -253t-229.5 -95q-142 0 -228 95.5t-86 252.5z" />
    <glyph glyph-name="uni0122.ss03" horiz-adv-x="1652" 
d="M129 705q0 226 82 397.5t237 266.5t363 95q258 0 410 -145t186 -391h-154q-55 407 -440 407q-253 0 -391.5 -169t-138.5 -461q0 -130 27.5 -235.5t84.5 -187.5t152.5 -127.5t222.5 -45.5q224 0 340.5 140.5t110.5 391.5h-547v127h702q62 0 90.5 -25.5t28.5 -80.5v-662
h-152v621q-23 -328 -168 -484.5t-407 -156.5q-129 0 -235 36.5t-180.5 101.5t-125 156.5t-74.5 199.5t-24 231zM569 -438l107 338l139 -39l-106 -336z" />
    <glyph glyph-name="Gdotaccent.ss03" horiz-adv-x="1652" 
d="M129 705q0 226 82 397.5t237 266.5t363 95q258 0 410 -145t186 -391h-154q-55 407 -440 407q-253 0 -391.5 -169t-138.5 -461q0 -130 27.5 -235.5t84.5 -187.5t152.5 -127.5t222.5 -45.5q224 0 340.5 140.5t110.5 391.5h-547v127h702q62 0 90.5 -25.5t28.5 -80.5v-662
h-152v621q-23 -328 -168 -484.5t-407 -156.5q-129 0 -235 36.5t-180.5 101.5t-125 156.5t-74.5 199.5t-24 231zM662 1763q0 54 39 92.5t94 38.5q56 0 95.5 -38.5t39.5 -92.5q0 -55 -39.5 -94t-95.5 -39q-55 0 -94 39t-39 94z" />
    <glyph glyph-name="R.ss04" horiz-adv-x="1382" 
d="M154 0v1444h518q134 0 231.5 -19t172 -63.5t112 -122.5t37.5 -190q0 -169 -85.5 -273.5t-269.5 -118.5q56 -14 97.5 -67.5t105.5 -186.5l201 -403h-180l-189 393q-58 126 -105 162.5t-159 36.5h-330v-592h-157zM311 719h361q80 0 136.5 6.5t108.5 25t83.5 51t50 85.5
t18.5 127q0 93 -26.5 153t-82 91t-122 42t-166.5 11h-361v-592z" />
    <glyph glyph-name="Racute.ss04" horiz-adv-x="1382" 
d="M154 0v1444h518q134 0 231.5 -19t172 -63.5t112 -122.5t37.5 -190q0 -169 -85.5 -273.5t-269.5 -118.5q56 -14 97.5 -67.5t105.5 -186.5l201 -403h-180l-189 393q-58 126 -105 162.5t-159 36.5h-330v-592h-157zM311 719h361q80 0 136.5 6.5t108.5 25t83.5 51t50 85.5
t18.5 127q0 93 -26.5 153t-82 91t-122 42t-166.5 11h-361v-592zM371 1737l610 159l31 -120l-611 -160z" />
    <glyph glyph-name="Rcaron.ss04" horiz-adv-x="1382" 
d="M154 0v1444h518q134 0 231.5 -19t172 -63.5t112 -122.5t37.5 -190q0 -169 -85.5 -273.5t-269.5 -118.5q56 -14 97.5 -67.5t105.5 -186.5l201 -403h-180l-189 393q-58 126 -105 162.5t-159 36.5h-330v-592h-157zM311 719h361q80 0 136.5 6.5t108.5 25t83.5 51t50 85.5
t18.5 127q0 93 -26.5 153t-82 91t-122 42t-166.5 11h-361v-592zM373 1845l90 88l229 -192l232 192l90 -88l-322 -264z" />
    <glyph glyph-name="uni0156.ss04" horiz-adv-x="1382" 
d="M154 0v1444h518q134 0 231.5 -19t172 -63.5t112 -122.5t37.5 -190q0 -169 -85.5 -273.5t-269.5 -118.5q56 -14 97.5 -67.5t105.5 -186.5l201 -403h-180l-189 393q-58 126 -105 162.5t-159 36.5h-330v-592h-157zM311 719h361q80 0 136.5 6.5t108.5 25t83.5 51t50 85.5
t18.5 127q0 93 -26.5 153t-82 91t-122 42t-166.5 11h-361v-592zM504 -438l106 338l140 -39l-107 -336z" />
    <glyph glyph-name="Y.ss07" 
d="M1104 1444h162l-523 -899v-545h-151v545l-522 899h161l439 -754z" />
    <glyph glyph-name="Yacute.ss07" 
d="M1104 1444h162l-523 -899v-545h-151v545l-522 899h161l439 -754zM346 1737l610 159l31 -120l-610 -160z" />
    <glyph glyph-name="Ycircumflex.ss07" 
d="M1104 1444h162l-523 -899v-545h-151v545l-522 899h161l439 -754zM348 1669l320 264l321 -264l-90 -90l-231 195l-230 -195z" />
    <glyph glyph-name="Ydieresis.ss07" 
d="M1104 1444h162l-523 -899v-545h-151v545l-522 899h161l439 -754zM324 1753q0 57 41 98t100 41t101 -41t42 -98q0 -58 -42 -99.5t-101 -41.5q-60 0 -100.5 41t-40.5 100zM731 1753q0 57 40.5 98t98.5 41q60 0 102 -41t42 -98q0 -59 -42 -100t-102 -41q-58 0 -98.5 41
t-40.5 100z" />
    <glyph glyph-name="Ygrave.ss07" 
d="M1104 1444h162l-523 -899v-545h-151v545l-522 899h161l439 -754zM350 1776l31 120l610 -159l-30 -121z" />
    <glyph glyph-name="uni1EF8.ss07" 
d="M1104 1444h162l-523 -899v-545h-151v545l-522 899h161l439 -754zM309 1636q0 269 199 269q47 0 88 -17t69 -41t52 -48t49 -41t49 -17q40 0 63 29.5t23 113.5h125q0 -141 -53.5 -204.5t-145.5 -63.5q-47 0 -88 17t-68.5 41t-51.5 48t-49.5 41t-49.5 17q-40 0 -63 -30
t-23 -114h-125z" />
    <glyph glyph-name="i.loclTRK" horiz-adv-x="886" 
d="M113 0v129h280v758h-203v129h238q53 0 78.5 -26.5t25.5 -84.5v-776h285v-129h-704zM309 1335q0 54 39 92.5t94 38.5q56 0 96 -38.5t40 -92.5q0 -55 -40 -94t-96 -39t-94.5 39t-38.5 94z" />
    <glyph glyph-name="uni006A0301" horiz-adv-x="589" 
d="M248 -57q22 40 29.5 72.5t7.5 82.5v789h-207v129h239q58 0 87.5 -24.5t29.5 -82.5v-839q0 -86 -37 -156l-157 -295h-162zM18 1309l611 159l30 -120l-610 -160z" />
    <glyph glyph-name="uni013C.loclMAH" horiz-adv-x="882" 
d="M92 0v129h285v1247h-207v129h262q46 0 71 -23t25 -67v-1286h285v-129h-721zM264 -438l107 338l139 -39l-107 -336z" />
    <glyph glyph-name="uni0146.loclMAH" horiz-adv-x="1220" 
d="M152 0v1016h151v-283q42 144 150 223.5t272 79.5q173 0 269 -107.5t96 -305.5v-623h-154v610q0 157 -63 227t-199 70q-170 0 -270.5 -129t-100.5 -336v-442h-151zM434 -438l107 338l139 -39l-107 -336z" />
    <glyph glyph-name="a.ss01" 
d="M588 -20q-213 0 -345 146.5t-132 381.5t132 381.5t345 146.5q163 0 276 -74.5t168 -203.5v258h152v-1016h-152v258q-55 -131 -168.5 -204.5t-275.5 -73.5zM262 508q0 -195 105 -297t268 -102q77 0 146.5 25.5t124.5 73.5t87.5 125.5t32.5 174.5q0 96 -32.5 173.5
t-87 125.5t-124.5 74t-147 26q-163 0 -268 -102t-105 -297z" />
    <glyph glyph-name="aacute.ss01" 
d="M588 -20q-213 0 -345 146.5t-132 381.5t132 381.5t345 146.5q163 0 276 -74.5t168 -203.5v258h152v-1016h-152v258q-55 -131 -168.5 -204.5t-275.5 -73.5zM262 508q0 -195 105 -297t268 -102q77 0 146.5 25.5t124.5 73.5t87.5 125.5t32.5 174.5q0 96 -32.5 173.5
t-87 125.5t-124.5 74t-147 26q-163 0 -268 -102t-105 -297zM344 1309l610 159l31 -120l-610 -160z" />
    <glyph glyph-name="abreve.ss01" 
d="M588 -20q-213 0 -345 146.5t-132 381.5t132 381.5t345 146.5q163 0 276 -74.5t168 -203.5v258h152v-1016h-152v258q-55 -131 -168.5 -204.5t-275.5 -73.5zM262 508q0 -195 105 -297t268 -102q77 0 146.5 25.5t124.5 73.5t87.5 125.5t32.5 174.5q0 96 -32.5 173.5
t-87 125.5t-124.5 74t-147 26q-163 0 -268 -102t-105 -297zM352 1501h125q0 -115 44.5 -169t144.5 -54q101 0 145.5 53.5t44.5 169.5h125q0 -158 -85.5 -253t-229.5 -95q-142 0 -228 95.5t-86 252.5z" />
    <glyph glyph-name="acircumflex.ss01" 
d="M588 -20q-213 0 -345 146.5t-132 381.5t132 381.5t345 146.5q163 0 276 -74.5t168 -203.5v258h152v-1016h-152v258q-55 -131 -168.5 -204.5t-275.5 -73.5zM262 508q0 -195 105 -297t268 -102q77 0 146.5 25.5t124.5 73.5t87.5 125.5t32.5 174.5q0 96 -32.5 173.5
t-87 125.5t-124.5 74t-147 26q-163 0 -268 -102t-105 -297zM346 1241l320 264l321 -264l-90 -90l-231 195l-230 -195z" />
    <glyph glyph-name="adieresis.ss01" 
d="M588 -20q-213 0 -345 146.5t-132 381.5t132 381.5t345 146.5q163 0 276 -74.5t168 -203.5v258h152v-1016h-152v258q-55 -131 -168.5 -204.5t-275.5 -73.5zM262 508q0 -195 105 -297t268 -102q77 0 146.5 25.5t124.5 73.5t87.5 125.5t32.5 174.5q0 96 -32.5 173.5
t-87 125.5t-124.5 74t-147 26q-163 0 -268 -102t-105 -297zM319 1325q0 57 41 98t101 41q59 0 101 -41t42 -98q0 -58 -42 -99.5t-101 -41.5q-60 0 -101 41t-41 100zM727 1325q0 57 40.5 98t98.5 41q60 0 102 -41t42 -98q0 -59 -42 -100t-102 -41q-58 0 -98.5 41t-40.5 100z
" />
    <glyph glyph-name="agrave.ss01" 
d="M588 -20q-213 0 -345 146.5t-132 381.5t132 381.5t345 146.5q163 0 276 -74.5t168 -203.5v258h152v-1016h-152v258q-55 -131 -168.5 -204.5t-275.5 -73.5zM262 508q0 -195 105 -297t268 -102q77 0 146.5 25.5t124.5 73.5t87.5 125.5t32.5 174.5q0 96 -32.5 173.5
t-87 125.5t-124.5 74t-147 26q-163 0 -268 -102t-105 -297zM346 1348l31 120l610 -159l-31 -121z" />
    <glyph glyph-name="amacron.ss01" 
d="M588 -20q-213 0 -345 146.5t-132 381.5t132 381.5t345 146.5q163 0 276 -74.5t168 -203.5v258h152v-1016h-152v258q-55 -131 -168.5 -204.5t-275.5 -73.5zM262 508q0 -195 105 -297t268 -102q77 0 146.5 25.5t124.5 73.5t87.5 125.5t32.5 174.5q0 96 -32.5 173.5
t-87 125.5t-124.5 74t-147 26q-163 0 -268 -102t-105 -297zM348 1266v127h637v-125z" />
    <glyph glyph-name="aogonek.ss01" 
d="M588 -20q-213 0 -345 146.5t-132 381.5t132 381.5t345 146.5q163 0 276 -74.5t168 -203.5v258h152l-2 -1016l-138 -266l392 2v-127h-408q-76 0 -107 47.5t3 112.5l120 231h-12v258q-55 -131 -168.5 -204.5t-275.5 -73.5zM262 508q0 -195 105 -297t268 -102
q77 0 146.5 25.5t124.5 73.5t87.5 125.5t32.5 174.5q0 96 -32.5 173.5t-87 125.5t-124.5 74t-147 26q-163 0 -268 -102t-105 -297z" />
    <glyph glyph-name="aring.ss01" 
d="M588 -20q-213 0 -345 146.5t-132 381.5t132 381.5t345 146.5q163 0 276 -74.5t168 -203.5v258h152v-1016h-152v258q-55 -131 -168.5 -204.5t-275.5 -73.5zM262 508q0 -195 105 -297t268 -102q77 0 146.5 25.5t124.5 73.5t87.5 125.5t32.5 174.5q0 96 -32.5 173.5
t-87 125.5t-124.5 74t-147 26q-163 0 -268 -102t-105 -297zM430 1366q0 90 62.5 154.5t171.5 64.5t171 -64.5t62 -154.5q0 -89 -62.5 -154t-170.5 -65q-109 0 -171.5 64.5t-62.5 154.5zM553 1366q0 -47 28.5 -73.5t82.5 -26.5t82 26.5t28 73.5q0 45 -28.5 71.5t-81.5 26.5
q-54 0 -82.5 -26.5t-28.5 -71.5z" />
    <glyph glyph-name="atilde.ss01" 
d="M588 -20q-213 0 -345 146.5t-132 381.5t132 381.5t345 146.5q163 0 276 -74.5t168 -203.5v258h152v-1016h-152v258q-55 -131 -168.5 -204.5t-275.5 -73.5zM262 508q0 -195 105 -297t268 -102q77 0 146.5 25.5t124.5 73.5t87.5 125.5t32.5 174.5q0 96 -32.5 173.5
t-87 125.5t-124.5 74t-147 26q-163 0 -268 -102t-105 -297zM307 1208q0 269 199 269q47 0 88 -17t69 -41t52 -48t49 -41t49 -17q40 0 63 29.5t23 113.5h125q0 -141 -53.5 -204.5t-145.5 -63.5q-47 0 -88 17t-68.5 41t-51.5 48t-49.5 41t-49.5 17q-40 0 -63 -30t-23 -114
h-125z" />
    <glyph glyph-name="r.ss02" horiz-adv-x="835" 
d="M152 0v1016h153v-182l-26 -109h45q29 135 118 213t234 78h133v-129h-180q-152 0 -238 -118.5t-86 -315.5v-453h-153z" />
    <glyph glyph-name="racute.ss02" horiz-adv-x="835" 
d="M152 0v1016h153v-182l-26 -109h45q29 135 118 213t234 78h133v-129h-180q-152 0 -238 -118.5t-86 -315.5v-453h-153zM35 1309l610 159l31 -120l-610 -160z" />
    <glyph glyph-name="rcaron.ss02" horiz-adv-x="835" 
d="M152 0v1016h153v-182l-26 -109h45q29 135 118 213t234 78h133v-129h-180q-152 0 -238 -118.5t-86 -315.5v-453h-153zM37 1417l90 88l229 -192l232 192l90 -88l-322 -264z" />
    <glyph glyph-name="uni0157.ss02" horiz-adv-x="835" 
d="M152 0v1016h153v-182l-26 -109h45q29 135 118 213t234 78h133v-129h-180q-152 0 -238 -118.5t-86 -315.5v-453h-153zM168 -438l106 338l140 -39l-107 -336z" />
    <glyph glyph-name="g.ss05" horiz-adv-x="1327" 
d="M154 -246q99 -1 187 -0.5t163.5 3.5t139 8.5t114.5 14t90 22t65 31.5t39 41.5t13 53.5q0 142 -232 136q-125 -3 -418 -65q-57 -12 -73 -15l-23 106q308 70 518 158q-169 -30 -311.5 6t-228.5 135.5t-86 243.5q0 102 41 181.5t111.5 126.5t156.5 71t184 24q217 0 352 -106
q62 56 107.5 71t122.5 15h90v-129h-90q-91 0 -150 -43q74 -106 74 -238q0 -167 -120.5 -284t-356.5 -199v-4q90 18 172 18t154 -20t115.5 -73.5t43.5 -135.5q0 -106 -84 -167t-295.5 -90t-584.5 -24v127zM262 627q0 -143 94.5 -218t253.5 -75q160 0 254 74.5t94 218.5
q0 142 -97 217.5t-251 75.5q-157 0 -252.5 -75t-95.5 -218z" />
    <glyph glyph-name="gbreve.ss05" horiz-adv-x="1327" 
d="M154 -246q99 -1 187 -0.5t163.5 3.5t139 8.5t114.5 14t90 22t65 31.5t39 41.5t13 53.5q0 142 -232 136q-125 -3 -418 -65q-57 -12 -73 -15l-23 106q308 70 518 158q-169 -30 -311.5 6t-228.5 135.5t-86 243.5q0 102 41 181.5t111.5 126.5t156.5 71t184 24q217 0 352 -106
q62 56 107.5 71t122.5 15h90v-129h-90q-91 0 -150 -43q74 -106 74 -238q0 -167 -120.5 -284t-356.5 -199v-4q90 18 172 18t154 -20t115.5 -73.5t43.5 -135.5q0 -106 -84 -167t-295.5 -90t-584.5 -24v127zM262 627q0 -143 94.5 -218t253.5 -75q160 0 254 74.5t94 218.5
q0 142 -97 217.5t-251 75.5q-157 0 -252.5 -75t-95.5 -218zM297 1501h125q0 -116 44 -169.5t144 -53.5q101 0 146 53.5t45 169.5h125q0 -157 -86 -252.5t-230 -95.5q-142 0 -227.5 95.5t-85.5 252.5z" />
    <glyph glyph-name="gcircumflex.ss05" horiz-adv-x="1327" 
d="M154 -246q99 -1 187 -0.5t163.5 3.5t139 8.5t114.5 14t90 22t65 31.5t39 41.5t13 53.5q0 142 -232 136q-125 -3 -418 -65q-57 -12 -73 -15l-23 106q308 70 518 158q-169 -30 -311.5 6t-228.5 135.5t-86 243.5q0 102 41 181.5t111.5 126.5t156.5 71t184 24q217 0 352 -106
q62 56 107.5 71t122.5 15h90v-129h-90q-91 0 -150 -43q74 -106 74 -238q0 -167 -120.5 -284t-356.5 -199v-4q90 18 172 18t154 -20t115.5 -73.5t43.5 -135.5q0 -106 -84 -167t-295.5 -90t-584.5 -24v127zM262 627q0 -143 94.5 -218t253.5 -75q160 0 254 74.5t94 218.5
q0 142 -97 217.5t-251 75.5q-157 0 -252.5 -75t-95.5 -218zM291 1241l319 264l322 -264l-90 -90l-232 195l-229 -195z" />
    <glyph glyph-name="uni0123.ss05" horiz-adv-x="1327" 
d="M154 -246q99 -1 187 -0.5t163.5 3.5t139 8.5t114.5 14t90 22t65 31.5t39 41.5t13 53.5q0 142 -232 136q-125 -3 -418 -65q-57 -12 -73 -15l-23 106q308 70 518 158q-169 -30 -311.5 6t-228.5 135.5t-86 243.5q0 102 41 181.5t111.5 126.5t156.5 71t184 24q217 0 352 -106
q62 56 107.5 71t122.5 15h90v-129h-90q-91 0 -150 -43q74 -106 74 -238q0 -167 -120.5 -284t-356.5 -199v-4q90 18 172 18t154 -20t115.5 -73.5t43.5 -135.5q0 -106 -84 -167t-295.5 -90t-584.5 -24v127zM262 627q0 -143 94.5 -218t253.5 -75q160 0 254 74.5t94 218.5
q0 142 -97 217.5t-251 75.5q-157 0 -252.5 -75t-95.5 -218zM551 1221l100 364l140 -37l-101 -364z" />
    <glyph glyph-name="gdotaccent.ss05" horiz-adv-x="1327" 
d="M154 -246q99 -1 187 -0.5t163.5 3.5t139 8.5t114.5 14t90 22t65 31.5t39 41.5t13 53.5q0 142 -232 136q-125 -3 -418 -65q-57 -12 -73 -15l-23 106q308 70 518 158q-169 -30 -311.5 6t-228.5 135.5t-86 243.5q0 102 41 181.5t111.5 126.5t156.5 71t184 24q217 0 352 -106
q62 56 107.5 71t122.5 15h90v-129h-90q-91 0 -150 -43q74 -106 74 -238q0 -167 -120.5 -284t-356.5 -199v-4q90 18 172 18t154 -20t115.5 -73.5t43.5 -135.5q0 -106 -84 -167t-295.5 -90t-584.5 -24v127zM262 627q0 -143 94.5 -218t253.5 -75q160 0 254 74.5t94 218.5
q0 142 -97 217.5t-251 75.5q-157 0 -252.5 -75t-95.5 -218zM477 1335q0 54 39 92.5t94 38.5q56 0 95.5 -38.5t39.5 -92.5q0 -55 -39.5 -94t-95.5 -39t-94.5 39t-38.5 94z" />
    <glyph glyph-name="uni1E21.ss05" horiz-adv-x="1327" 
d="M154 -246q99 -1 187 -0.5t163.5 3.5t139 8.5t114.5 14t90 22t65 31.5t39 41.5t13 53.5q0 142 -232 136q-125 -3 -418 -65q-57 -12 -73 -15l-23 106q308 70 518 158q-169 -30 -311.5 6t-228.5 135.5t-86 243.5q0 102 41 181.5t111.5 126.5t156.5 71t184 24q217 0 352 -106
q62 56 107.5 71t122.5 15h90v-129h-90q-91 0 -150 -43q74 -106 74 -238q0 -167 -120.5 -284t-356.5 -199v-4q90 18 172 18t154 -20t115.5 -73.5t43.5 -135.5q0 -106 -84 -167t-295.5 -90t-584.5 -24v127zM262 627q0 -143 94.5 -218t253.5 -75q160 0 254 74.5t94 218.5
q0 142 -97 217.5t-251 75.5q-157 0 -252.5 -75t-95.5 -218zM293 1266v127h637v-125z" />
    <glyph glyph-name="k.ss06" horiz-adv-x="1126" 
d="M152 0v1505h151v-989l547 293v207h147v-199q0 -81 -75 -119l-271 -147l408 -551h-174l-359 483l-223 -121v-362h-151z" />
    <glyph glyph-name="uni0137.ss06" horiz-adv-x="1126" 
d="M152 0v1505h151v-989l547 293v207h147v-199q0 -81 -75 -119l-271 -147l408 -551h-174l-359 483l-223 -121v-362h-151zM387 -438l107 338l139 -39l-107 -336z" />
    <glyph glyph-name="y.ss07" horiz-adv-x="1122" 
d="M911 1016h166l-438 -1010v-293q0 -106 -104 -106h-416v133h366v266l-440 1010h162l354 -838z" />
    <glyph glyph-name="yacute.ss07" horiz-adv-x="1122" 
d="M911 1016h166l-438 -1010v-293q0 -106 -104 -106h-416v133h366v266l-440 1010h162l354 -838zM240 1309l610 159l31 -120l-611 -160z" />
    <glyph glyph-name="ycircumflex.ss07" horiz-adv-x="1122" 
d="M911 1016h166l-438 -1010v-293q0 -106 -104 -106h-416v133h366v266l-440 1010h162l354 -838zM242 1241l319 264l322 -264l-90 -90l-232 195l-229 -195z" />
    <glyph glyph-name="ydieresis.ss07" horiz-adv-x="1122" 
d="M911 1016h166l-438 -1010v-293q0 -106 -104 -106h-416v133h366v266l-440 1010h162l354 -838zM217 1325q0 57 40.5 98t100.5 41q59 0 101.5 -41t42.5 -98q0 -58 -42.5 -99.5t-101.5 -41.5q-60 0 -100.5 41t-40.5 100zM625 1325q0 57 40.5 98t98.5 41q60 0 101.5 -41
t41.5 -98q0 -59 -41.5 -100t-101.5 -41q-58 0 -98.5 41t-40.5 100z" />
    <glyph glyph-name="ygrave.ss07" horiz-adv-x="1122" 
d="M911 1016h166l-438 -1010v-293q0 -106 -104 -106h-416v133h366v266l-440 1010h162l354 -838zM244 1348l30 120l611 -159l-31 -121z" />
    <glyph glyph-name="uni1EF9.ss07" horiz-adv-x="1122" 
d="M911 1016h166l-438 -1010v-293q0 -106 -104 -106h-416v133h366v266l-440 1010h162l354 -838zM203 1208q0 269 198 269q47 0 88 -17t69 -41t52.5 -48t49.5 -41t49 -17q40 0 63 29.5t23 113.5h125q0 -141 -53.5 -204.5t-145.5 -63.5q-47 0 -88 17t-68.5 41t-51.5 48
t-49.5 41t-49.5 17q-40 0 -63 -30t-23 -114h-125z" />
    <glyph glyph-name="r.ss08" horiz-adv-x="995" 
d="M113 0v129h200v758h-200v129h245q107 0 107 -90v-170q36 123 129.5 191.5t239.5 68.5h133v-129h-179q-153 0 -240 -118.5t-87 -315.5v-324h360v-129h-708z" />
    <glyph glyph-name="racute.ss08" horiz-adv-x="995" 
d="M113 0v129h200v758h-200v129h245q107 0 107 -90v-170q36 123 129.5 191.5t239.5 68.5h133v-129h-179q-153 0 -240 -118.5t-87 -315.5v-324h360v-129h-708zM162 1309l610 159l31 -120l-610 -160z" />
    <glyph glyph-name="rcaron.ss08" horiz-adv-x="995" 
d="M113 0v129h200v758h-200v129h245q107 0 107 -90v-170q36 123 129.5 191.5t239.5 68.5h133v-129h-179q-153 0 -240 -118.5t-87 -315.5v-324h360v-129h-708zM166 1417l90 88l229 -192l232 192l90 -88l-322 -264z" />
    <glyph glyph-name="uni0157.ss08" horiz-adv-x="995" 
d="M113 0v129h200v758h-200v129h245q107 0 107 -90v-170q36 123 129.5 191.5t239.5 68.5h133v-129h-179q-153 0 -240 -118.5t-87 -315.5v-324h360v-129h-708zM297 -438l106 338l140 -39l-107 -336z" />
    <glyph glyph-name="y.ss10" horiz-adv-x="1077" 
d="M98 -393v127h322l102 266h-104l-373 1016h152l344 -948l342 948h149l-473 -1317q-29 -92 -115 -92h-346z" />
    <glyph glyph-name="yacute.ss10" horiz-adv-x="1077" 
d="M98 -393v127h322l102 266h-104l-373 1016h152l344 -948l342 948h149l-473 -1317q-29 -92 -115 -92h-346zM217 1309l610 159l31 -120l-610 -160z" />
    <glyph glyph-name="ycircumflex.ss10" horiz-adv-x="1077" 
d="M98 -393v127h322l102 266h-104l-373 1016h152l344 -948l342 948h149l-473 -1317q-29 -92 -115 -92h-346zM221 1241l320 264l321 -264l-90 -90l-231 195l-230 -195z" />
    <glyph glyph-name="ydieresis.ss10" horiz-adv-x="1077" 
d="M98 -393v127h322l102 266h-104l-373 1016h152l344 -948l342 948h149l-473 -1317q-29 -92 -115 -92h-346zM195 1325q0 57 40.5 98t100.5 41q59 0 101 -41t42 -98q0 -58 -42 -99.5t-101 -41.5q-60 0 -100.5 41t-40.5 100zM602 1325q0 57 40.5 98t98.5 41q60 0 102 -41
t42 -98q0 -59 -42 -100t-102 -41q-58 0 -98.5 41t-40.5 100z" />
    <glyph glyph-name="ygrave.ss10" horiz-adv-x="1077" 
d="M98 -393v127h322l102 266h-104l-373 1016h152l344 -948l342 948h149l-473 -1317q-29 -92 -115 -92h-346zM221 1348l31 120l610 -159l-31 -121z" />
    <glyph glyph-name="uni1EF9.ss10" horiz-adv-x="1077" 
d="M98 -393v127h322l102 266h-104l-373 1016h152l344 -948l342 948h149l-473 -1317q-29 -92 -115 -92h-346zM182 1208q0 269 199 269q47 0 88 -17t69 -41t52 -48t49 -41t49 -17q40 0 63 29.5t23 113.5h125q0 -141 -53.5 -204.5t-145.5 -63.5q-47 0 -88 17t-68.5 41t-51.5 48
t-49.5 41t-49.5 17q-40 0 -63 -30t-23 -114h-125z" />
    <glyph glyph-name="f_i.dlig" horiz-adv-x="1554" 
d="M643 1376q-96 0 -135 -54t-39 -161v-145h604q69 0 99 -32.5t30 -104.5v-750h283v-129h-1393v129h227v758h-227v129h227v149q0 160 79 250t247 90h465v-129h-467zM469 129h584v758h-584v-758z" />
    <glyph glyph-name="f_t.dlig" horiz-adv-x="1581" 
d="M92 887v129h225v168q0 153 79.5 237t248.5 84h176v-129h-178q-98 0 -136 -45.5t-38 -148.5v-166h512v270l152 45v-315h315v-129h-315v-760l356 2v-129h-373q-69 0 -102 33.5t-33 103.5v750h-512v-758h295v-129h-672v129h225v758h-225z" />
    <glyph glyph-name="g_f.ss05_dlig" horiz-adv-x="2054" 
d="M154 -246q99 -1 187 -0.5t163.5 3.5t139 8.5t114.5 14t90 22t65 31.5t39 41.5t13 53.5q0 142 -232 136q-125 -3 -418 -65q-57 -12 -73 -15l-23 106q308 70 518 158q-169 -30 -311.5 6t-228.5 135.5t-86 243.5q0 102 41 181.5t111.5 126.5t156.5 71t184 24q217 0 352 -106
q62 56 107.5 71t122.5 15h313v168q0 153 79.5 237t248.5 84h176v-129h-178q-98 0 -136 -45.5t-38 -148.5v-166h295v-129h-295v-758h295v-129h-672v129h225v758h-313q-91 0 -150 -43q74 -106 74 -238q0 -167 -120.5 -284t-356.5 -199v-4q90 18 172 18t154 -20t115.5 -73.5
t43.5 -135.5q0 -106 -84 -167t-295.5 -90t-584.5 -24v127zM262 627q0 -143 94.5 -218t253.5 -75q160 0 254 74.5t94 218.5q0 142 -97 217.5t-251 75.5q-157 0 -252.5 -75t-95.5 -218z" />
    <glyph glyph-name="g_i.ss05_dlig" horiz-adv-x="1970" 
d="M154 -246q99 -1 187 -0.5t163.5 3.5t139 8.5t114.5 14t90 22t65 31.5t39 41.5t13 53.5q0 142 -232 136q-125 -3 -418 -65q-57 -12 -73 -15l-23 106q308 70 518 158q-169 -30 -311.5 6t-228.5 135.5t-86 243.5q0 102 41 181.5t111.5 126.5t156.5 71t184 24q217 0 352 -106
q62 56 107.5 71t122.5 15h325q53 0 79 -26.5t26 -84.5v-776h285v-129h-705v129h281v758h-291q-91 0 -150 -43q74 -106 74 -238q0 -167 -120.5 -284t-356.5 -199v-4q90 18 172 18t154 -20t115.5 -73.5t43.5 -135.5q0 -106 -84 -167t-295.5 -90t-584.5 -24v127zM262 627
q0 -143 94.5 -218t253.5 -75q160 0 254 74.5t94 218.5q0 142 -97 217.5t-251 75.5q-157 0 -252.5 -75t-95.5 -218zM1393 1335q0 54 39 92.5t94 38.5q56 0 95.5 -38.5t39.5 -92.5q0 -55 -39.5 -94t-95.5 -39t-94.5 39t-38.5 94z" />
    <glyph glyph-name="g_t.ss05_dlig" horiz-adv-x="2088" 
d="M154 -246q99 -1 187 -0.5t163.5 3.5t139 8.5t114.5 14t90 22t65 31.5t39 41.5t13 53.5q0 142 -232 136q-125 -3 -418 -65q-57 -12 -73 -15l-23 106q308 70 518 158q-169 -30 -311.5 6t-228.5 135.5t-86 243.5q0 102 41 181.5t111.5 126.5t156.5 71t184 24q217 0 352 -106
q62 56 107.5 71t122.5 15h305v270l151 45v-315h316v-129h-316v-760l357 2v-129h-373q-69 0 -102 33.5t-33 103.5v750h-305q-91 0 -150 -43q74 -106 74 -238q0 -167 -120.5 -284t-356.5 -199v-4q90 18 172 18t154 -20t115.5 -73.5t43.5 -135.5q0 -106 -84 -167t-295.5 -90
t-584.5 -24v127zM262 627q0 -143 94.5 -218t253.5 -75q160 0 254 74.5t94 218.5q0 142 -97 217.5t-251 75.5q-157 0 -252.5 -75t-95.5 -218z" />
    <glyph glyph-name="r_f.dlig" horiz-adv-x="1404" 
d="M152 881q0 69 33.5 102t103.5 33h561v168q0 153 79.5 237t248.5 84h176v-129h-178q-98 0 -136.5 -45.5t-38.5 -148.5v-166h295v-129h-295v-758h295v-129h-671v129h225v758h-547v-887h-151v881z" />
    <glyph glyph-name="r_i.dlig" horiz-adv-x="1398" 
d="M152 881q0 69 33.5 102t103.5 33h651q53 0 78.5 -26.5t25.5 -84.5v-776h285v-129h-704v129h280v758h-602v-887h-151v881zM821 1335q0 54 39 92.5t94 38.5q56 0 96 -38.5t40 -92.5q0 -55 -40 -94t-96 -39t-94.5 39t-38.5 94z" />
    <glyph glyph-name="r_t.dlig" horiz-adv-x="1439" 
d="M152 881q0 69 33.5 102t103.5 33h553v270l151 45v-315h316v-129h-316v-760l357 2v-129h-373q-69 0 -102 33.5t-33 103.5v750h-539v-887h-151v881z" />
    <glyph glyph-name="t_f.dlig" horiz-adv-x="1486" 
d="M932 129v758h-508v-760l283 2h225zM51 887v129h221v270l152 45v-315h508v168q0 153 79.5 237t248.5 84h176v-129h-179q-98 0 -136 -45.5t-38 -148.5v-166h295v-129h-295v-758h295v-129h-970q-69 0 -102.5 33.5t-33.5 103.5v750h-221z" />
    <glyph glyph-name="t_t.dlig" horiz-adv-x="1521" 
d="M780 129v-129h-372q-69 0 -102.5 33.5t-33.5 103.5v750h-221v129h221v270l152 45v-315h500v270l151 45v-315h316v-129h-316v-760l357 2v-129h-373q-69 0 -102 33.5t-33 103.5v750h-500v-760z" />
    <glyph glyph-name="uni0438.loclBGR" horiz-adv-x="1259" 
d="M1108 0h-147v956l-547 -956h-262v1016h143v-955l551 955h262v-1016z" />
    <glyph glyph-name="uni0439.loclBGR" horiz-adv-x="1259" 
d="M1108 0h-147v956l-547 -956h-262v1016h143v-955l551 955h262v-1016zM315 1501h125q0 -115 44.5 -169t144.5 -54q101 0 145.5 53.5t44.5 169.5h125q0 -158 -85.5 -253t-229.5 -95q-142 0 -228 95.5t-86 252.5z" />
    <glyph glyph-name="uni045D.loclBGR" horiz-adv-x="1259" 
d="M1108 0h-147v956l-547 -956h-262v1016h143v-955l551 955h262v-1016zM311 1348l31 120l610 -159l-30 -121z" />
    <glyph glyph-name="zero.ss12" horiz-adv-x="1476" 
d="M739 -20q-147 0 -264 56.5t-192 156.5t-114.5 235t-39.5 295q0 127 24.5 239t75 204t122.5 158.5t171 103t217 36.5q194 0 333 -98t206.5 -263.5t67.5 -379.5q0 -215 -67.5 -381t-206.5 -264t-333 -98zM283 723q0 -180 49.5 -316t154 -216t252.5 -80t252 80t152.5 216
t48.5 316q0 179 -48.5 314.5t-152.5 215.5t-252 80t-252.5 -80t-154 -215.5t-49.5 -314.5z" />
    <glyph glyph-name="zero.dnom" horiz-adv-x="1042" 
d="M84 506q0 150 49 266.5t149.5 185t239.5 68.5q206 0 321 -145t115 -375q0 -151 -49 -267.5t-149 -184.5t-238 -68q-139 0 -239.5 68t-149.5 184.5t-49 267.5zM219 506q0 -131 41 -227l459 552q-75 78 -197 78q-148 0 -225.5 -109t-77.5 -294zM322 180q78 -78 200 -78
q147 0 224 109t77 295q0 133 -41 229z" />
    <glyph glyph-name="one.dnom" horiz-adv-x="710" 
d="M463 0v944q-7 -88 -26 -158t-57 -137.5t-105 -117.5t-162 -78l-43 116q143 55 208 165.5t68 277.5h252v-1012h-135z" />
    <glyph glyph-name="two.dnom" horiz-adv-x="960" 
d="M74 528q0 130 33.5 228t93.5 156t137.5 86t171.5 28q168 0 268.5 -89t100.5 -253q0 -94 -37 -175.5t-101.5 -142.5t-156.5 -110.5t-196.5 -83t-227.5 -55.5h719v-117h-791v215q27 3 69.5 11t106 26t127 42.5t128.5 63t114.5 84t80.5 108.5t31 134q0 108 -59.5 166.5
t-175.5 58.5q-303 0 -303 -381h-133z" />
    <glyph glyph-name="three.dnom" horiz-adv-x="974" 
d="M211 385q0 -153 69 -218t218 -65q254 0 254 197q0 176 -187 176h-137v111h137q172 0 172 147q0 176 -239 176q-142 0 -207.5 -55.5t-65.5 -173.5h-133q0 170 107 258t303 88q177 0 273.5 -73t96.5 -193q0 -91 -46.5 -150t-133.5 -78q195 -49 195 -253
q0 -138 -102.5 -215.5t-282.5 -77.5q-203 0 -313.5 97t-110.5 302h133z" />
    <glyph glyph-name="four.dnom" horiz-adv-x="956" 
d="M88 440q179 70 299.5 220t140.5 352h136q-53 -478 -525 -680h482v344h135v-344h127v-117h-127v-215h-135v215h-533v225z" />
    <glyph glyph-name="five.dnom" horiz-adv-x="1013" 
d="M502 -14q-190 0 -304 96.5t-114 277.5h135q0 -124 74.5 -191t210.5 -67q137 0 212 70t75 199q0 116 -69 178.5t-192 62.5q-188 0 -272 -120l-147 73l75 447h666v-117h-555l-55 -334q107 162 329 162q166 0 260.5 -92.5t94.5 -257.5q0 -181 -113 -284t-311 -103z" />
    <glyph glyph-name="six.dnom" horiz-adv-x="991" 
d="M88 467q0 96 13 174t47 149t87.5 118.5t138.5 75.5t197 28h267v-117h-279q-347 0 -371 -381v-8q34 102 126.5 158.5t226.5 56.5q170 0 271 -99.5t101 -259.5q0 -171 -107 -273.5t-292 -102.5q-201 0 -313.5 123t-112.5 358zM221 360q0 -107 76 -182.5t211 -75.5
q128 0 199 67.5t71 192.5q0 116 -71 183t-195 67q-135 0 -213 -68.5t-78 -183.5z" />
    <glyph glyph-name="seven.dnom" horiz-adv-x="841" 
d="M203 0q0 325 137.5 545t407.5 350h-699v117h744v-183q-227 -115 -338 -317.5t-111 -511.5h-141z" />
    <glyph glyph-name="eight.dnom" horiz-adv-x="960" 
d="M63 279q0 105 65 176t189 102q-90 24 -143 80.5t-53 142.5q0 123 100 184.5t260 61.5q102 0 181 -25t128.5 -81.5t49.5 -139.5q0 -86 -53 -142.5t-144 -80.5q120 -32 187 -103t67 -178q0 -132 -112.5 -211t-305.5 -79q-190 0 -303 79.5t-113 213.5zM197 295
q0 -89 71.5 -145t212.5 -56q139 0 210 56t71 145q0 93 -70.5 147t-210.5 54q-143 0 -213.5 -54t-70.5 -147zM254 764q0 -152 227 -152q224 0 224 152q0 77 -58 115.5t-166 38.5q-109 0 -168 -38.5t-59 -115.5z" />
    <glyph glyph-name="nine.dnom" horiz-adv-x="991" 
d="M903 545q0 -122 -22.5 -215.5t-75.5 -170.5t-150.5 -118t-236.5 -41h-266v117h276q347 0 375 379v10q-36 -103 -127 -160t-227 -57q-170 0 -270.5 99.5t-100.5 258.5q0 172 106.5 275.5t290.5 103.5q202 0 315 -123.5t113 -357.5zM211 647q0 -115 72 -182.5t194 -67.5
q135 0 213 68.5t78 183.5q0 108 -75.5 184t-209.5 76q-129 0 -200.5 -68t-71.5 -194z" />
    <glyph glyph-name="zero.numr" horiz-adv-x="1042" 
d="M84 938q0 150 49 266.5t149.5 185t239.5 68.5q206 0 321 -145t115 -375q0 -151 -49 -267.5t-149 -184.5t-238 -68q-139 0 -239.5 68t-149.5 184.5t-49 267.5zM219 938q0 -131 41 -227l459 553q-74 77 -197 77q-148 0 -225.5 -109t-77.5 -294zM322 612q77 -77 200 -77
q147 0 224 109t77 294q0 133 -41 229z" />
    <glyph glyph-name="one.numr" horiz-adv-x="710" 
d="M463 428v944q-7 -88 -26 -158t-57 -137.5t-105 -117.5t-162 -78l-43 116q143 55 208 165.5t68 277.5h252v-1012h-135z" />
    <glyph glyph-name="two.numr" horiz-adv-x="960" 
d="M74 961q0 130 33.5 228t93.5 155.5t137.5 85.5t171.5 28q168 0 268.5 -89t100.5 -253q0 -94 -37 -175.5t-101.5 -142.5t-156.5 -110.5t-196.5 -83t-227.5 -55.5h719v-117h-791v215q27 3 69.5 11t106 26t127 42.5t128.5 63t114.5 84t80.5 108.5t31 134q0 108 -59.5 166.5
t-175.5 58.5q-303 0 -303 -380h-133z" />
    <glyph glyph-name="three.numr" horiz-adv-x="974" 
d="M211 817q0 -153 69 -217.5t218 -64.5q254 0 254 196q0 176 -187 176h-137v111h137q172 0 172 147q0 176 -239 176q-142 0 -207.5 -55.5t-65.5 -173.5h-133q0 170 107 258t303 88q177 0 273.5 -73t96.5 -193q0 -91 -46.5 -149.5t-133.5 -77.5q195 -49 195 -254
q0 -138 -102.5 -215.5t-282.5 -77.5q-203 0 -313.5 97t-110.5 302h133z" />
    <glyph glyph-name="four.numr" horiz-adv-x="956" 
d="M88 872q179 70 299.5 220t140.5 352h136q-53 -478 -525 -680h482v344h135v-344h127v-117h-127v-215h-135v215h-533v225z" />
    <glyph glyph-name="five.numr" horiz-adv-x="1013" 
d="M502 418q-190 0 -304 97t-114 278h135q0 -124 74.5 -191t210.5 -67q137 0 212 69.5t75 198.5q0 116 -69 178.5t-192 62.5q-188 0 -272 -120l-147 73l75 447h666v-117h-555l-55 -334q107 162 329 162q166 0 260.5 -92.5t94.5 -257.5q0 -181 -113 -284t-311 -103z" />
    <glyph glyph-name="six.numr" horiz-adv-x="991" 
d="M88 899q0 96 13 174t47 149t87.5 118.5t138.5 75.5t197 28h267v-117h-279q-347 0 -371 -381v-8q34 102 126.5 158.5t226.5 56.5q170 0 271 -99t101 -259q0 -171 -107 -274t-292 -103q-201 0 -313.5 123t-112.5 358zM221 793q0 -107 76 -182.5t211 -75.5q128 0 199 67.5
t71 192.5q0 116 -71 182.5t-195 66.5q-135 0 -213 -68t-78 -183z" />
    <glyph glyph-name="seven.numr" horiz-adv-x="841" 
d="M203 432q0 325 137.5 545t407.5 350h-699v117h744v-182q-226 -115 -337.5 -318t-111.5 -512h-141z" />
    </font>
</defs>
</svg>
