<?xml version="1.0" standalone="no"?>
<!DOCTYPE svg PUBLIC "-//W3C//DTD SVG 1.1//EN" "http://www.w3.org/Graphics/SVG/1.1/DTD/svg11.dtd" >
<svg xmlns="http://www.w3.org/2000/svg" xmlns:xlink="http://www.w3.org/1999/xlink" version="1.1">
<metadata>
Created by FontForge 20170731 at Thu Jan 26 18:05:06 2023
 By Aleksey,,,
Copyright (c) 2019 by Mathieu Desjardins. All rights reserved.
</metadata>
<defs>
<font id="PPNeueMachina-PlainRegular" horiz-adv-x="0" >
  <font-face 
    font-family="PP Neue Machina Plain"
    font-weight="400"
    font-stretch="normal"
    units-per-em="2048"
    panose-1="0 0 0 0 0 0 0 0 0 0"
    ascent="1638"
    descent="-410"
    x-height="1018"
    cap-height="1444"
    bbox="-127 -528 3238 2019"
    underline-thickness="102"
    underline-position="-307"
    unicode-range="U+0020-FB02"
  />
<missing-glyph horiz-adv-x="952" 
d="M780 1516v-1905h-604v1905h604zM317 -258h318v63h-195l133 91h62v61h-318v-61h134l-134 -91v-63zM317 2h318v215h-318v-215zM317 332h318v215h-191v-107h64v43h63v-90h-190v154h-64v-215zM317 588h318v190h-64v-125h-254v-65zM317 696h191v133h127v64h-318v-64h127v-69
h-127v-64zM317 944h318v66h-127v133h-191v-199zM317 1192h318v63h-127v70h127v64h-316v-64h125v-70h-127v-63zM381 63v91h190v-91h-190zM381 1010v67h63v-67h-63z" />
    <glyph glyph-name="fi" unicode="fi" horiz-adv-x="1591" 
d="M657 1350q-93 0 -130.5 -51t-37.5 -154v-127h617q72 0 104.5 -33.5t32.5 -107.5v-721h283v-156h-1440v156h223v706h-223v156h223v129q0 169 87.5 263.5t269.5 94.5h456v-155h-465zM489 156h572v706h-572v-706z" />
    <glyph glyph-name="fl" unicode="fl" horiz-adv-x="1570" 
d="M86 862v156h221v147q0 161 88 250.5t271 89.5h446q107 0 107 -102v-1247h286v-156h-1419v156h221v706h-221zM489 156h549v1194h-381q-94 0 -131 -44.5t-37 -144.5v-143h295v-156h-295v-706z" />
    <glyph glyph-name="f_f" unicode="ff" horiz-adv-x="1589" 
d="M86 862v156h236v45q0 358 356 358h424q90 84 264 84h176v-155h-184q-94 0 -131 -44.5t-37 -144.5v-143h295v-156h-295v-706h295v-156h-1399v156h236v706h-236zM502 156h506v706h-506v-706zM502 1018h506v147q0 50 10 105h-340q-100 0 -138 -49t-38 -162v-41z" />
    <glyph glyph-name="f_f_i" unicode="ffi" horiz-adv-x="2291" 
d="M86 862v156h236v45q0 358 356 358h430q90 84 258 84h457v-155h-465q-93 0 -130.5 -51t-37.5 -154v-127h616q72 0 105 -33.5t33 -107.5v-721h282v-156h-2140v156h236v706h-236zM502 156h508v706h-508v-706zM502 1018h508v129q0 71 14 123h-346q-100 0 -138 -49t-38 -162
v-41zM1190 156h571v706h-571v-706z" />
    <glyph glyph-name=".notdef" horiz-adv-x="952" 
d="M780 1516v-1905h-604v1905h604zM317 -258h318v63h-195l133 91h62v61h-318v-61h134l-134 -91v-63zM317 2h318v215h-318v-215zM317 332h318v215h-191v-107h64v43h63v-90h-190v154h-64v-215zM317 588h318v190h-64v-125h-254v-65zM317 696h191v133h127v64h-318v-64h127v-69
h-127v-64zM317 944h318v66h-127v133h-191v-199zM317 1192h318v63h-127v70h127v64h-316v-64h125v-70h-127v-63zM381 63v91h190v-91h-190zM381 1010v67h63v-67h-63z" />
    <glyph glyph-name=".null" 
 />
    <glyph glyph-name="nonmarkingreturn" horiz-adv-x="682" 
 />
    <glyph glyph-name="space" unicode=" " horiz-adv-x="669" 
 />
    <glyph glyph-name="space" unicode="&#xa0;" horiz-adv-x="669" 
 />
    <glyph glyph-name="exclam" unicode="!" horiz-adv-x="686" 
d="M342 -20q-74 0 -124 50.5t-50 123.5q0 72 50 122t124 50t125 -50t51 -122t-51.5 -123t-124.5 -51zM254 1444h180l-22 -940h-136z" />
    <glyph glyph-name="quotedbl" unicode="&#x22;" horiz-adv-x="774" 
d="M162 1526h168v-533h-168v533zM444 993v533h168v-533h-168z" />
    <glyph glyph-name="numbersign" unicode="#" horiz-adv-x="2222" 
d="M369 1020h499l254 555l140 -62l-228 -493h510l254 555l139 -62l-227 -493h342v-137h-403l-219 -477h423v-138h-487l-266 -581l-139 63l237 518h-508l-266 -581l-139 63l237 518h-354v138h418l219 477h-436v137zM754 406h508l219 477h-508z" />
    <glyph glyph-name="dollar" unicode="$" horiz-adv-x="1419" 
d="M1325 385q0 -405 -547 -408v-280h-127v287q-269 26 -409 169t-140 390h189q0 -353 360 -400v537l-159 41q-322 84 -322 362q0 181 123.5 279t357.5 104v281h127v-285q245 -22 374.5 -150.5t129.5 -344.5h-190q0 300 -314 338v-486l199 -49q173 -44 260.5 -142.5
t87.5 -242.5zM358 1092q0 -165 220 -222l73 -18v459q-293 -12 -293 -219zM778 135q184 0 271.5 59.5t87.5 180.5q0 179 -242 241l-117 31v-512z" />
    <glyph glyph-name="percent" unicode="%" horiz-adv-x="2320" 
d="M489 592q-188 0 -308 123.5t-120 302.5t120 302.5t308 123.5q189 0 309 -123.5t120 -302.5t-120 -302.5t-309 -123.5zM207 1018q0 -116 80 -198.5t202 -82.5q123 0 203 82t80 199t-79.5 198.5t-203.5 81.5q-122 0 -202 -82t-80 -198zM731 37l729 1417l131 -61l-731 -1418
zM1403 410q0 179 120 302.5t308 123.5q189 0 308.5 -123.5t119.5 -302.5t-119.5 -302.5t-308.5 -123.5q-188 0 -308 123.5t-120 302.5zM1548 410q0 -116 80.5 -198.5t202.5 -82.5q123 0 203 82t80 199t-79.5 198.5t-203.5 81.5q-122 0 -202.5 -82t-80.5 -198z" />
    <glyph glyph-name="ampersand" unicode="&#x26;" horiz-adv-x="1824" 
d="M106 485q0 221 124 349.5t319 128.5q143 0 242 -70l-353 448l-2 103h1082v-156h-824l676 -860q137 228 137 576h183q0 -440 -207 -719l250 -318l-142 -96l-225 287q-237 -207 -600 -207q-190 0 -339 63.5t-235 185.5t-86 285zM289 498q0 -180 131.5 -286t349.5 -106
q302 0 494 183l-263 334q-89 115 -174.5 161.5t-205.5 46.5q-152 0 -242 -87t-90 -246z" />
    <glyph glyph-name="quotesingle" unicode="'" horiz-adv-x="491" 
d="M162 1526h168v-533h-168v533z" />
    <glyph glyph-name="parenleft" unicode="(" horiz-adv-x="884" 
d="M717 -246q-146 30 -253 107.5t-171 193.5t-94.5 259t-30.5 317t30.5 317t94.5 258.5t171 192t253 106.5v-147q-204 -52 -295.5 -236.5t-91.5 -490.5t91.5 -491.5t295.5 -237.5v-148z" />
    <glyph glyph-name="parenright" unicode=")" horiz-adv-x="884" 
d="M168 1505q146 -30 253 -107t171 -193.5t94.5 -259t30.5 -316.5q0 -139 -19 -257.5t-60.5 -222.5t-104.5 -182.5t-155.5 -133.5t-209.5 -79v148q204 52 295.5 236.5t91.5 490.5t-91.5 491.5t-295.5 237.5v147z" />
    <glyph glyph-name="asterisk" unicode="*" horiz-adv-x="1040" 
d="M127 1169l41 134l235 -78l76 -54l-26 89v245h137v-245l-27 -91l74 54l235 73l41 -129l-235 -75l-90 -5l71 -51l146 -198l-113 -82l-143 200l-31 86l-31 -86l-145 -198l-109 80l144 198l74 56l-89 2z" />
    <glyph glyph-name="plus" unicode="+" horiz-adv-x="1325" 
d="M168 592h420v420h147v-420h420v-148h-420v-419h-147v419h-420v148z" />
    <glyph glyph-name="comma" unicode="," horiz-adv-x="575" 
d="M246 338l164 -45l-164 -604l-164 45z" />
    <glyph glyph-name="hyphen" unicode="-" horiz-adv-x="1325" 
d="M168 592h987v-148h-987v148z" />
    <glyph glyph-name="period" unicode="." horiz-adv-x="686" 
d="M342 -20q-74 0 -124 50.5t-50 123.5q0 72 50 122t124 50t125 -50t51 -122t-51.5 -123t-124.5 -51z" />
    <glyph glyph-name="slash" unicode="/" horiz-adv-x="1021" 
d="M860 1657l139 -62l-835 -1826l-139 63z" />
    <glyph glyph-name="zero" unicode="0" horiz-adv-x="1488" 
d="M745 -23q-200 0 -343 98t-213 264.5t-70 383.5q0 216 70 382t213 263.5t343 97.5q150 0 269.5 -56t196.5 -156t118 -235t41 -296t-41 -297t-118 -236.5t-196.5 -156.5t-269.5 -56zM305 723q0 -197 62 -336l667 807q-113 113 -289 113q-214 0 -327 -159t-113 -425z
M455 254q111 -117 290 -117q214 0 326.5 158.5t112.5 427.5q0 192 -60 334z" />
    <glyph glyph-name="one" unicode="1" horiz-adv-x="1003" 
d="M102 809q422 149 435 635h309v-1444h-187v1343q-9 -98 -27.5 -179t-55.5 -163.5t-90 -146t-136 -117t-190 -86.5z" />
    <glyph glyph-name="two" unicode="2" horiz-adv-x="1376" 
d="M106 752q0 152 31.5 273t87 202.5t135 136t171 78.5t198.5 24q240 0 383 -127.5t143 -361.5q0 -134 -53 -251.5t-146 -206.5t-223.5 -161t-281 -120t-324.5 -78h1028v-160h-1128v297q54 4 124.5 17.5t162 40.5t180.5 63.5t176 92t152.5 121.5t106 155.5t40.5 189.5
q0 159 -87 244.5t-253 85.5q-438 0 -438 -555h-185z" />
    <glyph glyph-name="three" unicode="3" horiz-adv-x="1388" 
d="M299 551q0 -222 101.5 -318t310.5 -96q370 0 370 293q0 119 -71.5 185.5t-198.5 66.5h-201v154h201q123 0 186.5 56.5t63.5 154.5q0 122 -85 191t-269 69q-198 0 -293 -83.5t-95 -254.5h-184q0 245 150.5 371t431.5 126q254 0 391 -104t137 -279q0 -120 -64 -208.5
t-180 -114.5q119 -31 192 -121.5t73 -232.5q0 -205 -144.5 -317t-404.5 -112q-289 0 -445.5 139.5t-156.5 434.5h184z" />
    <glyph glyph-name="four" unicode="4" horiz-adv-x="1363" 
d="M891 975h184v-506h182v-158h-182v-311h-184v311h-768v303q260 106 435.5 323t205.5 507h184q-83 -677 -755 -975h698v506z" />
    <glyph glyph-name="five" unicode="5" horiz-adv-x="1449" 
d="M717 -23q-178 0 -310.5 60t-208 182t-75.5 293h182q0 -183 108.5 -281t305.5 -98q201 0 311.5 103.5t110.5 289.5q0 170 -99.5 261.5t-281.5 91.5q-269 0 -395 -177l-203 103l106 639h951v-156h-799l-80 -489q145 229 473 229q240 0 375 -132t135 -366
q0 -258 -161.5 -405.5t-444.5 -147.5z" />
    <glyph glyph-name="six" unicode="6" horiz-adv-x="1415" 
d="M735 -23q-290 0 -450 176t-160 511q0 138 19 250t67 213t125 169t198.5 108t282.5 40h377v-160h-393q-461 0 -508 -522q57 124 180 193t301 69q238 0 382 -142t144 -364q0 -246 -151 -393.5t-414 -147.5zM311 514q0 -158 110 -267.5t306 -109.5q186 0 286.5 98.5
t100.5 276.5q0 164 -102 262t-279 98q-193 0 -307.5 -97.5t-114.5 -260.5z" />
    <glyph glyph-name="seven" unicode="7" horiz-adv-x="1204" 
d="M295 0q0 466 194 779.5t580 504.5h-999v160h1067v-252q-326 -165 -487 -458t-161 -734h-194z" />
    <glyph glyph-name="eight" unicode="8" horiz-adv-x="1376" 
d="M688 -23q-279 0 -436.5 114.5t-157.5 318.5q0 144 88 244t250 141q-120 36 -188 117.5t-68 197.5q0 94 40 164t111.5 110.5t162 60t200.5 19.5q87 0 162 -12t140.5 -38.5t111 -67t72 -100.5t26.5 -136q0 -116 -69 -198.5t-189 -116.5q160 -42 250 -142.5t90 -244.5
q0 -202 -158 -316.5t-438 -114.5zM283 426q0 -137 100.5 -214t306.5 -77q203 0 304.5 77t101.5 214q0 135 -101.5 213t-304.5 78q-205 0 -306 -77.5t-101 -213.5zM365 1090q0 -121 81 -171.5t244 -50.5q161 0 242.5 50.5t81.5 171.5q0 119 -82 170t-242 51
q-163 0 -244 -50.5t-81 -170.5z" />
    <glyph glyph-name="nine" unicode="9" horiz-adv-x="1415" 
d="M680 1466q290 0 450 -175.5t160 -510.5q0 -138 -19 -250t-67 -213t-125 -169t-198.5 -108t-282.5 -40h-377v160h393q461 0 508 522q-57 -124 -180 -193t-301 -69q-238 0 -382 142t-144 364q0 246 151 393t414 147zM301 932q0 -164 102 -262.5t279 -98.5q193 0 307.5 98
t114.5 261q0 158 -110 267.5t-306 109.5q-186 0 -286.5 -98.5t-100.5 -276.5z" />
    <glyph glyph-name="colon" unicode=":" horiz-adv-x="686" 
d="M342 -20q-74 0 -124 50.5t-50 123.5q0 72 50 122t124 50t125 -50t51 -122t-51.5 -123t-124.5 -51zM168 858q0 72 50 122t124 50t125 -50t51 -122t-51.5 -123t-124.5 -51q-74 0 -124 50.5t-50 123.5z" />
    <glyph glyph-name="semicolon" unicode=";" horiz-adv-x="575" 
d="M246 338l164 -45l-164 -604l-164 45zM168 858q0 72 50 122t124 50t125 -50t51 -122t-51.5 -123t-124.5 -51q-74 0 -124 50.5t-50 123.5z" />
    <glyph glyph-name="less" unicode="&#x3c;" horiz-adv-x="1327" 
d="M168 592l934 326l57 -142l-809 -268l809 -279l-57 -139l-934 334v168z" />
    <glyph glyph-name="equal" unicode="=" horiz-adv-x="1325" 
d="M168 801h987v-146h-987v146zM168 236v147h987v-147h-987z" />
    <glyph glyph-name="greater" unicode="&#x3e;" horiz-adv-x="1327" 
d="M1159 428l-934 -326l-57 142l809 268l-809 279l57 139l934 -334v-168z" />
    <glyph glyph-name="question" unicode="?" horiz-adv-x="917" 
d="M459 -20q-74 0 -124 50.5t-50 123.5q0 72 49.5 122t124.5 50q74 0 125 -50t51 -122t-51.5 -123t-124.5 -51zM18 1047q0 199 120.5 316.5t348.5 117.5q199 0 304.5 -94t105.5 -242q0 -105 -48 -191t-135 -147t-200 -102t-252 -64h502v-131h-610v240q70 4 141.5 17
t153 41.5t144 69.5t103.5 106.5t41 145.5q0 100 -67 160t-187 60q-150 0 -227.5 -78.5t-77.5 -224.5h-160z" />
    <glyph glyph-name="at" unicode="@" horiz-adv-x="2134" 
d="M1116 -324q-472 0 -744 242.5t-272 656.5q0 205 69 375.5t194 289.5t304.5 185t395.5 66q275 0 483 -104.5t321 -298t113 -449.5q0 -264 -117 -425t-311 -161h-59q-51 0 -82 29t-31 78v168q-47 -126 -160.5 -196.5t-261.5 -70.5q-202 0 -327 139.5t-125 370.5
q0 229 125 368.5t327 139.5q151 0 264.5 -71t157.5 -195v246h158v-875h39q114 0 184 122.5t70 316.5q0 336 -210 534.5t-558 198.5q-182 0 -334 -56.5t-257.5 -158.5t-163.5 -247.5t-58 -318.5q0 -351 230 -559.5t636 -208.5h715v-131h-715zM676 571q0 -169 93 -267.5
t255 -98.5t258 98.5t96 267.5t-96 267t-258 98q-163 0 -255.5 -97.5t-92.5 -267.5z" />
    <glyph glyph-name="A" unicode="A" horiz-adv-x="1429" 
d="M55 0l494 1444h334l491 -1444h-194l-187 553h-557l-188 -553h-193zM489 713h449l-223 661z" />
    <glyph glyph-name="B" unicode="B" horiz-adv-x="1415" 
d="M147 0v1444h488q112 0 195.5 -9.5t154.5 -33t115.5 -63t69 -101t24.5 -145.5q0 -137 -73.5 -222.5t-182.5 -107.5q166 -18 264 -113.5t98 -263.5q0 -87 -26.5 -153t-75 -110t-121.5 -71.5t-159.5 -39t-196.5 -11.5h-574zM334 156h393q79 0 134 5.5t106 22t81.5 45t48 75
t17.5 112.5q0 148 -96.5 205t-290.5 57h-393v-522zM334 825h309q74 0 125.5 5t100 19t77.5 39.5t46.5 68t17.5 102.5q0 46 -9 81.5t-23.5 60.5t-41 42t-53 26.5t-69 14.5t-79 6.5t-92.5 1.5h-309v-467z" />
    <glyph glyph-name="C" unicode="C" horiz-adv-x="1581" 
d="M803 -23q-158 0 -288 57t-216 157t-133 236.5t-47 295.5q0 158 47 294t133 235.5t216 156.5t288 57q278 0 452.5 -154.5t206.5 -424.5h-186q-25 200 -147 309t-326 109q-238 0 -367 -159t-129 -423q0 -174 55 -304t168.5 -205t272.5 -75q204 0 326 110t147 310h186
q-32 -272 -206.5 -427t-452.5 -155z" />
    <glyph glyph-name="D" unicode="D" horiz-adv-x="1462" 
d="M147 0v1444h465q83 0 153 -7t147 -27.5t138 -53.5t117 -88.5t93.5 -129.5t60 -179.5t22.5 -235.5t-22.5 -236t-60 -180t-93.5 -130t-117 -89t-138 -53.5t-147 -27.5t-153 -7h-465zM334 160h278q63 0 111.5 3.5t108 17t103 36.5t88 65.5t72 100.5t45 144.5t17.5 195.5
q0 85 -10.5 156t-28.5 124.5t-46 96t-58 71.5t-70.5 50t-77 33t-83.5 19t-85 9t-86 2h-278v-1124z" />
    <glyph glyph-name="E" unicode="E" horiz-adv-x="1257" 
d="M147 0v1444h1004v-160h-817v-483h715v-156h-715v-485h817v-160h-1004z" />
    <glyph glyph-name="F" unicode="F" horiz-adv-x="1210" 
d="M147 0v1444h959v-160h-772v-518h682v-158h-682v-608h-187z" />
    <glyph glyph-name="G" unicode="G" horiz-adv-x="1626" 
d="M768 -23q-160 0 -285.5 55.5t-204 155t-119 231.5t-40.5 290q0 228 80.5 398t236.5 264.5t371 94.5q262 0 430 -143.5t203 -394.5h-189q-25 181 -139 280t-299 99q-243 0 -374.5 -163t-131.5 -439q0 -121 27.5 -220.5t85 -179t155.5 -124t230 -44.5q238 0 360 127.5
t115 368.5h-559v143h620q129 0 129 -121v-655h-186v289q-14 -41 -36.5 -80.5t-65 -83t-97.5 -75t-137 -52.5t-180 -21z" />
    <glyph glyph-name="H" unicode="H" horiz-adv-x="1490" 
d="M147 1444h187v-651h823v651h186v-1444h-186v631h-823v-631h-187v1444z" />
    <glyph glyph-name="I" unicode="I" horiz-adv-x="1081" 
d="M125 1444h831v-160h-323v-1124h323v-160h-831v160h324v1124h-324v160z" />
    <glyph glyph-name="J" unicode="J" horiz-adv-x="1112" 
d="M578 0h-510v160h467q146 0 207 87t61 259v778h-529v160h572q78 0 109.5 -29.5t31.5 -103.5v-856q0 -221 -105 -338t-304 -117z" />
    <glyph glyph-name="K" unicode="K" horiz-adv-x="1353" 
d="M147 0v1444h187v-637l700 637h248l-778 -705l784 -739h-260l-694 653v-653h-187z" />
    <glyph glyph-name="L" unicode="L" horiz-adv-x="1120" 
d="M276 0q-62 0 -95.5 33t-33.5 96v1315h187v-1284h723v-160h-781z" />
    <glyph glyph-name="M" unicode="M" horiz-adv-x="1857" 
d="M147 0v1444h347l438 -1376l438 1376h340v-1444h-186v1368l-445 -1368h-299l-446 1368v-1368h-187z" />
    <glyph glyph-name="N" unicode="N" horiz-adv-x="1560" 
d="M147 0v1444h345l737 -1378v1378h184v-1444h-344l-735 1378v-1378h-187z" />
    <glyph glyph-name="O" unicode="O" horiz-adv-x="1599" 
d="M119 723q0 158 47 294t133 235.5t215.5 156.5t286.5 57t286 -57t215 -156.5t132.5 -235.5t46.5 -294q0 -159 -46.5 -295.5t-132.5 -236.5t-215 -157t-286 -57t-286.5 57t-215.5 157t-133 236.5t-47 295.5zM307 723q0 -173 53.5 -302.5t166 -205.5t274.5 -76t274.5 76
t165.5 205.5t53 302.5q0 172 -53 301t-165.5 205t-274.5 76q-122 0 -217 -43t-155 -121.5t-91 -184t-31 -233.5z" />
    <glyph glyph-name="P" unicode="P" horiz-adv-x="1269" 
d="M147 0v1444h420q150 0 257.5 -23.5t187 -77.5t118.5 -147t39 -229t-39 -230t-118.5 -148.5t-187 -78t-257.5 -23.5h-233v-487h-187zM334 647h239q78 0 136 7t112 28t88.5 55.5t55 92.5t20.5 137t-20.5 136t-55 91.5t-88.5 55t-112 27.5t-136 7h-239v-637z" />
    <glyph glyph-name="Q" unicode="Q" horiz-adv-x="1585" 
d="M1538 -328q-309 63 -564 73.5t-591 -34.5l-16 150q8 1 76 11.5t88 14t83.5 15t93.5 19.5t86 23.5t92 30.5t81 36.5t82 45.5q-141 -59 -301 -59q-181 0 -325.5 95.5t-224 262t-79.5 371.5q0 159 47.5 295t134.5 234.5t216.5 154t287.5 55.5q207 0 362.5 -97t236.5 -265.5
t81 -382.5q0 -133 -29.5 -250t-79.5 -204.5t-120 -160t-145.5 -122t-162.5 -84.5q231 0 590 -70v-158zM307 729q0 -257 133.5 -415t362.5 -158q234 0 363.5 149.5t129.5 417.5q0 263 -131 422.5t-362 159.5q-232 0 -364 -156.5t-132 -419.5z" />
    <glyph glyph-name="R" unicode="R" horiz-adv-x="1384" 
d="M147 0v1444h535q107 0 189 -10.5t154.5 -37t119 -70.5t73.5 -113.5t27 -163.5q0 -301 -252 -365h107q147 0 147 -152v-532h-184v571h-729v-571h-187zM334 731h348q78 0 129.5 4.5t103.5 21t81 46t47 80.5t18 125q0 54 -9.5 96t-24.5 71t-42.5 49t-55 32t-71 18t-82 8
t-94.5 2h-348v-553z" />
    <glyph glyph-name="S" unicode="S" horiz-adv-x="1396" 
d="M1311 385q0 -408 -553 -408q-327 0 -498.5 146.5t-171.5 419.5h188q0 -408 486 -408q186 0 273 59.5t87 180.5q0 179 -241 241l-404 105q-321 83 -321 362q0 187 131.5 285t380.5 98q291 0 445.5 -131.5t154.5 -367.5h-191q0 344 -409 344q-324 0 -324 -219
q0 -165 219 -222l400 -100q173 -44 260.5 -142.5t87.5 -242.5z" />
    <glyph glyph-name="T" unicode="T" horiz-adv-x="1351" 
d="M86 1444h1180v-160h-496v-1284h-186v1284h-498v160z" />
    <glyph glyph-name="U" unicode="U" horiz-adv-x="1380" 
d="M109 537v907h186v-869q0 -112 19 -190.5t64 -135t121.5 -83.5t188.5 -27q219 0 308 105.5t89 330.5v869h187v-907q0 -274 -145 -417t-439 -143q-579 0 -579 560z" />
    <glyph glyph-name="V" unicode="V" horiz-adv-x="1429" 
d="M547 0l-492 1444h193l467 -1372l467 1372h192l-493 -1444h-334z" />
    <glyph glyph-name="W" unicode="W" horiz-adv-x="1906" 
d="M1864 1444l-285 -1444h-332l-293 1374l-290 -1374h-334l-285 1444h184l256 -1249l21 -117l289 1366h319l291 -1366l20 117l252 1249h187z" />
    <glyph glyph-name="X" unicode="X" horiz-adv-x="1398" 
d="M1350 0h-211l-439 637l-440 -637h-211l502 723l-502 721h211l440 -633l439 633h211l-504 -721z" />
    <glyph glyph-name="Y" unicode="Y" horiz-adv-x="1361" 
d="M1100 1444h198l-462 -836h-64v-608h-184v608h-62l-463 836h197l420 -776z" />
    <glyph glyph-name="Z" unicode="Z" horiz-adv-x="1341" 
d="M109 0v326l1065 958h-1065v160h1126v-328l-1067 -956h1067v-160h-1126z" />
    <glyph glyph-name="bracketleft" unicode="[" horiz-adv-x="888" 
d="M168 1505h551v-137h-389v-1477h389v-137h-551v1751z" />
    <glyph glyph-name="backslash" unicode="\" horiz-adv-x="1021" 
d="M162 1657l837 -1825l-139 -63l-837 1826z" />
    <glyph glyph-name="bracketright" unicode="]" horiz-adv-x="888" 
d="M721 -246h-551v137h389v1477h-389v137h551v-1751z" />
    <glyph glyph-name="asciicircum" unicode="^" horiz-adv-x="1120" 
d="M784 780l-198 613h-51l-201 -613h-166l229 664h328l227 -664h-168z" />
    <glyph glyph-name="underscore" unicode="_" horiz-adv-x="1243" 
d="M127 -88h987v-148h-987v148z" />
    <glyph glyph-name="grave" unicode="`" horiz-adv-x="1013" 
d="M846 1319l-35 -139l-643 163l35 140z" />
    <glyph glyph-name="a" unicode="a" horiz-adv-x="1220" 
d="M102 283q0 265 340 297l400 38q-6 139 -72 206t-203 67q-112 0 -181.5 -57t-80.5 -179h-180q18 177 134 280t312 103q217 0 335 -123t118 -333v-426h150v-156h-187q-59 0 -91 32t-32 91v129q-19 -57 -50.5 -103.5t-81 -85.5t-122.5 -61t-164 -22q-85 0 -150 22t-100.5 54
t-58 75.5t-29 79t-6.5 72.5zM283 305q0 -86 51 -131t141 -45q164 0 265.5 102t101.5 258l-369 -38q-98 -9 -144 -42t-46 -104z" />
    <glyph glyph-name="b" unicode="b" horiz-adv-x="1343" 
d="M143 0v1505h183v-733q54 122 164 194t272 72q217 0 347 -146.5t130 -381.5t-130 -382.5t-347 -147.5q-159 0 -269.5 72t-166.5 198v-250h-183zM330 510q0 -180 106.5 -277.5t265.5 -97.5q158 0 257.5 95.5t99.5 279.5t-99.5 278.5t-257.5 94.5q-102 0 -185 -40.5
t-135 -127t-52 -205.5z" />
    <glyph glyph-name="c" unicode="c" horiz-adv-x="1208" 
d="M102 510q0 229 141 378.5t382 149.5q64 0 126.5 -14t124 -45.5t109.5 -77.5t81 -116.5t40 -155.5h-182q-21 132 -100.5 193t-198.5 61q-165 0 -253.5 -105.5t-88.5 -267.5q0 -106 37 -189t115.5 -134.5t189.5 -51.5q119 0 198.5 61t100.5 193h182q-7 -85 -40 -155.5
t-81 -116.5t-109.5 -77.5t-124 -45.5t-126.5 -14q-241 0 -382 149.5t-141 380.5z" />
    <glyph glyph-name="d" unicode="d" horiz-adv-x="1343" 
d="M580 -20q-216 0 -347 148t-131 382t131 381t347 147q163 0 273.5 -73.5t164.5 -198.5v739h180v-1505h-180v252q-55 -127 -165.5 -199.5t-272.5 -72.5zM285 510q0 -183 99 -279t255 -96q102 0 185 40.5t135.5 127.5t52.5 207q0 119 -52.5 205.5t-135.5 127t-185 40.5
q-156 0 -255 -95.5t-99 -277.5z" />
    <glyph glyph-name="e" unicode="e" horiz-adv-x="1191" 
d="M102 522q0 244 133 380t355 136q228 0 362.5 -131.5t134.5 -365.5v-66h-808q5 -157 87 -253.5t234 -96.5q127 0 205.5 61t105.5 170h181q-16 -75 -50.5 -139t-91.5 -119t-146 -86.5t-202 -31.5q-121 0 -217.5 42t-157.5 116t-93 172t-32 212zM281 604h628q-9 137 -95 214
t-224 77q-128 0 -213.5 -77.5t-95.5 -213.5z" />
    <glyph glyph-name="f" unicode="f" horiz-adv-x="888" 
d="M86 862v156h221v147q0 161 88 250.5t271 89.5h176v-155h-185q-94 0 -131 -44.5t-37 -144.5v-143h295v-156h-295v-706h295v-156h-698v156h221v706h-221z" />
    <glyph glyph-name="g" unicode="g" horiz-adv-x="1343" 
d="M580 -20q-216 0 -347 148t-131 382t131 381t347 147q163 0 273.5 -73.5t164.5 -198.5v252h180v-1292q0 -125 -141 -125h-778v155h737v244h2v252q-55 -127 -165.5 -199.5t-272.5 -72.5zM285 510q0 -184 98.5 -279.5t255.5 -95.5q160 0 266.5 97.5t106.5 277.5
q0 120 -52 206t-135 126.5t-186 40.5q-158 0 -256 -94.5t-98 -278.5z" />
    <glyph glyph-name="h" unicode="h" horiz-adv-x="1243" 
d="M143 0v1505h183v-764q42 140 149.5 218.5t272.5 78.5q176 0 274 -111t98 -315v-612h-182v592q0 155 -61 223t-193 68q-165 0 -261.5 -122.5t-96.5 -328.5v-432h-183z" />
    <glyph glyph-name="i" unicode="i" horiz-adv-x="907" 
d="M106 0v156h283v706h-211v156h264q115 0 115 -119v-743h285v-156h-736zM307 1329q0 59 41.5 98t102.5 39q62 0 104.5 -39t42.5 -98t-42.5 -98t-104.5 -39q-61 0 -102.5 39t-41.5 98z" />
    <glyph glyph-name="j" unicode="j" horiz-adv-x="622" 
d="M256 -59q24 43 31.5 76.5t7.5 86.5v758h-215v156h266q64 0 96.5 -27.5t32.5 -89.5v-829q0 -51 -8 -84.5t-31 -77.5l-155 -299h-197zM219 1329q0 59 41 98t102 39q62 0 105 -39t43 -98t-43 -98t-105 -39q-61 0 -102 39t-41 98z" />
    <glyph glyph-name="k" unicode="k" horiz-adv-x="1118" 
d="M143 0v1505h183v-913l489 426h238l-561 -494l557 -524h-234l-489 459v-459h-183z" />
    <glyph glyph-name="l" unicode="l" horiz-adv-x="903" 
d="M86 0v156h285v1194h-213v155h288q107 0 107 -102v-1247h285v-156h-752z" />
    <glyph glyph-name="m" unicode="m" horiz-adv-x="1849" 
d="M143 0v1018h183v-256q42 124 134 200t234 76q126 0 202 -71.5t103 -202.5q45 123 141.5 198.5t243.5 75.5q170 0 256 -115.5t86 -324.5v-598h-182v575q0 154 -46.5 231t-156.5 77q-156 0 -235.5 -124.5t-79.5 -336.5v-422h-182v575q0 154 -46.5 231t-156.5 77
q-156 0 -235.5 -124.5t-79.5 -336.5v-422h-183z" />
    <glyph glyph-name="n" unicode="n" horiz-adv-x="1243" 
d="M143 0v1018h183v-277q42 140 149.5 218.5t272.5 78.5q176 0 274 -111t98 -315v-612h-182v592q0 155 -61 223t-193 68q-165 0 -261.5 -122.5t-96.5 -328.5v-432h-183z" />
    <glyph glyph-name="o" unicode="o" horiz-adv-x="1284" 
d="M102 510q0 229 150 378.5t391 149.5q240 0 389.5 -149.5t149.5 -378.5q0 -230 -149.5 -380t-389.5 -150q-120 0 -221.5 40.5t-171.5 111t-109 168t-39 210.5zM283 510q0 -162 95.5 -268.5t264.5 -106.5q167 0 262.5 106.5t95.5 268.5q0 160 -95.5 266.5t-262.5 106.5
q-169 0 -264.5 -106.5t-95.5 -266.5z" />
    <glyph glyph-name="p" unicode="p" horiz-adv-x="1341" 
d="M143 -381v1399h183v-248q56 125 166.5 196.5t269.5 71.5q217 0 347 -147t130 -383q0 -235 -130 -381.5t-347 -146.5q-162 0 -272 72.5t-164 195.5v-629h-183zM330 508q0 -119 52 -205.5t135 -127t185 -40.5t181 39.5t127.5 125t48.5 208.5q0 184 -99.5 279.5t-257.5 95.5
q-159 0 -265.5 -97.5t-106.5 -277.5z" />
    <glyph glyph-name="q" unicode="q" horiz-adv-x="1341" 
d="M1196 1018v-1399h-180v633q-54 -125 -164 -198.5t-272 -73.5q-217 0 -347.5 147t-130.5 381q0 236 130 383t348 147q160 0 270.5 -72.5t165.5 -199.5v252h180zM283 508q0 -183 98.5 -278t257.5 -95q102 0 184.5 40.5t134.5 126.5t52 206q0 180 -106 277.5t-265 97.5
t-257.5 -95.5t-98.5 -279.5z" />
    <glyph glyph-name="r" unicode="r" horiz-adv-x="913" 
d="M145 877q0 141 144 141h575v-156h-536v-862h-183v877z" />
    <glyph glyph-name="s" unicode="s" horiz-adv-x="1036" 
d="M565 -20q-228 0 -353.5 103t-125.5 292h182q0 -124 78 -188t221 -64q109 0 163 36t54 113q0 53 -35 85.5t-114 54.5l-273 80q-235 67 -235 268q0 133 103 205.5t286 72.5q199 0 312.5 -89t113.5 -253h-182q0 93 -63 147t-179 54q-96 0 -153.5 -37.5t-57.5 -95.5
q0 -50 35 -82.5t111 -54.5l237 -68q136 -39 206.5 -108t70.5 -183q0 -139 -103 -213.5t-299 -74.5z" />
    <glyph glyph-name="t" unicode="t" horiz-adv-x="899" 
d="M813 156v-156h-399q-144 0 -144 143v719h-225v156h225v258l183 55v-313h319v-156h-319v-708z" />
    <glyph glyph-name="u" unicode="u" horiz-adv-x="1243" 
d="M498 -20q-178 0 -276.5 111.5t-98.5 316.5v610h184v-592q0 -155 60 -223t192 -68q167 0 264 122.5t97 328.5v432h180v-1018h-180v279q-42 -141 -150 -220t-272 -79z" />
    <glyph glyph-name="v" unicode="v" horiz-adv-x="1114" 
d="M893 1018h180l-356 -1018h-314l-362 1018h184l336 -955z" />
    <glyph glyph-name="w" unicode="w" horiz-adv-x="1798" 
d="M72 1018h172l235 -825l29 -113l233 938h314l235 -930l27 105l233 825h174l-282 -1018h-307l-236 952l-233 -952h-318z" />
    <glyph glyph-name="x" unicode="x" horiz-adv-x="1165" 
d="M66 0l372 512l-372 506h206l310 -430l309 430h207l-371 -506l371 -512h-207l-309 430l-310 -430h-206z" />
    <glyph glyph-name="y" unicode="y" horiz-adv-x="1230" 
d="M1108 1018v-1292q0 -125 -141 -125h-779v155h738v520q-42 -140 -149.5 -218t-272.5 -78q-176 0 -274.5 111t-98.5 315v612h182v-592q0 -155 61 -223t193 -68q165 0 262 122.5t97 328.5v432h182z" />
    <glyph glyph-name="z" unicode="z" horiz-adv-x="1095" 
d="M104 0v289l824 588h-824v141h887v-287l-823 -586h823v-145h-887z" />
    <glyph glyph-name="braceleft" unicode="{" horiz-adv-x="970" 
d="M168 637q176 19 251 95t75 200q0 126 -65 213t-171 102v197h545v-121h-465q150 -44 225.5 -149t75.5 -242q0 -142 -79 -239t-230 -126q151 -29 230 -126.5t79 -239.5q0 -138 -75 -241t-226 -146h465v-121h-545v196q107 17 171.5 102t64.5 210q0 124 -75.5 200t-250.5 97
v139z" />
    <glyph glyph-name="bar" unicode="|" horiz-adv-x="483" 
d="M168 1747h147v-2050h-147v2050z" />
    <glyph glyph-name="braceright" unicode="}" horiz-adv-x="970" 
d="M803 500q-176 -19 -251 -95t-75 -200q0 -126 65 -213.5t171 -102.5v-196h-545v121h465q-150 44 -225.5 149t-75.5 242q0 142 79 238.5t230 125.5q-151 28 -230 126.5t-79 240.5q0 138 75 241t226 146h-465v121h545v-197q-107 -17 -171.5 -102t-64.5 -209t75.5 -200
t250.5 -97v-139z" />
    <glyph glyph-name="asciitilde" unicode="~" horiz-adv-x="1318" 
d="M168 379q0 147 73 221t173 74q54 0 110.5 -17t102.5 -41t90.5 -48t90 -41t85.5 -17q111 0 111 147h147q0 -76 -21.5 -134t-57.5 -91.5t-79 -50t-90 -16.5q-54 0 -110 16.5t-102 40.5t-90 47.5t-89.5 40t-85.5 16.5q-111 0 -111 -147h-147z" />
    <glyph glyph-name="exclamdown" unicode="&#xa1;" horiz-adv-x="686" 
d="M344 1038q74 0 124 -50.5t50 -123.5q0 -72 -50 -122t-124 -50t-125 50t-51 122t51.5 123t124.5 51zM252 -426l22 940h136l22 -940h-180z" />
    <glyph glyph-name="cent" unicode="&#xa2;" horiz-adv-x="1208" 
d="M102 725q0 207 117 351.5t320 170.5v500l127 -2v-494q77 -5 149 -31.5t135.5 -74t105.5 -125t50 -176.5h-178q-19 122 -88.5 184t-173.5 72l2 -752q103 10 172 73t88 183h178q-8 -98 -50 -176t-105 -125.5t-134.5 -73.5t-148.5 -32v-500l-125 2v502q-206 26 -323.5 170.5
t-117.5 353.5zM279 725q0 -142 67.5 -243t194.5 -128v740q-127 -27 -194.5 -127.5t-67.5 -241.5z" />
    <glyph glyph-name="sterling" unicode="&#xa3;" horiz-adv-x="1282" 
d="M168 229q293 99 293 336q0 51 -12 101h-281v102h246q-10 25 -38 88t-41.5 98t-26.5 89.5t-13 101.5q0 58 14 103.5t37 76.5t60 53.5t74 35t88.5 19.5t94.5 9t101 2h432v-156h-401q-73 0 -120.5 -3.5t-89 -14t-63.5 -30.5t-34.5 -51.5t-12.5 -78.5q0 -39 12.5 -85.5
t26.5 -80.5t40 -90.5t38 -85.5h440v-102h-403q16 -62 16 -117q0 -70 -22.5 -128t-58 -98.5t-89.5 -73.5t-107 -53.5t-120 -39.5h948v-156h-1028v229z" />
    <glyph glyph-name="currency" unicode="&#xa4;" horiz-adv-x="1378" 
d="M694 295q-145 0 -256 78l-280 -281l-97 98l281 281q-76 109 -76 250t76 250l-281 280l97 99l280 -281q111 78 256 78q143 0 250 -74l277 277l96 -99l-275 -274q80 -113 80 -256t-80 -256l275 -275l-96 -98l-277 277q-107 -74 -250 -74zM412 721q0 -116 80 -198.5
t202 -82.5t202.5 82.5t80.5 198.5t-80.5 198t-202.5 82t-202 -82t-80 -198z" />
    <glyph glyph-name="yen" unicode="&#xa5;" horiz-adv-x="1396" 
d="M1118 1444h199l-436 -787h260v-127h-350v-102h350v-127h-350v-301h-185v301h-350v127h350v102h-350v127h262l-436 787h197l419 -776z" />
    <glyph glyph-name="brokenbar" unicode="&#xa6;" horiz-adv-x="483" 
d="M168 989v758h147v-758h-147zM168 -303v758h147v-758h-147z" />
    <glyph glyph-name="section" unicode="&#xa7;" horiz-adv-x="1329" 
d="M670 -377q-106 0 -190.5 22.5t-139.5 61t-91 92t-51.5 112.5t-15.5 126h187q0 -137 78.5 -208t228.5 -71q119 0 190.5 47t71.5 148q0 76 -47 115t-164 77l-293 95q-287 90 -287 315q0 115 67.5 195t199.5 104q-189 85 -189 274q0 152 117 241t330 89q127 0 222.5 -33.5
t150 -92t80.5 -129.5t26 -154h-182q0 136 -77 205t-226 69q-115 0 -185.5 -46t-70.5 -147q0 -72 46 -113t169 -81l276 -88q299 -97 299 -318q0 -112 -66.5 -196t-195.5 -105q184 -78 184 -270q0 -156 -115.5 -246t-336.5 -90zM332 584q0 -153 182 -213l180 -58
q107 -34 179 -12.5t108.5 75.5t36.5 128q0 154 -174 209l-189 59q-145 45 -234 -12.5t-89 -175.5z" />
    <glyph glyph-name="dieresis" unicode="&#xa8;" horiz-adv-x="1058" 
d="M315 1178q-63 0 -105 41t-42 102t42 102t105 41q65 0 108.5 -41t43.5 -102t-43.5 -102t-108.5 -41zM590 1321q0 62 42.5 102.5t106.5 40.5t108 -41t44 -102t-44 -102t-108 -41t-106.5 40.5t-42.5 102.5z" />
    <glyph glyph-name="copyright" unicode="&#xa9;" horiz-adv-x="2269" 
d="M1135 -483q-210 0 -395.5 77t-318 209.5t-209.5 318.5t-77 396t77 395.5t209.5 318t318 209.5t395.5 77t395.5 -77t318 -209.5t209 -318t76.5 -395.5t-76.5 -396t-209 -318.5t-318 -209.5t-395.5 -77zM262 518q0 -187 67 -351.5t182.5 -282t277.5 -185.5t346 -68
q245 0 445 115.5t313.5 318.5t113.5 453t-113.5 453t-313.5 318.5t-445 115.5q-184 0 -346 -68t-277.5 -185.5t-182.5 -282t-67 -351.5zM623 510q0 229 140.5 378.5t381.5 149.5q64 0 126.5 -14t124 -45.5t109.5 -77.5t81 -116.5t40 -155.5h-182q-21 132 -100.5 193
t-198.5 61q-165 0 -253.5 -105.5t-88.5 -267.5q0 -106 37 -189t115.5 -134.5t189.5 -51.5q119 0 198.5 61t100.5 193h182q-7 -85 -40 -155.5t-81 -116.5t-109.5 -77.5t-124 -45.5t-126.5 -14q-241 0 -381.5 149.5t-140.5 380.5z" />
    <glyph glyph-name="guillemotleft" unicode="&#xab;" horiz-adv-x="1464" 
d="M862 39l-119 -105l-575 574l575 571l119 -104l-469 -467zM604 508l576 571l118 -104l-469 -467l469 -469l-118 -105z" />
    <glyph glyph-name="logicalnot" unicode="&#xac;" horiz-adv-x="1216" 
d="M168 750h987v-492h-145v346h-842v146z" />
    <glyph glyph-name="registered" unicode="&#xae;" horiz-adv-x="1349" 
d="M676 547q-156 0 -273 68t-176 181.5t-59 254.5t59 254t175.5 181t273.5 68q155 0 271.5 -68t175.5 -181t59 -254t-59 -254.5t-175.5 -181.5t-271.5 -68zM274 1051q0 -84 26.5 -157.5t76.5 -130t127 -89.5t172 -33q186 0 292.5 118t106.5 292t-106.5 291.5t-292.5 117.5
q-126 0 -218.5 -56.5t-138 -148.5t-45.5 -204zM457 805v498h209q50 0 89 -5.5t77.5 -19.5t59.5 -44t21 -75q0 -47 -21.5 -78.5t-55.5 -44.5h12q32 0 48.5 -16.5t16.5 -44.5v-170h-108v160h-240v-160h-108zM565 1065h119q66 0 93.5 14t27.5 56q0 41 -28 55t-93 14h-119v-139z
" />
    <glyph glyph-name="macron" unicode="&#xaf;" horiz-adv-x="1015" 
d="M168 1407h680v-145l-680 -2v147z" />
    <glyph glyph-name="degree" unicode="&#xb0;" horiz-adv-x="978" 
d="M489 592q-188 0 -308 123.5t-120 302.5t120 302.5t308 123.5q189 0 309 -123.5t120 -302.5t-120 -302.5t-309 -123.5zM207 1018q0 -116 80 -198.5t202 -82.5q123 0 203 82t80 199t-79.5 198.5t-203.5 81.5q-122 0 -202 -82t-80 -198z" />
    <glyph glyph-name="plusminus" unicode="&#xb1;" horiz-adv-x="1325" 
d="M168 762h420v293h147v-293h420v-146h-420v-290h-147v290h-420v146zM168 47v146h987v-146h-987z" />
    <glyph glyph-name="uni00B2" unicode="&#xb2;" horiz-adv-x="958" 
d="M70 1473q0 129 33.5 226t94.5 154t138.5 85t171.5 28q171 0 272 -89t101 -253q0 -419 -721 -553h721v-131h-797v244q27 3 68 10.5t104.5 24t125.5 39.5t126 58.5t112.5 78t79.5 102.5t31 127q0 102 -55.5 156.5t-167.5 54.5q-289 0 -289 -362h-149z" />
    <glyph glyph-name="uni00B3" unicode="&#xb3;" horiz-adv-x="974" 
d="M221 1325q0 -147 66.5 -207.5t208.5 -60.5q243 0 243 184q0 166 -176 166h-137v123h137q162 0 162 139q0 166 -229 166q-136 0 -198 -52t-62 -165h-150q0 173 108.5 260.5t305.5 87.5q177 0 275.5 -72t98.5 -194q0 -92 -48 -151t-136 -79q199 -46 199 -253
q0 -138 -104.5 -214.5t-284.5 -76.5q-428 0 -428 399h149z" />
    <glyph glyph-name="acute" unicode="&#xb4;" horiz-adv-x="1013" 
d="M203 1180l-35 139l643 164l35 -140z" />
    <glyph glyph-name="paragraph" unicode="&#xb6;" horiz-adv-x="1366" 
d="M774 485q-315 0 -460.5 122.5t-145.5 357.5q0 234 145.5 356.5t460.5 122.5h148v-1778h-148v819zM1071 -334v1778h148v-1778h-148z" />
    <glyph glyph-name="periodcentered" unicode="&#xb7;" horiz-adv-x="686" 
d="M342 334q-74 0 -124 50.5t-50 123.5q0 72 50 122t124 50t125 -50t51 -122t-51.5 -123t-124.5 -51z" />
    <glyph glyph-name="cedilla" unicode="&#xb8;" horiz-adv-x="776" 
d="M168 -252h16q84 0 121.5 1t82 7t60 19.5t15.5 36.5q0 41 -47 41q-55 0 -144 -54l-75 92l86 109h161l-114 -117q76 31 141 31q58 0 97.5 -28t39.5 -87q0 -40 -14 -70t-43 -50t-64.5 -32.5t-89.5 -19t-105.5 -8.5t-123.5 -2v131z" />
    <glyph glyph-name="uni00B9" unicode="&#xb9;" horiz-adv-x="724" 
d="M469 940v940q-7 -90 -25.5 -160t-57 -138.5t-106.5 -118.5t-165 -79l-52 132q144 55 208 161.5t67 274.5h283v-1012h-152z" />
    <glyph glyph-name="guillemotright" unicode="&#xbb;" horiz-adv-x="1464" 
d="M602 975l119 104l575 -573l-575 -572l-119 105l469 467zM164 39l469 467l-469 469l119 104l575 -573l-575 -572z" />
    <glyph glyph-name="onequarter" unicode="&#xbc;" horiz-adv-x="2097" 
d="M469 428v940q-7 -90 -25.5 -160t-57 -138.5t-106.5 -118.5t-165 -79l-52 132q144 55 208 161.5t67 274.5h283v-1012h-152zM584 37l729 1417l131 -61l-731 -1418zM1227 207v254q178 65 295 209t135 342h151q-46 -480 -524 -674h469v324h152v-324h123v-131h-123v-207h-152
v207h-526z" />
    <glyph glyph-name="onehalf" unicode="&#xbd;" horiz-adv-x="2275" 
d="M469 428v940q-7 -90 -25.5 -160t-57 -138.5t-106.5 -118.5t-165 -79l-52 132q144 55 208 161.5t67 274.5h283v-1012h-152zM584 37l729 1417l131 -61l-731 -1418zM1384 532q0 129 34 226t94.5 154.5t138.5 85.5t172 28q171 0 271.5 -89t100.5 -253q0 -419 -720 -553h720
v-131h-796v244q27 3 68 10.5t104.5 24t125.5 39.5t126 58.5t112.5 78t79.5 102.5t31 127q0 102 -55.5 156.5t-167.5 54.5q-289 0 -289 -363h-150z" />
    <glyph glyph-name="threequarters" unicode="&#xbe;" horiz-adv-x="2316" 
d="M221 817q0 -147 66.5 -207.5t208.5 -60.5q243 0 243 184q0 166 -176 166h-137v123h137q162 0 162 139q0 166 -229 166q-136 0 -198 -52t-62 -165h-150q0 173 108.5 260.5t305.5 87.5q177 0 275.5 -72t98.5 -194q0 -91 -47.5 -150t-136.5 -79q199 -46 199 -254
q0 -138 -104.5 -214.5t-284.5 -76.5q-428 0 -428 399h149zM803 37l729 1417l131 -61l-731 -1418zM1446 207v254q178 65 295 209t135 342h152q-46 -479 -525 -674h469v324h152v-324h123v-131h-123v-207h-152v207h-526z" />
    <glyph glyph-name="questiondown" unicode="&#xbf;" horiz-adv-x="917" 
d="M459 1038q74 0 124 -50.5t50 -123.5q0 -72 -49.5 -122t-124.5 -50q-74 0 -125 50t-51 122t51.5 123t124.5 51zM20 -127q0 105 48 191t135 147t200 102t252 64h-501v131h610v-240q-57 -3 -116.5 -13t-127.5 -28.5t-127 -48.5t-107.5 -69.5t-77 -97t-28.5 -124.5
q0 -100 67 -159.5t187 -59.5q150 0 227.5 78.5t77.5 224.5h160q0 -199 -120.5 -316.5t-348.5 -117.5q-199 0 -304.5 94t-105.5 242z" />
    <glyph glyph-name="Agrave" unicode="&#xc0;" horiz-adv-x="1429" 
d="M55 0l494 1444h334l491 -1444h-194l-187 553h-557l-188 -553h-193zM379 1769l35 140l643 -164l-35 -139zM489 713h449l-223 661z" />
    <glyph glyph-name="Aacute" unicode="&#xc1;" horiz-adv-x="1429" 
d="M55 0l494 1444h334l491 -1444h-194l-187 553h-557l-188 -553h-193zM371 1745l643 164l35 -140l-643 -163zM489 713h449l-223 661z" />
    <glyph glyph-name="Acircumflex" unicode="&#xc2;" horiz-adv-x="1429" 
d="M55 0l494 1444h334l491 -1444h-194l-187 553h-557l-188 -553h-193zM373 1673l342 273l340 -273l-105 -102l-235 192l-238 -192zM489 713h449l-223 661z" />
    <glyph glyph-name="Atilde" unicode="&#xc3;" horiz-adv-x="1429" 
d="M55 0l494 1444h334l491 -1444h-194l-187 553h-557l-188 -553h-193zM334 1634q0 149 58 219t159 70q48 0 90 -17t70.5 -41t53 -48t50 -41t49.5 -17q40 0 62 30t22 114h146q0 -149 -58 -219t-159 -70q-48 0 -89.5 17t-70 41t-53.5 48t-51 41t-50 17q-39 0 -60.5 -29.5
t-21.5 -114.5h-147zM489 713h449l-223 661z" />
    <glyph glyph-name="Adieresis" unicode="&#xc4;" horiz-adv-x="1429" 
d="M55 0l494 1444h334l491 -1444h-194l-187 553h-557l-188 -553h-193zM352 1747q0 61 42.5 102t105.5 41q65 0 108 -41t43 -102t-43 -102t-108 -41q-63 0 -105.5 41t-42.5 102zM489 713h449l-223 661zM774 1747q0 61 42.5 102t107.5 41q63 0 107 -41t44 -102t-44 -102
t-107 -41q-65 0 -107.5 41t-42.5 102z" />
    <glyph glyph-name="Aring" unicode="&#xc5;" horiz-adv-x="1429" 
d="M55 0l494 1444h334l491 -1444h-194l-187 553h-557l-188 -553h-193zM463 1796q0 95 66 159t182 64t184 -64t68 -159t-68 -160t-184 -65t-182 64.5t-66 160.5zM489 713h449l-223 661zM604 1796q0 -45 28 -70.5t79 -25.5q53 0 81.5 25.5t28.5 70.5q0 43 -29 67.5t-81 24.5
q-51 0 -79 -24.5t-28 -67.5z" />
    <glyph glyph-name="AE" unicode="&#xc6;" horiz-adv-x="2121" 
d="M-12 0l854 1444h1171v-160h-817v-483h715v-156h-715v-485h817v-160h-1003v559h-486l-331 -559h-205zM616 717h394v661z" />
    <glyph glyph-name="Ccedilla" unicode="&#xc7;" horiz-adv-x="1581" 
d="M594 -252h16q84 0 121.5 1t82 7t60 19.5t15.5 36.5q0 41 -47 41q-55 0 -144 -54l-75 92l73 93q-179 24 -310.5 126.5t-199 260.5t-67.5 352q0 158 47 294t133 235.5t216 156.5t288 57q278 0 452.5 -154.5t206.5 -424.5h-186q-25 200 -147 309t-326 109q-238 0 -367 -159
t-129 -423q0 -174 55 -304t168.5 -205t272.5 -75q204 0 326 110t147 310h186q-31 -260 -192 -413.5t-420 -165.5l-94 -97q76 31 141 31q58 0 97.5 -28t39.5 -87q0 -40 -14 -70t-43 -50t-64.5 -32.5t-89.5 -19t-105.5 -8.5t-123.5 -2v131z" />
    <glyph glyph-name="Egrave" unicode="&#xc8;" horiz-adv-x="1257" 
d="M147 0v1444h1004v-160h-817v-483h715v-156h-715v-485h817v-160h-1004zM268 1769l35 140l643 -164l-35 -139z" />
    <glyph glyph-name="Eacute" unicode="&#xc9;" horiz-adv-x="1257" 
d="M147 0v1444h1004v-160h-817v-483h715v-156h-715v-485h817v-160h-1004zM260 1745l643 164l35 -140l-643 -163z" />
    <glyph glyph-name="Ecircumflex" unicode="&#xca;" horiz-adv-x="1257" 
d="M147 0v1444h1004v-160h-817v-483h715v-156h-715v-485h817v-160h-1004zM262 1673l342 273l340 -273l-104 -102l-236 192l-237 -192z" />
    <glyph glyph-name="Edieresis" unicode="&#xcb;" horiz-adv-x="1257" 
d="M147 0v1444h1004v-160h-817v-483h715v-156h-715v-485h817v-160h-1004zM244 1747q0 61 42 102t105 41q65 0 108.5 -41t43.5 -102t-43.5 -102t-108.5 -41q-63 0 -105 41t-42 102zM666 1747q0 62 42.5 102.5t106.5 40.5t108 -41t44 -102t-44 -102t-108 -41t-106.5 40.5
t-42.5 102.5z" />
    <glyph glyph-name="Igrave" unicode="&#xcc;" horiz-adv-x="1081" 
d="M125 1444h831v-160h-323v-1124h323v-160h-831v160h324v1124h-324v160zM207 1769l35 140l643 -164l-35 -139z" />
    <glyph glyph-name="Iacute" unicode="&#xcd;" horiz-adv-x="1081" 
d="M125 1444h831v-160h-323v-1124h323v-160h-831v160h324v1124h-324v160zM197 1745l643 164l34 -140l-643 -163z" />
    <glyph glyph-name="Icircumflex" unicode="&#xce;" horiz-adv-x="1081" 
d="M125 1444h831v-160h-323v-1124h323v-160h-831v160h324v1124h-324v160zM199 1673l342 273l340 -273l-105 -102l-235 192l-238 -192z" />
    <glyph glyph-name="Idieresis" unicode="&#xcf;" horiz-adv-x="1081" 
d="M125 1444h831v-160h-323v-1124h323v-160h-831v160h324v1124h-324v160zM180 1747q0 61 42.5 102t105.5 41q65 0 108 -41t43 -102t-43 -102t-108 -41q-63 0 -105.5 41t-42.5 102zM602 1747q0 61 42.5 102t107.5 41q63 0 107 -41t44 -102t-44 -102t-107 -41q-65 0 -107.5 41
t-42.5 102z" />
    <glyph glyph-name="Eth" unicode="&#xd0;" horiz-adv-x="1499" 
d="M180 0v647h-180v148h180v649h465q83 0 153 -7t147 -27.5t138 -53.5t117 -88.5t93.5 -129.5t60 -179.5t22.5 -235.5t-22.5 -236t-60 -180t-93.5 -130t-117 -89t-138 -53.5t-147 -27.5t-153 -7h-465zM367 160h278q63 0 111.5 3.5t108 17t103 36.5t88 65.5t72 100.5
t45 144.5t17.5 195.5q0 85 -10.5 156t-28.5 124.5t-46 96t-58 71.5t-70.5 50t-77 33t-83.5 19t-85 9t-86 2h-278v-489h356v-148h-356v-487z" />
    <glyph glyph-name="Ntilde" unicode="&#xd1;" horiz-adv-x="1560" 
d="M147 0v1444h345l737 -1378v1378h184v-1444h-344l-735 1378v-1378h-187zM442 1634q0 149 58 219t159 70q48 0 90 -17t70.5 -41t53.5 -48t50.5 -41t49.5 -17q40 0 62 30t22 114h145q0 -149 -58 -219t-159 -70q-48 0 -89.5 17t-70 41t-53.5 48t-50.5 41t-49.5 17
q-39 0 -60.5 -29.5t-21.5 -114.5h-148z" />
    <glyph glyph-name="Ograve" unicode="&#xd2;" horiz-adv-x="1599" 
d="M119 723q0 158 47 294t133 235.5t215.5 156.5t286.5 57t286 -57t215 -156.5t132.5 -235.5t46.5 -294q0 -159 -46.5 -295.5t-132.5 -236.5t-215 -157t-286 -57t-286.5 57t-215.5 157t-133 236.5t-47 295.5zM307 723q0 -173 53.5 -302.5t166 -205.5t274.5 -76t274.5 76
t165.5 205.5t53 302.5q0 172 -53 301t-165.5 205t-274.5 76q-122 0 -217 -43t-155 -121.5t-91 -184t-31 -233.5zM467 1769l35 140l643 -164l-35 -139z" />
    <glyph glyph-name="Oacute" unicode="&#xd3;" horiz-adv-x="1599" 
d="M119 723q0 158 47 294t133 235.5t215.5 156.5t286.5 57t286 -57t215 -156.5t132.5 -235.5t46.5 -294q0 -159 -46.5 -295.5t-132.5 -236.5t-215 -157t-286 -57t-286.5 57t-215.5 157t-133 236.5t-47 295.5zM307 723q0 -173 53.5 -302.5t166 -205.5t274.5 -76t274.5 76
t165.5 205.5t53 302.5q0 172 -53 301t-165.5 205t-274.5 76q-122 0 -217 -43t-155 -121.5t-91 -184t-31 -233.5zM457 1745l643 164l35 -140l-643 -163z" />
    <glyph glyph-name="Ocircumflex" unicode="&#xd4;" horiz-adv-x="1599" 
d="M119 723q0 158 47 294t133 235.5t215.5 156.5t286.5 57t286 -57t215 -156.5t132.5 -235.5t46.5 -294q0 -159 -46.5 -295.5t-132.5 -236.5t-215 -157t-286 -57t-286.5 57t-215.5 157t-133 236.5t-47 295.5zM307 723q0 -173 53.5 -302.5t166 -205.5t274.5 -76t274.5 76
t165.5 205.5t53 302.5q0 172 -53 301t-165.5 205t-274.5 76q-122 0 -217 -43t-155 -121.5t-91 -184t-31 -233.5zM459 1673l342 273l340 -273l-105 -102l-235 192l-238 -192z" />
    <glyph glyph-name="Otilde" unicode="&#xd5;" horiz-adv-x="1599" 
d="M119 723q0 158 47 294t133 235.5t215.5 156.5t286.5 57t286 -57t215 -156.5t132.5 -235.5t46.5 -294q0 -159 -46.5 -295.5t-132.5 -236.5t-215 -157t-286 -57t-286.5 57t-215.5 157t-133 236.5t-47 295.5zM307 723q0 -173 53.5 -302.5t166 -205.5t274.5 -76t274.5 76
t165.5 205.5t53 302.5q0 172 -53 301t-165.5 205t-274.5 76q-122 0 -217 -43t-155 -121.5t-91 -184t-31 -233.5zM422 1634q0 149 58 219t159 70q48 0 90 -17t70.5 -41t53 -48t50 -41t49.5 -17q40 0 62 30t22 114h146q0 -149 -58 -219t-159 -70q-48 0 -89.5 17t-70 41
t-53.5 48t-51 41t-50 17q-39 0 -60.5 -29.5t-21.5 -114.5h-147z" />
    <glyph glyph-name="Odieresis" unicode="&#xd6;" horiz-adv-x="1599" 
d="M119 723q0 158 47 294t133 235.5t215.5 156.5t286.5 57t286 -57t215 -156.5t132.5 -235.5t46.5 -294q0 -159 -46.5 -295.5t-132.5 -236.5t-215 -157t-286 -57t-286.5 57t-215.5 157t-133 236.5t-47 295.5zM307 723q0 -173 53.5 -302.5t166 -205.5t274.5 -76t274.5 76
t165.5 205.5t53 302.5q0 172 -53 301t-165.5 205t-274.5 76q-122 0 -217 -43t-155 -121.5t-91 -184t-31 -233.5zM440 1747q0 61 42.5 102t105.5 41q65 0 108 -41t43 -102t-43 -102t-108 -41q-63 0 -105.5 41t-42.5 102zM862 1747q0 61 42.5 102t107.5 41q63 0 107 -41
t44 -102t-44 -102t-107 -41q-65 0 -107.5 41t-42.5 102z" />
    <glyph glyph-name="multiply" unicode="&#xd7;" horiz-adv-x="1138" 
d="M272 915l297 -297l297 297l105 -102l-297 -297l297 -299l-105 -102l-297 297l-297 -297l-104 102l299 299l-299 297z" />
    <glyph glyph-name="Oslash" unicode="&#xd8;" horiz-adv-x="1611" 
d="M119 723q0 158 47 294t133 235.5t215.5 156.5t286.5 57q175 0 313 -69l98 172l119 -70l-102 -176q121 -100 186.5 -255.5t65.5 -344.5q0 -159 -46.5 -295.5t-132.5 -236.5t-215 -157t-286 -57q-170 0 -312 68l-100 -172l-115 70l101 176q-123 100 -189.5 257t-66.5 347z
M307 723q0 -144 39 -261.5t115 -193.5l571 987q-106 50 -231 50q-122 0 -217 -43t-155 -121.5t-91 -184t-31 -233.5zM571 188q98 -49 230 -49q162 0 274.5 76t165.5 205.5t53 302.5q0 297 -151 451z" />
    <glyph glyph-name="Ugrave" unicode="&#xd9;" horiz-adv-x="1380" 
d="M109 537v907h186v-869q0 -112 19 -190.5t64 -135t121.5 -83.5t188.5 -27q219 0 308 105.5t89 330.5v869h187v-907q0 -274 -145 -417t-439 -143q-579 0 -579 560zM354 1769l35 140l643 -164l-35 -139z" />
    <glyph glyph-name="Uacute" unicode="&#xda;" horiz-adv-x="1380" 
d="M109 537v907h186v-869q0 -112 19 -190.5t64 -135t121.5 -83.5t188.5 -27q219 0 308 105.5t89 330.5v869h187v-907q0 -274 -145 -417t-439 -143q-579 0 -579 560zM344 1745l643 164l35 -140l-643 -163z" />
    <glyph glyph-name="Ucircumflex" unicode="&#xdb;" horiz-adv-x="1380" 
d="M109 537v907h186v-869q0 -112 19 -190.5t64 -135t121.5 -83.5t188.5 -27q219 0 308 105.5t89 330.5v869h187v-907q0 -274 -145 -417t-439 -143q-579 0 -579 560zM346 1673l342 273l340 -273l-104 -102l-236 192l-237 -192z" />
    <glyph glyph-name="Udieresis" unicode="&#xdc;" horiz-adv-x="1380" 
d="M109 537v907h186v-869q0 -112 19 -190.5t64 -135t121.5 -83.5t188.5 -27q219 0 308 105.5t89 330.5v869h187v-907q0 -274 -145 -417t-439 -143q-579 0 -579 560zM328 1747q0 61 42 102t105 41q65 0 108.5 -41t43.5 -102t-43.5 -102t-108.5 -41q-63 0 -105 41t-42 102z
M750 1747q0 62 42.5 102.5t106.5 40.5t108 -41t44 -102t-44 -102t-108 -41t-106.5 40.5t-42.5 102.5z" />
    <glyph glyph-name="Yacute" unicode="&#xdd;" horiz-adv-x="1361" 
d="M1100 1444h198l-462 -836h-64v-608h-184v608h-62l-463 836h197l420 -776zM336 1745l643 164l35 -140l-643 -163z" />
    <glyph glyph-name="Thorn" unicode="&#xde;" horiz-adv-x="1271" 
d="M147 0v1444h187v-246h233q150 0 257.5 -23.5t187 -78t118.5 -147.5t39 -228q0 -136 -39 -230t-118.5 -148t-187 -77.5t-257.5 -23.5h-233v-242h-187zM334 401h239q78 0 136 7t112 28t88.5 55.5t55 92.5t20.5 137t-20.5 136t-55 91.5t-88.5 55t-112 27.5t-136 7h-239v-637
z" />
    <glyph glyph-name="germandbls" unicode="&#xdf;" horiz-adv-x="1148" 
d="M444 0v156l256 2q120 1 177 53.5t57 157.5q0 77 -33 124t-96 89l-88 59q-4 2 -23 14.5t-23 16t-20 15t-20.5 17.5t-16 17.5t-15 21t-9.5 23t-8 28t-2 31.5q0 14 1 27t5.5 25.5t6.5 20.5t10.5 20t11 17t14 17.5t13.5 14.5l16.5 16.5l15.5 15.5l63 60q62 59 62 135
q0 80 -56.5 125t-160.5 45q-121 0 -186.5 -67.5t-65.5 -204.5v-1092h-183v1106q0 207 114.5 310.5t316.5 103.5q198 0 300.5 -85t102.5 -223q0 -114 -86 -200l-68 -64l-13.5 -13.5l-12.5 -12.5t-10.5 -11t-10 -12.5t-7.5 -12t-6.5 -13.5t-3 -14t-1.5 -17q0 -14 5 -27
t10.5 -22t19 -20t21 -16.5t26.5 -17t26 -16.5l80 -55q34 -23 59.5 -47t52 -60.5t40.5 -87t14 -111.5q0 -184 -111 -273t-296 -89h-265z" />
    <glyph glyph-name="agrave" unicode="&#xe0;" horiz-adv-x="1220" 
d="M102 283q0 265 340 297l400 38q-6 139 -72 206t-203 67q-112 0 -181.5 -57t-80.5 -179h-180q18 177 134 280t312 103q217 0 335 -123t118 -333v-426h150v-156h-187q-59 0 -91 32t-32 91v129q-19 -57 -50.5 -103.5t-81 -85.5t-122.5 -61t-164 -22q-85 0 -150 22t-100.5 54
t-58 75.5t-29 79t-6.5 72.5zM248 1343l35 140l643 -164l-35 -139zM283 305q0 -86 51 -131t141 -45q164 0 265.5 102t101.5 258l-369 -38q-98 -9 -144 -42t-46 -104z" />
    <glyph glyph-name="aacute" unicode="&#xe1;" horiz-adv-x="1220" 
d="M102 283q0 265 340 297l400 38q-6 139 -72 206t-203 67q-112 0 -181.5 -57t-80.5 -179h-180q18 177 134 280t312 103q217 0 335 -123t118 -333v-426h150v-156h-187q-59 0 -91 32t-32 91v129q-19 -57 -50.5 -103.5t-81 -85.5t-122.5 -61t-164 -22q-85 0 -150 22t-100.5 54
t-58 75.5t-29 79t-6.5 72.5zM238 1319l643 164l34 -140l-643 -163zM283 305q0 -86 51 -131t141 -45q164 0 265.5 102t101.5 258l-369 -38q-98 -9 -144 -42t-46 -104z" />
    <glyph glyph-name="acircumflex" unicode="&#xe2;" horiz-adv-x="1220" 
d="M102 283q0 265 340 297l400 38q-6 139 -72 206t-203 67q-112 0 -181.5 -57t-80.5 -179h-180q18 177 134 280t312 103q217 0 335 -123t118 -333v-426h150v-156h-187q-59 0 -91 32t-32 91v129q-19 -57 -50.5 -103.5t-81 -85.5t-122.5 -61t-164 -22q-85 0 -150 22t-100.5 54
t-58 75.5t-29 79t-6.5 72.5zM242 1247l342 273l340 -273l-105 -102l-235 192l-238 -192zM283 305q0 -86 51 -131t141 -45q164 0 265.5 102t101.5 258l-369 -38q-98 -9 -144 -42t-46 -104z" />
    <glyph glyph-name="atilde" unicode="&#xe3;" horiz-adv-x="1220" 
d="M102 283q0 265 340 297l400 38q-6 139 -72 206t-203 67q-112 0 -181.5 -57t-80.5 -179h-180q18 177 134 280t312 103q217 0 335 -123t118 -333v-426h150v-156h-187q-59 0 -91 32t-32 91v129q-19 -57 -50.5 -103.5t-81 -85.5t-122.5 -61t-164 -22q-85 0 -150 22t-100.5 54
t-58 75.5t-29 79t-6.5 72.5zM203 1208q0 149 58 219t159 70q48 0 90 -17t70.5 -41t53 -48t50 -41t49.5 -17q40 0 62 30t22 114h146q0 -148 -58.5 -218.5t-159.5 -70.5q-48 0 -89.5 17t-70 41t-53.5 48t-50.5 41t-49.5 17q-39 0 -60.5 -29.5t-21.5 -114.5h-147zM283 305
q0 -86 51 -131t141 -45q164 0 265.5 102t101.5 258l-369 -38q-98 -9 -144 -42t-46 -104z" />
    <glyph glyph-name="adieresis" unicode="&#xe4;" horiz-adv-x="1220" 
d="M102 283q0 265 340 297l400 38q-6 139 -72 206t-203 67q-112 0 -181.5 -57t-80.5 -179h-180q18 177 134 280t312 103q217 0 335 -123t118 -333v-426h150v-156h-187q-59 0 -91 32t-32 91v129q-19 -57 -50.5 -103.5t-81 -85.5t-122.5 -61t-164 -22q-85 0 -150 22t-100.5 54
t-58 75.5t-29 79t-6.5 72.5zM221 1321q0 61 42.5 102t105.5 41q65 0 108 -41t43 -102t-43 -102t-108 -41q-63 0 -105.5 41t-42.5 102zM283 305q0 -86 51 -131t141 -45q164 0 265.5 102t101.5 258l-369 -38q-98 -9 -144 -42t-46 -104zM643 1321q0 61 42.5 102t107.5 41
q63 0 107 -41t44 -102t-44 -102t-107 -41q-65 0 -107.5 41t-42.5 102z" />
    <glyph glyph-name="aring" unicode="&#xe5;" horiz-adv-x="1220" 
d="M102 283q0 265 340 297l400 38q-6 139 -72 206t-203 67q-112 0 -181.5 -57t-80.5 -179h-180q18 177 134 280t312 103q217 0 335 -123t118 -333v-426h150v-156h-187q-59 0 -91 32t-32 91v129q-19 -57 -50.5 -103.5t-81 -85.5t-122.5 -61t-164 -22q-85 0 -150 22t-100.5 54
t-58 75.5t-29 79t-6.5 72.5zM283 305q0 -86 51 -131t141 -45q164 0 265.5 102t101.5 258l-369 -38q-98 -9 -144 -42t-46 -104zM332 1370q0 95 66 159t182 64t183.5 -64t67.5 -159t-67.5 -160t-183.5 -65t-182 64.5t-66 160.5zM473 1370q0 -45 28 -70.5t79 -25.5
q53 0 81.5 25.5t28.5 70.5q0 43 -29 67.5t-81 24.5q-51 0 -79 -24.5t-28 -67.5z" />
    <glyph glyph-name="ae" unicode="&#xe6;" horiz-adv-x="1937" 
d="M102 272q0 134 88.5 209t270.5 97l387 38q0 132 -77 204.5t-208 72.5q-121 0 -201.5 -63t-80.5 -191h-172q0 168 122 283.5t330 115.5q263 0 373 -196q128 196 401 196q228 0 363 -131.5t135 -365.5v-66h-809q5 -156 87.5 -253t234.5 -97q127 0 205.5 61t105.5 170h180
q-16 -75 -50.5 -139t-91 -119t-145.5 -86.5t-202 -31.5q-169 0 -284.5 78.5t-170.5 215.5q-50 -133 -164.5 -213.5t-282.5 -80.5q-90 0 -158.5 24t-108 65.5t-58.5 92.5t-19 110zM285 299q0 -83 53 -128.5t147 -45.5q83 0 153.5 34.5t115 90.5t69.5 124.5t25 137.5l-359 -35
q-204 -18 -204 -178zM1026 604h629q-9 137 -95.5 214t-224.5 77q-128 0 -213.5 -77.5t-95.5 -213.5z" />
    <glyph glyph-name="ccedilla" unicode="&#xe7;" horiz-adv-x="1208" 
d="M102 510q0 229 141 378.5t382 149.5q64 0 126.5 -14t124 -45.5t109.5 -77.5t81 -116.5t40 -155.5h-182q-21 132 -100.5 193t-198.5 61q-165 0 -253.5 -105.5t-88.5 -267.5q0 -106 37 -189t115.5 -134.5t189.5 -51.5q119 0 198.5 61t100.5 193h182q-8 -99 -50 -177
t-105.5 -125.5t-135 -73t-149.5 -31.5l-97 -99q76 31 142 31q58 0 97.5 -28t39.5 -87q0 -40 -14 -70t-43 -50t-64.5 -32.5t-89.5 -19t-105.5 -8.5t-123.5 -2v131h16q84 0 121.5 1t81.5 7t59.5 19.5t15.5 36.5q0 41 -47 41q-54 0 -143 -54l-76 92l78 99q-193 33 -302.5 175.5
t-109.5 344.5z" />
    <glyph glyph-name="egrave" unicode="&#xe8;" horiz-adv-x="1191" 
d="M952 1319l-34 -139l-644 163l35 140zM102 522q0 244 133 380t355 136q228 0 362.5 -131.5t134.5 -365.5v-66h-808q5 -157 87 -253.5t234 -96.5q127 0 205.5 61t105.5 170h181q-16 -75 -50.5 -139t-91.5 -119t-146 -86.5t-202 -31.5q-121 0 -217.5 42t-157.5 116t-93 172
t-32 212zM281 604h628q-9 137 -95 214t-224 77q-128 0 -213.5 -77.5t-95.5 -213.5z" />
    <glyph glyph-name="eacute" unicode="&#xe9;" horiz-adv-x="1191" 
d="M299 1180l-35 139l643 164l35 -140zM102 522q0 244 133 380t355 136q228 0 362.5 -131.5t134.5 -365.5v-66h-808q5 -157 87 -253.5t234 -96.5q127 0 205.5 61t105.5 170h181q-16 -75 -50.5 -139t-91.5 -119t-146 -86.5t-202 -31.5q-121 0 -217.5 42t-157.5 116t-93 172
t-32 212zM281 604h628q-9 137 -95 214t-224 77q-128 0 -213.5 -77.5t-95.5 -213.5z" />
    <glyph glyph-name="ecircumflex" unicode="&#xea;" horiz-adv-x="1191" 
d="M950 1247l-104 -102l-236 192l-237 -192l-105 102l342 273zM102 522q0 244 133 380t355 136q228 0 362.5 -131.5t134.5 -365.5v-66h-808q5 -157 87 -253.5t234 -96.5q127 0 205.5 61t105.5 170h181q-16 -75 -50.5 -139t-91.5 -119t-146 -86.5t-202 -31.5
q-121 0 -217.5 42t-157.5 116t-93 172t-32 212zM281 604h628q-9 137 -95 214t-224 77q-128 0 -213.5 -77.5t-95.5 -213.5z" />
    <glyph glyph-name="edieresis" unicode="&#xeb;" horiz-adv-x="1191" 
d="M395 1178q-63 0 -105 41t-42 102t42 102t105 41q65 0 108.5 -41t43.5 -102t-43.5 -102t-108.5 -41zM102 522q0 244 133 380t355 136q228 0 362.5 -131.5t134.5 -365.5v-66h-808q5 -157 87 -253.5t234 -96.5q127 0 205.5 61t105.5 170h181q-16 -75 -50.5 -139t-91.5 -119
t-146 -86.5t-202 -31.5q-121 0 -217.5 42t-157.5 116t-93 172t-32 212zM281 604h628q-9 137 -95 214t-224 77q-128 0 -213.5 -77.5t-95.5 -213.5zM670 1321q0 62 42.5 102.5t106.5 40.5t108 -41t44 -102t-44 -102t-108 -41t-106.5 40.5t-42.5 102.5z" />
    <glyph glyph-name="igrave" unicode="&#xec;" horiz-adv-x="907" 
d="M106 0v156h283v706h-211v156h264q115 0 115 -119v-743h285v-156h-736zM119 1343l35 140l643 -164l-35 -139z" />
    <glyph glyph-name="iacute" unicode="&#xed;" horiz-adv-x="907" 
d="M106 0v156h283v706h-211v156h264q115 0 115 -119v-743h285v-156h-736zM109 1319l643 164l34 -140l-643 -163z" />
    <glyph glyph-name="icircumflex" unicode="&#xee;" horiz-adv-x="919" 
d="M115 0v156h282v706h-211v156h265q114 0 114 -119v-743h285v-156h-735zM115 1247l342 273l340 -273l-105 -102l-235 192l-238 -192z" />
    <glyph glyph-name="idieresis" unicode="&#xef;" horiz-adv-x="921" 
d="M115 0v156h282v706h-211v156h265q114 0 114 -119v-743h285v-156h-735zM92 1321q0 61 42.5 102t105.5 41q65 0 108 -41t43 -102t-43 -102t-108 -41q-63 0 -105.5 41t-42.5 102zM514 1321q0 61 42.5 102t107.5 41q63 0 107 -41t44 -102t-44 -102t-107 -41q-65 0 -107.5 41
t-42.5 102z" />
    <glyph glyph-name="eth" unicode="&#xf0;" horiz-adv-x="1331" 
d="M653 -20q-174 0 -300 69.5t-188.5 189.5t-62.5 277q0 228 147 375t388 147q165 0 282.5 -77.5t172.5 -215.5v9q-17 150 -101.5 267.5t-224.5 199.5l-211 -113l-109 98l164 88q-136 52 -305 76v156q271 -31 477 -142l250 134l109 -99l-226 -121q149 -113 230.5 -276.5
t81.5 -368.5q0 -314 -156 -493.5t-418 -179.5zM283 516q0 -181 97 -281t275 -100q87 0 160.5 31t121.5 84t74.5 121.5t26.5 144.5q0 168 -100 267.5t-272 99.5q-179 0 -281 -99.5t-102 -267.5z" />
    <glyph glyph-name="ntilde" unicode="&#xf1;" horiz-adv-x="1243" 
d="M143 0v1018h183v-277q42 140 149.5 218.5t272.5 78.5q176 0 274 -111t98 -315v-612h-182v592q0 155 -61 223t-193 68q-165 0 -261.5 -122.5t-96.5 -328.5v-432h-183zM291 1208q0 149 58 219t159 70q48 0 90 -17t70.5 -41t53 -48t50 -41t49.5 -17q40 0 62 30t22 114h146
q0 -149 -58 -219t-159 -70q-48 0 -89.5 17t-70 41t-53.5 48t-51 41t-50 17q-39 0 -60.5 -29.5t-21.5 -114.5h-147z" />
    <glyph glyph-name="ograve" unicode="&#xf2;" horiz-adv-x="1284" 
d="M102 510q0 229 150 378.5t391 149.5q240 0 389.5 -149.5t149.5 -378.5q0 -230 -149.5 -380t-389.5 -150q-120 0 -221.5 40.5t-171.5 111t-109 168t-39 210.5zM283 510q0 -162 95.5 -268.5t264.5 -106.5q167 0 262.5 106.5t95.5 268.5q0 160 -95.5 266.5t-262.5 106.5
q-169 0 -264.5 -106.5t-95.5 -266.5zM307 1343l35 140l643 -164l-35 -139z" />
    <glyph glyph-name="oacute" unicode="&#xf3;" horiz-adv-x="1284" 
d="M102 510q0 229 150 378.5t391 149.5q240 0 389.5 -149.5t149.5 -378.5q0 -230 -149.5 -380t-389.5 -150q-120 0 -221.5 40.5t-171.5 111t-109 168t-39 210.5zM283 510q0 -162 95.5 -268.5t264.5 -106.5q167 0 262.5 106.5t95.5 268.5q0 160 -95.5 266.5t-262.5 106.5
q-169 0 -264.5 -106.5t-95.5 -266.5zM299 1319l643 164l35 -140l-643 -163z" />
    <glyph glyph-name="ocircumflex" unicode="&#xf4;" horiz-adv-x="1284" 
d="M102 510q0 229 150 378.5t391 149.5q240 0 389.5 -149.5t149.5 -378.5q0 -230 -149.5 -380t-389.5 -150q-120 0 -221.5 40.5t-171.5 111t-109 168t-39 210.5zM283 510q0 -162 95.5 -268.5t264.5 -106.5q167 0 262.5 106.5t95.5 268.5q0 160 -95.5 266.5t-262.5 106.5
q-169 0 -264.5 -106.5t-95.5 -266.5zM301 1247l342 273l340 -273l-104 -102l-236 192l-237 -192z" />
    <glyph glyph-name="otilde" unicode="&#xf5;" horiz-adv-x="1284" 
d="M102 510q0 229 150 378.5t391 149.5q240 0 389.5 -149.5t149.5 -378.5q0 -230 -149.5 -380t-389.5 -150q-120 0 -221.5 40.5t-171.5 111t-109 168t-39 210.5zM264 1208q0 149 58 219t159 70q48 0 90 -17t70.5 -41t53.5 -48t50.5 -41t49.5 -17q40 0 62 30t22 114h145
q0 -149 -58 -219t-159 -70q-48 0 -89.5 17t-70 41t-53.5 48t-50.5 41t-49.5 17q-39 0 -60.5 -29.5t-21.5 -114.5h-148zM283 510q0 -162 95.5 -268.5t264.5 -106.5q167 0 262.5 106.5t95.5 268.5q0 160 -95.5 266.5t-262.5 106.5q-169 0 -264.5 -106.5t-95.5 -266.5z" />
    <glyph glyph-name="odieresis" unicode="&#xf6;" horiz-adv-x="1284" 
d="M102 510q0 229 150 378.5t391 149.5q240 0 389.5 -149.5t149.5 -378.5q0 -230 -149.5 -380t-389.5 -150q-120 0 -221.5 40.5t-171.5 111t-109 168t-39 210.5zM283 510q0 -162 95.5 -268.5t264.5 -106.5q167 0 262.5 106.5t95.5 268.5q0 160 -95.5 266.5t-262.5 106.5
q-169 0 -264.5 -106.5t-95.5 -266.5zM283 1321q0 61 42 102t105 41q65 0 108.5 -41t43.5 -102t-43.5 -102t-108.5 -41q-63 0 -105 41t-42 102zM705 1321q0 62 42.5 102.5t106.5 40.5t108 -41t44 -102t-44 -102t-108 -41t-106.5 40.5t-42.5 102.5z" />
    <glyph glyph-name="divide" unicode="&#xf7;" horiz-adv-x="1325" 
d="M168 592h987v-148h-987v148zM487 135q0 71 50.5 121.5t124.5 50.5q73 0 124.5 -50.5t51.5 -121.5q0 -73 -51 -123.5t-125 -50.5q-75 0 -125 50t-50 124zM487 897q0 72 50 122t125 50q74 0 125 -50t51 -122t-51.5 -123t-124.5 -51q-74 0 -124.5 50.5t-50.5 123.5z" />
    <glyph glyph-name="oslash" unicode="&#xf8;" horiz-adv-x="1284" 
d="M102 510q0 229 150 378.5t391 149.5q118 0 211 -37l74 129l112 -61l-73 -127q102 -71 158.5 -183.5t56.5 -248.5q0 -230 -149.5 -380t-389.5 -150q-122 0 -213 36l-76 -129l-110 62l73 127q-102 71 -158.5 184t-56.5 250zM283 510q0 -185 118 -291l371 643
q-58 21 -129 21q-169 0 -264.5 -106.5t-95.5 -266.5zM510 156q68 -21 133 -21q167 0 262.5 106.5t95.5 268.5q0 183 -118 289z" />
    <glyph glyph-name="ugrave" unicode="&#xf9;" horiz-adv-x="1243" 
d="M498 -20q-178 0 -276.5 111.5t-98.5 316.5v610h184v-592q0 -155 60 -223t192 -68q167 0 264 122.5t97 328.5v432h180v-1018h-180v279q-42 -141 -150 -220t-272 -79zM293 1343l35 140l643 -164l-35 -139z" />
    <glyph glyph-name="uacute" unicode="&#xfa;" horiz-adv-x="1243" 
d="M498 -20q-178 0 -276.5 111.5t-98.5 316.5v610h184v-592q0 -155 60 -223t192 -68q167 0 264 122.5t97 328.5v432h180v-1018h-180v279q-42 -141 -150 -220t-272 -79zM283 1319l643 164l35 -140l-644 -163z" />
    <glyph glyph-name="ucircumflex" unicode="&#xfb;" horiz-adv-x="1243" 
d="M498 -20q-178 0 -276.5 111.5t-98.5 316.5v610h184v-592q0 -155 60 -223t192 -68q167 0 264 122.5t97 328.5v432h180v-1018h-180v279q-42 -141 -150 -220t-272 -79zM285 1247l342 273l340 -273l-105 -102l-235 192l-238 -192z" />
    <glyph glyph-name="udieresis" unicode="&#xfc;" horiz-adv-x="1243" 
d="M498 -20q-178 0 -276.5 111.5t-98.5 316.5v610h184v-592q0 -155 60 -223t192 -68q167 0 264 122.5t97 328.5v432h180v-1018h-180v279q-42 -141 -150 -220t-272 -79zM266 1321q0 61 42.5 102t105.5 41q65 0 108 -41t43 -102t-43 -102t-108 -41q-63 0 -105.5 41t-42.5 102z
M688 1321q0 61 42.5 102t107.5 41q63 0 107 -41t44 -102t-44 -102t-107 -41q-65 0 -107.5 41t-42.5 102z" />
    <glyph glyph-name="yacute" unicode="&#xfd;" horiz-adv-x="1230" 
d="M1108 1018v-1292q0 -125 -141 -125h-779v155h738v520q-42 -140 -149.5 -218t-272.5 -78q-176 0 -274.5 111t-98.5 315v612h182v-592q0 -155 61 -223t193 -68q165 0 262 122.5t97 328.5v432h182zM287 1319l643 164l35 -140l-643 -163z" />
    <glyph glyph-name="thorn" unicode="&#xfe;" horiz-adv-x="1341" 
d="M143 -381v1886h183v-735q56 125 166.5 196.5t269.5 71.5q217 0 347 -147t130 -383q0 -235 -130 -381.5t-347 -146.5q-162 0 -272 72.5t-164 195.5v-629h-183zM330 508q0 -119 52 -205.5t135 -127t185 -40.5t181 39.5t127.5 125t48.5 208.5q0 184 -99.5 279.5t-257.5 95.5
q-159 0 -265.5 -97.5t-106.5 -277.5z" />
    <glyph glyph-name="ydieresis" unicode="&#xff;" horiz-adv-x="1230" 
d="M1108 1018v-1292q0 -125 -141 -125h-779v155h738v520q-42 -140 -149.5 -218t-272.5 -78q-176 0 -274.5 111t-98.5 315v612h182v-592q0 -155 61 -223t193 -68q165 0 262 122.5t97 328.5v432h182zM270 1321q0 61 42.5 102t105.5 41q65 0 108 -41t43 -102t-43 -102t-108 -41
q-63 0 -105.5 41t-42.5 102zM692 1321q0 61 42.5 102t107.5 41q63 0 107 -41t44 -102t-44 -102t-107 -41q-65 0 -107.5 41t-42.5 102z" />
    <glyph glyph-name="Amacron" unicode="&#x100;" horiz-adv-x="1429" 
d="M55 0l494 1444h334l491 -1444h-194l-187 553h-557l-188 -553h-193zM375 1686v147h680v-145zM489 713h449l-223 661z" />
    <glyph glyph-name="amacron" unicode="&#x101;" horiz-adv-x="1220" 
d="M102 283q0 265 340 297l400 38q-6 139 -72 206t-203 67q-112 0 -181.5 -57t-80.5 -179h-180q18 177 134 280t312 103q217 0 335 -123t118 -333v-426h150v-156h-187q-59 0 -91 32t-32 91v129q-19 -57 -50.5 -103.5t-81 -85.5t-122.5 -61t-164 -22q-85 0 -150 22t-100.5 54
t-58 75.5t-29 79t-6.5 72.5zM244 1260v147h680v-145zM283 305q0 -86 51 -131t141 -45q164 0 265.5 102t101.5 258l-369 -38q-98 -9 -144 -42t-46 -104z" />
    <glyph glyph-name="Abreve" unicode="&#x102;" horiz-adv-x="1429" 
d="M55 0l494 1444h334l491 -1444h-194l-187 553h-557l-188 -553h-193zM389 1935h148q0 -115 41.5 -166t136.5 -51t136.5 51t41.5 166h147q0 -160 -86.5 -259t-238.5 -99t-239 99t-87 259zM489 713h449l-223 661z" />
    <glyph glyph-name="abreve" unicode="&#x103;" horiz-adv-x="1220" 
d="M102 283q0 265 340 297l400 38q-6 139 -72 206t-203 67q-112 0 -181.5 -57t-80.5 -179h-180q18 177 134 280t312 103q217 0 335 -123t118 -333v-426h150v-156h-187q-59 0 -91 32t-32 91v129q-19 -57 -50.5 -103.5t-81 -85.5t-122.5 -61t-164 -22q-85 0 -150 22t-100.5 54
t-58 75.5t-29 79t-6.5 72.5zM258 1509h148q0 -115 41.5 -166t136.5 -51t136.5 51t41.5 166h147q0 -160 -86.5 -259t-238.5 -99t-239 99t-87 259zM283 305q0 -86 51 -131t141 -45q164 0 265.5 102t101.5 258l-369 -38q-98 -9 -144 -42t-46 -104z" />
    <glyph glyph-name="Aogonek" unicode="&#x104;" horiz-adv-x="1429" 
d="M55 0l494 1444h334l491 -1444h-14l-125 -250l371 2v-147h-402q-84 0 -117.5 53t7.5 125l114 217h-28l-187 553h-557l-188 -553h-193zM489 713h449l-223 661z" />
    <glyph glyph-name="aogonek" unicode="&#x105;" horiz-adv-x="1220" 
d="M102 283q0 265 340 297l400 38q-6 139 -72 206t-203 67q-112 0 -181.5 -57t-80.5 -179h-180q18 177 134 280t312 103q217 0 335 -123t118 -333v-426h150v-156h-5l-125 -250l371 2v-147h-401q-84 0 -118 53t7 125l115 217h-31q-59 0 -91 32t-32 91v129
q-19 -57 -50.5 -103.5t-81 -85.5t-122.5 -61t-164 -22q-85 0 -150 22t-100.5 54t-58 75.5t-29 79t-6.5 72.5zM283 305q0 -86 51 -131t141 -45q164 0 265.5 102t101.5 258l-369 -38q-98 -9 -144 -42t-46 -104z" />
    <glyph glyph-name="Cacute" unicode="&#x106;" horiz-adv-x="1581" 
d="M803 -23q-158 0 -288 57t-216 157t-133 236.5t-47 295.5q0 158 47 294t133 235.5t216 156.5t288 57q278 0 452.5 -154.5t206.5 -424.5h-186q-25 200 -147 309t-326 109q-238 0 -367 -159t-129 -423q0 -174 55 -304t168.5 -205t272.5 -75q204 0 326 110t147 310h186
q-32 -272 -206.5 -427t-452.5 -155zM446 1745l644 164l34 -140l-643 -163z" />
    <glyph glyph-name="cacute" unicode="&#x107;" horiz-adv-x="1208" 
d="M102 510q0 229 141 378.5t382 149.5q64 0 126.5 -14t124 -45.5t109.5 -77.5t81 -116.5t40 -155.5h-182q-21 132 -100.5 193t-198.5 61q-165 0 -253.5 -105.5t-88.5 -267.5q0 -106 37 -189t115.5 -134.5t189.5 -51.5q119 0 198.5 61t100.5 193h182q-7 -85 -40 -155.5
t-81 -116.5t-109.5 -77.5t-124 -45.5t-126.5 -14q-241 0 -382 149.5t-141 380.5zM281 1319l643 164l34 -140l-643 -163z" />
    <glyph glyph-name="Ccircumflex" unicode="&#x108;" horiz-adv-x="1581" 
d="M803 -23q-158 0 -288 57t-216 157t-133 236.5t-47 295.5q0 158 47 294t133 235.5t216 156.5t288 57q278 0 452.5 -154.5t206.5 -424.5h-186q-25 200 -147 309t-326 109q-238 0 -367 -159t-129 -423q0 -174 55 -304t168.5 -205t272.5 -75q204 0 326 110t147 310h186
q-32 -272 -206.5 -427t-452.5 -155zM449 1673l342 273l339 -273l-104 -102l-235 192l-238 -192z" />
    <glyph glyph-name="ccircumflex" unicode="&#x109;" horiz-adv-x="1208" 
d="M102 510q0 229 141 378.5t382 149.5q64 0 126.5 -14t124 -45.5t109.5 -77.5t81 -116.5t40 -155.5h-182q-21 132 -100.5 193t-198.5 61q-165 0 -253.5 -105.5t-88.5 -267.5q0 -106 37 -189t115.5 -134.5t189.5 -51.5q119 0 198.5 61t100.5 193h182q-7 -85 -40 -155.5
t-81 -116.5t-109.5 -77.5t-124 -45.5t-126.5 -14q-241 0 -382 149.5t-141 380.5zM283 1247l342 273l340 -273l-105 -102l-235 192l-238 -192z" />
    <glyph glyph-name="Cdotaccent" unicode="&#x10a;" horiz-adv-x="1581" 
d="M803 -23q-158 0 -288 57t-216 157t-133 236.5t-47 295.5q0 158 47 294t133 235.5t216 156.5t288 57q278 0 452.5 -154.5t206.5 -424.5h-186q-25 200 -147 309t-326 109q-238 0 -367 -159t-129 -423q0 -174 55 -304t168.5 -205t272.5 -75q204 0 326 110t147 310h186
q-32 -272 -206.5 -427t-452.5 -155zM643 1755q0 59 41 98t102 39q62 0 105 -39t43 -98t-43 -98t-105 -39q-61 0 -102 39t-41 98z" />
    <glyph glyph-name="cdotaccent" unicode="&#x10b;" horiz-adv-x="1208" 
d="M102 510q0 229 141 378.5t382 149.5q64 0 126.5 -14t124 -45.5t109.5 -77.5t81 -116.5t40 -155.5h-182q-21 132 -100.5 193t-198.5 61q-165 0 -253.5 -105.5t-88.5 -267.5q0 -106 37 -189t115.5 -134.5t189.5 -51.5q119 0 198.5 61t100.5 193h182q-7 -85 -40 -155.5
t-81 -116.5t-109.5 -77.5t-124 -45.5t-126.5 -14q-241 0 -382 149.5t-141 380.5zM477 1329q0 59 41.5 98t102.5 39q62 0 104.5 -39t42.5 -98t-42.5 -98t-104.5 -39q-61 0 -102.5 39t-41.5 98z" />
    <glyph glyph-name="Ccaron" unicode="&#x10c;" horiz-adv-x="1581" 
d="M803 -23q-158 0 -288 57t-216 157t-133 236.5t-47 295.5q0 158 47 294t133 235.5t216 156.5t288 57q278 0 452.5 -154.5t206.5 -424.5h-186q-25 200 -147 309t-326 109q-238 0 -367 -159t-129 -423q0 -174 55 -304t168.5 -205t272.5 -75q204 0 326 110t147 310h186
q-32 -272 -206.5 -427t-452.5 -155zM449 1847l104 101l238 -193l235 193l104 -101l-339 -272z" />
    <glyph glyph-name="ccaron" unicode="&#x10d;" horiz-adv-x="1208" 
d="M102 510q0 229 141 378.5t382 149.5q64 0 126.5 -14t124 -45.5t109.5 -77.5t81 -116.5t40 -155.5h-182q-21 132 -100.5 193t-198.5 61q-165 0 -253.5 -105.5t-88.5 -267.5q0 -106 37 -189t115.5 -134.5t189.5 -51.5q119 0 198.5 61t100.5 193h182q-7 -85 -40 -155.5
t-81 -116.5t-109.5 -77.5t-124 -45.5t-126.5 -14q-241 0 -382 149.5t-141 380.5zM283 1421l104 101l238 -193l235 193l105 -101l-340 -272z" />
    <glyph glyph-name="Dcaron" unicode="&#x10e;" horiz-adv-x="1462" 
d="M147 0v1444h465q83 0 153 -7t147 -27.5t138 -53.5t117 -88.5t93.5 -129.5t60 -179.5t22.5 -235.5t-22.5 -236t-60 -180t-93.5 -130t-117 -89t-138 -53.5t-147 -27.5t-153 -7h-465zM272 1847l105 101l237 -193l236 193l104 -101l-340 -272zM334 160h278q63 0 111.5 3.5
t108 17t103 36.5t88 65.5t72 100.5t45 144.5t17.5 195.5q0 85 -10.5 156t-28.5 124.5t-46 96t-58 71.5t-70.5 50t-77 33t-83.5 19t-85 9t-86 2h-278v-1124z" />
    <glyph glyph-name="dcaron" unicode="&#x10f;" horiz-adv-x="1673" 
d="M580 -20q-216 0 -347 148t-131 382t131 381t347 147q163 0 273.5 -73.5t164.5 -198.5v739h180v-1505h-180v252q-55 -127 -165.5 -199.5t-272.5 -72.5zM285 510q0 -183 99 -279t255 -96q102 0 185 40.5t135.5 127.5t52.5 207q0 119 -52.5 205.5t-135.5 127t-185 40.5
q-156 0 -255 -95.5t-99 -277.5zM1350 975v530h161v-530h-161z" />
    <glyph glyph-name="Dcroat" unicode="&#x110;" horiz-adv-x="1499" 
d="M180 0v647h-180v148h180v649h465q83 0 153 -7t147 -27.5t138 -53.5t117 -88.5t93.5 -129.5t60 -179.5t22.5 -235.5t-22.5 -236t-60 -180t-93.5 -130t-117 -89t-138 -53.5t-147 -27.5t-153 -7h-465zM367 160h278q63 0 111.5 3.5t108 17t103 36.5t88 65.5t72 100.5
t45 144.5t17.5 195.5q0 85 -10.5 156t-28.5 124.5t-46 96t-58 71.5t-70.5 50t-77 33t-83.5 19t-85 9t-86 2h-278v-489h356v-148h-356v-487z" />
    <glyph glyph-name="dcroat" unicode="&#x111;" horiz-adv-x="1361" 
d="M580 -20q-216 0 -347 148t-131 382t131 381t347 147q163 0 273.5 -73.5t164.5 -198.5v477h-293v148h293v114h180v-114h117v-148h-117v-1243h-180v252q-55 -127 -165.5 -199.5t-272.5 -72.5zM285 510q0 -183 99 -279t255 -96q102 0 185 40.5t135.5 127.5t52.5 207
q0 119 -52.5 205.5t-135.5 127t-185 40.5q-156 0 -255 -95.5t-99 -277.5z" />
    <glyph glyph-name="Emacron" unicode="&#x112;" horiz-adv-x="1257" 
d="M147 0v1444h1004v-160h-817v-483h715v-156h-715v-485h817v-160h-1004zM264 1686v147h680v-145z" />
    <glyph glyph-name="emacron" unicode="&#x113;" horiz-adv-x="1191" 
d="M270 1407h680v-145l-680 -2v147zM102 522q0 244 133 380t355 136q228 0 362.5 -131.5t134.5 -365.5v-66h-808q5 -157 87 -253.5t234 -96.5q127 0 205.5 61t105.5 170h181q-16 -75 -50.5 -139t-91.5 -119t-146 -86.5t-202 -31.5q-121 0 -217.5 42t-157.5 116t-93 172
t-32 212zM281 604h628q-9 137 -95 214t-224 77q-128 0 -213.5 -77.5t-95.5 -213.5z" />
    <glyph glyph-name="Edotaccent" unicode="&#x116;" horiz-adv-x="1257" 
d="M147 0v1444h1004v-160h-817v-483h715v-156h-715v-485h817v-160h-1004zM457 1755q0 59 41 98t102 39q62 0 105 -39t43 -98t-43 -98t-105 -39q-61 0 -102 39t-41 98z" />
    <glyph glyph-name="edotaccent" unicode="&#x117;" horiz-adv-x="1191" 
d="M606 1192q-61 0 -102 39t-41 98t41 98t102 39q62 0 105 -39t43 -98t-43 -98t-105 -39zM102 522q0 244 133 380t355 136q228 0 362.5 -131.5t134.5 -365.5v-66h-808q5 -157 87 -253.5t234 -96.5q127 0 205.5 61t105.5 170h181q-16 -75 -50.5 -139t-91.5 -119t-146 -86.5
t-202 -31.5q-121 0 -217.5 42t-157.5 116t-93 172t-32 212zM281 604h628q-9 137 -95 214t-224 77q-128 0 -213.5 -77.5t-95.5 -213.5z" />
    <glyph glyph-name="Eogonek" unicode="&#x118;" horiz-adv-x="1257" 
d="M147 0v1444h1004v-160h-817v-483h715v-156h-715v-485h817v-160h-291l-125 -250l371 2v-147h-401q-84 0 -118 53t7 125l115 217h-562z" />
    <glyph glyph-name="eogonek" unicode="&#x119;" horiz-adv-x="1191" 
d="M1016 -248v-147h-402q-84 0 -117.5 53t7.5 125l104 197h-6q-121 0 -217.5 42t-157.5 116t-93 172t-32 212q0 244 133 380t355 136q228 0 362.5 -131.5t134.5 -365.5v-66h-808q5 -157 87 -253.5t234 -96.5q127 0 205.5 61t105.5 170h181q-28 -126 -106 -221.5t-214 -132.5
l-127 -252zM281 604h628q-9 137 -95 214t-224 77q-128 0 -213.5 -77.5t-95.5 -213.5z" />
    <glyph glyph-name="Ecaron" unicode="&#x11a;" horiz-adv-x="1257" 
d="M147 0v1444h1004v-160h-817v-483h715v-156h-715v-485h817v-160h-1004zM262 1847l105 101l237 -193l236 193l104 -101l-340 -272z" />
    <glyph glyph-name="ecaron" unicode="&#x11b;" horiz-adv-x="1191" 
d="M268 1421l105 101l237 -193l236 193l104 -101l-340 -272zM102 522q0 244 133 380t355 136q228 0 362.5 -131.5t134.5 -365.5v-66h-808q5 -157 87 -253.5t234 -96.5q127 0 205.5 61t105.5 170h181q-16 -75 -50.5 -139t-91.5 -119t-146 -86.5t-202 -31.5q-121 0 -217.5 42
t-157.5 116t-93 172t-32 212zM281 604h628q-9 137 -95 214t-224 77q-128 0 -213.5 -77.5t-95.5 -213.5z" />
    <glyph glyph-name="Gcircumflex" unicode="&#x11c;" horiz-adv-x="1626" 
d="M768 -23q-160 0 -285.5 55.5t-204 155t-119 231.5t-40.5 290q0 228 80.5 398t236.5 264.5t371 94.5q262 0 430 -143.5t203 -394.5h-189q-25 181 -139 280t-299 99q-243 0 -374.5 -163t-131.5 -439q0 -121 27.5 -220.5t85 -179t155.5 -124t230 -44.5q238 0 360 127.5
t115 368.5h-559v143h620q129 0 129 -121v-655h-186v289q-14 -41 -36.5 -80.5t-65 -83t-97.5 -75t-137 -52.5t-180 -21zM459 1673l342 273l340 -273l-105 -102l-235 192l-238 -192z" />
    <glyph glyph-name="gcircumflex" unicode="&#x11d;" horiz-adv-x="1343" 
d="M580 -20q-216 0 -347 148t-131 382t131 381t347 147q163 0 273.5 -73.5t164.5 -198.5v252h180v-1292q0 -125 -141 -125h-778v155h737v244h2v252q-55 -127 -165.5 -199.5t-272.5 -72.5zM285 510q0 -184 98.5 -279.5t255.5 -95.5q160 0 266.5 97.5t106.5 277.5
q0 120 -52 206t-135 126.5t-186 40.5q-158 0 -256 -94.5t-98 -278.5zM324 1247l342 273l340 -273l-105 -102l-235 192l-238 -192z" />
    <glyph glyph-name="Gbreve" unicode="&#x11e;" horiz-adv-x="1626" 
d="M768 -23q-160 0 -285.5 55.5t-204 155t-119 231.5t-40.5 290q0 228 80.5 398t236.5 264.5t371 94.5q262 0 430 -143.5t203 -394.5h-189q-25 181 -139 280t-299 99q-243 0 -374.5 -163t-131.5 -439q0 -121 27.5 -220.5t85 -179t155.5 -124t230 -44.5q238 0 360 127.5
t115 368.5h-559v143h620q129 0 129 -121v-655h-186v289q-14 -41 -36.5 -80.5t-65 -83t-97.5 -75t-137 -52.5t-180 -21zM475 1935h148q0 -115 41.5 -166t136.5 -51t136.5 51t41.5 166h147q0 -160 -86.5 -259t-238.5 -99t-239 99t-87 259z" />
    <glyph glyph-name="gbreve" unicode="&#x11f;" horiz-adv-x="1343" 
d="M580 -20q-216 0 -347 148t-131 382t131 381t347 147q163 0 273.5 -73.5t164.5 -198.5v252h180v-1292q0 -125 -141 -125h-778v155h737v244h2v252q-55 -127 -165.5 -199.5t-272.5 -72.5zM285 510q0 -184 98.5 -279.5t255.5 -95.5q160 0 266.5 97.5t106.5 277.5
q0 120 -52 206t-135 126.5t-186 40.5q-158 0 -256 -94.5t-98 -278.5zM340 1509h147q0 -114 42 -165.5t137 -51.5t136.5 51t41.5 166h147q0 -160 -86.5 -259t-238.5 -99t-239 99t-87 259z" />
    <glyph glyph-name="Gdotaccent" unicode="&#x120;" horiz-adv-x="1626" 
d="M768 -23q-160 0 -285.5 55.5t-204 155t-119 231.5t-40.5 290q0 228 80.5 398t236.5 264.5t371 94.5q262 0 430 -143.5t203 -394.5h-189q-25 181 -139 280t-299 99q-243 0 -374.5 -163t-131.5 -439q0 -121 27.5 -220.5t85 -179t155.5 -124t230 -44.5q238 0 360 127.5
t115 368.5h-559v143h620q129 0 129 -121v-655h-186v289q-14 -41 -36.5 -80.5t-65 -83t-97.5 -75t-137 -52.5t-180 -21zM653 1755q0 59 41.5 98t102.5 39q62 0 104.5 -39t42.5 -98t-42.5 -98t-104.5 -39q-61 0 -102.5 39t-41.5 98z" />
    <glyph glyph-name="gdotaccent" unicode="&#x121;" horiz-adv-x="1343" 
d="M580 -20q-216 0 -347 148t-131 382t131 381t347 147q163 0 273.5 -73.5t164.5 -198.5v252h180v-1292q0 -125 -141 -125h-778v155h737v244h2v252q-55 -127 -165.5 -199.5t-272.5 -72.5zM285 510q0 -184 98.5 -279.5t255.5 -95.5q160 0 266.5 97.5t106.5 277.5
q0 120 -52 206t-135 126.5t-186 40.5q-158 0 -256 -94.5t-98 -278.5zM518 1329q0 59 41.5 98t102.5 39q62 0 104.5 -39t42.5 -98t-42.5 -98t-104.5 -39q-61 0 -102.5 39t-41.5 98z" />
    <glyph glyph-name="uni0122" unicode="&#x122;" horiz-adv-x="1626" 
d="M768 -23q-160 0 -285.5 55.5t-204 155t-119 231.5t-40.5 290q0 228 80.5 398t236.5 264.5t371 94.5q262 0 430 -143.5t203 -394.5h-189q-25 181 -139 280t-299 99q-243 0 -374.5 -163t-131.5 -439q0 -121 27.5 -220.5t85 -179t155.5 -124t230 -44.5q238 0 360 127.5
t115 368.5h-559v143h620q129 0 129 -121v-655h-186v289q-14 -41 -36.5 -80.5t-65 -83t-97.5 -75t-137 -52.5t-180 -21zM567 -440l111 340l156 -45l-111 -338z" />
    <glyph glyph-name="uni0123" unicode="&#x123;" horiz-adv-x="1343" 
d="M580 -20q-216 0 -347 148t-131 382t131 381t347 147q163 0 273.5 -73.5t164.5 -198.5v252h180v-1292q0 -125 -141 -125h-778v155h737v244h2v252q-55 -127 -165.5 -199.5t-272.5 -72.5zM285 510q0 -184 98.5 -279.5t255.5 -95.5q160 0 266.5 97.5t106.5 277.5
q0 120 -52 206t-135 126.5t-186 40.5q-158 0 -256 -94.5t-98 -278.5zM592 1217l108 378l158 -43l-108 -376z" />
    <glyph glyph-name="Hcircumflex" unicode="&#x124;" horiz-adv-x="1490" 
d="M147 1444h187v-651h823v651h186v-1444h-186v631h-823v-631h-187v1444zM403 1673l342 273l340 -273l-104 -102l-236 192l-237 -192z" />
    <glyph glyph-name="hcircumflex" unicode="&#x125;" horiz-adv-x="1243" 
d="M143 0v1505h183v-764q42 140 149.5 218.5t272.5 78.5q176 0 274 -111t98 -315v-612h-182v592q0 155 -61 223t-193 68q-165 0 -261.5 -122.5t-96.5 -328.5v-432h-183zM-109 1735l342 272l340 -272l-104 -103l-236 193l-237 -193z" />
    <glyph glyph-name="Hbar" unicode="&#x126;" horiz-adv-x="1513" 
d="M158 1444h186v-199h823v199h187v-199h129v-147h-129v-1098h-187v631h-823v-631h-186v1098h-125v147h125v199zM344 793h823v305h-823v-305z" />
    <glyph glyph-name="hbar" unicode="&#x127;" horiz-adv-x="1265" 
d="M164 0v1243h-119v148h119v114h182v-114h289v-148h-289v-502q42 140 149.5 218.5t272.5 78.5q176 0 274.5 -111t98.5 -315v-612h-183v592q0 155 -60.5 223t-192.5 68q-165 0 -262 -122.5t-97 -328.5v-432h-182z" />
    <glyph glyph-name="Itilde" unicode="&#x128;" horiz-adv-x="1081" 
d="M125 1444h831v-160h-323v-1124h323v-160h-831v160h324v1124h-324v160zM162 1634q0 149 58 219t159 70q48 0 90 -17t70.5 -41t53 -48t50 -41t49.5 -17q40 0 62 30t22 114h146q0 -149 -58 -219t-159 -70q-48 0 -89.5 17t-70 41t-53.5 48t-51 41t-50 17q-39 0 -60.5 -29.5
t-21.5 -114.5h-147z" />
    <glyph glyph-name="itilde" unicode="&#x129;" horiz-adv-x="907" 
d="M106 0v156h283v706h-211v156h264q115 0 115 -119v-743h285v-156h-736zM74 1208q0 149 58 219t159 70q48 0 90 -17t70.5 -41t53 -48t50 -41t49.5 -17q40 0 62 30t22 114h146q0 -148 -58.5 -218.5t-159.5 -70.5q-48 0 -89.5 17t-70 41t-53.5 48t-50.5 41t-49.5 17
q-39 0 -60.5 -29.5t-21.5 -114.5h-147z" />
    <glyph glyph-name="Imacron" unicode="&#x12a;" horiz-adv-x="1081" 
d="M125 1444h831v-160h-323v-1124h323v-160h-831v160h324v1124h-324v160zM201 1686v147h680v-145z" />
    <glyph glyph-name="imacron" unicode="&#x12b;" horiz-adv-x="919" 
d="M115 0v156h282v706h-211v156h265q114 0 114 -119v-743h285v-156h-735zM121 1260v147h680v-145z" />
    <glyph glyph-name="Iogonek" unicode="&#x12e;" horiz-adv-x="1081" 
d="M125 1444h831v-160h-323v-1124h323v-160h-340l-124 -250l370 2v-147h-401q-84 0 -118 53t7 125l115 217h-340v160h324v1124h-324v160z" />
    <glyph glyph-name="iogonek" unicode="&#x12f;" horiz-adv-x="907" 
d="M106 0v156h283v706h-211v156h264q115 0 115 -119v-743h285v-156h-262l-125 -250l370 2v-147h-401q-84 0 -118 53t7 125l115 217h-322zM307 1329q0 59 41.5 98t102.5 39q62 0 104.5 -39t42.5 -98t-42.5 -98t-104.5 -39q-61 0 -102.5 39t-41.5 98z" />
    <glyph glyph-name="Idotaccent" unicode="&#x130;" horiz-adv-x="1081" 
d="M125 1444h831v-160h-323v-1124h323v-160h-831v160h324v1124h-324v160zM393 1755q0 59 41.5 98t102.5 39q62 0 104.5 -39t42.5 -98t-42.5 -98t-104.5 -39q-61 0 -102.5 39t-41.5 98z" />
    <glyph glyph-name="dotlessi" unicode="&#x131;" horiz-adv-x="907" 
d="M106 0v156h283v706h-211v156h264q115 0 115 -119v-743h285v-156h-736z" />
    <glyph glyph-name="IJ" unicode="&#x132;" horiz-adv-x="1232" 
d="M147 0v160h506q146 0 207.5 87t61.5 259v938h186v-989q0 -221 -106 -338t-306 -117h-549zM147 334v1110h187v-1110h-187z" />
    <glyph glyph-name="ij" unicode="&#x133;" horiz-adv-x="1449" 
d="M1083 -59q24 43 31.5 76.5t7.5 86.5v758h-565v-706h285v-156h-736v156h283v706h-211v156h996q64 0 96.5 -27.5t32.5 -89.5v-829q0 -51 -8 -84.5t-31 -77.5l-156 -299h-197zM307 1329q0 60 41 98.5t103 38.5t104.5 -39t42.5 -98t-42.5 -98t-104.5 -39t-103 38.5t-41 98.5z
M1049 1329q0 60 40.5 98.5t102.5 38.5t103.5 -38.5t41.5 -98.5t-41.5 -98.5t-103.5 -38.5t-102.5 38.5t-40.5 98.5z" />
    <glyph glyph-name="Jcircumflex" unicode="&#x134;" horiz-adv-x="1112" 
d="M578 0h-510v160h467q146 0 207 87t61 259v778h-529v160h572q78 0 109.5 -29.5t31.5 -103.5v-856q0 -221 -105 -338t-304 -117zM295 1673l342 273l340 -273l-105 -102l-235 192l-238 -192z" />
    <glyph glyph-name="jcircumflex" unicode="&#x135;" horiz-adv-x="622" 
d="M256 -59q24 43 31.5 76.5t7.5 86.5v758h-215v156h266q64 0 96.5 -27.5t32.5 -89.5v-829q0 -51 -8 -84.5t-31 -77.5l-155 -299h-197zM25 1247l342 273l340 -273l-105 -102l-235 192l-238 -192z" />
    <glyph glyph-name="uni0136" unicode="&#x136;" horiz-adv-x="1353" 
d="M147 0v1444h187v-637l700 637h248l-778 -705l784 -739h-260l-694 653v-653h-187zM477 -440l111 340l155 -45l-110 -338z" />
    <glyph glyph-name="uni0137" unicode="&#x137;" horiz-adv-x="1118" 
d="M143 0v1505h183v-913l489 426h238l-561 -494l557 -524h-234l-489 459v-459h-183zM356 -440l111 340l156 -45l-111 -338z" />
    <glyph glyph-name="Lacute" unicode="&#x139;" horiz-adv-x="1122" 
d="M281 0q-62 0 -95.5 33t-33.5 96v1315h186v-1284h723v-160h-780zM150 1745l643 164l34 -140l-643 -163z" />
    <glyph glyph-name="lacute" unicode="&#x13a;" horiz-adv-x="915" 
d="M96 0v156h285v1194h-213v155h289q106 0 106 -102v-1247h285v-156h-752zM82 1806l643 164l35 -139l-643 -164z" />
    <glyph glyph-name="uni013B" unicode="&#x13b;" horiz-adv-x="1120" 
d="M276 0q-62 0 -95.5 33t-33.5 96v1315h187v-1284h723v-160h-781zM453 -440l110 340l156 -45l-111 -338z" />
    <glyph glyph-name="uni013C" unicode="&#x13c;" horiz-adv-x="903" 
d="M86 0v156h285v1194h-213v155h288q107 0 107 -102v-1247h285v-156h-752zM258 -440l111 340l155 -45l-110 -338z" />
    <glyph glyph-name="Lcaron" unicode="&#x13d;" horiz-adv-x="1120" 
d="M276 0q-62 0 -95.5 33t-33.5 96v1315h187v-1284h723v-160h-781zM713 913v531h161v-531h-161z" />
    <glyph glyph-name="lcaron" unicode="&#x13e;" horiz-adv-x="921" 
d="M86 0v156h285v1194h-213v155h288q107 0 107 -102v-1247h285v-156h-752zM680 975v530h162v-530h-162z" />
    <glyph glyph-name="Lslash" unicode="&#x141;" horiz-adv-x="1157" 
d="M311 0q-62 0 -95.5 33t-33.5 96v533l-250 -68l-36 141l286 78v631h187v-582l247 68l37 -139l-284 -78v-553h723v-160h-781z" />
    <glyph glyph-name="lslash" unicode="&#x142;" horiz-adv-x="903" 
d="M86 0v156h285v493l-242 -65l-35 139l277 76v551h-213v155h288q107 0 107 -102v-555l238 65l36 -141l-274 -74v-542h285v-156h-752z" />
    <glyph glyph-name="Nacute" unicode="&#x143;" horiz-adv-x="1560" 
d="M147 0v1444h345l737 -1378v1378h184v-1444h-344l-735 1378v-1378h-187zM477 1745l643 164l35 -140l-643 -163z" />
    <glyph glyph-name="nacute" unicode="&#x144;" horiz-adv-x="1243" 
d="M143 0v1018h183v-277q42 140 149.5 218.5t272.5 78.5q176 0 274 -111t98 -315v-612h-182v592q0 155 -61 223t-193 68q-165 0 -261.5 -122.5t-96.5 -328.5v-432h-183zM326 1319l643 164l35 -140l-644 -163z" />
    <glyph glyph-name="uni0145" unicode="&#x145;" horiz-adv-x="1560" 
d="M147 0v1444h345l737 -1378v1378h184v-1444h-344l-735 1378v-1378h-187zM580 -440l110 340l156 -45l-111 -338z" />
    <glyph glyph-name="uni0146" unicode="&#x146;" horiz-adv-x="1243" 
d="M143 0v1018h183v-277q42 140 149.5 218.5t272.5 78.5q176 0 274 -111t98 -315v-612h-182v592q0 155 -61 223t-193 68q-165 0 -261.5 -122.5t-96.5 -328.5v-432h-183zM434 -440l111 340l155 -45l-110 -338z" />
    <glyph glyph-name="Ncaron" unicode="&#x147;" horiz-adv-x="1560" 
d="M147 0v1444h345l737 -1378v1378h184v-1444h-344l-735 1378v-1378h-187zM481 1847l105 101l237 -193l236 193l104 -101l-340 -272z" />
    <glyph glyph-name="ncaron" unicode="&#x148;" horiz-adv-x="1243" 
d="M143 0v1018h183v-277q42 140 149.5 218.5t272.5 78.5q176 0 274 -111t98 -315v-612h-182v592q0 155 -61 223t-193 68q-165 0 -261.5 -122.5t-96.5 -328.5v-432h-183zM330 1421l104 101l238 -193l235 193l105 -101l-340 -272z" />
    <glyph glyph-name="Eng" unicode="&#x14a;" horiz-adv-x="1556" 
d="M147 0v1444h345l737 -1378v1378h184v-1723q0 -62 -29.5 -88t-103.5 -26h-414v155h365v238h-162l-735 1378v-1378h-187z" />
    <glyph glyph-name="eng" unicode="&#x14b;" horiz-adv-x="1243" 
d="M143 0v1018h183v-277q42 140 149.5 218.5t272.5 78.5q176 0 274 -111t98 -315v-884q0 -125 -145 -125h-404v155h367v834q0 155 -61 223t-193 68q-165 0 -261.5 -122.5t-96.5 -328.5v-432h-183z" />
    <glyph glyph-name="Omacron" unicode="&#x14c;" horiz-adv-x="1599" 
d="M119 723q0 158 47 294t133 235.5t215.5 156.5t286.5 57t286 -57t215 -156.5t132.5 -235.5t46.5 -294q0 -159 -46.5 -295.5t-132.5 -236.5t-215 -157t-286 -57t-286.5 57t-215.5 157t-133 236.5t-47 295.5zM307 723q0 -173 53.5 -302.5t166 -205.5t274.5 -76t274.5 76
t165.5 205.5t53 302.5q0 172 -53 301t-165.5 205t-274.5 76q-122 0 -217 -43t-155 -121.5t-91 -184t-31 -233.5zM463 1686v147h680v-145z" />
    <glyph glyph-name="omacron" unicode="&#x14d;" horiz-adv-x="1284" 
d="M102 510q0 229 150 378.5t391 149.5q240 0 389.5 -149.5t149.5 -378.5q0 -230 -149.5 -380t-389.5 -150q-120 0 -221.5 40.5t-171.5 111t-109 168t-39 210.5zM283 510q0 -162 95.5 -268.5t264.5 -106.5q167 0 262.5 106.5t95.5 268.5q0 160 -95.5 266.5t-262.5 106.5
q-169 0 -264.5 -106.5t-95.5 -266.5zM303 1260v147h680v-145z" />
    <glyph glyph-name="Ohungarumlaut" unicode="&#x150;" horiz-adv-x="1599" 
d="M119 723q0 158 47 294t133 235.5t215.5 156.5t286.5 57t286 -57t215 -156.5t132.5 -235.5t46.5 -294q0 -159 -46.5 -295.5t-132.5 -236.5t-215 -157t-286 -57t-286.5 57t-215.5 157t-133 236.5t-47 295.5zM307 723q0 -173 53.5 -302.5t166 -205.5t274.5 -76t274.5 76
t165.5 205.5t53 302.5q0 172 -53 301t-165.5 205t-274.5 76q-122 0 -217 -43t-155 -121.5t-91 -184t-31 -233.5zM422 1675l303 289l102 -100l-303 -287zM776 1675l301 289l103 -100l-303 -287z" />
    <glyph glyph-name="ohungarumlaut" unicode="&#x151;" horiz-adv-x="1284" 
d="M102 510q0 229 150 378.5t391 149.5q240 0 389.5 -149.5t149.5 -378.5q0 -230 -149.5 -380t-389.5 -150q-120 0 -221.5 40.5t-171.5 111t-109 168t-39 210.5zM264 1249l303 289l103 -100l-303 -287zM283 510q0 -162 95.5 -268.5t264.5 -106.5q167 0 262.5 106.5
t95.5 268.5q0 160 -95.5 266.5t-262.5 106.5q-169 0 -264.5 -106.5t-95.5 -266.5zM618 1249l302 289l102 -100l-303 -287z" />
    <glyph glyph-name="OE" unicode="&#x152;" horiz-adv-x="2408" 
d="M119 723q0 158 47 294t133 235.5t215.5 156.5t286.5 57q309 0 497 -211v189h1004v-160h-817v-483h715v-156h-715v-485h817v-160h-1004v188q-188 -211 -497 -211q-157 0 -286.5 57t-215.5 157t-133 236.5t-47 295.5zM307 723q0 -173 53.5 -302.5t166 -205.5t274.5 -76
t274.5 76t165.5 205.5t53 302.5q0 172 -53 301t-165.5 205t-274.5 76q-122 0 -217 -43t-155 -121.5t-91 -184t-31 -233.5z" />
    <glyph glyph-name="oe" unicode="&#x153;" horiz-adv-x="2099" 
d="M102 510q0 229 150 378.5t391 149.5q143 0 256.5 -56t185.5 -155q61 103 167.5 157t244.5 54q228 0 363 -131.5t135 -365.5v-66h-809q5 -157 87 -253.5t234 -96.5q127 0 206 61t106 170h180q-16 -75 -50.5 -139t-91.5 -119t-146 -86.5t-202 -31.5q-286 0 -417 221
q-72 -104 -187.5 -162.5t-261.5 -58.5q-120 0 -221.5 40.5t-171.5 111t-109 168t-39 210.5zM283 510q0 -162 95.5 -268.5t264.5 -106.5q167 0 262.5 106.5t95.5 268.5q0 160 -95.5 266.5t-262.5 106.5q-169 0 -264.5 -106.5t-95.5 -266.5zM1188 604h629q-9 137 -95.5 214
t-224.5 77q-128 0 -213.5 -77.5t-95.5 -213.5z" />
    <glyph glyph-name="Racute" unicode="&#x154;" horiz-adv-x="1384" 
d="M147 0v1444h535q107 0 189 -10.5t154.5 -37t119 -70.5t73.5 -113.5t27 -163.5q0 -301 -252 -365h107q147 0 147 -152v-532h-184v571h-729v-571h-187zM311 1745l643 164l35 -140l-643 -163zM334 731h348q78 0 129.5 4.5t103.5 21t81 46t47 80.5t18 125q0 54 -9.5 96
t-24.5 71t-42.5 49t-55 32t-71 18t-82 8t-94.5 2h-348v-553z" />
    <glyph glyph-name="racute" unicode="&#x155;" horiz-adv-x="917" 
d="M152 877q0 141 143 141h575v-156h-536v-862h-182v877zM182 1319l643 164l35 -140l-643 -163z" />
    <glyph glyph-name="uni0156" unicode="&#x156;" horiz-adv-x="1384" 
d="M147 0v1444h535q107 0 189 -10.5t154.5 -37t119 -70.5t73.5 -113.5t27 -163.5q0 -301 -252 -365h107q147 0 147 -152v-532h-184v571h-729v-571h-187zM334 731h348q78 0 129.5 4.5t103.5 21t81 46t47 80.5t18 125q0 54 -9.5 96t-24.5 71t-42.5 49t-55 32t-71 18t-82 8
t-94.5 2h-348v-553zM516 -440l111 340l155 -45l-110 -338z" />
    <glyph glyph-name="uni0157" unicode="&#x157;" horiz-adv-x="913" 
d="M145 877q0 141 144 141h575v-156h-536v-862h-183v877zM37 -440l110 340l156 -45l-110 -338z" />
    <glyph glyph-name="Rcaron" unicode="&#x158;" horiz-adv-x="1384" 
d="M147 0v1444h535q107 0 189 -10.5t154.5 -37t119 -70.5t73.5 -113.5t27 -163.5q0 -301 -252 -365h107q147 0 147 -152v-532h-184v571h-729v-571h-187zM315 1847l105 101l237 -193l236 193l104 -101l-340 -272zM334 731h348q78 0 129.5 4.5t103.5 21t81 46t47 80.5t18 125
q0 54 -9.5 96t-24.5 71t-42.5 49t-55 32t-71 18t-82 8t-94.5 2h-348v-553z" />
    <glyph glyph-name="rcaron" unicode="&#x159;" horiz-adv-x="919" 
d="M150 877q0 141 143 141h575v-156h-536v-862h-182v877zM184 1421l105 101l237 -193l236 193l104 -101l-340 -272z" />
    <glyph glyph-name="Sacute" unicode="&#x15a;" horiz-adv-x="1396" 
d="M1311 385q0 -408 -553 -408q-327 0 -498.5 146.5t-171.5 419.5h188q0 -408 486 -408q186 0 273 59.5t87 180.5q0 179 -241 241l-404 105q-321 83 -321 362q0 187 131.5 285t380.5 98q291 0 445.5 -131.5t154.5 -367.5h-191q0 344 -409 344q-324 0 -324 -219
q0 -165 219 -222l400 -100q173 -44 260.5 -142.5t87.5 -242.5zM356 1745l643 164l35 -140l-643 -163z" />
    <glyph glyph-name="sacute" unicode="&#x15b;" horiz-adv-x="1036" 
d="M565 -20q-228 0 -353.5 103t-125.5 292h182q0 -124 78 -188t221 -64q109 0 163 36t54 113q0 53 -35 85.5t-114 54.5l-273 80q-235 67 -235 268q0 133 103 205.5t286 72.5q199 0 312.5 -89t113.5 -253h-182q0 93 -63 147t-179 54q-96 0 -153.5 -37.5t-57.5 -95.5
q0 -50 35 -82.5t111 -54.5l237 -68q136 -39 206.5 -108t70.5 -183q0 -139 -103 -213.5t-299 -74.5zM182 1319l643 164l35 -140l-643 -163z" />
    <glyph glyph-name="Scircumflex" unicode="&#x15c;" horiz-adv-x="1396" 
d="M1311 385q0 -408 -553 -408q-327 0 -498.5 146.5t-171.5 419.5h188q0 -408 486 -408q186 0 273 59.5t87 180.5q0 179 -241 241l-404 105q-321 83 -321 362q0 187 131.5 285t380.5 98q291 0 445.5 -131.5t154.5 -367.5h-191q0 344 -409 344q-324 0 -324 -219
q0 -165 219 -222l400 -100q173 -44 260.5 -142.5t87.5 -242.5zM358 1673l342 273l340 -273l-104 -102l-236 192l-237 -192z" />
    <glyph glyph-name="scircumflex" unicode="&#x15d;" horiz-adv-x="1036" 
d="M565 -20q-228 0 -353.5 103t-125.5 292h182q0 -124 78 -188t221 -64q109 0 163 36t54 113q0 53 -35 85.5t-114 54.5l-273 80q-235 67 -235 268q0 133 103 205.5t286 72.5q199 0 312.5 -89t113.5 -253h-182q0 93 -63 147t-179 54q-96 0 -153.5 -37.5t-57.5 -95.5
q0 -50 35 -82.5t111 -54.5l237 -68q136 -39 206.5 -108t70.5 -183q0 -139 -103 -213.5t-299 -74.5zM186 1247l342 273l340 -273l-104 -102l-236 192l-237 -192z" />
    <glyph glyph-name="Scedilla" unicode="&#x15e;" horiz-adv-x="1396" 
d="M1311 385q0 -408 -553 -408l-92 -94q76 31 141 31q58 0 97.5 -28t39.5 -87q0 -40 -14 -70t-43 -50t-64.5 -32.5t-89.5 -19t-105.5 -8.5t-123.5 -2v131h16q84 0 121.5 1t82 7t60 19.5t15.5 36.5q0 41 -47 41q-55 0 -144 -54l-76 92l76 95q-256 32 -388 174.5t-132 382.5
h188q0 -408 486 -408q186 0 273 59.5t87 180.5q0 179 -241 241l-404 105q-321 83 -321 362q0 187 131.5 285t380.5 98q291 0 445.5 -131.5t154.5 -367.5h-191q0 344 -409 344q-324 0 -324 -219q0 -165 219 -222l400 -100q173 -44 260.5 -142.5t87.5 -242.5z" />
    <glyph glyph-name="scedilla" unicode="&#x15f;" horiz-adv-x="1036" 
d="M330 -252h16q84 0 121.5 1t82 7t60 19.5t15.5 36.5q0 41 -47 41q-55 0 -144 -54l-76 92l78 99q-168 28 -259 127t-91 258h182q0 -124 78 -188t221 -64q109 0 163 36t54 113q0 53 -35 85.5t-114 54.5l-273 80q-235 67 -235 268q0 133 103 205.5t286 72.5q199 0 312.5 -89
t113.5 -253h-182q0 93 -63 147t-179 54q-96 0 -153.5 -37.5t-57.5 -95.5q0 -50 35 -82.5t111 -54.5l237 -68q136 -39 206.5 -108t70.5 -183q0 -136 -97 -210t-284 -78l-94 -97q76 31 141 31q58 0 97.5 -28t39.5 -87q0 -40 -14 -70t-43 -50t-64.5 -32.5t-89.5 -19
t-105.5 -8.5t-123.5 -2v131z" />
    <glyph glyph-name="Scaron" unicode="&#x160;" horiz-adv-x="1396" 
d="M1311 385q0 -408 -553 -408q-327 0 -498.5 146.5t-171.5 419.5h188q0 -408 486 -408q186 0 273 59.5t87 180.5q0 179 -241 241l-404 105q-321 83 -321 362q0 187 131.5 285t380.5 98q291 0 445.5 -131.5t154.5 -367.5h-191q0 344 -409 344q-324 0 -324 -219
q0 -165 219 -222l400 -100q173 -44 260.5 -142.5t87.5 -242.5zM358 1847l105 101l237 -193l236 193l104 -101l-340 -272z" />
    <glyph glyph-name="scaron" unicode="&#x161;" horiz-adv-x="1036" 
d="M565 -20q-228 0 -353.5 103t-125.5 292h182q0 -124 78 -188t221 -64q109 0 163 36t54 113q0 53 -35 85.5t-114 54.5l-273 80q-235 67 -235 268q0 133 103 205.5t286 72.5q199 0 312.5 -89t113.5 -253h-182q0 93 -63 147t-179 54q-96 0 -153.5 -37.5t-57.5 -95.5
q0 -50 35 -82.5t111 -54.5l237 -68q136 -39 206.5 -108t70.5 -183q0 -139 -103 -213.5t-299 -74.5zM186 1421l105 101l237 -193l236 193l104 -101l-340 -272z" />
    <glyph glyph-name="uni0162" unicode="&#x162;" horiz-adv-x="1351" 
d="M86 1444h1180v-160h-496v-1284h-14l-115 -117q76 31 141 31q59 0 98.5 -28t39.5 -87q0 -40 -14 -70t-43.5 -50t-65 -32.5t-89.5 -19t-105.5 -8.5t-123.5 -2v131h16q84 0 121.5 1t82 7t60 19.5t15.5 36.5q0 41 -47 41q-54 0 -143 -54l-76 92l86 109h-10v1284h-498v160z
" />
    <glyph glyph-name="uni0163" unicode="&#x163;" horiz-adv-x="899" 
d="M813 156v-156h-182l-115 -117q76 31 141 31q59 0 98.5 -28t39.5 -87q0 -40 -14 -70t-43.5 -50t-65 -32.5t-89.5 -19t-105.5 -8.5t-123.5 -2v131h16q84 0 121.5 1t82 7t60 19.5t15.5 36.5q0 41 -47 41q-54 0 -143 -54l-76 92l86 109h-55q-144 0 -144 143v719h-225v156h225
v258l183 55v-313h319v-156h-319v-708z" />
    <glyph glyph-name="Tcaron" unicode="&#x164;" horiz-adv-x="1351" 
d="M86 1444h1180v-160h-496v-1284h-186v1284h-498v160zM336 1847l104 101l238 -193l235 193l105 -101l-340 -272z" />
    <glyph glyph-name="tcaron" unicode="&#x165;" horiz-adv-x="901" 
d="M813 156v-156h-399q-144 0 -144 143v719h-225v156h225v258l183 55v-313h319v-156h-319v-708zM645 1137v368h162v-368h-162z" />
    <glyph glyph-name="Tbar" unicode="&#x166;" horiz-adv-x="1351" 
d="M86 1444h1180v-160h-496v-489h268v-148h-268v-647h-186v647h-269v148h269v489h-498v160z" />
    <glyph glyph-name="tbar" unicode="&#x167;" horiz-adv-x="899" 
d="M813 156v-156h-399q-144 0 -144 143v375h-184v137h184v207h-225v156h225v258l183 55v-313h319v-156h-319v-207h260v-137h-260v-364z" />
    <glyph glyph-name="Utilde" unicode="&#x168;" horiz-adv-x="1380" 
d="M109 537v907h186v-869q0 -112 19 -190.5t64 -135t121.5 -83.5t188.5 -27q219 0 308 105.5t89 330.5v869h187v-907q0 -274 -145 -417t-439 -143q-579 0 -579 560zM309 1634q0 149 58 219t159 70q48 0 90 -17t70.5 -41t53.5 -48t50.5 -41t49.5 -17q40 0 62 30t22 114h145
q0 -149 -58 -219t-159 -70q-48 0 -89.5 17t-70 41t-53.5 48t-50.5 41t-49.5 17q-39 0 -60.5 -29.5t-21.5 -114.5h-148z" />
    <glyph glyph-name="utilde" unicode="&#x169;" horiz-adv-x="1243" 
d="M498 -20q-178 0 -276.5 111.5t-98.5 316.5v610h184v-592q0 -155 60 -223t192 -68q167 0 264 122.5t97 328.5v432h180v-1018h-180v279q-42 -141 -150 -220t-272 -79zM248 1208q0 149 58 219t159 70q48 0 90 -17t70.5 -41t53 -48t50 -41t49.5 -17q40 0 62 30t22 114h146
q0 -149 -58 -219t-159 -70q-48 0 -89.5 17t-70 41t-53.5 48t-51 41t-50 17q-39 0 -60.5 -29.5t-21.5 -114.5h-147z" />
    <glyph glyph-name="Umacron" unicode="&#x16a;" horiz-adv-x="1380" 
d="M109 537v907h186v-869q0 -112 19 -190.5t64 -135t121.5 -83.5t188.5 -27q219 0 308 105.5t89 330.5v869h187v-907q0 -274 -145 -417t-439 -143q-579 0 -579 560zM348 1686v147h680v-145z" />
    <glyph glyph-name="umacron" unicode="&#x16b;" horiz-adv-x="1243" 
d="M498 -20q-178 0 -276.5 111.5t-98.5 316.5v610h184v-592q0 -155 60 -223t192 -68q167 0 264 122.5t97 328.5v432h180v-1018h-180v279q-42 -141 -150 -220t-272 -79zM289 1260v147h680v-145z" />
    <glyph glyph-name="Ubreve" unicode="&#x16c;" horiz-adv-x="1380" 
d="M109 537v907h186v-869q0 -112 19 -190.5t64 -135t121.5 -83.5t188.5 -27q219 0 308 105.5t89 330.5v869h187v-907q0 -274 -145 -417t-439 -143q-579 0 -579 560zM362 1935h148q0 -115 41.5 -166t136.5 -51t136.5 51t41.5 166h148q0 -160 -87 -259t-239 -99t-239 99
t-87 259z" />
    <glyph glyph-name="ubreve" unicode="&#x16d;" horiz-adv-x="1243" 
d="M498 -20q-178 0 -276.5 111.5t-98.5 316.5v610h184v-592q0 -155 60 -223t192 -68q167 0 264 122.5t97 328.5v432h180v-1018h-180v279q-42 -141 -150 -220t-272 -79zM301 1509h148q0 -115 41.5 -166t136.5 -51t136.5 51t41.5 166h147q0 -160 -86.5 -259t-238.5 -99
t-239 99t-87 259z" />
    <glyph glyph-name="Uring" unicode="&#x16e;" horiz-adv-x="1380" 
d="M109 537v907h186v-869q0 -112 19 -190.5t64 -135t121.5 -83.5t188.5 -27q219 0 308 105.5t89 330.5v869h187v-907q0 -274 -145 -417t-439 -143q-579 0 -579 560zM438 1796q0 95 66 159t182 64t184 -64t68 -159t-68 -160t-184 -65t-182 64.5t-66 160.5zM580 1796
q0 -45 28 -70.5t78 -25.5q53 0 82 25.5t29 70.5q0 43 -29.5 67.5t-81.5 24.5q-51 0 -78.5 -24.5t-27.5 -67.5z" />
    <glyph glyph-name="uring" unicode="&#x16f;" horiz-adv-x="1243" 
d="M498 -20q-178 0 -276.5 111.5t-98.5 316.5v610h184v-592q0 -155 60 -223t192 -68q167 0 264 122.5t97 328.5v432h180v-1018h-180v279q-42 -141 -150 -220t-272 -79zM377 1370q0 95 66 159t182 64t184 -64t68 -159t-68 -160t-184 -65t-182 64.5t-66 160.5zM518 1370
q0 -45 28 -70.5t79 -25.5q53 0 81.5 25.5t28.5 70.5q0 43 -29 67.5t-81 24.5q-51 0 -79 -24.5t-28 -67.5z" />
    <glyph glyph-name="Uhungarumlaut" unicode="&#x170;" horiz-adv-x="1380" 
d="M109 537v907h186v-869q0 -112 19 -190.5t64 -135t121.5 -83.5t188.5 -27q219 0 308 105.5t89 330.5v869h187v-907q0 -274 -145 -417t-439 -143q-579 0 -579 560zM309 1675l303 289l103 -100l-303 -287zM664 1675l301 289l102 -100l-303 -287z" />
    <glyph glyph-name="uhungarumlaut" unicode="&#x171;" horiz-adv-x="1243" 
d="M498 -20q-178 0 -276.5 111.5t-98.5 316.5v610h184v-592q0 -155 60 -223t192 -68q167 0 264 122.5t97 328.5v432h180v-1018h-180v279q-42 -141 -150 -220t-272 -79zM248 1249l303 289l102 -100l-303 -287zM602 1249l301 289l103 -100l-304 -287z" />
    <glyph glyph-name="Uogonek" unicode="&#x172;" horiz-adv-x="1380" 
d="M109 537v907h186v-869q0 -112 19 -190.5t64 -135t121.5 -83.5t188.5 -27q219 0 308 105.5t89 330.5v869h187v-907q0 -455 -387 -539l-125 -248l370 2v-147h-401q-84 0 -118 53t7 125l105 194h-35q-579 0 -579 560z" />
    <glyph glyph-name="uogonek" unicode="&#x173;" horiz-adv-x="1243" 
d="M498 -20q-178 0 -276.5 111.5t-98.5 316.5v610h184v-592q0 -155 60 -223t192 -68q167 0 264 122.5t97 328.5v432h180l-2 -1018l-125 -250l370 2v-147h-401q-84 0 -118 53t7 125l115 217h-26v279q-42 -141 -150 -220t-272 -79z" />
    <glyph glyph-name="Wcircumflex" unicode="&#x174;" horiz-adv-x="1906" 
d="M1864 1444l-285 -1444h-332l-293 1374l-290 -1374h-334l-285 1444h184l256 -1249l21 -117l289 1366h319l291 -1366l20 117l252 1249h187zM612 1673l342 273l340 -273l-104 -102l-236 192l-237 -192z" />
    <glyph glyph-name="wcircumflex" unicode="&#x175;" horiz-adv-x="1798" 
d="M72 1018h172l235 -825l29 -113l233 938h314l235 -930l27 105l233 825h174l-282 -1018h-307l-236 952l-233 -952h-318zM557 1247l342 273l340 -273l-104 -102l-236 192l-237 -192z" />
    <glyph glyph-name="Ycircumflex" unicode="&#x176;" horiz-adv-x="1361" 
d="M1100 1444h198l-462 -836h-64v-608h-184v608h-62l-463 836h197l420 -776zM338 1673l342 273l340 -273l-105 -102l-235 192l-238 -192z" />
    <glyph glyph-name="ycircumflex" unicode="&#x177;" horiz-adv-x="1230" 
d="M1108 1018v-1292q0 -125 -141 -125h-779v155h738v520q-42 -140 -149.5 -218t-272.5 -78q-176 0 -274.5 111t-98.5 315v612h182v-592q0 -155 61 -223t193 -68q165 0 262 122.5t97 328.5v432h182zM289 1247l342 273l340 -273l-105 -102l-235 192l-238 -192z" />
    <glyph glyph-name="Ydieresis" unicode="&#x178;" horiz-adv-x="1361" 
d="M1100 1444h198l-462 -836h-64v-608h-184v608h-62l-463 836h197l420 -776zM319 1747q0 61 42.5 102t105.5 41q65 0 108 -41t43 -102t-43 -102t-108 -41q-63 0 -105.5 41t-42.5 102zM741 1747q0 61 42.5 102t107.5 41q63 0 107 -41t44 -102t-44 -102t-107 -41
q-65 0 -107.5 41t-42.5 102z" />
    <glyph glyph-name="Zacute" unicode="&#x179;" horiz-adv-x="1341" 
d="M109 0v326l1065 958h-1065v160h1126v-328l-1067 -956h1067v-160h-1126zM328 1745l643 164l35 -140l-644 -163z" />
    <glyph glyph-name="zacute" unicode="&#x17a;" horiz-adv-x="1095" 
d="M104 0v289l824 588h-824v141h887v-287l-823 -586h823v-145h-887zM205 1319l643 164l35 -140l-643 -163z" />
    <glyph glyph-name="Zdotaccent" unicode="&#x17b;" horiz-adv-x="1341" 
d="M109 0v326l1065 958h-1065v160h1126v-328l-1067 -956h1067v-160h-1126zM524 1755q0 59 41.5 98t102.5 39q62 0 104.5 -39t42.5 -98t-42.5 -98t-104.5 -39q-61 0 -102.5 39t-41.5 98z" />
    <glyph glyph-name="zdotaccent" unicode="&#x17c;" horiz-adv-x="1095" 
d="M104 0v289l824 588h-824v141h887v-287l-823 -586h823v-145h-887zM401 1329q0 59 41.5 98t102.5 39q62 0 104.5 -39t42.5 -98t-42.5 -98t-104.5 -39q-61 0 -102.5 39t-41.5 98z" />
    <glyph glyph-name="Zcaron" unicode="&#x17d;" horiz-adv-x="1341" 
d="M109 0v326l1065 958h-1065v160h1126v-328l-1067 -956h1067v-160h-1126zM330 1847l104 101l238 -193l235 193l105 -101l-340 -272z" />
    <glyph glyph-name="zcaron" unicode="&#x17e;" horiz-adv-x="1095" 
d="M104 0v289l824 588h-824v141h887v-287l-823 -586h823v-145h-887zM207 1421l104 101l238 -193l235 193l105 -101l-340 -272z" />
    <glyph glyph-name="uni018F" unicode="&#x18f;" horiz-adv-x="1568" 
d="M791 -8q-306 0 -489 183t-183 505v90h1145q-5 117 -37.5 213t-93 168.5t-157 112t-220.5 39.5q-177 0 -292.5 -95.5t-156.5 -261.5h-184q19 82 51.5 154t86 139t122 114.5t164.5 76t209 28.5q138 0 252.5 -37.5t195.5 -105t137 -161.5t82.5 -206t26.5 -239
q0 -338 -177.5 -527.5t-481.5 -189.5zM311 629q3 -227 133.5 -354.5t346.5 -127.5q205 0 334.5 129t138.5 353h-953z" />
    <glyph glyph-name="uni0218" unicode="&#x218;" horiz-adv-x="1396" 
d="M1311 385q0 -408 -553 -408q-327 0 -498.5 146.5t-171.5 419.5h188q0 -408 486 -408q186 0 273 59.5t87 180.5q0 179 -241 241l-404 105q-321 83 -321 362q0 187 131.5 285t380.5 98q291 0 445.5 -131.5t154.5 -367.5h-191q0 344 -409 344q-324 0 -324 -219
q0 -165 219 -222l400 -100q173 -44 260.5 -142.5t87.5 -242.5zM500 -440l110 340l156 -45l-111 -338z" />
    <glyph glyph-name="uni0219" unicode="&#x219;" horiz-adv-x="1036" 
d="M565 -20q-228 0 -353.5 103t-125.5 292h182q0 -124 78 -188t221 -64q109 0 163 36t54 113q0 53 -35 85.5t-114 54.5l-273 80q-235 67 -235 268q0 133 103 205.5t286 72.5q199 0 312.5 -89t113.5 -253h-182q0 93 -63 147t-179 54q-96 0 -153.5 -37.5t-57.5 -95.5
q0 -50 35 -82.5t111 -54.5l237 -68q136 -39 206.5 -108t70.5 -183q0 -139 -103 -213.5t-299 -74.5zM326 -440l110 340l156 -45l-111 -338z" />
    <glyph glyph-name="uni021A" unicode="&#x21a;" horiz-adv-x="1351" 
d="M86 1444h1180v-160h-496v-1284h-186v1284h-498v160zM475 -440l111 340l155 -45l-110 -338z" />
    <glyph glyph-name="uni021B" unicode="&#x21b;" horiz-adv-x="899" 
d="M813 156v-156h-399q-144 0 -144 143v719h-225v156h225v258l183 55v-313h319v-156h-319v-708zM352 -440l111 340l155 -45l-110 -338z" />
    <glyph glyph-name="uni0237" unicode="&#x237;" horiz-adv-x="622" 
d="M256 -59q24 43 31.5 76.5t7.5 86.5v758h-215v156h266q64 0 96.5 -27.5t32.5 -89.5v-829q0 -51 -8 -84.5t-31 -77.5l-155 -299h-197z" />
    <glyph glyph-name="uni0259" unicode="&#x259;" horiz-adv-x="1191" 
d="M100 662q16 75 50.5 139t91.5 119t146 86.5t202 31.5q121 0 217.5 -42t157.5 -116t93 -172t32 -212q0 -244 -133 -380t-355 -136q-228 0 -363 131.5t-135 365.5v66h809q-5 157 -87 253.5t-234 96.5q-127 0 -205.5 -61t-105.5 -170h-181zM283 414q9 -137 95 -214t224 -77
q128 0 213.5 77.5t95.5 213.5h-628z" />
    <glyph glyph-name="circumflex" unicode="&#x2c6;" horiz-adv-x="1019" 
d="M850 1247l-105 -102l-235 192l-238 -192l-104 102l342 273z" />
    <glyph glyph-name="caron" unicode="&#x2c7;" horiz-adv-x="1019" 
d="M168 1421l104 101l238 -193l235 193l105 -101l-340 -272z" />
    <glyph glyph-name="breve" unicode="&#x2d8;" horiz-adv-x="987" 
d="M494 1151q-152 0 -239 99t-87 259h147q0 -114 42 -165.5t137 -51.5t136.5 51t41.5 166h147q0 -160 -86.5 -259t-238.5 -99z" />
    <glyph glyph-name="dotaccent" unicode="&#x2d9;" horiz-adv-x="645" 
d="M315 1192q-61 0 -102 39t-41 98t41 98t102 39q62 0 105 -39t43 -98t-43 -98t-105 -39z" />
    <glyph glyph-name="ring" unicode="&#x2da;" horiz-adv-x="778" 
d="M416 1145q-116 0 -182 64.5t-66 160.5q0 95 66 159t182 64t184 -64t68 -159t-68 -160t-184 -65zM309 1370q0 -45 28 -70.5t79 -25.5q53 0 81.5 25.5t28.5 70.5q0 43 -29 67.5t-81 24.5q-51 0 -79 -24.5t-28 -67.5z" />
    <glyph glyph-name="ogonek" unicode="&#x2db;" horiz-adv-x="874" 
d="M707 -248v-147h-402q-84 0 -117.5 53t7.5 125l116 219h152l-127 -252z" />
    <glyph glyph-name="tilde" unicode="&#x2dc;" horiz-adv-x="1095" 
d="M168 1208q0 149 58 219t159 70q48 0 90 -17t70.5 -41t53 -48t50 -41t49.5 -17q40 0 62 30t22 114h146q0 -149 -58 -219t-159 -70q-48 0 -89.5 17t-70 41t-53.5 48t-51 41t-50 17q-39 0 -60.5 -29.5t-21.5 -114.5h-147z" />
    <glyph glyph-name="hungarumlaut" unicode="&#x2dd;" horiz-adv-x="1093" 
d="M522 1249l301 289l103 -100l-303 -287zM168 1249l303 289l102 -100l-303 -287z" />
    <glyph glyph-name="gravecomb" unicode="&#x300;" 
d="M846 1319l-35 -139l-643 163l35 140z" />
    <glyph glyph-name="acutecomb" unicode="&#x301;" 
d="M203 1180l-35 139l643 164l35 -140z" />
    <glyph glyph-name="uni0302" unicode="&#x302;" 
d="M850 1247l-105 -102l-235 192l-238 -192l-104 102l342 273z" />
    <glyph glyph-name="tildecomb" unicode="&#x303;" 
d="M168 1208q0 149 58 219t159 70q48 0 90 -17t70.5 -41t53 -48t50 -41t49.5 -17q40 0 62 30t22 114h146q0 -149 -58 -219t-159 -70q-48 0 -89.5 17t-70 41t-53.5 48t-51 41t-50 17q-39 0 -60.5 -29.5t-21.5 -114.5h-147z" />
    <glyph glyph-name="uni0304" unicode="&#x304;" 
d="M168 1407h680v-145l-680 -2v147z" />
    <glyph glyph-name="uni0306" unicode="&#x306;" 
d="M494 1151q-152 0 -239 99t-87 259h147q0 -114 42 -165.5t137 -51.5t136.5 51t41.5 166h147q0 -160 -86.5 -259t-238.5 -99z" />
    <glyph glyph-name="uni0307" unicode="&#x307;" 
d="M315 1192q-61 0 -102 39t-41 98t41 98t102 39q62 0 105 -39t43 -98t-43 -98t-105 -39z" />
    <glyph glyph-name="uni0308" unicode="&#x308;" 
d="M315 1178q-63 0 -105 41t-42 102t42 102t105 41q65 0 108.5 -41t43.5 -102t-43.5 -102t-108.5 -41zM590 1321q0 62 42.5 102.5t106.5 40.5t108 -41t44 -102t-44 -102t-108 -41t-106.5 40.5t-42.5 102.5z" />
    <glyph glyph-name="uni030A" unicode="&#x30a;" 
d="M416 1145q-116 0 -182 64.5t-66 160.5q0 95 66 159t182 64t184 -64t68 -159t-68 -160t-184 -65zM309 1370q0 -45 28 -70.5t79 -25.5q53 0 81.5 25.5t28.5 70.5q0 43 -29 67.5t-81 24.5q-51 0 -79 -24.5t-28 -67.5z" />
    <glyph glyph-name="uni030B" unicode="&#x30b;" 
d="M522 1249l301 289l103 -100l-303 -287zM168 1249l303 289l102 -100l-303 -287z" />
    <glyph glyph-name="uni030C" unicode="&#x30c;" 
d="M168 1421l104 101l238 -193l235 193l105 -101l-340 -272z" />
    <glyph glyph-name="uni0312" unicode="&#x312;" 
d="M276 1595l158 -43l-108 -376l-158 41z" />
    <glyph glyph-name="uni0326" unicode="&#x326;" 
d="M238 -100l155 -45l-110 -338l-156 43z" />
    <glyph glyph-name="uni0327" unicode="&#x327;" 
d="M168 -252h16q84 0 121.5 1t82 7t60 19.5t15.5 36.5q0 41 -47 41q-55 0 -144 -54l-75 92l86 109h161l-114 -117q76 31 141 31q58 0 97.5 -28t39.5 -87q0 -40 -14 -70t-43 -50t-64.5 -32.5t-89.5 -19t-105.5 -8.5t-123.5 -2v131z" />
    <glyph glyph-name="uni0328" unicode="&#x328;" 
d="M707 -248v-147h-402q-84 0 -117.5 53t7.5 125l116 219h152l-127 -252z" />
    <glyph glyph-name="uni0335" unicode="&#x335;" 
d="M106 1389h590v-148h-590v148z" />
    <glyph glyph-name="uni0337" unicode="&#x337;" 
d="M96 723l697 190l36 -141l-698 -188z" />
    <glyph glyph-name="uni0338" unicode="&#x338;" 
d="M1217 1569l118 -70l-942 -1626l-114 70z" />
    <glyph glyph-name="uni0400" unicode="&#x400;" horiz-adv-x="1257" 
d="M147 0v1444h1004v-160h-817v-483h715v-156h-715v-485h817v-160h-1004zM268 1769l35 140l643 -164l-35 -139z" />
    <glyph glyph-name="uni0401" unicode="&#x401;" horiz-adv-x="1257" 
d="M147 0v1444h1004v-160h-817v-483h715v-156h-715v-485h817v-160h-1004zM244 1747q0 61 42 102t105 41q65 0 108.5 -41t43.5 -102t-43.5 -102t-108.5 -41q-63 0 -105 41t-42 102zM666 1747q0 62 42.5 102.5t106.5 40.5t108 -41t44 -102t-44 -102t-108 -41t-106.5 40.5
t-42.5 102.5z" />
    <glyph glyph-name="uni0402" unicode="&#x402;" horiz-adv-x="1734" 
d="M86 1444h1167v-160h-491v-366h371q265 0 382 -102t117 -337q0 -114 -30.5 -200t-80.5 -138.5t-124.5 -84.5t-151.5 -44t-172 -12v160q107 0 181.5 22t116 65.5t59.5 99.5t18 132q0 87 -20.5 143t-66 85.5t-103 40t-146.5 10.5h-350v-758h-184v1284h-492v160z" />
    <glyph glyph-name="uni0403" unicode="&#x403;" horiz-adv-x="1120" 
d="M274 1444h781v-160h-723v-1284h-187v1315q0 63 33.5 96t95.5 33zM217 1745l643 164l35 -140l-643 -163z" />
    <glyph glyph-name="uni0404" unicode="&#x404;" horiz-adv-x="1581" 
d="M803 -23q-158 0 -288 57t-216 157t-133 236.5t-47 295.5q0 158 47 294t133 235.5t216 156.5t288 57q278 0 452.5 -154.5t206.5 -424.5h-186q-25 200 -147 309t-326 109q-221 0 -348.5 -138t-145.5 -372h604v-148h-604q19 -234 146.5 -371t347.5 -137q204 0 326 110
t147 310h186q-32 -272 -206.5 -427t-452.5 -155z" />
    <glyph glyph-name="uni0405" unicode="&#x405;" horiz-adv-x="1396" 
d="M1311 385q0 -408 -553 -408q-327 0 -498.5 146.5t-171.5 419.5h188q0 -408 486 -408q186 0 273 59.5t87 180.5q0 179 -241 241l-404 105q-321 83 -321 362q0 187 131.5 285t380.5 98q291 0 445.5 -131.5t154.5 -367.5h-191q0 344 -409 344q-324 0 -324 -219
q0 -165 219 -222l400 -100q173 -44 260.5 -142.5t87.5 -242.5z" />
    <glyph glyph-name="uni0406" unicode="&#x406;" horiz-adv-x="1081" 
d="M125 1444h831v-160h-323v-1124h323v-160h-831v160h324v1124h-324v160z" />
    <glyph glyph-name="uni0407" unicode="&#x407;" horiz-adv-x="1081" 
d="M125 1444h831v-160h-323v-1124h323v-160h-831v160h324v1124h-324v160zM180 1747q0 61 42.5 102t105.5 41q65 0 108 -41t43 -102t-43 -102t-108 -41q-63 0 -105.5 41t-42.5 102zM602 1747q0 61 42.5 102t107.5 41q63 0 107 -41t44 -102t-44 -102t-107 -41q-65 0 -107.5 41
t-42.5 102z" />
    <glyph glyph-name="uni0408" unicode="&#x408;" horiz-adv-x="1112" 
d="M578 0h-510v160h467q146 0 207 87t61 259v778h-529v160h572q78 0 109.5 -29.5t31.5 -103.5v-856q0 -221 -105 -338t-304 -117z" />
    <glyph glyph-name="uni0409" unicode="&#x409;" horiz-adv-x="2236" 
d="M63 160q172 0 245 245q60 203 67 671q2 106 2 368h899v-543h301q133 0 228.5 -19.5t173 -68t116.5 -138t39 -220.5q0 -108 -26.5 -188.5t-73 -131t-118.5 -81.5t-153 -42.5t-186 -11.5h-487v1284h-527q0 -172 -3.5 -291.5t-15 -264.5t-32.5 -242.5t-58 -197t-89 -157.5
t-128.5 -94.5t-173.5 -36.5v160zM1276 156h309q91 0 154.5 12.5t113 45t73.5 92t24 149.5q0 87 -24 145t-73.5 89.5t-112.5 43.5t-155 12h-309v-589z" />
    <glyph glyph-name="uni040A" unicode="&#x40a;" horiz-adv-x="2304" 
d="M147 1444h187v-651h823v651h186v-543h302q133 0 228.5 -19.5t173 -68t116.5 -138t39 -220.5q0 -108 -26.5 -188.5t-73 -131t-118.5 -81.5t-153 -42.5t-186 -11.5h-488v631h-823v-631h-187v1444zM1343 156h310q73 0 126.5 7.5t100 27.5t75.5 53.5t45.5 86t16.5 124.5
q0 87 -23.5 145t-73.5 89.5t-112.5 43.5t-154.5 12h-310v-589z" />
    <glyph glyph-name="uni040B" unicode="&#x40b;" horiz-adv-x="1875" 
d="M1544 0v754h-774v-754h-186v1284h-498v160h1180v-160h-496v-366h844q59 0 88 -28t29 -89v-801h-187z" />
    <glyph glyph-name="uni040C" unicode="&#x40c;" horiz-adv-x="1368" 
d="M147 0v1444h187v-639h96l463 561q35 40 71 60t85 20h247v-160h-247l-451 -551l690 -735h-241l-625 659h-88v-659h-187zM340 1745l643 164l35 -140l-643 -163z" />
    <glyph glyph-name="uni040D" unicode="&#x40d;" horiz-adv-x="1560" 
d="M1413 0h-184v1378l-737 -1378h-345v1444h187v-1378l735 1378h344v-1444zM446 1769l35 140l643 -164l-34 -139z" />
    <glyph glyph-name="uni040F" unicode="&#x40f;" horiz-adv-x="1421" 
d="M147 0v1444h187v-1284h753v1284h187v-1444h-471v-272h-185v272h-471z" />
    <glyph glyph-name="uni0410" unicode="&#x410;" horiz-adv-x="1429" 
d="M55 0l494 1444h334l491 -1444h-194l-187 553h-557l-188 -553h-193zM489 713h449l-223 661z" />
    <glyph glyph-name="uni0411" unicode="&#x411;" horiz-adv-x="1300" 
d="M1087 1444v-160h-753v-383h301q133 0 228.5 -19.5t173 -68t116.5 -138t39 -220.5q0 -108 -26.5 -188.5t-73 -131t-118.5 -81.5t-153 -42.5t-186 -11.5h-488v1444h940zM334 156h309q91 0 154.5 12.5t113 45t73.5 92t24 149.5q0 87 -24 145t-73.5 89.5t-112.5 43.5t-155 12
h-309v-589z" />
    <glyph glyph-name="uni0412" unicode="&#x412;" horiz-adv-x="1415" 
d="M147 0v1444h488q112 0 195.5 -9.5t154.5 -33t115.5 -63t69 -101t24.5 -145.5q0 -137 -73.5 -222.5t-182.5 -107.5q166 -18 264 -113.5t98 -263.5q0 -87 -26.5 -153t-75 -110t-121.5 -71.5t-159.5 -39t-196.5 -11.5h-574zM334 156h393q79 0 134 5.5t106 22t81.5 45t48 75
t17.5 112.5q0 148 -96.5 205t-290.5 57h-393v-522zM334 825h309q74 0 125.5 5t100 19t77.5 39.5t46.5 68t17.5 102.5q0 46 -9 81.5t-23.5 60.5t-41 42t-53 26.5t-69 14.5t-79 6.5t-92.5 1.5h-309v-467z" />
    <glyph glyph-name="uni0413" unicode="&#x413;" horiz-adv-x="1120" 
d="M274 1444h781v-160h-723v-1284h-187v1315q0 63 33.5 96t95.5 33z" />
    <glyph glyph-name="uni0414" unicode="&#x414;" horiz-adv-x="1630" 
d="M1341 1444v-1284h86q63 0 96 -33.5t33 -95.5v-303h-184v272h-1132v-272h-187v303q0 62 33 95.5t96 33.5h68q98 233 140 530.5t42 753.5h909zM436 160h719v1124h-537q-6 -383 -49 -647.5t-133 -476.5z" />
    <glyph glyph-name="uni0415" unicode="&#x415;" horiz-adv-x="1257" 
d="M147 0v1444h1004v-160h-817v-483h715v-156h-715v-485h817v-160h-1004z" />
    <glyph glyph-name="uni0416" unicode="&#x416;" horiz-adv-x="2091" 
d="M1786 0l-563 655h-84v-655h-185v655h-84l-563 -655h-239l630 737l-393 549h-248v160h254q101 0 162 -80l397 -555h84v633h185v-633h84l397 555q63 80 162 80h252v-160h-246l-391 -551l628 -735h-239z" />
    <glyph glyph-name="uni0417" unicode="&#x417;" horiz-adv-x="1388" 
d="M299 551q0 -222 101.5 -318t310.5 -96q370 0 370 293q0 119 -71.5 185.5t-198.5 66.5h-201v154h201q123 0 186.5 56.5t63.5 154.5q0 122 -85 191t-269 69q-198 0 -293 -83.5t-95 -254.5h-184q0 245 150.5 371t431.5 126q254 0 391 -104t137 -279q0 -120 -64 -208.5
t-180 -114.5q119 -31 192 -121.5t73 -232.5q0 -205 -144.5 -317t-404.5 -112q-289 0 -445.5 139.5t-156.5 434.5h184z" />
    <glyph glyph-name="uni0418" unicode="&#x418;" horiz-adv-x="1560" 
d="M1413 0h-184v1378l-737 -1378h-345v1444h187v-1378l735 1378h344v-1444z" />
    <glyph glyph-name="uni0419" unicode="&#x419;" horiz-adv-x="1560" 
d="M1413 0h-184v1378l-737 -1378h-345v1444h187v-1378l735 1378h344v-1444zM455 1935h147q0 -115 41.5 -166t136.5 -51t136.5 51t41.5 166h148q0 -160 -87 -259t-239 -99t-238.5 99t-86.5 259z" />
    <glyph glyph-name="uni041A" unicode="&#x41a;" horiz-adv-x="1368" 
d="M147 0v1444h187v-639h96l463 561q35 40 71 60t85 20h247v-160h-247l-451 -551l690 -735h-241l-625 659h-88v-659h-187z" />
    <glyph glyph-name="uni041B" unicode="&#x41b;" horiz-adv-x="1423" 
d="M63 160q172 0 245 245q60 203 67 671q2 106 2 368h899v-1444h-186v1284h-527q0 -172 -3.5 -291.5t-15 -264.5t-32.5 -242.5t-58 -197t-89 -157.5t-128.5 -94.5t-173.5 -36.5v160z" />
    <glyph glyph-name="uni041C" unicode="&#x41c;" horiz-adv-x="1857" 
d="M147 0v1444h347l438 -1376l438 1376h340v-1444h-186v1368l-445 -1368h-299l-446 1368v-1368h-187z" />
    <glyph glyph-name="uni041D" unicode="&#x41d;" horiz-adv-x="1499" 
d="M147 1444h187v-651h823v651h186v-1444h-186v631h-823v-631h-187v1444z" />
    <glyph glyph-name="uni041E" unicode="&#x41e;" horiz-adv-x="1599" 
d="M119 723q0 158 47 294t133 235.5t215.5 156.5t286.5 57t286 -57t215 -156.5t132.5 -235.5t46.5 -294q0 -159 -46.5 -295.5t-132.5 -236.5t-215 -157t-286 -57t-286.5 57t-215.5 157t-133 236.5t-47 295.5zM307 723q0 -173 53.5 -302.5t166 -205.5t274.5 -76t274.5 76
t165.5 205.5t53 302.5q0 172 -53 301t-165.5 205t-274.5 76q-122 0 -217 -43t-155 -121.5t-91 -184t-31 -233.5z" />
    <glyph glyph-name="uni041F" unicode="&#x41f;" horiz-adv-x="1411" 
d="M147 1444h1117v-1444h-187v1284h-743v-1284h-187v1444z" />
    <glyph glyph-name="uni0420" unicode="&#x420;" horiz-adv-x="1269" 
d="M147 0v1444h420q150 0 257.5 -23.5t187 -77.5t118.5 -147t39 -229t-39 -230t-118.5 -148.5t-187 -78t-257.5 -23.5h-233v-487h-187zM334 647h239q78 0 136 7t112 28t88.5 55.5t55 92.5t20.5 137t-20.5 136t-55 91.5t-88.5 55t-112 27.5t-136 7h-239v-637z" />
    <glyph glyph-name="uni0421" unicode="&#x421;" horiz-adv-x="1581" 
d="M803 -23q-158 0 -288 57t-216 157t-133 236.5t-47 295.5q0 158 47 294t133 235.5t216 156.5t288 57q278 0 452.5 -154.5t206.5 -424.5h-186q-25 200 -147 309t-326 109q-238 0 -367 -159t-129 -423q0 -174 55 -304t168.5 -205t272.5 -75q204 0 326 110t147 310h186
q-32 -272 -206.5 -427t-452.5 -155z" />
    <glyph glyph-name="uni0422" unicode="&#x422;" horiz-adv-x="1351" 
d="M86 1444h1180v-160h-496v-1284h-186v1284h-498v160z" />
    <glyph glyph-name="uni0423" unicode="&#x423;" horiz-adv-x="1325" 
d="M1069 1444h197l-498 -1008v-307q0 -129 -143 -129l-453 2v160l412 -2v276l-500 1008h195l397 -819z" />
    <glyph glyph-name="uni0424" unicode="&#x424;" horiz-adv-x="1683" 
d="M758 1456h168v-201q331 -14 502 -148t171 -388q0 -255 -172 -390t-501 -149v-192h-168v192q-332 14 -504 148.5t-172 390.5q0 254 172 388t504 148v201zM270 719q0 -190 120.5 -280t367.5 -101v760q-247 -11 -367.5 -100.5t-120.5 -278.5zM926 338q247 11 366 101
t119 280t-119 279t-366 100v-760z" />
    <glyph glyph-name="uni0425" unicode="&#x425;" horiz-adv-x="1398" 
d="M1350 0h-211l-439 637l-440 -637h-211l502 723l-502 721h211l440 -633l439 633h211l-504 -721z" />
    <glyph glyph-name="uni0426" unicode="&#x426;" horiz-adv-x="1443" 
d="M147 0v1444h187v-1284h743v1284h187v-1284h86q63 0 96 -33.5t33 -95.5v-303h-185v272h-1147z" />
    <glyph glyph-name="uni0427" unicode="&#x427;" horiz-adv-x="1441" 
d="M145 1444h187v-791h776v791h186v-1444h-186v489h-848q-115 0 -115 117v838z" />
    <glyph glyph-name="uni0428" unicode="&#x428;" horiz-adv-x="1951" 
d="M147 0v1444h187v-1284h549v1284h186v-1284h549v1284h186v-1444h-1657z" />
    <glyph glyph-name="uni0429" unicode="&#x429;" horiz-adv-x="1984" 
d="M147 0v1444h187v-1284h549v1284h186v-1284h549v1284h186v-1284h127q63 0 96 -33.5t33 -95.5v-303h-184v272h-1729z" />
    <glyph glyph-name="uni042A" unicode="&#x42a;" horiz-adv-x="1333" 
d="M373 1444v-543h301q133 0 228.5 -19.5t173 -68t116.5 -138t39 -220.5q0 -108 -26.5 -188.5t-73 -131t-118.5 -81.5t-153 -42.5t-186 -11.5h-488v1284h-256v160h443zM373 156h309q91 0 154.5 12.5t113 45t73.5 92t24 149.5q0 87 -24 145t-73.5 89.5t-112.5 43.5t-155 12
h-309v-589z" />
    <glyph glyph-name="uni042B" unicode="&#x42b;" horiz-adv-x="1771" 
d="M334 1444v-543h301q133 0 228.5 -19.5t173 -68t116.5 -138t39 -220.5q0 -108 -26.5 -188.5t-73 -131t-118.5 -81.5t-153 -42.5t-186 -11.5h-488v1444h187zM334 156h309q91 0 154.5 12.5t113 45t73.5 92t24 149.5q0 87 -24 145t-73.5 89.5t-112.5 43.5t-155 12h-309v-589z
M1442 0v1444h182v-1444h-182z" />
    <glyph glyph-name="uni042C" unicode="&#x42c;" horiz-adv-x="1294" 
d="M334 1444v-543h301q133 0 228.5 -19.5t173 -68t116.5 -138t39 -220.5q0 -108 -26.5 -188.5t-73 -131t-118.5 -81.5t-153 -42.5t-186 -11.5h-488v1444h187zM334 156h309q91 0 154.5 12.5t113 45t73.5 92t24 149.5q0 87 -24 145t-73.5 89.5t-112.5 43.5t-155 12h-309v-589z
" />
    <glyph glyph-name="uni042D" unicode="&#x42d;" horiz-adv-x="1581" 
d="M778 1466q158 0 288 -57t216 -156.5t133 -236t47 -295.5q0 -158 -47 -294t-133 -236t-216 -157t-288 -57q-278 0 -452.5 155t-206.5 425h186q25 -200 147 -309t326 -109q221 0 348.5 138t145.5 372h-604v148h604q-19 234 -146.5 371t-347.5 137q-204 0 -326 -110
t-147 -310h-186q32 271 206.5 426t452.5 155z" />
    <glyph glyph-name="uni042E" unicode="&#x42e;" horiz-adv-x="1927" 
d="M745 723q0 -267 110.5 -424.5t328.5 -157.5q216 0 325 157t109 425q0 130 -26 235t-78.5 183t-136 120t-193.5 42q-218 0 -328.5 -156.5t-110.5 -423.5zM147 0v1444h187v-639h223q14 196 87 342.5t211.5 232.5t328.5 86q151 0 270.5 -56t196.5 -156t117 -235t40 -296
q0 -217 -69 -383.5t-211.5 -264.5t-343.5 -98q-143 0 -258 49.5t-192 138.5t-122 209.5t-55 266.5h-223v-641h-187z" />
    <glyph glyph-name="uni042F" unicode="&#x42f;" horiz-adv-x="1320" 
d="M1174 0h-187v655h-272l-238 -569q-44 -86 -153 -86h-252v160h239l209 506q-189 23 -285 112.5t-96 272.5q0 114 38 192t114 121.5t174 61.5t235 18h474v-1444zM324 1051q0 -62 16.5 -106t45 -70.5t77 -41t100 -19.5t127.5 -5h297v481h-297q-75 0 -127.5 -5t-100.5 -19.5
t-76.5 -41t-45 -69.5t-16.5 -104z" />
    <glyph glyph-name="uni0430" unicode="&#x430;" horiz-adv-x="1220" 
d="M102 283q0 265 340 297l400 38q-6 139 -72 206t-203 67q-112 0 -181.5 -57t-80.5 -179h-180q18 177 134 280t312 103q217 0 335 -123t118 -333v-426h150v-156h-187q-59 0 -91 32t-32 91v129q-19 -57 -50.5 -103.5t-81 -85.5t-122.5 -61t-164 -22q-85 0 -150 22t-100.5 54
t-58 75.5t-29 79t-6.5 72.5zM283 305q0 -86 51 -131t141 -45q164 0 265.5 102t101.5 258l-369 -38q-98 -9 -144 -42t-46 -104z" />
    <glyph glyph-name="uni0431" unicode="&#x431;" horiz-adv-x="1318" 
d="M123 653q0 289 128.5 445.5t407.5 242.5q169 53 231 90t75 95h211q-11 -60 -42.5 -106t-61.5 -73.5t-106 -57.5t-116.5 -42t-151.5 -41q-9 -3 -14 -4q-426 -117 -426 -469v-10q45 142 163 228.5t281 86.5q237 0 373.5 -143.5t136.5 -372.5q0 -118 -33.5 -216t-99 -171.5
t-170.5 -114t-239 -40.5q-265 0 -406 172.5t-141 500.5zM305 502q0 -72 24 -137.5t68.5 -117t115.5 -82t157 -30.5q174 0 267 101t93 284q0 169 -93 266t-267 97q-169 0 -267 -101.5t-98 -279.5z" />
    <glyph glyph-name="uni0432" unicode="&#x432;" horiz-adv-x="1134" 
d="M143 0v1018h428q99 0 170.5 -11t128.5 -38.5t86 -78.5t29 -126q0 -98 -54 -154.5t-140 -72.5q123 -11 196.5 -76t73.5 -189q0 -272 -414 -272h-504zM315 129h332q125 0 182.5 37t57.5 125q0 97 -58.5 135.5t-181.5 38.5h-332v-336zM315 592h256q130 0 185 29.5t55 123.5
q0 81 -56.5 113.5t-183.5 32.5h-256v-299z" />
    <glyph glyph-name="uni0433" unicode="&#x433;" horiz-adv-x="909" 
d="M143 877q0 141 144 141h575v-156h-536v-862h-183v877z" />
    <glyph glyph-name="uni0434" unicode="&#x434;" horiz-adv-x="1372" 
d="M250 156q81 161 115 360.5t34 501.5h713v-862h82q62 0 94.5 -33t32.5 -94v-299h-180v270h-899v-270h-181v299q0 61 32.5 94t94.5 33h62zM426 156h506v710h-357q-8 -236 -42.5 -403t-106.5 -307z" />
    <glyph glyph-name="uni0435" unicode="&#x435;" horiz-adv-x="1191" 
d="M102 522q0 244 133 380t355 136q228 0 362.5 -131.5t134.5 -365.5v-66h-808q5 -157 87 -253.5t234 -96.5q127 0 205.5 61t105.5 170h181q-16 -75 -50.5 -139t-91.5 -119t-146 -86.5t-202 -31.5q-121 0 -217.5 42t-157.5 116t-93 172t-32 212zM281 604h628q-9 137 -95 214
t-224 77q-128 0 -213.5 -77.5t-95.5 -213.5z" />
    <glyph glyph-name="uni0436" unicode="&#x436;" horiz-adv-x="1654" 
d="M918 1018v-428h43l299 352q36 39 71 57.5t84 18.5h162v-156h-164l-287 -344l473 -518h-225l-401 440h-55v-440h-181v440h-55l-401 -440h-226l473 518l-286 344h-164v156h162q49 0 84 -18.5t71 -57.5l297 -352h45v428h181z" />
    <glyph glyph-name="uni0437" unicode="&#x437;" horiz-adv-x="1140" 
d="M291 397q0 -147 72.5 -215.5t226.5 -68.5q138 0 196 49t58 143q0 80 -51 124t-156 44h-133v129h133q97 0 140.5 39t43.5 113q0 151 -241 151q-267 0 -267 -205h-176q0 162 110.5 250t327.5 88q202 0 311 -76t109 -196q0 -92 -48.5 -150t-135.5 -77q92 -18 149.5 -83
t57.5 -165q0 -143 -113.5 -227t-320.5 -84q-226 0 -347.5 102t-121.5 315h176z" />
    <glyph glyph-name="uni0438" unicode="&#x438;" horiz-adv-x="1288" 
d="M1143 0h-172v954l-512 -954h-316v1018h172v-950l514 950h314v-1018z" />
    <glyph glyph-name="uni0439" unicode="&#x439;" horiz-adv-x="1288" 
d="M1143 0h-172v954l-512 -954h-316v1018h172v-950l514 950h314v-1018zM319 1509h148q0 -115 41.5 -166t136.5 -51t136.5 51t41.5 166h148q0 -160 -87 -259t-239 -99t-239 99t-87 259z" />
    <glyph glyph-name="uni043A" unicode="&#x43a;" horiz-adv-x="1079" 
d="M143 1018h183v-432h61l293 356q64 76 156 76h161v-156h-163l-287 -344l475 -518h-223l-404 440h-69v-440h-183v1018z" />
    <glyph glyph-name="uni043B" unicode="&#x43b;" horiz-adv-x="1193" 
d="M1049 1018v-1018h-183v862h-389q-1 -102 -3 -175.5t-7 -155t-13.5 -138.5t-22.5 -116.5t-34 -99t-48 -76t-64 -57t-82 -32.5t-103 -12v156q134 0 164.5 179t30.5 683h754z" />
    <glyph glyph-name="uni043C" unicode="&#x43c;" horiz-adv-x="1519" 
d="M143 0v1018h346l263 -967h14l262 967h346v-1018h-172v969h-10l-268 -969h-332l-264 969h-13v-969h-172z" />
    <glyph glyph-name="uni043D" unicode="&#x43d;" horiz-adv-x="1220" 
d="M143 1018h183v-430h565v430h180v-1018h-180v432h-565v-432h-183v1018z" />
    <glyph glyph-name="uni043E" unicode="&#x43e;" horiz-adv-x="1284" 
d="M102 510q0 229 150 378.5t391 149.5q240 0 389.5 -149.5t149.5 -378.5q0 -230 -149.5 -380t-389.5 -150q-120 0 -221.5 40.5t-171.5 111t-109 168t-39 210.5zM283 510q0 -162 95.5 -268.5t264.5 -106.5q167 0 262.5 106.5t95.5 268.5q0 160 -95.5 266.5t-262.5 106.5
q-169 0 -264.5 -106.5t-95.5 -266.5z" />
    <glyph glyph-name="uni043F" unicode="&#x43f;" horiz-adv-x="1148" 
d="M143 1018h861v-1018h-181v862h-497v-862h-183v1018z" />
    <glyph glyph-name="uni0440" unicode="&#x440;" horiz-adv-x="1341" 
d="M143 -381v1399h183v-248q56 125 166.5 196.5t269.5 71.5q217 0 347 -147t130 -383q0 -235 -130 -381.5t-347 -146.5q-162 0 -272 72.5t-164 195.5v-629h-183zM330 508q0 -119 52 -205.5t135 -127t185 -40.5t181 39.5t127.5 125t48.5 208.5q0 184 -99.5 279.5t-257.5 95.5
q-159 0 -265.5 -97.5t-106.5 -277.5z" />
    <glyph glyph-name="uni0441" unicode="&#x441;" horiz-adv-x="1208" 
d="M102 510q0 229 141 378.5t382 149.5q64 0 126.5 -14t124 -45.5t109.5 -77.5t81 -116.5t40 -155.5h-182q-21 132 -100.5 193t-198.5 61q-165 0 -253.5 -105.5t-88.5 -267.5q0 -106 37 -189t115.5 -134.5t189.5 -51.5q119 0 198.5 61t100.5 193h182q-7 -85 -40 -155.5
t-81 -116.5t-109.5 -77.5t-124 -45.5t-126.5 -14q-241 0 -382 149.5t-141 380.5z" />
    <glyph glyph-name="uni0442" unicode="&#x442;" horiz-adv-x="1122" 
d="M86 1018h950v-156h-385v-862h-180v862h-385v156z" />
    <glyph glyph-name="uni0443" unicode="&#x443;" horiz-adv-x="1153" 
d="M913 1018h201l-444 -1004v-297q0 -116 -115 -116h-432v159h364v254l-446 1004h197l340 -795z" />
    <glyph glyph-name="uni0444" unicode="&#x444;" horiz-adv-x="1517" 
d="M674 1382h172v-348q275 -20 423 -163t148 -361t-148 -361.5t-423 -164.5v-353h-172v353q-275 21 -423.5 164.5t-148.5 361.5t148.5 361t423.5 163v348zM283 510q0 -154 97 -253.5t294 -117.5v740q-198 -18 -294.5 -116.5t-96.5 -252.5zM846 139q196 19 292.5 118.5
t96.5 252.5q0 154 -96.5 252.5t-292.5 116.5v-740z" />
    <glyph glyph-name="uni0445" unicode="&#x445;" horiz-adv-x="1198" 
d="M66 0l372 512l-372 506h206l310 -430l309 430h207l-371 -506l371 -512h-207l-309 430l-310 -430h-206z" />
    <glyph glyph-name="uni0446" unicode="&#x446;" horiz-adv-x="1189" 
d="M145 0v1018h181v-862h497v862h183v-862h86q62 0 94.5 -33t32.5 -94v-299h-181v270h-893z" />
    <glyph glyph-name="uni0447" unicode="&#x447;" horiz-adv-x="1245" 
d="M141 1018h181v-504h598v504h180v-1018h-180v354h-664q-115 0 -115 103v561z" />
    <glyph glyph-name="uni0448" unicode="&#x448;" horiz-adv-x="1570" 
d="M143 0v1018h183v-862h368v862h183v-862h368v862h182v-1018h-1284z" />
    <glyph glyph-name="uni0449" unicode="&#x449;" horiz-adv-x="1613" 
d="M143 0v1018h183v-862h368v862h183v-862h368v862h182v-862h86q61 0 94 -33t33 -94v-299h-180v270h-1317z" />
    <glyph glyph-name="uni044A" unicode="&#x44a;" horiz-adv-x="1126" 
d="M584 733q76 0 139 -10t120.5 -35.5t97 -66.5t62.5 -105.5t23 -148.5t-23 -148.5t-62.5 -105.5t-97 -67t-120.5 -36t-139 -10h-406v866h-254v156h436v-289h224zM360 152h203q57 0 94.5 3.5t76 16t60.5 35.5t36 63t14 97q0 70 -19 114.5t-60 65.5t-86 28t-116 7h-203v-430z
" />
    <glyph glyph-name="uni044B" unicode="&#x44b;" horiz-adv-x="1521" 
d="M549 733q76 0 139 -10t120.5 -35.5t97 -66.5t62.5 -105.5t23 -148.5t-23 -148.5t-62.5 -105.5t-97 -67t-120.5 -36t-139 -10h-406v1018h183v-285h223zM326 152h202q57 0 94.5 3.5t76 16t60.5 35.5t36 63t14 97q0 70 -19 114.5t-60 65.5t-86 28t-116 7h-202v-430zM1214 0
v1018h183v-1018h-183z" />
    <glyph glyph-name="uni044C" unicode="&#x44c;" horiz-adv-x="1091" 
d="M549 733q76 0 139 -10t120.5 -35.5t97 -66.5t62.5 -105.5t23 -148.5t-23 -148.5t-62.5 -105.5t-97 -67t-120.5 -36t-139 -10h-406v1018h183v-285h223zM326 152h202q57 0 94.5 3.5t76 16t60.5 35.5t36 63t14 97q0 70 -19 114.5t-60 65.5t-86 28t-116 7h-202v-430z" />
    <glyph glyph-name="uni044D" unicode="&#x44d;" horiz-adv-x="1208" 
d="M1106 508q0 -229 -140.5 -378.5t-381.5 -149.5q-81 0 -159 23t-148.5 70t-118 128.5t-56.5 187.5h183q21 -132 100.5 -193t198.5 -61q149 0 235.5 86t102.5 225h-459v127h459q-18 139 -104.5 224.5t-233.5 85.5q-119 0 -198.5 -61t-100.5 -193h-183q9 106 56.5 187.5
t118 128.5t148.5 70t159 23q241 0 381.5 -149.5t140.5 -380.5z" />
    <glyph glyph-name="uni044E" unicode="&#x44e;" horiz-adv-x="1644" 
d="M1049 -20q-109 0 -198.5 34.5t-150 96.5t-97 143t-46.5 178h-231v-432h-183v1018h183v-430h231q10 97 46.5 178t97 142t150 95.5t198.5 34.5q120 0 215 -41.5t155 -114t91.5 -167t31.5 -205.5t-31.5 -206t-91.5 -168t-155 -114.5t-215 -41.5zM733 510q0 -81 17.5 -147
t54 -118t99 -81t145.5 -29t144.5 29t97.5 81t53.5 118t17.5 147q0 80 -17.5 146t-53.5 118t-97.5 80.5t-144.5 28.5q-162 0 -239 -102.5t-77 -270.5z" />
    <glyph glyph-name="uni044F" unicode="&#x44f;" horiz-adv-x="1040" 
d="M895 0h-180v440h-201l-197 -358q-57 -82 -153 -82h-123v145h149l144 299q-133 13 -205 77.5t-72 201.5q0 157 95 226t280 69h463v-1018zM238 731q0 -88 49 -129t155 -41h273v340h-273q-105 0 -154.5 -41.5t-49.5 -128.5z" />
    <glyph glyph-name="uni0450" unicode="&#x450;" horiz-adv-x="1191" 
d="M952 1319l-34 -139l-644 163l35 140zM102 522q0 244 133 380t355 136q228 0 362.5 -131.5t134.5 -365.5v-66h-808q5 -157 87 -253.5t234 -96.5q127 0 205.5 61t105.5 170h181q-16 -75 -50.5 -139t-91.5 -119t-146 -86.5t-202 -31.5q-121 0 -217.5 42t-157.5 116t-93 172
t-32 212zM281 604h628q-9 137 -95 214t-224 77q-128 0 -213.5 -77.5t-95.5 -213.5z" />
    <glyph glyph-name="uni0451" unicode="&#x451;" horiz-adv-x="1191" 
d="M395 1178q-63 0 -105 41t-42 102t42 102t105 41q65 0 108.5 -41t43.5 -102t-43.5 -102t-108.5 -41zM102 522q0 244 133 380t355 136q228 0 362.5 -131.5t134.5 -365.5v-66h-808q5 -157 87 -253.5t234 -96.5q127 0 205.5 61t105.5 170h181q-16 -75 -50.5 -139t-91.5 -119
t-146 -86.5t-202 -31.5q-121 0 -217.5 42t-157.5 116t-93 172t-32 212zM281 604h628q-9 137 -95 214t-224 77q-128 0 -213.5 -77.5t-95.5 -213.5zM670 1321q0 62 42.5 102.5t106.5 40.5t108 -41t44 -102t-44 -102t-108 -41t-106.5 40.5t-42.5 102.5z" />
    <glyph glyph-name="uni0452" unicode="&#x452;" horiz-adv-x="1265" 
d="M164 0v1243h-119v148h119v114h182v-114h289v-148h-289v-502q42 140 149.5 218.5t272.5 78.5q176 0 274.5 -111t98.5 -315v-884q0 -125 -146 -125h-403v155h366v834q0 155 -60.5 223t-192.5 68q-165 0 -262 -122.5t-97 -328.5v-432h-182z" />
    <glyph glyph-name="uni0453" unicode="&#x453;" horiz-adv-x="919" 
d="M147 877q0 141 144 141h575v-156h-536v-862h-183v877zM186 1319l643 164l35 -140l-643 -163z" />
    <glyph glyph-name="uni0454" unicode="&#x454;" horiz-adv-x="1208" 
d="M102 510q0 229 141 378.5t382 149.5q64 0 126.5 -14t124 -45.5t109.5 -77.5t81 -116.5t40 -155.5h-182q-21 132 -100.5 193t-198.5 61q-149 0 -235.5 -86.5t-102.5 -225.5h458v-127h-458q18 -139 104 -224t234 -85q119 0 198.5 61t100.5 193h182q-7 -85 -40 -155.5
t-81 -116.5t-109.5 -77.5t-124 -45.5t-126.5 -14q-241 0 -382 149.5t-141 380.5z" />
    <glyph glyph-name="uni0455" unicode="&#x455;" horiz-adv-x="1036" 
d="M565 -20q-228 0 -353.5 103t-125.5 292h182q0 -124 78 -188t221 -64q109 0 163 36t54 113q0 53 -35 85.5t-114 54.5l-273 80q-235 67 -235 268q0 133 103 205.5t286 72.5q199 0 312.5 -89t113.5 -253h-182q0 93 -63 147t-179 54q-96 0 -153.5 -37.5t-57.5 -95.5
q0 -50 35 -82.5t111 -54.5l237 -68q136 -39 206.5 -108t70.5 -183q0 -139 -103 -213.5t-299 -74.5z" />
    <glyph glyph-name="uni0456" unicode="&#x456;" horiz-adv-x="907" 
d="M106 0v156h283v706h-211v156h264q115 0 115 -119v-743h285v-156h-736zM307 1329q0 59 41.5 98t102.5 39q62 0 104.5 -39t42.5 -98t-42.5 -98t-104.5 -39q-61 0 -102.5 39t-41.5 98z" />
    <glyph glyph-name="uni0457" unicode="&#x457;" horiz-adv-x="907" 
d="M106 0v156h283v706h-211v156h264q115 0 115 -119v-743h285v-156h-736zM92 1321q0 61 42.5 102t105.5 41q65 0 108 -41t43 -102t-43 -102t-108 -41q-63 0 -105.5 41t-42.5 102zM514 1321q0 61 42.5 102t107.5 41q63 0 107 -41t44 -102t-44 -102t-107 -41q-65 0 -107.5 41
t-42.5 102z" />
    <glyph glyph-name="uni0458" unicode="&#x458;" horiz-adv-x="622" 
d="M256 -59q24 43 31.5 76.5t7.5 86.5v758h-215v156h266q64 0 96.5 -27.5t32.5 -89.5v-829q0 -51 -8 -84.5t-31 -77.5l-155 -299h-197zM219 1329q0 59 41 98t102 39q62 0 105 -39t43 -98t-43 -98t-105 -39q-61 0 -102 39t-41 98z" />
    <glyph glyph-name="uni0459" unicode="&#x459;" horiz-adv-x="1814" 
d="M1049 1018v-285h223q76 0 139 -10t120.5 -35.5t97 -66.5t62.5 -105.5t23 -148.5t-23 -148.5t-62.5 -105.5t-97 -67t-120.5 -36t-139 -10h-406v862h-389q-1 -102 -3 -175.5t-7 -155t-13.5 -138.5t-22.5 -116.5t-34 -99t-48 -76t-64 -57t-82 -32.5t-103 -12v156
q134 0 164.5 179t30.5 683h754zM1049 152h202q57 0 94.5 3.5t76 16t60.5 35.5t36 63t14 97q0 70 -19 114.5t-60 65.5t-86 28t-116 7h-202v-430z" />
    <glyph glyph-name="uni045A" unicode="&#x45a;" horiz-adv-x="1839" 
d="M143 1018h183v-430h563v430h182v-285h223q77 0 139.5 -10t120.5 -35.5t97.5 -66.5t62.5 -105.5t23 -148.5t-23 -148.5t-62.5 -105.5t-97.5 -67t-121 -36t-139 -10h-405v432h-563v-432h-183v1018zM1071 152h203q57 0 94.5 3.5t76 16t60 35.5t35.5 63t14 97t-13.5 96.5
t-35.5 62.5t-60.5 36t-76.5 16.5t-94 3.5h-203v-430z" />
    <glyph glyph-name="uni045B" unicode="&#x45b;" horiz-adv-x="1265" 
d="M164 0v1243h-119v148h119v114h182v-114h289v-148h-289v-502q42 140 149.5 218.5t272.5 78.5q176 0 274.5 -111t98.5 -315v-612h-183v592q0 155 -60.5 223t-192.5 68q-165 0 -262 -122.5t-97 -328.5v-432h-182z" />
    <glyph glyph-name="uni045C" unicode="&#x45c;" horiz-adv-x="1079" 
d="M143 1018h183v-432h61l293 356q64 76 156 76h161v-156h-163l-287 -344l475 -518h-223l-404 440h-69v-440h-183v1018zM193 1319l643 164l34 -140l-643 -163z" />
    <glyph glyph-name="uni045F" unicode="&#x45f;" horiz-adv-x="1218" 
d="M143 0v1014h183v-858h563v858h180v-1014h-371v-270h-182v270h-373z" />
    <glyph glyph-name="uni0490" unicode="&#x490;" horiz-adv-x="1114" 
d="M274 1444h594v194h187v-354h-723v-1284h-187v1315q0 63 33.5 96t95.5 33z" />
    <glyph glyph-name="uni0491" unicode="&#x491;" horiz-adv-x="919" 
d="M143 877q0 141 144 141h395v237h182v-393h-538v-862h-183v877z" />
    <glyph glyph-name="uni1E20" unicode="&#x1e20;" horiz-adv-x="1626" 
d="M768 -23q-160 0 -285.5 55.5t-204 155t-119 231.5t-40.5 290q0 228 80.5 398t236.5 264.5t371 94.5q262 0 430 -143.5t203 -394.5h-189q-25 181 -139 280t-299 99q-243 0 -374.5 -163t-131.5 -439q0 -121 27.5 -220.5t85 -179t155.5 -124t230 -44.5q238 0 360 127.5
t115 368.5h-559v143h620q129 0 129 -121v-655h-186v289q-14 -41 -36.5 -80.5t-65 -83t-97.5 -75t-137 -52.5t-180 -21zM461 1686v147h680v-145z" />
    <glyph glyph-name="uni1E21" unicode="&#x1e21;" horiz-adv-x="1343" 
d="M580 -20q-216 0 -347 148t-131 382t131 381t347 147q163 0 273.5 -73.5t164.5 -198.5v252h180v-1292q0 -125 -141 -125h-778v155h737v244h2v252q-55 -127 -165.5 -199.5t-272.5 -72.5zM285 510q0 -184 98.5 -279.5t255.5 -95.5q160 0 266.5 97.5t106.5 277.5
q0 120 -52 206t-135 126.5t-186 40.5q-158 0 -256 -94.5t-98 -278.5zM326 1260v147h680v-145z" />
    <glyph glyph-name="Wgrave" unicode="&#x1e80;" horiz-adv-x="1906" 
d="M1864 1444l-285 -1444h-332l-293 1374l-290 -1374h-334l-285 1444h184l256 -1249l21 -117l289 1366h319l291 -1366l20 117l252 1249h187zM618 1769l35 140l643 -164l-34 -139z" />
    <glyph glyph-name="wgrave" unicode="&#x1e81;" horiz-adv-x="1798" 
d="M72 1018h172l235 -825l29 -113l233 938h314l235 -930l27 105l233 825h174l-282 -1018h-307l-236 952l-233 -952h-318zM563 1343l35 140l643 -164l-35 -139z" />
    <glyph glyph-name="Wacute" unicode="&#x1e82;" horiz-adv-x="1906" 
d="M1864 1444l-285 -1444h-332l-293 1374l-290 -1374h-334l-285 1444h184l256 -1249l21 -117l289 1366h319l291 -1366l20 117l252 1249h187zM610 1745l643 164l35 -140l-643 -163z" />
    <glyph glyph-name="wacute" unicode="&#x1e83;" horiz-adv-x="1798" 
d="M72 1018h172l235 -825l29 -113l233 938h314l235 -930l27 105l233 825h174l-282 -1018h-307l-236 952l-233 -952h-318zM555 1319l643 164l35 -140l-643 -163z" />
    <glyph glyph-name="Wdieresis" unicode="&#x1e84;" horiz-adv-x="1906" 
d="M1864 1444l-285 -1444h-332l-293 1374l-290 -1374h-334l-285 1444h184l256 -1249l21 -117l289 1366h319l291 -1366l20 117l252 1249h187zM592 1747q0 61 42 102t105 41q65 0 108.5 -41t43.5 -102t-43.5 -102t-108.5 -41q-63 0 -105 41t-42 102zM1014 1747
q0 62 42.5 102.5t106.5 40.5t108 -41t44 -102t-44 -102t-108 -41t-106.5 40.5t-42.5 102.5z" />
    <glyph glyph-name="wdieresis" unicode="&#x1e85;" horiz-adv-x="1798" 
d="M72 1018h172l235 -825l29 -113l233 938h314l235 -930l27 105l233 825h174l-282 -1018h-307l-236 952l-233 -952h-318zM539 1321q0 61 42 102t105 41q65 0 108.5 -41t43.5 -102t-43.5 -102t-108.5 -41q-63 0 -105 41t-42 102zM961 1321q0 62 42.5 102.5t106.5 40.5
t108 -41t44 -102t-44 -102t-108 -41t-106.5 40.5t-42.5 102.5z" />
    <glyph glyph-name="uni1E9E" unicode="&#x1e9e;" horiz-adv-x="1331" 
d="M147 991q0 126 36.5 219t104.5 148t156 81.5t199 26.5q100 0 181 -21t132.5 -54.5t86 -78.5t49 -90.5t14.5 -91.5q0 -101 -74.5 -193.5t-228.5 -148.5q136 15 243 -25.5t168.5 -134.5t61.5 -227q0 -203 -135 -302t-391 -99h-301v160h301q164 0 252 69t88 197
q0 150 -114 216.5t-304 16.5l-45 183q87 22 147.5 52.5t91.5 66t43.5 70t12.5 73.5q0 88 -65 145.5t-210 57.5q-157 0 -235 -79.5t-78 -254.5v-973h-187v991z" />
    <glyph glyph-name="uni1EBC" unicode="&#x1ebc;" horiz-adv-x="1257" 
d="M147 0v1444h1004v-160h-817v-483h715v-156h-715v-485h817v-160h-1004zM225 1634q0 149 58 219t159 70q48 0 90 -17t70.5 -41t53.5 -48t50.5 -41t49.5 -17q40 0 62 30t22 114h145q0 -149 -58 -219t-159 -70q-48 0 -89.5 17t-70 41t-53.5 48t-50.5 41t-49.5 17
q-39 0 -60.5 -29.5t-21.5 -114.5h-148z" />
    <glyph glyph-name="uni1EBD" unicode="&#x1ebd;" horiz-adv-x="1191" 
d="M229 1208q0 149 58 219t159 70q48 0 90 -17t70.5 -41t53.5 -48t50.5 -41t49.5 -17q40 0 62 30t22 114h145q0 -149 -58 -219t-159 -70q-48 0 -89.5 17t-70 41t-53.5 48t-50.5 41t-49.5 17q-39 0 -60.5 -29.5t-21.5 -114.5h-148zM102 522q0 244 133 380t355 136
q228 0 362.5 -131.5t134.5 -365.5v-66h-808q5 -157 87 -253.5t234 -96.5q127 0 205.5 61t105.5 170h181q-16 -75 -50.5 -139t-91.5 -119t-146 -86.5t-202 -31.5q-121 0 -217.5 42t-157.5 116t-93 172t-32 212zM281 604h628q-9 137 -95 214t-224 77q-128 0 -213.5 -77.5
t-95.5 -213.5z" />
    <glyph glyph-name="Ygrave" unicode="&#x1ef2;" horiz-adv-x="1361" 
d="M1100 1444h198l-462 -836h-64v-608h-184v608h-62l-463 836h197l420 -776zM346 1769l35 140l643 -164l-35 -139z" />
    <glyph glyph-name="ygrave" unicode="&#x1ef3;" horiz-adv-x="1230" 
d="M1108 1018v-1292q0 -125 -141 -125h-779v155h738v520q-42 -140 -149.5 -218t-272.5 -78q-176 0 -274.5 111t-98.5 315v612h182v-592q0 -155 61 -223t193 -68q165 0 262 122.5t97 328.5v432h182zM297 1343l35 140l643 -164l-35 -139z" />
    <glyph glyph-name="uni1EF8" unicode="&#x1ef8;" horiz-adv-x="1361" 
d="M1100 1444h198l-462 -836h-64v-608h-184v608h-62l-463 836h197l420 -776zM301 1634q0 149 58 219t159 70q48 0 90 -17t70.5 -41t53 -48t50 -41t49.5 -17q40 0 62 30t22 114h146q0 -149 -58 -219t-159 -70q-48 0 -89.5 17t-70 41t-53.5 48t-51 41t-50 17q-39 0 -60 -29.5
t-21 -114.5h-148z" />
    <glyph glyph-name="uni1EF9" unicode="&#x1ef9;" horiz-adv-x="1230" 
d="M1108 1018v-1292q0 -125 -141 -125h-779v155h738v520q-42 -140 -149.5 -218t-272.5 -78q-176 0 -274.5 111t-98.5 315v612h182v-592q0 -155 61 -223t193 -68q165 0 262 122.5t97 328.5v432h182zM252 1208q0 149 58 219t159 70q48 0 90 -17t70.5 -41t53 -48t50 -41
t49.5 -17q40 0 62 30t22 114h146q0 -149 -58 -219t-159 -70q-48 0 -89.5 17t-70 41t-53.5 48t-51 41t-50 17q-39 0 -60.5 -29.5t-21.5 -114.5h-147z" />
    <glyph glyph-name="endash" unicode="&#x2013;" horiz-adv-x="1738" 
d="M168 592h1403v-148h-1403v148z" />
    <glyph glyph-name="emdash" unicode="&#x2014;" horiz-adv-x="2148" 
d="M168 592h1812v-148h-1812v148z" />
    <glyph glyph-name="quoteleft" unicode="&#x2018;" horiz-adv-x="655" 
d="M328 920l-164 45l164 604l164 -45z" />
    <glyph glyph-name="quoteright" unicode="&#x2019;" horiz-adv-x="655" 
d="M328 918l-164 604l166 45l162 -604z" />
    <glyph glyph-name="quotesinglbase" unicode="&#x201a;" horiz-adv-x="655" 
d="M328 338l164 -45l-164 -604l-164 45z" />
    <glyph glyph-name="quotedblleft" unicode="&#x201c;" horiz-adv-x="944" 
d="M328 920l-164 45l164 604l164 -45zM451 965l163 604l164 -45l-164 -604z" />
    <glyph glyph-name="quotedblright" unicode="&#x201d;" horiz-adv-x="944" 
d="M328 918l-164 604l166 45l162 -604zM451 1522l165 45l162 -604l-164 -45z" />
    <glyph glyph-name="quotedblbase" unicode="&#x201e;" horiz-adv-x="944" 
d="M328 338l164 -45l-164 -604l-164 45zM451 -266l163 604l164 -45l-164 -604z" />
    <glyph glyph-name="dagger" unicode="&#x2020;" horiz-adv-x="1144" 
d="M500 1747h145v-391h332v-148h-332v-899h-145v899h-332v148h332v391z" />
    <glyph glyph-name="daggerdbl" unicode="&#x2021;" horiz-adv-x="1144" 
d="M168 848h332v360h-332v148h332v391h145v-391h332v-148h-332v-360h332v-148h-332v-391h-145v391h-332v148z" />
    <glyph glyph-name="bullet" unicode="&#x2022;" horiz-adv-x="1357" 
d="M676 -4q-108 0 -203 40t-162 108.5t-106 162t-39 197.5q0 140 66 255.5t183 182t261 66.5q141 0 259.5 -66.5t186.5 -182.5t68 -255q0 -138 -68 -255t-186.5 -185t-259.5 -68z" />
    <glyph glyph-name="ellipsis" unicode="&#x2026;" horiz-adv-x="1914" 
d="M342 -20q-74 0 -124 50.5t-50 123.5q0 72 50 122t124 50t125 -50t51 -122t-51.5 -123t-124.5 -51zM782 154q0 72 50 122t124 50t125.5 -50t51.5 -122t-52 -123t-125 -51q-74 0 -124 50.5t-50 123.5zM1397 154q0 72 49.5 122t124.5 50q74 0 125 -50t51 -122t-51.5 -123
t-124.5 -51q-74 0 -124 50.5t-50 123.5z" />
    <glyph glyph-name="perthousand" unicode="&#x2030;" horiz-adv-x="3299" 
d="M489 592q-188 0 -308 123.5t-120 302.5t120 302.5t308 123.5q189 0 309 -123.5t120 -302.5t-120 -302.5t-309 -123.5zM207 1018q0 -116 80 -198.5t202 -82.5q123 0 203 82t80 199t-79.5 198.5t-203.5 81.5q-122 0 -202 -82t-80 -198zM731 37l729 1417l131 -61l-731 -1418
zM1403 410q0 179 120 302.5t308 123.5q189 0 308.5 -123.5t119.5 -302.5t-119.5 -302.5t-308.5 -123.5q-188 0 -308 123.5t-120 302.5zM1548 410q0 -116 80.5 -198.5t202.5 -82.5q123 0 203 82t80 199t-79.5 198.5t-203.5 81.5q-122 0 -202.5 -82t-80.5 -198zM2382 410
q0 179 120 302.5t308 123.5q189 0 308.5 -123.5t119.5 -302.5t-119.5 -302.5t-308.5 -123.5q-188 0 -308 123.5t-120 302.5zM2527 410q0 -116 80.5 -198.5t202.5 -82.5q123 0 202.5 82t79.5 199t-79.5 198.5t-202.5 81.5q-122 0 -202.5 -82t-80.5 -198z" />
    <glyph glyph-name="guilsinglleft" unicode="&#x2039;" horiz-adv-x="1026" 
d="M862 39l-119 -105l-575 574l575 571l119 -104l-469 -467z" />
    <glyph glyph-name="guilsinglright" unicode="&#x203a;" horiz-adv-x="1026" 
d="M164 975l119 104l575 -573l-575 -572l-119 105l469 467z" />
    <glyph glyph-name="fraction" unicode="&#x2044;" horiz-adv-x="604" 
d="M602 1454l131 -61l-731 -1418l-129 62z" />
    <glyph glyph-name="uni2070" unicode="&#x2070;" horiz-adv-x="1040" 
d="M78 1446q0 231 117 375.5t325 144.5t325.5 -144.5t117.5 -375.5q0 -232 -117 -376t-326 -144q-139 0 -240 67.5t-151.5 184t-50.5 268.5zM229 1446q0 -121 35 -211l447 526q-74 74 -191 74q-141 0 -216 -105.5t-75 -283.5zM332 1128q74 -71 188 -71q141 0 216 105t75 284
q0 123 -35 213z" />
    <glyph glyph-name="uni2074" unicode="&#x2074;" horiz-adv-x="954" 
d="M84 1401q178 65 295 209t135 342h152q-46 -479 -525 -674h469v324h152v-324h123v-131h-123v-207h-152v207h-526v254z" />
    <glyph glyph-name="uni2075" unicode="&#x2075;" horiz-adv-x="1011" 
d="M500 926q-190 0 -306 97t-116 280h151q0 -119 71.5 -182.5t201.5 -63.5q132 0 203 66t71 186q0 112 -66.5 171.5t-185.5 59.5q-176 0 -260 -117l-162 82l78 447h672v-131h-547l-57 -326q97 168 327 168q163 0 258 -91.5t95 -256.5q0 -183 -114.5 -286t-313.5 -103z" />
    <glyph glyph-name="uni2076" unicode="&#x2076;" horiz-adv-x="989" 
d="M84 1413q0 96 14 173.5t48 147.5t88 117t138.5 74t194.5 27h275v-131h-285q-330 0 -356 -367q35 98 125 152.5t219 54.5q171 0 273 -98.5t102 -257.5q0 -173 -108 -276t-296 -103q-205 0 -318.5 123.5t-113.5 363.5zM233 1298q0 -101 72 -171t203 -70q124 0 192 63
t68 185q0 109 -68 172t-188 63q-132 0 -205.5 -65t-73.5 -177z" />
    <glyph glyph-name="uni2077" unicode="&#x2077;" horiz-adv-x="839" 
d="M193 940q0 632 550 881h-696v131h746v-205q-225 -111 -333 -306.5t-108 -500.5h-159z" />
    <glyph glyph-name="uni2078" unicode="&#x2078;" horiz-adv-x="956" 
d="M57 1221q0 106 67.5 176t190.5 100q-90 24 -146 80t-56 143q0 84 51 141t131 81t184 24q159 0 262 -61t103 -185q0 -87 -56.5 -143t-146.5 -80q122 -30 190 -100.5t68 -179.5q0 -134 -113.5 -212.5t-308.5 -78.5q-192 0 -306 78.5t-114 216.5zM207 1237q0 -84 68.5 -136
t203.5 -52q134 0 201.5 52t67.5 136q0 90 -67 141.5t-202 51.5q-136 0 -204 -51.5t-68 -141.5zM262 1702q0 -143 217 -143q213 0 213 143q0 141 -213 141q-217 0 -217 -141z" />
    <glyph glyph-name="uni2079" unicode="&#x2079;" horiz-adv-x="989" 
d="M905 1479q0 -122 -23 -215t-76.5 -168.5t-150 -115.5t-233.5 -40h-277v131h285q332 0 358 365v2q-36 -99 -125 -154t-221 -55q-170 0 -270 98.5t-100 257.5q0 174 107.5 277.5t293.5 103.5q205 0 318.5 -124t113.5 -363zM221 1585q0 -108 69 -170.5t187 -62.5
q132 0 204.5 64t72.5 175q0 102 -71.5 173t-201.5 71q-125 0 -192.5 -63.5t-67.5 -186.5z" />
    <glyph glyph-name="uni2080" unicode="&#x2080;" horiz-adv-x="1040" 
d="M78 301q0 231 117 375.5t325 144.5t325.5 -144.5t117.5 -375.5q0 -232 -117 -376t-326 -144q-139 0 -240 67.5t-151.5 184t-50.5 268.5zM229 301q0 -121 35 -211l447 526q-74 74 -191 74q-141 0 -216 -105.5t-75 -283.5zM332 -16q75 -72 188 -72q141 0 216 105t75 284
q0 123 -35 213z" />
    <glyph glyph-name="uni2081" unicode="&#x2081;" horiz-adv-x="724" 
d="M469 -205v940q-7 -90 -25.5 -160t-57 -138t-106.5 -118t-165 -79l-52 131q144 55 208 161.5t67 274.5h283v-1012h-152z" />
    <glyph glyph-name="uni2082" unicode="&#x2082;" horiz-adv-x="958" 
d="M70 328q0 129 33.5 226t94.5 154t138.5 85t171.5 28q171 0 272 -89t101 -253q0 -419 -721 -553h721v-131h-797v244q27 3 68 10.5t104.5 24t125.5 39.5t126 58.5t112.5 78t79.5 102.5t31 127q0 102 -55.5 156.5t-167.5 54.5q-289 0 -289 -362h-149z" />
    <glyph glyph-name="uni2083" unicode="&#x2083;" horiz-adv-x="974" 
d="M221 180q0 -147 66.5 -207.5t208.5 -60.5q243 0 243 184q0 166 -176 166h-137v123h137q162 0 162 139q0 166 -229 166q-136 0 -198 -52t-62 -165h-150q0 173 108.5 260.5t305.5 87.5q177 0 275.5 -72t98.5 -194q0 -91 -47.5 -150t-136.5 -79q199 -46 199 -254
q0 -138 -104.5 -214.5t-284.5 -76.5q-428 0 -428 399h149z" />
    <glyph glyph-name="uni2084" unicode="&#x2084;" horiz-adv-x="954" 
d="M84 256q178 65 295 209t135 342h152q-46 -479 -525 -674h469v324h152v-324h123v-131h-123v-207h-152v207h-526v254z" />
    <glyph glyph-name="uni2085" unicode="&#x2085;" horiz-adv-x="1011" 
d="M500 -219q-190 0 -306 97t-116 280h151q0 -119 71.5 -182.5t201.5 -63.5q132 0 203 66t71 186q0 112 -66.5 171.5t-185.5 59.5q-176 0 -260 -116l-162 81l78 447h672v-131h-547l-57 -326q97 168 327 168q163 0 258 -91.5t95 -256.5q0 -183 -114.5 -286t-313.5 -103z" />
    <glyph glyph-name="uni2086" unicode="&#x2086;" horiz-adv-x="989" 
d="M84 268q0 96 14 173.5t48 147.5t88 117t138.5 74t194.5 27h275v-131h-285q-330 0 -356 -367q35 98 125 152.5t219 54.5q171 0 273 -98.5t102 -257.5q0 -173 -108 -276t-296 -103q-205 0 -318.5 123.5t-113.5 363.5zM233 154q0 -101 72 -171.5t203 -70.5q124 0 192 63
t68 185q0 109 -68 172t-188 63q-132 0 -205.5 -65t-73.5 -176z" />
    <glyph glyph-name="uni2087" unicode="&#x2087;" horiz-adv-x="839" 
d="M193 -205q0 632 550 881h-696v131h746v-205q-225 -111 -333 -306.5t-108 -500.5h-159z" />
    <glyph glyph-name="uni2088" unicode="&#x2088;" horiz-adv-x="956" 
d="M57 76q0 106 67.5 176t190.5 100q-90 24 -146 80t-56 143q0 84 51 141t131 81t184 24q159 0 262 -61t103 -185q0 -87 -56.5 -143t-146.5 -80q122 -30 190 -100.5t68 -179.5q0 -134 -113.5 -212.5t-308.5 -78.5q-192 0 -306 78.5t-114 216.5zM207 92q0 -84 68.5 -136
t203.5 -52q134 0 201.5 52t67.5 136q0 90 -67 141.5t-202 51.5q-136 0 -204 -51.5t-68 -141.5zM262 557q0 -143 217 -143q213 0 213 143q0 141 -213 141q-217 0 -217 -141z" />
    <glyph glyph-name="uni2089" unicode="&#x2089;" horiz-adv-x="989" 
d="M905 334q0 -122 -23 -215t-76.5 -168.5t-150 -115.5t-233.5 -40h-277v131h285q332 0 358 365v2q-36 -99 -125 -154t-221 -55q-170 0 -270 98.5t-100 257.5q0 174 107.5 277.5t293.5 103.5q205 0 318.5 -124t113.5 -363zM221 440q0 -108 69 -170.5t187 -62.5
q132 0 204.5 64t72.5 175q0 102 -71.5 173t-201.5 71q-125 0 -192.5 -63.5t-67.5 -186.5z" />
    <glyph glyph-name="Euro" unicode="&#x20ac;" horiz-adv-x="1673" 
d="M352 723l2 59h-176v127h189q19 124 65 224.5t117.5 175t175 115t231.5 40.5q230 0 372.5 -127.5t176.5 -349.5h-180q-22 155 -115 238.5t-254 83.5q-349 0 -411 -400h483v-127h-493q-3 -27 -3 -59l3 -64h493v-127h-481q62 -397 409 -397q161 0 254 84t117 240h178
q-35 -222 -177 -350.5t-372 -128.5q-250 0 -399.5 149t-189.5 403h-189v127h176q-2 20 -2 64z" />
    <glyph glyph-name="trademark" unicode="&#x2122;" horiz-adv-x="1828" 
d="M168 1444h561v-111h-215v-573h-127v573h-219v111zM821 760v684h240l176 -619l184 619h236v-684h-129v604l-178 -604h-220l-182 606v-606h-127z" />
    <glyph glyph-name="oneeighth" unicode="&#x215b;" horiz-adv-x="2220" 
d="M469 428v940q-7 -90 -25.5 -160t-57 -138.5t-106.5 -118.5t-165 -79l-52 132q144 55 208 161.5t67 274.5h283v-1012h-152zM584 37l729 1417l131 -61l-731 -1418zM1321 281q0 106 67.5 176t190.5 100q-90 24 -146.5 80t-56.5 143q0 64 29 112.5t80.5 77t116 42.5t141.5 14
q159 0 261.5 -61t102.5 -185q0 -87 -56 -143t-146 -80q122 -30 190 -101t68 -180q0 -134 -113.5 -212t-308.5 -78q-192 0 -306 78.5t-114 216.5zM1470 297q0 -84 69 -136t204 -52q133 0 200.5 52t67.5 136q0 90 -66.5 141t-201.5 51q-137 0 -205 -51t-68 -141zM1526 762
q0 -144 217 -144q213 0 213 144q0 141 -213 141q-217 0 -217 -141z" />
    <glyph glyph-name="threeeighths" unicode="&#x215c;" horiz-adv-x="2439" 
d="M221 817q0 -147 66.5 -207.5t208.5 -60.5q243 0 243 184q0 166 -176 166h-137v123h137q162 0 162 139q0 166 -229 166q-136 0 -198 -52t-62 -165h-150q0 173 108.5 260.5t305.5 87.5q177 0 275.5 -72t98.5 -194q0 -91 -47.5 -150t-136.5 -79q199 -46 199 -254
q0 -138 -104.5 -214.5t-284.5 -76.5q-428 0 -428 399h149zM803 37l729 1417l131 -61l-731 -1418zM1540 281q0 106 67.5 176t190.5 100q-90 24 -146.5 80t-56.5 143q0 64 29 112.5t80.5 77t116 42.5t141.5 14q159 0 262 -61t103 -185q0 -87 -56.5 -143t-146.5 -80
q122 -30 190 -101t68 -180q0 -134 -113.5 -212t-308.5 -78q-192 0 -306 78.5t-114 216.5zM1690 297q0 -84 68.5 -136t203.5 -52q133 0 200.5 52t67.5 136q0 90 -66.5 141t-201.5 51q-137 0 -204.5 -51t-67.5 -141zM1745 762q0 -144 217 -144q213 0 213 144q0 141 -213 141
q-217 0 -217 -141z" />
    <glyph glyph-name="fiveeighths" unicode="&#x215d;" horiz-adv-x="2476" 
d="M500 418q-190 0 -306 97t-116 280h151q0 -119 71.5 -182.5t201.5 -63.5q132 0 203 66t71 186q0 112 -66.5 171.5t-185.5 59.5q-176 0 -260 -117l-162 82l78 447h672v-131h-547l-57 -326q97 168 327 168q163 0 258 -91.5t95 -256.5q0 -183 -114.5 -286t-313.5 -103z
M840 37l729 1417l131 -61l-731 -1418zM1577 281q0 106 67.5 176t190.5 100q-90 24 -146.5 80t-56.5 143q0 64 29 112.5t80.5 77t116 42.5t141.5 14q159 0 261.5 -61t102.5 -185q0 -87 -56 -143t-146 -80q122 -30 190 -101t68 -180q0 -134 -113.5 -212t-308.5 -78
q-192 0 -306 78.5t-114 216.5zM1726 297q0 -84 69 -136t204 -52q133 0 200.5 52t67.5 136q0 90 -66.5 141t-201.5 51q-137 0 -205 -51t-68 -141zM1782 762q0 -144 217 -144q213 0 213 144q0 141 -213 141q-217 0 -217 -141z" />
    <glyph glyph-name="seveneighths" unicode="&#x215e;" horiz-adv-x="2119" 
d="M193 432q0 632 550 881h-696v131h746v-205q-225 -111 -333 -306.5t-108 -500.5h-159zM483 37l729 1417l131 -61l-731 -1418zM1221 281q0 106 67.5 176t190.5 100q-90 24 -146.5 80t-56.5 143q0 84 51 141t131 81t184 24q159 0 262 -61t103 -185q0 -87 -56.5 -143
t-146.5 -80q122 -30 190 -101t68 -180q0 -134 -113.5 -212t-308.5 -78q-192 0 -305.5 78.5t-113.5 216.5zM1370 297q0 -84 68.5 -136t203.5 -52q134 0 201.5 52t67.5 136q0 90 -67 141t-202 51q-137 0 -204.5 -51t-67.5 -141zM1425 762q0 -144 217 -144q213 0 213 144
q0 141 -213 141q-217 0 -217 -141z" />
    <glyph glyph-name="arrowleft" unicode="&#x2190;" horiz-adv-x="1548" 
d="M1380 586v-154h-919l397 -395l-115 -103l-575 572l575 573l115 -102l-391 -391h913z" />
    <glyph glyph-name="arrowup" unicode="&#x2191;" horiz-adv-x="1480" 
d="M662 -94v913l-392 -391l-102 115l573 575l572 -575l-103 -115l-395 397v-919h-153z" />
    <glyph glyph-name="arrowright" unicode="&#x2192;" horiz-adv-x="1548" 
d="M168 586h913l-391 391l115 102l575 -573l-575 -572l-115 103l397 395h-919v154z" />
    <glyph glyph-name="arrowdown" unicode="&#x2193;" horiz-adv-x="1480" 
d="M662 1116h153v-919l395 397l103 -115l-572 -575l-573 575l102 115l392 -391v913z" />
    <glyph glyph-name="arrowboth" unicode="&#x2194;" horiz-adv-x="2381" 
d="M1001 924h914l-391 391l114 102l576 -573l-576 -572l-114 103l397 395h-920v154zM168 506l575 573l115 -102l-391 -391h913v-154h-919l397 -395l-115 -103z" />
    <glyph glyph-name="arrowupdn" unicode="&#x2195;" horiz-adv-x="1787" 
d="M641 301v913l-391 -391l-103 115l574 575l571 -575l-102 -115l-395 398v-920h-154zM496 47l102 115l391 -391v913h154v-920l395 398l102 -115l-571 -575z" />
    <glyph glyph-name="uni2196" unicode="&#x2196;" horiz-adv-x="1480" 
d="M1071 27l-647 645v-553l-154 8v813l811 -4l9 -154l-560 2l650 -649z" />
    <glyph glyph-name="uni2197" unicode="&#x2197;" horiz-adv-x="1480" 
d="M256 137l645 645h-553l10 154l811 2l-2 -811l-153 -8l2 561l-651 -651z" />
    <glyph glyph-name="uni2198" unicode="&#x2198;" horiz-adv-x="1480" 
d="M379 940l645 -647v553l154 -8l2 -811l-811 2l-9 153l560 -2l-650 651z" />
    <glyph glyph-name="uni2199" unicode="&#x2199;" horiz-adv-x="1480" 
d="M1169 829l-645 -645h553l-8 -153l-813 -2l2 811l154 8v-559l649 649z" />
    <glyph glyph-name="partialdiff" unicode="&#x2202;" horiz-adv-x="1327" 
d="M653 -20q-174 0 -300 69.5t-188.5 189.5t-62.5 277q0 228 147 375t388 147q165 0 282.5 -77.5t172.5 -215.5v9q-14 128 -79 234.5t-170.5 182.5t-241 126t-296.5 73v156q200 -23 366.5 -90.5t291.5 -175.5t194.5 -263.5t69.5 -343.5q0 -314 -156 -493.5t-418 -179.5z
M283 516q0 -181 97 -281t275 -100q87 0 160.5 31t121.5 84t74.5 121.5t26.5 144.5q0 168 -100 267.5t-272 99.5q-179 0 -281 -99.5t-102 -267.5z" />
    <glyph glyph-name="emptyset" unicode="&#x2205;" horiz-adv-x="2011" 
d="M1006 -262q-191 0 -357 72l-121 -209l-129 73l119 207q-165 115 -257.5 296.5t-92.5 397.5q0 172 61 326t169 267t266 179t342 66q190 0 356 -72l121 209l129 -73l-119 -207q165 -115 257.5 -297t92.5 -398q0 -173 -61 -326t-168.5 -266t-265.5 -179t-342 -66zM315 575
q0 -171 74 -320t205 -245l694 1204q-132 58 -282 58t-280.5 -56t-219.5 -151t-140 -222.5t-51 -267.5zM723 -63q132 -58 283 -58q200 0 359 95.5t245 254t86 346.5q0 171 -74 320.5t-205 245.5z" />
    <glyph glyph-name="product" unicode="&#x220f;" horiz-adv-x="1568" 
d="M168 1444h1233v-146h-271v-1667h-165v1667h-361v-1667h-164v1667h-272v146z" />
    <glyph glyph-name="summation" unicode="&#x2211;" horiz-adv-x="1230" 
d="M168 -369v222l618 686l-618 684v221h895v-146h-770l645 -686v-147l-645 -686h770v-148h-895z" />
    <glyph glyph-name="minus" unicode="&#x2212;" horiz-adv-x="1325" 
d="M168 592h987v-148h-987v148z" />
    <glyph glyph-name="radical" unicode="&#x221a;" horiz-adv-x="1650" 
d="M961 1333q26 111 141 111h379v-137h-387l-420 -1676h-303l-203 789h141l187 -737h53z" />
    <glyph glyph-name="infinity" unicode="&#x221e;" horiz-adv-x="2093" 
d="M168 614q0 178 116.5 290t295.5 112q56 0 107 -11.5t95 -36t78 -48t71.5 -64t59 -66t56.5 -69.5q35 45 56 70t59 65.5t71.5 64t77.5 48t95 36t107 11.5q179 0 295.5 -112t116.5 -290t-116.5 -289.5t-295.5 -111.5q-56 0 -107 11.5t-95 36t-77.5 48t-71.5 64t-59 65.5
t-56 70q-35 -44 -56.5 -69.5t-59 -66t-71.5 -64t-78 -48t-95 -36t-107 -11.5q-179 0 -295.5 111.5t-116.5 289.5zM330 614q0 -117 71.5 -186.5t192.5 -69.5q48 0 92.5 14t77.5 34.5t71.5 58t64 68t65.5 81.5q-40 51 -65.5 81.5t-64 68t-71.5 58t-77.5 34.5t-92.5 14
q-121 0 -192.5 -69.5t-71.5 -186.5zM1128 614q40 -51 65.5 -81.5t64 -68t71.5 -58t77.5 -34.5t92.5 -14q121 0 192.5 69.5t71.5 186.5t-71.5 186.5t-192.5 69.5q-48 0 -92.5 -14t-77.5 -34.5t-71.5 -58t-64 -68t-65.5 -81.5z" />
    <glyph glyph-name="integral" unicode="&#x222b;" horiz-adv-x="1409" 
d="M168 -369v146h301l342 1554q24 113 141 113h289v-146h-280l-343 -1554q-24 -113 -141 -113h-309z" />
    <glyph glyph-name="approxequal" unicode="&#x2248;" horiz-adv-x="1318" 
d="M168 588q0 147 73 221t173 74q54 0 110.5 -17t102.5 -41t90.5 -48t90 -41t85.5 -17q111 0 111 147h147q0 -76 -21.5 -134.5t-57.5 -92t-79 -50t-90 -16.5q-66 0 -137 25.5t-121 55.5t-110.5 55.5t-108.5 25.5q-111 0 -111 -147h-147zM168 160q0 147 73 221t173 74
q54 0 110.5 -17t102.5 -41t90.5 -48t90 -41t85.5 -17q111 0 111 147h147q0 -76 -21.5 -134.5t-57.5 -92t-79 -50t-90 -16.5q-66 0 -137 25.5t-121 55.5t-110.5 55.5t-108.5 25.5q-111 0 -111 -147h-147z" />
    <glyph glyph-name="notequal" unicode="&#x2260;" horiz-adv-x="1325" 
d="M168 801h580l176 305l116 -68l-137 -237h252v-146h-336l-157 -272h493v-147h-577l-177 -306l-116 70l135 236h-252v147h338l158 272h-496v146z" />
    <glyph glyph-name="lessequal" unicode="&#x2264;" horiz-adv-x="1327" 
d="M168 809l936 324l55 -140l-809 -270l809 -277l-55 -141l-936 334v170zM168 47v146h987v-146h-987z" />
    <glyph glyph-name="greaterequal" unicode="&#x2265;" horiz-adv-x="1327" 
d="M1159 631l-934 -326l-57 141l809 269l-809 278l57 140l934 -334v-168zM168 45v148h987v-148h-987z" />
    <glyph glyph-name="uni2460" unicode="&#x2460;" horiz-adv-x="2242" 
d="M1120 -250q-210 0 -395.5 77t-317 210t-208 319t-76.5 396t76.5 395.5t208.5 318t317 209t395 76.5t395.5 -76.5t318 -209t209.5 -318t77 -395.5t-77 -396t-209.5 -319t-318 -210t-395.5 -77zM248 752q0 -249 114 -452t313.5 -318t444.5 -115q147 0 281.5 43t242 123
t186.5 188.5t122 244.5t43 286q0 187 -67 351.5t-183 281.5t-278.5 185t-346.5 68q-183 0 -345 -68t-277.5 -185t-182.5 -281.5t-67 -351.5zM719 809q144 56 208.5 162t67.5 274h281v-1012h-152v924q-7 -69 -20 -124.5t-39 -113t-63.5 -101t-96.5 -80.5t-135 -60z" />
    <glyph glyph-name="uni2461" unicode="&#x2461;" horiz-adv-x="2242" 
d="M1120 -250q-210 0 -395.5 77t-317 210t-208 319t-76.5 396t76.5 395.5t208.5 318t317 209t395 76.5t395.5 -76.5t318 -209t209.5 -318t77 -395.5t-77 -396t-209.5 -319t-318 -210t-395.5 -77zM248 752q0 -249 114 -452t313.5 -318t444.5 -115q147 0 281.5 43t242 123
t186.5 188.5t122 244.5t43 286q0 187 -67 351.5t-183 281.5t-278.5 185t-346.5 68q-183 0 -345 -68t-277.5 -185t-182.5 -281.5t-67 -351.5zM717 766q0 129 33.5 226t94.5 154.5t138.5 85.5t171.5 28q170 0 271.5 -89t101.5 -253q0 -418 -723 -553h723v-132h-797v244
q28 3 68.5 10.5t104 25t125 40t126.5 58.5t113 78t79 102t31 127q0 102 -56.5 157t-168.5 55q-287 0 -287 -364h-149z" />
    <glyph glyph-name="uni2462" unicode="&#x2462;" horiz-adv-x="2242" 
d="M1120 -250q-210 0 -395.5 77t-317 210t-208 319t-76.5 396t76.5 395.5t208.5 318t317 209t395 76.5t395.5 -76.5t318 -209t209.5 -318t77 -395.5t-77 -396t-209.5 -319t-318 -210t-395.5 -77zM248 752q0 -249 114 -452t313.5 -318t444.5 -115q147 0 281.5 43t242 123
t186.5 188.5t122 244.5t43 286q0 187 -67 351.5t-183 281.5t-278.5 185t-346.5 68q-183 0 -345 -68t-277.5 -185t-182.5 -281.5t-67 -351.5zM713 618h147q0 -145 67 -206.5t208 -61.5q243 0 243 187q0 163 -174 163h-137v125h137q160 0 160 138q0 167 -229 167
q-136 0 -198.5 -53t-62.5 -166h-147q0 173 108.5 261t303.5 88q178 0 277.5 -72t99.5 -193q0 -95 -52 -146t-153 -67v-39q52 -9 88.5 -23t68 -39.5t47 -67.5t15.5 -101q0 -138 -104.5 -215.5t-286.5 -77.5q-201 0 -313.5 96.5t-112.5 302.5z" />
    <glyph glyph-name="uni2463" unicode="&#x2463;" horiz-adv-x="2242" 
d="M1120 -250q-210 0 -395.5 77t-317 210t-208 319t-76.5 396t76.5 395.5t208.5 318t317 209t395 76.5t395.5 -76.5t318 -209t209.5 -318t77 -395.5t-77 -396t-209.5 -319t-318 -210t-395.5 -77zM248 752q0 -249 114 -452t313.5 -318t444.5 -115q147 0 281.5 43t242 123
t186.5 188.5t122 244.5t43 286q0 187 -67 351.5t-183 281.5t-278.5 185t-346.5 68q-183 0 -345 -68t-277.5 -185t-182.5 -281.5t-67 -351.5zM688 442v252q178 65 295 209t135 342h152q-24 -232 -154 -403.5t-373 -270.5h469v324h152v-324h123v-129h-123v-209h-152v209h-524z
" />
    <glyph glyph-name="uni2464" unicode="&#x2464;" horiz-adv-x="2242" 
d="M1120 -250q-210 0 -395.5 77t-317 210t-208 319t-76.5 396t76.5 395.5t208.5 318t317 209t395 76.5t395.5 -76.5t318 -209t209.5 -318t77 -395.5t-77 -396t-209.5 -319t-318 -210t-395.5 -77zM248 752q0 -249 114 -452t313.5 -318t444.5 -115q147 0 281.5 43t242 123
t186.5 188.5t122 244.5t43 286q0 187 -67 351.5t-183 281.5t-278.5 185t-346.5 68q-183 0 -345 -68t-277.5 -185t-182.5 -281.5t-67 -351.5zM696 598h152q0 -121 71.5 -184.5t202.5 -63.5q132 0 202.5 66t70.5 188q0 112 -66 171t-184 59q-180 0 -262 -117l-160 82l76 446
h671v-129h-546l-58 -325q96 167 328 167q164 0 258 -92t94 -258q0 -183 -114 -286t-312 -103q-192 0 -308 97.5t-116 281.5z" />
    <glyph glyph-name="uni2465" unicode="&#x2465;" horiz-adv-x="2242" 
d="M1120 -250q-210 0 -395.5 77t-317 210t-208 319t-76.5 396t76.5 395.5t208.5 318t317 209t395 76.5t395.5 -76.5t318 -209t209.5 -318t77 -395.5t-77 -396t-209.5 -319t-318 -210t-395.5 -77zM248 752q0 -249 114 -452t313.5 -318t444.5 -115q147 0 281.5 43t242 123
t186.5 188.5t122 244.5t43 286q0 187 -67 351.5t-183 281.5t-278.5 185t-346.5 68q-183 0 -345 -68t-277.5 -185t-182.5 -281.5t-67 -351.5zM705 707q0 96 13.5 173.5t47.5 147t87.5 116.5t138 74t194.5 27h276v-129h-284q-333 0 -359 -366v-11q32 103 122.5 159t223.5 56
q170 0 271.5 -98t101.5 -258q0 -173 -107.5 -276t-293.5 -103q-205 0 -318.5 124t-113.5 364zM854 594q0 -102 71.5 -173t202.5 -71q124 0 191 63t67 185q0 110 -68 173t-188 63q-131 0 -203.5 -64.5t-72.5 -175.5z" />
    <glyph glyph-name="uni2466" unicode="&#x2466;" horiz-adv-x="2242" 
d="M1120 -250q-210 0 -395.5 77t-317 210t-208 319t-76.5 396t76.5 395.5t208.5 318t317 209t395 76.5t395.5 -76.5t318 -209t209.5 -318t77 -395.5t-77 -396t-209.5 -319t-318 -210t-395.5 -77zM248 752q0 -249 114 -452t313.5 -318t444.5 -115q147 0 281.5 43t242 123
t186.5 188.5t122 244.5t43 286q0 187 -67 351.5t-183 281.5t-278.5 185t-346.5 68q-183 0 -345 -68t-277.5 -185t-182.5 -281.5t-67 -351.5zM750 1116v129h745v-205q-224 -109 -332 -305t-108 -502h-160q0 325 139.5 542t411.5 341h-696z" />
    <glyph glyph-name="uni2467" unicode="&#x2467;" horiz-adv-x="2242" 
d="M1120 -250q-210 0 -395.5 77t-317 210t-208 319t-76.5 396t76.5 395.5t208.5 318t317 209t395 76.5t395.5 -76.5t318 -209t209.5 -318t77 -395.5t-77 -396t-209.5 -319t-318 -210t-395.5 -77zM248 752q0 -249 114 -452t313.5 -318t444.5 -115q147 0 281.5 43t242 123
t186.5 188.5t122 244.5t43 286q0 187 -67 351.5t-183 281.5t-278.5 185t-346.5 68q-183 0 -345 -68t-277.5 -185t-182.5 -281.5t-67 -351.5zM700 514q0 107 67.5 178t190.5 99q-90 25 -146 81t-56 142q0 84 51 141t131 81t184 24q76 0 139.5 -14t114.5 -42.5t80 -77
t29 -112.5q0 -87 -55 -142.5t-146 -80.5q258 -64 258 -281q0 -134 -113.5 -212.5t-308.5 -78.5q-192 0 -306 78.5t-114 216.5zM850 530q0 -84 68.5 -136t203.5 -52q134 0 201.5 52t67.5 136q0 90 -67 141.5t-202 51.5q-136 0 -204 -51.5t-68 -141.5zM905 995
q0 -141 217 -141q213 0 213 141q0 144 -213 144q-217 0 -217 -144z" />
    <glyph glyph-name="uni2468" unicode="&#x2468;" horiz-adv-x="2242" 
d="M1120 -250q-210 0 -395.5 77t-317 210t-208 319t-76.5 396t76.5 395.5t208.5 318t317 209t395 76.5t395.5 -76.5t318 -209t209.5 -318t77 -395.5t-77 -396t-209.5 -319t-318 -210t-395.5 -77zM248 752q0 -249 114 -452t313.5 -318t444.5 -115q147 0 281.5 43t242 123
t186.5 188.5t122 244.5t43 286q0 187 -67 351.5t-183 281.5t-278.5 185t-346.5 68q-183 0 -345 -68t-277.5 -185t-182.5 -281.5t-67 -351.5zM705 881q0 173 107.5 276t293.5 103q204 0 318 -124t114 -362q0 -122 -23 -215.5t-76.5 -169t-150 -116t-233.5 -40.5h-277v132h285
q175 0 260 94.5t98 269.5v4q-36 -100 -125 -155.5t-221 -55.5q-169 0 -269.5 100t-100.5 259zM854 881q0 -110 69 -173t187 -63q132 0 204 64t72 176q0 102 -71 173.5t-201 71.5q-124 0 -192 -63.5t-68 -185.5z" />
    <glyph glyph-name="uni24EA" unicode="&#x24ea;" horiz-adv-x="2242" 
d="M1120 -250q-210 0 -395.5 77t-317 210t-208 319t-76.5 396t76.5 395.5t208.5 318t317 209t395 76.5t395.5 -76.5t318 -209t209.5 -318t77 -395.5t-77 -396t-209.5 -319t-318 -210t-395.5 -77zM248 752q0 -249 114 -452t313.5 -318t444.5 -115q147 0 281.5 43t242 123
t186.5 188.5t122 244.5t43 286q0 187 -67 351.5t-183 281.5t-278.5 185t-346.5 68q-183 0 -345 -68t-277.5 -185t-182.5 -281.5t-67 -351.5zM680 739q0 152 50 268.5t151 184.5t241 68q139 0 240.5 -68t152 -184.5t50.5 -268.5q0 -232 -117 -376t-326 -144q-140 0 -241 67.5
t-151 184t-50 268.5zM831 739q0 -121 35 -211l447 527q-72 75 -191 75q-141 0 -216 -105.5t-75 -285.5zM934 424q74 -74 188 -74q141 0 216 105t75 284q0 126 -37 213z" />
    <glyph glyph-name="uni24FF" unicode="&#x24ff;" horiz-adv-x="2242" 
d="M1120 -250q-210 0 -395.5 77t-317 210t-208 319t-76.5 396t76.5 395.5t208.5 318t317 209t395 76.5t395.5 -76.5t318 -209t209.5 -318t77 -395.5t-77 -396t-209.5 -319t-318 -210t-395.5 -77zM680 739q0 -152 50 -268.5t151 -184t241 -67.5q209 0 326 144t117 376
q0 152 -50.5 268.5t-152 184.5t-240.5 68q-140 0 -241 -68t-151 -184.5t-50 -268.5zM831 739q0 180 75 285.5t216 105.5q113 0 189 -73l-443 -531q-37 87 -37 213zM934 424l440 528q39 -85 39 -213q0 -179 -75 -284t-216 -105q-117 0 -188 74z" />
    <glyph glyph-name="lozenge" unicode="&#x25ca;" horiz-adv-x="1120" 
d="M397 57l-229 664l229 663h328l227 -663l-227 -664h-328zM336 721l199 -612h51l196 612l-196 612h-51z" />
    <glyph glyph-name="circle" unicode="&#x25cb;" horiz-adv-x="2269" 
d="M1135 -483q-210 0 -395.5 77t-318 209.5t-209.5 318.5t-77 396t77 395.5t209.5 318t318 209.5t395.5 77t395.5 -77t318 -209.5t209 -318t76.5 -395.5t-76.5 -396t-209 -318.5t-318 -209.5t-395.5 -77zM262 518q0 -187 67 -351.5t182.5 -282t277.5 -185.5t346 -68
q245 0 445 115.5t313.5 318.5t113.5 453t-113.5 453t-313.5 318.5t-445 115.5q-184 0 -346 -68t-277.5 -185.5t-182.5 -282t-67 -351.5z" />
    <glyph glyph-name="uni25CF" unicode="&#x25cf;" horiz-adv-x="2269" 
d="M1135 -483q-210 0 -395.5 77t-318 209.5t-209.5 318.5t-77 396t77 395.5t209.5 318t318 209.5t395.5 77t395.5 -77t318 -209.5t209 -318t76.5 -395.5t-76.5 -396t-209 -318.5t-318 -209.5t-395.5 -77z" />
    <glyph glyph-name="uni2776" unicode="&#x2776;" horiz-adv-x="2242" 
d="M1120 -250q-210 0 -395.5 77t-317 210t-208 319t-76.5 396t76.5 395.5t208.5 318t317 209t395 76.5t395.5 -76.5t318 -209t209.5 -318t77 -395.5t-77 -396t-209.5 -319t-318 -210t-395.5 -77zM719 809l51 -131q82 24 143.5 65t99 89t61.5 111.5t33.5 124.5t12.5 136h4
v-971h152v1012h-281q-3 -168 -67.5 -274t-208.5 -162z" />
    <glyph glyph-name="uni2777" unicode="&#x2777;" horiz-adv-x="2242" 
d="M1120 -250q-210 0 -395.5 77t-317 210t-208 319t-76.5 396t76.5 395.5t208.5 318t317 209t395 76.5t395.5 -76.5t318 -209t209.5 -318t77 -395.5t-77 -396t-209.5 -319t-318 -210t-395.5 -77zM717 766h149q0 364 287 364q112 0 168.5 -55t56.5 -157q0 -67 -31 -127
t-79 -102t-113 -78t-126.5 -58.5t-125 -40t-104 -25t-68.5 -10.5v-244h797v132h-758v4q163 24 294.5 65.5t238.5 106.5t166 161t59 216q0 164 -101.5 253t-271.5 89q-94 0 -171.5 -28t-138.5 -85.5t-94.5 -154.5t-33.5 -226z" />
    <glyph glyph-name="uni2778" unicode="&#x2778;" horiz-adv-x="2242" 
d="M1120 -250q-210 0 -395.5 77t-317 210t-208 319t-76.5 396t76.5 395.5t208.5 318t317 209t395 76.5t395.5 -76.5t318 -209t209.5 -318t77 -395.5t-77 -396t-209.5 -319t-318 -210t-395.5 -77zM713 618q0 -206 112.5 -302.5t313.5 -96.5q182 0 286.5 77.5t104.5 215.5
q0 114 -59 172.5t-164 77.5v4q100 15 154.5 73.5t54.5 155.5q0 121 -99.5 193t-277.5 72q-195 0 -303.5 -88t-108.5 -261h147q0 113 62.5 166t198.5 53q229 0 229 -167q0 -138 -160 -138h-137v-125h137q174 0 174 -163q0 -187 -243 -187q-141 0 -208 61.5t-67 206.5h-147z
" />
    <glyph glyph-name="uni2779" unicode="&#x2779;" horiz-adv-x="2242" 
d="M1120 -250q-210 0 -395.5 77t-317 210t-208 319t-76.5 396t76.5 395.5t208.5 318t317 209t395 76.5t395.5 -76.5t318 -209t209.5 -318t77 -395.5t-77 -396t-209.5 -319t-318 -210t-395.5 -77zM688 442h524v-209h152v209h123v129h-123v324h-152v-324h-475v4
q242 91 375.5 265t157.5 405h-152q-18 -198 -135 -342t-295 -209v-252z" />
    <glyph glyph-name="uni277A" unicode="&#x277a;" horiz-adv-x="2242" 
d="M1120 -250q-210 0 -395.5 77t-317 210t-208 319t-76.5 396t76.5 395.5t208.5 318t317 209t395 76.5t395.5 -76.5t318 -209t209.5 -318t77 -395.5t-77 -396t-209.5 -319t-318 -210t-395.5 -77zM696 598q0 -184 116 -281.5t308 -97.5q198 0 312 103t114 286q0 166 -94 258
t-258 92q-239 0 -328 -182l-4 2l62 338h546v129h-671l-76 -446l160 -82q82 117 262 117q118 0 184 -59t66 -171q0 -122 -70.5 -188t-202.5 -66q-131 0 -202.5 63.5t-71.5 184.5h-152z" />
    <glyph glyph-name="uni277B" unicode="&#x277b;" horiz-adv-x="2242" 
d="M1120 -250q-210 0 -395.5 77t-317 210t-208 319t-76.5 396t76.5 395.5t208.5 318t317 209t395 76.5t395.5 -76.5t318 -209t209.5 -318t77 -395.5t-77 -396t-209.5 -319t-318 -210t-395.5 -77zM705 707q0 -240 113.5 -364t318.5 -124q186 0 293.5 103t107.5 276
q0 160 -101.5 258t-271.5 98q-146 0 -236.5 -65t-109.5 -184h-4l4 45q26 366 359 366h284v129h-276q-110 0 -194.5 -27t-138 -74t-87.5 -116.5t-47.5 -147t-13.5 -173.5zM854 594q0 111 72.5 175.5t203.5 64.5q120 0 188 -63t68 -173q0 -122 -67 -185t-191 -63
q-131 0 -202.5 71t-71.5 173z" />
    <glyph glyph-name="uni277C" unicode="&#x277c;" horiz-adv-x="2242" 
d="M1120 -250q-210 0 -395.5 77t-317 210t-208 319t-76.5 396t76.5 395.5t208.5 318t317 209t395 76.5t395.5 -76.5t318 -209t209.5 -318t77 -395.5t-77 -396t-209.5 -319t-318 -210t-395.5 -77zM750 1116h696v-4q-551 -242 -551 -879h160q0 306 108 502t332 305v205h-745
v-129z" />
    <glyph glyph-name="uni277D" unicode="&#x277d;" horiz-adv-x="2242" 
d="M1120 -250q-210 0 -395.5 77t-317 210t-208 319t-76.5 396t76.5 395.5t208.5 318t317 209t395 76.5t395.5 -76.5t318 -209t209.5 -318t77 -395.5t-77 -396t-209.5 -319t-318 -210t-395.5 -77zM700 514q0 -138 114 -216.5t306 -78.5q195 0 308.5 78.5t113.5 212.5
q0 217 -270 278v5q213 53 213 221q0 64 -29 112.5t-80 77t-114.5 42.5t-139.5 14q-104 0 -184 -24t-131 -81t-51 -141q0 -88 59.5 -142.5t155.5 -78.5v-5q-130 -27 -200.5 -95.5t-70.5 -178.5zM850 530q0 90 68 141.5t204 51.5q135 0 202 -51.5t67 -141.5q0 -84 -67.5 -136
t-201.5 -52q-135 0 -203.5 52t-68.5 136zM905 995q0 144 217 144q213 0 213 -144q0 -141 -213 -141q-217 0 -217 141z" />
    <glyph glyph-name="uni277E" unicode="&#x277e;" horiz-adv-x="2242" 
d="M1120 -250q-210 0 -395.5 77t-317 210t-208 319t-76.5 396t76.5 395.5t208.5 318t317 209t395 76.5t395.5 -76.5t318 -209t209.5 -318t77 -395.5t-77 -396t-209.5 -319t-318 -210t-395.5 -77zM705 881q0 -159 100.5 -259t269.5 -100q145 0 236.5 65.5t109.5 174.5h4
l-4 -33q-13 -175 -98 -269.5t-260 -94.5h-285v-132h277q137 0 233.5 40.5t150 116t76.5 169t23 215.5q0 238 -114 362t-318 124q-186 0 -293.5 -103t-107.5 -276zM854 881q0 122 68 185.5t192 63.5q130 0 201 -71.5t71 -173.5q0 -112 -72 -176t-204 -64q-118 0 -187 63
t-69 173z" />
    <glyph glyph-name="uniA78B" unicode="&#xa78b;" horiz-adv-x="499" 
d="M162 1446h168v-533h-168v533z" />
    <glyph glyph-name="uniA78C" unicode="&#xa78c;" horiz-adv-x="499" 
d="M162 1526h168v-533h-168v533z" />
    <glyph glyph-name="uni004A0301" horiz-adv-x="1112" 
d="M578 0h-510v160h467q146 0 207 87t61 259v778h-529v160h572q78 0 109.5 -29.5t31.5 -103.5v-856q0 -221 -105 -338t-304 -117zM293 1745l643 164l35 -140l-643 -163z" />
    <glyph glyph-name="M.001" horiz-adv-x="1851" 
d="M147 0v1444h342l437 -1381l436 1381h342v-1444h-186v1368l-443 -1368h-297l-444 1368v-1368h-187z" />
    <glyph glyph-name="uni013B.loclMAH" horiz-adv-x="1120" 
d="M276 0q-62 0 -95.5 33t-33.5 96v1315h187v-1284h723v-160h-781zM453 -440l110 340l156 -45l-111 -338z" />
    <glyph glyph-name="uni0145.loclMAH" horiz-adv-x="1560" 
d="M147 0v1444h345l737 -1378v1378h184v-1444h-344l-735 1378v-1378h-187zM580 -440l110 340l156 -45l-111 -338z" />
    <glyph glyph-name="G.ss03" horiz-adv-x="1681" 
d="M119 705q0 344 188.5 552.5t503.5 208.5q262 0 421.5 -146.5t192.5 -391.5h-188q-51 379 -420 379q-245 0 -377.5 -160t-132.5 -440q0 -100 16.5 -185t52.5 -156.5t90 -122t132 -78.5t176 -28q210 0 322.5 129.5t107.5 358.5h-514v151h711q129 0 129 -121v-655h-184v594
q-54 -617 -578 -617q-161 0 -287 56t-204 155.5t-118 230t-40 286.5z" />
    <glyph glyph-name="Gbreve.ss03" horiz-adv-x="1681" 
d="M119 705q0 344 188.5 552.5t503.5 208.5q262 0 421.5 -146.5t192.5 -391.5h-188q-51 379 -420 379q-245 0 -377.5 -160t-132.5 -440q0 -100 16.5 -185t52.5 -156.5t90 -122t132 -78.5t176 -28q210 0 322.5 129.5t107.5 358.5h-514v151h711q129 0 129 -121v-655h-184v594
q-54 -617 -578 -617q-161 0 -287 56t-204 155.5t-118 230t-40 286.5zM475 1935h148q0 -115 41.5 -166t136.5 -51t136.5 51t41.5 166h147q0 -160 -86.5 -259t-238.5 -99t-239 99t-87 259z" />
    <glyph glyph-name="uni0122.ss03" horiz-adv-x="1681" 
d="M119 705q0 344 188.5 552.5t503.5 208.5q262 0 421.5 -146.5t192.5 -391.5h-188q-51 379 -420 379q-245 0 -377.5 -160t-132.5 -440q0 -100 16.5 -185t52.5 -156.5t90 -122t132 -78.5t176 -28q210 0 322.5 129.5t107.5 358.5h-514v151h711q129 0 129 -121v-655h-184v594
q-54 -617 -578 -617q-161 0 -287 56t-204 155.5t-118 230t-40 286.5zM557 -440l111 340l155 -45l-110 -338z" />
    <glyph glyph-name="Gdotaccent.ss03" horiz-adv-x="1681" 
d="M119 705q0 344 188.5 552.5t503.5 208.5q262 0 421.5 -146.5t192.5 -391.5h-188q-51 379 -420 379q-245 0 -377.5 -160t-132.5 -440q0 -100 16.5 -185t52.5 -156.5t90 -122t132 -78.5t176 -28q210 0 322.5 129.5t107.5 358.5h-514v151h711q129 0 129 -121v-655h-184v594
q-54 -617 -578 -617q-161 0 -287 56t-204 155.5t-118 230t-40 286.5zM653 1755q0 59 41.5 98t102.5 39q62 0 104.5 -39t42.5 -98t-42.5 -98t-104.5 -39q-61 0 -102.5 39t-41.5 98z" />
    <glyph glyph-name="R.ss04" horiz-adv-x="1400" 
d="M147 0v1444h537q106 0 190 -11t156 -38.5t119.5 -72t74.5 -112t27 -157.5q0 -83 -20.5 -150t-63.5 -119.5t-114.5 -84t-167.5 -37.5q60 -15 104.5 -68.5t110.5 -187.5l207 -406h-220l-192 393q-53 117 -99.5 152t-152.5 35h-305v-580h-191zM338 733h346q76 0 130 6
t103.5 23t80 47t48 79t17.5 118q0 70 -18 120t-48 79.5t-80.5 46.5t-103.5 22.5t-129 5.5h-346v-547z" />
    <glyph glyph-name="Racute.ss04" horiz-adv-x="1400" 
d="M147 0v1444h537q106 0 190 -11t156 -38.5t119.5 -72t74.5 -112t27 -157.5q0 -83 -20.5 -150t-63.5 -119.5t-114.5 -84t-167.5 -37.5q60 -15 104.5 -68.5t110.5 -187.5l207 -406h-220l-192 393q-53 117 -99.5 152t-152.5 35h-305v-580h-191zM338 733h346q76 0 130 6
t103.5 23t80 47t48 79t17.5 118q0 70 -18 120t-48 79.5t-80.5 46.5t-103.5 22.5t-129 5.5h-346v-547zM356 1745l643 164l35 -140l-643 -163z" />
    <glyph glyph-name="Rcaron.ss04" horiz-adv-x="1400" 
d="M147 0v1444h537q106 0 190 -11t156 -38.5t119.5 -72t74.5 -112t27 -157.5q0 -83 -20.5 -150t-63.5 -119.5t-114.5 -84t-167.5 -37.5q60 -15 104.5 -68.5t110.5 -187.5l207 -406h-220l-192 393q-53 117 -99.5 152t-152.5 35h-305v-580h-191zM338 733h346q76 0 130 6
t103.5 23t80 47t48 79t17.5 118q0 70 -18 120t-48 79.5t-80.5 46.5t-103.5 22.5t-129 5.5h-346v-547zM360 1847l105 101l237 -193l236 193l104 -101l-340 -272z" />
    <glyph glyph-name="uni0156.ss04" horiz-adv-x="1400" 
d="M147 0v1444h537q106 0 190 -11t156 -38.5t119.5 -72t74.5 -112t27 -157.5q0 -83 -20.5 -150t-63.5 -119.5t-114.5 -84t-167.5 -37.5q60 -15 104.5 -68.5t110.5 -187.5l207 -406h-220l-192 393q-53 117 -99.5 152t-152.5 35h-305v-580h-191zM338 733h346q76 0 130 6
t103.5 23t80 47t48 79t17.5 118q0 70 -18 120t-48 79.5t-80.5 46.5t-103.5 22.5t-129 5.5h-346v-547zM500 -440l110 340l156 -45l-111 -338z" />
    <glyph glyph-name="Y.ss07" horiz-adv-x="1361" 
d="M1100 1444h198l-526 -914v-530h-184v530l-525 914h197l422 -733z" />
    <glyph glyph-name="Yacute.ss07" horiz-adv-x="1361" 
d="M1100 1444h198l-526 -914v-530h-184v530l-525 914h197l422 -733zM336 1745l643 164l35 -140l-643 -163z" />
    <glyph glyph-name="Ycircumflex.ss07" horiz-adv-x="1361" 
d="M1100 1444h198l-526 -914v-530h-184v530l-525 914h197l422 -733zM338 1673l342 273l340 -273l-105 -102l-235 192l-238 -192z" />
    <glyph glyph-name="Ydieresis.ss07" horiz-adv-x="1361" 
d="M1100 1444h198l-526 -914v-530h-184v530l-525 914h197l422 -733zM319 1747q0 61 42.5 102t105.5 41q65 0 108 -41t43 -102t-43 -102t-108 -41q-63 0 -105.5 41t-42.5 102zM741 1747q0 61 42.5 102t107.5 41q63 0 107 -41t44 -102t-44 -102t-107 -41q-65 0 -107.5 41
t-42.5 102z" />
    <glyph glyph-name="Ygrave.ss07" horiz-adv-x="1361" 
d="M1100 1444h198l-526 -914v-530h-184v530l-525 914h197l422 -733zM346 1769l35 140l643 -164l-35 -139z" />
    <glyph glyph-name="uni1EF8.ss07" horiz-adv-x="1361" 
d="M1100 1444h198l-526 -914v-530h-184v530l-525 914h197l422 -733zM301 1634q0 149 58 219t159 70q48 0 90 -17t70.5 -41t53 -48t50 -41t49.5 -17q40 0 62 30t22 114h146q0 -149 -58 -219t-159 -70q-48 0 -89.5 17t-70 41t-53.5 48t-51 41t-50 17q-39 0 -60 -29.5
t-21 -114.5h-148z" />
    <glyph glyph-name="i.loclTRK" horiz-adv-x="907" 
d="M106 0v156h283v706h-211v156h264q115 0 115 -119v-743h285v-156h-736zM307 1329q0 59 41.5 98t102.5 39q62 0 104.5 -39t42.5 -98t-42.5 -98t-104.5 -39q-61 0 -102.5 39t-41.5 98z" />
    <glyph glyph-name="uni006A0301" horiz-adv-x="622" 
d="M256 -59q24 43 31.5 76.5t7.5 86.5v758h-215v156h266q64 0 96.5 -27.5t32.5 -89.5v-829q0 -51 -8 -84.5t-31 -77.5l-155 -299h-197zM23 1319l643 164l34 -140l-643 -163z" />
    <glyph glyph-name="uni013C.loclMAH" horiz-adv-x="903" 
d="M86 0v156h285v1194h-213v155h288q107 0 107 -102v-1247h285v-156h-752zM258 -440l111 340l155 -45l-110 -338z" />
    <glyph glyph-name="uni0146.loclMAH" horiz-adv-x="1243" 
d="M143 0v1018h183v-277q42 140 149.5 218.5t272.5 78.5q176 0 274 -111t98 -315v-612h-182v592q0 155 -61 223t-193 68q-165 0 -261.5 -122.5t-96.5 -328.5v-432h-183zM434 -440l111 340l155 -45l-110 -338z" />
    <glyph glyph-name="a.ss01" horiz-adv-x="1343" 
d="M580 -20q-216 0 -347 148t-131 382t131 381t347 147q163 0 273.5 -73.5t164.5 -198.5v252h180v-1018h-180v252q-55 -127 -165.5 -199.5t-272.5 -72.5zM285 510q0 -184 98.5 -279.5t255.5 -95.5q160 0 266.5 97.5t106.5 277.5q0 120 -52 206t-135 126.5t-186 40.5
q-158 0 -256 -94.5t-98 -278.5z" />
    <glyph glyph-name="aacute.ss01" horiz-adv-x="1343" 
d="M580 -20q-216 0 -347 148t-131 382t131 381t347 147q163 0 273.5 -73.5t164.5 -198.5v252h180v-1018h-180v252q-55 -127 -165.5 -199.5t-272.5 -72.5zM285 510q0 -184 98.5 -279.5t255.5 -95.5q160 0 266.5 97.5t106.5 277.5q0 120 -52 206t-135 126.5t-186 40.5
q-158 0 -256 -94.5t-98 -278.5zM322 1319l643 164l34 -140l-643 -163z" />
    <glyph glyph-name="abreve.ss01" horiz-adv-x="1343" 
d="M580 -20q-216 0 -347 148t-131 382t131 381t347 147q163 0 273.5 -73.5t164.5 -198.5v252h180v-1018h-180v252q-55 -127 -165.5 -199.5t-272.5 -72.5zM285 510q0 -184 98.5 -279.5t255.5 -95.5q160 0 266.5 97.5t106.5 277.5q0 120 -52 206t-135 126.5t-186 40.5
q-158 0 -256 -94.5t-98 -278.5zM340 1509h147q0 -114 42 -165.5t137 -51.5t136.5 51t41.5 166h147q0 -160 -86.5 -259t-238.5 -99t-239 99t-87 259z" />
    <glyph glyph-name="acircumflex.ss01" horiz-adv-x="1343" 
d="M580 -20q-216 0 -347 148t-131 382t131 381t347 147q163 0 273.5 -73.5t164.5 -198.5v252h180v-1018h-180v252q-55 -127 -165.5 -199.5t-272.5 -72.5zM285 510q0 -184 98.5 -279.5t255.5 -95.5q160 0 266.5 97.5t106.5 277.5q0 120 -52 206t-135 126.5t-186 40.5
q-158 0 -256 -94.5t-98 -278.5zM324 1247l342 273l340 -273l-105 -102l-235 192l-238 -192z" />
    <glyph glyph-name="adieresis.ss01" horiz-adv-x="1343" 
d="M580 -20q-216 0 -347 148t-131 382t131 381t347 147q163 0 273.5 -73.5t164.5 -198.5v252h180v-1018h-180v252q-55 -127 -165.5 -199.5t-272.5 -72.5zM285 510q0 -184 98.5 -279.5t255.5 -95.5q160 0 266.5 97.5t106.5 277.5q0 120 -52 206t-135 126.5t-186 40.5
q-158 0 -256 -94.5t-98 -278.5zM305 1321q0 61 42.5 102t105.5 41q65 0 108 -41t43 -102t-43 -102t-108 -41q-63 0 -105.5 41t-42.5 102zM727 1321q0 61 42.5 102t107.5 41q63 0 107 -41t44 -102t-44 -102t-107 -41q-65 0 -107.5 41t-42.5 102z" />
    <glyph glyph-name="agrave.ss01" horiz-adv-x="1343" 
d="M580 -20q-216 0 -347 148t-131 382t131 381t347 147q163 0 273.5 -73.5t164.5 -198.5v252h180v-1018h-180v252q-55 -127 -165.5 -199.5t-272.5 -72.5zM285 510q0 -184 98.5 -279.5t255.5 -95.5q160 0 266.5 97.5t106.5 277.5q0 120 -52 206t-135 126.5t-186 40.5
q-158 0 -256 -94.5t-98 -278.5zM330 1343l35 140l643 -164l-35 -139z" />
    <glyph glyph-name="amacron.ss01" horiz-adv-x="1343" 
d="M580 -20q-216 0 -347 148t-131 382t131 381t347 147q163 0 273.5 -73.5t164.5 -198.5v252h180v-1018h-180v252q-55 -127 -165.5 -199.5t-272.5 -72.5zM285 510q0 -184 98.5 -279.5t255.5 -95.5q160 0 266.5 97.5t106.5 277.5q0 120 -52 206t-135 126.5t-186 40.5
q-158 0 -256 -94.5t-98 -278.5zM326 1260v147h680v-145z" />
    <glyph glyph-name="aogonek.ss01" horiz-adv-x="1343" 
d="M580 -20q-216 0 -347 148t-131 382t131 381t347 147q163 0 273.5 -73.5t164.5 -198.5v252h180v-1018h-4l-125 -250l371 2v-147h-402q-84 0 -117.5 53t7.5 125l114 217h-24v252q-55 -127 -165.5 -199.5t-272.5 -72.5zM285 510q0 -184 98.5 -279.5t255.5 -95.5
q160 0 266.5 97.5t106.5 277.5q0 120 -52 206t-135 126.5t-186 40.5q-158 0 -256 -94.5t-98 -278.5z" />
    <glyph glyph-name="aring.ss01" horiz-adv-x="1343" 
d="M580 -20q-216 0 -347 148t-131 382t131 381t347 147q163 0 273.5 -73.5t164.5 -198.5v252h180v-1018h-180v252q-55 -127 -165.5 -199.5t-272.5 -72.5zM285 510q0 -184 98.5 -279.5t255.5 -95.5q160 0 266.5 97.5t106.5 277.5q0 120 -52 206t-135 126.5t-186 40.5
q-158 0 -256 -94.5t-98 -278.5zM416 1370q0 95 66 159t182 64t183.5 -64t67.5 -159t-67.5 -160t-183.5 -65t-182 64.5t-66 160.5zM557 1370q0 -45 28 -70.5t79 -25.5q53 0 81.5 25.5t28.5 70.5q0 43 -29 67.5t-81 24.5q-51 0 -79 -24.5t-28 -67.5z" />
    <glyph glyph-name="atilde.ss01" horiz-adv-x="1343" 
d="M580 -20q-216 0 -347 148t-131 382t131 381t347 147q163 0 273.5 -73.5t164.5 -198.5v252h180v-1018h-180v252q-55 -127 -165.5 -199.5t-272.5 -72.5zM285 510q0 -184 98.5 -279.5t255.5 -95.5q160 0 266.5 97.5t106.5 277.5q0 120 -52 206t-135 126.5t-186 40.5
q-158 0 -256 -94.5t-98 -278.5zM287 1208q0 149 58 219t159 70q48 0 90 -17t70.5 -41t53 -48t50 -41t49.5 -17q40 0 62 30t22 114h146q0 -148 -58.5 -218.5t-159.5 -70.5q-48 0 -89.5 17t-70 41t-53.5 48t-50.5 41t-49.5 17q-39 0 -60.5 -29.5t-21.5 -114.5h-147z" />
    <glyph glyph-name="r.ss02" horiz-adv-x="860" 
d="M145 0v1018h185v-170l-35 -123h53q29 137 118 216t234 79h134v-158h-189q-148 0 -231.5 -113t-83.5 -309v-440h-185z" />
    <glyph glyph-name="racute.ss02" horiz-adv-x="860" 
d="M145 0v1018h185v-170l-35 -123h53q29 137 118 216t234 79h134v-158h-189q-148 0 -231.5 -113t-83.5 -309v-440h-185zM33 1319l643 164l35 -140l-643 -163z" />
    <glyph glyph-name="rcaron.ss02" horiz-adv-x="860" 
d="M145 0v1018h185v-170l-35 -123h53q29 137 118 216t234 79h134v-158h-189q-148 0 -231.5 -113t-83.5 -309v-440h-185zM35 1421l104 101l238 -193l235 193l105 -101l-340 -272z" />
    <glyph glyph-name="uni0157.ss02" horiz-adv-x="860" 
d="M145 0v1018h185v-170l-35 -123h53q29 137 118 216t234 79h134v-158h-189q-148 0 -231.5 -113t-83.5 -309v-440h-185zM176 -440l111 340l155 -45l-110 -338z" />
    <glyph glyph-name="g.ss05" horiz-adv-x="1345" 
d="M147 -227q135 -2 247 -0.5t202 6.5t157.5 16.5t112.5 30t67.5 46t22.5 65.5q0 118 -173 125q-116 5 -404 -50q-16 -3 -49 -10q-57 -11 -86 -16l-23 116q316 67 533 154q-168 -32 -315.5 1t-242 132.5t-94.5 247.5q0 81 28 148.5t75.5 113.5t112.5 78t138.5 46.5
t153.5 14.5q226 0 367 -108q57 57 104.5 72.5t124.5 15.5h90v-156h-86q-87 0 -139 -35q64 -101 64 -221q0 -166 -118.5 -282t-348.5 -195v-4q70 13 135 15t127.5 -9t108.5 -36.5t74 -72.5t28 -112q0 -109 -83.5 -172t-303 -93.5t-607.5 -23.5v152zM283 631q0 -133 89.5 -202
t245.5 -69q157 0 245.5 68.5t88.5 202.5q0 131 -91.5 200.5t-242.5 69.5q-154 0 -244.5 -69t-90.5 -201z" />
    <glyph glyph-name="gbreve.ss05" horiz-adv-x="1345" 
d="M147 -227q135 -2 247 -0.5t202 6.5t157.5 16.5t112.5 30t67.5 46t22.5 65.5q0 118 -173 125q-116 5 -404 -50q-16 -3 -49 -10q-57 -11 -86 -16l-23 116q316 67 533 154q-168 -32 -315.5 1t-242 132.5t-94.5 247.5q0 81 28 148.5t75.5 113.5t112.5 78t138.5 46.5
t153.5 14.5q226 0 367 -108q57 57 104.5 72.5t124.5 15.5h90v-156h-86q-87 0 -139 -35q64 -101 64 -221q0 -166 -118.5 -282t-348.5 -195v-4q70 13 135 15t127.5 -9t108.5 -36.5t74 -72.5t28 -112q0 -109 -83.5 -172t-303 -93.5t-607.5 -23.5v152zM283 631q0 -133 89.5 -202
t245.5 -69q157 0 245.5 68.5t88.5 202.5q0 131 -91.5 200.5t-242.5 69.5q-154 0 -244.5 -69t-90.5 -201zM293 1509h147q0 -115 41.5 -166t136.5 -51t137 51.5t42 165.5h147q0 -160 -87 -259t-239 -99t-238.5 99t-86.5 259z" />
    <glyph glyph-name="gcircumflex.ss05" horiz-adv-x="1345" 
d="M147 -227q135 -2 247 -0.5t202 6.5t157.5 16.5t112.5 30t67.5 46t22.5 65.5q0 118 -173 125q-116 5 -404 -50q-16 -3 -49 -10q-57 -11 -86 -16l-23 116q316 67 533 154q-168 -32 -315.5 1t-242 132.5t-94.5 247.5q0 81 28 148.5t75.5 113.5t112.5 78t138.5 46.5
t153.5 14.5q226 0 367 -108q57 57 104.5 72.5t124.5 15.5h90v-156h-86q-87 0 -139 -35q64 -101 64 -221q0 -166 -118.5 -282t-348.5 -195v-4q70 13 135 15t127.5 -9t108.5 -36.5t74 -72.5t28 -112q0 -109 -83.5 -172t-303 -93.5t-607.5 -23.5v152zM276 1247l342 273
l340 -273l-104 -102l-236 192l-237 -192zM283 631q0 -133 89.5 -202t245.5 -69q157 0 245.5 68.5t88.5 202.5q0 131 -91.5 200.5t-242.5 69.5q-154 0 -244.5 -69t-90.5 -201z" />
    <glyph glyph-name="uni0123.ss05" horiz-adv-x="1345" 
d="M147 -227q135 -2 247 -0.5t202 6.5t157.5 16.5t112.5 30t67.5 46t22.5 65.5q0 118 -173 125q-116 5 -404 -50q-16 -3 -49 -10q-57 -11 -86 -16l-23 116q316 67 533 154q-168 -32 -315.5 1t-242 132.5t-94.5 247.5q0 81 28 148.5t75.5 113.5t112.5 78t138.5 46.5
t153.5 14.5q226 0 367 -108q57 57 104.5 72.5t124.5 15.5h90v-156h-86q-87 0 -139 -35q64 -101 64 -221q0 -166 -118.5 -282t-348.5 -195v-4q70 13 135 15t127.5 -9t108.5 -36.5t74 -72.5t28 -112q0 -109 -83.5 -172t-303 -93.5t-607.5 -23.5v152zM283 631q0 -133 89.5 -202
t245.5 -69q157 0 245.5 68.5t88.5 202.5q0 131 -91.5 200.5t-242.5 69.5q-154 0 -244.5 -69t-90.5 -201zM545 1217l108 378l158 -43l-109 -376z" />
    <glyph glyph-name="gdotaccent.ss05" horiz-adv-x="1345" 
d="M147 -227q135 -2 247 -0.5t202 6.5t157.5 16.5t112.5 30t67.5 46t22.5 65.5q0 118 -173 125q-116 5 -404 -50q-16 -3 -49 -10q-57 -11 -86 -16l-23 116q316 67 533 154q-168 -32 -315.5 1t-242 132.5t-94.5 247.5q0 81 28 148.5t75.5 113.5t112.5 78t138.5 46.5
t153.5 14.5q226 0 367 -108q57 57 104.5 72.5t124.5 15.5h90v-156h-86q-87 0 -139 -35q64 -101 64 -221q0 -166 -118.5 -282t-348.5 -195v-4q70 13 135 15t127.5 -9t108.5 -36.5t74 -72.5t28 -112q0 -109 -83.5 -172t-303 -93.5t-607.5 -23.5v152zM283 631q0 -133 89.5 -202
t245.5 -69q157 0 245.5 68.5t88.5 202.5q0 131 -91.5 200.5t-242.5 69.5q-154 0 -244.5 -69t-90.5 -201zM471 1329q0 59 41 98t102 39q62 0 105 -39t43 -98t-43 -98t-105 -39q-61 0 -102 39t-41 98z" />
    <glyph glyph-name="uni1E21.ss05" horiz-adv-x="1345" 
d="M147 -227q135 -2 247 -0.5t202 6.5t157.5 16.5t112.5 30t67.5 46t22.5 65.5q0 118 -173 125q-116 5 -404 -50q-16 -3 -49 -10q-57 -11 -86 -16l-23 116q316 67 533 154q-168 -32 -315.5 1t-242 132.5t-94.5 247.5q0 81 28 148.5t75.5 113.5t112.5 78t138.5 46.5
t153.5 14.5q226 0 367 -108q57 57 104.5 72.5t124.5 15.5h90v-156h-86q-87 0 -139 -35q64 -101 64 -221q0 -166 -118.5 -282t-348.5 -195v-4q70 13 135 15t127.5 -9t108.5 -36.5t74 -72.5t28 -112q0 -109 -83.5 -172t-303 -93.5t-607.5 -23.5v152zM279 1260v147h679v-145z
M283 631q0 -133 89.5 -202t245.5 -69q157 0 245.5 68.5t88.5 202.5q0 131 -91.5 200.5t-242.5 69.5q-154 0 -244.5 -69t-90.5 -201z" />
    <glyph glyph-name="k.ss06" horiz-adv-x="1165" 
d="M143 0v1505h183v-970l534 280v203h174v-203q0 -92 -84 -133l-252 -133l398 -549h-209l-340 469l-221 -117v-352h-183z" />
    <glyph glyph-name="uni0137.ss06" horiz-adv-x="1165" 
d="M143 0v1505h183v-970l534 280v203h174v-203q0 -92 -84 -133l-252 -133l398 -549h-209l-340 469l-221 -117v-352h-183zM389 -440l111 340l155 -45l-110 -338z" />
    <glyph glyph-name="y.ss07" horiz-adv-x="1153" 
d="M913 1018h201l-444 -1004v-297q0 -116 -115 -116h-432v159h364v254l-446 1004h197l340 -795z" />
    <glyph glyph-name="yacute.ss07" horiz-adv-x="1153" 
d="M913 1018h201l-444 -1004v-297q0 -116 -115 -116h-432v159h364v254l-446 1004h197l340 -795zM233 1319l644 164l34 -140l-643 -163z" />
    <glyph glyph-name="ycircumflex.ss07" horiz-adv-x="1153" 
d="M913 1018h201l-444 -1004v-297q0 -116 -115 -116h-432v159h364v254l-446 1004h197l340 -795zM236 1247l342 273l340 -273l-105 -102l-235 192l-238 -192z" />
    <glyph glyph-name="ydieresis.ss07" horiz-adv-x="1153" 
d="M913 1018h201l-444 -1004v-297q0 -116 -115 -116h-432v159h364v254l-446 1004h197l340 -795zM217 1321q0 61 42.5 102t105.5 41q65 0 108 -41t43 -102t-43 -102t-108 -41q-63 0 -105.5 41t-42.5 102zM639 1321q0 62 42.5 102.5t106.5 40.5t108 -41t44 -102t-44 -102
t-108 -41t-106.5 40.5t-42.5 102.5z" />
    <glyph glyph-name="ygrave.ss07" horiz-adv-x="1153" 
d="M913 1018h201l-444 -1004v-297q0 -116 -115 -116h-432v159h364v254l-446 1004h197l340 -795zM242 1343l34 140l644 -164l-35 -139z" />
    <glyph glyph-name="uni1EF9.ss07" horiz-adv-x="1153" 
d="M913 1018h201l-444 -1004v-297q0 -116 -115 -116h-432v159h364v254l-446 1004h197l340 -795zM199 1208q0 149 58 219t159 70q48 0 90 -17t70.5 -41t53 -48t50 -41t49.5 -17q40 0 62 30t22 114h145q0 -149 -58 -219t-159 -70q-48 0 -89.5 17t-70 41t-53.5 48t-50.5 41
t-49.5 17q-39 0 -60.5 -29.5t-21.5 -114.5h-147z" />
    <glyph glyph-name="r.ss08" horiz-adv-x="1019" 
d="M106 0v156h199v706h-199v156h261q118 0 118 -96v-166q36 124 130 194t241 70h131v-158h-186q-150 0 -234 -113t-84 -309v-284h353v-156h-730z" />
    <glyph glyph-name="racute.ss08" horiz-adv-x="1019" 
d="M106 0v156h199v706h-199v156h261q118 0 118 -96v-166q36 124 130 194t241 70h131v-158h-186q-150 0 -234 -113t-84 -309v-284h353v-156h-730zM145 1319l643 164l35 -140l-643 -163z" />
    <glyph glyph-name="rcaron.ss08" horiz-adv-x="1019" 
d="M106 0v156h199v706h-199v156h261q118 0 118 -96v-166q36 124 130 194t241 70h131v-158h-186q-150 0 -234 -113t-84 -309v-284h353v-156h-730zM150 1421l104 101l238 -193l235 193l104 -101l-339 -272z" />
    <glyph glyph-name="uni0157.ss08" horiz-adv-x="1019" 
d="M106 0v156h199v706h-199v156h261q118 0 118 -96v-166q36 124 130 194t241 70h131v-158h-186q-150 0 -234 -113t-84 -309v-284h353v-156h-730zM291 -440l110 340l156 -45l-111 -338z" />
    <glyph glyph-name="y.ss10" horiz-adv-x="1105" 
d="M100 -399v153h342l95 246h-134l-362 1018h182l332 -946l332 946h178l-459 -1313q-35 -104 -129 -104h-377z" />
    <glyph glyph-name="yacute.ss10" horiz-adv-x="1105" 
d="M100 -399v153h342l95 246h-134l-362 1018h182l332 -946l332 946h178l-459 -1313q-35 -104 -129 -104h-377zM209 1319l643 164l35 -140l-643 -163z" />
    <glyph glyph-name="ycircumflex.ss10" horiz-adv-x="1105" 
d="M100 -399v153h342l95 246h-134l-362 1018h182l332 -946l332 946h178l-459 -1313q-35 -104 -129 -104h-377zM213 1247l342 273l340 -273l-104 -102l-236 192l-238 -192z" />
    <glyph glyph-name="ydieresis.ss10" horiz-adv-x="1105" 
d="M100 -399v153h342l95 246h-134l-362 1018h182l332 -946l332 946h178l-459 -1313q-35 -104 -129 -104h-377zM193 1321q0 61 42 102t105 41q65 0 108.5 -41t43.5 -102t-43.5 -102t-108.5 -41q-63 0 -105 41t-42 102zM614 1321q0 61 42.5 102t107.5 41q63 0 107 -41t44 -102
t-44 -102t-107 -41q-65 0 -107.5 41t-42.5 102z" />
    <glyph glyph-name="ygrave.ss10" horiz-adv-x="1105" 
d="M100 -399v153h342l95 246h-134l-362 1018h182l332 -946l332 946h178l-459 -1313q-35 -104 -129 -104h-377zM219 1343l35 140l643 -164l-35 -139z" />
    <glyph glyph-name="uni1EF9.ss10" horiz-adv-x="1105" 
d="M100 -399v153h342l95 246h-134l-362 1018h182l332 -946l332 946h178l-459 -1313q-35 -104 -129 -104h-377zM174 1208q0 149 58 219t159 70q48 0 90 -17t70.5 -41t53.5 -48t50.5 -41t49.5 -17q39 0 61 29.5t22 114.5h146q0 -149 -58 -219t-159 -70q-48 0 -89.5 17t-70 41
t-53.5 48t-51 41t-50 17q-39 0 -60 -29.5t-21 -114.5h-148z" />
    <glyph glyph-name="f_i.dlig" horiz-adv-x="1591" 
d="M657 1350q-93 0 -130.5 -51t-37.5 -154v-127h617q72 0 104.5 -33.5t32.5 -107.5v-721h283v-156h-1440v156h223v706h-223v156h223v129q0 169 87.5 263.5t269.5 94.5h456v-155h-465zM489 156h572v706h-572v-706z" />
    <glyph glyph-name="f_t.dlig" horiz-adv-x="1626" 
d="M86 862v156h221v147q0 161 88 250.5t271 89.5h176v-155h-185q-94 0 -131 -44.5t-37 -144.5v-143h508v258l183 55v-313h319v-156h-319v-708l360 2v-156h-399q-144 0 -144 143v719h-508v-706h295v-156h-698v156h221v706h-221z" />
    <glyph glyph-name="g_f.ss05_dlig" horiz-adv-x="2091" 
d="M147 -227q135 -2 247 -0.5t202 6.5t157.5 16.5t112.5 30t67.5 46t22.5 65.5q0 118 -173 125q-116 5 -404 -50q-16 -3 -49 -10q-57 -11 -86 -16l-23 116q316 67 533 154q-168 -32 -315.5 1t-242 132.5t-94.5 247.5q0 81 28 148.5t75.5 113.5t112.5 78t138.5 46.5
t153.5 14.5q226 0 367 -108q57 57 104.5 72.5t124.5 15.5h305v147q0 161 88 250.5t271 89.5h176v-155h-184q-94 0 -131 -44.5t-37 -144.5v-143h295v-156h-295v-706h295v-156h-699v156h221v706h-301q-87 0 -139 -35q64 -101 64 -221q0 -166 -118.5 -282t-348.5 -195v-4
q70 13 135 15t127.5 -9t108.5 -36.5t74 -72.5t28 -112q0 -109 -83.5 -172t-303 -93.5t-607.5 -23.5v152zM283 631q0 -133 89.5 -202t245.5 -69q157 0 245.5 68.5t88.5 202.5q0 131 -91.5 200.5t-242.5 69.5q-154 0 -244.5 -69t-90.5 -201z" />
    <glyph glyph-name="g_i.ss05_dlig" horiz-adv-x="2025" 
d="M150 -227q135 -2 247 -0.5t202 6.5t157 16.5t112 30t67.5 46t22.5 65.5q0 118 -173 125q-116 5 -404 -50q-16 -3 -49 -10q-57 -11 -86 -16l-23 116q316 67 533 154q-168 -32 -315.5 1t-242 132.5t-94.5 247.5q0 81 28 148.5t75.5 113.5t112.5 78t138.5 46.5t153.5 14.5
q226 0 367 -108q57 57 104.5 72.5t124.5 15.5h353q114 0 114 -119v-743h285v-156h-735v156h282v706h-295q-87 0 -139 -35q64 -101 64 -221q0 -166 -118.5 -282t-348.5 -195v-4q70 13 135 15t127.5 -9t108.5 -36.5t74 -72.5t28 -112q0 -109 -83 -172t-302.5 -93.5
t-607.5 -23.5v152zM285 631q0 -133 89.5 -202t246.5 -69t245 68.5t88 202.5q0 131 -91 200.5t-242 69.5q-154 0 -245 -69.5t-91 -200.5zM1425 1329q0 59 41.5 98t102.5 39q62 0 104.5 -39t42.5 -98t-42.5 -98t-104.5 -39q-61 0 -102.5 39t-41.5 98z" />
    <glyph glyph-name="g_t.ss05_dlig" horiz-adv-x="2129" 
d="M147 -227q135 -2 247 -0.5t202 6.5t157.5 16.5t112.5 30t67.5 46t22.5 65.5q0 118 -173 125q-116 5 -404 -50q-16 -3 -49 -10q-57 -11 -86 -16l-23 116q316 67 533 154q-168 -32 -315.5 1t-242 132.5t-94.5 247.5q0 81 28 148.5t75.5 113.5t112.5 78t138.5 46.5
t153.5 14.5q226 0 367 -108q57 57 104.5 72.5t124.5 15.5h295v258l182 55v-313h320v-156h-320v-708l361 2v-156h-399q-144 0 -144 143v719h-291q-87 0 -139 -35q64 -101 64 -221q0 -166 -118.5 -282t-348.5 -195v-4q70 13 135 15t127.5 -9t108.5 -36.5t74 -72.5t28 -112
q0 -109 -83.5 -172t-303 -93.5t-607.5 -23.5v152zM283 631q0 -133 89.5 -202t245.5 -69q157 0 245.5 68.5t88.5 202.5q0 131 -91.5 200.5t-242.5 69.5q-154 0 -244.5 -69t-90.5 -201z" />
    <glyph glyph-name="r_f.dlig" horiz-adv-x="1433" 
d="M145 877q0 141 144 141h565v147q0 161 87.5 250.5t270.5 89.5h177v-155h-185q-94 0 -131 -44.5t-37 -144.5v-143h295v-156h-295v-706h295v-156h-698v156h221v706h-526v-862h-183v877z" />
    <glyph glyph-name="r_i.dlig" horiz-adv-x="1435" 
d="M145 877q0 141 144 141h682q114 0 114 -119v-743h285v-156h-735v156h283v706h-590v-862h-183v877zM836 1329q0 59 41 98t102 39q62 0 104.5 -39t42.5 -98t-42.5 -98t-104.5 -39q-61 0 -102 39t-41 98z" />
    <glyph glyph-name="r_t.dlig" horiz-adv-x="1474" 
d="M145 877q0 141 144 141h557v258l182 55v-313h320v-156h-320v-708l361 2v-156h-400q-143 0 -143 143v719h-518v-862h-183v877z" />
    <glyph glyph-name="t_f.dlig" horiz-adv-x="1536" 
d="M954 156v706h-501v-708l280 2h221zM45 862v156h225v258l183 55v-313h501v147q0 161 88 250.5t271 89.5h176v-155h-184q-94 0 -131 -44.5t-37 -144.5v-143h295v-156h-295v-706h295v-156h-1018q-144 0 -144 143v719h-225z" />
    <glyph glyph-name="t_t.dlig" horiz-adv-x="1574" 
d="M813 156v-156h-399q-144 0 -144 143v719h-225v156h225v258l183 55v-313h493v258l182 55v-313h320v-156h-320v-708l361 2v-156h-399q-144 0 -144 143v719h-493v-708z" />
    <glyph glyph-name="uni0438.loclBGR" horiz-adv-x="1288" 
d="M1143 0h-172v954l-512 -954h-316v1018h172v-950l514 950h314v-1018z" />
    <glyph glyph-name="uni0439.loclBGR" horiz-adv-x="1288" 
d="M1143 0h-172v954l-512 -954h-316v1018h172v-950l514 950h314v-1018zM319 1509h148q0 -115 41.5 -166t136.5 -51t136.5 51t41.5 166h148q0 -160 -87 -259t-239 -99t-239 99t-87 259z" />
    <glyph glyph-name="uni045D.loclBGR" horiz-adv-x="1288" 
d="M1143 0h-172v954l-512 -954h-316v1018h172v-950l514 950h314v-1018zM309 1343l35 140l643 -164l-35 -139z" />
    <glyph glyph-name="zero.ss12" horiz-adv-x="1488" 
d="M745 -20q-151 0 -270.5 55.5t-197 155.5t-118 235.5t-40.5 296.5q0 216 70 381.5t213 262.5t343 97q120 0 221.5 -36t175.5 -102t125.5 -158t77 -204.5t25.5 -240.5q0 -161 -41 -296.5t-118 -235t-196.5 -155.5t-269.5 -56zM307 723q0 -174 48 -303.5t148 -204t242 -74.5
q212 0 324.5 158t112.5 424q0 265 -112.5 422.5t-324.5 157.5t-325 -157.5t-113 -422.5z" />
    <glyph glyph-name="zero.dnom" horiz-adv-x="1040" 
d="M78 506q0 231 117 375.5t325 144.5t325.5 -144.5t117.5 -375.5q0 -232 -117 -376t-326 -144q-139 0 -240 67.5t-151.5 184t-50.5 268.5zM229 506q0 -121 35 -211l447 526q-74 74 -191 74q-141 0 -216 -105.5t-75 -283.5zM332 188q74 -71 188 -71q141 0 216 105t75 284
q0 123 -35 213z" />
    <glyph glyph-name="one.dnom" horiz-adv-x="724" 
d="M469 0v940q-7 -90 -25.5 -160t-57 -138.5t-106.5 -118.5t-165 -79l-52 131q144 55 208 162t67 275h283v-1012h-152z" />
    <glyph glyph-name="two.dnom" horiz-adv-x="958" 
d="M70 532q0 129 33.5 226t94.5 154.5t138.5 85.5t171.5 28q171 0 272 -89t101 -253q0 -419 -721 -553h721v-131h-797v244q27 3 68 10.5t104.5 24t125.5 39.5t126 58.5t112.5 78t79.5 102.5t31 127q0 102 -55.5 156.5t-167.5 54.5q-289 0 -289 -363h-149z" />
    <glyph glyph-name="three.dnom" horiz-adv-x="974" 
d="M221 385q0 -147 66.5 -207.5t208.5 -60.5q243 0 243 184q0 166 -176 166h-137v123h137q162 0 162 139q0 166 -229 166q-136 0 -198 -52t-62 -165h-150q0 173 108.5 260.5t305.5 87.5q177 0 275.5 -72t98.5 -194q0 -92 -48 -151t-136 -79q199 -46 199 -254
q0 -138 -104 -214t-285 -76q-428 0 -428 399h149z" />
    <glyph glyph-name="four.dnom" horiz-adv-x="954" 
d="M84 461q178 65 295 209t135 342h152q-46 -479 -525 -674h469v324h152v-324h123v-131h-123v-207h-152v207h-526v254z" />
    <glyph glyph-name="five.dnom" horiz-adv-x="1011" 
d="M500 -14q-190 0 -306 96.5t-116 279.5h151q0 -119 71.5 -182t201.5 -63q132 0 203 66t71 186q0 112 -66.5 171.5t-185.5 59.5q-176 0 -260 -117l-162 82l78 447h672v-131h-547l-57 -326q97 168 327 168q163 0 258 -91.5t95 -256.5q0 -183 -114.5 -286t-313.5 -103z" />
    <glyph glyph-name="six.dnom" horiz-adv-x="989" 
d="M84 473q0 96 14 173.5t48 147.5t88 117t138.5 74t194.5 27h275v-131h-285q-330 0 -356 -367q35 98 125 152.5t219 54.5q171 0 273 -98.5t102 -257.5q0 -173 -108 -276t-296 -103q-205 0 -318.5 123.5t-113.5 363.5zM233 358q0 -101 72 -171t203 -70q124 0 192 63t68 185
q0 109 -68 172t-188 63q-132 0 -205.5 -65t-73.5 -177z" />
    <glyph glyph-name="seven.dnom" horiz-adv-x="839" 
d="M193 0q0 632 550 881h-696v131h746v-205q-225 -111 -333 -306.5t-108 -500.5h-159z" />
    <glyph glyph-name="eight.dnom" horiz-adv-x="956" 
d="M57 281q0 106 67.5 176t190.5 100q-90 24 -146 80t-56 143q0 84 51 141t131 81t184 24q159 0 262 -61t103 -185q0 -87 -56.5 -143t-146.5 -80q122 -30 190 -101t68 -180q0 -134 -113.5 -212t-308.5 -78q-192 0 -306 78.5t-114 216.5zM207 297q0 -84 68.5 -136t203.5 -52
q134 0 201.5 52t67.5 136q0 90 -67 141t-202 51q-137 0 -204.5 -51t-67.5 -141zM262 762q0 -144 217 -144q213 0 213 144q0 141 -213 141q-217 0 -217 -141z" />
    <glyph glyph-name="nine.dnom" horiz-adv-x="989" 
d="M905 539q0 -122 -23 -215t-76.5 -168.5t-150 -115.5t-233.5 -40h-277v131h285q332 0 358 365v2q-36 -99 -125 -154t-221 -55q-170 0 -270 98.5t-100 257.5q0 174 107.5 277.5t293.5 103.5q205 0 318.5 -124t113.5 -363zM221 645q0 -108 69 -170.5t187 -62.5
q132 0 204.5 64t72.5 175q0 102 -71.5 173t-201.5 71q-125 0 -192.5 -63.5t-67.5 -186.5z" />
    <glyph glyph-name="zero.numr" horiz-adv-x="1040" 
d="M78 938q0 231 117 375.5t325 144.5t325.5 -144.5t117.5 -375.5q0 -232 -117 -376t-326 -144q-139 0 -240 67.5t-151.5 184t-50.5 268.5zM229 938q0 -121 35 -211l447 526q-74 74 -191 74q-141 0 -216 -105.5t-75 -283.5zM332 621q75 -72 188 -72q141 0 216 105t75 284
q0 123 -35 213z" />
    <glyph glyph-name="one.numr" horiz-adv-x="724" 
d="M469 428v940q-7 -90 -25.5 -160t-57 -138.5t-106.5 -118.5t-165 -79l-52 132q144 55 208 161.5t67 274.5h283v-1012h-152z" />
    <glyph glyph-name="two.numr" horiz-adv-x="958" 
d="M70 965q0 129 33.5 226t94.5 154t138.5 85t171.5 28q171 0 272 -89t101 -253q0 -419 -721 -553h721v-131h-797v244q27 3 68 10.5t104.5 24t125.5 39.5t126 58.5t112.5 78t79.5 102.5t31 127q0 102 -55.5 156.5t-167.5 54.5q-289 0 -289 -362h-149z" />
    <glyph glyph-name="three.numr" horiz-adv-x="974" 
d="M221 817q0 -147 66.5 -207.5t208.5 -60.5q243 0 243 184q0 166 -176 166h-137v123h137q162 0 162 139q0 166 -229 166q-136 0 -198 -52t-62 -165h-150q0 173 108.5 260.5t305.5 87.5q177 0 275.5 -72t98.5 -194q0 -91 -47.5 -150t-136.5 -79q199 -46 199 -254
q0 -138 -104.5 -214.5t-284.5 -76.5q-428 0 -428 399h149z" />
    <glyph glyph-name="four.numr" horiz-adv-x="954" 
d="M84 893q178 65 295 209t135 342h152q-46 -479 -525 -674h469v324h152v-324h123v-131h-123v-207h-152v207h-526v254z" />
    <glyph glyph-name="five.numr" horiz-adv-x="1011" 
d="M500 418q-190 0 -306 97t-116 280h151q0 -119 71.5 -182.5t201.5 -63.5q132 0 203 66t71 186q0 112 -66.5 171.5t-185.5 59.5q-176 0 -260 -117l-162 82l78 447h672v-131h-547l-57 -326q97 168 327 168q163 0 258 -91.5t95 -256.5q0 -183 -114.5 -286t-313.5 -103z" />
    <glyph glyph-name="six.numr" horiz-adv-x="989" 
d="M84 905q0 96 14 173.5t48 147.5t88 117t138.5 74t194.5 27h275v-131h-285q-330 0 -356 -367q35 98 125 152.5t219 54.5q171 0 273 -98.5t102 -257.5q0 -173 -108 -276t-296 -103q-205 0 -318.5 123.5t-113.5 363.5zM233 791q0 -101 72 -171.5t203 -70.5q124 0 192 63
t68 185q0 109 -68 172t-188 63q-132 0 -205.5 -65t-73.5 -176z" />
    <glyph glyph-name="seven.numr" horiz-adv-x="839" 
d="M193 432q0 632 550 881h-696v131h746v-205q-225 -111 -333 -306.5t-108 -500.5h-159z" />
    <glyph glyph-name="eight.numr" horiz-adv-x="956" 
d="M57 713q0 106 67.5 176t190.5 100q-90 24 -146 80t-56 143q0 84 51 141t131 81t184 24q159 0 262 -61t103 -185q0 -87 -56.5 -143t-146.5 -80q122 -30 190 -100.5t68 -179.5q0 -134 -113.5 -212.5t-308.5 -78.5q-192 0 -306 78.5t-114 216.5zM207 729q0 -84 68.5 -136
t203.5 -52q134 0 201.5 52t67.5 136q0 90 -67 141.5t-202 51.5q-136 0 -204 -51.5t-68 -141.5zM262 1194q0 -143 217 -143q213 0 213 143q0 141 -213 141q-217 0 -217 -141z" />
    <glyph glyph-name="nine.numr" horiz-adv-x="989" 
d="M905 971q0 -122 -23 -215t-76.5 -168.5t-150 -115.5t-233.5 -40h-277v131h285q332 0 358 365v2q-36 -99 -125 -154t-221 -55q-170 0 -270 98.5t-100 257.5q0 174 107.5 277.5t293.5 103.5q205 0 318.5 -124t113.5 -363zM221 1077q0 -108 69 -170.5t187 -62.5
q132 0 204.5 64t72.5 175q0 102 -71.5 173t-201.5 71q-125 0 -192.5 -63.5t-67.5 -186.5z" />
    <glyph glyph-name="colon.case" horiz-adv-x="686" 
d="M342 199q-74 0 -124 50.5t-50 123.5t50 122.5t124 49.5t125 -50t51 -122t-51.5 -123t-124.5 -51zM168 1077q0 73 50 122.5t124 49.5t125 -50t51 -122t-51.5 -123t-124.5 -51q-74 0 -124 50.5t-50 123.5z" />
    <glyph glyph-name="periodcentered.case" horiz-adv-x="686" 
d="M342 549q-74 0 -124 50.5t-50 123.5t50 122.5t124 49.5t125 -50t51 -122t-51.5 -123t-124.5 -51z" />
    <glyph glyph-name="bullet.case" horiz-adv-x="1357" 
d="M676 211q-144 0 -261 68t-183 185t-66 257q0 212 146 357t364 145q141 0 259.5 -66.5t186.5 -182t68 -253.5q0 -139 -68 -256.5t-186.5 -185.5t-259.5 -68z" />
    <glyph glyph-name="hyphen.case" horiz-adv-x="1325" 
d="M168 797h987v-148h-987v148z" />
    <glyph glyph-name="endash.case" horiz-adv-x="1738" 
d="M168 797h1403v-148h-1403v148z" />
    <glyph glyph-name="emdash.case" horiz-adv-x="2148" 
d="M168 797h1812v-148h-1812v148z" />
    <glyph glyph-name="parenleft.case" horiz-adv-x="884" 
d="M717 -154q-146 30 -253 107.5t-171 193.5t-94.5 259t-30.5 317t30.5 317t94.5 258.5t171 192t253 106.5v-147q-204 -52 -295.5 -236.5t-91.5 -490.5t91.5 -491.5t295.5 -237.5v-148z" />
    <glyph glyph-name="parenright.case" horiz-adv-x="884" 
d="M168 1597q146 -30 253 -107t171 -193.5t94.5 -259t30.5 -316.5q0 -139 -19 -257.5t-60.5 -222.5t-104.5 -182.5t-155.5 -133.5t-209.5 -79v148q204 52 295.5 236.5t91.5 490.5t-91.5 491.5t-295.5 237.5v147z" />
    <glyph glyph-name="braceleft.case" horiz-adv-x="970" 
d="M168 791q176 19 251 94.5t75 199.5q0 126 -65 213.5t-171 102.5v196h545v-120h-465q150 -44 225.5 -149t75.5 -243q0 -142 -79 -238.5t-230 -125.5q151 -28 230 -126.5t79 -240.5q0 -138 -75 -241t-226 -146h465v-121h-545v197q107 17 171.5 102t64.5 209t-75.5 200
t-250.5 97v140z" />
    <glyph glyph-name="braceright.case" horiz-adv-x="970" 
d="M803 653q-176 -19 -251 -95t-75 -200q0 -126 65 -213t171 -102v-197h-545v121h465q-150 44 -225.5 149t-75.5 242q0 142 79 239t230 126q-151 28 -230 126.5t-79 240.5q0 138 75 241t226 146h-465v120h545v-196q-107 -17 -171.5 -102t-64.5 -209t75.5 -200t250.5 -97
v-140z" />
    <glyph glyph-name="bracketleft.case" horiz-adv-x="888" 
d="M168 1597h551v-137h-389v-1476h389v-138h-551v1751z" />
    <glyph glyph-name="bracketright.case" horiz-adv-x="888" 
d="M721 -154h-551v138h389v1476h-389v137h551v-1751z" />
    <glyph glyph-name="braceleft.ss09" horiz-adv-x="1226" 
d="M319 635q0 -83 42.5 -127.5t113.5 -44.5q66 0 130.5 47t107.5 125q-43 78 -107.5 125t-130.5 47q-71 0 -113.5 -44.5t-42.5 -127.5zM174 635q0 131 78 207t199 76q180 0 309 -166q14 65 14 116q0 140 -87.5 258t-260.5 189v190h629v-121h-551q187 -62 287 -196t100 -291
q0 -135 -62 -262q62 -127 62 -262q0 -74 -23 -146t-68.5 -137.5t-121.5 -119.5t-174 -85h551v-121h-629v191q174 71 261 188.5t87 257.5q0 52 -14 117q-129 -166 -305 -166q-119 0 -200 74.5t-81 208.5z" />
    <glyph glyph-name="braceright.ss09" horiz-adv-x="1218" 
d="M903 635q0 83 -42 127.5t-113 44.5q-66 0 -130.5 -47t-107.5 -125q43 -78 107.5 -125t130.5 -47q71 0 113 44.5t42 127.5zM168 -236v121h551q-187 62 -287 196.5t-100 291.5q0 137 61 262q-61 125 -61 262q0 156 98 291t289 196h-551v121h629v-190q-173 -71 -260.5 -189
t-87.5 -258q0 -51 14 -116q129 166 305 166q119 0 200 -74.5t81 -208.5q0 -131 -78 -207t-199 -76q-180 0 -309 166q-14 -65 -14 -117q0 -140 87 -257.5t261 -188.5v-191h-629z" />
    </font>
</defs>
</svg>
