<?xml version="1.0" standalone="no"?>
<!DOCTYPE svg PUBLIC "-//W3C//DTD SVG 1.1//EN" "http://www.w3.org/Graphics/SVG/1.1/DTD/svg11.dtd" >
<svg xmlns="http://www.w3.org/2000/svg" xmlns:xlink="http://www.w3.org/1999/xlink" version="1.1">
<metadata>
Created by FontForge 20170731 at Thu Jan 26 18:05:05 2023
 By Aleksey,,,
Copyright (c) 2019 by Mathieu Desjardins. All rights reserved.
</metadata>
<defs>
<font id="PPNeueMachina-PlainRegularItalic" horiz-adv-x="0" >
  <font-face 
    font-family="PP Neue Machina Plain Italic"
    font-weight="400"
    font-style="italic"
    font-stretch="normal"
    units-per-em="2048"
    panose-1="0 0 0 0 0 0 0 0 0 0"
    ascent="1638"
    descent="-410"
    x-height="1018"
    cap-height="1444"
    bbox="-219 -543 3244.66 2019"
    underline-thickness="102"
    underline-position="-307"
    slope="-11"
    unicode-range="U+0020-FB02"
  />
<missing-glyph horiz-adv-x="952" 
d="M780 1516v-1905h-604v1905h604zM317 -258h318v63h-195l133 91h62v61h-318v-61h134l-134 -91v-63zM317 2h318v215h-318v-215zM317 332h318v215h-191v-107h64v43h63v-90h-190v154h-64v-215zM317 588h318v190h-64v-125h-254v-65zM317 696h191v133h127v64h-318v-64h127v-69
h-127v-64zM317 944h318v66h-127v133h-191v-199zM317 1192h318v63h-127v70h127v64h-316v-64h125v-70h-127v-63zM381 63v91h190v-91h-190zM381 1010v67h63v-67h-63z" />
    <glyph glyph-name="fi" unicode="fi" horiz-adv-x="1593" 
d="M821 1350q-91 0 -139 -51.5t-68 -153.5l-24 -127h616q72 0 98 -33.5t11 -107.5l-139 -721h280l-29 -156h-1437l28 156h226l135 706h-223l30 156h224l24 129q34 169 139 263.5t287 94.5h457l-29 -155h-467zM422 156h571l140 706h-574z" />
    <glyph glyph-name="fl" unicode="fl" horiz-adv-x="1572" 
d="M156 862l30 156h222l28 147q32 162 136.5 251t287.5 89h447q106 0 88 -102l-242 -1247h285l-29 -156h-1419l28 156h224l135 706h-221zM424 156h547l233 1194h-383q-93 0 -138.5 -44.5t-64.5 -144.5l-28 -143h295l-29 -156h-295z" />
    <glyph glyph-name="f_f" unicode="ff" horiz-adv-x="1589" 
d="M156 862l30 156h236l8 45q70 358 426 358h422q108 84 281 84h176l-29 -155h-186q-93 0 -138.5 -44.5t-64.5 -144.5l-29 -143h295l-29 -156h-294l-138 -706h293l-29 -156h-1398l30 156h236l137 706h-235zM432 156h508l135 706h-506zM600 1018h506l29 147q12 55 30 105
h-338q-100 0 -148 -49t-71 -162z" />
    <glyph glyph-name="f_f_i" unicode="ffi" horiz-adv-x="2293" 
d="M156 862l30 156h236l8 45q70 358 426 358h430q108 84 275 84h456l-28 -155h-467q-91 0 -139 -51.5t-68 -153.5l-25 -127h617q72 0 97.5 -33.5t10.5 -107.5l-139 -721h281l-29 -156h-1438l29 156h225l135 706h-510l-137 -706h287l-31 -156h-700l30 156h236l137 706h-235z
M600 1018h510l25 129q12 67 39 123h-347q-100 0 -148 -49t-71 -162zM1122 156h572l139 706h-573z" />
    <glyph glyph-name=".notdef" horiz-adv-x="952" 
d="M780 1516v-1905h-604v1905h604zM317 -258h318v63h-195l133 91h62v61h-318v-61h134l-134 -91v-63zM317 2h318v215h-318v-215zM317 332h318v215h-191v-107h64v43h63v-90h-190v154h-64v-215zM317 588h318v190h-64v-125h-254v-65zM317 696h191v133h127v64h-318v-64h127v-69
h-127v-64zM317 944h318v66h-127v133h-191v-199zM317 1192h318v63h-127v70h127v64h-316v-64h125v-70h-127v-63zM381 63v91h190v-91h-190zM381 1010v67h63v-67h-63z" />
    <glyph glyph-name=".null" 
 />
    <glyph glyph-name="nonmarkingreturn" horiz-adv-x="682" 
 />
    <glyph glyph-name="space" unicode=" " horiz-adv-x="669" 
 />
    <glyph glyph-name="space" unicode="&#xa0;" horiz-adv-x="669" 
 />
    <glyph glyph-name="exclam" unicode="!" horiz-adv-x="690" 
d="M264 -20q-74 0 -120.5 50.5t-43.5 123.5q3 72 55.5 122t127.5 50q74 0 123 -50t45 -122q-3 -72 -57.5 -123t-129.5 -51zM272 504l158 940h182l-204 -940h-136z" />
    <glyph glyph-name="quotedbl" unicode="&#x22;" horiz-adv-x="776" 
d="M358 1526h170l-102 -533h-170zM539 993l102 533h170l-102 -533h-170z" />
    <glyph glyph-name="numbersign" unicode="#" horiz-adv-x="2129" 
d="M348 1020h500l254 555l139 -62l-225 -493h508l254 555l139 -62l-225 -493h342v-137h-406l-217 -477h422v-138h-485l-267 -581l-139 63l238 518h-508l-266 -581l-140 63l238 518h-357v138h420l217 477h-436v137zM735 406h508l217 477h-508z" />
    <glyph glyph-name="dollar" unicode="$" horiz-adv-x="1433" 
d="M1311 383q-43 -406 -594 -406h-31l-55 -280h-127l55 291q-245 34 -359 176t-91 379h188q-46 -345 293 -398l104 539l-116 37q-160 49 -229.5 139t-55.5 223q19 187 160 285t389 98h4l55 281h127l-55 -289q224 -27 328.5 -154.5t84.5 -336.5h-188q40 294 -256 338
l-94 -488l153 -47q337 -103 310 -387zM481 1092q-11 -79 34.5 -133.5t158.5 -88.5l53 -16l90 457q-306 -6 -336 -219zM715 135h12q186 0 283 59.5t112 180.5q21 170 -211 241l-96 31z" />
    <glyph glyph-name="percent" unicode="%" horiz-adv-x="2340" 
d="M573 592q-188 0 -302 123.5t-105 302.5t135 302.5t315 123.5q188 0 301.5 -123.5t104.5 -302.5t-134.5 -302.5t-314.5 -123.5zM311 1018q-6 -116 70.5 -198.5t198.5 -82.5t206.5 82.5t90.5 198.5q5 117 -70.5 198.5t-198.5 81.5q-122 0 -206.5 -82t-90.5 -198zM651 37
l1006 1417l119 -61l-1006 -1418zM1401 410q9 179 135 302.5t315 123.5q188 0 301.5 -123.5t104.5 -302.5t-134.5 -302.5t-314.5 -123.5q-188 0 -302 123.5t-105 302.5zM1546 410q-6 -116 70.5 -198.5t198.5 -82.5t206 82.5t90 198.5q5 117 -70 198.5t-198 81.5
q-122 0 -206.5 -82t-90.5 -198z" />
    <glyph glyph-name="ampersand" unicode="&#x26;" horiz-adv-x="1826" 
d="M106 485q15 213 153 347.5t335 134.5q80 0 160.5 -22.5t122.5 -57.5l-269 454l19 103h1079l-29 -156h-833l516 -876q175 229 246 592h190q-92 -468 -348 -742l178 -301l-149 -90l-160 272q-256 -192 -594 -192q-196 0 -339.5 62.5t-217 184t-60.5 287.5zM291 498
q-15 -185 106.5 -288.5t343.5 -103.5q285 0 494 175l-203 342q-122 208 -368 208q-159 0 -259.5 -87t-113.5 -246z" />
    <glyph glyph-name="quotesingle" unicode="'" horiz-adv-x="493" 
d="M358 1526h170l-102 -533h-170z" />
    <glyph glyph-name="parenleft" unicode="(" horiz-adv-x="884" 
d="M571 -246q-137 48 -227 139.5t-129 212.5t-42.5 272.5t32.5 319.5q34 174 91.5 313t142.5 247t204.5 171.5t267.5 75.5l-28 -147q-210 -27 -334 -200t-184 -480q-37 -197 -31.5 -350.5t71.5 -263.5t193 -162z" />
    <glyph glyph-name="parenright" unicode=")" horiz-adv-x="886" 
d="M360 1505q137 -48 227 -139.5t129 -212.5t43 -272.5t-32 -319.5q-34 -174 -91.5 -313t-143 -247t-205 -171.5t-267.5 -75.5l29 148q210 27 334 200t184 480q37 197 31.5 350.5t-71.5 263.5t-193 162z" />
    <glyph glyph-name="asterisk" unicode="*" horiz-adv-x="1040" 
d="M264 1212l66 127l215 -102l63 -61l-10 90l49 247l135 -16l-49 -246l-43 -88l82 47l244 50l16 -134l-244 -51l-90 6l60 -59l104 -215l-127 -68l-100 213l-14 90l-48 -81l-180 -185l-92 92l182 183l80 47l-84 14z" />
    <glyph glyph-name="plus" unicode="+" horiz-adv-x="1327" 
d="M186 592h420l82 420h146l-82 -420h422l-29 -148h-420l-82 -419h-147l82 419h-420z" />
    <glyph glyph-name="comma" unicode="," horiz-adv-x="575" 
d="M213 336l152 -60l-277 -587l-151 61z" />
    <glyph glyph-name="hyphen" unicode="-" horiz-adv-x="1327" 
d="M186 592h988l-29 -148h-987z" />
    <glyph glyph-name="period" unicode="." horiz-adv-x="690" 
d="M264 -20q-74 0 -120.5 50.5t-43.5 123.5q3 72 55.5 122t127.5 50q74 0 123 -50t45 -122q-3 -72 -57.5 -123t-129.5 -51z" />
    <glyph glyph-name="slash" unicode="/" horiz-adv-x="1030" 
d="M1085 1659l134 -64l-1192 -1826l-133 63z" />
    <glyph glyph-name="zero" unicode="0" horiz-adv-x="1490" 
d="M707 -23q-207 0 -343 106.5t-183.5 287.5t-8.5 411q26 152 83.5 277t144 216t205 141t259.5 50q207 0 343 -106t184 -287t10 -411q-34 -203 -123.5 -355.5t-236.5 -241t-334 -88.5zM356 770q-39 -214 4 -362l787 766q-97 133 -291 133q-202 0 -329.5 -144.5
t-170.5 -392.5zM424 274q99 -135 295 -135t325.5 142t174.5 395q38 208 -9 364z" />
    <glyph glyph-name="one" unicode="1" horiz-adv-x="1009" 
d="M164 821q121 40 216.5 103t162 145t110.5 173.5t72 201.5h309l-282 -1444h-187l248 1272l18 90q-28 -100 -61.5 -182t-86 -167t-118 -150.5t-159 -120.5t-207.5 -89z" />
    <glyph glyph-name="two" unicode="2" horiz-adv-x="1376" 
d="M147 752q19 124 53.5 228.5t91 195.5t131 154.5t177.5 99.5t227 36q120 0 219 -34.5t169 -100t100.5 -169.5t11.5 -234q-20 -144 -97.5 -266.5t-192 -208.5t-263 -149.5t-308.5 -98t-331 -45.5h1043l-29 -160h-1129l58 305q54 0 125.5 7.5t168.5 27t192 49.5t192.5 79.5
t175 112t135 153t76.5 196.5q17 94 0 166.5t-62.5 118t-112.5 69t-151 23.5q-197 0 -317 -132t-168 -423h-185z" />
    <glyph glyph-name="three" unicode="3" horiz-adv-x="1388" 
d="M307 551q-34 -221 54 -317.5t292 -96.5q194 0 295.5 76.5t112.5 216.5q10 125 -55 188.5t-189 63.5h-174l29 154h225q124 0 190.5 56.5t79.5 154.5q7 57 -6.5 102.5t-49.5 81.5t-105.5 56t-167.5 20q-196 0 -299 -83t-131 -255h-185q29 244 190 370.5t443 126.5
q254 0 384.5 -103t119.5 -280q-8 -133 -94.5 -226t-225.5 -105q103 -36 160 -124.5t43 -221.5q-20 -201 -177 -315t-423 -114q-287 0 -425 140.5t-97 433.5h186z" />
    <glyph glyph-name="four" unicode="4" horiz-adv-x="1366" 
d="M983 975h184l-98 -506h180l-28 -158h-183l-61 -311h-184l61 311h-768l61 314q180 69 335 183.5t277 279t181 356.5h190q-212 -676 -944 -975h699z" />
    <glyph glyph-name="five" unicode="5" horiz-adv-x="1445" 
d="M700 -25q-127 0 -236 34t-190.5 99t-122.5 169t-28 235h180q-13 -120 37 -207.5t144.5 -130.5t220.5 -43q179 0 289 91t139 261q33 189 -70.5 292.5t-302.5 103.5q-223 0 -354 -138l-179 117l207 586h963l-31 -156h-801l-168 -452q154 188 428 188q120 0 218 -35
t166.5 -102.5t96.5 -174.5t5 -241q-40 -236 -199.5 -366t-411.5 -130z" />
    <glyph glyph-name="six" unicode="6" horiz-adv-x="1415" 
d="M696 -23q-145 0 -259.5 48.5t-188.5 144.5t-97 237.5t13 327.5q26 137 65 241.5t103.5 195.5t153 149t215.5 90.5t290 32.5h377l-31 -160l-393 2q-253 0 -395 -121.5t-205 -355.5q144 215 440 215q178 0 302.5 -76.5t174 -207.5t21.5 -294q-39 -216 -193 -342.5
t-393 -126.5zM322 578q-41 -183 70 -311t313 -128q164 0 265.5 86t129.5 242q32 189 -69.5 298t-297.5 109q-165 0 -272.5 -78t-138.5 -218z" />
    <glyph glyph-name="seven" unicode="7" horiz-adv-x="1204" 
d="M195 0q91 465 346 779t678 505h-998l31 160h1067l-49 -252q-357 -166 -575.5 -458.5t-305.5 -733.5h-194z" />
    <glyph glyph-name="eight" unicode="8" horiz-adv-x="1380" 
d="M633 -23q-279 0 -425.5 112.5t-131.5 307.5q11 163 124.5 266t293.5 144q-101 38 -154 118t-41 191q11 92 58 161t122.5 109t167 59t199.5 19q244 0 367.5 -89t111.5 -257q-9 -131 -96 -216.5t-225 -119.5q140 -46 210.5 -147.5t51.5 -239.5q-27 -197 -191.5 -307.5
t-441.5 -110.5zM270 426q-14 -137 78.5 -214t298.5 -77q203 0 312.5 77t123.5 214q16 136 -76 213.5t-296 77.5t-314.5 -77.5t-126.5 -213.5zM481 1090q-13 -121 63.5 -171.5t239.5 -50.5q160 0 246.5 50.5t99.5 171.5q13 120 -62.5 170.5t-236.5 50.5q-163 0 -250 -50.5
t-100 -170.5z" />
    <glyph glyph-name="nine" unicode="9" horiz-adv-x="1415" 
d="M803 1466q146 0 260 -48.5t188 -144t97 -237t-13 -327.5q-26 -137 -65 -241.5t-103.5 -195.5t-153 -149t-215.5 -90.5t-290 -32.5h-377l31 160l393 -2q253 0 395 121.5t205 355.5q-144 -215 -440 -215q-179 0 -303 76.5t-173.5 207t-21.5 293.5q39 216 193 342.5
t393 126.5zM399 977q-32 -189 69.5 -298.5t297.5 -109.5q165 0 273 78.5t139 218.5q41 183 -70 311t-313 128q-164 0 -266 -86t-130 -242z" />
    <glyph glyph-name="colon" unicode=":" horiz-adv-x="690" 
d="M264 -20q-74 0 -120.5 50.5t-43.5 123.5q3 72 55.5 122t127.5 50q74 0 123 -50t45 -122q-3 -72 -57.5 -123t-129.5 -51zM236 858q3 72 55 122t127 50q74 0 123 -50t45 -122q-3 -72 -57.5 -123t-129.5 -51q-74 0 -120 50.5t-43 123.5z" />
    <glyph glyph-name="semicolon" unicode=";" horiz-adv-x="575" 
d="M213 336l152 -60l-277 -587l-151 61zM236 858q3 72 55 122t127 50q74 0 123 -50t45 -122q-3 -72 -57.5 -123t-129.5 -51q-74 0 -120 50.5t-43 123.5z" />
    <glyph glyph-name="less" unicode="&#x3c;" horiz-adv-x="1331" 
d="M184 592l998 326l32 -152l-864 -268l750 -275l-78 -133l-870 334z" />
    <glyph glyph-name="equal" unicode="=" horiz-adv-x="1325" 
d="M225 801h987l-28 -146h-987zM115 236l28 147h987l-28 -147h-987z" />
    <glyph glyph-name="greater" unicode="&#x3e;" horiz-adv-x="1333" 
d="M1149 428l-997 -326l-33 152l864 268l-750 275l78 133l871 -334z" />
    <glyph glyph-name="question" unicode="?" horiz-adv-x="915" 
d="M379 -20q-74 0 -120.5 50.5t-43.5 123.5q3 72 55 122t127 50q74 0 123 -50t45 -122q-3 -72 -57 -123t-129 -51zM127 1047q34 210 160 321t346 111q111 0 193 -30t126 -81.5t59.5 -116.5t2.5 -139q-64 -370 -723 -471h497l-24 -131h-610l49 246q75 5 147.5 16t161 37
t157 63t121 98t66.5 138q19 107 -43 173.5t-195 66.5q-274 0 -335 -301h-156z" />
    <glyph glyph-name="at" unicode="@" horiz-adv-x="2134" 
d="M1038 -332q-133 -2 -250 18.5t-210 59.5t-169.5 95.5t-131 127.5t-92 153.5t-54 175t-15.5 191.5t21 203q71 372 331 588.5t644 216.5q166 0 314 -42.5t265 -124t195.5 -200t104.5 -271t-9 -337.5q-50 -247 -178.5 -358t-337.5 -111h-61q-50 0 -76 29t-16 78l22 110
q-63 -104 -168 -160.5t-233 -56.5q-226 0 -339.5 161t-66.5 409q40 209 171.5 332.5t312.5 123.5q98 0 185.5 -36t151.5 -113t78 -182l21 102l39 209h158l-170 -875h38q123 0 204 78.5t116 261.5q30 159 9.5 290.5t-84.5 233.5t-161.5 171.5t-221 106t-263.5 36.5
q-326 0 -547.5 -185.5t-283.5 -504.5q-17 -88 -18 -171.5t13.5 -162.5t46 -149.5t78 -131t113 -109t147 -82.5t183 -51.5t219.5 -15.5l633 8l-25 -131zM694 604q-18 -100 -2 -176t60 -128t109.5 -78.5t146.5 -26.5q148 0 245.5 86t126.5 243q33 186 -58 297t-259 111
q-149 0 -244 -86t-125 -242z" />
    <glyph glyph-name="A" unicode="A" horiz-adv-x="1429" 
d="M-43 0l776 1444h334l207 -1444h-189l-79 553h-555l-297 -553h-197zM537 713h446l-94 659z" />
    <glyph glyph-name="B" unicode="B" horiz-adv-x="1419" 
d="M49 0l283 1444h444q142 0 239.5 -16t169.5 -55t102.5 -109t23.5 -174q-8 -98 -54.5 -172t-113 -113.5t-146.5 -48.5q143 -25 220.5 -119t60.5 -254q-13 -108 -61.5 -184t-131.5 -119t-186.5 -61.5t-241.5 -18.5h-608zM266 156h408q79 0 135.5 6t109 22t86.5 45t58 75.5
t33 111.5q19 148 -70 205t-285 57h-372zM395 825h328q73 0 125 5t102.5 19t82.5 39.5t55 68t30 102.5q9 64 -3.5 108t-36.5 68.5t-74 37.5t-97.5 16t-126.5 3h-293z" />
    <glyph glyph-name="C" unicode="C" horiz-adv-x="1593" 
d="M764 -23q-159 0 -283 57t-199 157t-106.5 236.5t-13.5 295.5q24 212 123 379.5t267 265.5t378 98q277 0 435.5 -155.5t160.5 -423.5h-189q0 200 -108.5 309t-310.5 109q-238 0 -387 -159t-181 -421q-22 -175 17.5 -305.5t143 -205.5t263.5 -75q204 0 339 110t185 310h189
q-62 -271 -254.5 -426.5t-468.5 -155.5z" />
    <glyph glyph-name="D" unicode="D" horiz-adv-x="1464" 
d="M49 0l283 1444h184l-283 -1444h-184zM233 0l33 160h309q63 0 111.5 3.5t110 17t108 36.5t97 65.5t86.5 100.5t66 144.5t46 195.5q12 85 12 156t-10 124.5t-32 96t-48 71.5t-63 50t-72 33t-81 19t-83.5 9t-85.5 2h-252l31 160h236q118 0 211 -14.5t187.5 -61t151.5 -123
t82.5 -209.5t1.5 -313q-17 -130 -53.5 -236t-83.5 -180t-111 -130t-129 -89t-144.5 -53.5t-150.5 -27.5t-153 -7h-328z" />
    <glyph glyph-name="E" unicode="E" horiz-adv-x="1259" 
d="M49 0l283 1444h1003l-30 -160h-820l-94 -483h717l-31 -156h-715l-96 -485h817l-30 -160h-1004z" />
    <glyph glyph-name="F" unicode="F" horiz-adv-x="1212" 
d="M49 0l283 1444h958l-30 -160h-775l-100 -518h682l-31 -158h-682l-118 -608h-187z" />
    <glyph glyph-name="G" unicode="G" horiz-adv-x="1626" 
d="M737 -23q-159 0 -278 55.5t-188 154.5t-97 231t-12 291q33 345 236 551t524 206q262 0 416.5 -143.5t166.5 -394.5h-188q-5 181 -107 280t-288 99q-242 0 -392 -163t-180 -437q-14 -122 2.5 -222t65 -179.5t141.5 -124t225 -44.5q232 0 360 125t165 371h-564l29 143h621
q127 0 106 -121l-129 -655h-186l35 164l14 84q-22 -41 -51 -78t-73 -73t-96.5 -62t-124.5 -42t-153 -16z" />
    <glyph glyph-name="H" unicode="H" horiz-adv-x="1492" 
d="M332 1444h184l-127 -651h825l127 651h187l-283 -1444h-186l123 631h-826l-123 -631h-184z" />
    <glyph glyph-name="I" unicode="I" horiz-adv-x="1085" 
d="M309 1444h832l-31 -160h-324l-221 -1124h326l-33 -160h-831l30 160h324l221 1124h-323z" />
    <glyph glyph-name="J" unicode="J" horiz-adv-x="1114" 
d="M479 0h-510l31 160h467q147 0 225 87.5t111 258.5l151 778h-528l31 160h573q78 0 103.5 -29.5t11.5 -103.5l-166 -856q-44 -221 -172.5 -338t-327.5 -117z" />
    <glyph glyph-name="K" unicode="K" horiz-adv-x="1353" 
d="M49 0l283 1444h184l-119 -621l801 621h268l-917 -709l641 -735h-236l-587 674l-134 -674h-184z" />
    <glyph glyph-name="L" unicode="L" horiz-adv-x="1120" 
d="M178 0q-62 0 -89 33t-15 96l258 1315h184l-250 -1284h723l-31 -160h-780z" />
    <glyph glyph-name="M" unicode="M" horiz-adv-x="1859" 
d="M49 0l283 1444h340l168 -1376l706 1376h348l-282 -1444h-187l230 1176l39 192l-715 -1368h-297l-180 1368l-39 -192l-230 -1176h-184z" />
    <glyph glyph-name="N" unicode="N" horiz-adv-x="1562" 
d="M49 0l283 1444h340l471 -1376l22 112l246 1264h186l-282 -1444h-340l-471 1376l-23 -112l-248 -1264h-184z" />
    <glyph glyph-name="O" unicode="O" horiz-adv-x="1605" 
d="M164 723q19 212 115 379.5t262.5 265.5t376.5 98q156 0 279.5 -57t199.5 -156.5t110 -235.5t19 -294q-15 -159 -74.5 -295.5t-155 -236.5t-230.5 -157t-292 -57t-280.5 57t-200 157t-110.5 236.5t-19 295.5zM352 723q-19 -173 20 -302.5t143.5 -205.5t266.5 -76
q241 0 383.5 159.5t171.5 424.5q19 172 -19.5 301t-142.5 205t-266 76t-283 -76t-188 -205t-86 -301z" />
    <glyph glyph-name="P" unicode="P" horiz-adv-x="1271" 
d="M49 0l283 1444h184l-283 -1444h-184zM330 487l30 160h258q77 0 135.5 7t116 27.5t97 55t68.5 92.5t40 138q5 50 5.5 90.5t-12 72t-28 55.5t-43 41t-56 28.5t-67 18t-77 9t-86.5 2.5h-226l31 160h203q149 0 253 -23t177 -77t100.5 -148t10.5 -231q-17 -135 -68 -229
t-137.5 -148t-197 -77.5t-259.5 -23.5h-268z" />
    <glyph glyph-name="Q" unicode="Q" horiz-adv-x="1583" 
d="M1372 -328q-312 66 -573 75t-576 -36l15 150q13 2 69 10t77.5 11.5t75 12.5t83.5 15.5t79.5 18.5t85.5 23t79.5 27t82.5 33q-64 -12 -139 -12q-210 0 -353.5 109.5t-195.5 291.5t-10 400q58 299 254 482t477 183q222 0 376.5 -105.5t215 -292t14.5 -419.5
q-25 -129 -74.5 -239t-112 -189t-142 -143.5t-159 -106t-169.5 -71.5q207 -2 551 -70zM358 776q-34 -180 5.5 -320.5t151 -221t280.5 -80.5q209 0 346.5 136.5t183.5 387.5q34 181 -3.5 322t-147.5 223t-277 82q-210 0 -352 -141.5t-187 -387.5z" />
    <glyph glyph-name="R" unicode="R" horiz-adv-x="1386" 
d="M49 0l283 1444h504q104 0 182.5 -9.5t149.5 -35.5t113.5 -69t63 -114t9.5 -167q-35 -302 -297 -365h78q148 0 120 -152l-106 -532h-184l112 571h-729l-112 -571h-187zM379 731h364q78 0 130 4.5t106 21t87 46t58 80.5t35 125q11 80 -3.5 134.5t-39 82t-81.5 41.5
t-95.5 16t-116.5 2h-338z" />
    <glyph glyph-name="S" unicode="S" horiz-adv-x="1409" 
d="M1296 383q-43 -406 -594 -406q-325 0 -479.5 146.5t-128.5 419.5h189q-28 -206 80.5 -307t349.5 -101q186 0 283 59.5t112 180.5q21 170 -211 241l-334 105q-159 49 -228.5 138.5t-55.5 223.5q19 187 159.5 285t388.5 98q290 0 429.5 -130.5t115.5 -368.5h-188
q23 171 -68.5 257.5t-294.5 86.5q-324 0 -354 -219q-11 -79 34 -133.5t158 -88.5l328 -100q336 -102 309 -387z" />
    <glyph glyph-name="T" unicode="T" horiz-adv-x="1351" 
d="M266 1444h1182l-31 -160h-497l-252 -1284h-185l252 1284h-499z" />
    <glyph glyph-name="U" unicode="U" horiz-adv-x="1380" 
d="M123 586l170 858h184l-164 -842q-46 -233 31 -348t305 -115q108 0 184.5 25.5t127.5 79.5t81.5 127t51.5 180l174 893h186l-184 -948q-51 -258 -202 -388.5t-425 -130.5q-298 0 -438 153.5t-82 455.5z" />
    <glyph glyph-name="V" unicode="V" horiz-adv-x="1429" 
d="M446 0l-208 1444h188l197 -1374l735 1374h196l-774 -1444h-334z" />
    <glyph glyph-name="W" unicode="W" horiz-adv-x="1908" 
d="M2046 1444l-565 -1444h-332l-27 1374l-557 -1374h-334l-4 1444h183l12 -1249l-2 -117l555 1366h319l27 -1364l39 115l498 1249h188z" />
    <glyph glyph-name="X" unicode="X" horiz-adv-x="1400" 
d="M1251 0h-196l-326 637l-555 -637h-223l643 737l-361 707h197l328 -633l553 633h223l-645 -735z" />
    <glyph glyph-name="Y" unicode="Y" horiz-adv-x="1361" 
d="M1276 1444h203l-625 -836h-61l-121 -608h-185l119 608h-61l-299 836h188l271 -776z" />
    <glyph glyph-name="Z" unicode="Z" horiz-adv-x="1343" 
d="M8 0l68 336l1249 948h-1065l31 160h1126l-65 -338l-1250 -946h1065l-32 -160h-1127z" />
    <glyph glyph-name="bracketleft" unicode="[" horiz-adv-x="888" 
d="M362 1505h551l-26 -137h-389l-287 -1477h389l-27 -137h-550z" />
    <glyph glyph-name="backslash" unicode="\" horiz-adv-x="1011" 
d="M377 1655l479 -1827l-143 -55l-480 1824z" />
    <glyph glyph-name="bracketright" unicode="]" horiz-adv-x="888" 
d="M573 -246h-550l26 137h389l287 1477h-389l26 137h551z" />
    <glyph glyph-name="asciicircum" unicode="^" horiz-adv-x="1120" 
d="M842 780l-80 613h-51l-320 -613h-170l359 664h327l97 -664h-162z" />
    <glyph glyph-name="underscore" unicode="_" horiz-adv-x="1243" 
d="M12 -88h987l-28 -148h-987z" />
    <glyph glyph-name="grave" unicode="`" horiz-adv-x="1013" 
d="M1001 1315l-59 -131l-610 164l59 131z" />
    <glyph glyph-name="a" unicode="a" horiz-adv-x="1226" 
d="M63 279q13 269 357 301l446 38q15 138 -48.5 206.5t-194.5 68.5q-118 0 -186.5 -56.5t-100.5 -181.5h-180q39 179 161.5 282t311.5 103q108 0 192.5 -32.5t140.5 -96t75.5 -158t-3.5 -218.5l-73 -379h149l-29 -156h-186q-59 0 -85.5 32.5t-14.5 90.5l8 49l16 78
q-23 -46 -47 -82t-61 -72.5t-80 -61t-104 -39.5t-134 -15q-87 0 -151 21.5t-98 52.5t-54 74.5t-24.5 78.5t-2.5 72zM248 307q-13 -89 36.5 -133.5t143.5 -44.5q156 0 272 103.5t144 256.5l-389 -38q-99 -9 -148 -41t-59 -103z" />
    <glyph glyph-name="b" unicode="b" horiz-adv-x="1345" 
d="M47 0l291 1505h182l-123 -628l-12 -62q148 225 422 225q119 0 211 -43.5t144.5 -120t73.5 -180.5t-3 -225q-38 -218 -177 -354.5t-345 -136.5q-155 0 -273.5 81.5t-150.5 235.5l-33 -156l-25 -141h-182zM340 553q-38 -191 61.5 -302.5t272.5 -111.5q143 0 244.5 84.5
t134.5 251.5q38 197 -54 304.5t-262 107.5q-149 0 -257.5 -85.5t-139.5 -248.5z" />
    <glyph glyph-name="c" unicode="c" horiz-adv-x="1214" 
d="M111 553q38 214 187.5 350.5t365.5 136.5q93 0 175.5 -27t147 -77t101.5 -129.5t36 -177.5h-182q-1 123 -78.5 188.5t-201.5 65.5q-150 0 -246.5 -95t-124.5 -245q-22 -113 2 -205t100 -149.5t195 -57.5q243 0 317 258h185q-17 -87 -56 -158t-90.5 -118t-115 -78.5
t-128 -45.5t-131.5 -14q-114 0 -209 42.5t-157.5 117t-88 183.5t-3.5 235z" />
    <glyph glyph-name="d" unicode="d" horiz-adv-x="1341" 
d="M537 -25q-158 0 -266 76t-148.5 205.5t-11.5 290.5q38 218 177 354.5t345 136.5q155 0 273.5 -82t150.5 -237l33 158l116 628h183l-291 -1505h-180l28 139l12 62q-148 -226 -421 -226zM291 541q-38 -196 53.5 -303t261.5 -107q149 0 257 85t141 247q19 101 1 178.5
t-66 130t-117 80t-152 27.5q-143 0 -244.5 -85.5t-134.5 -252.5z" />
    <glyph glyph-name="e" unicode="e" horiz-adv-x="1204" 
d="M106 522q29 244 177 380t370 136q230 0 349 -131t92 -366l-9 -66h-806q-16 -157 53 -253.5t221 -96.5q126 0 213.5 61t128.5 170h180q-24 -75 -65.5 -139t-104 -119t-154.5 -86.5t-204 -31.5q-122 0 -214 42t-145 116t-74 172t-8 212zM297 604h629q7 137 -68 214t-213 77
q-128 0 -223 -77.5t-125 -213.5z" />
    <glyph glyph-name="f" unicode="f" horiz-adv-x="888" 
d="M156 862l30 156h222l28 147q32 162 136.5 251t287.5 89h176l-28 -155h-187q-93 0 -138.5 -44.5t-64.5 -144.5l-28 -143h295l-29 -156h-295l-137 -706h293l-29 -156h-698l28 156h224l135 706h-221z" />
    <glyph glyph-name="g" unicode="g" horiz-adv-x="1341" 
d="M537 -25q-158 0 -266 76t-148.5 205.5t-11.5 290.5q38 218 177 354.5t345 136.5q155 0 273.5 -82t150.5 -237l33 158l24 141h180l-196 -1018l-54 -274q-24 -125 -165 -125h-779l31 155h737l50 244l28 139l12 62q-148 -226 -421 -226zM291 541q-38 -196 53.5 -303
t261.5 -107q149 0 257 85t141 247q19 101 1 178.5t-66 130t-117 80t-152 27.5q-143 0 -244.5 -85.5t-134.5 -252.5z" />
    <glyph glyph-name="h" unicode="h" horiz-adv-x="1245" 
d="M47 0l291 1505h182l-119 -616l-22 -107q63 123 167 189.5t242 66.5q205 0 296.5 -124.5t48.5 -344.5l-109 -569h-184l110 565q31 163 -27 240.5t-208 77.5q-149 0 -254 -110.5t-142 -301.5l-90 -471h-182z" />
    <glyph glyph-name="i" unicode="i" horiz-adv-x="907" 
d="M8 0l31 156h283l137 706h-211l31 156h262q58 0 81 -28.5t11 -90.5l-144 -743h285l-31 -156h-735zM467 1329q7 60 52.5 98.5t107.5 38.5t99.5 -38.5t31.5 -98.5q-6 -59 -53 -98t-109 -39t-98.5 38.5t-30.5 98.5z" />
    <glyph glyph-name="j" unicode="j" horiz-adv-x="622" 
d="M145 -59q33 43 47 76.5t23 86.5l147 758h-215l31 156h266q64 0 91 -27.5t14 -89.5l-160 -829q-11 -51 -25 -84.5t-45 -77.5l-215 -299h-194zM379 1329q7 60 52.5 98.5t107.5 38.5t99.5 -38.5t31.5 -98.5q-6 -59 -53 -98t-109 -39t-98.5 38.5t-30.5 98.5z" />
    <glyph glyph-name="k" unicode="k" horiz-adv-x="1120" 
d="M47 0l291 1505h182l-176 -911l561 424h248l-659 -502l456 -516h-223l-410 459l-88 -459h-182z" />
    <glyph glyph-name="l" unicode="l" horiz-adv-x="905" 
d="M-10 0l28 156h285l234 1194h-213l28 155h287q109 0 88 -102l-244 -1247h287l-29 -156h-751z" />
    <glyph glyph-name="m" unicode="m" horiz-adv-x="1849" 
d="M45 0l199 1018h180l-25 -129l-18 -92q60 110 153 175.5t218 65.5q133 0 205 -70.5t83 -199.5q58 121 159.5 195.5t238.5 74.5q190 0 265.5 -127.5t33.5 -351.5l-109 -559h-182l108 553q17 100 12 172.5t-51.5 114t-136.5 41.5q-139 0 -232.5 -115t-129.5 -311l-88 -455
h-183l107 555q17 99 12.5 171.5t-49.5 113.5t-133 41q-141 0 -236 -114t-131 -310l-88 -457h-182z" />
    <glyph glyph-name="n" unicode="n" horiz-adv-x="1243" 
d="M45 0l199 1018h180l-25 -129l-22 -107q63 123 167 189.5t242 66.5q205 0 295 -124t49 -345l-108 -569h-182l108 565q31 163 -27 240.5t-208 77.5q-149 0 -254 -110.5t-142 -301.5l-90 -471h-182z" />
    <glyph glyph-name="o" unicode="o" horiz-adv-x="1296" 
d="M106 510q15 229 175 378.5t401 149.5q239 0 380 -150t126 -378q-14 -230 -173 -380t-399 -150t-382 150t-128 380zM289 510q-9 -162 80 -268.5t258 -106.5q167 0 268.5 106.5t112.5 268.5q9 160 -80 266.5t-256 106.5q-169 0 -271.5 -106.5t-111.5 -266.5z" />
    <glyph glyph-name="p" unicode="p" horiz-adv-x="1339" 
d="M-29 -397l273 1415h180l-27 -139l-12 -60q146 223 422 223q158 0 265 -75.5t147.5 -204.5t11.5 -291q-38 -217 -177.5 -353t-344.5 -136q-101 0 -187 33t-150.5 106t-86.5 178l-31 -156l-100 -540h-183zM338 555q-18 -100 0 -177t66 -129.5t117 -80t153 -27.5
q92 0 167.5 35t131.5 112t78 189q38 197 -54 304.5t-262 107.5q-149 0 -256.5 -85.5t-140.5 -248.5z" />
    <glyph glyph-name="q" unicode="q" horiz-adv-x="1343" 
d="M1296 1018l-274 -1415h-180l102 538l12 60q-147 -224 -421 -224q-157 0 -264.5 76t-148 205.5t-11.5 290.5q38 217 177.5 353t344.5 136q101 0 187 -33t150.5 -106t86.5 -178l33 156l24 141h182zM291 543q-38 -196 53.5 -304t261.5 -108q148 0 256.5 86t141.5 248
q38 191 -61.5 303.5t-272.5 112.5q-143 0 -244.5 -85.5t-134.5 -252.5z" />
    <glyph glyph-name="r" unicode="r" horiz-adv-x="913" 
d="M219 877q23 141 170 141h574l-29 -156h-539l-166 -862h-182z" />
    <glyph glyph-name="s" unicode="s" horiz-adv-x="1036" 
d="M508 -25q-110 0 -198 25.5t-150 75t-88 130t-9 183.5h181q-26 -137 53 -203.5t225 -66.5q94 0 147 33.5t66 105.5q10 52 -17.5 86.5t-103.5 63.5l-254 94q-218 80 -182 276q24 126 129.5 194t270.5 68q132 0 227 -38t142.5 -120.5t27.5 -199.5h-180q17 99 -43 158
t-185 59q-85 0 -141.5 -34.5t-65.5 -88.5q-10 -51 18 -86.5t97 -60.5l223 -82q126 -45 182 -116t35 -183q-25 -132 -129.5 -202.5t-277.5 -70.5z" />
    <glyph glyph-name="t" unicode="t" horiz-adv-x="899" 
d="M745 156l-30 -156h-400q-73 0 -101.5 34.5t-14.5 108.5l141 719h-225l30 156h224l51 258l192 55l-61 -313h319l-30 -156h-320l-137 -708z" />
    <glyph glyph-name="u" unicode="u" horiz-adv-x="1245" 
d="M457 -20q-204 0 -294.5 123.5t-49.5 342.5l110 572h183l-109 -567q-32 -162 26 -239t207 -77t255 110.5t143 301.5l90 471h180l-197 -1020h-182l27 131l20 107q-61 -123 -165 -189.5t-244 -66.5z" />
    <glyph glyph-name="v" unicode="v" horiz-adv-x="1114" 
d="M985 1018h186l-553 -1018h-313l-166 1018h178l152 -952z" />
    <glyph glyph-name="w" unicode="w" horiz-adv-x="1798" 
d="M170 1018h170l76 -825l4 -117l418 942h313l55 -930l47 105l394 825h176l-480 -1018h-307l-53 952l-418 -952h-315z" />
    <glyph glyph-name="x" unicode="x" horiz-adv-x="1165" 
d="M-33 0l473 522l-276 496h198l234 -430l387 430h215l-473 -516l274 -502h-200l-232 430l-387 -430h-213z" />
    <glyph glyph-name="y" unicode="y" horiz-adv-x="1230" 
d="M1206 1018l-198 -1018l-54 -274q-24 -125 -166 -125h-778l31 155h737l49 244l25 129l22 107q-63 -123 -167 -189.5t-242 -66.5q-205 0 -295 124t-49 345l108 569h183l-109 -565q-31 -163 27.5 -240.5t208.5 -77.5q148 0 253 110t142 302l90 471h182z" />
    <glyph glyph-name="z" unicode="z" horiz-adv-x="1095" 
d="M6 0l60 301l935 576h-825l29 141h885l-58 -299l-934 -574h824l-29 -145h-887z" />
    <glyph glyph-name="braceleft" unicode="{" horiz-adv-x="970" 
d="M201 668q321 -8 372 245q28 126 -18 225t-149 128l34 178h545l-24 -121h-443q128 -64 177 -178t20 -250q-28 -138 -123.5 -222.5t-247.5 -94.5q136 -47 197.5 -151.5t36.5 -248.5q-25 -137 -122 -237t-255 -127h467l-23 -121h-547l43 213q112 4 191.5 85t101.5 206
q46 252 -262 329z" />
    <glyph glyph-name="bar" unicode="|" horiz-adv-x="485" 
d="M410 1747h145l-397 -2050h-146z" />
    <glyph glyph-name="braceright" unicode="}" horiz-adv-x="970" 
d="M795 469q-322 8 -373 -246q-28 -126 18.5 -224.5t149.5 -127.5l-35 -178h-545l25 121h442q-128 64 -176.5 178t-19.5 250q28 138 123 222.5t247 94.5q-136 47 -197 151t-36 248q25 137 122 238t255 127h-467l22 121h547l-43 -213q-112 -4 -191.5 -85t-101.5 -206
q-47 -253 262 -330z" />
    <glyph glyph-name="asciitilde" unicode="~" horiz-adv-x="1316" 
d="M145 379q13 147 96 221t187 74q67 0 136 -25.5t117 -56.5t106 -56.5t106 -25.5q49 0 85.5 31.5t53.5 115.5h142q-13 -147 -95 -219.5t-188 -72.5q-54 0 -108.5 16.5t-98.5 40.5t-86 47.5t-86 40t-84 16.5q-112 0 -139 -147h-144z" />
    <glyph glyph-name="exclamdown" unicode="&#xa1;" horiz-adv-x="690" 
d="M426 1038q74 0 120.5 -50.5t43.5 -123.5q-3 -72 -55 -122t-127 -50q-74 0 -123 50t-45 122q3 72 57 123t129 51zM78 -426l205 940h135l-158 -940h-182z" />
    <glyph glyph-name="cent" unicode="&#xa2;" horiz-adv-x="1212" 
d="M152 768q36 209 180.5 345t353.5 142l94 492l127 -2l-96 -500q158 -28 257.5 -132.5t96.5 -268.5h-180q-1 104 -55.5 167.5t-147.5 82.5l-145 -750q117 2 195 63.5t118 196.5h180q-17 -87 -56.5 -158t-91 -118t-115 -78.5t-128 -45.5t-131.5 -14l-96 -493l-127 2l98 506
q-183 42 -276.5 194t-54.5 369zM328 758q-16 -94 -3.5 -173.5t61 -139.5t126.5 -85l143 740q-131 -14 -216 -108t-111 -234z" />
    <glyph glyph-name="sterling" unicode="&#xa3;" horiz-adv-x="1282" 
d="M119 229q304 78 354 340q6 43 6 84h-282l24 129h242q-5 25 -16 73.5t-17 79.5t-12 73t-5 81.5t9 77.5q11 58 35 102.5t50 73.5t70 49t77 30t91.5 15.5t92 6t97.5 0.5h5h436l-30 -156h-408q-71 0 -116.5 -3t-88.5 -13.5t-68.5 -29.5t-44.5 -51t-28 -79q-6 -29 -6.5 -59.5
t5.5 -69.5t10.5 -61.5t17 -73t16.5 -66.5h450l-24 -129h-406q6 -60 -6 -121q-62 -291 -436 -376h911l-30 -156h-1018z" />
    <glyph glyph-name="currency" unicode="&#xa4;" horiz-adv-x="1382" 
d="M711 295q-163 0 -271 94l-354 -297l-84 105l352 295q-59 103 -53 229q9 165 115 280l-209 259l108 90l209 -260q102 57 228 57q160 0 272 -94l354 297l84 -105l-354 -295q57 -105 51 -229q-9 -167 -112 -279l210 -260l-108 -90l-211 262q-100 -59 -227 -59zM449 721
q-6 -116 70 -198.5t198 -82.5t206 82.5t89 198.5q6 116 -69.5 198t-197.5 82t-206 -82t-90 -198z" />
    <glyph glyph-name="yen" unicode="&#xa5;" horiz-adv-x="1396" 
d="M1294 1444h203l-588 -787h258l-24 -127h-348l-19 -102h346l-24 -127h-348l-60 -301h-184l59 301h-352l25 127h352l20 102h-352l25 127h262l-281 787h189l270 -776z" />
    <glyph glyph-name="brokenbar" unicode="&#xa6;" horiz-adv-x="485" 
d="M262 989l148 758h145l-147 -758h-146zM12 -303l148 758h145l-147 -758h-146z" />
    <glyph glyph-name="section" unicode="&#xa7;" horiz-adv-x="1327" 
d="M557 -379q-111 0 -200.5 26t-154 76.5t-94 130.5t-16.5 183h187q-11 -73 7 -128.5t59.5 -88t97.5 -48.5t124 -16q223 0 258 176q17 82 -23.5 130.5t-148.5 93.5l-260 108q-266 111 -229 332q19 112 102 184t221 84q-167 103 -135 295q24 141 140 222t307 81
q226 0 353 -109t103 -304h-182q10 72 -8 125.5t-58.5 85.5t-95.5 47.5t-123 15.5q-222 0 -253 -172q-14 -76 24.5 -126t151.5 -99l245 -103q276 -115 238 -334q-20 -109 -100.5 -185t-212.5 -87q161 -96 127 -289q-24 -144 -139 -225.5t-312 -81.5zM350 612
q-17 -79 21.5 -135t120.5 -88l165 -70q99 -39 174 -24.5t121.5 62.5t59.5 118q25 149 -135 219l-172 70q-141 53 -236.5 7t-118.5 -159z" />
    <glyph glyph-name="dieresis" unicode="&#xa8;" horiz-adv-x="1060" 
d="M463 1178q-63 0 -102 41t-35 102q6 62 51.5 102.5t109.5 40.5q63 0 103.5 -41t36.5 -102q-6 -61 -53.5 -102t-110.5 -41zM748 1321q6 61 52 102t109 41q64 0 105 -41t35 -102t-53.5 -102t-110.5 -41t-102 41t-35 102z" />
    <glyph glyph-name="copyright" unicode="&#xa9;" horiz-adv-x="2269" 
d="M1085 -483q-161 0 -303 39t-253 111.5t-196 175t-131 229.5t-59 275t21 312q36 184 131.5 344t230 273t306 177.5t354.5 64.5q161 0 303.5 -39t253.5 -111t196 -174t131 -229t58.5 -275.5t-21.5 -312.5q-36 -185 -131 -345t-229 -273t-306 -177.5t-356 -64.5zM287 641
q-30 -145 -19.5 -276t50.5 -243.5t114 -203t170.5 -154.5t220.5 -98.5t264 -34.5q161 0 312 57.5t269.5 158.5t202 243t114.5 305q31 175 15 327.5t-84 278.5t-171.5 215.5t-248 139t-312.5 49.5q-214 0 -404 -98.5t-320 -273t-173 -392.5zM629 555q38 214 187.5 350.5
t365.5 136.5q93 0 175.5 -27t147 -77t101.5 -129.5t36 -177.5h-182q-1 123 -78.5 188.5t-201.5 65.5q-150 0 -246.5 -95t-124.5 -245q-22 -113 2 -205t100 -149.5t195 -57.5q243 0 317 258h185q-17 -87 -56 -158t-90.5 -118t-115 -78.5t-128 -45.5t-131.5 -14
q-114 0 -209 42.5t-157.5 117t-88 183.5t-3.5 235z" />
    <glyph glyph-name="guillemotleft" unicode="&#xab;" horiz-adv-x="1464" 
d="M772 39l-129 -98l-473 583l678 563l104 -112l-559 -467zM606 524l678 563l105 -112l-560 -467l379 -469l-129 -98z" />
    <glyph glyph-name="logicalnot" unicode="&#xac;" horiz-adv-x="1218" 
d="M215 750h987l-28 -146l-66 -346h-145l65 346h-840z" />
    <glyph glyph-name="registered" unicode="&#xae;" horiz-adv-x="1355" 
d="M737 547q-156 0 -266.5 68.5t-159 181.5t-35.5 254q9 105 52 196.5t112.5 159.5t170 107.5t218.5 39.5q155 0 265 -68t159 -181t37 -254q-9 -105 -52 -196.5t-112.5 -160t-170 -108t-218.5 -39.5zM383 1051q-12 -113 23.5 -204.5t121.5 -148.5t211 -57q187 0 306 118
t137 292t-76 291.5t-281 117.5q-186 0 -305 -117.5t-137 -291.5zM518 805l96 498h191q50 0 88.5 -5.5t75.5 -19.5t56 -44t15 -75q-6 -94 -86 -123q62 0 52 -61l-33 -170h-107l31 160h-242l-30 -160h-107zM676 1065h125q66 0 94.5 14t34.5 56q6 41 -20 55t-91 14h-117z" />
    <glyph glyph-name="macron" unicode="&#xaf;" horiz-adv-x="1042" 
d="M342 1407h680v-145l-680 -2v147z" />
    <glyph glyph-name="degree" unicode="&#xb0;" horiz-adv-x="991" 
d="M573 592q-188 0 -302 123.5t-105 302.5t135 302.5t315 123.5q188 0 301.5 -123.5t104.5 -302.5t-134.5 -302.5t-314.5 -123.5zM311 1018q-6 -116 70.5 -198.5t198.5 -82.5t206.5 82.5t90.5 198.5q5 117 -70.5 198.5t-198.5 81.5q-122 0 -206.5 -82t-90.5 -198z" />
    <glyph glyph-name="plusminus" unicode="&#xb1;" horiz-adv-x="1325" 
d="M217 762h422l55 293h148l-58 -293h420l-28 -146h-418l-58 -290h-145l55 290h-422zM80 47l29 146h987l-29 -146h-987z" />
    <glyph glyph-name="uni00B2" unicode="&#xb2;" horiz-adv-x="960" 
d="M262 1495q40 238 161.5 352.5t305.5 114.5q65 0 122.5 -13.5t108.5 -43t83.5 -75t47 -110t-0.5 -147.5q-21 -122 -92.5 -215t-182.5 -151t-239.5 -91t-280.5 -45h696l-24 -131h-797l47 244q23 -1 64.5 2t106.5 13t132 27.5t138 49.5t128.5 73t100 104t55.5 138
q21 110 -35.5 175t-181.5 65q-126 0 -202.5 -77.5t-110.5 -258.5h-150z" />
    <glyph glyph-name="uni00B3" unicode="&#xb3;" horiz-adv-x="972" 
d="M377 1325q-23 -146 35 -207t198 -61q128 0 191.5 45.5t72.5 138.5q17 166 -159 166h-117l23 123h155q161 0 176 139q6 79 -44.5 122.5t-174.5 43.5q-133 0 -200 -52t-84 -165h-150q20 174 135 261t309 87q181 0 275 -72.5t88 -193.5q-6 -100 -67 -163.5t-165 -78.5
q173 -45 150 -239q-17 -145 -127 -219t-291 -74q-203 0 -304.5 96.5t-72.5 302.5h148z" />
    <glyph glyph-name="acute" unicode="&#xb4;" horiz-adv-x="1015" 
d="M334 1176l-8 145l675 164l7 -146z" />
    <glyph glyph-name="paragraph" unicode="&#xb6;" horiz-adv-x="1370" 
d="M774 485q-288 10 -410.5 132t-103.5 348q24 236 181.5 357.5t471.5 121.5h193l-346 -1778h-146zM911 -334l346 1778h146l-346 -1778h-146z" />
    <glyph glyph-name="periodcentered" unicode="&#xb7;" horiz-adv-x="690" 
d="M334 334q-74 0 -120.5 50.5t-43.5 123.5q3 72 55 122t127 50q74 0 123 -50t45 -122q-3 -72 -57 -123t-129 -51z" />
    <glyph glyph-name="cedilla" unicode="&#xb8;" horiz-adv-x="774" 
d="M23 -252h16q84 0 121.5 1t82.5 7t62 19.5t19 36.5q1 20 -11 30.5t-34 10.5q-54 0 -146 -52l-55 90l104 109h164l-127 -109q67 23 121 23q59 0 96 -28t31 -87q-4 -49 -30 -83t-64 -53t-102 -29.5t-124 -13.5t-151 -3z" />
    <glyph glyph-name="uni00B9" unicode="&#xb9;" horiz-adv-x="729" 
d="M555 940l172 875l12 67q-25 -91 -57.5 -161.5t-84 -139t-130 -118.5t-182.5 -79l-25 142q155 53 240.5 157t120.5 269h282l-196 -1012h-152z" />
    <glyph glyph-name="guillemotright" unicode="&#xbb;" horiz-adv-x="1464" 
d="M694 989l129 98l473 -583l-678 -563l-104 112l559 467zM76 53l559 467l-379 469l129 98l473 -583l-678 -563z" />
    <glyph glyph-name="onequarter" unicode="&#xbc;" horiz-adv-x="2103" 
d="M457 428l172 875l12 67q-25 -91 -57.5 -161.5t-84.5 -139t-130.5 -118.5t-182.5 -79l-24 142q155 52 240 156.5t120 269.5h283l-197 -1012h-151zM496 37l1005 1417l119 -61l-1006 -1418zM1176 207l49 254q191 65 335 209t201 342h152q-137 -478 -656 -674h469l64 324h152
l-64 -324h123l-27 -131h-121l-41 -207h-151l41 207h-526z" />
    <glyph glyph-name="onehalf" unicode="&#xbd;" horiz-adv-x="2281" 
d="M457 428l172 875l12 67q-25 -91 -57.5 -161.5t-84.5 -139t-130.5 -118.5t-182.5 -79l-24 142q155 52 240 156.5t120 269.5h283l-197 -1012h-151zM496 37l1005 1417l119 -61l-1006 -1418zM1309 0l47 244q23 -1 64.5 2t106.5 13t132 27.5t138 49.5t128.5 73t100 104
t55.5 138q21 110 -35.5 175t-181.5 65q-126 0 -203 -78t-111 -258h-149q40 238 161.5 352.5t305.5 114.5q82 0 151.5 -22t124 -67t78 -122.5t6.5 -177.5q-21 -122 -92.5 -215t-182 -151t-239 -91t-280.5 -45h696l-25 -131h-796z" />
    <glyph glyph-name="threequarters" unicode="&#xbe;" horiz-adv-x="2316" 
d="M279 817q-23 -146 35 -207t198 -61q128 0 191.5 45.5t72.5 138.5q17 166 -160 166h-116l22 123h156q161 0 176 139q6 79 -44.5 122.5t-174.5 43.5q-133 0 -200.5 -52t-84.5 -165h-149q20 174 135 261t309 87q181 0 275 -72.5t88 -193.5q-6 -100 -67 -163.5t-165 -78.5
q173 -45 150 -239q-17 -145 -127 -219t-291 -74q-203 0 -304.5 96.5t-72.5 302.5h148zM709 37l1005 1417l119 -61l-1006 -1418zM1389 207l49 254q191 65 335 209t201 342h152q-137 -478 -656 -674h469l64 324h151l-63 -324h123l-27 -131h-121l-41 -207h-151l41 207h-526z
" />
    <glyph glyph-name="questiondown" unicode="&#xbf;" horiz-adv-x="915" 
d="M537 1038q74 0 120 -50.5t43 -123.5q-3 -72 -55 -122t-127 -50q-74 0 -123 50t-45 122q3 72 57.5 123t129.5 51zM-98 -94q64 370 723 471h-498l25 131h610l-49 -246q-75 -5 -147.5 -16t-161.5 -37t-157 -63t-121 -98t-67 -138q-19 -107 43 -173.5t195 -66.5
q275 0 336 301h155q-71 -432 -505 -432q-111 0 -193 30t-126 81.5t-59.5 116.5t-2.5 139z" />
    <glyph glyph-name="Agrave" unicode="&#xc0;" horiz-adv-x="1429" 
d="M-43 0l776 1444h334l207 -1444h-189l-79 553h-555l-297 -553h-197zM537 713h446l-94 659zM629 1774l59 131l610 -164l-59 -131z" />
    <glyph glyph-name="Aacute" unicode="&#xc1;" horiz-adv-x="1429" 
d="M-43 0l776 1444h334l207 -1444h-189l-79 553h-555l-297 -553h-197zM537 713h446l-94 659zM612 1747l676 164l6 -146l-673 -163z" />
    <glyph glyph-name="Acircumflex" unicode="&#xc2;" horiz-adv-x="1429" 
d="M-43 0l776 1444h334l207 -1444h-189l-79 553h-555l-297 -553h-197zM537 713h446l-94 659zM602 1679l385 267l297 -281l-119 -94l-198 192l-275 -192z" />
    <glyph glyph-name="Atilde" unicode="&#xc3;" horiz-adv-x="1429" 
d="M-43 0l776 1444h334l207 -1444h-189l-79 553h-555l-297 -553h-197zM537 713h446l-94 659zM557 1634q43 289 250 289q48 0 89 -17t68 -41t50 -48t47.5 -41t48.5 -17q40 0 67.5 30t43.5 114h145q-43 -289 -250 -289q-48 0 -89 17t-68 41t-50 48t-47.5 41t-48.5 17
q-40 0 -67.5 -30t-43.5 -114h-145z" />
    <glyph glyph-name="Adieresis" unicode="&#xc4;" horiz-adv-x="1429" 
d="M-43 0l776 1444h334l207 -1444h-189l-79 553h-555l-297 -553h-197zM537 713h446l-94 659zM596 1747q6 62 52 102.5t110 40.5q63 0 103 -41t36 -102q-6 -61 -53.5 -102t-110.5 -41t-102 41t-35 102zM1018 1747q6 61 52.5 102t109.5 41q64 0 104.5 -41t34.5 -102
t-53.5 -102t-110.5 -41t-102 41t-35 102z" />
    <glyph glyph-name="Aring" unicode="&#xc5;" horiz-adv-x="1429" 
d="M-43 0l776 1444h334l207 -1444h-189l-79 553h-555l-297 -553h-197zM537 713h446l-94 659zM649 1796q0 95 66 159t182 64t183 -64t67 -159t-67 -160t-183 -65t-182 64.5t-66 160.5zM791 1796q0 -45 27 -70.5t79 -25.5q53 0 81 25.5t28 70.5q0 43 -28.5 67.5t-80.5 24.5
t-79 -24.5t-27 -67.5z" />
    <glyph glyph-name="AE" unicode="&#xc6;" horiz-adv-x="2131" 
d="M-111 0l1137 1444h176l-10 -51l10 51h1004l-31 -160h-819l-94 -483h716l-30 -156h-715l-96 -485h817l-31 -160h-1003l108 559h-485l-441 -559h-213zM668 717h393l129 661z" />
    <glyph glyph-name="Ccedilla" unicode="&#xc7;" horiz-adv-x="1593" 
d="M764 -23h-12l-101 -86q67 23 121 23q59 0 96 -28t31 -87q-4 -49 -30 -83t-64 -53t-102 -29.5t-124 -13.5t-151 -3l27 131h16q84 0 121.5 1t82.5 7t62 19.5t19 36.5q1 20 -11 30.5t-34 10.5q-54 0 -146 -52l-55 90l98 103q-242 50 -360.5 249t-85.5 480q24 212 123 379.5
t267 265.5t378 98q277 0 435.5 -155.5t160.5 -423.5h-189q0 200 -108.5 309t-310.5 109q-238 0 -387 -159t-181 -421q-22 -175 17.5 -305.5t143 -205.5t263.5 -75q204 0 339 110t185 310h189q-62 -271 -254.5 -426.5t-468.5 -155.5z" />
    <glyph glyph-name="Egrave" unicode="&#xc8;" horiz-adv-x="1259" 
d="M49 0l283 1444h1003l-30 -160h-820l-94 -483h717l-31 -156h-715l-96 -485h817l-30 -160h-1004zM518 1774l60 131l610 -164l-60 -131z" />
    <glyph glyph-name="Eacute" unicode="&#xc9;" horiz-adv-x="1259" 
d="M49 0l283 1444h1003l-30 -160h-820l-94 -483h717l-31 -156h-715l-96 -485h817l-30 -160h-1004zM502 1747l676 164l6 -146l-674 -163z" />
    <glyph glyph-name="Ecircumflex" unicode="&#xca;" horiz-adv-x="1259" 
d="M49 0l283 1444h1003l-30 -160h-820l-94 -483h717l-31 -156h-715l-96 -485h817l-30 -160h-1004zM492 1679l385 267l297 -281l-119 -94l-199 192l-274 -192z" />
    <glyph glyph-name="Edieresis" unicode="&#xcb;" horiz-adv-x="1259" 
d="M49 0l283 1444h1003l-30 -160h-820l-94 -483h717l-31 -156h-715l-96 -485h817l-30 -160h-1004zM485 1747q6 62 52 102.5t110 40.5q63 0 103 -41t36 -102q-6 -61 -53 -102t-110 -41t-102.5 41t-35.5 102zM907 1747q6 61 52.5 102t109.5 41q64 0 104.5 -41t34.5 -102
t-53.5 -102t-110.5 -41t-102 41t-35 102z" />
    <glyph glyph-name="Igrave" unicode="&#xcc;" horiz-adv-x="1085" 
d="M309 1444h832l-31 -160h-324l-221 -1124h326l-33 -160h-831l30 160h324l221 1124h-323zM455 1774l59 131l610 -164l-59 -131z" />
    <glyph glyph-name="Iacute" unicode="&#xcd;" horiz-adv-x="1085" 
d="M309 1444h832l-31 -160h-324l-221 -1124h326l-33 -160h-831l30 160h324l221 1124h-323zM438 1747l676 164l6 -146l-674 -163z" />
    <glyph glyph-name="Icircumflex" unicode="&#xce;" horiz-adv-x="1085" 
d="M309 1444h832l-31 -160h-324l-221 -1124h326l-33 -160h-831l30 160h324l221 1124h-323zM428 1679l385 267l297 -281l-119 -94l-198 192l-275 -192z" />
    <glyph glyph-name="Idieresis" unicode="&#xcf;" horiz-adv-x="1085" 
d="M309 1444h832l-31 -160h-324l-221 -1124h326l-33 -160h-831l30 160h324l221 1124h-323zM422 1747q6 62 52 102.5t110 40.5q63 0 103 -41t36 -102q-6 -61 -53.5 -102t-110.5 -41t-102 41t-35 102zM844 1747q6 61 52.5 102t109.5 41q64 0 104.5 -41t34.5 -102t-53.5 -102
t-110.5 -41t-102 41t-35 102z" />
    <glyph glyph-name="Eth" unicode="&#xd0;" horiz-adv-x="1503" 
d="M80 0l127 647h-178l26 148h181l126 649h185l-127 -649h358l-28 -148h-359l-127 -647h-184zM264 0l33 160h309q63 0 111.5 3.5t110 17t108 36.5t97 65.5t86.5 100.5t66 144.5t46 195.5q12 85 12 156t-10 124.5t-32 96t-48 71.5t-63 50t-72 33t-81 19t-83.5 9t-85.5 2h-252
l31 160h235q118 0 211 -14.5t187.5 -61t151.5 -123t83 -209.5t2 -313q-17 -130 -53.5 -236t-83.5 -180t-111 -130t-129 -89t-144.5 -53.5t-150.5 -27.5t-153 -7h-328z" />
    <glyph glyph-name="Ntilde" unicode="&#xd1;" horiz-adv-x="1562" 
d="M49 0l283 1444h340l471 -1376l22 112l246 1264h186l-282 -1444h-340l-471 1376l-23 -112l-248 -1264h-184zM664 1634q43 289 249 289q48 0 89 -17t68 -41t50.5 -48t48 -41t48.5 -17q39 0 66.5 29.5t43.5 114.5h146q-43 -289 -250 -289q-48 0 -89 17t-68 41t-50 48
t-47.5 41t-48.5 17q-40 0 -67.5 -30t-43.5 -114h-145z" />
    <glyph glyph-name="Ograve" unicode="&#xd2;" horiz-adv-x="1605" 
d="M164 723q19 212 115 379.5t262.5 265.5t376.5 98q156 0 279.5 -57t199.5 -156.5t110 -235.5t19 -294q-15 -159 -74.5 -295.5t-155 -236.5t-230.5 -157t-292 -57t-280.5 57t-200 157t-110.5 236.5t-19 295.5zM352 723q-19 -173 20 -302.5t143.5 -205.5t266.5 -76
q241 0 383.5 159.5t171.5 424.5q19 172 -19.5 301t-142.5 205t-266 76t-283 -76t-188 -205t-86 -301zM717 1774l59 131l610 -164l-59 -131z" />
    <glyph glyph-name="Oacute" unicode="&#xd3;" horiz-adv-x="1605" 
d="M164 723q19 212 115 379.5t262.5 265.5t376.5 98q156 0 279.5 -57t199.5 -156.5t110 -235.5t19 -294q-15 -159 -74.5 -295.5t-155 -236.5t-230.5 -157t-292 -57t-280.5 57t-200 157t-110.5 236.5t-19 295.5zM352 723q-19 -173 20 -302.5t143.5 -205.5t266.5 -76
q241 0 383.5 159.5t171.5 424.5q19 172 -19.5 301t-142.5 205t-266 76t-283 -76t-188 -205t-86 -301zM700 1747l676 164l6 -146l-673 -163z" />
    <glyph glyph-name="Ocircumflex" unicode="&#xd4;" horiz-adv-x="1605" 
d="M164 723q19 212 115 379.5t262.5 265.5t376.5 98q156 0 279.5 -57t199.5 -156.5t110 -235.5t19 -294q-15 -159 -74.5 -295.5t-155 -236.5t-230.5 -157t-292 -57t-280.5 57t-200 157t-110.5 236.5t-19 295.5zM352 723q-19 -173 20 -302.5t143.5 -205.5t266.5 -76
q241 0 383.5 159.5t171.5 424.5q19 172 -19.5 301t-142.5 205t-266 76t-283 -76t-188 -205t-86 -301zM690 1679l385 267l297 -281l-119 -94l-198 192l-275 -192z" />
    <glyph glyph-name="Otilde" unicode="&#xd5;" horiz-adv-x="1605" 
d="M164 723q19 212 115 379.5t262.5 265.5t376.5 98q156 0 279.5 -57t199.5 -156.5t110 -235.5t19 -294q-15 -159 -74.5 -295.5t-155 -236.5t-230.5 -157t-292 -57t-280.5 57t-200 157t-110.5 236.5t-19 295.5zM352 723q-19 -173 20 -302.5t143.5 -205.5t266.5 -76
q241 0 383.5 159.5t171.5 424.5q19 172 -19.5 301t-142.5 205t-266 76t-283 -76t-188 -205t-86 -301zM645 1634q43 289 250 289q48 0 89 -17t68 -41t50 -48t47.5 -41t48.5 -17q40 0 67.5 30t43.5 114h145q-43 -289 -250 -289q-48 0 -89 17t-68 41t-50 48t-47.5 41t-48.5 17
q-39 0 -66.5 -29.5t-43.5 -114.5h-146z" />
    <glyph glyph-name="Odieresis" unicode="&#xd6;" horiz-adv-x="1605" 
d="M164 723q19 212 115 379.5t262.5 265.5t376.5 98q156 0 279.5 -57t199.5 -156.5t110 -235.5t19 -294q-15 -159 -74.5 -295.5t-155 -236.5t-230.5 -157t-292 -57t-280.5 57t-200 157t-110.5 236.5t-19 295.5zM352 723q-19 -173 20 -302.5t143.5 -205.5t266.5 -76
q241 0 383.5 159.5t171.5 424.5q19 172 -19.5 301t-142.5 205t-266 76t-283 -76t-188 -205t-86 -301zM684 1747q6 62 52 102.5t110 40.5q63 0 103 -41t36 -102q-6 -61 -53.5 -102t-110.5 -41t-102 41t-35 102zM1106 1747q6 61 52.5 102t109.5 41q64 0 104.5 -41t34.5 -102
t-53.5 -102t-110.5 -41t-102 41t-35 102z" />
    <glyph glyph-name="multiply" unicode="&#xd7;" horiz-adv-x="1144" 
d="M344 913l240 -295l356 300l94 -115l-358 -299l239 -295l-112 -94l-238 297l-358 -299l-92 112l358 299l-240 297z" />
    <glyph glyph-name="Oslash" unicode="&#xd8;" horiz-adv-x="1619" 
d="M164 723q19 212 115 379.5t262.5 265.5t376.5 98q201 0 348 -94l153 199l113 -74l-164 -211q92 -101 132.5 -246t25.5 -317q-15 -159 -74.5 -295.5t-155 -236.5t-230.5 -157t-292 -57q-201 0 -346 93l-154 -199l-110 74l162 209q-95 100 -136 247t-26 322zM352 723
q-28 -273 82 -428l729 944q-106 66 -254 66q-162 0 -283 -76t-188 -205t-86 -301zM532 205q101 -66 250 -66q241 0 383.5 159.5t171.5 424.5q29 270 -77 422z" />
    <glyph glyph-name="Ugrave" unicode="&#xd9;" horiz-adv-x="1380" 
d="M123 586l170 858h184l-164 -842q-46 -233 31 -348t305 -115q108 0 184.5 25.5t127.5 79.5t81.5 127t51.5 180l174 893h186l-184 -948q-51 -258 -202 -388.5t-425 -130.5q-298 0 -438 153.5t-82 455.5zM602 1774l60 131l610 -164l-60 -131z" />
    <glyph glyph-name="Uacute" unicode="&#xda;" horiz-adv-x="1380" 
d="M123 586l170 858h184l-164 -842q-46 -233 31 -348t305 -115q108 0 184.5 25.5t127.5 79.5t81.5 127t51.5 180l174 893h186l-184 -948q-51 -258 -202 -388.5t-425 -130.5q-298 0 -438 153.5t-82 455.5zM586 1747l676 164l6 -146l-674 -163z" />
    <glyph glyph-name="Ucircumflex" unicode="&#xdb;" horiz-adv-x="1380" 
d="M123 586l170 858h184l-164 -842q-46 -233 31 -348t305 -115q108 0 184.5 25.5t127.5 79.5t81.5 127t51.5 180l174 893h186l-184 -948q-51 -258 -202 -388.5t-425 -130.5q-298 0 -438 153.5t-82 455.5zM575 1679l386 267l296 -281l-118 -94l-199 192l-274 -192z" />
    <glyph glyph-name="Udieresis" unicode="&#xdc;" horiz-adv-x="1380" 
d="M123 586l170 858h184l-164 -842q-46 -233 31 -348t305 -115q108 0 184.5 25.5t127.5 79.5t81.5 127t51.5 180l174 893h186l-184 -948q-51 -258 -202 -388.5t-425 -130.5q-298 0 -438 153.5t-82 455.5zM569 1747q6 62 52 102.5t110 40.5q63 0 103 -41t36 -102
q-6 -61 -53 -102t-110 -41t-102.5 41t-35.5 102zM991 1747q6 61 52.5 102t109.5 41q64 0 104.5 -41t34.5 -102t-53.5 -102t-110.5 -41t-102 41t-35 102z" />
    <glyph glyph-name="Yacute" unicode="&#xdd;" horiz-adv-x="1361" 
d="M1276 1444h203l-625 -836h-61l-121 -608h-185l119 608h-61l-299 836h188l271 -776zM575 1747l676 164l6 -146l-673 -163z" />
    <glyph glyph-name="Thorn" unicode="&#xde;" horiz-adv-x="1275" 
d="M49 0l283 1444h184l-47 -246h199q118 0 207.5 -14.5t161 -48t113.5 -88t58.5 -137t3.5 -191.5q-17 -136 -67.5 -229t-136.5 -147t-196 -77.5t-259 -23.5h-272l-48 -242h-184zM311 401h258q78 0 136.5 7t116 27.5t96.5 55.5t68 92.5t40 137.5q9 45 6.5 81.5t-8 66.5
t-21.5 53.5t-33 41t-44 30.5t-54 21.5t-62.5 13.5t-70.5 7t-77 2h-226z" />
    <glyph glyph-name="germandbls" unicode="&#xdf;" horiz-adv-x="1150" 
d="M344 0l31 156l256 2q127 2 189.5 41t80.5 135q10 32 6.5 63.5t-8.5 52.5t-20 43.5t-28 37.5t-34 34l-78 66q-4 3 -19.5 17.5t-19.5 18.5t-16.5 17t-16 19t-12 19t-10 23t-4.5 24t-2 28.5t4 31.5q6 31 16.5 54.5t31 44.5t34 32t43.5 33l76 56q70 51 86 127q18 96 -39 146
t-162 50q-115 0 -184.5 -60.5t-95.5 -191.5l-220 -1120h-180l223 1151q75 377 457 377q92 0 168 -21t131 -62t78.5 -108t7.5 -153q-26 -125 -125 -197l-78 -55q-41 -28 -61 -48.5t-25 -49.5q-4 -22 3.5 -42.5t15.5 -29.5t33 -31t32 -29l68 -65q19 -19 32 -33.5t30 -37
t26.5 -47t16.5 -55.5t6 -69.5t-9 -81.5q-17 -90 -58.5 -153t-105.5 -97t-137 -48.5t-168 -14.5h-266z" />
    <glyph glyph-name="agrave" unicode="&#xe0;" horiz-adv-x="1226" 
d="M63 279q13 269 357 301l446 38q15 138 -48.5 206.5t-194.5 68.5q-118 0 -186.5 -56.5t-100.5 -181.5h-180q39 179 161.5 282t311.5 103q108 0 192.5 -32.5t140.5 -96t75.5 -158t-3.5 -218.5l-73 -379h149l-29 -156h-186q-59 0 -85.5 32.5t-14.5 90.5l8 49l16 78
q-23 -46 -47 -82t-61 -72.5t-80 -61t-104 -39.5t-134 -15q-87 0 -151 21.5t-98 52.5t-54 74.5t-24.5 78.5t-2.5 72zM248 307q-13 -89 36.5 -133.5t143.5 -44.5q156 0 272 103.5t144 256.5l-389 -38q-99 -9 -148 -41t-59 -103zM418 1348l59 131l610 -164l-59 -131z" />
    <glyph glyph-name="aacute" unicode="&#xe1;" horiz-adv-x="1226" 
d="M63 279q13 269 357 301l446 38q15 138 -48.5 206.5t-194.5 68.5q-118 0 -186.5 -56.5t-100.5 -181.5h-180q39 179 161.5 282t311.5 103q108 0 192.5 -32.5t140.5 -96t75.5 -158t-3.5 -218.5l-73 -379h149l-29 -156h-186q-59 0 -85.5 32.5t-14.5 90.5l8 49l16 78
q-23 -46 -47 -82t-61 -72.5t-80 -61t-104 -39.5t-134 -15q-87 0 -151 21.5t-98 52.5t-54 74.5t-24.5 78.5t-2.5 72zM248 307q-13 -89 36.5 -133.5t143.5 -44.5q156 0 272 103.5t144 256.5l-389 -38q-99 -9 -148 -41t-59 -103zM401 1321l676 164l6 -146l-673 -163z" />
    <glyph glyph-name="acircumflex" unicode="&#xe2;" horiz-adv-x="1226" 
d="M63 279q13 269 357 301l446 38q15 138 -48.5 206.5t-194.5 68.5q-118 0 -186.5 -56.5t-100.5 -181.5h-180q39 179 161.5 282t311.5 103q108 0 192.5 -32.5t140.5 -96t75.5 -158t-3.5 -218.5l-73 -379h149l-29 -156h-186q-59 0 -85.5 32.5t-14.5 90.5l8 49l16 78
q-23 -46 -47 -82t-61 -72.5t-80 -61t-104 -39.5t-134 -15q-87 0 -151 21.5t-98 52.5t-54 74.5t-24.5 78.5t-2.5 72zM248 307q-13 -89 36.5 -133.5t143.5 -44.5q156 0 272 103.5t144 256.5l-389 -38q-99 -9 -148 -41t-59 -103zM391 1253l385 267l297 -281l-119 -94l-198 192
l-275 -192z" />
    <glyph glyph-name="atilde" unicode="&#xe3;" horiz-adv-x="1226" 
d="M63 279q13 269 357 301l446 38q15 138 -48.5 206.5t-194.5 68.5q-118 0 -186.5 -56.5t-100.5 -181.5h-180q39 179 161.5 282t311.5 103q108 0 192.5 -32.5t140.5 -96t75.5 -158t-3.5 -218.5l-73 -379h149l-29 -156h-186q-59 0 -85.5 32.5t-14.5 90.5l8 49l16 78
q-23 -46 -47 -82t-61 -72.5t-80 -61t-104 -39.5t-134 -15q-87 0 -151 21.5t-98 52.5t-54 74.5t-24.5 78.5t-2.5 72zM248 307q-13 -89 36.5 -133.5t143.5 -44.5q156 0 272 103.5t144 256.5l-389 -38q-99 -9 -148 -41t-59 -103zM346 1208q43 289 250 289q48 0 89 -17t68 -41
t50 -48t47.5 -41t48.5 -17q40 0 67.5 30t43.5 114h145q-43 -289 -250 -289q-48 0 -89 17t-68 41t-50 48t-47.5 41t-48.5 17q-39 0 -66.5 -29.5t-43.5 -114.5h-146z" />
    <glyph glyph-name="adieresis" unicode="&#xe4;" horiz-adv-x="1226" 
d="M63 279q13 269 357 301l446 38q15 138 -48.5 206.5t-194.5 68.5q-118 0 -186.5 -56.5t-100.5 -181.5h-180q39 179 161.5 282t311.5 103q108 0 192.5 -32.5t140.5 -96t75.5 -158t-3.5 -218.5l-73 -379h149l-29 -156h-186q-59 0 -85.5 32.5t-14.5 90.5l8 49l16 78
q-23 -46 -47 -82t-61 -72.5t-80 -61t-104 -39.5t-134 -15q-87 0 -151 21.5t-98 52.5t-54 74.5t-24.5 78.5t-2.5 72zM248 307q-13 -89 36.5 -133.5t143.5 -44.5q156 0 272 103.5t144 256.5l-389 -38q-99 -9 -148 -41t-59 -103zM385 1321q6 62 52 102.5t110 40.5q63 0 103 -41
t36 -102q-6 -61 -53.5 -102t-110.5 -41t-102 41t-35 102zM807 1321q6 61 52.5 102t109.5 41q64 0 104.5 -41t34.5 -102t-53.5 -102t-110.5 -41t-102 41t-35 102z" />
    <glyph glyph-name="aring" unicode="&#xe5;" horiz-adv-x="1226" 
d="M63 279q13 269 357 301l446 38q15 138 -48.5 206.5t-194.5 68.5q-118 0 -186.5 -56.5t-100.5 -181.5h-180q39 179 161.5 282t311.5 103q108 0 192.5 -32.5t140.5 -96t75.5 -158t-3.5 -218.5l-73 -379h149l-29 -156h-186q-59 0 -85.5 32.5t-14.5 90.5l8 49l16 78
q-23 -46 -47 -82t-61 -72.5t-80 -61t-104 -39.5t-134 -15q-87 0 -151 21.5t-98 52.5t-54 74.5t-24.5 78.5t-2.5 72zM248 307q-13 -89 36.5 -133.5t143.5 -44.5q156 0 272 103.5t144 256.5l-389 -38q-99 -9 -148 -41t-59 -103zM438 1370q0 95 66 159t182 64t183 -64t67 -159
t-67 -160t-183 -65t-182 64.5t-66 160.5zM580 1370q0 -45 27 -70.5t79 -25.5q53 0 81 25.5t28 70.5q0 43 -28.5 67.5t-80.5 24.5t-79 -24.5t-27 -67.5z" />
    <glyph glyph-name="ae" unicode="&#xe6;" horiz-adv-x="1957" 
d="M66 283q13 265 356 297l446 38q15 138 -48.5 206.5t-194.5 68.5q-119 0 -189 -56.5t-102 -181.5h-176q39 179 160.5 282t310.5 103q127 0 222.5 -45.5t147.5 -132.5q150 176 408 176q230 0 348.5 -131t91.5 -366l-8 -66h-807q-16 -157 53.5 -253.5t221.5 -96.5
q126 0 213.5 61t128.5 170h180q-19 -59 -48.5 -111.5t-75 -102t-102.5 -84.5t-135 -56.5t-168 -21.5q-168 0 -274 76t-147 210q-34 -64 -74.5 -113t-97.5 -89.5t-135 -62t-175 -21.5q-87 0 -151.5 21.5t-99 53t-54 75t-24 79.5t-2.5 74zM250 305q-12 -86 36 -131t144 -45
q156 0 272 103.5t144 256.5l-389 -38q-100 -9 -149 -42t-58 -104zM1051 604h628q7 137 -68 214t-212 77q-128 0 -223 -77.5t-125 -213.5z" />
    <glyph glyph-name="ccedilla" unicode="&#xe7;" horiz-adv-x="1214" 
d="M111 553q38 214 187.5 350.5t365.5 136.5q93 0 175.5 -27t147 -77t101.5 -129.5t36 -177.5h-182q-1 123 -78.5 188.5t-201.5 65.5q-150 0 -246.5 -95t-124.5 -245q-22 -113 2 -205t100 -149.5t195 -57.5q243 0 317 258h185q-17 -87 -56 -158t-90.5 -118t-115 -78.5
t-128 -45.5t-131.5 -14h-10l-98 -84q67 23 121 23q59 0 96 -28t31 -87q-4 -49 -30 -83t-64 -53t-102 -29.5t-124 -13.5t-151 -3l26 131h16q84 0 121.5 1t82.5 7t62 19.5t19 36.5q1 20 -11 30.5t-34 10.5q-53 0 -145 -52l-56 90l101 105q-171 49 -258.5 199t-50.5 358z" />
    <glyph glyph-name="egrave" unicode="&#xe8;" horiz-adv-x="1204" 
d="M1112 1315l-59 -131l-611 164l60 131zM106 522q29 244 177 380t370 136q230 0 349 -131t92 -366l-9 -66h-806q-16 -157 53 -253.5t221 -96.5q126 0 213.5 61t128.5 170h180q-24 -75 -65.5 -139t-104 -119t-154.5 -86.5t-204 -31.5q-122 0 -214 42t-145 116t-74 172
t-8 212zM297 604h629q7 137 -68 214t-213 77q-128 0 -223 -77.5t-125 -213.5z" />
    <glyph glyph-name="eacute" unicode="&#xe9;" horiz-adv-x="1204" 
d="M434 1176l-8 145l676 164l6 -146zM106 522q29 244 177 380t370 136q230 0 349 -131t92 -366l-9 -66h-806q-16 -157 53 -253.5t221 -96.5q126 0 213.5 61t128.5 170h180q-24 -75 -65.5 -139t-104 -119t-154.5 -86.5t-204 -31.5q-122 0 -214 42t-145 116t-74 172t-8 212z
M297 604h629q7 137 -68 214t-213 77q-128 0 -223 -77.5t-125 -213.5z" />
    <glyph glyph-name="ecircumflex" unicode="&#xea;" horiz-adv-x="1204" 
d="M1098 1239l-119 -94l-199 192l-274 -192l-90 108l385 267zM106 522q29 244 177 380t370 136q230 0 349 -131t92 -366l-9 -66h-806q-16 -157 53 -253.5t221 -96.5q126 0 213.5 61t128.5 170h180q-24 -75 -65.5 -139t-104 -119t-154.5 -86.5t-204 -31.5q-122 0 -214 42
t-145 116t-74 172t-8 212zM297 604h629q7 137 -68 214t-213 77q-128 0 -223 -77.5t-125 -213.5z" />
    <glyph glyph-name="edieresis" unicode="&#xeb;" horiz-adv-x="1204" 
d="M547 1178q-63 0 -102 41t-35 102q6 62 51.5 102.5t109.5 40.5q63 0 103.5 -41t36.5 -102q-6 -61 -53.5 -102t-110.5 -41zM106 522q29 244 177 380t370 136q230 0 349 -131t92 -366l-9 -66h-806q-16 -157 53 -253.5t221 -96.5q126 0 213.5 61t128.5 170h180
q-24 -75 -65.5 -139t-104 -119t-154.5 -86.5t-204 -31.5q-122 0 -214 42t-145 116t-74 172t-8 212zM297 604h629q7 137 -68 214t-213 77q-128 0 -223 -77.5t-125 -213.5zM831 1321q6 61 52.5 102t109.5 41q64 0 105 -41t35 -102t-53.5 -102t-110.5 -41t-102.5 41t-35.5 102z
" />
    <glyph glyph-name="igrave" unicode="&#xec;" horiz-adv-x="907" 
d="M8 0l31 156h283l137 706h-211l31 156h262q58 0 81 -28.5t11 -90.5l-144 -743h285l-31 -156h-735zM283 1348l59 131l610 -164l-59 -131z" />
    <glyph glyph-name="iacute" unicode="&#xed;" horiz-adv-x="907" 
d="M8 0l31 156h283l137 706h-211l31 156h262q58 0 81 -28.5t11 -90.5l-144 -743h285l-31 -156h-735zM266 1321l676 164l6 -146l-674 -163z" />
    <glyph glyph-name="icircumflex" unicode="&#xee;" horiz-adv-x="919" 
d="M16 0l31 156h283l137 706h-211l31 156h262q58 0 81 -28.5t11 -90.5l-143 -743h284l-30 -156h-736zM258 1253l385 267l297 -281l-119 -94l-198 192l-275 -192z" />
    <glyph glyph-name="idieresis" unicode="&#xef;" horiz-adv-x="921" 
d="M16 0l31 156h283l137 706h-211l31 156h262q58 0 81 -28.5t11 -90.5l-143 -743h284l-30 -156h-736zM250 1321q6 62 52 102.5t110 40.5q63 0 103 -41t36 -102q-6 -61 -53.5 -102t-110.5 -41t-102 41t-35 102zM672 1321q6 61 52.5 102t109.5 41q64 0 104.5 -41t34.5 -102
t-53.5 -102t-110.5 -41t-102 41t-35 102z" />
    <glyph glyph-name="eth" unicode="&#xf0;" horiz-adv-x="1327" 
d="M618 -20q-122 0 -226 43.5t-174.5 120t-99.5 190t-3 244.5q39 209 182.5 334.5t359.5 125.5q190 0 315 -95t156 -263l2 22q12 160 -55.5 293.5t-200.5 225.5l-233 -113l-88 98l186 90q-121 53 -266 74l29 156q242 -30 422 -142l276 134l86 -99l-250 -121
q131 -124 185.5 -303t17.5 -403q-46 -285 -211.5 -448.5t-409.5 -163.5zM293 565q-20 -105 -1.5 -185t68 -134t120 -81.5t153.5 -27.5q156 0 261.5 91t137.5 237q36 183 -65 299.5t-289 116.5q-155 0 -254 -81.5t-131 -234.5z" />
    <glyph glyph-name="ntilde" unicode="&#xf1;" horiz-adv-x="1243" 
d="M45 0l199 1018h180l-25 -129l-22 -107q63 123 167 189.5t242 66.5q205 0 295 -124t49 -345l-108 -569h-182l108 565q31 163 -27 240.5t-208 77.5q-149 0 -254 -110.5t-142 -301.5l-90 -471h-182zM428 1208q43 289 250 289q48 0 89 -17t68 -41t50 -48t47.5 -41t48.5 -17
q40 0 67.5 30t43.5 114h145q-43 -289 -250 -289q-48 0 -89 17t-68 41t-50 48t-47.5 41t-48.5 17q-40 0 -67.5 -30t-43.5 -114h-145z" />
    <glyph glyph-name="ograve" unicode="&#xf2;" horiz-adv-x="1296" 
d="M106 510q15 229 175 378.5t401 149.5q239 0 380 -150t126 -378q-14 -230 -173 -380t-399 -150t-382 150t-128 380zM289 510q-9 -162 80 -268.5t258 -106.5q167 0 268.5 106.5t112.5 268.5q9 160 -80 266.5t-256 106.5q-169 0 -271.5 -106.5t-111.5 -266.5zM477 1348
l60 131l610 -164l-60 -131z" />
    <glyph glyph-name="oacute" unicode="&#xf3;" horiz-adv-x="1296" 
d="M106 510q15 229 175 378.5t401 149.5q239 0 380 -150t126 -378q-14 -230 -173 -380t-399 -150t-382 150t-128 380zM289 510q-9 -162 80 -268.5t258 -106.5q167 0 268.5 106.5t112.5 268.5q9 160 -80 266.5t-256 106.5q-169 0 -271.5 -106.5t-111.5 -266.5zM461 1321
l676 164l6 -146l-674 -163z" />
    <glyph glyph-name="ocircumflex" unicode="&#xf4;" horiz-adv-x="1296" 
d="M106 510q15 229 175 378.5t401 149.5q239 0 380 -150t126 -378q-14 -230 -173 -380t-399 -150t-382 150t-128 380zM289 510q-9 -162 80 -268.5t258 -106.5q167 0 268.5 106.5t112.5 268.5q9 160 -80 266.5t-256 106.5q-169 0 -271.5 -106.5t-111.5 -266.5zM451 1253
l385 267l297 -281l-119 -94l-199 192l-274 -192z" />
    <glyph glyph-name="otilde" unicode="&#xf5;" horiz-adv-x="1296" 
d="M106 510q15 229 175 378.5t401 149.5q239 0 380 -150t126 -378q-14 -230 -173 -380t-399 -150t-382 150t-128 380zM289 510q-9 -162 80 -268.5t258 -106.5q167 0 268.5 106.5t112.5 268.5q9 160 -80 266.5t-256 106.5q-169 0 -271.5 -106.5t-111.5 -266.5zM406 1208
q43 289 249 289q48 0 89 -17t68 -41t50 -48t47.5 -41t48.5 -17q40 0 67.5 30t43.5 114h145q-43 -289 -249 -289q-48 0 -89 17t-68 41t-50 48t-47.5 41t-48.5 17q-40 0 -67.5 -30t-43.5 -114h-145z" />
    <glyph glyph-name="odieresis" unicode="&#xf6;" horiz-adv-x="1296" 
d="M106 510q15 229 175 378.5t401 149.5q239 0 380 -150t126 -378q-14 -230 -173 -380t-399 -150t-382 150t-128 380zM289 510q-9 -162 80 -268.5t258 -106.5q167 0 268.5 106.5t112.5 268.5q9 160 -80 266.5t-256 106.5q-169 0 -271.5 -106.5t-111.5 -266.5zM444 1321
q6 62 52 102.5t110 40.5q63 0 103 -41t36 -102q-6 -61 -53 -102t-110 -41t-102.5 41t-35.5 102zM866 1321q6 61 52.5 102t109.5 41q64 0 104.5 -41t34.5 -102t-53 -102t-110 -41t-102.5 41t-35.5 102z" />
    <glyph glyph-name="divide" unicode="&#xf7;" horiz-adv-x="1325" 
d="M184 592h990l-29 -148h-987zM414 135q3 71 56.5 121.5t127.5 50.5q73 0 122 -50.5t46 -121.5q-3 -73 -57.5 -123.5t-128.5 -50.5t-121.5 50.5t-44.5 123.5zM563 897q3 72 56 122t129 50q72 0 121 -50t46 -122q-5 -72 -59 -123t-127 -51q-74 0 -121.5 50.5t-44.5 123.5z
" />
    <glyph glyph-name="oslash" unicode="&#xf8;" horiz-adv-x="1296" 
d="M106 510q15 229 175 378.5t401 149.5q142 0 248 -53l119 152l114 -72l-121 -158q77 -71 115 -173.5t31 -223.5q-14 -230 -173 -380t-399 -150q-138 0 -251 55l-117 -152l-113 72l119 156q-78 71 -116.5 174.5t-31.5 224.5zM289 510q-9 -161 73 -260l465 602
q-67 31 -155 31q-169 0 -271.5 -106.5t-111.5 -266.5zM467 168q74 -33 160 -33q167 0 268.5 106.5t112.5 268.5q9 157 -74 260z" />
    <glyph glyph-name="ugrave" unicode="&#xf9;" horiz-adv-x="1245" 
d="M457 -20q-204 0 -294.5 123.5t-49.5 342.5l110 572h183l-109 -567q-32 -162 26 -239t207 -77t255 110.5t143 301.5l90 471h180l-197 -1020h-182l27 131l20 107q-61 -123 -165 -189.5t-244 -66.5zM457 1346l59 131l610 -164l-59 -131z" />
    <glyph glyph-name="uacute" unicode="&#xfa;" horiz-adv-x="1245" 
d="M457 -20q-204 0 -294.5 123.5t-49.5 342.5l110 572h183l-109 -567q-32 -162 26 -239t207 -77t255 110.5t143 301.5l90 471h180l-197 -1020h-182l27 131l20 107q-61 -123 -165 -189.5t-244 -66.5zM440 1319l676 164l6 -146l-673 -163z" />
    <glyph glyph-name="ucircumflex" unicode="&#xfb;" horiz-adv-x="1245" 
d="M457 -20q-204 0 -294.5 123.5t-49.5 342.5l110 572h183l-109 -567q-32 -162 26 -239t207 -77t255 110.5t143 301.5l90 471h180l-197 -1020h-182l27 131l20 107q-61 -123 -165 -189.5t-244 -66.5zM430 1251l385 267l297 -281l-119 -94l-198 192l-275 -192z" />
    <glyph glyph-name="udieresis" unicode="&#xfc;" horiz-adv-x="1245" 
d="M457 -20q-204 0 -294.5 123.5t-49.5 342.5l110 572h183l-109 -567q-32 -162 26 -239t207 -77t255 110.5t143 301.5l90 471h180l-197 -1020h-182l27 131l20 107q-61 -123 -165 -189.5t-244 -66.5zM424 1319q6 62 52 102.5t110 40.5q63 0 103 -41t36 -102
q-6 -61 -53.5 -102t-110.5 -41t-102 41t-35 102zM846 1319q6 61 52.5 102t109.5 41q64 0 104.5 -41t34.5 -102t-53.5 -102t-110.5 -41t-102 41t-35 102z" />
    <glyph glyph-name="yacute" unicode="&#xfd;" horiz-adv-x="1230" 
d="M1206 1018l-198 -1018l-54 -274q-24 -125 -166 -125h-778l31 155h737l49 244l25 129l22 107q-63 -123 -167 -189.5t-242 -66.5q-205 0 -295 124t-49 345l108 569h183l-109 -565q-31 -163 27.5 -240.5t208.5 -77.5q148 0 253 110t142 302l90 471h182zM346 1321l676 164
l6 -146l-674 -163z" />
    <glyph glyph-name="thorn" unicode="&#xfe;" horiz-adv-x="1339" 
d="M-29 -397l273 1415l94 487h180l-92 -487h-2l-27 -139l-12 -60q146 223 422 223q158 0 265 -75.5t147.5 -204.5t11.5 -291q-38 -217 -177.5 -353t-344.5 -136q-101 0 -187 33t-150.5 106t-86.5 178l-31 -156l-100 -540h-183zM338 555q-18 -100 0 -177t66 -129.5t117 -80
t153 -27.5q92 0 167.5 35t131.5 112t78 189q38 197 -54 304.5t-262 107.5q-149 0 -256.5 -85.5t-140.5 -248.5z" />
    <glyph glyph-name="ydieresis" unicode="&#xff;" horiz-adv-x="1230" 
d="M1206 1018l-198 -1018l-54 -274q-24 -125 -166 -125h-778l31 155h737l49 244l25 129l22 107q-63 -123 -167 -189.5t-242 -66.5q-205 0 -295 124t-49 345l108 569h183l-109 -565q-31 -163 27.5 -240.5t208.5 -77.5q148 0 253 110t142 302l90 471h182zM330 1321
q6 62 52 102.5t110 40.5q63 0 103 -41t36 -102q-6 -61 -53.5 -102t-110.5 -41t-102 41t-35 102zM752 1321q6 61 52 102t109 41q64 0 105 -41t35 -102t-53.5 -102t-110.5 -41t-102 41t-35 102z" />
    <glyph glyph-name="Amacron" unicode="&#x100;" horiz-adv-x="1429" 
d="M-43 0l776 1444h334l207 -1444h-189l-79 553h-555l-297 -553h-197zM537 713h446l-94 659zM559 1686v147h680v-145z" />
    <glyph glyph-name="amacron" unicode="&#x101;" horiz-adv-x="1226" 
d="M63 279q13 269 357 301l446 38q15 138 -48.5 206.5t-194.5 68.5q-118 0 -186.5 -56.5t-100.5 -181.5h-180q39 179 161.5 282t311.5 103q108 0 192.5 -32.5t140.5 -96t75.5 -158t-3.5 -218.5l-73 -379h149l-29 -156h-186q-59 0 -85.5 32.5t-14.5 90.5l8 49l16 78
q-23 -46 -47 -82t-61 -72.5t-80 -61t-104 -39.5t-134 -15q-87 0 -151 21.5t-98 52.5t-54 74.5t-24.5 78.5t-2.5 72zM248 307q-13 -89 36.5 -133.5t143.5 -44.5q156 0 272 103.5t144 256.5l-389 -38q-99 -9 -148 -41t-59 -103zM348 1260v147h680v-145z" />
    <glyph glyph-name="Abreve" unicode="&#x102;" horiz-adv-x="1429" 
d="M-43 0l776 1444h334l207 -1444h-189l-79 553h-555l-297 -553h-197zM537 713h446l-94 659zM670 1935h147q-24 -113 23.5 -166t134.5 -53q89 0 132.5 53t63.5 166h146q-22 -167 -117.5 -263.5t-241.5 -96.5q-150 0 -230 99t-58 261z" />
    <glyph glyph-name="abreve" unicode="&#x103;" horiz-adv-x="1226" 
d="M63 279q13 269 357 301l446 38q15 138 -48.5 206.5t-194.5 68.5q-118 0 -186.5 -56.5t-100.5 -181.5h-180q39 179 161.5 282t311.5 103q108 0 192.5 -32.5t140.5 -96t75.5 -158t-3.5 -218.5l-73 -379h149l-29 -156h-186q-59 0 -85.5 32.5t-14.5 90.5l8 49l16 78
q-23 -46 -47 -82t-61 -72.5t-80 -61t-104 -39.5t-134 -15q-87 0 -151 21.5t-98 52.5t-54 74.5t-24.5 78.5t-2.5 72zM248 307q-13 -89 36.5 -133.5t143.5 -44.5q156 0 272 103.5t144 256.5l-389 -38q-99 -9 -148 -41t-59 -103zM459 1509h147q-24 -113 23.5 -166t134.5 -53
q89 0 133 53t64 166h145q-22 -167 -117.5 -263.5t-240.5 -96.5q-150 0 -230.5 99t-58.5 261z" />
    <glyph glyph-name="Aogonek" unicode="&#x104;" horiz-adv-x="1429" 
d="M-43 0l776 1444h334l207 -1444h-10l-177 -250l373 2l-28 -147h-404q-83 0 -106.5 53t32.5 125l158 217h-27l-79 553h-555l-297 -553h-197zM537 713h446l-94 659z" />
    <glyph glyph-name="aogonek" unicode="&#x105;" horiz-adv-x="1226" 
d="M63 279q13 269 357 301l446 38q15 138 -48.5 206.5t-194.5 68.5q-118 0 -186.5 -56.5t-100.5 -181.5h-180q39 179 161.5 282t311.5 103q108 0 192.5 -32.5t140.5 -96t75.5 -158t-3.5 -218.5l-73 -379h149l-29 -156h-4l-176 -250l373 2l-29 -147h-403q-83 0 -106.5 53
t32.5 125l158 217h-31q-59 0 -85.5 32.5t-14.5 90.5l8 49l16 78q-23 -46 -47 -82t-61 -72.5t-80 -61t-104 -39.5t-134 -15q-87 0 -151 21.5t-98 52.5t-54 74.5t-24.5 78.5t-2.5 72zM248 307q-13 -89 36.5 -133.5t143.5 -44.5q156 0 272 103.5t144 256.5l-389 -38
q-99 -9 -148 -41t-59 -103z" />
    <glyph glyph-name="Cacute" unicode="&#x106;" horiz-adv-x="1593" 
d="M764 -23q-159 0 -283 57t-199 157t-106.5 236.5t-13.5 295.5q24 212 123 379.5t267 265.5t378 98q277 0 435.5 -155.5t160.5 -423.5h-189q0 200 -108.5 309t-310.5 109q-238 0 -387 -159t-181 -421q-22 -175 17.5 -305.5t143 -205.5t263.5 -75q204 0 339 110t185 310h189
q-62 -271 -254.5 -426.5t-468.5 -155.5zM692 1747l676 164l6 -146l-674 -163z" />
    <glyph glyph-name="cacute" unicode="&#x107;" horiz-adv-x="1214" 
d="M111 553q38 214 187.5 350.5t365.5 136.5q93 0 175.5 -27t147 -77t101.5 -129.5t36 -177.5h-182q-1 123 -78.5 188.5t-201.5 65.5q-150 0 -246.5 -95t-124.5 -245q-22 -113 2 -205t100 -149.5t195 -57.5q243 0 317 258h185q-17 -87 -56 -158t-90.5 -118t-115 -78.5
t-128 -45.5t-131.5 -14q-114 0 -209 42.5t-157.5 117t-88 183.5t-3.5 235zM438 1319l676 164l6 -146l-674 -163z" />
    <glyph glyph-name="Ccircumflex" unicode="&#x108;" horiz-adv-x="1593" 
d="M764 -23q-159 0 -283 57t-199 157t-106.5 236.5t-13.5 295.5q24 212 123 379.5t267 265.5t378 98q277 0 435.5 -155.5t160.5 -423.5h-189q0 200 -108.5 309t-310.5 109q-238 0 -387 -159t-181 -421q-22 -175 17.5 -305.5t143 -205.5t263.5 -75q204 0 339 110t185 310h189
q-62 -271 -254.5 -426.5t-468.5 -155.5zM682 1679l385 267l297 -281l-119 -94l-198 192l-275 -192z" />
    <glyph glyph-name="ccircumflex" unicode="&#x109;" horiz-adv-x="1214" 
d="M111 553q38 214 187.5 350.5t365.5 136.5q93 0 175.5 -27t147 -77t101.5 -129.5t36 -177.5h-182q-1 123 -78.5 188.5t-201.5 65.5q-150 0 -246.5 -95t-124.5 -245q-22 -113 2 -205t100 -149.5t195 -57.5q243 0 317 258h185q-17 -87 -56 -158t-90.5 -118t-115 -78.5
t-128 -45.5t-131.5 -14q-114 0 -209 42.5t-157.5 117t-88 183.5t-3.5 235zM428 1251l385 267l297 -281l-119 -94l-198 192l-275 -192z" />
    <glyph glyph-name="Cdotaccent" unicode="&#x10a;" horiz-adv-x="1593" 
d="M764 -23q-159 0 -283 57t-199 157t-106.5 236.5t-13.5 295.5q24 212 123 379.5t267 265.5t378 98q277 0 435.5 -155.5t160.5 -423.5h-189q0 200 -108.5 309t-310.5 109q-238 0 -387 -159t-181 -421q-22 -175 17.5 -305.5t143 -205.5t263.5 -75q204 0 339 110t185 310h189
q-62 -271 -254.5 -426.5t-468.5 -155.5zM891 1755q7 60 52.5 98.5t107.5 38.5t99.5 -38.5t31.5 -98.5q-6 -59 -53 -98t-109 -39t-98.5 38.5t-30.5 98.5z" />
    <glyph glyph-name="cdotaccent" unicode="&#x10b;" horiz-adv-x="1214" 
d="M111 553q38 214 187.5 350.5t365.5 136.5q93 0 175.5 -27t147 -77t101.5 -129.5t36 -177.5h-182q-1 123 -78.5 188.5t-201.5 65.5q-150 0 -246.5 -95t-124.5 -245q-22 -113 2 -205t100 -149.5t195 -57.5q243 0 317 258h185q-17 -87 -56 -158t-90.5 -118t-115 -78.5
t-128 -45.5t-131.5 -14q-114 0 -209 42.5t-157.5 117t-88 183.5t-3.5 235zM637 1327q7 60 52.5 98.5t107.5 38.5t99.5 -38.5t31.5 -98.5q-6 -59 -53 -98t-109 -39t-98.5 38.5t-30.5 98.5z" />
    <glyph glyph-name="Ccaron" unicode="&#x10c;" horiz-adv-x="1593" 
d="M764 -23q-159 0 -283 57t-199 157t-106.5 236.5t-13.5 295.5q24 212 123 379.5t267 265.5t378 98q277 0 435.5 -155.5t160.5 -423.5h-189q0 200 -108.5 309t-310.5 109q-238 0 -387 -159t-181 -421q-22 -175 17.5 -305.5t143 -205.5t263.5 -75q204 0 339 110t185 310h189
q-62 -271 -254.5 -426.5t-468.5 -155.5zM715 1853l119 95l198 -193l275 193l90 -109l-385 -264z" />
    <glyph glyph-name="ccaron" unicode="&#x10d;" horiz-adv-x="1214" 
d="M111 553q38 214 187.5 350.5t365.5 136.5q93 0 175.5 -27t147 -77t101.5 -129.5t36 -177.5h-182q-1 123 -78.5 188.5t-201.5 65.5q-150 0 -246.5 -95t-124.5 -245q-22 -113 2 -205t100 -149.5t195 -57.5q243 0 317 258h185q-17 -87 -56 -158t-90.5 -118t-115 -78.5
t-128 -45.5t-131.5 -14q-114 0 -209 42.5t-157.5 117t-88 183.5t-3.5 235zM461 1425l119 95l198 -193l275 193l90 -109l-385 -264z" />
    <glyph glyph-name="Dcaron" unicode="&#x10e;" horiz-adv-x="1464" 
d="M49 0l283 1444h184l-283 -1444h-184zM233 0l33 160h309q63 0 111.5 3.5t110 17t108 36.5t97 65.5t86.5 100.5t66 144.5t46 195.5q12 85 12 156t-10 124.5t-32 96t-48 71.5t-63 50t-72 33t-81 19t-83.5 9t-85.5 2h-252l31 160h236q118 0 211 -14.5t187.5 -61t151.5 -123
t82.5 -209.5t1.5 -313q-17 -130 -53.5 -236t-83.5 -180t-111 -130t-129 -89t-144.5 -53.5t-150.5 -27.5t-153 -7h-328zM535 1853l118 95l199 -193l274 193l91 -109l-386 -264z" />
    <glyph glyph-name="dcaron" unicode="&#x10f;" horiz-adv-x="1671" 
d="M537 -25q-158 0 -266 76t-148.5 205.5t-11.5 290.5q38 218 177 354.5t345 136.5q155 0 273.5 -82t150.5 -237l33 158l116 628h183l-291 -1505h-180l28 139l12 62q-148 -226 -421 -226zM291 541q-38 -196 53.5 -303t261.5 -107q149 0 257 85t141 247q19 101 1 178.5
t-66 130t-117 80t-152 27.5q-143 0 -244.5 -85.5t-134.5 -252.5zM1438 975l102 530h162l-103 -530h-161z" />
    <glyph glyph-name="Dcroat" unicode="&#x110;" horiz-adv-x="1503" 
d="M80 0l127 647h-178l26 148h181l126 649h185l-127 -649h358l-28 -148h-359l-127 -647h-184zM264 0l33 160h309q63 0 111.5 3.5t110 17t108 36.5t97 65.5t86.5 100.5t66 144.5t46 195.5q12 85 12 156t-10 124.5t-32 96t-48 71.5t-63 50t-72 33t-81 19t-83.5 9t-85.5 2h-252
l31 160h235q118 0 211 -14.5t187.5 -61t151.5 -123t83 -209.5t2 -313q-17 -130 -53.5 -236t-83.5 -180t-111 -130t-129 -89t-144.5 -53.5t-150.5 -27.5t-153 -7h-328z" />
    <glyph glyph-name="dcroat" unicode="&#x111;" horiz-adv-x="1357" 
d="M537 -25q-158 0 -266 76t-148.5 205.5t-11.5 290.5q38 218 177 354.5t345 136.5q155 0 273.5 -82t150.5 -237l33 158l67 366h-299l29 148h299l20 114h183l-23 -114h109l-27 -148h-111l-239 -1243h-180l28 139l12 62q-148 -226 -421 -226zM291 541q-38 -196 53.5 -303
t261.5 -107q149 0 257 85t141 247q19 101 1 178.5t-66 130t-117 80t-152 27.5q-143 0 -244.5 -85.5t-134.5 -252.5z" />
    <glyph glyph-name="Emacron" unicode="&#x112;" horiz-adv-x="1259" 
d="M49 0l283 1444h1003l-30 -160h-820l-94 -483h717l-31 -156h-715l-96 -485h817l-30 -160h-1004zM449 1686v147h679v-145z" />
    <glyph glyph-name="emacron" unicode="&#x113;" horiz-adv-x="1204" 
d="M373 1407h680v-145l-680 -2v147zM106 522q29 244 177 380t370 136q230 0 349 -131t92 -366l-9 -66h-806q-16 -157 53 -253.5t221 -96.5q126 0 213.5 61t128.5 170h180q-24 -75 -65.5 -139t-104 -119t-154.5 -86.5t-204 -31.5q-122 0 -214 42t-145 116t-74 172t-8 212z
M297 604h629q7 137 -68 214t-213 77q-128 0 -223 -77.5t-125 -213.5z" />
    <glyph glyph-name="Edotaccent" unicode="&#x116;" horiz-adv-x="1259" 
d="M49 0l283 1444h1003l-30 -160h-820l-94 -483h717l-31 -156h-715l-96 -485h817l-30 -160h-1004zM702 1755q7 60 52.5 98.5t107.5 38.5t99.5 -38.5t31.5 -98.5q-6 -59 -53 -98t-109 -39t-98.5 38.5t-30.5 98.5z" />
    <glyph glyph-name="edotaccent" unicode="&#x117;" horiz-adv-x="1204" 
d="M756 1192q-62 0 -98.5 38.5t-30.5 98.5q7 60 52 98.5t107 38.5t100 -39t32 -98t-53 -98t-109 -39zM106 522q29 244 177 380t370 136q230 0 349 -131t92 -366l-9 -66h-806q-16 -157 53 -253.5t221 -96.5q126 0 213.5 61t128.5 170h180q-24 -75 -65.5 -139t-104 -119
t-154.5 -86.5t-204 -31.5q-122 0 -214 42t-145 116t-74 172t-8 212zM297 604h629q7 137 -68 214t-213 77q-128 0 -223 -77.5t-125 -213.5z" />
    <glyph glyph-name="Eogonek" unicode="&#x118;" horiz-adv-x="1259" 
d="M49 0l283 1444h1003l-30 -160h-820l-94 -483h717l-31 -156h-715l-96 -485h817l-30 -160h-289l-176 -250l373 2l-29 -147h-404q-83 0 -106 53t33 125l157 217h-563z" />
    <glyph glyph-name="eogonek" unicode="&#x119;" horiz-adv-x="1204" 
d="M874 -248l-28 -147h-404q-83 0 -106 53t33 125l143 197q-223 12 -327.5 163t-78.5 379q29 244 177 380t370 136q230 0 349 -131t92 -366l-9 -66h-806q-16 -157 53 -253.5t221 -96.5q126 0 213.5 61t128.5 170h180q-21 -64 -54 -120t-81 -106.5t-116.5 -87t-151.5 -52.5
l-170 -240zM297 604h629q7 137 -68 214t-213 77q-128 0 -223 -77.5t-125 -213.5z" />
    <glyph glyph-name="Ecaron" unicode="&#x11a;" horiz-adv-x="1259" 
d="M49 0l283 1444h1003l-30 -160h-820l-94 -483h717l-31 -156h-715l-96 -485h817l-30 -160h-1004zM524 1853l119 95l199 -193l274 193l90 -109l-385 -264z" />
    <glyph glyph-name="ecaron" unicode="&#x11b;" horiz-adv-x="1204" 
d="M449 1427l118 95l199 -193l274 193l90 -109l-385 -264zM106 522q29 244 177 380t370 136q230 0 349 -131t92 -366l-9 -66h-806q-16 -157 53 -253.5t221 -96.5q126 0 213.5 61t128.5 170h180q-24 -75 -65.5 -139t-104 -119t-154.5 -86.5t-204 -31.5q-122 0 -214 42
t-145 116t-74 172t-8 212zM297 604h629q7 137 -68 214t-213 77q-128 0 -223 -77.5t-125 -213.5z" />
    <glyph glyph-name="Gcircumflex" unicode="&#x11c;" horiz-adv-x="1626" 
d="M737 -23q-159 0 -278 55.5t-188 154.5t-97 231t-12 291q33 345 236 551t524 206q262 0 416.5 -143.5t166.5 -394.5h-188q-5 181 -107 280t-288 99q-242 0 -392 -163t-180 -437q-14 -122 2.5 -222t65 -179.5t141.5 -124t225 -44.5q232 0 360 125t165 371h-564l29 143h621
q127 0 106 -121l-129 -655h-186l35 164l14 84q-22 -41 -51 -78t-73 -73t-96.5 -62t-124.5 -42t-153 -16zM688 1679l385 267l297 -281l-119 -94l-198 192l-275 -192z" />
    <glyph glyph-name="gcircumflex" unicode="&#x11d;" horiz-adv-x="1341" 
d="M537 -25q-158 0 -266 76t-148.5 205.5t-11.5 290.5q38 218 177 354.5t345 136.5q155 0 273.5 -82t150.5 -237l33 158l24 141h180l-196 -1018l-54 -274q-24 -125 -165 -125h-779l31 155h737l50 244l28 139l12 62q-148 -226 -421 -226zM291 541q-38 -196 53.5 -303
t261.5 -107q149 0 257 85t141 247q19 101 1 178.5t-66 130t-117 80t-152 27.5q-143 0 -244.5 -85.5t-134.5 -252.5zM467 1253l385 267l297 -281l-119 -94l-199 192l-274 -192z" />
    <glyph glyph-name="Gbreve" unicode="&#x11e;" horiz-adv-x="1626" 
d="M737 -23q-159 0 -278 55.5t-188 154.5t-97 231t-12 291q33 345 236 551t524 206q262 0 416.5 -143.5t166.5 -394.5h-188q-5 181 -107 280t-288 99q-242 0 -392 -163t-180 -437q-14 -122 2.5 -222t65 -179.5t141.5 -124t225 -44.5q232 0 360 125t165 371h-564l29 143h621
q127 0 106 -121l-129 -655h-186l35 164l14 84q-22 -41 -51 -78t-73 -73t-96.5 -62t-124.5 -42t-153 -16zM756 1935h147q-24 -113 23.5 -166t134.5 -53q89 0 132.5 53t63.5 166h146q-22 -167 -117.5 -263.5t-241.5 -96.5q-150 0 -230 99t-58 261z" />
    <glyph glyph-name="gbreve" unicode="&#x11f;" horiz-adv-x="1341" 
d="M537 -25q-158 0 -266 76t-148.5 205.5t-11.5 290.5q38 218 177 354.5t345 136.5q155 0 273.5 -82t150.5 -237l33 158l24 141h180l-196 -1018l-54 -274q-24 -125 -165 -125h-779l31 155h737l50 244l28 139l12 62q-148 -226 -421 -226zM291 541q-38 -196 53.5 -303
t261.5 -107q149 0 257 85t141 247q19 101 1 178.5t-66 130t-117 80t-152 27.5q-143 0 -244.5 -85.5t-134.5 -252.5zM535 1509h147q-24 -113 23.5 -166t134.5 -53q89 0 132.5 53t63.5 166h146q-22 -167 -117.5 -263.5t-241.5 -96.5q-150 0 -230 99t-58 261z" />
    <glyph glyph-name="Gdotaccent" unicode="&#x120;" horiz-adv-x="1626" 
d="M737 -23q-159 0 -278 55.5t-188 154.5t-97 231t-12 291q33 345 236 551t524 206q262 0 416.5 -143.5t166.5 -394.5h-188q-5 181 -107 280t-288 99q-242 0 -392 -163t-180 -437q-14 -122 2.5 -222t65 -179.5t141.5 -124t225 -44.5q232 0 360 125t165 371h-564l29 143h621
q127 0 106 -121l-129 -655h-186l35 164l14 84q-22 -41 -51 -78t-73 -73t-96.5 -62t-124.5 -42t-153 -16zM899 1755q7 60 52.5 98.5t107.5 38.5t99.5 -38.5t31.5 -98.5q-6 -59 -53 -98t-109 -39t-98.5 38.5t-30.5 98.5z" />
    <glyph glyph-name="gdotaccent" unicode="&#x121;" horiz-adv-x="1341" 
d="M537 -25q-158 0 -266 76t-148.5 205.5t-11.5 290.5q38 218 177 354.5t345 136.5q155 0 273.5 -82t150.5 -237l33 158l24 141h180l-196 -1018l-54 -274q-24 -125 -165 -125h-779l31 155h737l50 244l28 139l12 62q-148 -226 -421 -226zM291 541q-38 -196 53.5 -303
t261.5 -107q149 0 257 85t141 247q19 101 1 178.5t-66 130t-117 80t-152 27.5q-143 0 -244.5 -85.5t-134.5 -252.5zM676 1329q7 60 52.5 98.5t107.5 38.5t99.5 -38.5t31.5 -98.5q-6 -59 -53 -98t-109 -39t-98.5 38.5t-30.5 98.5z" />
    <glyph glyph-name="uni0122" unicode="&#x122;" horiz-adv-x="1626" 
d="M737 -23q-159 0 -278 55.5t-188 154.5t-97 231t-12 291q33 345 236 551t524 206q262 0 416.5 -143.5t166.5 -394.5h-188q-5 181 -107 280t-288 99q-242 0 -392 -163t-180 -437q-14 -122 2.5 -222t65 -179.5t141.5 -124t225 -44.5q232 0 360 125t165 371h-564l29 143h621
q127 0 106 -121l-129 -655h-186l35 164l14 84q-22 -41 -51 -78t-73 -73t-96.5 -62t-124.5 -42t-153 -16zM375 -432l176 338l156 -51l-177 -338z" />
    <glyph glyph-name="uni0123" unicode="&#x123;" horiz-adv-x="1341" 
d="M537 -25q-158 0 -266 76t-148.5 205.5t-11.5 290.5q38 218 177 354.5t345 136.5q155 0 273.5 -82t150.5 -237l33 158l24 141h180l-196 -1018l-54 -274q-24 -125 -165 -125h-779l31 155h737l50 244l28 139l12 62q-148 -226 -421 -226zM291 541q-38 -196 53.5 -303
t261.5 -107q149 0 257 85t141 247q19 101 1 178.5t-66 130t-117 80t-152 27.5q-143 0 -244.5 -85.5t-134.5 -252.5zM690 1217l107 378l157 -43l-108 -376z" />
    <glyph glyph-name="Hcircumflex" unicode="&#x124;" horiz-adv-x="1492" 
d="M332 1444h184l-127 -651h825l127 651h187l-283 -1444h-186l123 631h-826l-123 -631h-184zM633 1679l385 267l297 -281l-119 -94l-199 192l-274 -192z" />
    <glyph glyph-name="hcircumflex" unicode="&#x125;" horiz-adv-x="1245" 
d="M47 0l291 1505h182l-119 -616l-22 -107q63 123 167 189.5t242 66.5q205 0 296.5 -124.5t48.5 -344.5l-109 -569h-184l110 565q31 163 -27 240.5t-208 77.5q-149 0 -254 -110.5t-142 -301.5l-90 -471h-182zM131 1741l385 266l297 -281l-119 -94l-198 193l-275 -193z" />
    <glyph glyph-name="Hbar" unicode="&#x126;" horiz-adv-x="1515" 
d="M342 1444h184l-39 -199h826l39 199h186l-39 -199h125l-27 -147h-127l-215 -1098h-186l123 631h-825l-123 -631h-185l215 1098h-124l26 147h127zM399 793h826l59 305h-825z" />
    <glyph glyph-name="hbar" unicode="&#x127;" horiz-adv-x="1265" 
d="M68 0l239 1243h-117l29 148h117l22 114h183l-23 -114h289l-27 -148h-291l-67 -354l-23 -107q63 122 167 189t243 67q205 0 296 -124.5t48 -344.5l-109 -569h-184l111 565q31 163 -27.5 240.5t-208.5 77.5q-148 0 -253 -110t-142 -302l-90 -471h-182z" />
    <glyph glyph-name="Itilde" unicode="&#x128;" horiz-adv-x="1085" 
d="M309 1444h832l-31 -160h-324l-221 -1124h326l-33 -160h-831l30 160h324l221 1124h-323zM383 1634q43 289 250 289q48 0 89 -17t68 -41t50 -48t47.5 -41t48.5 -17q40 0 67.5 30t43.5 114h145q-43 -289 -250 -289q-48 0 -89 17t-68 41t-50 48t-47.5 41t-48.5 17
q-40 0 -67.5 -30t-43.5 -114h-145z" />
    <glyph glyph-name="itilde" unicode="&#x129;" horiz-adv-x="907" 
d="M8 0l31 156h283l137 706h-211l31 156h262q58 0 81 -28.5t11 -90.5l-144 -743h285l-31 -156h-735zM211 1208q43 289 250 289q48 0 89 -17t68 -41t50 -48t47.5 -41t48.5 -17q39 0 66.5 29.5t43.5 114.5h146q-43 -289 -250 -289q-48 0 -89 17t-68 41t-50 48t-47.5 41
t-48.5 17q-40 0 -67.5 -30t-43.5 -114h-145z" />
    <glyph glyph-name="Imacron" unicode="&#x12a;" horiz-adv-x="1085" 
d="M309 1444h832l-31 -160h-324l-221 -1124h326l-33 -160h-831l30 160h324l221 1124h-323zM385 1686v147h680v-145z" />
    <glyph glyph-name="imacron" unicode="&#x12b;" horiz-adv-x="927" 
d="M16 0l31 156h283l137 706h-211l31 156h262q58 0 81 -28.5t11 -90.5l-143 -743h284l-30 -156h-736zM238 1260v147h680v-145z" />
    <glyph glyph-name="Iogonek" unicode="&#x12e;" horiz-adv-x="1085" 
d="M309 1444h832l-31 -160h-324l-221 -1124h326l-33 -160h-338l-176 -250l373 2l-29 -147h-403q-83 0 -106.5 53t32.5 125l158 217h-342l30 160h324l221 1124h-323z" />
    <glyph glyph-name="iogonek" unicode="&#x12f;" horiz-adv-x="907" 
d="M8 0l31 156h283l137 706h-211l31 156h262q58 0 81 -28.5t11 -90.5l-144 -743h285l-31 -156h-262l-176 -250l373 2l-29 -147h-403q-83 0 -106.5 53t32.5 125l158 217h-322zM467 1329q7 60 52.5 98.5t107.5 38.5t99.5 -38.5t31.5 -98.5q-6 -59 -53 -98t-109 -39t-98.5 38.5
t-30.5 98.5z" />
    <glyph glyph-name="Idotaccent" unicode="&#x130;" horiz-adv-x="1085" 
d="M309 1444h832l-31 -160h-324l-221 -1124h326l-33 -160h-831l30 160h324l221 1124h-323zM639 1755q7 60 52.5 98.5t107.5 38.5t99.5 -38.5t31.5 -98.5q-6 -59 -53 -98t-109 -39t-98.5 38.5t-30.5 98.5z" />
    <glyph glyph-name="dotlessi" unicode="&#x131;" horiz-adv-x="907" 
d="M8 0l31 156h283l137 706h-211l31 156h262q58 0 81 -28.5t11 -90.5l-144 -743h285l-31 -156h-735z" />
    <glyph glyph-name="IJ" unicode="&#x132;" horiz-adv-x="1234" 
d="M49 0l31 160h506q146 0 225 87t113 259l182 938h186l-194 -989q-43 -221 -171.5 -338t-328.5 -117h-549zM115 334l217 1110h184l-217 -1110h-184z" />
    <glyph glyph-name="ij" unicode="&#x133;" horiz-adv-x="1449" 
d="M973 -59q32 45 46 78t25 85l146 758h-563l-138 -706h285l-31 -156h-735l31 156h283l137 706h-211l31 156h993q63 0 89.5 -27t16.5 -90l-161 -829q-11 -53 -24.5 -86t-43.5 -76l-215 -299h-197zM467 1329q6 59 51.5 98t106.5 39q62 0 100.5 -39t32.5 -98t-53 -98t-109 -39
t-98.5 38.5t-30.5 98.5zM1208 1329q6 60 51 98.5t107 38.5t99.5 -38.5t31.5 -98.5q-6 -59 -53 -98t-109 -39q-60 0 -96.5 38.5t-30.5 98.5z" />
    <glyph glyph-name="Jcircumflex" unicode="&#x134;" horiz-adv-x="1114" 
d="M479 0h-510l31 160h467q147 0 225 87.5t111 258.5l151 778h-528l31 160h573q78 0 103.5 -29.5t11.5 -103.5l-166 -856q-44 -221 -172.5 -338t-327.5 -117zM524 1679l385 267l297 -281l-119 -94l-198 192l-275 -192z" />
    <glyph glyph-name="jcircumflex" unicode="&#x135;" horiz-adv-x="622" 
d="M145 -59q33 43 47 76.5t23 86.5l147 758h-215l31 156h266q64 0 91 -27.5t14 -89.5l-160 -829q-11 -51 -25 -84.5t-45 -77.5l-215 -299h-194zM168 1253l385 267l297 -281l-119 -94l-199 192l-274 -192z" />
    <glyph glyph-name="uni0136" unicode="&#x136;" horiz-adv-x="1353" 
d="M49 0l283 1444h184l-119 -621l801 621h268l-917 -709l641 -735h-236l-587 674l-134 -674h-184zM285 -432l176 338l155 -51l-176 -338z" />
    <glyph glyph-name="uni0137" unicode="&#x137;" horiz-adv-x="1120" 
d="M47 0l291 1505h182l-176 -911l561 424h248l-659 -502l456 -516h-223l-410 459l-88 -459h-182zM166 -432l176 338l156 -51l-176 -338z" />
    <glyph glyph-name="Lacute" unicode="&#x139;" horiz-adv-x="1136" 
d="M197 0q-62 0 -89.5 33t-15.5 96l258 1315h185l-250 -1284h723l-31 -160h-780zM391 1747l676 164l6 -146l-674 -163z" />
    <glyph glyph-name="lacute" unicode="&#x13a;" horiz-adv-x="931" 
d="M16 0l29 156h285l233 1194h-213l29 155h287q109 0 88 -102l-244 -1247h287l-29 -156h-752zM334 1808l676 164l6 -145l-674 -164z" />
    <glyph glyph-name="uni013B" unicode="&#x13b;" horiz-adv-x="1120" 
d="M178 0q-62 0 -89 33t-15 96l258 1315h184l-250 -1284h723l-31 -160h-780zM258 -432l176 338l156 -51l-176 -338z" />
    <glyph glyph-name="uni013C" unicode="&#x13c;" horiz-adv-x="905" 
d="M-10 0l28 156h285l234 1194h-213l28 155h287q109 0 88 -102l-244 -1247h287l-29 -156h-751zM68 -432l176 338l155 -51l-176 -338z" />
    <glyph glyph-name="Lcaron" unicode="&#x13d;" horiz-adv-x="1120" 
d="M178 0q-62 0 -89 33t-15 96l258 1315h184l-250 -1284h723l-31 -160h-780zM795 913l102 531h162l-103 -531h-161z" />
    <glyph glyph-name="lcaron" unicode="&#x13e;" horiz-adv-x="923" 
d="M-10 0l28 156h285l234 1194h-213l28 155h287q109 0 88 -102l-244 -1247h287l-29 -156h-751zM772 975l102 530h162l-102 -530h-162z" />
    <glyph glyph-name="Lslash" unicode="&#x141;" horiz-adv-x="1169" 
d="M223 0q-62 0 -89 33t-15 96l102 522l-213 -57l-37 141l281 76l125 633h184l-112 -580l243 66l37 -139l-311 -84l-107 -547h723l-30 -160h-781z" />
    <glyph glyph-name="lslash" unicode="&#x142;" horiz-adv-x="905" 
d="M-10 0l28 156h285l94 487l-250 -65l-8 149l291 76l107 547h-213l28 155h287q109 0 88 -102l-109 -551l256 66l9 -150l-295 -76l-105 -536h287l-29 -156h-751z" />
    <glyph glyph-name="Nacute" unicode="&#x143;" horiz-adv-x="1562" 
d="M49 0l283 1444h340l471 -1376l22 112l246 1264h186l-282 -1444h-340l-471 1376l-23 -112l-248 -1264h-184zM719 1747l676 164l6 -146l-674 -163z" />
    <glyph glyph-name="nacute" unicode="&#x144;" horiz-adv-x="1243" 
d="M45 0l199 1018h180l-25 -129l-22 -107q63 123 167 189.5t242 66.5q205 0 295 -124t49 -345l-108 -569h-182l108 565q31 163 -27 240.5t-208 77.5q-149 0 -254 -110.5t-142 -301.5l-90 -471h-182zM483 1321l676 164l6 -146l-673 -163z" />
    <glyph glyph-name="uni0145" unicode="&#x145;" horiz-adv-x="1562" 
d="M49 0l283 1444h340l471 -1376l22 112l246 1264h186l-282 -1444h-340l-471 1376l-23 -112l-248 -1264h-184zM387 -432l176 338l156 -51l-176 -338z" />
    <glyph glyph-name="uni0146" unicode="&#x146;" horiz-adv-x="1243" 
d="M45 0l199 1018h180l-25 -129l-22 -107q63 123 167 189.5t242 66.5q205 0 295 -124t49 -345l-108 -569h-182l108 565q31 163 -27 240.5t-208 77.5q-149 0 -254 -110.5t-142 -301.5l-90 -471h-182zM242 -432l176 338l155 -51l-176 -338z" />
    <glyph glyph-name="Ncaron" unicode="&#x147;" horiz-adv-x="1562" 
d="M49 0l283 1444h340l471 -1376l22 112l246 1264h186l-282 -1444h-340l-471 1376l-23 -112l-248 -1264h-184zM741 1853l119 95l199 -193l274 193l90 -109l-385 -264z" />
    <glyph glyph-name="ncaron" unicode="&#x148;" horiz-adv-x="1243" 
d="M45 0l199 1018h180l-25 -129l-22 -107q63 123 167 189.5t242 66.5q205 0 295 -124t49 -345l-108 -569h-182l108 565q31 163 -27 240.5t-208 77.5q-149 0 -254 -110.5t-142 -301.5l-90 -471h-182zM506 1427l119 95l198 -193l275 193l90 -109l-385 -264z" />
    <glyph glyph-name="Eng" unicode="&#x14a;" horiz-adv-x="1558" 
d="M49 0l283 1444h340l471 -1376l22 112l246 1264h186l-282 -1444l-53 -279q-12 -62 -46.5 -88t-107.5 -26h-416l29 155h364l45 238h-155l-471 1376l-23 -112l-248 -1264h-184z" />
    <glyph glyph-name="eng" unicode="&#x14b;" horiz-adv-x="1243" 
d="M45 0l199 1018h180l-25 -129l-22 -107q63 123 167 189.5t242 66.5q205 0 295 -124t49 -345l-108 -569l-53 -272q-24 -125 -168 -125h-404l29 155h365l47 242h2l108 565q31 163 -27 240.5t-208 77.5q-149 0 -254 -110.5t-142 -301.5l-90 -471h-182z" />
    <glyph glyph-name="Omacron" unicode="&#x14c;" horiz-adv-x="1605" 
d="M164 723q19 212 115 379.5t262.5 265.5t376.5 98q156 0 279.5 -57t199.5 -156.5t110 -235.5t19 -294q-15 -159 -74.5 -295.5t-155 -236.5t-230.5 -157t-292 -57t-280.5 57t-200 157t-110.5 236.5t-19 295.5zM352 723q-19 -173 20 -302.5t143.5 -205.5t266.5 -76
q241 0 383.5 159.5t171.5 424.5q19 172 -19.5 301t-142.5 205t-266 76t-283 -76t-188 -205t-86 -301zM647 1686v147h680v-145z" />
    <glyph glyph-name="omacron" unicode="&#x14d;" horiz-adv-x="1296" 
d="M106 510q15 229 175 378.5t401 149.5q239 0 380 -150t126 -378q-14 -230 -173 -380t-399 -150t-382 150t-128 380zM289 510q-9 -162 80 -268.5t258 -106.5q167 0 268.5 106.5t112.5 268.5q9 160 -80 266.5t-256 106.5q-169 0 -271.5 -106.5t-111.5 -266.5zM410 1260v147
h680v-145z" />
    <glyph glyph-name="Ohungarumlaut" unicode="&#x150;" horiz-adv-x="1605" 
d="M164 723q19 212 115 379.5t262.5 265.5t376.5 98q156 0 279.5 -57t199.5 -156.5t110 -235.5t19 -294q-15 -159 -74.5 -295.5t-155 -236.5t-230.5 -157t-292 -57t-280.5 57t-200 157t-110.5 236.5t-19 295.5zM352 723q-19 -173 20 -302.5t143.5 -205.5t266.5 -76
q241 0 383.5 159.5t171.5 424.5q19 172 -19.5 301t-142.5 205t-266 76t-283 -76t-188 -205t-86 -301zM647 1681l361 289l90 -115l-359 -284zM1001 1681l359 289l92 -112l-360 -287z" />
    <glyph glyph-name="ohungarumlaut" unicode="&#x151;" horiz-adv-x="1296" 
d="M106 510q15 229 175 378.5t401 149.5q239 0 380 -150t126 -378q-14 -230 -173 -380t-399 -150t-382 150t-128 380zM289 510q-9 -162 80 -268.5t258 -106.5q167 0 268.5 106.5t112.5 268.5q9 160 -80 266.5t-256 106.5q-169 0 -271.5 -106.5t-111.5 -266.5zM408 1255
l360 289l90 -114l-358 -285zM762 1255l358 289l92 -112l-360 -287z" />
    <glyph glyph-name="OE" unicode="&#x152;" horiz-adv-x="2412" 
d="M164 723q19 212 115 379.5t262.5 265.5t376.5 98q179 0 311 -71.5t207 -200.5l49 250h1003l-30 -160h-820l-94 -483h717l-31 -156h-714q-2 -10 -6.5 -30.5t-6.5 -30.5l-84 -424h817l-30 -160h-1004l25 129q-192 -152 -453 -152q-157 0 -280.5 57t-200 157t-110.5 236.5
t-19 295.5zM352 723q-19 -173 20 -302.5t143.5 -205.5t266.5 -76q241 0 383.5 159.5t171.5 424.5q19 172 -19.5 301t-142.5 205t-266 76t-283 -76t-188 -205t-86 -301z" />
    <glyph glyph-name="oe" unicode="&#x153;" horiz-adv-x="2113" 
d="M106 510q15 229 175 378.5t401 149.5q147 0 259.5 -59t176.5 -164q73 108 188 165.5t257 57.5q230 0 348.5 -131t91.5 -366l-8 -66h-807q-16 -157 53 -253.5t221 -96.5q126 0 213.5 61t128.5 170h181q-19 -59 -48.5 -111.5t-75 -102t-102.5 -84.5t-135 -56.5t-168 -21.5
q-279 0 -389 206q-76 -97 -193.5 -151.5t-257.5 -54.5q-240 0 -382 150t-128 380zM289 510q-9 -162 80 -268.5t258 -106.5q167 0 268.5 106.5t112.5 268.5q9 160 -80 266.5t-256 106.5q-169 0 -271.5 -106.5t-111.5 -266.5zM1206 604h629q7 137 -68 214t-213 77
q-128 0 -223 -77.5t-125 -213.5z" />
    <glyph glyph-name="Racute" unicode="&#x154;" horiz-adv-x="1386" 
d="M49 0l283 1444h504q104 0 182.5 -9.5t149.5 -35.5t113.5 -69t63 -114t9.5 -167q-35 -302 -297 -365h78q148 0 120 -152l-106 -532h-184l112 571h-729l-112 -571h-187zM379 731h364q78 0 130 4.5t106 21t87 46t58 80.5t35 125q11 80 -3.5 134.5t-39 82t-81.5 41.5
t-95.5 16t-116.5 2h-338zM555 1747l676 164l6 -146l-674 -163z" />
    <glyph glyph-name="racute" unicode="&#x155;" horiz-adv-x="915" 
d="M223 877q23 141 170 141h574l-29 -156h-539l-166 -862h-182zM340 1321l676 164l6 -146l-674 -163z" />
    <glyph glyph-name="uni0156" unicode="&#x156;" horiz-adv-x="1386" 
d="M49 0l283 1444h504q104 0 182.5 -9.5t149.5 -35.5t113.5 -69t63 -114t9.5 -167q-35 -302 -297 -365h78q148 0 120 -152l-106 -532h-184l112 571h-729l-112 -571h-187zM324 -432l176 338l155 -51l-176 -338zM379 731h364q78 0 130 4.5t106 21t87 46t58 80.5t35 125
q11 80 -3.5 134.5t-39 82t-81.5 41.5t-95.5 16t-116.5 2h-338z" />
    <glyph glyph-name="uni0157" unicode="&#x157;" horiz-adv-x="913" 
d="M219 877q23 141 170 141h574l-29 -156h-539l-166 -862h-182zM-156 -432l176 338l156 -51l-176 -338z" />
    <glyph glyph-name="Rcaron" unicode="&#x158;" horiz-adv-x="1386" 
d="M49 0l283 1444h504q104 0 182.5 -9.5t149.5 -35.5t113.5 -69t63 -114t9.5 -167q-35 -302 -297 -365h78q148 0 120 -152l-106 -532h-184l112 571h-729l-112 -571h-187zM379 731h364q78 0 130 4.5t106 21t87 46t58 80.5t35 125q11 80 -3.5 134.5t-39 82t-81.5 41.5
t-95.5 16t-116.5 2h-338zM578 1853l118 95l199 -193l274 193l91 -109l-386 -264z" />
    <glyph glyph-name="rcaron" unicode="&#x159;" horiz-adv-x="919" 
d="M223 877q23 141 170 141h574l-29 -156h-539l-166 -862h-182zM360 1427l119 95l199 -193l274 193l90 -109l-385 -264z" />
    <glyph glyph-name="Sacute" unicode="&#x15a;" horiz-adv-x="1409" 
d="M1296 383q-43 -406 -594 -406q-325 0 -479.5 146.5t-128.5 419.5h189q-28 -206 80.5 -307t349.5 -101q186 0 283 59.5t112 180.5q21 170 -211 241l-334 105q-159 49 -228.5 138.5t-55.5 223.5q19 187 159.5 285t388.5 98q290 0 429.5 -130.5t115.5 -368.5h-188
q23 171 -68.5 257.5t-294.5 86.5q-324 0 -354 -219q-11 -79 34 -133.5t158 -88.5l328 -100q336 -102 309 -387zM608 1747l676 164l6 -146l-674 -163z" />
    <glyph glyph-name="sacute" unicode="&#x15b;" horiz-adv-x="1036" 
d="M508 -25q-110 0 -198 25.5t-150 75t-88 130t-9 183.5h181q-26 -137 53 -203.5t225 -66.5q94 0 147 33.5t66 105.5q10 52 -17.5 86.5t-103.5 63.5l-254 94q-218 80 -182 276q24 126 129.5 194t270.5 68q132 0 227 -38t142.5 -120.5t27.5 -199.5h-180q17 99 -43 158
t-185 59q-85 0 -141.5 -34.5t-65.5 -88.5q-10 -51 18 -86.5t97 -60.5l223 -82q126 -45 182 -116t35 -183q-25 -132 -129.5 -202.5t-277.5 -70.5zM340 1321l676 164l6 -146l-674 -163z" />
    <glyph glyph-name="Scircumflex" unicode="&#x15c;" horiz-adv-x="1409" 
d="M1296 383q-43 -406 -594 -406q-325 0 -479.5 146.5t-128.5 419.5h189q-28 -206 80.5 -307t349.5 -101q186 0 283 59.5t112 180.5q21 170 -211 241l-334 105q-159 49 -228.5 138.5t-55.5 223.5q19 187 159.5 285t388.5 98q290 0 429.5 -130.5t115.5 -368.5h-188
q23 171 -68.5 257.5t-294.5 86.5q-324 0 -354 -219q-11 -79 34 -133.5t158 -88.5l328 -100q336 -102 309 -387zM596 1679l385 267l297 -281l-119 -94l-198 192l-275 -192z" />
    <glyph glyph-name="scircumflex" unicode="&#x15d;" horiz-adv-x="1036" 
d="M508 -25q-110 0 -198 25.5t-150 75t-88 130t-9 183.5h181q-26 -137 53 -203.5t225 -66.5q94 0 147 33.5t66 105.5q10 52 -17.5 86.5t-103.5 63.5l-254 94q-218 80 -182 276q24 126 129.5 194t270.5 68q132 0 227 -38t142.5 -120.5t27.5 -199.5h-180q17 99 -43 158
t-185 59q-85 0 -141.5 -34.5t-65.5 -88.5q-10 -51 18 -86.5t97 -60.5l223 -82q126 -45 182 -116t35 -183q-25 -132 -129.5 -202.5t-277.5 -70.5zM330 1253l385 267l297 -281l-119 -94l-199 192l-274 -192z" />
    <glyph glyph-name="Scedilla" unicode="&#x15e;" horiz-adv-x="1409" 
d="M1296 383q-43 -406 -594 -406h-36l-101 -86q67 23 121 23q59 0 96 -28t31 -87q-4 -49 -30 -83t-64 -53t-102 -29.5t-124 -13.5t-151 -3l27 131h16q84 0 121.5 1t82.5 7t62 19.5t19 36.5q1 20 -11 30.5t-34 10.5q-54 0 -146 -52l-55 90l96 101q-232 38 -340 179t-86 372
h189q-28 -206 80.5 -307t349.5 -101q186 0 283 59.5t112 180.5q21 170 -211 241l-334 105q-159 49 -228.5 138.5t-55.5 223.5q19 187 159.5 285t388.5 98q290 0 429.5 -130.5t115.5 -368.5h-188q23 171 -68.5 257.5t-294.5 86.5q-324 0 -354 -219q-11 -79 34 -133.5
t158 -88.5l328 -100q336 -102 309 -387z" />
    <glyph glyph-name="scedilla" unicode="&#x15f;" horiz-adv-x="1036" 
d="M508 -25h-27l-98 -84q67 23 121 23q59 0 96 -28t31 -87q-4 -49 -30 -83t-64 -53t-102 -29.5t-124 -13.5t-151 -3l26 131h16q84 0 121.5 1t82.5 7t62 19.5t19 36.5q1 20 -11 30.5t-34 10.5q-53 0 -145 -52l-55 90l98 103q-153 34 -228.5 134t-48.5 261h181
q-26 -137 53 -203.5t225 -66.5q94 0 147 33.5t66 105.5q10 52 -17.5 86.5t-103.5 63.5l-254 94q-218 80 -182 276q24 126 129.5 194t270.5 68q132 0 227 -38t142.5 -120.5t27.5 -199.5h-180q17 99 -43 158t-185 59q-85 0 -141.5 -34.5t-65.5 -88.5q-10 -51 18 -86.5
t97 -60.5l223 -82q126 -45 182 -116t35 -183q-25 -132 -129.5 -202.5t-277.5 -70.5z" />
    <glyph glyph-name="Scaron" unicode="&#x160;" horiz-adv-x="1409" 
d="M1296 383q-43 -406 -594 -406q-325 0 -479.5 146.5t-128.5 419.5h189q-28 -206 80.5 -307t349.5 -101q186 0 283 59.5t112 180.5q21 170 -211 241l-334 105q-159 49 -228.5 138.5t-55.5 223.5q19 187 159.5 285t388.5 98q290 0 429.5 -130.5t115.5 -368.5h-188
q23 171 -68.5 257.5t-294.5 86.5q-324 0 -354 -219q-11 -79 34 -133.5t158 -88.5l328 -100q336 -102 309 -387zM631 1853l119 95l198 -193l275 193l90 -109l-385 -264z" />
    <glyph glyph-name="scaron" unicode="&#x161;" horiz-adv-x="1036" 
d="M508 -25q-110 0 -198 25.5t-150 75t-88 130t-9 183.5h181q-26 -137 53 -203.5t225 -66.5q94 0 147 33.5t66 105.5q10 52 -17.5 86.5t-103.5 63.5l-254 94q-218 80 -182 276q24 126 129.5 194t270.5 68q132 0 227 -38t142.5 -120.5t27.5 -199.5h-180q17 99 -43 158
t-185 59q-85 0 -141.5 -34.5t-65.5 -88.5q-10 -51 18 -86.5t97 -60.5l223 -82q126 -45 182 -116t35 -183q-25 -132 -129.5 -202.5t-277.5 -70.5zM362 1427l119 95l199 -193l274 193l90 -109l-385 -264z" />
    <glyph glyph-name="uni0162" unicode="&#x162;" horiz-adv-x="1351" 
d="M266 1444h1182l-31 -160h-497l-252 -1284h-11l-127 -109q67 23 121 23q59 0 96 -28t31 -87q-4 -49 -30 -83t-64 -53t-102 -29.5t-124 -13.5t-151 -3l27 131h16q84 0 121.5 1t82.5 7t62 19.5t19 36.5q1 20 -11 30.5t-34 10.5q-54 0 -146 -52l-55 90l105 109h-11l252 1284
h-499z" />
    <glyph glyph-name="uni0163" unicode="&#x163;" horiz-adv-x="899" 
d="M745 156l-30 -156h-180l-127 -109q67 23 120 23q59 0 96 -28t31 -87q-4 -49 -30 -83t-64 -53t-102 -29.5t-124 -13.5t-151 -3l27 131h16q84 0 121.5 1t82.5 7t62 19.5t19 36.5q1 20 -11 30.5t-34 10.5q-53 0 -145 -52l-56 90l105 109h-56q-73 0 -101.5 34.5t-14.5 108.5
l141 719h-225l30 156h224l51 258l192 55l-61 -313h319l-30 -156h-320l-137 -708z" />
    <glyph glyph-name="Tcaron" unicode="&#x164;" horiz-adv-x="1351" 
d="M266 1444h1182l-31 -160h-497l-252 -1284h-185l252 1284h-499zM596 1853l119 95l198 -193l275 193l90 -109l-385 -264z" />
    <glyph glyph-name="tcaron" unicode="&#x165;" horiz-adv-x="901" 
d="M745 156l-30 -156h-400q-73 0 -101.5 34.5t-14.5 108.5l141 719h-225l30 156h224l51 258l192 55l-61 -313h319l-30 -156h-320l-137 -708zM770 1137l70 368h161l-69 -368h-162z" />
    <glyph glyph-name="Tbar" unicode="&#x166;" horiz-adv-x="1351" 
d="M266 1444h1182l-31 -160h-497l-97 -489h269l-29 -148h-268l-127 -647h-185l127 647h-268l27 148h270l96 489h-499z" />
    <glyph glyph-name="tbar" unicode="&#x167;" horiz-adv-x="899" 
d="M745 156l-30 -156h-400q-73 0 -101.5 34.5t-14.5 108.5l73 375h-182l25 137h184l41 207h-225l30 156h224l51 258l192 55l-61 -313h319l-30 -156h-320l-39 -207h260l-24 -137h-262l-72 -364z" />
    <glyph glyph-name="Utilde" unicode="&#x168;" horiz-adv-x="1380" 
d="M123 586l170 858h184l-164 -842q-46 -233 31 -348t305 -115q108 0 184.5 25.5t127.5 79.5t81.5 127t51.5 180l174 893h186l-184 -948q-51 -258 -202 -388.5t-425 -130.5q-298 0 -438 153.5t-82 455.5zM530 1634q43 289 250 289q48 0 89 -17t68 -41t50 -48t47.5 -41
t48.5 -17q40 0 67.5 30t43.5 114h145q-43 -289 -249 -289q-48 0 -89 17t-68 41t-50.5 48t-48 41t-48.5 17q-39 0 -66.5 -29.5t-43.5 -114.5h-146z" />
    <glyph glyph-name="utilde" unicode="&#x169;" horiz-adv-x="1245" 
d="M457 -20q-204 0 -294.5 123.5t-49.5 342.5l110 572h183l-109 -567q-32 -162 26 -239t207 -77t255 110.5t143 301.5l90 471h180l-197 -1020h-182l27 131l20 107q-61 -123 -165 -189.5t-244 -66.5zM385 1206q43 289 250 289q48 0 89 -17t68 -41t50 -48t47.5 -41t48.5 -17
q40 0 67.5 30t43.5 114h145q-43 -289 -250 -289q-48 0 -89 17t-68 41t-50 48t-47.5 41t-48.5 17q-40 0 -67.5 -30t-43.5 -114h-145z" />
    <glyph glyph-name="Umacron" unicode="&#x16a;" horiz-adv-x="1380" 
d="M123 586l170 858h184l-164 -842q-46 -233 31 -348t305 -115q108 0 184.5 25.5t127.5 79.5t81.5 127t51.5 180l174 893h186l-184 -948q-51 -258 -202 -388.5t-425 -130.5q-298 0 -438 153.5t-82 455.5zM532 1686v147h680v-145z" />
    <glyph glyph-name="umacron" unicode="&#x16b;" horiz-adv-x="1245" 
d="M457 -20q-204 0 -294.5 123.5t-49.5 342.5l110 572h183l-109 -567q-32 -162 26 -239t207 -77t255 110.5t143 301.5l90 471h180l-197 -1020h-182l27 131l20 107q-61 -123 -165 -189.5t-244 -66.5zM387 1257v148h680v-145z" />
    <glyph glyph-name="Ubreve" unicode="&#x16c;" horiz-adv-x="1380" 
d="M123 586l170 858h184l-164 -842q-46 -233 31 -348t305 -115q108 0 184.5 25.5t127.5 79.5t81.5 127t51.5 180l174 893h186l-184 -948q-51 -258 -202 -388.5t-425 -130.5q-298 0 -438 153.5t-82 455.5zM643 1935h148q-24 -113 23 -166t134 -53q89 0 133 53t64 166h145
q-22 -167 -117.5 -263.5t-240.5 -96.5q-150 0 -230.5 99t-58.5 261z" />
    <glyph glyph-name="ubreve" unicode="&#x16d;" horiz-adv-x="1245" 
d="M457 -20q-204 0 -294.5 123.5t-49.5 342.5l110 572h183l-109 -567q-32 -162 26 -239t207 -77t255 110.5t143 301.5l90 471h180l-197 -1020h-182l27 131l20 107q-61 -123 -165 -189.5t-244 -66.5zM498 1507h147q-24 -113 23.5 -166t134.5 -53q89 0 132.5 53t63.5 166h146
q-22 -167 -117.5 -263.5t-241.5 -96.5q-150 0 -230 99t-58 261z" />
    <glyph glyph-name="Uring" unicode="&#x16e;" horiz-adv-x="1380" 
d="M123 586l170 858h184l-164 -842q-46 -233 31 -348t305 -115q108 0 184.5 25.5t127.5 79.5t81.5 127t51.5 180l174 893h186l-184 -948q-51 -258 -202 -388.5t-425 -130.5q-298 0 -438 153.5t-82 455.5zM623 1796q0 95 65.5 159t181.5 64t183 -64t67 -159t-67 -160
t-183 -65t-181.5 64.5t-65.5 160.5zM764 1796q0 -45 27 -70.5t79 -25.5q53 0 81 25.5t28 70.5q0 43 -28.5 67.5t-80.5 24.5t-79 -24.5t-27 -67.5z" />
    <glyph glyph-name="uring" unicode="&#x16f;" horiz-adv-x="1245" 
d="M457 -20q-204 0 -294.5 123.5t-49.5 342.5l110 572h183l-109 -567q-32 -162 26 -239t207 -77t255 110.5t143 301.5l90 471h180l-197 -1020h-182l27 131l20 107q-61 -123 -165 -189.5t-244 -66.5zM477 1368q0 95 66 159t182 64t183 -64t67 -159t-67 -160t-183 -65
t-182 64.5t-66 160.5zM618 1368q0 -45 27.5 -70.5t79.5 -25.5q53 0 81 25.5t28 70.5q0 43 -28.5 67.5t-80.5 24.5t-79.5 -24.5t-27.5 -67.5z" />
    <glyph glyph-name="Uhungarumlaut" unicode="&#x170;" horiz-adv-x="1380" 
d="M123 586l170 858h184l-164 -842q-46 -233 31 -348t305 -115q108 0 184.5 25.5t127.5 79.5t81.5 127t51.5 180l174 893h186l-184 -948q-51 -258 -202 -388.5t-425 -130.5q-298 0 -438 153.5t-82 455.5zM532 1681l361 289l90 -115l-358 -284zM887 1681l358 289l92 -112
l-360 -287z" />
    <glyph glyph-name="uhungarumlaut" unicode="&#x171;" horiz-adv-x="1245" 
d="M457 -20q-204 0 -294.5 123.5t-49.5 342.5l110 572h183l-109 -567q-32 -162 26 -239t207 -77t255 110.5t143 301.5l90 471h180l-197 -1020h-182l27 131l20 107q-61 -123 -165 -189.5t-244 -66.5zM387 1253l361 289l90 -115l-359 -284zM741 1253l359 289l92 -112
l-361 -287z" />
    <glyph glyph-name="Uogonek" unicode="&#x172;" horiz-adv-x="1380" 
d="M123 586l170 858h184l-164 -842q-46 -233 31 -348t305 -115q108 0 184.5 25.5t127.5 79.5t81.5 127t51.5 180l174 893h186l-184 -948q-44 -225 -163 -352t-327 -156l-168 -238l373 2l-29 -147h-403q-83 0 -106.5 53t32.5 125l142 194q-287 6 -421 159.5t-77 449.5z" />
    <glyph glyph-name="uogonek" unicode="&#x173;" horiz-adv-x="1245" 
d="M457 -20q-204 0 -294.5 123.5t-49.5 342.5l110 572h183l-109 -567q-32 -162 26 -239t207 -77t255 110.5t143 301.5l90 471h180l-199 -1020l-176 -250l373 2l-29 -147h-403q-83 0 -106.5 53t32.5 125l158 217h-29l27 131l20 107q-61 -123 -165 -189.5t-244 -66.5z" />
    <glyph glyph-name="Wcircumflex" unicode="&#x174;" horiz-adv-x="1908" 
d="M2046 1444l-565 -1444h-332l-27 1374l-557 -1374h-334l-4 1444h183l12 -1249l-2 -117l555 1366h319l27 -1364l39 115l498 1249h188zM840 1679l385 267l297 -281l-119 -94l-199 192l-274 -192z" />
    <glyph glyph-name="wcircumflex" unicode="&#x175;" horiz-adv-x="1798" 
d="M170 1018h170l76 -825l4 -117l418 942h313l55 -930l47 105l394 825h176l-480 -1018h-307l-53 952l-418 -952h-315zM700 1253l385 267l297 -281l-118 -94l-199 192l-274 -192z" />
    <glyph glyph-name="Ycircumflex" unicode="&#x176;" horiz-adv-x="1361" 
d="M1276 1444h203l-625 -836h-61l-121 -608h-185l119 608h-61l-299 836h188l271 -776zM565 1679l385 267l297 -281l-119 -94l-198 192l-275 -192z" />
    <glyph glyph-name="ycircumflex" unicode="&#x177;" horiz-adv-x="1230" 
d="M1206 1018l-198 -1018l-54 -274q-24 -125 -166 -125h-778l31 155h737l49 244l25 129l22 107q-63 -123 -167 -189.5t-242 -66.5q-205 0 -295 124t-49 345l108 569h183l-109 -565q-31 -163 27.5 -240.5t208.5 -77.5q148 0 253 110t142 302l90 471h182zM334 1253l385 267
l297 -281l-119 -94l-199 192l-274 -192z" />
    <glyph glyph-name="Ydieresis" unicode="&#x178;" horiz-adv-x="1361" 
d="M1276 1444h203l-625 -836h-61l-121 -608h-185l119 608h-61l-299 836h188l271 -776zM559 1747q6 62 52 102.5t110 40.5q63 0 103 -41t36 -102q-6 -61 -53.5 -102t-110.5 -41t-102 41t-35 102zM981 1747q6 61 52.5 102t109.5 41q64 0 104.5 -41t34.5 -102t-53.5 -102
t-110.5 -41t-102 41t-35 102z" />
    <glyph glyph-name="Zacute" unicode="&#x179;" horiz-adv-x="1343" 
d="M8 0l68 336l1249 948h-1065l31 160h1126l-65 -338l-1250 -946h1065l-32 -160h-1127zM569 1747l676 164l6 -146l-673 -163z" />
    <glyph glyph-name="zacute" unicode="&#x17a;" horiz-adv-x="1095" 
d="M6 0l60 301l935 576h-825l29 141h885l-58 -299l-934 -574h824l-29 -145h-887zM362 1321l676 164l6 -146l-673 -163z" />
    <glyph glyph-name="Zdotaccent" unicode="&#x17b;" horiz-adv-x="1343" 
d="M8 0l68 336l1249 948h-1065l31 160h1126l-65 -338l-1250 -946h1065l-32 -160h-1127zM770 1755q7 60 52.5 98.5t107.5 38.5t99.5 -38.5t31.5 -98.5q-6 -59 -53 -98t-109 -39t-98.5 38.5t-30.5 98.5z" />
    <glyph glyph-name="zdotaccent" unicode="&#x17c;" horiz-adv-x="1095" 
d="M6 0l60 301l935 576h-825l29 141h885l-58 -299l-934 -574h824l-29 -145h-887zM561 1329q7 60 52.5 98.5t107.5 38.5t99.5 -38.5t31.5 -98.5q-6 -59 -53 -98t-109 -39t-98.5 38.5t-30.5 98.5z" />
    <glyph glyph-name="Zcaron" unicode="&#x17d;" horiz-adv-x="1343" 
d="M8 0l68 336l1249 948h-1065l31 160h1126l-65 -338l-1250 -946h1065l-32 -160h-1127zM592 1853l119 95l198 -193l275 193l90 -109l-385 -264z" />
    <glyph glyph-name="zcaron" unicode="&#x17e;" horiz-adv-x="1095" 
d="M6 0l60 301l935 576h-825l29 141h885l-58 -299l-934 -574h824l-29 -145h-887zM385 1427l119 95l198 -193l275 193l90 -109l-385 -264z" />
    <glyph glyph-name="uni018F" unicode="&#x18f;" horiz-adv-x="1581" 
d="M764 -8q-202 0 -345 81t-210 241t-39 380l8 76h1145q8 94 -2.5 173.5t-43 146.5t-85 114t-131 73t-178.5 26q-178 0 -305 -95.5t-187 -261.5h-186q27 82 66.5 154t99 139t133 114.5t172.5 76t213 28.5q171 0 298.5 -57.5t200 -160t101 -237t12.5 -294.5
q-36 -338 -234 -527.5t-503 -189.5zM352 629q-24 -227 89.5 -354.5t328.5 -127.5q206 0 352.5 129t182.5 353h-953z" />
    <glyph glyph-name="uni0218" unicode="&#x218;" horiz-adv-x="1409" 
d="M1296 383q-43 -406 -594 -406q-325 0 -479.5 146.5t-128.5 419.5h189q-28 -206 80.5 -307t349.5 -101q186 0 283 59.5t112 180.5q21 170 -211 241l-334 105q-159 49 -228.5 138.5t-55.5 223.5q19 187 159.5 285t388.5 98q290 0 429.5 -130.5t115.5 -368.5h-188
q23 171 -68.5 257.5t-294.5 86.5q-324 0 -354 -219q-11 -79 34 -133.5t158 -88.5l328 -100q336 -102 309 -387zM315 -432l177 338l155 -51l-176 -338z" />
    <glyph glyph-name="uni0219" unicode="&#x219;" horiz-adv-x="1036" 
d="M508 -25q-110 0 -198 25.5t-150 75t-88 130t-9 183.5h181q-26 -137 53 -203.5t225 -66.5q94 0 147 33.5t66 105.5q10 52 -17.5 86.5t-103.5 63.5l-254 94q-218 80 -182 276q24 126 129.5 194t270.5 68q132 0 227 -38t142.5 -120.5t27.5 -199.5h-180q17 99 -43 158
t-185 59q-85 0 -141.5 -34.5t-65.5 -88.5q-10 -51 18 -86.5t97 -60.5l223 -82q126 -45 182 -116t35 -183q-25 -132 -129.5 -202.5t-277.5 -70.5zM133 -432l176 338l156 -51l-176 -338z" />
    <glyph glyph-name="uni021A" unicode="&#x21a;" horiz-adv-x="1351" 
d="M266 1444h1182l-31 -160h-497l-252 -1284h-185l252 1284h-499zM281 -432l176 338l155 -51l-176 -338z" />
    <glyph glyph-name="uni021B" unicode="&#x21b;" horiz-adv-x="899" 
d="M745 156l-30 -156h-400q-73 0 -101.5 34.5t-14.5 108.5l141 719h-225l30 156h224l51 258l192 55l-61 -313h319l-30 -156h-320l-137 -708zM158 -432l176 338l155 -51l-176 -338z" />
    <glyph glyph-name="uni0237" unicode="&#x237;" horiz-adv-x="622" 
d="M145 -59q33 43 47 76.5t23 86.5l147 758h-215l31 156h266q64 0 91 -27.5t14 -89.5l-160 -829q-11 -51 -25 -84.5t-45 -77.5l-215 -299h-194z" />
    <glyph glyph-name="uni0259" unicode="&#x259;" horiz-adv-x="1204" 
d="M111 477l8 66h807q16 157 -53.5 253.5t-221.5 96.5q-126 0 -213.5 -61t-128.5 -170h-180q24 75 65.5 139t104 119t154.5 86.5t204 31.5q122 0 214 -42t145 -116t74 -172t8 -212q-29 -244 -177 -380t-370 -136q-230 0 -348.5 131t-91.5 366zM279 414q-7 -137 68 -214
t212 -77q128 0 223 77.5t125 213.5h-628z" />
    <glyph glyph-name="circumflex" unicode="&#x2c6;" horiz-adv-x="1019" 
d="M995 1239l-118 -94l-199 192l-275 -192l-90 108l385 267z" />
    <glyph glyph-name="caron" unicode="&#x2c7;" horiz-adv-x="1019" 
d="M346 1427l119 95l199 -193l274 193l90 -109l-385 -264z" />
    <glyph glyph-name="breve" unicode="&#x2d8;" horiz-adv-x="987" 
d="M651 1149q-150 0 -230.5 99t-58.5 261h148q-24 -113 23.5 -166t134.5 -53q89 0 132.5 53t63.5 166h146q-22 -167 -117.5 -263.5t-241.5 -96.5z" />
    <glyph glyph-name="dotaccent" unicode="&#x2d9;" horiz-adv-x="647" 
d="M461 1192q-62 0 -98.5 38.5t-30.5 98.5q7 60 52.5 98.5t107.5 38.5t99.5 -38.5t31.5 -98.5q-6 -59 -53 -98t-109 -39z" />
    <glyph glyph-name="ring" unicode="&#x2da;" horiz-adv-x="788" 
d="M588 1145q-116 0 -182 64.5t-66 160.5q0 95 66 159t182 64t183 -64t67 -159t-67 -160t-183 -65zM481 1370q0 -45 27.5 -70.5t79.5 -25.5q53 0 80.5 25.5t27.5 70.5q0 43 -28 67.5t-80 24.5t-79.5 -24.5t-27.5 -67.5z" />
    <glyph glyph-name="ogonek" unicode="&#x2db;" horiz-adv-x="872" 
d="M559 -248l-29 -147h-403q-83 0 -106.5 53t32.5 125l160 219h152l-179 -252z" />
    <glyph glyph-name="tilde" unicode="&#x2dc;" horiz-adv-x="1064" 
d="M291 1208q43 289 250 289q48 0 89 -17t68 -41t50 -48t47.5 -41t48.5 -17q39 0 66.5 29.5t43.5 114.5h146q-43 -289 -250 -289q-48 0 -89 17t-68 41t-50 48t-47.5 41t-48.5 17q-40 0 -67.5 -30t-43.5 -114h-145z" />
    <glyph glyph-name="hungarumlaut" unicode="&#x2dd;" horiz-adv-x="1107" 
d="M668 1255l358 289l92 -112l-360 -287zM313 1255l361 289l90 -114l-358 -285z" />
    <glyph glyph-name="gravecomb" unicode="&#x300;" 
d="M1001 1315l-59 -131l-610 164l59 131z" />
    <glyph glyph-name="acutecomb" unicode="&#x301;" 
d="M334 1176l-8 145l675 164l7 -146z" />
    <glyph glyph-name="uni0302" unicode="&#x302;" 
d="M995 1239l-118 -94l-199 192l-275 -192l-90 108l385 267z" />
    <glyph glyph-name="tildecomb" unicode="&#x303;" 
d="M291 1208q43 289 250 289q48 0 89 -17t68 -41t50 -48t47.5 -41t48.5 -17q39 0 66.5 29.5t43.5 114.5h146q-43 -289 -250 -289q-48 0 -89 17t-68 41t-50 48t-47.5 41t-48.5 17q-40 0 -67.5 -30t-43.5 -114h-145z" />
    <glyph glyph-name="uni0304" unicode="&#x304;" 
d="M342 1407h680v-145l-680 -2v147z" />
    <glyph glyph-name="uni0306" unicode="&#x306;" 
d="M651 1149q-150 0 -230.5 99t-58.5 261h148q-24 -113 23.5 -166t134.5 -53q89 0 132.5 53t63.5 166h146q-22 -167 -117.5 -263.5t-241.5 -96.5z" />
    <glyph glyph-name="uni0307" unicode="&#x307;" 
d="M461 1192q-62 0 -98.5 38.5t-30.5 98.5q7 60 52.5 98.5t107.5 38.5t99.5 -38.5t31.5 -98.5q-6 -59 -53 -98t-109 -39z" />
    <glyph glyph-name="uni0308" unicode="&#x308;" 
d="M463 1178q-63 0 -102 41t-35 102q6 62 51.5 102.5t109.5 40.5q63 0 103.5 -41t36.5 -102q-6 -61 -53.5 -102t-110.5 -41zM748 1321q6 61 52 102t109 41q64 0 105 -41t35 -102t-53.5 -102t-110.5 -41t-102 41t-35 102z" />
    <glyph glyph-name="uni030A" unicode="&#x30a;" 
d="M588 1145q-116 0 -182 64.5t-66 160.5q0 95 66 159t182 64t183 -64t67 -159t-67 -160t-183 -65zM481 1370q0 -45 27.5 -70.5t79.5 -25.5q53 0 80.5 25.5t27.5 70.5q0 43 -28 67.5t-80 24.5t-79.5 -24.5t-27.5 -67.5z" />
    <glyph glyph-name="uni030B" unicode="&#x30b;" 
d="M668 1255l358 289l92 -112l-360 -287zM313 1255l361 289l90 -114l-358 -285z" />
    <glyph glyph-name="uni030C" unicode="&#x30c;" 
d="M346 1427l119 95l199 -193l274 193l90 -109l-385 -264z" />
    <glyph glyph-name="uni0312" unicode="&#x312;" 
d="M414 1595l157 -43l-108 -376l-156 41z" />
    <glyph glyph-name="uni0326" unicode="&#x326;" 
d="M121 -94l155 -51l-176 -338l-155 51z" />
    <glyph glyph-name="uni0327" unicode="&#x327;" 
d="M23 -252h16q84 0 121.5 1t82.5 7t62 19.5t19 36.5q1 20 -11 30.5t-34 10.5q-54 0 -146 -52l-55 90l104 109h164l-127 -109q67 23 121 23q59 0 96 -28t31 -87q-4 -49 -30 -83t-64 -53t-102 -29.5t-124 -13.5t-151 -3z" />
    <glyph glyph-name="uni0328" unicode="&#x328;" 
d="M559 -248l-29 -147h-403q-83 0 -106.5 53t32.5 125l160 219h152l-179 -252z" />
    <glyph glyph-name="uni0335" unicode="&#x335;" 
d="M279 1389h587l-26 -148h-590z" />
    <glyph glyph-name="uni0337" unicode="&#x337;" 
d="M137 727l735 191l9 -150l-736 -190z" />
    <glyph glyph-name="uni0338" unicode="&#x338;" 
d="M1423 1571l113 -74l-1257 -1626l-111 74z" />
    <glyph glyph-name="uni0400" unicode="&#x400;" horiz-adv-x="1259" 
d="M49 0l283 1444h1003l-30 -160h-820l-94 -483h717l-31 -156h-715l-96 -485h817l-30 -160h-1004zM518 1774l60 131l610 -164l-60 -131z" />
    <glyph glyph-name="uni0401" unicode="&#x401;" horiz-adv-x="1259" 
d="M49 0l283 1444h1003l-30 -160h-820l-94 -483h717l-31 -156h-715l-96 -485h817l-30 -160h-1004zM485 1747q6 62 52 102.5t110 40.5q63 0 103 -41t36 -102q-6 -61 -53 -102t-110 -41t-102.5 41t-35.5 102zM907 1747q6 61 52.5 102t109.5 41q64 0 104.5 -41t34.5 -102
t-53.5 -102t-110.5 -41t-102 41t-35 102z" />
    <glyph glyph-name="uni0402" unicode="&#x402;" horiz-adv-x="1736" 
d="M266 1444h1170l-33 -160h-490l-71 -366h321q265 0 373 -102t88 -337q-10 -120 -52 -209t-102 -141t-144.5 -82.5t-168 -40t-184.5 -6.5l33 160q115 -2 196.5 18.5t130.5 64t74 100.5t33 136q10 86 -3.5 141.5t-55 85.5t-98.5 41t-148 11h-326l-147 -758h-187l252 1284
h-491z" />
    <glyph glyph-name="uni0403" unicode="&#x403;" horiz-adv-x="1122" 
d="M459 1444h780l-31 -160h-725l-250 -1284h-186l258 1315q12 63 52 96t102 33zM459 1747l676 164l6 -146l-674 -163z" />
    <glyph glyph-name="uni0404" unicode="&#x404;" horiz-adv-x="1593" 
d="M764 -23q-159 0 -283 57t-199 157t-106.5 236.5t-13.5 295.5q24 212 123 379.5t267 265.5t378 98q277 0 435.5 -155.5t160.5 -423.5h-189q0 200 -108.5 309t-310.5 109q-222 0 -367.5 -138t-190.5 -372h613l-27 -148h-602q-11 -234 99.5 -371t330.5 -137q204 0 339 110
t185 310h189q-62 -271 -254.5 -426.5t-468.5 -155.5z" />
    <glyph glyph-name="uni0405" unicode="&#x405;" horiz-adv-x="1409" 
d="M1296 383q-43 -406 -594 -406q-325 0 -479.5 146.5t-128.5 419.5h189q-28 -206 80.5 -307t349.5 -101q186 0 283 59.5t112 180.5q21 170 -211 241l-334 105q-159 49 -228.5 138.5t-55.5 223.5q19 187 159.5 285t388.5 98q290 0 429.5 -130.5t115.5 -368.5h-188
q23 171 -68.5 257.5t-294.5 86.5q-324 0 -354 -219q-11 -79 34 -133.5t158 -88.5l328 -100q336 -102 309 -387z" />
    <glyph glyph-name="uni0406" unicode="&#x406;" horiz-adv-x="1085" 
d="M309 1444h832l-31 -160h-324l-221 -1124h326l-33 -160h-831l30 160h324l221 1124h-323z" />
    <glyph glyph-name="uni0407" unicode="&#x407;" horiz-adv-x="1085" 
d="M309 1444h832l-31 -160h-324l-221 -1124h326l-33 -160h-831l30 160h324l221 1124h-323zM422 1747q6 62 52 102.5t110 40.5q63 0 103 -41t36 -102q-6 -61 -53.5 -102t-110.5 -41t-102 41t-35 102zM844 1747q6 61 52.5 102t109.5 41q64 0 104.5 -41t34.5 -102t-53.5 -102
t-110.5 -41t-102 41t-35 102z" />
    <glyph glyph-name="uni0408" unicode="&#x408;" horiz-adv-x="1114" 
d="M479 0h-510l31 160h467q147 0 225 87.5t111 258.5l151 778h-528l31 160h573q78 0 103.5 -29.5t11.5 -103.5l-166 -856q-44 -221 -172.5 -338t-327.5 -117z" />
    <glyph glyph-name="uni0409" unicode="&#x409;" horiz-adv-x="2242" 
d="M-4 160q47 2 86 12.5t74 38t63 54.5t56.5 84.5t49.5 104.5t46.5 138.5t43.5 162t45.5 199t46.5 225.5t52 265h899l-104 -543h258q105 0 184 -11t148.5 -41t111.5 -79t61 -128.5t9 -186.5q-11 -110 -45.5 -190.5t-86 -131t-126.5 -80.5t-156.5 -41.5t-187.5 -11.5h-533
l250 1284h-526q-38 -193 -66 -322.5t-63 -267.5t-67 -224.5t-74 -173.5t-88 -135.5t-105.5 -88.5t-129.5 -56t-157 -16zM1208 156h334q73 0 127.5 7.5t103.5 27.5t82 53.5t55.5 86t31.5 124.5q9 88 -8.5 146t-64 89t-108 43t-153.5 12h-285l-31 -151z" />
    <glyph glyph-name="uni040A" unicode="&#x40a;" horiz-adv-x="2310" 
d="M332 1444h184l-127 -651h825l127 651h187l-107 -543h258q105 0 184 -11t148.5 -41t111.5 -79t61 -128.5t9 -186.5q-11 -110 -45.5 -190.5t-86 -131t-126.5 -80.5t-156.5 -41.5t-187.5 -11.5h-532l123 631h-826l-123 -631h-184zM1276 156h334q91 0 155.5 12.5t118 45
t84 92t41.5 149.5q9 88 -8.5 146t-64 89t-108 43t-153.5 12h-284z" />
    <glyph glyph-name="uni040B" unicode="&#x40b;" horiz-adv-x="1873" 
d="M1444 0l147 754h-776l-147 -754h-185l252 1284h-499l30 160h1182l-31 -160h-497l-72 -366h846q115 0 92 -117l-156 -801h-186z" />
    <glyph glyph-name="uni040C" unicode="&#x40c;" horiz-adv-x="1370" 
d="M49 0l281 1444h186l-125 -639h90l566 561q44 41 82.5 60.5t87.5 19.5h264l-31 -160h-248l-561 -557l549 -729h-236l-501 659h-91l-129 -659h-184zM582 1747l675 164l7 -146l-674 -163z" />
    <glyph glyph-name="uni040D" unicode="&#x40d;" horiz-adv-x="1562" 
d="M1315 0h-187l248 1264l23 114l-1006 -1378h-344l283 1444h184l-246 -1264l-22 -114l1005 1378h344zM694 1774l60 131l610 -164l-59 -131z" />
    <glyph glyph-name="uni040F" unicode="&#x40f;" horiz-adv-x="1421" 
d="M49 0l281 1444h184l-250 -1284h756l250 1284h186l-280 -1444h-471l-52 -272h-186l53 272h-471z" />
    <glyph glyph-name="uni0410" unicode="&#x410;" horiz-adv-x="1429" 
d="M-43 0l776 1444h334l207 -1444h-189l-79 553h-555l-297 -553h-197zM537 713h446l-94 659z" />
    <glyph glyph-name="uni0411" unicode="&#x411;" horiz-adv-x="1306" 
d="M1272 1444l-29 -160h-758l-73 -383h258q105 0 184 -11t148.5 -41t111.5 -79t61 -128.5t9 -186.5q-11 -110 -45.5 -190.5t-86 -131t-126.5 -80.5t-156.5 -41.5t-187.5 -11.5h-533l283 1444h940zM264 156h336q91 0 155.5 12.5t118 45t84 92t41.5 149.5q9 88 -8.5 146
t-64 89t-107.5 43t-153 12h-285z" />
    <glyph glyph-name="uni0412" unicode="&#x412;" horiz-adv-x="1419" 
d="M49 0l283 1444h444q142 0 239.5 -16t169.5 -55t102.5 -109t23.5 -174q-8 -98 -54.5 -172t-113 -113.5t-146.5 -48.5q143 -25 220.5 -119t60.5 -254q-13 -108 -61.5 -184t-131.5 -119t-186.5 -61.5t-241.5 -18.5h-608zM266 156h408q79 0 135.5 6t109 22t86.5 45t58 75.5
t33 111.5q19 148 -70 205t-285 57h-372zM395 825h328q73 0 125 5t102.5 19t82.5 39.5t55 68t30 102.5q9 64 -3.5 108t-36.5 68.5t-74 37.5t-97.5 16t-126.5 3h-293z" />
    <glyph glyph-name="uni0413" unicode="&#x413;" horiz-adv-x="1122" 
d="M459 1444h780l-31 -160h-725l-250 -1284h-186l258 1315q12 63 52 96t102 33z" />
    <glyph glyph-name="uni0414" unicode="&#x414;" horiz-adv-x="1630" 
d="M1524 1444l-31 -160l-219 -1124h86q63 0 89.5 -33.5t14.5 -95.5l-57 -303h-186l51 272h-1133l-51 -272h-186l59 303q12 63 52 96t102 33h69q142 232 242 530.5t190 753.5h908zM369 160h718l222 1124h-539q-82 -385 -176 -649t-225 -475z" />
    <glyph glyph-name="uni0415" unicode="&#x415;" horiz-adv-x="1259" 
d="M49 0l283 1444h1003l-30 -160h-820l-94 -483h717l-31 -156h-715l-96 -485h817l-30 -160h-1004z" />
    <glyph glyph-name="uni0416" unicode="&#x416;" horiz-adv-x="2091" 
d="M1704 0l-455 655h-82l-129 -655h-184l127 655h-82l-672 -655h-260l778 760l-288 526h-250l33 160h235q103 0 148 -80l305 -555h84l123 633h186l-123 -633h84l490 555q74 80 174 80h270l-31 -160h-246l-501 -571l487 -715h-221z" />
    <glyph glyph-name="uni0417" unicode="&#x417;" horiz-adv-x="1388" 
d="M307 551q-34 -221 54 -317.5t292 -96.5q194 0 295.5 76.5t112.5 216.5q10 125 -55 188.5t-189 63.5h-174l29 154h225q124 0 190.5 56.5t79.5 154.5q7 57 -6.5 102.5t-49.5 81.5t-105.5 56t-167.5 20q-196 0 -299 -83t-131 -255h-185q29 244 190 370.5t443 126.5
q254 0 384.5 -103t119.5 -280q-8 -133 -94.5 -226t-225.5 -105q103 -36 160 -124.5t43 -221.5q-20 -201 -177 -315t-423 -114q-287 0 -425 140.5t-97 433.5h186z" />
    <glyph glyph-name="uni0418" unicode="&#x418;" horiz-adv-x="1562" 
d="M1315 0h-187l248 1264l23 114l-1006 -1378h-344l283 1444h184l-246 -1264l-22 -114l1005 1378h344z" />
    <glyph glyph-name="uni0419" unicode="&#x419;" horiz-adv-x="1562" 
d="M1315 0h-187l248 1264l23 114l-1006 -1378h-344l283 1444h184l-246 -1264l-22 -114l1005 1378h344zM735 1935h148q-24 -113 23 -166t134 -53q89 0 133 53t64 166h145q-22 -167 -117.5 -263.5t-240.5 -96.5q-150 0 -230.5 99t-58.5 261z" />
    <glyph glyph-name="uni041A" unicode="&#x41a;" horiz-adv-x="1370" 
d="M49 0l281 1444h186l-125 -639h90l566 561q44 41 82.5 60.5t87.5 19.5h264l-31 -160h-248l-561 -557l549 -729h-236l-501 659h-91l-129 -659h-184z" />
    <glyph glyph-name="uni041B" unicode="&#x41b;" horiz-adv-x="1423" 
d="M-4 160q47 2 86 12.5t74 38t63 54.5t56.5 84.5t49.5 104.5t46.5 138.5t43.5 162t45.5 199t46.5 225.5t52 265h899l-280 -1444h-187l250 1284h-526q-38 -193 -66 -322.5t-63 -267.5t-67 -224.5t-74 -173.5t-88 -135.5t-105.5 -88.5t-129.5 -56t-157 -16z" />
    <glyph glyph-name="uni041C" unicode="&#x41c;" horiz-adv-x="1859" 
d="M49 0l283 1444h340l168 -1376l706 1376h348l-282 -1444h-187l230 1176l39 192l-715 -1368h-297l-180 1368l-39 -192l-230 -1176h-184z" />
    <glyph glyph-name="uni041D" unicode="&#x41d;" horiz-adv-x="1501" 
d="M332 1444h184l-127 -651h825l127 651h187l-283 -1444h-186l123 631h-826l-123 -631h-184z" />
    <glyph glyph-name="uni041E" unicode="&#x41e;" horiz-adv-x="1605" 
d="M164 723q19 212 115 379.5t262.5 265.5t376.5 98q156 0 279.5 -57t199.5 -156.5t110 -235.5t19 -294q-15 -159 -74.5 -295.5t-155 -236.5t-230.5 -157t-292 -57t-280.5 57t-200 157t-110.5 236.5t-19 295.5zM352 723q-19 -173 20 -302.5t143.5 -205.5t266.5 -76
q241 0 383.5 159.5t171.5 424.5q19 172 -19.5 301t-142.5 205t-266 76t-283 -76t-188 -205t-86 -301z" />
    <glyph glyph-name="uni041F" unicode="&#x41f;" horiz-adv-x="1413" 
d="M332 1444h1114l-283 -1444h-184l252 1284h-746l-252 -1284h-184z" />
    <glyph glyph-name="uni0420" unicode="&#x420;" horiz-adv-x="1271" 
d="M49 0l283 1444h184l-283 -1444h-184zM330 487l30 160h258q77 0 135.5 7t116 27.5t97 55t68.5 92.5t40 138q5 50 5.5 90.5t-12 72t-28 55.5t-43 41t-56 28.5t-67 18t-77 9t-86.5 2.5h-226l31 160h203q149 0 253 -23t177 -77t100.5 -148t10.5 -231q-17 -135 -68 -229
t-137.5 -148t-197 -77.5t-259.5 -23.5h-268z" />
    <glyph glyph-name="uni0421" unicode="&#x421;" horiz-adv-x="1593" 
d="M764 -23q-159 0 -283 57t-199 157t-106.5 236.5t-13.5 295.5q24 212 123 379.5t267 265.5t378 98q277 0 435.5 -155.5t160.5 -423.5h-189q0 200 -108.5 309t-310.5 109q-238 0 -387 -159t-181 -421q-22 -175 17.5 -305.5t143 -205.5t263.5 -75q204 0 339 110t185 310h189
q-62 -271 -254.5 -426.5t-468.5 -155.5z" />
    <glyph glyph-name="uni0422" unicode="&#x422;" horiz-adv-x="1351" 
d="M266 1444h1182l-31 -160h-497l-252 -1284h-185l252 1284h-499z" />
    <glyph glyph-name="uni0423" unicode="&#x423;" horiz-adv-x="1325" 
d="M1241 1444h207l-694 -1008l-21 -108l-39 -199q-25 -129 -170 -129l-450 2l30 160l410 -2l33 168l20 108l-301 1008h185l239 -819z" />
    <glyph glyph-name="uni0424" unicode="&#x424;" horiz-adv-x="1695" 
d="M946 1456h168l-39 -205q296 -26 440.5 -160t131.5 -372q-15 -266 -213 -402.5t-566 -138.5l-37 -190h-169l38 196q-296 26 -441 160t-130 375q34 535 778 538zM317 719q-17 -182 85.5 -271.5t326.5 -107.5l148 760q-269 -6 -405.5 -95t-154.5 -286zM899 336
q270 6 406 96.5t153 286.5q15 181 -87 270t-327 107z" />
    <glyph glyph-name="uni0425" unicode="&#x425;" horiz-adv-x="1400" 
d="M1251 0h-196l-326 637l-555 -637h-223l643 737l-361 707h197l328 -633l553 633h223l-645 -735z" />
    <glyph glyph-name="uni0426" unicode="&#x426;" horiz-adv-x="1445" 
d="M49 0l283 1444h184l-252 -1284h746l252 1284h184l-252 -1284h88q63 0 89.5 -33.5t14.5 -95.5l-57 -303h-186l51 272h-1145z" />
    <glyph glyph-name="uni0427" unicode="&#x427;" horiz-adv-x="1441" 
d="M328 1444h186l-156 -791h777l-21 -110l176 901h187l-283 -1444h-186l96 489h-848q-115 0 -92 117z" />
    <glyph glyph-name="uni0428" unicode="&#x428;" horiz-adv-x="1953" 
d="M49 0l283 1444h184l-252 -1284h551l252 1284h184l-252 -1284h551l252 1284h185l-283 -1444h-1655z" />
    <glyph glyph-name="uni0429" unicode="&#x429;" horiz-adv-x="1986" 
d="M49 0l283 1444h184l-252 -1284h551l252 1284h184l-252 -1284h551l252 1284h185l-252 -1284h129q63 0 89.5 -33.5t14.5 -95.5l-57 -303h-187l52 272h-1727z" />
    <glyph glyph-name="uni042A" unicode="&#x42a;" horiz-adv-x="1339" 
d="M555 1444l-104 -543h258q105 0 184 -11t148.5 -41t111.5 -79t61 -128.5t9 -186.5q-11 -110 -45.5 -190.5t-86 -131t-126.5 -80.5t-156.5 -41.5t-187.5 -11.5h-533l252 1284h-256l31 160h440zM303 156h336q91 0 155.5 12.5t118 45t84 92t41.5 149.5q9 88 -8.5 146t-64 89
t-107.5 43t-153 12h-285z" />
    <glyph glyph-name="uni042B" unicode="&#x42b;" horiz-adv-x="1777" 
d="M516 1444l-104 -543h258q105 0 184 -11t148.5 -41t111.5 -79t61 -128.5t9 -186.5q-11 -110 -45.5 -190.5t-86 -131t-126.5 -80.5t-156.5 -41.5t-187.5 -11.5h-533l283 1444h184zM264 156h336q91 0 155.5 12.5t118 45t84 92t41.5 149.5q9 88 -8.5 146t-64 89t-107.5 43
t-153 12h-285zM1350 0l282 1444h180l-282 -1444h-180z" />
    <glyph glyph-name="uni042C" unicode="&#x42c;" horiz-adv-x="1300" 
d="M516 1444l-104 -543h258q105 0 184 -11t148.5 -41t111.5 -79t61 -128.5t9 -186.5q-11 -110 -45.5 -190.5t-86 -131t-126.5 -80.5t-156.5 -41.5t-187.5 -11.5h-533l283 1444h184zM264 156h336q91 0 155.5 12.5t118 45t84 92t41.5 149.5q9 88 -8.5 146t-64 89t-107.5 43
t-153 12h-285z" />
    <glyph glyph-name="uni042D" unicode="&#x42d;" horiz-adv-x="1593" 
d="M911 1466q159 0 283 -57t199 -156.5t106.5 -236t13.5 -295.5q-24 -212 -123 -379.5t-267 -266t-378 -98.5q-277 0 -435 156t-160 424h188q0 -200 109 -309t311 -109q222 0 366.5 138t190.5 372h-613l27 148h602q11 234 -99.5 371t-330.5 137q-204 0 -339 -110t-185 -310
h-189q62 271 254.5 426t468.5 155z" />
    <glyph glyph-name="uni042E" unicode="&#x42e;" horiz-adv-x="1929" 
d="M791 723q-10 -96 -7.5 -182.5t28 -159.5t68.5 -126.5t113.5 -83.5t163.5 -30q216 0 345 157t163 425q10 99 7 185.5t-28.5 159.5t-68.5 125t-113 81t-162 29q-147 0 -256.5 -75.5t-170.5 -203.5t-82 -301zM49 0l283 1444h186l-125 -639h219q54 299 236 480t463 181
q202 0 334 -98t182 -263.5t24 -381.5q-19 -162 -74.5 -297.5t-143.5 -236t-213.5 -156.5t-276.5 -56q-190 0 -319 86.5t-184.5 234t-45.5 343.5h-234l-124 -641h-187z" />
    <glyph glyph-name="uni042F" unicode="&#x42f;" horiz-adv-x="1323" 
d="M1075 0h-186l129 655h-250h-25l-348 -569q-56 -86 -170 -86h-252l31 160h234l307 512q-108 18 -176.5 60t-101.5 122t-21 197q11 114 57 192t126.5 121.5t180 61.5t236.5 18h512zM430 1051q-8 -62 3 -106t36 -70.5t72 -41t98 -19.5t127 -5h281l94 481h-316q-75 0 -128 -5
t-102.5 -19.5t-81 -41t-53.5 -69.5t-30 -104z" />
    <glyph glyph-name="uni0430" unicode="&#x430;" horiz-adv-x="1226" 
d="M63 279q13 269 357 301l446 38q15 138 -48.5 206.5t-194.5 68.5q-118 0 -186.5 -56.5t-100.5 -181.5h-180q39 179 161.5 282t311.5 103q108 0 192.5 -32.5t140.5 -96t75.5 -158t-3.5 -218.5l-73 -379h149l-29 -156h-186q-59 0 -85.5 32.5t-14.5 90.5l8 49l16 78
q-23 -46 -47 -82t-61 -72.5t-80 -61t-104 -39.5t-134 -15q-87 0 -151 21.5t-98 52.5t-54 74.5t-24.5 78.5t-2.5 72zM248 307q-13 -89 36.5 -133.5t143.5 -44.5q156 0 272 103.5t144 256.5l-389 -38q-99 -9 -148 -41t-59 -103z" />
    <glyph glyph-name="uni0431" unicode="&#x431;" horiz-adv-x="1318" 
d="M160 696q27 151 80 260.5t136.5 185t189.5 121.5t251 76q142 29 208.5 53t92 51t47.5 83h217q-14 -51 -37.5 -92t-47.5 -69t-63.5 -51.5t-68.5 -37t-82 -26.5t-83 -18.5t-91.5 -16t-89.5 -15.5q-219 -42 -342.5 -138.5t-161.5 -283.5q66 123 177.5 191.5t261.5 68.5
q234 0 362 -158t86 -415q-35 -221 -180.5 -354.5t-386.5 -133.5q-192 0 -313 91t-160.5 252t-1.5 376zM313 555q-35 -184 60 -302t272 -118q154 0 252.5 90t128.5 250q18 103 1 179.5t-63.5 127.5t-113.5 76t-150 25q-159 0 -258.5 -89.5t-128.5 -238.5z" />
    <glyph glyph-name="uni0432" unicode="&#x432;" horiz-adv-x="1134" 
d="M45 0l199 1018h407q98 0 167.5 -11t123.5 -38.5t77.5 -78.5t16.5 -126q-13 -104 -78.5 -161.5t-158.5 -70.5q110 -14 169 -78.5t46 -181.5q-31 -272 -443 -272h-526zM242 129h344q124 0 186 37t72 125q12 97 -41 135.5t-174 38.5h-324zM332 592h266q65 0 106 5.5t75.5 21
t52.5 46.5t24 80q10 81 -41.5 113.5t-177.5 32.5h-248z" />
    <glyph glyph-name="uni0433" unicode="&#x433;" horiz-adv-x="913" 
d="M219 877q23 141 170 141h574l-29 -156h-539l-166 -862h-182z" />
    <glyph glyph-name="uni0434" unicode="&#x434;" horiz-adv-x="1372" 
d="M1210 1018l-168 -862h84q62 0 88.5 -33t14.5 -94l-58 -299h-182l53 270h-899l-51 -270h-182l59 299q10 61 50 94t102 33h59q112 162 185.5 362t132.5 500h712zM358 156h506l137 710h-356q-54 -235 -121.5 -402t-165.5 -308z" />
    <glyph glyph-name="uni0435" unicode="&#x435;" horiz-adv-x="1204" 
d="M106 522q29 244 177 380t370 136q230 0 349 -131t92 -366l-9 -66h-806q-16 -157 53 -253.5t221 -96.5q126 0 213.5 61t128.5 170h180q-24 -75 -65.5 -139t-104 -119t-154.5 -86.5t-204 -31.5q-122 0 -214 42t-145 116t-74 172t-8 212zM297 604h629q7 137 -68 214t-213 77
q-128 0 -223 -77.5t-125 -213.5z" />
    <glyph glyph-name="uni0436" unicode="&#x436;" horiz-adv-x="1654" 
d="M1018 1018l-84 -428h43l354 352q79 76 166 76h178l-28 -156h-166l-355 -358l375 -504h-209l-329 440h-58l-86 -440h-180l86 440h-55l-473 -440h-240l575 535l-221 327h-166l31 156h148q50 0 83 -18.5t60 -57.5l242 -352h45l82 428h182z" />
    <glyph glyph-name="uni0437" unicode="&#x437;" horiz-adv-x="1138" 
d="M268 397q-23 -149 41 -216.5t217 -67.5q263 0 273 192q6 83 -40.5 125.5t-150.5 42.5h-112l24 129h154q94 0 143.5 40.5t54.5 111.5q5 73 -49.5 112t-177.5 39q-144 0 -212.5 -52t-84.5 -153h-174q22 163 141 250.5t336 87.5q204 0 304 -73.5t94 -196.5
q-4 -96 -71.5 -161.5t-168.5 -76.5q79 -25 124 -85.5t38 -155.5q-9 -143 -127 -226t-328 -83q-226 0 -339 103t-83 314h174z" />
    <glyph glyph-name="uni0438" unicode="&#x438;" horiz-adv-x="1288" 
d="M1044 0h-174l168 864l19 88l-692 -952h-320l199 1018h170l-166 -858l-19 -92l695 950h317z" />
    <glyph glyph-name="uni0439" unicode="&#x439;" horiz-adv-x="1288" 
d="M1044 0h-174l168 864l19 88l-692 -952h-320l199 1018h170l-166 -858l-19 -92l695 950h317zM514 1509h148q-24 -113 23 -166t134 -53q89 0 133 53t64 166h145q-22 -167 -117.5 -263.5t-240.5 -96.5q-150 0 -230.5 99t-58.5 261z" />
    <glyph glyph-name="uni043A" unicode="&#x43a;" horiz-adv-x="1079" 
d="M244 1018h180l-84 -432h61l355 356q79 76 170 76h170l-29 -156h-166l-352 -352l375 -510h-215l-324 440h-74l-84 -440h-182z" />
    <glyph glyph-name="uni043B" unicode="&#x43b;" horiz-adv-x="1193" 
d="M1147 1018l-197 -1018h-182l168 862h-391q-21 -104 -36.5 -176.5t-34.5 -152.5t-36 -133.5t-38.5 -110.5t-43.5 -93t-50 -72t-58.5 -56.5t-69 -37.5t-82.5 -23.5t-96 -6.5l31 156q37 0 66.5 9t55 31.5t45 53.5t39.5 83.5t36.5 112.5t36 149.5t38.5 184.5t45 227q1 7 2 11
h752z" />
    <glyph glyph-name="uni043C" unicode="&#x43c;" horiz-adv-x="1519" 
d="M45 0l199 1018h338l75 -967h17l448 967h351l-197 -1018h-172l186 969h-10l-455 -969h-331l-78 969h-13l-186 -969h-172z" />
    <glyph glyph-name="uni043D" unicode="&#x43d;" horiz-adv-x="1220" 
d="M160 588l84 430h180l-84 -430h565l84 430h182l-84 -432l-30 -154l-84 -432h-180l84 432h-566l-84 -432h-182l84 432z" />
    <glyph glyph-name="uni043E" unicode="&#x43e;" horiz-adv-x="1296" 
d="M106 510q15 229 175 378.5t401 149.5q239 0 380 -150t126 -378q-14 -230 -173 -380t-399 -150t-382 150t-128 380zM289 510q-9 -162 80 -268.5t258 -106.5q167 0 268.5 106.5t112.5 268.5q9 160 -80 266.5t-256 106.5q-169 0 -271.5 -106.5t-111.5 -266.5z" />
    <glyph glyph-name="uni043F" unicode="&#x43f;" horiz-adv-x="1148" 
d="M244 1018h858l-197 -1018h-182l168 862h-498l-166 -862h-182l168 862z" />
    <glyph glyph-name="uni0440" unicode="&#x440;" horiz-adv-x="1339" 
d="M-29 -397l273 1415h180l-27 -139l-12 -60q146 223 422 223q158 0 265 -75.5t147.5 -204.5t11.5 -291q-38 -217 -177.5 -353t-344.5 -136q-101 0 -187 33t-150.5 106t-86.5 178l-31 -156l-100 -540h-183zM338 555q-18 -100 0 -177t66 -129.5t117 -80t153 -27.5
q92 0 167.5 35t131.5 112t78 189q38 197 -54 304.5t-262 107.5q-149 0 -256.5 -85.5t-140.5 -248.5z" />
    <glyph glyph-name="uni0441" unicode="&#x441;" horiz-adv-x="1214" 
d="M111 553q38 214 187.5 350.5t365.5 136.5q93 0 175.5 -27t147 -77t101.5 -129.5t36 -177.5h-182q-1 123 -78.5 188.5t-201.5 65.5q-150 0 -246.5 -95t-124.5 -245q-22 -113 2 -205t100 -149.5t195 -57.5q243 0 317 258h185q-17 -87 -56 -158t-90.5 -118t-115 -78.5
t-128 -45.5t-131.5 -14q-114 0 -209 42.5t-157.5 117t-88 183.5t-3.5 235z" />
    <glyph glyph-name="uni0442" unicode="&#x442;" horiz-adv-x="1122" 
d="M184 1018h951l-29 -156h-385l-168 -862h-180l166 862h-383z" />
    <glyph glyph-name="uni0443" unicode="&#x443;" horiz-adv-x="1153" 
d="M1006 1018h206l-641 -1004l-10 -61l-45 -236q-21 -116 -139 -116h-432l30 159h367l37 193l10 61l-250 1004h191l184 -795z" />
    <glyph glyph-name="uni0444" unicode="&#x444;" horiz-adv-x="1525" 
d="M848 1382h172l-68 -352q245 -33 366.5 -174t102.5 -346q-23 -228 -199 -374.5t-474 -155.5l-68 -349h-172l70 357q-247 33 -370 175t-104 347q23 228 199.5 373.5t476.5 154.5zM287 510q-18 -148 60 -246.5t259 -122.5l144 740q-213 -13 -329 -113t-134 -258zM778 137
q210 13 325.5 114t135.5 259q18 148 -59.5 245.5t-257.5 121.5z" />
    <glyph glyph-name="uni0445" unicode="&#x445;" horiz-adv-x="1198" 
d="M-33 0l473 522l-276 496h198l234 -430l387 430h215l-473 -516l274 -502h-200l-232 430l-387 -430h-213z" />
    <glyph glyph-name="uni0446" unicode="&#x446;" horiz-adv-x="1189" 
d="M47 0l197 1018h182l-168 -862h498l166 862h182l-168 -862h86q61 0 87.5 -32.5t14.5 -94.5l-57 -299h-182l53 270h-891z" />
    <glyph glyph-name="uni0447" unicode="&#x447;" horiz-adv-x="1245" 
d="M240 1018h180l-98 -504h598l98 504h180l-197 -1018h-182l70 354h-664q-115 0 -94 103z" />
    <glyph glyph-name="uni0448" unicode="&#x448;" horiz-adv-x="1570" 
d="M45 0l199 1018h180l-166 -862h369l168 862h180l-166 -862h369l168 862h180l-197 -1018h-1284z" />
    <glyph glyph-name="uni0449" unicode="&#x449;" horiz-adv-x="1613" 
d="M45 0l199 1018h180l-166 -862h369l168 862h180l-166 -862h369l168 862h180l-166 -862h86q61 0 87.5 -32.5t14.5 -94.5l-57 -299h-182l53 270h-1317z" />
    <glyph glyph-name="uni044A" unicode="&#x44a;" horiz-adv-x="1130" 
d="M590 733q97 0 171 -17t133.5 -57t87 -113.5t17.5 -178.5q-34 -367 -477 -367h-442l170 866h-256l29 156h436v-4l-15 -76l-14 -76l-27 -133h187zM291 152h217q57 0 95 3.5t78.5 16t65.5 35.5t44 63t26 97t-1.5 96.5t-28 62.5t-56 36t-74.5 16.5t-94 3.5h-190z" />
    <glyph glyph-name="uni044B" unicode="&#x44b;" horiz-adv-x="1525" 
d="M555 733q77 0 139 -10t117.5 -35.5t91 -66.5t53 -105.5t9.5 -148.5q-34 -367 -478 -367h-442l199 1018h180l-55 -285h186zM256 152h217q57 0 95 3.5t78.5 16t65.5 35.5t44 63t26 97t-1.5 96.5t-28 62.5t-56 36t-74.5 16.5t-94 3.5h-190zM1120 0l199 1018h180l-196 -1018
h-183z" />
    <glyph glyph-name="uni044C" unicode="&#x44c;" horiz-adv-x="1095" 
d="M555 733q77 0 139 -10t117.5 -35.5t91 -66.5t53 -105.5t9.5 -148.5q-34 -367 -478 -367h-442l199 1018h180l-55 -285h186zM256 152h217q57 0 95 3.5t78.5 16t65.5 35.5t44 63t26 97t-1.5 96.5t-28 62.5t-56 36t-74.5 16.5t-94 3.5h-190z" />
    <glyph glyph-name="uni044D" unicode="&#x44d;" horiz-adv-x="1214" 
d="M1104 465q-38 -215 -187.5 -351.5t-365.5 -136.5q-125 0 -228.5 45.5t-169 141t-63.5 225.5h182q1 -123 79 -188.5t202 -65.5q143 0 238 87t127 227h-463l22 126h457q0 138 -79 225t-228 87q-244 0 -318 -258h-184q21 108 75 190.5t127.5 129.5t153.5 70t164 23
q114 0 209 -42.5t158 -116.5t88.5 -183t3.5 -235z" />
    <glyph glyph-name="uni044E" unicode="&#x44e;" horiz-adv-x="1646" 
d="M999 -20q-109 0 -195 34.5t-140.5 96.5t-83 143t-29.5 178h-240l-84 -432h-182l199 1018h180l-84 -430h223q40 200 179 325t356 125q159 0 265.5 -72t149.5 -189.5t29 -266.5q-10 -111 -50.5 -206t-107 -168t-166 -114.5t-219.5 -41.5zM733 510q-12 -78 0 -146.5
t41.5 -119.5t89 -80t142.5 -29q161 0 248.5 103t107.5 272q12 78 0.5 146t-41 118.5t-88 79.5t-141.5 29q-162 0 -250.5 -102.5t-108.5 -270.5z" />
    <glyph glyph-name="uni044F" unicode="&#x44f;" horiz-adv-x="1040" 
d="M797 0h-181l86 440h-200l-250 -358q-64 -82 -168 -82h-141l28 145h148l196 306q-118 21 -173.5 86.5t-43.5 189.5q7 66 29.5 116.5t57.5 83.5t84.5 53.5t105 29t125.5 8.5h495zM281 729q-11 -86 33.5 -127t150.5 -41h260l66 340h-285q-207 0 -225 -172z" />
    <glyph glyph-name="uni0450" unicode="&#x450;" horiz-adv-x="1204" 
d="M1112 1315l-59 -131l-611 164l60 131zM106 522q29 244 177 380t370 136q230 0 349 -131t92 -366l-9 -66h-806q-16 -157 53 -253.5t221 -96.5q126 0 213.5 61t128.5 170h180q-24 -75 -65.5 -139t-104 -119t-154.5 -86.5t-204 -31.5q-122 0 -214 42t-145 116t-74 172
t-8 212zM297 604h629q7 137 -68 214t-213 77q-128 0 -223 -77.5t-125 -213.5z" />
    <glyph glyph-name="uni0451" unicode="&#x451;" horiz-adv-x="1204" 
d="M547 1178q-63 0 -102 41t-35 102q6 62 51.5 102.5t109.5 40.5q63 0 103.5 -41t36.5 -102q-6 -61 -53.5 -102t-110.5 -41zM106 522q29 244 177 380t370 136q230 0 349 -131t92 -366l-9 -66h-806q-16 -157 53 -253.5t221 -96.5q126 0 213.5 61t128.5 170h180
q-24 -75 -65.5 -139t-104 -119t-154.5 -86.5t-204 -31.5q-122 0 -214 42t-145 116t-74 172t-8 212zM297 604h629q7 137 -68 214t-213 77q-128 0 -223 -77.5t-125 -213.5zM831 1321q6 61 52.5 102t109.5 41q64 0 105 -41t35 -102t-53.5 -102t-110.5 -41t-102.5 41t-35.5 102z
" />
    <glyph glyph-name="uni0452" unicode="&#x452;" horiz-adv-x="1265" 
d="M68 0l239 1243h-117l29 148h117l22 114h183l-23 -114h289l-27 -148h-291l-67 -354l-23 -107q63 122 167 189t243 67q205 0 296 -124.5t48 -344.5l-109 -569l-53 -272q-24 -125 -168 -125h-403l29 155h364l47 242l111 565q31 163 -27.5 240.5t-208.5 77.5
q-148 0 -253 -110t-142 -302l-90 -471h-182z" />
    <glyph glyph-name="uni0453" unicode="&#x453;" horiz-adv-x="921" 
d="M221 877q23 141 170 141h574l-29 -156h-539l-166 -862h-182zM342 1321l676 164l6 -146l-674 -163z" />
    <glyph glyph-name="uni0454" unicode="&#x454;" horiz-adv-x="1214" 
d="M111 553q38 214 187.5 350.5t365.5 136.5q93 0 175.5 -27t147 -77t101.5 -129.5t36 -177.5h-182q-1 123 -78.5 188.5t-201.5 65.5q-143 0 -238 -87t-127 -227h463l-23 -127h-456q0 -138 79 -224.5t228 -86.5q243 0 317 258h185q-17 -87 -56 -158t-90.5 -118t-115 -78.5
t-128 -45.5t-131.5 -14q-114 0 -209 42.5t-157.5 117t-88 183.5t-3.5 235z" />
    <glyph glyph-name="uni0455" unicode="&#x455;" horiz-adv-x="1036" 
d="M508 -25q-110 0 -198 25.5t-150 75t-88 130t-9 183.5h181q-26 -137 53 -203.5t225 -66.5q94 0 147 33.5t66 105.5q10 52 -17.5 86.5t-103.5 63.5l-254 94q-218 80 -182 276q24 126 129.5 194t270.5 68q132 0 227 -38t142.5 -120.5t27.5 -199.5h-180q17 99 -43 158
t-185 59q-85 0 -141.5 -34.5t-65.5 -88.5q-10 -51 18 -86.5t97 -60.5l223 -82q126 -45 182 -116t35 -183q-25 -132 -129.5 -202.5t-277.5 -70.5z" />
    <glyph glyph-name="uni0456" unicode="&#x456;" horiz-adv-x="907" 
d="M8 0l31 156h283l137 706h-211l31 156h262q58 0 81 -28.5t11 -90.5l-144 -743h285l-31 -156h-735zM467 1329q7 60 52.5 98.5t107.5 38.5t99.5 -38.5t31.5 -98.5q-6 -59 -53 -98t-109 -39t-98.5 38.5t-30.5 98.5z" />
    <glyph glyph-name="uni0457" unicode="&#x457;" horiz-adv-x="907" 
d="M8 0l31 156h283l137 706h-211l31 156h262q58 0 81 -28.5t11 -90.5l-144 -743h285l-31 -156h-735zM250 1321q6 62 52 102.5t110 40.5q63 0 103 -41t36 -102q-6 -61 -53.5 -102t-110.5 -41t-102 41t-35 102zM672 1321q6 61 52.5 102t109.5 41q64 0 104.5 -41t34.5 -102
t-53.5 -102t-110.5 -41t-102 41t-35 102z" />
    <glyph glyph-name="uni0458" unicode="&#x458;" horiz-adv-x="622" 
d="M145 -59q33 43 47 76.5t23 86.5l147 758h-215l31 156h266q64 0 91 -27.5t14 -89.5l-160 -829q-11 -51 -25 -84.5t-45 -77.5l-215 -299h-194zM379 1329q7 60 52.5 98.5t107.5 38.5t99.5 -38.5t31.5 -98.5q-6 -59 -53 -98t-109 -39t-98.5 38.5t-30.5 98.5z" />
    <glyph glyph-name="uni0459" unicode="&#x459;" horiz-adv-x="1818" 
d="M1147 1018l-55 -285h186q77 0 139 -10t117.5 -35.5t91 -66.5t53 -105.5t9.5 -148.5q-34 -367 -478 -367h-442l168 862h-391q-21 -104 -36.5 -176.5t-34.5 -152.5t-36 -133.5t-38.5 -110.5t-43.5 -93t-50 -72t-58.5 -56.5t-69 -37.5t-82.5 -23.5t-96 -6.5l31 156
q37 0 66.5 9t55 31.5t45 53.5t39.5 83.5t36.5 112.5t36 149.5t38.5 184.5t45 227q1 7 2 11h752zM979 152h217q57 0 95 3.5t78.5 16t65.5 35.5t44 63t26 97t-1.5 96.5t-28 62.5t-56 36t-74.5 16.5t-94 3.5h-188z" />
    <glyph glyph-name="uni045A" unicode="&#x45a;" horiz-adv-x="1843" 
d="M160 588l84 430h180l-84 -430h565l84 430h182l-55 -285h184q77 0 139 -10t117.5 -35.5t91 -66.5t53 -105.5t9.5 -148.5q-34 -367 -477 -367h-442l83 432h-563l-84 -432h-182l84 432zM1001 152h218q57 0 95 3.5t78.5 16t65.5 35.5t44 63t26 97t-1.5 96.5t-28 62.5t-56 36
t-74.5 16.5t-94 3.5h-189l-26 -150h-2z" />
    <glyph glyph-name="uni045B" unicode="&#x45b;" horiz-adv-x="1265" 
d="M68 0l239 1243h-117l29 148h117l22 114h183l-23 -114h289l-27 -148h-291l-67 -354l-23 -107q63 122 167 189t243 67q205 0 296 -124.5t48 -344.5l-109 -569h-184l111 565q31 163 -27.5 240.5t-208.5 77.5q-148 0 -253 -110t-142 -302l-90 -471h-182z" />
    <glyph glyph-name="uni045C" unicode="&#x45c;" horiz-adv-x="1079" 
d="M244 1018h180l-84 -432h61l355 356q79 76 170 76h170l-29 -156h-166l-352 -352l375 -510h-215l-324 440h-74l-84 -440h-182zM350 1321l676 164l6 -146l-674 -163z" />
    <glyph glyph-name="uni045F" unicode="&#x45f;" horiz-adv-x="1218" 
d="M45 0l197 1014h182l-168 -858h563l168 858h180l-196 -1014h-373l-53 -270h-180l53 270h-373z" />
    <glyph glyph-name="uni0490" unicode="&#x490;" horiz-adv-x="1116" 
d="M459 1444h594l37 194h186l-37 -194l-31 -160h-725l-250 -1284h-186l258 1315q12 63 52 96t102 33z" />
    <glyph glyph-name="uni0491" unicode="&#x491;" horiz-adv-x="919" 
d="M217 877q23 141 170 141h393l45 237h181l-74 -393h-539l-166 -862h-182z" />
    <glyph glyph-name="uni1E20" unicode="&#x1e20;" horiz-adv-x="1626" 
d="M737 -23q-159 0 -278 55.5t-188 154.5t-97 231t-12 291q33 345 236 551t524 206q262 0 416.5 -143.5t166.5 -394.5h-188q-5 181 -107 280t-288 99q-242 0 -392 -163t-180 -437q-14 -122 2.5 -222t65 -179.5t141.5 -124t225 -44.5q232 0 360 125t165 371h-564l29 143h621
q127 0 106 -121l-129 -655h-186l35 164l14 84q-22 -41 -51 -78t-73 -73t-96.5 -62t-124.5 -42t-153 -16zM647 1686v147h680v-145z" />
    <glyph glyph-name="uni1E21" unicode="&#x1e21;" horiz-adv-x="1341" 
d="M537 -25q-158 0 -266 76t-148.5 205.5t-11.5 290.5q38 218 177 354.5t345 136.5q155 0 273.5 -82t150.5 -237l33 158l24 141h180l-196 -1018l-54 -274q-24 -125 -165 -125h-779l31 155h737l50 244l28 139l12 62q-148 -226 -421 -226zM291 541q-38 -196 53.5 -303
t261.5 -107q149 0 257 85t141 247q19 101 1 178.5t-66 130t-117 80t-152 27.5q-143 0 -244.5 -85.5t-134.5 -252.5zM424 1260v147h680v-145z" />
    <glyph glyph-name="Wgrave" unicode="&#x1e80;" horiz-adv-x="1908" 
d="M2046 1444l-565 -1444h-332l-27 1374l-557 -1374h-334l-4 1444h183l12 -1249l-2 -117l555 1366h319l27 -1364l39 115l498 1249h188zM866 1774l60 131l610 -164l-59 -131z" />
    <glyph glyph-name="wgrave" unicode="&#x1e81;" horiz-adv-x="1798" 
d="M170 1018h170l76 -825l4 -117l418 942h313l55 -930l47 105l394 825h176l-480 -1018h-307l-53 952l-418 -952h-315zM729 1348l59 131l611 -164l-60 -131z" />
    <glyph glyph-name="Wacute" unicode="&#x1e82;" horiz-adv-x="1908" 
d="M2046 1444l-565 -1444h-332l-27 1374l-557 -1374h-334l-4 1444h183l12 -1249l-2 -117l555 1366h319l27 -1364l39 115l498 1249h188zM850 1747l676 164l6 -146l-674 -163z" />
    <glyph glyph-name="wacute" unicode="&#x1e83;" horiz-adv-x="1798" 
d="M170 1018h170l76 -825l4 -117l418 942h313l55 -930l47 105l394 825h176l-480 -1018h-307l-53 952l-418 -952h-315zM713 1321l676 164l6 -146l-674 -163z" />
    <glyph glyph-name="Wdieresis" unicode="&#x1e84;" horiz-adv-x="1908" 
d="M2046 1444l-565 -1444h-332l-27 1374l-557 -1374h-334l-4 1444h183l12 -1249l-2 -117l555 1366h319l27 -1364l39 115l498 1249h188zM834 1747q6 62 51.5 102.5t109.5 40.5q63 0 103.5 -41t36.5 -102q-6 -61 -53.5 -102t-110.5 -41t-102 41t-35 102zM1255 1747
q6 61 52.5 102t109.5 41q64 0 104.5 -41t34.5 -102t-53 -102t-110 -41t-102.5 41t-35.5 102z" />
    <glyph glyph-name="wdieresis" unicode="&#x1e85;" horiz-adv-x="1798" 
d="M170 1018h170l76 -825l4 -117l418 942h313l55 -930l47 105l394 825h176l-480 -1018h-307l-53 952l-418 -952h-315zM696 1321q6 62 52 102.5t110 40.5q63 0 103 -41t36 -102q-6 -61 -53 -102t-110 -41t-102.5 41t-35.5 102zM1118 1321q6 61 52.5 102t109.5 41
q64 0 104.5 -41t34.5 -102t-53.5 -102t-110.5 -41t-102 41t-35 102z" />
    <glyph glyph-name="uni1E9E" unicode="&#x1e9e;" horiz-adv-x="1335" 
d="M252 1042q40 208 177 315t343 107q101 0 190.5 -26t155 -73.5t94 -122.5t7.5 -165q-48 -202 -301 -286q160 -10 254 -105t83 -278q-5 -80 -32 -145t-64.5 -106.5t-90.5 -72t-100.5 -46.5t-105 -25t-93 -11t-75.5 -2h-344l31 160h326q165 0 257.5 68.5t104.5 197.5
q7 67 -11 117.5t-54 79t-85.5 43t-104.5 14t-112 -13.5l-10 176q171 26 247 85t93 144q16 77 -16.5 131t-96 78.5t-149.5 24.5q-280 0 -340 -301l-194 -1004h-185z" />
    <glyph glyph-name="uni1EBC" unicode="&#x1ebc;" horiz-adv-x="1259" 
d="M49 0l283 1444h1003l-30 -160h-820l-94 -483h717l-31 -156h-715l-96 -485h817l-30 -160h-1004zM446 1634q43 289 250 289q48 0 89 -17t68 -41t50 -48t47.5 -41t48.5 -17q40 0 67.5 30t43.5 114h145q-43 -289 -249 -289q-48 0 -89 17t-68 41t-50.5 48t-48 41t-48.5 17
q-39 0 -66.5 -29.5t-43.5 -114.5h-146z" />
    <glyph glyph-name="uni1EBD" unicode="&#x1ebd;" horiz-adv-x="1204" 
d="M371 1208q43 289 250 289q48 0 89 -17t68 -41t50 -48t47.5 -41t48.5 -17q39 0 66.5 29.5t43.5 114.5h146q-43 -289 -250 -289q-48 0 -89 17t-68 41t-50 48t-47.5 41t-48.5 17q-40 0 -67.5 -30t-43.5 -114h-145zM106 522q29 244 177 380t370 136q230 0 349 -131t92 -366
l-9 -66h-806q-16 -157 53 -253.5t221 -96.5q126 0 213.5 61t128.5 170h180q-24 -75 -65.5 -139t-104 -119t-154.5 -86.5t-204 -31.5q-122 0 -214 42t-145 116t-74 172t-8 212zM297 604h629q7 137 -68 214t-213 77q-128 0 -223 -77.5t-125 -213.5z" />
    <glyph glyph-name="Ygrave" unicode="&#x1ef2;" horiz-adv-x="1361" 
d="M1276 1444h203l-625 -836h-61l-121 -608h-185l119 608h-61l-299 836h188l271 -776zM592 1774l59 131l611 -164l-60 -131z" />
    <glyph glyph-name="ygrave" unicode="&#x1ef3;" horiz-adv-x="1230" 
d="M1206 1018l-198 -1018l-54 -274q-24 -125 -166 -125h-778l31 155h737l49 244l25 129l22 107q-63 -123 -167 -189.5t-242 -66.5q-205 0 -295 124t-49 345l108 569h183l-109 -565q-31 -163 27.5 -240.5t208.5 -77.5q148 0 253 110t142 302l90 471h182zM362 1348l60 131
l610 -164l-59 -131z" />
    <glyph glyph-name="uni1EF8" unicode="&#x1ef8;" horiz-adv-x="1361" 
d="M1276 1444h203l-625 -836h-61l-121 -608h-185l119 608h-61l-299 836h188l271 -776zM520 1634q43 289 250 289q48 0 89 -17t68 -41t50 -48t47.5 -41t48.5 -17q40 0 67.5 30t43.5 114h145q-43 -289 -250 -289q-48 0 -89 17t-68 41t-50 48t-47.5 41t-48.5 17
q-39 0 -66.5 -29.5t-43.5 -114.5h-146z" />
    <glyph glyph-name="uni1EF9" unicode="&#x1ef9;" horiz-adv-x="1230" 
d="M1206 1018l-198 -1018l-54 -274q-24 -125 -166 -125h-778l31 155h737l49 244l25 129l22 107q-63 -123 -167 -189.5t-242 -66.5q-205 0 -295 124t-49 345l108 569h183l-109 -565q-31 -163 27.5 -240.5t208.5 -77.5q148 0 253 110t142 302l90 471h182zM289 1208
q43 289 250 289q48 0 89 -17t68 -41t50 -48t47.5 -41t48.5 -17q39 0 66.5 29.5t43.5 114.5h146q-43 -289 -250 -289q-48 0 -89 17t-68 41t-50 48t-47.5 41t-48.5 17q-40 0 -67.5 -30t-43.5 -114h-145z" />
    <glyph glyph-name="endash" unicode="&#x2013;" horiz-adv-x="1740" 
d="M186 592h1401l-26 -148h-1403z" />
    <glyph glyph-name="emdash" unicode="&#x2014;" horiz-adv-x="2150" 
d="M186 592h1811l-27 -148h-1812z" />
    <glyph glyph-name="quoteleft" unicode="&#x2018;" horiz-adv-x="655" 
d="M410 922l-152 59l277 588l151 -62z" />
    <glyph glyph-name="quoteright" unicode="&#x2019;" horiz-adv-x="651" 
d="M418 922l-56 604l158 37l55 -602z" />
    <glyph glyph-name="quotesinglbase" unicode="&#x201a;" horiz-adv-x="657" 
d="M295 336l151 -60l-276 -587l-152 61z" />
    <glyph glyph-name="quotedblleft" unicode="&#x201c;" horiz-adv-x="946" 
d="M410 922l-152 59l277 588l151 -62zM549 981l276 588l152 -62l-277 -585z" />
    <glyph glyph-name="quotedblright" unicode="&#x201d;" horiz-adv-x="935" 
d="M418 922l-56 604l158 37l55 -602zM645 1526l158 37l55 -602l-158 -39z" />
    <glyph glyph-name="quotedblbase" unicode="&#x201e;" horiz-adv-x="948" 
d="M295 336l151 -60l-276 -587l-152 61zM309 -250l277 586l151 -60l-276 -587z" />
    <glyph glyph-name="dagger" unicode="&#x2020;" horiz-adv-x="1144" 
d="M739 1747h146l-76 -391h332l-29 -148h-332l-174 -899h-145l174 899h-330l29 148h330z" />
    <glyph glyph-name="daggerdbl" unicode="&#x2021;" horiz-adv-x="1146" 
d="M236 848h331l70 360h-332l29 148h332l75 391h146l-76 -391h332l-29 -148h-332l-69 -360h329l-28 -148h-330l-76 -391h-145l76 391h-332z" />
    <glyph glyph-name="bullet" unicode="&#x2022;" horiz-adv-x="1370" 
d="M649 -4q-143 0 -255 68.5t-170.5 184t-53.5 255.5q9 213 162 358.5t373 145.5q142 0 257.5 -66.5t178.5 -182.5t55 -255q-9 -211 -168 -359.5t-379 -148.5z" />
    <glyph glyph-name="ellipsis" unicode="&#x2026;" horiz-adv-x="1918" 
d="M264 -20q-74 0 -120.5 50.5t-43.5 123.5q3 72 55.5 122t127.5 50q74 0 123 -50t45 -122q-3 -72 -57.5 -123t-129.5 -51zM715 154q3 72 55 122t127 50q74 0 123 -50t45 -122q-3 -72 -57 -123t-129 -51q-74 0 -120.5 50.5t-43.5 123.5zM1329 154q3 72 55 122t127 50
q74 0 123 -50t45 -122q-3 -72 -57 -123t-129 -51q-74 0 -120.5 50.5t-43.5 123.5z" />
    <glyph glyph-name="perthousand" unicode="&#x2030;" horiz-adv-x="3330" 
d="M573 592q-188 0 -302 123.5t-105 302.5t135 302.5t315 123.5q188 0 301.5 -123.5t104.5 -302.5t-134.5 -302.5t-314.5 -123.5zM311 1018q-6 -116 70.5 -198.5t198.5 -82.5t206.5 82.5t90.5 198.5q5 117 -70.5 198.5t-198.5 81.5q-122 0 -206.5 -82t-90.5 -198zM651 37
l1006 1417l119 -61l-1006 -1418zM1401 410q9 179 135 302.5t315 123.5q188 0 301.5 -123.5t104.5 -302.5t-134.5 -302.5t-314.5 -123.5q-188 0 -302 123.5t-105 302.5zM1546 410q-6 -116 70.5 -198.5t198.5 -82.5t206 82.5t90 198.5q5 117 -70 198.5t-198 81.5
q-122 0 -206.5 -82t-90.5 -198zM2388 410q9 179 135.5 302.5t315.5 123.5q188 0 301 -123.5t104 -302.5t-134 -302.5t-314 -123.5q-188 0 -302.5 124t-105.5 302zM2533 410q-6 -116 70.5 -198.5t198.5 -82.5t206.5 82.5t90.5 198.5q5 117 -70.5 198.5t-198.5 81.5
q-122 0 -206.5 -82t-90.5 -198z" />
    <glyph glyph-name="guilsinglleft" unicode="&#x2039;" horiz-adv-x="1028" 
d="M772 39l-129 -98l-473 583l678 563l104 -112l-559 -467z" />
    <glyph glyph-name="guilsinglright" unicode="&#x203a;" horiz-adv-x="1028" 
d="M256 989l129 98l473 -583l-678 -563l-104 112l559 467z" />
    <glyph glyph-name="fraction" unicode="&#x2044;" horiz-adv-x="606" 
d="M786 1454l119 -61l-1005 -1418l-119 62z" />
    <glyph glyph-name="uni2070" unicode="&#x2070;" horiz-adv-x="1044" 
d="M262 1446q27 231 161.5 375.5t344.5 144.5q208 0 308 -144.5t71 -375.5q-29 -232 -163 -376t-343 -144q-140 0 -233 67.5t-129 184t-17 268.5zM414 1446q-17 -113 2 -205l530 514q-61 80 -184 80q-141 0 -232 -105.5t-116 -283.5zM463 1139q60 -82 184 -82
q141 0 231 104.5t117 284.5q17 113 -2 205z" />
    <glyph glyph-name="uni2074" unicode="&#x2074;" horiz-adv-x="954" 
d="M258 1401q191 65 335.5 209t201.5 342h151q-66 -231 -229 -403t-426 -271h469l63 324h152l-64 -324h123l-26 -131h-121l-41 -207h-152l41 207h-526z" />
    <glyph glyph-name="uni2075" unicode="&#x2075;" horiz-adv-x="1015" 
d="M631 926q-191 0 -302 97t-98 280h154q-10 -119 56 -182.5t196 -63.5q132 0 209 66t86 186q9 112 -53 171.5t-181 59.5q-175 0 -270 -117l-154 82l185 447h676l-27 -131h-551l-127 -303q107 145 322 145q164 0 251.5 -91t77.5 -257q-10 -183 -130.5 -286t-319.5 -103z" />
    <glyph glyph-name="uni2076" unicode="&#x2076;" horiz-adv-x="989" 
d="M268 1454q43 261 190 381.5t390 118.5l274 -2l-26 -131l-283 2q-177 1 -277.5 -82.5t-146.5 -253.5l-2 -10q95 182 322 182q88 0 159.5 -27t120 -76.5t69 -125.5t5.5 -168q-25 -156 -134.5 -246t-285.5 -90q-99 0 -176.5 31.5t-131 96.5t-71 164.5t3.5 235.5zM391 1327
q-20 -111 50.5 -190.5t207.5 -79.5q113 0 181.5 56.5t87.5 164.5q20 131 -52.5 195.5t-197.5 64.5q-117 0 -188 -56.5t-89 -154.5z" />
    <glyph glyph-name="uni2077" unicode="&#x2077;" horiz-adv-x="839" 
d="M274 940q123 632 723 881h-694l25 131h743l-39 -205q-244 -111 -389.5 -306.5t-204.5 -500.5h-164z" />
    <glyph glyph-name="uni2078" unicode="&#x2078;" horiz-adv-x="960" 
d="M197 1221q10 113 93.5 184.5t221.5 95.5q-79 27 -123 82t-37 137q8 85 64 141.5t137.5 80.5t185.5 24q159 0 256 -61t86 -185q-10 -95 -81 -152.5t-173 -76.5q228 -70 211 -274q-14 -134 -134.5 -212.5t-315.5 -78.5q-192 0 -298 78.5t-93 216.5zM350 1237
q-10 -84 52.5 -136t197.5 -52t209 52t82 136q9 90 -52 141.5t-196 51.5q-137 0 -211 -52t-82 -141zM496 1702q-9 -72 41.5 -107.5t156.5 -35.5q212 0 232 143q9 72 -41.5 106.5t-155.5 34.5q-216 0 -233 -141z" />
    <glyph glyph-name="uni2079" unicode="&#x2079;" horiz-adv-x="989" 
d="M1083 1430q-43 -261 -189.5 -380.5t-389.5 -119.5l-275 2l27 131l283 -2q177 -1 277.5 82.5t146.5 253.5l2 10q-94 -180 -322 -180q-181 0 -282.5 106t-71.5 289q25 156 134.5 246t285.5 90q99 0 176.5 -31.5t131 -96.5t70.5 -164.5t-4 -235.5zM436 1608
q-22 -132 50.5 -197t197.5 -65q119 0 190.5 56t86.5 154q20 111 -51 191t-208 80q-113 0 -181 -56t-85 -163z" />
    <glyph glyph-name="uni2080" unicode="&#x2080;" horiz-adv-x="1044" 
d="M41 301q27 231 161.5 375.5t344.5 144.5q208 0 308 -144.5t71 -375.5q-29 -232 -163 -376t-343 -144q-140 0 -233 67.5t-129 184t-17 268.5zM193 301q-17 -113 2 -205l530 514q-61 80 -184 80q-141 0 -232 -105.5t-116 -283.5zM242 -6q60 -82 184 -82q141 0 231 104.5
t117 284.5q17 113 -2 205z" />
    <glyph glyph-name="uni2081" unicode="&#x2081;" horiz-adv-x="729" 
d="M334 -205l172 875l12 67q-25 -91 -57.5 -161.5t-84.5 -138.5t-130.5 -118t-182.5 -79l-24 141q155 52 240 156.5t120 269.5h283l-197 -1012h-151z" />
    <glyph glyph-name="uni2082" unicode="&#x2082;" horiz-adv-x="960" 
d="M41 350q40 238 161.5 352.5t305.5 114.5q82 0 151.5 -22t124 -67t78 -122.5t6.5 -177.5q-21 -122 -92.5 -215t-182 -151t-239 -91t-280.5 -45h696l-25 -131h-796l47 244q23 -1 64.5 2t106.5 13t132 27.5t138 49.5t128.5 73t100 104t55.5 138q21 110 -35.5 175t-181.5 65
q-126 0 -203 -78t-111 -258h-149z" />
    <glyph glyph-name="uni2083" unicode="&#x2083;" horiz-adv-x="972" 
d="M156 180q-23 -146 35 -207t198 -61q128 0 191.5 45.5t72.5 138.5q17 166 -159 166h-117l22 123h156q161 0 176 139q6 79 -44.5 122.5t-174.5 43.5q-133 0 -200.5 -52t-84.5 -165h-149q20 174 135 261t309 87q181 0 275 -72.5t88 -193.5q-6 -100 -67 -163.5t-165 -78.5
q173 -45 150 -239q-17 -145 -127 -219t-291 -74q-203 0 -304.5 96.5t-72.5 302.5h148z" />
    <glyph glyph-name="uni2084" unicode="&#x2084;" horiz-adv-x="954" 
d="M37 256q191 65 335 209t201 342h152q-66 -231 -229 -403t-426 -271h469l63 324h152l-64 -324h123l-27 -131h-120l-41 -207h-152l41 207h-526z" />
    <glyph glyph-name="uni2085" unicode="&#x2085;" horiz-adv-x="1015" 
d="M410 -219q-191 0 -302 97t-98 280h154q-10 -119 56 -182.5t196 -63.5q132 0 209 66t86 186q9 112 -53 171.5t-181 59.5q-176 0 -270 -116l-154 81l185 447h675l-26 -131h-551l-127 -303q107 145 321 145q164 0 252 -91t78 -257q-10 -183 -130.5 -286t-319.5 -103z" />
    <glyph glyph-name="uni2086" unicode="&#x2086;" horiz-adv-x="989" 
d="M47 309q43 261 190 381.5t390 118.5l274 -2l-27 -131l-282 2q-177 1 -277.5 -82.5t-146.5 -253.5l-2 -10q95 182 321 182q88 0 159.5 -27t120.5 -76.5t69.5 -125.5t5.5 -168q-25 -156 -134.5 -246t-285.5 -90q-99 0 -176.5 31.5t-131 96.5t-71 164.5t3.5 235.5zM170 182
q-20 -111 50.5 -190.5t207.5 -79.5q113 0 181 56t87 165q20 131 -52.5 195.5t-197.5 64.5q-117 0 -187.5 -56.5t-88.5 -154.5z" />
    <glyph glyph-name="uni2087" unicode="&#x2087;" horiz-adv-x="839" 
d="M53 -205q123 632 723 881h-694l24 131h744l-39 -205q-244 -111 -389.5 -306.5t-204.5 -500.5h-164z" />
    <glyph glyph-name="uni2088" unicode="&#x2088;" horiz-adv-x="960" 
d="M-25 76q10 113 94 184.5t222 95.5q-79 27 -123 82t-37 137q8 85 64 141.5t137.5 80.5t185.5 24q159 0 256 -61t86 -185q-10 -95 -81 -152.5t-173 -76.5q228 -70 211 -274q-14 -134 -134.5 -212.5t-315.5 -78.5q-193 0 -299 78.5t-93 216.5zM129 92q-10 -84 52.5 -136
t197.5 -52t209 52t82 136q9 90 -52 141.5t-196 51.5q-137 0 -211 -52t-82 -141zM274 557q-9 -72 42 -107.5t157 -35.5q212 0 232 143q9 72 -41.5 106.5t-155.5 34.5q-217 0 -234 -141z" />
    <glyph glyph-name="uni2089" unicode="&#x2089;" horiz-adv-x="989" 
d="M862 285q-43 -261 -189.5 -380.5t-389.5 -119.5l-275 2l27 131l282 -2q177 -1 277.5 82.5t146.5 253.5l2 10q-94 -180 -321 -180q-181 0 -282.5 106t-71.5 289q25 156 134 246t285 90q99 0 176.5 -31.5t131 -96.5t71 -164.5t-3.5 -235.5zM215 463q-22 -132 50.5 -197
t197.5 -65q119 0 190 56.5t86 154.5q20 111 -50.5 190.5t-207.5 79.5q-113 0 -181 -56t-85 -163z" />
    <glyph glyph-name="Euro" unicode="&#x20ac;" horiz-adv-x="1681" 
d="M406 778v4h-173l25 127h176q35 123 92 222.5t136 173.5t184.5 114.5t228.5 40.5q227 0 363.5 -130t148.5 -343h-176q-2 80 -30.5 142.5t-77.5 100t-110.5 56.5t-133.5 19q-324 0 -441 -396h490l-25 -127h-495l-4 -18q-14 -85 -15 -105h490l-25 -127h-471
q5 -194 95.5 -295.5t269.5 -101.5q160 0 254.5 82.5t140.5 241.5h180q-63 -231 -210.5 -356.5t-372.5 -125.5q-169 0 -288.5 71.5t-179 194.5t-65.5 289h-203l25 127h180q7 67 17 119z" />
    <glyph glyph-name="trademark" unicode="&#x2122;" horiz-adv-x="1830" 
d="M350 1444h561l-20 -111h-215l-111 -573h-129l111 573h-217zM872 760l132 684h239l55 -619l304 619h235l-131 -684h-127l92 471l25 135l-295 -606h-219l-66 606l-24 -135l-93 -471h-127z" />
    <glyph glyph-name="oneeighth" unicode="&#x215b;" horiz-adv-x="2230" 
d="M457 428l172 875l12 67q-25 -91 -57.5 -161.5t-84.5 -139t-130.5 -118.5t-182.5 -79l-24 142q155 52 240 156.5t120 269.5h283l-197 -1012h-151zM496 37l1005 1417l119 -61l-1006 -1418zM1284 281q10 113 93.5 184.5t221.5 95.5q-79 26 -122.5 81.5t-36.5 137.5
q8 85 64 141.5t137.5 80.5t185.5 24q159 0 256 -61t86 -185q-10 -95 -81 -152.5t-173 -76.5q228 -70 211 -275q-14 -134 -135 -212t-316 -78q-192 0 -298 78.5t-93 216.5zM1438 297q-10 -84 52.5 -136t197.5 -52t208.5 52t81.5 136q9 90 -51.5 141t-195.5 51
q-137 0 -211 -51.5t-82 -140.5zM1583 762q-9 -72 42 -108t157 -36q211 0 231 144q9 72 -41 106.5t-155 34.5q-217 0 -234 -141z" />
    <glyph glyph-name="threeeighths" unicode="&#x215c;" horiz-adv-x="2443" 
d="M279 817q-23 -146 35 -207t198 -61q128 0 191.5 45.5t72.5 138.5q17 166 -160 166h-116l22 123h156q161 0 176 139q6 79 -44.5 122.5t-174.5 43.5q-133 0 -200.5 -52t-84.5 -165h-149q20 174 135 261t309 87q181 0 275 -72.5t88 -193.5q-6 -100 -67 -163.5t-165 -78.5
q173 -45 150 -239q-17 -145 -127 -219t-291 -74q-203 0 -304.5 96.5t-72.5 302.5h148zM709 37l1005 1417l119 -61l-1006 -1418zM1497 281q10 113 93.5 184.5t221.5 95.5q-79 26 -122.5 81.5t-36.5 137.5q8 85 64 141.5t137.5 80.5t185.5 24q159 0 256 -61t86 -185
q-10 -95 -81 -152.5t-173 -76.5q228 -70 211 -275q-14 -134 -135 -212t-316 -78q-192 0 -298 78.5t-93 216.5zM1651 297q-10 -84 52.5 -136t197.5 -52t208.5 52t81.5 136q9 90 -51.5 141t-195.5 51q-137 0 -211 -51.5t-82 -140.5zM1796 762q-9 -72 42 -108t157 -36
q211 0 231 144q9 72 -41 106.5t-155 34.5q-217 0 -234 -141z" />
    <glyph glyph-name="fiveeighths" unicode="&#x215d;" horiz-adv-x="2486" 
d="M532 418q-191 0 -301.5 97t-97.5 280h154q-10 -119 56 -182.5t196 -63.5q132 0 209 66t86 186q9 112 -53 171.5t-181 59.5q-175 0 -270 -117l-154 82l184 447h676l-26 -131h-551l-127 -303q107 145 321 145q164 0 252 -91t78 -257q-10 -183 -131 -286t-320 -103zM752 37
l1005 1417l119 -61l-1006 -1418zM1540 281q10 113 93.5 184.5t221.5 95.5q-79 26 -122.5 81.5t-36.5 137.5q8 85 64 141.5t137.5 80.5t185.5 24q159 0 256 -61t86 -185q-10 -95 -81 -152.5t-173 -76.5q228 -70 211 -275q-14 -134 -135 -212t-316 -78q-192 0 -298 78.5
t-93 216.5zM1694 297q-10 -84 52.5 -136t197.5 -52t208.5 52t81.5 136q9 90 -51.5 141t-195.5 51q-137 0 -211 -51.5t-82 -140.5zM1839 762q-9 -72 42 -108t157 -36q211 0 231 144q9 72 -41 106.5t-155 34.5q-217 0 -234 -141z" />
    <glyph glyph-name="seveneighths" unicode="&#x215e;" horiz-adv-x="2125" 
d="M176 432q123 632 723 881h-694l24 131h744l-39 -205q-244 -111 -389.5 -306.5t-204.5 -500.5h-164zM391 37l1006 1417l119 -61l-1006 -1418zM1180 281q10 113 93.5 184.5t221.5 95.5q-79 27 -123 82t-37 137q8 85 64 141.5t137.5 80.5t185.5 24q159 0 256 -61t86 -185
q-10 -95 -81 -152.5t-173 -76.5q228 -70 211 -275q-14 -134 -134.5 -212t-315.5 -78q-192 0 -298 78.5t-93 216.5zM1333 297q-10 -84 52.5 -136t197.5 -52t209 52t82 136q9 90 -52 141t-196 51q-137 0 -211 -51.5t-82 -140.5zM1479 762q-9 -73 41.5 -108.5t156.5 -35.5
q212 0 232 144q9 72 -41.5 106.5t-155.5 34.5q-216 0 -233 -141z" />
    <glyph glyph-name="arrowleft" unicode="&#x2190;" horiz-adv-x="1562" 
d="M1380 586v-154h-919l397 -395l-115 -103l-575 572l575 573l115 -102l-391 -391h913z" />
    <glyph glyph-name="arrowup" unicode="&#x2191;" horiz-adv-x="1480" 
d="M670 -80v914l-391 -392l-103 115l574 576l571 -576l-102 -115l-396 398v-920h-153z" />
    <glyph glyph-name="arrowright" unicode="&#x2192;" horiz-adv-x="1562" 
d="M182 586h914l-391 391l114 102l576 -573l-576 -572l-114 103l397 395h-920v154z" />
    <glyph glyph-name="arrowdown" unicode="&#x2193;" horiz-adv-x="1480" 
d="M653 1102h154v-920l395 398l103 -115l-572 -576l-573 576l102 115l391 -392v914z" />
    <glyph glyph-name="arrowboth" unicode="&#x2194;" horiz-adv-x="2344" 
d="M1030 924h914l-392 391l115 102l576 -573l-576 -572l-115 103l398 395h-920v154zM168 506l575 573l115 -102l-391 -391h913v-154h-919l397 -395l-115 -103z" />
    <glyph glyph-name="arrowupdn" unicode="&#x2195;" horiz-adv-x="1968" 
d="M727 315v914l-391 -391l-103 114l574 576l571 -576l-102 -114l-395 397v-920h-154zM582 33l102 114l391 -391v914h154v-920l395 397l102 -114l-571 -576z" />
    <glyph glyph-name="uni2196" unicode="&#x2196;" horiz-adv-x="1636" 
d="M1151 18l-645 646v-553l-154 10l-2 811l811 -2l10 -154l-563 2l652 -651z" />
    <glyph glyph-name="uni2197" unicode="&#x2197;" horiz-adv-x="1546" 
d="M264 166l645 647h-553l9 154h813l-2 -811l-154 -9v562l-649 -652z" />
    <glyph glyph-name="uni2198" unicode="&#x2198;" horiz-adv-x="1636" 
d="M442 948l645 -645v553l154 -10l2 -811l-811 2l-8 153l561 -2l-651 652z" />
    <glyph glyph-name="uni2199" unicode="&#x2199;" horiz-adv-x="1548" 
d="M1227 801l-649 -647h555l-9 -152l-813 -2l4 811l154 8l-2 -559l651 649z" />
    <glyph glyph-name="partialdiff" unicode="&#x2202;" horiz-adv-x="1327" 
d="M618 -20q-122 0 -226 43.5t-174.5 120t-99.5 190t-3 244.5q39 209 182.5 334.5t359.5 125.5q190 0 315 -95t156 -263l2 22q20 259 -162 440.5t-495 227.5l29 156q151 -19 277.5 -69t224 -130t159 -189t82.5 -245.5t-6 -300.5q-46 -285 -211.5 -448.5t-409.5 -163.5z
M293 565q-20 -105 -1.5 -185t68 -134t120 -81.5t153.5 -27.5q156 0 261.5 91t137.5 237q36 183 -65 299.5t-289 116.5q-155 0 -254 -81.5t-131 -234.5z" />
    <glyph glyph-name="emptyset" unicode="&#x2205;" horiz-adv-x="2031" 
d="M987 -262q-240 0 -424 108l-192 -249l-131 81l198 259q-127 116 -192 281.5t-56 356.5q9 173 77.5 326.5t182 266.5t274.5 179t345 66q240 0 424 -108l193 249l131 -81l-199 -259q127 -116 192 -282t56 -357q-9 -172 -77.5 -325.5t-182 -266.5t-274.5 -179t-345 -66z
M338 575q-7 -151 43 -286t149 -232l871 1129q-147 86 -336 86q-149 0 -282.5 -56t-228 -151t-152 -222.5t-64.5 -267.5zM653 -35q150 -86 336 -86q150 0 283.5 56t228.5 150.5t152.5 222t64.5 267.5q7 151 -43 286.5t-149 232.5z" />
    <glyph glyph-name="product" unicode="&#x220f;" horiz-adv-x="1568" 
d="M350 1444h1233l-29 -146h-270l-323 -1667h-168l323 1667h-358l-324 -1667h-166l324 1667h-270z" />
    <glyph glyph-name="summation" unicode="&#x2211;" horiz-adv-x="1232" 
d="M-2 -369l47 242l748 682l-484 680l41 209h895l-28 -146h-773l514 -686l-30 -147l-778 -686h772l-29 -148h-895z" />
    <glyph glyph-name="minus" unicode="&#x2212;" horiz-adv-x="1327" 
d="M186 592h988l-29 -148h-987z" />
    <glyph glyph-name="radical" unicode="&#x221a;" horiz-adv-x="1648" 
d="M1118 1333q48 111 162 111h383l-27 -137h-389l-745 -1676h-301l-49 789h137l43 -737h53z" />
    <glyph glyph-name="infinity" unicode="&#x221e;" horiz-adv-x="2097" 
d="M190 614q20 179 148 290.5t309 111.5q67 0 127.5 -19.5t102 -45.5t84.5 -70t67 -76.5t57 -81.5q105 112 147 149q160 140 339 144h10q178 0 282 -111.5t85 -290.5q-19 -176 -148 -288.5t-311 -112.5q-48 0 -92.5 10.5t-78.5 25t-68.5 41t-57 47.5t-51 56.5t-43 55.5
t-39.5 57q-35 -38 -48 -52t-48 -49t-55.5 -51t-56 -43.5t-65 -40.5t-67.5 -29t-78.5 -22t-83.5 -6q-179 0 -283 111.5t-84 289.5zM356 616q-15 -119 47 -188.5t183 -69.5q60 0 113.5 18.5t105.5 58.5t90 78t94 101q-33 52 -54 82t-55 68t-64.5 58t-74 34t-92.5 14
q-118 0 -197 -69t-96 -185zM1155 614q35 -53 55 -82t54.5 -68t64.5 -58t72.5 -33.5t91.5 -14.5q120 0 201 70t96 188q14 116 -48.5 185t-180.5 69q-49 0 -95.5 -14t-82.5 -34.5t-79.5 -58t-73 -68t-75.5 -81.5z" />
    <glyph glyph-name="integral" unicode="&#x222b;" horiz-adv-x="1114" 
d="M27 -369v146h299l344 1554q24 113 139 113h291v-146h-281l-344 -1554q-24 -113 -139 -113h-309z" />
    <glyph glyph-name="approxequal" unicode="&#x2248;" horiz-adv-x="1316" 
d="M186 588q13 147 96 221t187 74q67 0 136 -25.5t117 -56.5t106 -56.5t106 -25.5q49 0 85.5 31.5t53.5 115.5h141q-13 -147 -95 -220t-187 -73q-66 0 -135 25.5t-116.5 55.5t-105.5 55.5t-106 25.5q-112 0 -139 -147h-144zM104 160q13 147 96 221t187 74q67 0 136 -25.5
t117 -56.5t106 -56.5t106 -25.5q49 0 85.5 31.5t53.5 115.5h142q-13 -147 -95 -220t-188 -73q-66 0 -135 25.5t-116.5 55.5t-105.5 55.5t-106 25.5q-112 0 -139 -147h-144z" />
    <glyph glyph-name="notequal" unicode="&#x2260;" horiz-adv-x="1325" 
d="M225 801h525l176 305l116 -68l-137 -237h307l-28 -146h-363l-157 -272h466l-28 -147h-522l-177 -306l-116 70l135 236h-307l28 147h365l158 272h-469z" />
    <glyph glyph-name="lessequal" unicode="&#x2264;" horiz-adv-x="1331" 
d="M227 809l998 324l30 -150l-864 -270l750 -275l-78 -133l-870 334zM84 47l27 146h989l-29 -146h-987z" />
    <glyph glyph-name="greaterequal" unicode="&#x2265;" horiz-adv-x="1333" 
d="M1190 631l-997 -326l-33 152l864 268l-750 274l78 134l871 -334zM84 45l29 148h987l-29 -148h-987z" />
    <glyph glyph-name="uni2460" unicode="&#x2460;" horiz-adv-x="2258" 
d="M1178 -250q-210 0 -395.5 77t-318 210t-209.5 319t-77 396t77 395.5t209.5 318t318 209t395.5 76.5t395.5 -76.5t318 -209t209 -318t76.5 -395.5t-76.5 -396t-209 -319t-318 -210t-395.5 -77zM305 752q0 -187 67 -351.5t182.5 -281.5t277.5 -184.5t346 -67.5
q147 0 281.5 43t241 123t185.5 188.5t121.5 244.5t42.5 286q0 187 -66.5 351.5t-182 281.5t-277.5 185t-346 68t-346 -68t-277.5 -185t-182.5 -281.5t-67 -351.5zM776 809q144 55 208 161.5t67 274.5h280v-1012h-149v943q-7 -90 -26 -160.5t-57.5 -139t-107 -119
t-166.5 -79.5z" />
    <glyph glyph-name="uni2461" unicode="&#x2461;" horiz-adv-x="2258" 
d="M1178 -250q-210 0 -395.5 77t-318 210t-209.5 319t-77 396t77 395.5t209.5 318t318 209t395.5 76.5t395.5 -76.5t318 -209t209 -318t76.5 -395.5t-76.5 -396t-209 -319t-318 -210t-395.5 -77zM305 752q0 -187 67 -351.5t182.5 -281.5t277.5 -184.5t346 -67.5
q147 0 281.5 43t241 123t185.5 188.5t121.5 244.5t42.5 286q0 187 -66.5 351.5t-182 281.5t-277.5 185t-346 68t-346 -68t-277.5 -185t-182.5 -281.5t-67 -351.5zM772 766q0 129 33.5 226t94.5 154.5t138.5 85.5t171.5 28q171 0 272 -89t101 -253q0 -419 -721 -553h721v-132
h-797v244q28 3 68.5 10.5t104.5 25t125.5 40t126 58.5t113 78t79.5 102t31 127q0 102 -56 157t-168 55q-288 0 -288 -364h-150z" />
    <glyph glyph-name="uni2462" unicode="&#x2462;" horiz-adv-x="2258" 
d="M1178 -250q-210 0 -395.5 77t-318 210t-209.5 319t-77 396t77 395.5t209.5 318t318 209t395.5 76.5t395.5 -76.5t318 -209t209 -318t76.5 -395.5t-76.5 -396t-209 -319t-318 -210t-395.5 -77zM305 752q0 -187 67 -351.5t182.5 -281.5t277.5 -184.5t346 -67.5
q147 0 281.5 43t241 123t185.5 188.5t121.5 244.5t42.5 286q0 187 -66.5 351.5t-182 281.5t-277.5 185t-346 68t-346 -68t-277.5 -185t-182.5 -281.5t-67 -351.5zM768 618h150q0 -146 66 -207t208 -61q244 0 244 187q0 163 -176 163h-138v125h138q161 0 161 138
q0 167 -229 167q-136 0 -198 -53t-62 -166h-150q0 173 108.5 261t305.5 88q177 0 277 -72.5t100 -192.5q0 -181 -207 -213v-39q52 -9 89 -23t68.5 -39.5t47.5 -67.5t16 -101q0 -138 -105.5 -215.5t-285.5 -77.5q-202 0 -315 97t-113 302z" />
    <glyph glyph-name="uni2463" unicode="&#x2463;" horiz-adv-x="2258" 
d="M1178 -250q-210 0 -395.5 77t-318 210t-209.5 319t-77 396t77 395.5t209.5 318t318 209t395.5 76.5t395.5 -76.5t318 -209t209 -318t76.5 -395.5t-76.5 -396t-209 -319t-318 -210t-395.5 -77zM305 752q0 -187 67 -351.5t182.5 -281.5t277.5 -184.5t346 -67.5
q147 0 281.5 43t241 123t185.5 188.5t121.5 244.5t42.5 286q0 187 -66.5 351.5t-182 281.5t-277.5 185t-346 68t-346 -68t-277.5 -185t-182.5 -281.5t-67 -351.5zM743 442v252q178 65 295.5 209t135.5 342h151q-46 -480 -524 -674h469v324h151v-324h123v-129h-123v-209h-151
v209h-527z" />
    <glyph glyph-name="uni2464" unicode="&#x2464;" horiz-adv-x="2258" 
d="M1178 -250q-210 0 -395.5 77t-318 210t-209.5 319t-77 396t77 395.5t209.5 318t318 209t395.5 76.5t395.5 -76.5t318 -209t209 -318t76.5 -395.5t-76.5 -396t-209 -319t-318 -210t-395.5 -77zM305 752q0 -187 67 -351.5t182.5 -281.5t277.5 -184.5t346 -67.5
q147 0 281.5 43t241 123t185.5 188.5t121.5 244.5t42.5 286q0 187 -66.5 351.5t-182 281.5t-277.5 185t-346 68t-346 -68t-277.5 -185t-182.5 -281.5t-67 -351.5zM752 598h151q0 -120 72.5 -184t202.5 -64q132 0 202 66t70 188q0 112 -66 171t-184 59q-181 0 -260 -117
l-162 82l78 446h672v-129h-547l-55 -321q96 163 325 163q163 0 257 -92t94 -258q0 -184 -113.5 -286.5t-312.5 -102.5q-191 0 -307.5 97.5t-116.5 281.5z" />
    <glyph glyph-name="uni2465" unicode="&#x2465;" horiz-adv-x="2258" 
d="M1178 -250q-210 0 -395.5 77t-318 210t-209.5 319t-77 396t77 395.5t209.5 318t318 209t395.5 76.5t395.5 -76.5t318 -209t209 -318t76.5 -395.5t-76.5 -396t-209 -319t-318 -210t-395.5 -77zM305 752q0 -187 67 -351.5t182.5 -281.5t277.5 -184.5t346 -67.5
q147 0 281.5 43t241 123t185.5 188.5t121.5 244.5t42.5 286q0 187 -66.5 351.5t-182 281.5t-277.5 185t-346 68t-346 -68t-277.5 -185t-182.5 -281.5t-67 -351.5zM760 707q0 96 14 173.5t48 147t88 116.5t138.5 74t194.5 27h275v-129h-285q-330 0 -356 -366v-2
q35 99 124.5 152.5t219.5 53.5q170 0 272 -98t102 -258q0 -173 -108.5 -276t-294.5 -103q-205 0 -318.5 124t-113.5 364zM909 594q0 -102 72 -173t203 -71q124 0 192 63t68 185q0 110 -68 173t-188 63q-132 0 -205.5 -65t-73.5 -175z" />
    <glyph glyph-name="uni2466" unicode="&#x2466;" horiz-adv-x="2258" 
d="M1178 -250q-210 0 -395.5 77t-318 210t-209.5 319t-77 396t77 395.5t209.5 318t318 209t395.5 76.5t395.5 -76.5t318 -209t209 -318t76.5 -395.5t-76.5 -396t-209 -319t-318 -210t-395.5 -77zM305 752q0 -187 67 -351.5t182.5 -281.5t277.5 -184.5t346 -67.5
q147 0 281.5 43t241 123t185.5 188.5t121.5 244.5t42.5 286q0 187 -66.5 351.5t-182 281.5t-277.5 185t-346 68t-346 -68t-277.5 -185t-182.5 -281.5t-67 -351.5zM805 1116v129h745v-205q-223 -110 -331.5 -306t-108.5 -501h-158q0 325 139.5 542t411.5 341h-698z" />
    <glyph glyph-name="uni2467" unicode="&#x2467;" horiz-adv-x="2258" 
d="M1178 -250q-210 0 -395.5 77t-318 210t-209.5 319t-77 396t77 395.5t209.5 318t318 209t395.5 76.5t395.5 -76.5t318 -209t209 -318t76.5 -395.5t-76.5 -396t-209 -319t-318 -210t-395.5 -77zM305 752q0 -187 67 -351.5t182.5 -281.5t277.5 -184.5t346 -67.5
q147 0 281.5 43t241 123t185.5 188.5t121.5 244.5t42.5 286q0 187 -66.5 351.5t-182 281.5t-277.5 185t-346 68t-346 -68t-277.5 -185t-182.5 -281.5t-67 -351.5zM756 514q0 107 67.5 178t190.5 99q-90 25 -145.5 81t-55.5 142q0 85 51 141.5t130.5 80.5t183.5 24
q103 0 182.5 -24t130.5 -81t51 -141q0 -87 -55 -142.5t-146 -80.5q122 -30 190 -100.5t68 -180.5q0 -134 -113.5 -212.5t-309.5 -78.5q-192 0 -306 78.5t-114 216.5zM905 530q0 -84 69 -136t204 -52t202.5 52t67.5 136q0 90 -67.5 141.5t-202.5 51.5q-136 0 -204.5 -51.5
t-68.5 -141.5zM963 995q0 -141 215 -141q213 0 213 141q0 144 -213 144q-215 0 -215 -144z" />
    <glyph glyph-name="uni2468" unicode="&#x2468;" horiz-adv-x="2258" 
d="M1178 -250q-210 0 -395.5 77t-318 210t-209.5 319t-77 396t77 395.5t209.5 318t318 209t395.5 76.5t395.5 -76.5t318 -209t209 -318t76.5 -395.5t-76.5 -396t-209 -319t-318 -210t-395.5 -77zM305 752q0 -187 67 -351.5t182.5 -281.5t277.5 -184.5t346 -67.5
q147 0 281.5 43t241 123t185.5 188.5t121.5 244.5t42.5 286q0 187 -66.5 351.5t-182 281.5t-277.5 185t-346 68t-346 -68t-277.5 -185t-182.5 -281.5t-67 -351.5zM760 881q0 173 107.5 276t293.5 103q206 0 320 -124t114 -362q0 -121 -23.5 -215t-77 -169.5t-150.5 -116
t-234 -40.5h-274v132h284q174 0 259.5 94.5t99.5 269.5v8q-33 -101 -123.5 -158t-222.5 -57q-171 0 -272 100t-101 259zM909 881q0 -110 69 -173t187 -63q132 0 205.5 64.5t73.5 175.5q0 102 -71.5 173.5t-201.5 71.5q-125 0 -193.5 -63.5t-68.5 -185.5z" />
    <glyph glyph-name="uni24EA" unicode="&#x24ea;" horiz-adv-x="2258" 
d="M1178 -250q-210 0 -395.5 77t-318 210t-209.5 319t-77 396t77 395.5t209.5 318t318 209t395.5 76.5t395.5 -76.5t318 -209t209 -318t76.5 -395.5t-76.5 -396t-209 -319t-318 -210t-395.5 -77zM305 752q0 -187 67 -351.5t182.5 -281.5t277.5 -184.5t346 -67.5
q147 0 281.5 43t241 123t185.5 188.5t121.5 244.5t42.5 286q0 187 -66.5 351.5t-182 281.5t-277.5 185t-346 68t-346 -68t-277.5 -185t-182.5 -281.5t-67 -351.5zM735 739q0 232 117.5 376.5t327.5 144.5q208 0 324 -144.5t116 -376.5t-116 -376t-324 -144
q-210 0 -327.5 144t-117.5 376zM887 739q0 -126 37 -213l444 531q-73 73 -188 73q-143 0 -218 -105.5t-75 -285.5zM989 424q74 -74 191 -74q140 0 215 105t75 284q0 130 -36 215z" />
    <glyph glyph-name="uni24FF" unicode="&#x24ff;" horiz-adv-x="2258" 
d="M1178 -250q-210 0 -395.5 77t-318 210t-209.5 319t-77 396t77 395.5t209.5 318t318 209t395.5 76.5t395.5 -76.5t318 -209t209 -318t76.5 -395.5t-76.5 -396t-209 -319t-318 -210t-395.5 -77zM735 739q0 -232 117.5 -376t327.5 -144q208 0 324 144t116 376t-116 376.5
t-324 144.5q-210 0 -327.5 -144.5t-117.5 -376.5zM887 739q0 180 75 285.5t218 105.5q113 0 186 -73l-442 -531q-37 87 -37 213zM989 424l443 528q38 -83 38 -213q0 -179 -75 -284t-215 -105q-117 0 -191 74z" />
    <glyph glyph-name="lozenge" unicode="&#x25ca;" horiz-adv-x="1120" 
d="M309 57l-90 719l346 608h328l88 -718l-344 -609h-328zM383 752l74 -643h51l309 581l-72 643h-51z" />
    <glyph glyph-name="circle" unicode="&#x25cb;" horiz-adv-x="2269" 
d="M1085 -483q-161 0 -303 39t-253 111.5t-196 175t-131 229.5t-59 275t21 312q36 184 131.5 344t230 273t306 177.5t354.5 64.5q161 0 303.5 -39t253.5 -111t196 -174t131 -229t58.5 -275.5t-21.5 -312.5q-36 -185 -131 -345t-229 -273t-306 -177.5t-356 -64.5zM287 641
q-30 -145 -19.5 -276t50.5 -243.5t114 -203t170.5 -154.5t220.5 -98.5t264 -34.5q161 0 312 57.5t269.5 158.5t202 243t114.5 305q31 175 15 327.5t-84 278.5t-171.5 215.5t-248 139t-312.5 49.5q-214 0 -404 -98.5t-320 -273t-173 -392.5z" />
    <glyph glyph-name="uni25CF" unicode="&#x25cf;" horiz-adv-x="2269" 
d="M1087 -483q-161 0 -304 39t-254 111.5t-196 175t-131 229.5t-59 275t21 312q48 247 196 443t364 306t460 110q161 0 304 -39t254 -111t196.5 -174t131.5 -229t58.5 -275.5t-21.5 -312.5q-47 -247 -195 -443.5t-364.5 -306.5t-460.5 -110z" />
    <glyph glyph-name="uni2776" unicode="&#x2776;" horiz-adv-x="2258" 
d="M1178 -250q-210 0 -395.5 77t-318 210t-209.5 319t-77 396t77 395.5t209.5 318t318 209t395.5 76.5t395.5 -76.5t318 -209t209 -318t76.5 -395.5t-76.5 -396t-209 -319t-318 -210t-395.5 -77zM776 809l49 -131q82 24 144 65t100 89t62.5 111.5t34 124.5t12.5 136h4v-971
h149v1012h-280q-3 -168 -67 -274.5t-208 -161.5z" />
    <glyph glyph-name="uni2777" unicode="&#x2777;" horiz-adv-x="2258" 
d="M1178 -250q-210 0 -395.5 77t-318 210t-209.5 319t-77 396t77 395.5t209.5 318t318 209t395.5 76.5t395.5 -76.5t318 -209t209 -318t76.5 -395.5t-76.5 -396t-209 -319t-318 -210t-395.5 -77zM772 766h150q0 364 288 364q112 0 168 -55t56 -157q0 -67 -31 -127
t-79.5 -102t-113 -78t-126 -58.5t-125.5 -40t-104.5 -25t-68.5 -10.5v-244h797v132h-756v4q129 19 238 48.5t206.5 75.5t165 105.5t107 141t39.5 178.5q0 164 -101 253t-272 89q-94 0 -171.5 -28t-138.5 -85.5t-94.5 -154.5t-33.5 -226z" />
    <glyph glyph-name="uni2778" unicode="&#x2778;" horiz-adv-x="2258" 
d="M1178 -250q-210 0 -395.5 77t-318 210t-209.5 319t-77 396t77 395.5t209.5 318t318 209t395.5 76.5t395.5 -76.5t318 -209t209 -318t76.5 -395.5t-76.5 -396t-209 -319t-318 -210t-395.5 -77zM768 618q0 -205 113 -302t315 -97q180 0 285.5 77.5t105.5 215.5
q0 210 -225 250v4q100 15 155.5 73.5t55.5 155.5q0 120 -100 192.5t-277 72.5q-197 0 -305.5 -88t-108.5 -261h150q0 113 62 166t198 53q229 0 229 -167q0 -138 -161 -138h-138v-125h138q176 0 176 -163q0 -187 -244 -187q-142 0 -208 61t-66 207h-150z" />
    <glyph glyph-name="uni2779" unicode="&#x2779;" horiz-adv-x="2258" 
d="M1178 -250q-210 0 -395.5 77t-318 210t-209.5 319t-77 396t77 395.5t209.5 318t318 209t395.5 76.5t395.5 -76.5t318 -209t209 -318t76.5 -395.5t-76.5 -396t-209 -319t-318 -210t-395.5 -77zM743 442h527v-209h151v209h123v129h-123v324h-151v-324h-475v4
q242 91 375 265t155 405h-151q-18 -198 -135.5 -342t-295.5 -209v-252z" />
    <glyph glyph-name="uni277A" unicode="&#x277a;" horiz-adv-x="2258" 
d="M1178 -250q-210 0 -395.5 77t-318 210t-209.5 319t-77 396t77 395.5t209.5 318t318 209t395.5 76.5t395.5 -76.5t318 -209t209 -318t76.5 -395.5t-76.5 -396t-209 -319t-318 -210t-395.5 -77zM752 598q0 -184 116.5 -281.5t307.5 -97.5q199 0 312.5 102.5t113.5 286.5
q0 166 -94 258t-257 92q-240 0 -329 -182l-4 2l63 338h547v129h-672l-78 -446l162 -82q79 117 260 117q118 0 184 -59t66 -171q0 -122 -70 -188t-202 -66q-130 0 -202.5 64t-72.5 184h-151z" />
    <glyph glyph-name="uni277B" unicode="&#x277b;" horiz-adv-x="2258" 
d="M1178 -250q-210 0 -395.5 77t-318 210t-209.5 319t-77 396t77 395.5t209.5 318t318 209t395.5 76.5t395.5 -76.5t318 -209t209 -318t76.5 -395.5t-76.5 -396t-209 -319t-318 -210t-395.5 -77zM760 707q0 -240 113.5 -364t318.5 -124q186 0 294.5 103t108.5 276
q0 160 -102 258t-272 98q-144 0 -234.5 -65t-109.5 -184h-5l5 45q23 366 356 366h285v129h-275q-110 0 -194.5 -27t-138.5 -74t-88 -116.5t-48 -147t-14 -173.5zM909 594q0 110 73.5 175t205.5 65q120 0 188 -63t68 -173q0 -122 -68 -185t-192 -63q-131 0 -203 71t-72 173z
" />
    <glyph glyph-name="uni277C" unicode="&#x277c;" horiz-adv-x="2258" 
d="M1178 -250q-210 0 -395.5 77t-318 210t-209.5 319t-77 396t77 395.5t209.5 318t318 209t395.5 76.5t395.5 -76.5t318 -209t209 -318t76.5 -395.5t-76.5 -396t-209 -319t-318 -210t-395.5 -77zM805 1116h698v-4q-551 -242 -551 -879h158q0 305 108.5 501t331.5 306v205
h-745v-129z" />
    <glyph glyph-name="uni277D" unicode="&#x277d;" horiz-adv-x="2258" 
d="M1178 -250q-210 0 -395.5 77t-318 210t-209.5 319t-77 396t77 395.5t209.5 318t318 209t395.5 76.5t395.5 -76.5t318 -209t209 -318t76.5 -395.5t-76.5 -396t-209 -319t-318 -210t-395.5 -77zM756 514q0 -138 114 -216.5t306 -78.5q196 0 309.5 78.5t113.5 212.5
q0 216 -270 278v5q213 53 213 221q0 84 -51 141t-130.5 81t-182.5 24q-104 0 -183.5 -24t-130.5 -80.5t-51 -141.5q0 -88 58.5 -142.5t154.5 -78.5v-5q-129 -27 -199.5 -95.5t-70.5 -178.5zM905 530q0 90 68.5 141.5t204.5 51.5q135 0 202.5 -51.5t67.5 -141.5
q0 -84 -67.5 -136t-202.5 -52t-204 52t-69 136zM963 995q0 144 215 144q213 0 213 -144q0 -141 -213 -141q-215 0 -215 141z" />
    <glyph glyph-name="uni277E" unicode="&#x277e;" horiz-adv-x="2258" 
d="M1178 -250q-210 0 -395.5 77t-318 210t-209.5 319t-77 396t77 395.5t209.5 318t318 209t395.5 76.5t395.5 -76.5t318 -209t209 -318t76.5 -395.5t-76.5 -396t-209 -319t-318 -210t-395.5 -77zM760 881q0 -159 101 -259t272 -100q144 0 235 65.5t109 174.5h4l-2 -33
q-26 -364 -359 -364h-284v-132h274q137 0 234 40.5t150.5 116t77 169.5t23.5 215q0 238 -114 362t-320 124q-186 0 -293.5 -103t-107.5 -276zM909 881q0 122 68.5 185.5t193.5 63.5q130 0 201.5 -71.5t71.5 -173.5q0 -111 -73.5 -175.5t-205.5 -64.5q-118 0 -187 63t-69 173
z" />
    <glyph glyph-name="uniA78B" unicode="&#xa78b;" horiz-adv-x="501" 
d="M342 1446h170l-102 -533h-170z" />
    <glyph glyph-name="uniA78C" unicode="&#xa78c;" horiz-adv-x="501" 
d="M358 1526h170l-102 -533h-170z" />
    <glyph glyph-name="uni004A0301" horiz-adv-x="1114" 
d="M479 0h-510l31 160h467q147 0 225 87.5t111 258.5l151 778h-528l31 160h573q78 0 103.5 -29.5t11.5 -103.5l-166 -856q-44 -221 -172.5 -338t-327.5 -117zM537 1747l675 164l7 -146l-674 -163z" />
    <glyph glyph-name="M.001" horiz-adv-x="1853" 
d="M49 0l283 1444h340l166 -1381l706 1381h344l-282 -1444h-187l230 1176l39 192l-711 -1368h-299l-176 1368l-39 -192l-230 -1176h-184z" />
    <glyph glyph-name="uni013B.loclMAH" horiz-adv-x="1120" 
d="M178 0q-62 0 -89 33t-15 96l258 1315h184l-250 -1284h723l-31 -160h-780zM258 -432l176 338l156 -51l-176 -338z" />
    <glyph glyph-name="uni0145.loclMAH" horiz-adv-x="1562" 
d="M49 0l283 1444h340l471 -1376l22 112l246 1264h186l-282 -1444h-340l-471 1376l-23 -112l-248 -1264h-184zM387 -432l176 338l156 -51l-176 -338z" />
    <glyph glyph-name="G.ss03" horiz-adv-x="1681" 
d="M160 709q26 225 124.5 395t263.5 266t374 96q264 0 414.5 -147t158.5 -391h-188q-5 178 -102.5 278.5t-286.5 100.5q-242 0 -388.5 -159.5t-181.5 -436.5q-19 -126 -2.5 -231.5t60.5 -181.5t129 -118.5t204 -42.5q211 0 331 127t155 361h-512l30 151h709q129 0 107 -121
l-127 -655h-187l101 510l16 94q-73 -321 -227.5 -474t-413.5 -153q-157 0 -274.5 54.5t-185.5 152t-94 231t-7 294.5z" />
    <glyph glyph-name="Gbreve.ss03" horiz-adv-x="1681" 
d="M160 709q26 225 124.5 395t263.5 266t374 96q264 0 414.5 -147t158.5 -391h-188q-5 178 -102.5 278.5t-286.5 100.5q-242 0 -388.5 -159.5t-181.5 -436.5q-19 -126 -2.5 -231.5t60.5 -181.5t129 -118.5t204 -42.5q211 0 331 127t155 361h-512l30 151h709q129 0 107 -121
l-127 -655h-187l101 510l16 94q-73 -321 -227.5 -474t-413.5 -153q-157 0 -274.5 54.5t-185.5 152t-94 231t-7 294.5zM754 1935h147q-24 -113 23.5 -166t134.5 -53q89 0 132.5 53t63.5 166h146q-22 -167 -117.5 -263.5t-241.5 -96.5q-150 0 -230 99t-58 261z" />
    <glyph glyph-name="uni0122.ss03" horiz-adv-x="1681" 
d="M160 709q26 225 124.5 395t263.5 266t374 96q264 0 414.5 -147t158.5 -391h-188q-5 178 -102.5 278.5t-286.5 100.5q-242 0 -388.5 -159.5t-181.5 -436.5q-19 -126 -2.5 -231.5t60.5 -181.5t129 -118.5t204 -42.5q211 0 331 127t155 361h-512l30 151h709q129 0 107 -121
l-127 -655h-187l101 510l16 94q-73 -321 -227.5 -474t-413.5 -153q-157 0 -274.5 54.5t-185.5 152t-94 231t-7 294.5zM362 -432l177 338l155 -51l-176 -338z" />
    <glyph glyph-name="Gdotaccent.ss03" horiz-adv-x="1681" 
d="M160 709q26 225 124.5 395t263.5 266t374 96q264 0 414.5 -147t158.5 -391h-188q-5 178 -102.5 278.5t-286.5 100.5q-242 0 -388.5 -159.5t-181.5 -436.5q-19 -126 -2.5 -231.5t60.5 -181.5t129 -118.5t204 -42.5q211 0 331 127t155 361h-512l30 151h709q129 0 107 -121
l-127 -655h-187l101 510l16 94q-73 -321 -227.5 -474t-413.5 -153q-157 0 -274.5 54.5t-185.5 152t-94 231t-7 294.5zM897 1755q7 60 52.5 98.5t107.5 38.5t99.5 -38.5t31.5 -98.5q-6 -59 -53 -98t-109 -39t-98.5 38.5t-30.5 98.5z" />
    <glyph glyph-name="R.ss04" horiz-adv-x="1425" 
d="M49 0l283 1444h483q106 0 189.5 -11t154 -38.5t115.5 -71.5t67.5 -112t16.5 -158q-11 -177 -117 -283.5t-313 -112.5q51 -17 83 -71t70 -180l127 -406h-207l-114 393q-31 116 -74 151.5t-156 35.5h-303l-114 -580h-191zM383 733h367q76 0 130.5 6t106 23t85 47t57 79
t32.5 118q9 70 -2.5 120t-37.5 79.5t-74.5 46.5t-100.5 22.5t-127 5.5h-330z" />
    <glyph glyph-name="Racute.ss04" horiz-adv-x="1425" 
d="M49 0l283 1444h483q106 0 189.5 -11t154 -38.5t115.5 -71.5t67.5 -112t16.5 -158q-11 -177 -117 -283.5t-313 -112.5q51 -17 83 -71t70 -180l127 -406h-207l-114 393q-31 116 -74 151.5t-156 35.5h-303l-114 -580h-191zM383 733h367q76 0 130.5 6t106 23t85 47t57 79
t32.5 118q9 70 -2.5 120t-37.5 79.5t-74.5 46.5t-100.5 22.5t-127 5.5h-330zM600 1747l676 164l6 -146l-674 -163z" />
    <glyph glyph-name="Rcaron.ss04" horiz-adv-x="1425" 
d="M49 0l283 1444h483q106 0 189.5 -11t154 -38.5t115.5 -71.5t67.5 -112t16.5 -158q-11 -177 -117 -283.5t-313 -112.5q51 -17 83 -71t70 -180l127 -406h-207l-114 393q-31 116 -74 151.5t-156 35.5h-303l-114 -580h-191zM383 733h367q76 0 130.5 6t106 23t85 47t57 79
t32.5 118q9 70 -2.5 120t-37.5 79.5t-74.5 46.5t-100.5 22.5t-127 5.5h-330zM621 1853l118 95l199 -193l274 193l91 -109l-385 -264z" />
    <glyph glyph-name="uni0156.ss04" horiz-adv-x="1425" 
d="M49 0l283 1444h483q106 0 189.5 -11t154 -38.5t115.5 -71.5t67.5 -112t16.5 -158q-11 -177 -117 -283.5t-313 -112.5q51 -17 83 -71t70 -180l127 -406h-207l-114 393q-31 116 -74 151.5t-156 35.5h-303l-114 -580h-191zM307 -432l176 338l156 -51l-176 -338zM383 733h367
q76 0 130.5 6t106 23t85 47t57 79t32.5 118q9 70 -2.5 120t-37.5 79.5t-74.5 46.5t-100.5 22.5t-127 5.5h-330z" />
    <glyph glyph-name="Y.ss07" horiz-adv-x="1361" 
d="M1274 1444h205l-703 -914l-104 -530h-185l103 530l-344 914h188l279 -733z" />
    <glyph glyph-name="Yacute.ss07" horiz-adv-x="1361" 
d="M1274 1444h205l-703 -914l-104 -530h-185l103 530l-344 914h188l279 -733zM575 1747l676 164l6 -146l-673 -163z" />
    <glyph glyph-name="Ycircumflex.ss07" horiz-adv-x="1361" 
d="M1274 1444h205l-703 -914l-104 -530h-185l103 530l-344 914h188l279 -733zM565 1679l385 267l297 -281l-119 -94l-198 192l-275 -192z" />
    <glyph glyph-name="Ydieresis.ss07" horiz-adv-x="1361" 
d="M1274 1444h205l-703 -914l-104 -530h-185l103 530l-344 914h188l279 -733zM559 1747q6 62 52 102.5t110 40.5q63 0 103 -41t36 -102q-6 -61 -53.5 -102t-110.5 -41t-102 41t-35 102zM981 1747q6 61 52.5 102t109.5 41q64 0 104.5 -41t34.5 -102t-53.5 -102t-110.5 -41
t-102 41t-35 102z" />
    <glyph glyph-name="Ygrave.ss07" horiz-adv-x="1361" 
d="M1274 1444h205l-703 -914l-104 -530h-185l103 530l-344 914h188l279 -733zM592 1774l59 131l611 -164l-60 -131z" />
    <glyph glyph-name="uni1EF8.ss07" horiz-adv-x="1361" 
d="M1274 1444h205l-703 -914l-104 -530h-185l103 530l-344 914h188l279 -733zM520 1634q43 289 250 289q48 0 89 -17t68 -41t50 -48t47.5 -41t48.5 -17q40 0 67.5 30t43.5 114h145q-43 -289 -250 -289q-48 0 -89 17t-68 41t-50 48t-47.5 41t-48.5 17q-39 0 -66.5 -29.5
t-43.5 -114.5h-146z" />
    <glyph glyph-name="i.loclTRK" horiz-adv-x="907" 
d="M8 0l31 156h283l137 706h-211l31 156h262q58 0 81 -28.5t11 -90.5l-144 -743h285l-31 -156h-735zM467 1329q7 60 52.5 98.5t107.5 38.5t99.5 -38.5t31.5 -98.5q-6 -59 -53 -98t-109 -39t-98.5 38.5t-30.5 98.5z" />
    <glyph glyph-name="uni006A0301" horiz-adv-x="622" 
d="M145 -59q33 43 47 76.5t23 86.5l147 758h-215l31 156h266q64 0 91 -27.5t14 -89.5l-160 -829q-11 -51 -25 -84.5t-45 -77.5l-215 -299h-194zM180 1321l676 164l6 -146l-674 -163z" />
    <glyph glyph-name="uni013C.loclMAH" horiz-adv-x="905" 
d="M-10 0l28 156h285l234 1194h-213l28 155h287q109 0 88 -102l-244 -1247h287l-29 -156h-751zM68 -432l176 338l155 -51l-176 -338z" />
    <glyph glyph-name="uni0146.loclMAH" horiz-adv-x="1243" 
d="M45 0l199 1018h180l-25 -129l-22 -107q63 123 167 189.5t242 66.5q205 0 295 -124t49 -345l-108 -569h-182l108 565q31 163 -27 240.5t-208 77.5q-149 0 -254 -110.5t-142 -301.5l-90 -471h-182zM242 -432l176 338l155 -51l-176 -338z" />
    <glyph glyph-name="a.ss01" horiz-adv-x="1341" 
d="M537 -25q-158 0 -266 76t-148.5 205.5t-11.5 290.5q38 218 177 354.5t345 136.5q155 0 273.5 -82t150.5 -237l33 158l24 141h180l-196 -1018h-180l28 139l12 62q-148 -226 -421 -226zM291 541q-38 -196 53.5 -303t261.5 -107q149 0 257 85t141 247q19 101 1 178.5
t-66 130t-117 80t-152 27.5q-143 0 -244.5 -85.5t-134.5 -252.5z" />
    <glyph glyph-name="aacute.ss01" horiz-adv-x="1341" 
d="M537 -25q-158 0 -266 76t-148.5 205.5t-11.5 290.5q38 218 177 354.5t345 136.5q155 0 273.5 -82t150.5 -237l33 158l24 141h180l-196 -1018h-180l28 139l12 62q-148 -226 -421 -226zM291 541q-38 -196 53.5 -303t261.5 -107q149 0 257 85t141 247q19 101 1 178.5
t-66 130t-117 80t-152 27.5q-143 0 -244.5 -85.5t-134.5 -252.5zM477 1321l676 164l6 -146l-674 -163z" />
    <glyph glyph-name="abreve.ss01" horiz-adv-x="1341" 
d="M537 -25q-158 0 -266 76t-148.5 205.5t-11.5 290.5q38 218 177 354.5t345 136.5q155 0 273.5 -82t150.5 -237l33 158l24 141h180l-196 -1018h-180l28 139l12 62q-148 -226 -421 -226zM291 541q-38 -196 53.5 -303t261.5 -107q149 0 257 85t141 247q19 101 1 178.5
t-66 130t-117 80t-152 27.5q-143 0 -244.5 -85.5t-134.5 -252.5zM535 1509h147q-24 -113 23.5 -166t134.5 -53q89 0 132.5 53t63.5 166h146q-22 -167 -117.5 -263.5t-241.5 -96.5q-150 0 -230 99t-58 261z" />
    <glyph glyph-name="acircumflex.ss01" horiz-adv-x="1341" 
d="M537 -25q-158 0 -266 76t-148.5 205.5t-11.5 290.5q38 218 177 354.5t345 136.5q155 0 273.5 -82t150.5 -237l33 158l24 141h180l-196 -1018h-180l28 139l12 62q-148 -226 -421 -226zM291 541q-38 -196 53.5 -303t261.5 -107q149 0 257 85t141 247q19 101 1 178.5
t-66 130t-117 80t-152 27.5q-143 0 -244.5 -85.5t-134.5 -252.5zM467 1253l385 267l297 -281l-119 -94l-199 192l-274 -192z" />
    <glyph glyph-name="adieresis.ss01" horiz-adv-x="1341" 
d="M537 -25q-158 0 -266 76t-148.5 205.5t-11.5 290.5q38 218 177 354.5t345 136.5q155 0 273.5 -82t150.5 -237l33 158l24 141h180l-196 -1018h-180l28 139l12 62q-148 -226 -421 -226zM291 541q-38 -196 53.5 -303t261.5 -107q149 0 257 85t141 247q19 101 1 178.5
t-66 130t-117 80t-152 27.5q-143 0 -244.5 -85.5t-134.5 -252.5zM461 1321q6 62 52 102.5t110 40.5q63 0 103 -41t36 -102q-6 -61 -53.5 -102t-110.5 -41t-102 41t-35 102zM883 1321q6 61 52 102t109 41q64 0 105 -41t35 -102t-53.5 -102t-110.5 -41t-102 41t-35 102z" />
    <glyph glyph-name="agrave.ss01" horiz-adv-x="1341" 
d="M537 -25q-158 0 -266 76t-148.5 205.5t-11.5 290.5q38 218 177 354.5t345 136.5q155 0 273.5 -82t150.5 -237l33 158l24 141h180l-196 -1018h-180l28 139l12 62q-148 -226 -421 -226zM291 541q-38 -196 53.5 -303t261.5 -107q149 0 257 85t141 247q19 101 1 178.5
t-66 130t-117 80t-152 27.5q-143 0 -244.5 -85.5t-134.5 -252.5zM494 1348l59 131l610 -164l-59 -131z" />
    <glyph glyph-name="amacron.ss01" horiz-adv-x="1341" 
d="M537 -25q-158 0 -266 76t-148.5 205.5t-11.5 290.5q38 218 177 354.5t345 136.5q155 0 273.5 -82t150.5 -237l33 158l24 141h180l-196 -1018h-180l28 139l12 62q-148 -226 -421 -226zM291 541q-38 -196 53.5 -303t261.5 -107q149 0 257 85t141 247q19 101 1 178.5
t-66 130t-117 80t-152 27.5q-143 0 -244.5 -85.5t-134.5 -252.5zM424 1260v147h680v-145z" />
    <glyph glyph-name="aogonek.ss01" horiz-adv-x="1341" 
d="M537 -25q-158 0 -266 76t-148.5 205.5t-11.5 290.5q38 218 177 354.5t345 136.5q155 0 273.5 -82t150.5 -237l33 158l24 141h180l-198 -1018l-176 -250l372 2l-28 -147h-404q-83 0 -106.5 53t32.5 125l158 217h-26l28 139l12 62q-148 -226 -421 -226zM291 541
q-38 -196 53.5 -303t261.5 -107q149 0 257 85t141 247q19 101 1 178.5t-66 130t-117 80t-152 27.5q-143 0 -244.5 -85.5t-134.5 -252.5z" />
    <glyph glyph-name="aring.ss01" horiz-adv-x="1341" 
d="M537 -25q-158 0 -266 76t-148.5 205.5t-11.5 290.5q38 218 177 354.5t345 136.5q155 0 273.5 -82t150.5 -237l33 158l24 141h180l-196 -1018h-180l28 139l12 62q-148 -226 -421 -226zM291 541q-38 -196 53.5 -303t261.5 -107q149 0 257 85t141 247q19 101 1 178.5
t-66 130t-117 80t-152 27.5q-143 0 -244.5 -85.5t-134.5 -252.5zM514 1370q0 95 66 159t182 64t183 -64t67 -159t-67 -160t-183 -65t-182 64.5t-66 160.5zM655 1370q0 -45 27.5 -70.5t79.5 -25.5q53 0 80.5 25.5t27.5 70.5q0 43 -28 67.5t-80 24.5t-79.5 -24.5t-27.5 -67.5z
" />
    <glyph glyph-name="atilde.ss01" horiz-adv-x="1341" 
d="M537 -25q-158 0 -266 76t-148.5 205.5t-11.5 290.5q38 218 177 354.5t345 136.5q155 0 273.5 -82t150.5 -237l33 158l24 141h180l-196 -1018h-180l28 139l12 62q-148 -226 -421 -226zM291 541q-38 -196 53.5 -303t261.5 -107q149 0 257 85t141 247q19 101 1 178.5
t-66 130t-117 80t-152 27.5q-143 0 -244.5 -85.5t-134.5 -252.5zM422 1208q43 289 250 289q48 0 89 -17t68 -41t50 -48t47.5 -41t48.5 -17q39 0 66.5 29.5t43.5 114.5h146q-43 -289 -250 -289q-48 0 -89 17t-68 41t-50 48t-47.5 41t-48.5 17q-40 0 -67.5 -30t-43.5 -114
h-145z" />
    <glyph glyph-name="r.ss02" horiz-adv-x="860" 
d="M47 0l199 1018h182l-35 -170l-55 -123h51q56 137 161.5 216t250.5 79h131l-31 -158h-186q-150 0 -255.5 -113t-144.5 -309l-86 -440h-182z" />
    <glyph glyph-name="racute.ss02" horiz-adv-x="860" 
d="M47 0l199 1018h182l-35 -170l-55 -123h51q56 137 161.5 216t250.5 79h131l-31 -158h-186q-150 0 -255.5 -113t-144.5 -309l-86 -440h-182zM188 1321l676 164l6 -146l-673 -163z" />
    <glyph glyph-name="rcaron.ss02" horiz-adv-x="860" 
d="M47 0l199 1018h182l-35 -170l-55 -123h51q56 137 161.5 216t250.5 79h131l-31 -158h-186q-150 0 -255.5 -113t-144.5 -309l-86 -440h-182zM211 1427l119 95l198 -193l275 193l90 -109l-385 -264z" />
    <glyph glyph-name="uni0157.ss02" horiz-adv-x="860" 
d="M47 0l199 1018h182l-35 -170l-55 -123h51q56 137 161.5 216t250.5 79h131l-31 -158h-186q-150 0 -255.5 -113t-144.5 -309l-86 -440h-182zM-18 -432l176 338l155 -51l-176 -338z" />
    <glyph glyph-name="g.ss05" horiz-adv-x="1347" 
d="M14 -227q135 -2 247.5 -0.5t203 6.5t159.5 16.5t116 30t72.5 46t29.5 65.5q5 45 -16.5 74t-65 40t-100.5 12t-131.5 -8.5t-149.5 -22.5t-162 -30q-8 -2 -12 -2.5t-11.5 -2l-12.5 -2.5t-11.5 -2.5t-12.5 -2.5l-12 -2l-2 121q306 59 539 139q-161 -20 -291.5 17.5
t-204.5 134.5t-59 237q13 101 64.5 179.5t129 126t169.5 71.5t194 24q237 0 365 -118q73 64 126 81t132 17h92l-31 -156h-86q-99 0 -158 -43q46 -97 33 -213q-34 -305 -561 -477q69 10 131 11t120.5 -11.5t99 -38t62.5 -71.5t15 -109q-9 -83 -60.5 -137t-169.5 -92
t-317.5 -52t-499.5 -8zM307 631q-15 -134 65.5 -202.5t237.5 -68.5q156 0 254 69t115 202q17 131 -66 200.5t-235 69.5q-154 0 -254 -69.5t-117 -200.5z" />
    <glyph glyph-name="gbreve.ss05" horiz-adv-x="1347" 
d="M14 -227q135 -2 247.5 -0.5t203 6.5t159.5 16.5t116 30t72.5 46t29.5 65.5q5 45 -16.5 74t-65 40t-100.5 12t-131.5 -8.5t-149.5 -22.5t-162 -30q-8 -2 -12 -2.5t-11.5 -2l-12.5 -2.5t-11.5 -2.5t-12.5 -2.5l-12 -2l-2 121q306 59 539 139q-161 -20 -291.5 17.5
t-204.5 134.5t-59 237q13 101 64.5 179.5t129 126t169.5 71.5t194 24q237 0 365 -118q73 64 126 81t132 17h92l-31 -156h-86q-99 0 -158 -43q46 -97 33 -213q-34 -305 -561 -477q69 10 131 11t120.5 -11.5t99 -38t62.5 -71.5t15 -109q-9 -83 -60.5 -137t-169.5 -92
t-317.5 -52t-499.5 -8zM307 631q-15 -134 65.5 -202.5t237.5 -68.5q156 0 254 69t115 202q17 131 -66 200.5t-235 69.5q-154 0 -254 -69.5t-117 -200.5zM492 1509h147q-24 -113 23.5 -166t134.5 -53q89 0 132.5 53t63.5 166h146q-22 -167 -117.5 -263.5t-241.5 -96.5
q-150 0 -230 99t-58 261z" />
    <glyph glyph-name="gcircumflex.ss05" horiz-adv-x="1347" 
d="M14 -227q135 -2 247.5 -0.5t203 6.5t159.5 16.5t116 30t72.5 46t29.5 65.5q5 45 -16.5 74t-65 40t-100.5 12t-131.5 -8.5t-149.5 -22.5t-162 -30q-8 -2 -12 -2.5t-11.5 -2l-12.5 -2.5t-11.5 -2.5t-12.5 -2.5l-12 -2l-2 121q306 59 539 139q-161 -20 -291.5 17.5
t-204.5 134.5t-59 237q13 101 64.5 179.5t129 126t169.5 71.5t194 24q237 0 365 -118q73 64 126 81t132 17h92l-31 -156h-86q-99 0 -158 -43q46 -97 33 -213q-34 -305 -561 -477q69 10 131 11t120.5 -11.5t99 -38t62.5 -71.5t15 -109q-9 -83 -60.5 -137t-169.5 -92
t-317.5 -52t-499.5 -8zM307 631q-15 -134 65.5 -202.5t237.5 -68.5q156 0 254 69t115 202q17 131 -66 200.5t-235 69.5q-154 0 -254 -69.5t-117 -200.5zM424 1253l385 267l297 -281l-119 -94l-199 192l-274 -192z" />
    <glyph glyph-name="uni0123.ss05" horiz-adv-x="1347" 
d="M14 -227q135 -2 247.5 -0.5t203 6.5t159.5 16.5t116 30t72.5 46t29.5 65.5q5 45 -16.5 74t-65 40t-100.5 12t-131.5 -8.5t-149.5 -22.5t-162 -30q-8 -2 -12 -2.5t-11.5 -2l-12.5 -2.5t-11.5 -2.5t-12.5 -2.5l-12 -2l-2 121q306 59 539 139q-161 -20 -291.5 17.5
t-204.5 134.5t-59 237q13 101 64.5 179.5t129 126t169.5 71.5t194 24q237 0 365 -118q73 64 126 81t132 17h92l-31 -156h-86q-99 0 -158 -43q46 -97 33 -213q-34 -305 -561 -477q69 10 131 11t120.5 -11.5t99 -38t62.5 -71.5t15 -109q-9 -83 -60.5 -137t-169.5 -92
t-317.5 -52t-499.5 -8zM307 631q-15 -134 65.5 -202.5t237.5 -68.5q156 0 254 69t115 202q17 131 -66 200.5t-235 69.5q-154 0 -254 -69.5t-117 -200.5zM647 1217l107 378l157 -43l-108 -376z" />
    <glyph glyph-name="gdotaccent.ss05" horiz-adv-x="1347" 
d="M14 -227q135 -2 247.5 -0.5t203 6.5t159.5 16.5t116 30t72.5 46t29.5 65.5q5 45 -16.5 74t-65 40t-100.5 12t-131.5 -8.5t-149.5 -22.5t-162 -30q-8 -2 -12 -2.5t-11.5 -2l-12.5 -2.5t-11.5 -2.5t-12.5 -2.5l-12 -2l-2 121q306 59 539 139q-161 -20 -291.5 17.5
t-204.5 134.5t-59 237q13 101 64.5 179.5t129 126t169.5 71.5t194 24q237 0 365 -118q73 64 126 81t132 17h92l-31 -156h-86q-99 0 -158 -43q46 -97 33 -213q-34 -305 -561 -477q69 10 131 11t120.5 -11.5t99 -38t62.5 -71.5t15 -109q-9 -83 -60.5 -137t-169.5 -92
t-317.5 -52t-499.5 -8zM307 631q-15 -134 65.5 -202.5t237.5 -68.5q156 0 254 69t115 202q17 131 -66 200.5t-235 69.5q-154 0 -254 -69.5t-117 -200.5zM633 1329q7 60 52.5 98.5t107.5 38.5t99.5 -38.5t31.5 -98.5q-6 -59 -53 -98t-109 -39t-98.5 38.5t-30.5 98.5z" />
    <glyph glyph-name="uni1E21.ss05" horiz-adv-x="1347" 
d="M14 -227q135 -2 247.5 -0.5t203 6.5t159.5 16.5t116 30t72.5 46t29.5 65.5q5 45 -16.5 74t-65 40t-100.5 12t-131.5 -8.5t-149.5 -22.5t-162 -30q-8 -2 -12 -2.5t-11.5 -2l-12.5 -2.5t-11.5 -2.5t-12.5 -2.5l-12 -2l-2 121q306 59 539 139q-161 -20 -291.5 17.5
t-204.5 134.5t-59 237q13 101 64.5 179.5t129 126t169.5 71.5t194 24q237 0 365 -118q73 64 126 81t132 17h92l-31 -156h-86q-99 0 -158 -43q46 -97 33 -213q-34 -305 -561 -477q69 10 131 11t120.5 -11.5t99 -38t62.5 -71.5t15 -109q-9 -83 -60.5 -137t-169.5 -92
t-317.5 -52t-499.5 -8zM307 631q-15 -134 65.5 -202.5t237.5 -68.5q156 0 254 69t115 202q17 131 -66 200.5t-235 69.5q-154 0 -254 -69.5t-117 -200.5zM381 1260v147h680v-145z" />
    <glyph glyph-name="k.ss06" horiz-adv-x="1163" 
d="M47 0l291 1505h182l-186 -964l588 278l39 199h174l-39 -203q-18 -94 -109 -139l-282 -135l290 -541h-198l-250 465l-250 -119l-68 -346h-182z" />
    <glyph glyph-name="uni0137.ss06" horiz-adv-x="1163" 
d="M47 0l291 1505h182l-186 -964l588 278l39 199h174l-39 -203q-18 -94 -109 -139l-282 -135l290 -541h-198l-250 465l-250 -119l-68 -346h-182zM199 -432l176 338l155 -51l-176 -338z" />
    <glyph glyph-name="y.ss07" horiz-adv-x="1153" 
d="M1006 1018h206l-641 -1004l-10 -61l-45 -236q-21 -116 -139 -116h-432l30 159h367l37 193l10 61l-250 1004h191l184 -795z" />
    <glyph glyph-name="yacute.ss07" horiz-adv-x="1153" 
d="M1006 1018h206l-641 -1004l-10 -61l-45 -236q-21 -116 -139 -116h-432l30 159h367l37 193l10 61l-250 1004h191l184 -795zM391 1321l676 164l6 -146l-674 -163z" />
    <glyph glyph-name="ycircumflex.ss07" horiz-adv-x="1153" 
d="M1006 1018h206l-641 -1004l-10 -61l-45 -236q-21 -116 -139 -116h-432l30 159h367l37 193l10 61l-250 1004h191l184 -795zM379 1253l385 267l297 -281l-119 -94l-199 192l-274 -192z" />
    <glyph glyph-name="ydieresis.ss07" horiz-adv-x="1153" 
d="M1006 1018h206l-641 -1004l-10 -61l-45 -236q-21 -116 -139 -116h-432l30 159h367l37 193l10 61l-250 1004h191l184 -795zM375 1321q6 62 52 102.5t110 40.5q63 0 103 -41t36 -102q-6 -61 -53.5 -102t-110.5 -41t-102 41t-35 102zM797 1321q6 61 52 102t109 41
q64 0 105 -41t35 -102t-53.5 -102t-110.5 -41t-102 41t-35 102z" />
    <glyph glyph-name="ygrave.ss07" horiz-adv-x="1153" 
d="M1006 1018h206l-641 -1004l-10 -61l-45 -236q-21 -116 -139 -116h-432l30 159h367l37 193l10 61l-250 1004h191l184 -795zM408 1348l59 131l610 -164l-59 -131z" />
    <glyph glyph-name="uni1EF9.ss07" horiz-adv-x="1153" 
d="M1006 1018h206l-641 -1004l-10 -61l-45 -236q-21 -116 -139 -116h-432l30 159h367l37 193l10 61l-250 1004h191l184 -795zM336 1208q43 289 250 289q48 0 89 -17t68 -41t50 -48t47.5 -41t48.5 -17q39 0 66.5 29.5t43.5 114.5h146q-43 -289 -250 -289q-48 0 -89 17t-68 41
t-50 48t-47.5 41t-48.5 17q-40 0 -67.5 -30t-43.5 -114h-145z" />
    <glyph glyph-name="r.ss08" horiz-adv-x="1019" 
d="M8 0l31 156h197l137 706h-197l29 156h260q58 0 84 -24.5t16 -71.5l-18 -95l-12 -71q59 124 165.5 194t253.5 70h133l-30 -158h-189q-148 0 -254.5 -113t-144.5 -309l-55 -284h352l-31 -156h-727z" />
    <glyph glyph-name="racute.ss08" horiz-adv-x="1019" 
d="M8 0l31 156h197l137 706h-197l29 156h260q58 0 84 -24.5t16 -71.5l-18 -95l-12 -71q59 124 165.5 194t253.5 70h133l-30 -158h-189q-148 0 -254.5 -113t-144.5 -309l-55 -284h352l-31 -156h-727zM303 1321l676 164l6 -146l-674 -163z" />
    <glyph glyph-name="rcaron.ss08" horiz-adv-x="1019" 
d="M8 0l31 156h197l137 706h-197l29 156h260q58 0 84 -24.5t16 -71.5l-18 -95l-12 -71q59 124 165.5 194t253.5 70h133l-30 -158h-189q-148 0 -254.5 -113t-144.5 -309l-55 -284h352l-31 -156h-727zM326 1427l118 95l199 -193l275 193l90 -109l-385 -264z" />
    <glyph glyph-name="uni0157.ss08" horiz-adv-x="1019" 
d="M8 0l31 156h197l137 706h-197l29 156h260q58 0 84 -24.5t16 -71.5l-18 -95l-12 -71q59 124 165.5 194t253.5 70h133l-30 -158h-189q-148 0 -254.5 -113t-144.5 -309l-55 -284h352l-31 -156h-727zM96 -432l176 338l156 -51l-176 -338z" />
    <glyph glyph-name="y.ss10" horiz-adv-x="1105" 
d="M-78 -399l31 153h338l141 246h-129l-164 1018h178l148 -946l516 946h182l-714 -1313q-55 -104 -150 -104h-377z" />
    <glyph glyph-name="yacute.ss10" horiz-adv-x="1105" 
d="M-78 -399l31 153h338l141 246h-129l-164 1018h178l148 -946l516 946h182l-714 -1313q-55 -104 -150 -104h-377zM367 1321l675 164l7 -146l-674 -163z" />
    <glyph glyph-name="ycircumflex.ss10" horiz-adv-x="1105" 
d="M-78 -399l31 153h338l141 246h-129l-164 1018h178l148 -946l516 946h182l-714 -1313q-55 -104 -150 -104h-377zM356 1253l385 267l297 -281l-118 -94l-199 192l-275 -192z" />
    <glyph glyph-name="ydieresis.ss10" horiz-adv-x="1105" 
d="M-78 -399l31 153h338l141 246h-129l-164 1018h178l148 -946l516 946h182l-714 -1313q-55 -104 -150 -104h-377zM350 1321q6 62 52 102.5t110 40.5q63 0 103 -41t36 -102q-6 -61 -53.5 -102t-110.5 -41t-102 41t-35 102zM772 1321q6 61 52.5 102t109.5 41q64 0 104.5 -41
t34.5 -102t-53.5 -102t-110.5 -41t-102 41t-35 102z" />
    <glyph glyph-name="ygrave.ss10" horiz-adv-x="1105" 
d="M-78 -399l31 153h338l141 246h-129l-164 1018h178l148 -946l516 946h182l-714 -1313q-55 -104 -150 -104h-377zM383 1348l59 131l611 -164l-60 -131z" />
    <glyph glyph-name="uni1EF9.ss10" horiz-adv-x="1105" 
d="M-78 -399l31 153h338l141 246h-129l-164 1018h178l148 -946l516 946h182l-714 -1313q-55 -104 -150 -104h-377zM311 1208q43 289 250 289q48 0 89 -17t68 -41t50 -48t47.5 -41t48.5 -17q40 0 67.5 30t43.5 114h145q-43 -289 -250 -289q-48 0 -89 17t-68 41t-50 48
t-47.5 41t-48.5 17q-39 0 -66.5 -29.5t-43.5 -114.5h-146z" />
    <glyph glyph-name="f_i.dlig" horiz-adv-x="1593" 
d="M821 1350q-91 0 -139 -51.5t-68 -153.5l-24 -127h616q72 0 98 -33.5t11 -107.5l-139 -721h280l-29 -156h-1437l28 156h226l135 706h-223l30 156h224l24 129q34 169 139 263.5t287 94.5h457l-29 -155h-467zM422 156h571l140 706h-574z" />
    <glyph glyph-name="f_t.dlig" horiz-adv-x="1628" 
d="M156 862l30 156h222l28 147q32 162 136.5 251t287.5 89h176l-28 -155h-187q-93 0 -138.5 -44.5t-64.5 -144.5l-28 -143h508l51 258l192 55l-61 -313h319l-30 -156h-320l-137 -708l363 2l-31 -156h-400q-73 0 -101.5 34.5t-14.5 108.5l141 719h-508l-137 -706h293
l-29 -156h-698l28 156h224l135 706h-221z" />
    <glyph glyph-name="g_f.ss05_dlig" horiz-adv-x="2091" 
d="M14 -227q135 -2 247.5 -0.5t203 6.5t159.5 16.5t116 30t72.5 46t29.5 65.5q5 45 -16.5 74t-65 40t-100.5 12t-131.5 -8.5t-149.5 -22.5t-162 -30q-8 -2 -12 -2.5t-11.5 -2l-12.5 -2.5t-11.5 -2.5t-12.5 -2.5l-12 -2l-2 121q306 59 539 139q-161 -20 -291.5 17.5
t-204.5 134.5t-59 237q13 101 64.5 179.5t129 126t169.5 71.5t194 24q237 0 365 -118q73 64 126 81t132 17h303l28 147q32 162 136.5 251t287.5 89h176l-28 -155h-187q-93 0 -138 -44.5t-64 -144.5l-29 -143h295l-29 -156h-295l-137 -706h293l-29 -156h-698l29 156h223
l135 706h-297q-99 0 -158 -43q46 -97 33 -213q-34 -305 -561 -477q69 10 131 11t120.5 -11.5t99 -38t62.5 -71.5t15 -109q-9 -83 -60.5 -137t-169.5 -92t-317.5 -52t-499.5 -8zM307 631q-15 -134 65.5 -202.5t237.5 -68.5q156 0 254 69t115 202q17 131 -66 200.5t-235 69.5
q-154 0 -254 -69.5t-117 -200.5z" />
    <glyph glyph-name="g_i.ss05_dlig" horiz-adv-x="2025" 
d="M16 -227q135 -2 247.5 -0.5t203 6.5t159.5 16.5t116 30t72.5 46t29.5 65.5q5 45 -16.5 74t-65 40t-100.5 12t-131.5 -8.5t-149.5 -22.5t-162 -30q-8 -2 -12 -2.5t-11.5 -2l-12.5 -2.5t-11.5 -2.5t-12.5 -2.5l-12 -2l-2 121q306 59 539 139q-161 -20 -291.5 17.5
t-204.5 134.5t-59 237q13 101 64.5 179.5t129 126t169.5 71.5t194 24q237 0 365 -118q88 76 166 92v6h442q58 0 81 -28.5t11 -90.5l-143 -743h284l-30 -156h-736l31 156h283l137 706h-293q-99 0 -158 -43q46 -97 33 -213q-34 -305 -561 -477q69 10 131 11t120.5 -11.5
t99 -38t62.5 -71.5t15 -109q-9 -83 -60.5 -137t-169 -92t-317 -52t-499.5 -8zM309 631q-15 -134 65.5 -202.5t237.5 -68.5q156 0 254 69t115 202q17 131 -66 200.5t-235 69.5q-154 0 -254 -69.5t-117 -200.5zM1585 1329q7 60 52.5 98.5t107.5 38.5t99.5 -38.5t31.5 -98.5
q-6 -59 -53 -98t-109 -39t-98.5 38.5t-30.5 98.5z" />
    <glyph glyph-name="g_t.ss05_dlig" horiz-adv-x="2129" 
d="M14 -227q135 -2 247.5 -0.5t203 6.5t159.5 16.5t116 30t72.5 46t29.5 65.5q5 45 -16.5 74t-65 40t-100.5 12t-131.5 -8.5t-149.5 -22.5t-162 -30q-8 -2 -12 -2.5t-11.5 -2l-12.5 -2.5t-11.5 -2.5t-12.5 -2.5l-12 -2l-2 121q306 59 539 139q-161 -20 -291.5 17.5
t-204.5 134.5t-59 237q13 101 64.5 179.5t129 126t169.5 71.5t194 24q237 0 365 -118q73 64 126 81t132 17h292l52 258l192 55l-61 -313h319l-30 -156h-320l-137 -708l362 2l-30 -156h-400q-73 0 -101.5 34.5t-14.5 108.5l141 719h-289q-99 0 -158 -43q46 -97 33 -213
q-34 -305 -561 -477q69 10 131 11t120.5 -11.5t99 -38t62.5 -71.5t15 -109q-9 -83 -60.5 -137t-169.5 -92t-317.5 -52t-499.5 -8zM307 631q-15 -134 65.5 -202.5t237.5 -68.5q156 0 254 69t115 202q17 131 -66 200.5t-235 69.5q-154 0 -254 -69.5t-117 -200.5z" />
    <glyph glyph-name="r_f.dlig" horiz-adv-x="1433" 
d="M219 877q23 141 170 141h563l29 147q32 162 136.5 251t287.5 89h176l-29 -155h-186q-93 0 -138.5 -44.5t-64.5 -144.5l-28 -143h295l-29 -156h-295l-137 -706h293l-29 -156h-698l28 156h223l136 706h-527l-166 -862h-182z" />
    <glyph glyph-name="r_i.dlig" horiz-adv-x="1435" 
d="M219 877q23 141 170 141h680q58 0 81 -28.5t11 -90.5l-143 -743h285l-31 -156h-735l30 156h283l137 706h-592l-166 -862h-182zM995 1329q7 60 52.5 98.5t107.5 38.5t99.5 -38.5t31.5 -98.5q-6 -59 -53 -98t-109 -39t-98.5 38.5t-30.5 98.5z" />
    </font>
</defs>
</svg>
