<svg width="237" height="56" viewBox="0 0 237 56" fill="none" xmlns="http://www.w3.org/2000/svg">
    <g style="mix-blend-mode:hard-light" opacity="0.8">
        <mask id="path-1-inside-1_716_914" fill="white">
            <path fill-rule="evenodd" clip-rule="evenodd"
                d="M30.9508 0C31.2925 3.09126 33.9133 5.49564 37.0956 5.49564L199.217 5.49565C202.4 5.49565 205.021 3.09127 205.362 0H231.504C234.54 0 237 2.46049 237 5.49565V10.3043C233.965 10.3043 231.504 12.7648 231.504 15.8V39.1565C231.504 42.1917 233.965 44.6522 237 44.6522V49.4609C237 52.496 234.54 54.9565 231.504 54.9565H205.309C204.839 52.3988 202.598 50.4609 199.904 50.4609L36.4087 50.4609C33.715 50.4609 31.474 52.3988 31.0038 54.9565H5.49565C2.46049 54.9565 0 52.496 0 49.4609V44.6522C3.03516 44.6522 5.49565 42.1917 5.49565 39.1565V15.8C5.49565 12.7648 3.03516 10.3043 0 10.3043V5.49565C0 2.46049 2.46049 0 5.49565 0H30.9508Z" />
        </mask>
        <path fill-rule="evenodd" clip-rule="evenodd"
            d="M30.9508 0C31.2925 3.09126 33.9133 5.49564 37.0956 5.49564L199.217 5.49565C202.4 5.49565 205.021 3.09127 205.362 0H231.504C234.54 0 237 2.46049 237 5.49565V10.3043C233.965 10.3043 231.504 12.7648 231.504 15.8V39.1565C231.504 42.1917 233.965 44.6522 237 44.6522V49.4609C237 52.496 234.54 54.9565 231.504 54.9565H205.309C204.839 52.3988 202.598 50.4609 199.904 50.4609L36.4087 50.4609C33.715 50.4609 31.474 52.3988 31.0038 54.9565H5.49565C2.46049 54.9565 0 52.496 0 49.4609V44.6522C3.03516 44.6522 5.49565 42.1917 5.49565 39.1565V15.8C5.49565 12.7648 3.03516 10.3043 0 10.3043V5.49565C0 2.46049 2.46049 0 5.49565 0H30.9508Z"
            fill="#40C700" fill-opacity="0.5" class='bg7'/>
        <path
            d="M30.9508 0L31.9447 -0.109876L31.8463 -1H30.9508V0ZM37.0956 5.49564L37.0956 4.49564H37.0956V5.49564ZM199.217 5.49565L199.217 6.49565H199.217V5.49565ZM205.362 0V-1H204.467L204.368 -0.109875L205.362 0ZM237 10.3043V11.3043H238V10.3043H237ZM237 44.6522H238V43.6522H237V44.6522ZM205.309 54.9565L204.326 55.1373L204.476 55.9565H205.309V54.9565ZM199.904 50.4609L199.904 49.4609H199.904L199.904 50.4609ZM36.4087 50.4609L36.4087 51.4609H36.4087L36.4087 50.4609ZM31.0038 54.9565V55.9565H31.8367L31.9873 55.1373L31.0038 54.9565ZM0 44.6522V43.6522H-1V44.6522H0ZM0 10.3043H-1V11.3043H0V10.3043ZM29.9568 0.109876C30.3539 3.70219 33.3979 6.49564 37.0956 6.49564V4.49564C34.4287 4.49564 32.2311 2.48033 31.9447 -0.109876L29.9568 0.109876ZM37.0956 6.49564L199.217 6.49565L199.217 4.49565L37.0956 4.49564L37.0956 6.49564ZM199.217 6.49565C202.915 6.49565 205.959 3.7022 206.356 0.109875L204.368 -0.109875C204.082 2.48034 201.884 4.49565 199.217 4.49565V6.49565ZM205.362 1H231.504V-1H205.362V1ZM231.504 1C233.987 1 236 3.01277 236 5.49565H238C238 1.9082 235.092 -1 231.504 -1V1ZM236 5.49565V10.3043H238V5.49565H236ZM232.504 15.8C232.504 13.3171 234.517 11.3043 237 11.3043V9.30434C233.413 9.30434 230.504 12.2125 230.504 15.8H232.504ZM232.504 39.1565V15.8H230.504V39.1565H232.504ZM237 43.6522C234.517 43.6522 232.504 41.6394 232.504 39.1565H230.504C230.504 42.744 233.413 45.6522 237 45.6522V43.6522ZM236 44.6522V49.4609H238V44.6522H236ZM236 49.4609C236 51.9438 233.987 53.9565 231.504 53.9565V55.9565C235.092 55.9565 238 53.0483 238 49.4609H236ZM231.504 53.9565H205.309V55.9565H231.504V53.9565ZM206.293 54.7757C205.737 51.752 203.089 49.4609 199.904 49.4609V51.4609C202.107 51.4609 203.941 53.0456 204.326 55.1373L206.293 54.7757ZM199.904 49.4609L36.4087 49.4609L36.4087 51.4609L199.904 51.4609L199.904 49.4609ZM36.4087 49.4609C33.2238 49.4609 30.5761 51.752 30.0203 54.7757L31.9873 55.1373C32.3718 53.0456 34.2062 51.4609 36.4087 51.4609V49.4609ZM31.0038 53.9565H5.49565V55.9565H31.0038V53.9565ZM5.49565 53.9565C3.01277 53.9565 1 51.9437 1 49.4609H-1C-1 53.0483 1.9082 55.9565 5.49565 55.9565V53.9565ZM1 49.4609V44.6522H-1V49.4609H1ZM0 45.6522C3.58745 45.6522 6.49565 42.744 6.49565 39.1565H4.49565C4.49565 41.6394 2.48288 43.6522 0 43.6522V45.6522ZM6.49565 39.1565V15.8H4.49565V39.1565H6.49565ZM6.49565 15.8C6.49565 12.2125 3.58745 9.30434 0 9.30434V11.3043C2.48288 11.3043 4.49565 13.3171 4.49565 15.8H6.49565ZM1 10.3043V5.49565H-1V10.3043H1ZM1 5.49565C1 3.01277 3.01277 1 5.49565 1V-1C1.9082 -1 -1 1.9082 -1 5.49565H1ZM5.49565 1H30.9508V-1H5.49565V1Z"
            fill="white" fill-opacity="0.5" mask="url(#path-1-inside-1_716_914)" />
    </g>
    <path
        d="M0 13.7393V13.7393C1.51758 13.7393 2.74783 14.9695 2.74783 16.4871V38.4697C2.74783 39.9873 1.51758 41.2175 0 41.2175V41.2175V13.7393Z"
        fill="#52FF00" />
    <path
        d="M202.652 0V0C202.652 1.51759 201.422 2.74783 199.905 2.74783L36.4089 2.74783C34.8913 2.74783 33.661 1.51758 33.661 -7.38684e-06V-7.38684e-06L202.652 0Z"
        fill="#52FF00" />
    <path
        d="M202.652 55.7478V55.7478C202.652 54.2302 201.422 53 199.905 53L36.4089 53C34.8913 53 33.661 54.2302 33.661 55.7478V55.7478L202.652 55.7478Z"
        fill="#52FF00" />
    <path
        d="M237 13.7393V13.7393C235.482 13.7393 234.252 14.9695 234.252 16.4871V38.4697C234.252 39.9873 235.482 41.2175 237 41.2175V41.2175V13.7393Z"
        fill="#52FF00" />
    <g filter="url(#filter0_d_716_914)">
        <line opacity="0.5" x1="63.8867" y1="29.1958" x2="28.165" y2="29.1958" stroke="#52FF00"
            stroke-width="0.686957" />
        <line opacity="0.5" x1="57.7041" y1="25.761" x2="34.3476" y2="25.761" stroke="#52FF00"
            stroke-width="0.686957" />
        <line opacity="0.5" x1="57.7041" y1="32.6306" x2="34.3476" y2="32.6306" stroke="#52FF00"
            stroke-width="0.686957" />
    </g>
    <g filter="url(#filter1_d_716_914)">
        <line opacity="0.5" x1="208.147" y1="29.1958" x2="172.426" y2="29.1958" stroke="#52FF00"
            stroke-width="0.686957" />
        <line opacity="0.5" x1="201.965" y1="25.761" x2="178.608" y2="25.761" stroke="#52FF00"
            stroke-width="0.686957" />
        <line opacity="0.5" x1="201.965" y1="32.6306" x2="178.608" y2="32.6306" stroke="#52FF00"
            stroke-width="0.686957" />
    </g>
    <defs>
        <filter id="filter0_d_716_914" x="12.165" y="9.41748" width="67.7217" height="39.5566"
            filterUnits="userSpaceOnUse" color-interpolation-filters="sRGB">
            <feFlood flood-opacity="0" result="BackgroundImageFix" />
            <feColorMatrix in="SourceAlpha" type="matrix"
                values="0 0 0 0 0 0 0 0 0 0 0 0 0 0 0 0 0 0 127 0" result="hardAlpha" />
            <feOffset />
            <feGaussianBlur stdDeviation="8" />
            <feComposite in2="hardAlpha" operator="out" />
            <feColorMatrix type="matrix" values="0 0 0 0 0.32 0 0 0 0 1 0 0 0 0 0 0 0 0 0.8 0" />
            <feBlend mode="normal" in2="BackgroundImageFix" result="effect1_dropShadow_716_914" />
            <feBlend mode="normal" in="SourceGraphic" in2="effect1_dropShadow_716_914"
                result="shape" />
        </filter>
        <filter id="filter1_d_716_914" x="156.426" y="9.41748" width="67.7217" height="39.5566"
            filterUnits="userSpaceOnUse" color-interpolation-filters="sRGB">
            <feFlood flood-opacity="0" result="BackgroundImageFix" />
            <feColorMatrix in="SourceAlpha" type="matrix"
                values="0 0 0 0 0 0 0 0 0 0 0 0 0 0 0 0 0 0 127 0" result="hardAlpha" />
            <feOffset />
            <feGaussianBlur stdDeviation="8" />
            <feComposite in2="hardAlpha" operator="out" />
            <feColorMatrix type="matrix" values="0 0 0 0 0.32 0 0 0 0 1 0 0 0 0 0 0 0 0 0.8 0" />
            <feBlend mode="normal" in2="BackgroundImageFix" result="effect1_dropShadow_716_914" />
            <feBlend mode="normal" in="SourceGraphic" in2="effect1_dropShadow_716_914"
                result="shape" />
        </filter>
    </defs>
</svg>
    