<svg width="300" height="70" viewBox="0 0 300 70" fill="none" xmlns="http://www.w3.org/2000/svg">
<g style="mix-blend-mode:hard-light" opacity="0.8">
<mask id="path-1-inside-1_808_938" fill="white">
<path fill-rule="evenodd" clip-rule="evenodd" d="M7 0C3.13401 0 0 3.13401 0 7V13C4.41828 13 8 16.5817 8 21V49C8 53.4183 4.41828 57 0 57V63C0 66.866 3.134 70 6.99999 70H39C39 65.5817 42.5817 62 47 62L254 62C258.418 62 262 65.5817 262 70L293 70C296.866 70 300 66.866 300 63V57C295.582 57 292 53.4183 292 49V21C292 16.5817 295.582 13 300 13V7C300 3.13401 296.866 0 293 0H39H7ZM39 0L262 9.74764e-06C262 4.41828 258.418 8 254 8L47 7.99999C42.5817 7.99999 39 4.41827 39 0Z"/>
</mask>
<path fill-rule="evenodd" class='bg7' clip-rule="evenodd" d="M7 0C3.13401 0 0 3.13401 0 7V13C4.41828 13 8 16.5817 8 21V49C8 53.4183 4.41828 57 0 57V63C0 66.866 3.134 70 6.99999 70H39C39 65.5817 42.5817 62 47 62L254 62C258.418 62 262 65.5817 262 70L293 70C296.866 70 300 66.866 300 63V57C295.582 57 292 53.4183 292 49V21C292 16.5817 295.582 13 300 13V7C300 3.13401 296.866 0 293 0H39H7ZM39 0L262 9.74764e-06C262 4.41828 258.418 8 254 8L47 7.99999C42.5817 7.99999 39 4.41827 39 0Z" fill="#40C700" fill-opacity="0.5"/>
<path d="M0 13H-1V14H0V13ZM0 57V56H-1V57H0ZM39 70V71H40V70H39ZM47 62L47 63H47L47 62ZM254 62L254 61H254L254 62ZM262 70H261V71L262 71L262 70ZM293 70L293 71H293V70ZM300 57H301V56H300V57ZM300 13V14H301V13H300ZM262 9.74764e-06H263V-0.99999L262 -0.99999L262 9.74764e-06ZM254 8L254 9H254V8ZM47 7.99999L47 8.99999L47 8.99999L47 7.99999ZM1 7C1 3.68629 3.68629 1 7 1V-1C2.58172 -1 -1 2.58172 -1 7H1ZM1 13V7H-1V13H1ZM0 14C3.86599 14 7 17.134 7 21H9C9 16.0294 4.97056 12 0 12V14ZM7 21V49H9V21H7ZM7 49C7 52.866 3.86599 56 0 56V58C4.97056 58 9 53.9706 9 49H7ZM1 63V57H-1V63H1ZM6.99999 69C3.68629 69 1 66.3137 1 63H-1C-1 67.4183 2.58171 71 6.99999 71V69ZM39 69H6.99999V71H39V69ZM47 61C42.0294 61 38 65.0294 38 70H40C40 66.134 43.134 63 47 63V61ZM254 61L47 61L47 63L254 63L254 61ZM263 70C263 65.0294 258.971 61 254 61V63C257.866 63 261 66.134 261 70H263ZM293 69L262 69L262 71L293 71L293 69ZM299 63C299 66.3137 296.314 69 293 69V71C297.418 71 301 67.4183 301 63H299ZM299 57V63H301V57H299ZM300 56C296.134 56 293 52.866 293 49H291C291 53.9706 295.029 58 300 58V56ZM293 49V21H291V49H293ZM293 21C293 17.134 296.134 14 300 14V12C295.029 12 291 16.0294 291 21H293ZM299 7V13H301V7H299ZM293 1C296.314 1 299 3.68629 299 7H301C301 2.58172 297.418 -1 293 -1V1ZM39 1H293V-1H39V1ZM7 1H39V-1H7V1ZM39 1L262 1.00001L262 -0.99999L39 -1L39 1ZM261 9.74764e-06C261 3.866 257.866 7 254 7V9C258.971 9 263 4.97057 263 9.74764e-06H261ZM254 7L47 6.99999L47 8.99999L254 9L254 7ZM47 6.99999C43.134 6.99999 40 3.86599 40 0H38C38 4.97056 42.0294 8.99999 47 8.99999L47 6.99999Z" fill="white" fill-opacity="0.5" mask="url(#path-1-inside-1_808_938)"/>
</g>
<g opacity="0.3" filter="url(#filter0_d_808_938)">
<line x1="79.5" y1="35.5" x2="34" y2="35.5" stroke="#52FF00"/>
<line x1="71.625" y1="30.5" x2="41.875" y2="30.5" stroke="#52FF00"/>
<line x1="71.625" y1="40.5" x2="41.875" y2="40.5" stroke="#52FF00"/>
</g>
<g opacity="0.3" filter="url(#filter1_d_808_938)">
<line x1="266.5" y1="35.5" x2="221" y2="35.5" stroke="#52FF00"/>
<line x1="258.625" y1="30.5" x2="228.875" y2="30.5" stroke="#52FF00"/>
<line x1="258.625" y1="40.5" x2="228.875" y2="40.5" stroke="#52FF00"/>
</g>
<path d="M44 0V0C44 2.20913 45.7909 3.99999 48 3.99999L253 4C255.209 4 257 2.20914 257 9.31053e-06V9.31053e-06L44 0Z" fill="#52FF00"/>
<path d="M44 70V70C44 67.7909 45.7909 66 48 66L253 66C255.209 66 257 67.7909 257 70V70L44 70Z" fill="#52FF00"/>
<path d="M0 17V17C2.76142 17 5 19.2386 5 22L5 48C5 50.7614 2.76142 53 0 53H0L0 17Z" fill="#52FF00"/>
<path d="M300 17V17C297.239 17 295 19.2386 295 22V48C295 50.7614 297.239 53 300 53V53V17Z" fill="#52FF00"/>
<defs>
<filter id="filter0_d_808_938" x="18" y="14" width="77.5" height="43" filterUnits="userSpaceOnUse" color-interpolation-filters="sRGB">
<feFlood flood-opacity="0" result="BackgroundImageFix"/>
<feColorMatrix in="SourceAlpha" type="matrix" values="0 0 0 0 0 0 0 0 0 0 0 0 0 0 0 0 0 0 127 0" result="hardAlpha"/>
<feOffset/>
<feGaussianBlur stdDeviation="8"/>
<feComposite in2="hardAlpha" operator="out"/>
<feColorMatrix type="matrix" values="0 0 0 0 0.32 0 0 0 0 1 0 0 0 0 0 0 0 0 0.8 0"/>
<feBlend mode="normal" in2="BackgroundImageFix" result="effect1_dropShadow_808_938"/>
<feBlend mode="normal" in="SourceGraphic" in2="effect1_dropShadow_808_938" result="shape"/>
</filter>
<filter id="filter1_d_808_938" x="205" y="14" width="77.5" height="43" filterUnits="userSpaceOnUse" color-interpolation-filters="sRGB">
<feFlood flood-opacity="0" result="BackgroundImageFix"/>
<feColorMatrix in="SourceAlpha" type="matrix" values="0 0 0 0 0 0 0 0 0 0 0 0 0 0 0 0 0 0 127 0" result="hardAlpha"/>
<feOffset/>
<feGaussianBlur stdDeviation="8"/>
<feComposite in2="hardAlpha" operator="out"/>
<feColorMatrix type="matrix" values="0 0 0 0 0.32 0 0 0 0 1 0 0 0 0 0 0 0 0 0.8 0"/>
<feBlend mode="normal" in2="BackgroundImageFix" result="effect1_dropShadow_808_938"/>
<feBlend mode="normal" in="SourceGraphic" in2="effect1_dropShadow_808_938" result="shape"/>
</filter>
</defs>
</svg>
