<svg width="694" height="70" viewBox="0 0 694 70" fill="none" xmlns="http://www.w3.org/2000/svg">
<g opacity="0.8" filter="url(#filter0_b_1003_844)">
<mask id="path-1-inside-1_1003_844" fill="white">
<path fill-rule="evenodd" clip-rule="evenodd" d="M7 0C3.13401 0 0 3.13401 0 7V13C4.41828 13 8 16.5817 8 21V49C8 53.4183 4.41828 57 0 57V63C0 66.866 3.13402 70 7.00001 70H57C57 65.5817 60.5817 62 65 62L632 62C636.418 62 640 65.5817 640 70L687 70C690.866 70 694 66.866 694 63V57C689.582 57 686 53.4183 686 49V21C686 16.5817 689.582 13 694 13V7C694 3.13401 690.866 0 687 0H57H7ZM57 0L640 9.74764e-06C640 4.41828 636.418 8 632 8L65 7.99999C60.5817 7.99999 57 4.41827 57 0Z"/>
</mask>
<path fill-rule="evenodd" clip-rule="evenodd" d="M7 0C3.13401 0 0 3.13401 0 7V13C4.41828 13 8 16.5817 8 21V49C8 53.4183 4.41828 57 0 57V63C0 66.866 3.13402 70 7.00001 70H57C57 65.5817 60.5817 62 65 62L632 62C636.418 62 640 65.5817 640 70L687 70C690.866 70 694 66.866 694 63V57C689.582 57 686 53.4183 686 49V21C686 16.5817 689.582 13 694 13V7C694 3.13401 690.866 0 687 0H57H7ZM57 0L640 9.74764e-06C640 4.41828 636.418 8 632 8L65 7.99999C60.5817 7.99999 57 4.41827 57 0Z" fill="white" fill-opacity="0.1"/>
<path d="M0 13H-1V14H0V13ZM0 57V56H-1V57H0ZM57 70V71H58V70H57ZM65 62V63V62ZM632 62V61V62ZM640 70H639V71H640V70ZM687 70V71V70ZM694 57H695V56H694V57ZM694 13V14H695V13H694ZM640 9.74764e-06H641V-0.99999H640V9.74764e-06ZM632 8V9V8ZM65 7.99999V6.99999V7.99999ZM1 7C1 3.68629 3.68629 1 7 1V-1C2.58172 -1 -1 2.58172 -1 7H1ZM1 13V7H-1V13H1ZM0 14C3.86599 14 7 17.134 7 21H9C9 16.0294 4.97056 12 0 12V14ZM7 21V49H9V21H7ZM7 49C7 52.866 3.86599 56 0 56V58C4.97056 58 9 53.9706 9 49H7ZM1 63V57H-1V63H1ZM7.00001 69C3.6863 69 1 66.3137 1 63H-1C-1 67.4183 2.58174 71 7.00001 71V69ZM57 69H7.00001V71H57V69ZM65 61C60.0294 61 56 65.0294 56 70H58C58 66.134 61.134 63 65 63V61ZM632 61L65 61V63L632 63V61ZM641 70C641 65.0294 636.971 61 632 61V63C635.866 63 639 66.134 639 70H641ZM687 69L640 69V71L687 71V69ZM693 63C693 66.3137 690.314 69 687 69V71C691.418 71 695 67.4183 695 63H693ZM693 57V63H695V57H693ZM694 56C690.134 56 687 52.866 687 49H685C685 53.9706 689.029 58 694 58V56ZM687 49V21H685V49H687ZM687 21C687 17.134 690.134 14 694 14V12C689.029 12 685 16.0294 685 21H687ZM693 7V13H695V7H693ZM687 1C690.314 1 693 3.68629 693 7H695C695 2.58172 691.418 -1 687 -1V1ZM57 1H687V-1H57V1ZM7 1H57V-1H7V1ZM57 1L640 1.00001V-0.99999L57 -1V1ZM639 9.74764e-06C639 3.866 635.866 7 632 7V9C636.971 9 641 4.97057 641 9.74764e-06H639ZM632 7L65 6.99999V8.99999L632 9V7ZM65 6.99999C61.134 6.99999 58 3.86599 58 0H56C56 4.97055 60.0294 8.99999 65 8.99999V6.99999Z" fill="white" fill-opacity="0.15" mask="url(#path-1-inside-1_1003_844)"/>
</g>
<g style="mix-blend-mode:screen">
<path opacity="0.3" d="M62 0V0C62 2.20913 63.7909 3.99999 66 3.99999L629 4C631.209 4 633 2.20914 633 9.31053e-06V9.31053e-06L62 0Z" fill="#52FF00"/>
<path opacity="0.3" d="M62 70V70C62 67.7909 63.7909 66 66 66L629 66C631.209 66 633 67.7909 633 70V70L62 70Z" fill="#52FF00"/>
<path d="M0 17V17C2.76142 17 5 19.2386 5 22L5 48C5 50.7614 2.76142 53 0 53H0L0 17Z" fill="#52FF00"/>
<path d="M694 17V17C691.239 17 689 19.2386 689 22V48C689 50.7614 691.239 53 694 53V53V17Z" fill="#52FF00"/>
</g>
<defs>
<filter id="filter0_b_1003_844" x="-80" y="-80" width="854" height="230" filterUnits="userSpaceOnUse" color-interpolation-filters="sRGB">
<feFlood flood-opacity="0" result="BackgroundImageFix"/>
<feGaussianBlur in="BackgroundImageFix" stdDeviation="40"/>
<feComposite in2="SourceAlpha" operator="in" result="effect1_backgroundBlur_1003_844"/>
<feBlend mode="normal" in="SourceGraphic" in2="effect1_backgroundBlur_1003_844" result="shape"/>
</filter>
</defs>
</svg>
