<svg width="348" height="70" viewBox="0 0 348 70" fill="none" xmlns="http://www.w3.org/2000/svg">
    <g style="mix-blend-mode:hard-light" opacity="0.8">
        <mask id="path-1-inside-1_714_865" fill="white">
            <path fill-rule="evenodd" clip-rule="evenodd"
                d="M7 0C3.13401 0 0 3.13401 0 7V13C4.41828 13 8 16.5817 8 21V49C8 53.4183 4.41828 57 0 57V63C0 66.866 3.13401 70 7.00001 70H63C63 65.5817 66.5817 62 71 62L278 62C282.418 62 286 65.5817 286 70L341 70C344.866 70 348 66.866 348 63V57C343.582 57 340 53.4183 340 49V21C340 16.5817 343.582 13 348 13V7C348 3.13401 344.866 0 341 0H63H7ZM63 0L286 9.74764e-06C286 4.41828 282.418 8 278 8L71 7.99999C66.5817 7.99999 63 4.41827 63 0Z" />
        </mask>
        <path fill-rule="evenodd" clip-rule="evenodd"
            d="M7 0C3.13401 0 0 3.13401 0 7V13C4.41828 13 8 16.5817 8 21V49C8 53.4183 4.41828 57 0 57V63C0 66.866 3.13401 70 7.00001 70H63C63 65.5817 66.5817 62 71 62L278 62C282.418 62 286 65.5817 286 70L341 70C344.866 70 348 66.866 348 63V57C343.582 57 340 53.4183 340 49V21C340 16.5817 343.582 13 348 13V7C348 3.13401 344.866 0 341 0H63H7ZM63 0L286 9.74764e-06C286 4.41828 282.418 8 278 8L71 7.99999C66.5817 7.99999 63 4.41827 63 0Z"
            fill="#FF008A" fill-opacity="0.5" 
            class='bg7'/>
        <path
            d="M0 13H-1V14H0V13ZM0 57V56H-1V57H0ZM63 70V71H64V70H63ZM71 62V63V62ZM278 62V61V62ZM286 70H285V71H286V70ZM341 70V71V70ZM348 57H349V56H348V57ZM348 13V14H349V13H348ZM286 9.74764e-06H287V-0.99999H286V9.74764e-06ZM278 8V9V8ZM71 7.99999V8.99999V7.99999ZM1 7C1 3.68629 3.68629 1 7 1V-1C2.58172 -1 -1 2.58172 -1 7H1ZM1 13V7H-1V13H1ZM0 14C3.86599 14 7 17.134 7 21H9C9 16.0294 4.97056 12 0 12V14ZM7 21V49H9V21H7ZM7 49C7 52.866 3.86599 56 0 56V58C4.97056 58 9 53.9706 9 49H7ZM1 63V57H-1V63H1ZM7.00001 69C3.6863 69 1 66.3137 1 63H-1C-1 67.4183 2.58173 71 7.00001 71V69ZM63 69H7.00001V71H63V69ZM71 61C66.0294 61 62 65.0294 62 70H64C64 66.134 67.134 63 71 63V61ZM278 61L71 61V63L278 63V61ZM287 70C287 65.0294 282.971 61 278 61V63C281.866 63 285 66.134 285 70H287ZM341 69L286 69V71L341 71V69ZM347 63C347 66.3137 344.314 69 341 69V71C345.418 71 349 67.4183 349 63H347ZM347 57V63H349V57H347ZM348 56C344.134 56 341 52.866 341 49H339C339 53.9706 343.029 58 348 58V56ZM341 49V21H339V49H341ZM341 21C341 17.134 344.134 14 348 14V12C343.029 12 339 16.0294 339 21H341ZM347 7V13H349V7H347ZM341 1C344.314 1 347 3.68629 347 7H349C349 2.58172 345.418 -1 341 -1V1ZM63 1H341V-1H63V1ZM7 1H63V-1H7V1ZM63 1L286 1.00001V-0.99999L63 -1V1ZM285 9.74764e-06C285 3.866 281.866 7 278 7V9C282.971 9 287 4.97057 287 9.74764e-06H285ZM278 7L71 6.99999V8.99999L278 9V7ZM71 6.99999C67.134 6.99999 64 3.86599 64 0H62C62 4.97056 66.0294 8.99999 71 8.99999V6.99999Z"
            fill="white" fill-opacity="0.5" mask="url(#path-1-inside-1_714_865)" />
    </g>
    <g opacity="0.3">
        <line x1="328" y1="35.5" x2="306" y2="35.5" stroke="#FF008A" />
        <line x1="323" y1="30.5" x2="311" y2="30.5" stroke="#FF008A" />
        <line x1="323" y1="40.5" x2="311" y2="40.5" stroke="#FF008A" />
    </g>
    <g opacity="0.3">
        <line x1="44" y1="35.5" x2="22" y2="35.5" stroke="#FF008A" />
        <line x1="39" y1="30.5" x2="27" y2="30.5" stroke="#FF008A" />
        <line x1="39" y1="40.5" x2="27" y2="40.5" stroke="#FF008A" />
    </g>
    <path
        d="M68 0V0C68 2.20913 69.7909 3.99999 72 3.99999L277 4C279.209 4 281 2.20914 281 9.31053e-06V9.31053e-06L68 0Z"
        fill="#FF008A" />
    <path d="M68 70V70C68 67.7909 69.7909 66 72 66L277 66C279.209 66 281 67.7909 281 70V70L68 70Z"
        fill="#FF008A" />
    <path d="M0 17V17C2.76142 17 5 19.2386 5 22L5 48C5 50.7614 2.76142 53 0 53H0L0 17Z"
        fill="#FF008A" />
    <path d="M348 17V17C345.239 17 343 19.2386 343 22V48C343 50.7614 345.239 53 348 53V53V17Z"
        fill="#FF008A" />
</svg>
    