<svg width="288" height="55" viewBox="0 0 288 55" fill="none" xmlns="http://www.w3.org/2000/svg">
<g style="mix-blend-mode:hard-light" opacity="0.8">
<mask id="path-1-inside-1_740_3392" fill="white">
<path fill-rule="evenodd" clip-rule="evenodd" d="M5.49565 0C2.46049 0 0 2.46049 0 5.49565V11C2.76142 11 5 13.2386 5 16V39C5 41.7614 2.76142 44 0 44V49.5043C0 52.5395 2.46051 55 5.49567 55H56H282.504C285.539 55 288 52.5395 288 49.5043V44C285.239 44 283 41.7614 283 39V16C283 13.2386 285.239 11 288 11V5.49565C288 2.46049 285.539 0 282.504 0H56H5.49565ZM56 0L232 7.6932e-06C232 2.76143 229.761 5 227 5L61 4.99999C58.2386 4.99999 56 2.76142 56 0ZM56 55L232 55C232 52.2386 229.761 50 227 50L61 50C58.2386 50 56 52.2386 56 55Z"/>
</mask>
<path fill-rule="evenodd" clip-rule="evenodd" d="M5.49565 0C2.46049 0 0 2.46049 0 5.49565V11C2.76142 11 5 13.2386 5 16V39C5 41.7614 2.76142 44 0 44V49.5043C0 52.5395 2.46051 55 5.49567 55H56H282.504C285.539 55 288 52.5395 288 49.5043V44C285.239 44 283 41.7614 283 39V16C283 13.2386 285.239 11 288 11V5.49565C288 2.46049 285.539 0 282.504 0H56H5.49565ZM56 0L232 7.6932e-06C232 2.76143 229.761 5 227 5L61 4.99999C58.2386 4.99999 56 2.76142 56 0ZM56 55L232 55C232 52.2386 229.761 50 227 50L61 50C58.2386 50 56 52.2386 56 55Z" fill="#40C700" fill-opacity="0.5"/>
<path d="M0 11H-1V12H0V11ZM0 44V43H-1V44H0ZM288 44H289V43H288V44ZM288 11V12H289V11H288ZM232 7.6932e-06H233V-0.999992L232 -0.999992V7.6932e-06ZM227 5V6V5ZM61 4.99999V3.99999V4.99999ZM232 55V56H233V55H232ZM227 50V49V50ZM61 50V51V50ZM1 5.49565C1 3.01277 3.01277 1 5.49565 1V-1C1.9082 -1 -1 1.9082 -1 5.49565H1ZM1 11V5.49565H-1V11H1ZM6 16C6 12.6863 3.31371 10 0 10V12C2.20914 12 4 13.7909 4 16H6ZM6 39V16H4V39H6ZM0 45C3.31371 45 6 42.3137 6 39H4C4 41.2091 2.20914 43 0 43V45ZM1 49.5043V44H-1V49.5043H1ZM5.49567 54C3.01279 54 1 51.9872 1 49.5043H-1C-1 53.0918 1.90822 56 5.49567 56V54ZM56 54H5.49567V56H56V54ZM282.504 54H56V56H282.504V54ZM287 49.5043C287 51.9872 284.987 54 282.504 54V56C286.092 56 289 53.0918 289 49.5043H287ZM287 44V49.5043H289V44H287ZM288 43C285.791 43 284 41.2091 284 39H282C282 42.3137 284.686 45 288 45V43ZM284 39V16H282V39H284ZM284 16C284 13.7909 285.791 12 288 12V10C284.686 10 282 12.6863 282 16H284ZM287 5.49565V11H289V5.49565H287ZM282.504 1C284.987 1 287 3.01278 287 5.49565H289C289 1.90819 286.092 -1 282.504 -1V1ZM56 1H282.504V-1H56V1ZM5.49565 1H56V-1H5.49565V1ZM232 -0.999992L56 -1V1L232 1.00001V-0.999992ZM227 6C230.314 6 233 3.31371 233 7.6932e-06H231C231 2.20914 229.209 4 227 4V6ZM61 5.99999L227 6V4L61 3.99999V5.99999ZM55 0C55 3.3137 57.6863 5.99999 61 5.99999V3.99999C58.7909 3.99999 57 2.20914 57 0H55ZM56 56L232 56V54L56 54V56ZM233 55C233 51.6863 230.314 49 227 49V51C229.209 51 231 52.7909 231 55H233ZM227 49L61 49V51L227 51V49ZM61 49C57.6863 49 55 51.6863 55 55H57C57 52.7909 58.7909 51 61 51V49Z" fill="white" fill-opacity="0.5" mask="url(#path-1-inside-1_740_3392)"/>
</g>
<path d="M0 13V13C1.65685 13 3 14.3431 3 16V39C3 40.6569 1.65685 42 0 42V42V13Z" fill="#52FF00"/>
<path d="M229 0V0C229 1.65686 227.657 3.00001 226 3.00001L62 3C60.3431 3 59 1.65685 59 -7.43094e-06V-7.43094e-06L229 0Z" fill="#52FF00"/>
<path d="M229 55V55C229 53.3431 227.657 52 226 52L62 52C60.3431 52 59 53.3431 59 55V55L229 55Z" fill="#52FF00"/>
<path d="M288 13V13C286.343 13 285 14.3431 285 16V39C285 40.6569 286.343 42 288 42V42V13Z" fill="#52FF00"/>
<g filter="url(#filter0_d_740_3392)">
<line opacity="0.5" x1="50" y1="28.5" x2="30" y2="28.5" stroke="#52FF00"/>
<line opacity="0.5" x1="47" y1="24.5" x2="33" y2="24.5" stroke="#52FF00"/>
<line opacity="0.5" x1="47" y1="32.5" x2="33" y2="32.5" stroke="#52FF00"/>
</g>
<g filter="url(#filter1_d_740_3392)">
<line opacity="0.5" x1="258" y1="28.5" x2="238" y2="28.5" stroke="#52FF00"/>
<line opacity="0.5" x1="255" y1="24.5" x2="241" y2="24.5" stroke="#52FF00"/>
<line opacity="0.5" x1="255" y1="32.5" x2="241" y2="32.5" stroke="#52FF00"/>
</g>
<defs>
<filter id="filter0_d_740_3392" x="14" y="8" width="52" height="41" filterUnits="userSpaceOnUse" color-interpolation-filters="sRGB">
<feFlood flood-opacity="0" result="BackgroundImageFix"/>
<feColorMatrix in="SourceAlpha" type="matrix" values="0 0 0 0 0 0 0 0 0 0 0 0 0 0 0 0 0 0 127 0" result="hardAlpha"/>
<feOffset/>
<feGaussianBlur stdDeviation="8"/>
<feComposite in2="hardAlpha" operator="out"/>
<feColorMatrix type="matrix" values="0 0 0 0 0.32 0 0 0 0 1 0 0 0 0 0 0 0 0 0.8 0"/>
<feBlend mode="normal" in2="BackgroundImageFix" result="effect1_dropShadow_740_3392"/>
<feBlend mode="normal" in="SourceGraphic" in2="effect1_dropShadow_740_3392" result="shape"/>
</filter>
<filter id="filter1_d_740_3392" x="222" y="8" width="52" height="41" filterUnits="userSpaceOnUse" color-interpolation-filters="sRGB">
<feFlood flood-opacity="0" result="BackgroundImageFix"/>
<feColorMatrix in="SourceAlpha" type="matrix" values="0 0 0 0 0 0 0 0 0 0 0 0 0 0 0 0 0 0 127 0" result="hardAlpha"/>
<feOffset/>
<feGaussianBlur stdDeviation="8"/>
<feComposite in2="hardAlpha" operator="out"/>
<feColorMatrix type="matrix" values="0 0 0 0 0.32 0 0 0 0 1 0 0 0 0 0 0 0 0 0.8 0"/>
<feBlend mode="normal" in2="BackgroundImageFix" result="effect1_dropShadow_740_3392"/>
<feBlend mode="normal" in="SourceGraphic" in2="effect1_dropShadow_740_3392" result="shape"/>
</filter>
</defs>
</svg>
