<svg width="332" height="102" viewBox="0 0 332 102" fill="none" xmlns="http://www.w3.org/2000/svg">
    <g style="mix-blend-mode:hard-light" opacity="0.8" filter="url(#filter0_d_715_866)">
        <mask id="path-1-inside-1_715_866" fill="white">
            <path fill-rule="evenodd" clip-rule="evenodd"
                d="M23 16C19.134 16 16 19.134 16 23V29C20.4183 29 24 32.5817 24 37V65C24 69.4183 20.4183 73 16 73V79C16 82.866 19.134 86 23 86H55C55 81.5817 58.5817 78 63 78L270 78C274.418 78 278 81.5817 278 86L309 86C312.866 86 316 82.866 316 79V73C311.582 73 308 69.4183 308 65V37C308 32.5817 311.582 29 316 29V23C316 19.134 312.866 16 309 16H55H23ZM55 16L278 16C278 20.4183 274.418 24 270 24L63 24C58.5817 24 55 20.4183 55 16Z" />
        </mask>
        <path fill-rule="evenodd" clip-rule="evenodd"
            d="M23 16C19.134 16 16 19.134 16 23V29C20.4183 29 24 32.5817 24 37V65C24 69.4183 20.4183 73 16 73V79C16 82.866 19.134 86 23 86H55C55 81.5817 58.5817 78 63 78L270 78C274.418 78 278 81.5817 278 86L309 86C312.866 86 316 82.866 316 79V73C311.582 73 308 69.4183 308 65V37C308 32.5817 311.582 29 316 29V23C316 19.134 312.866 16 309 16H55H23ZM55 16L278 16C278 20.4183 274.418 24 270 24L63 24C58.5817 24 55 20.4183 55 16Z"
            fill="#40C700" fill-opacity="0.5" shape-rendering="crispEdges" class='bg7'/>
        <path
            d="M16 29H15V30H16V29ZM16 73V72H15V73H16ZM55 86V87H56V86H55ZM63 78V79V78ZM270 78V77V78ZM278 86H277V87H278V86ZM309 86V87V86ZM316 73H317V72H316V73ZM316 29V30H317V29H316ZM278 16H279V15H278V16ZM270 24V25V24ZM63 24V25V24ZM17 23C17 19.6863 19.6863 17 23 17V15C18.5817 15 15 18.5817 15 23H17ZM17 29V23H15V29H17ZM16 30C19.866 30 23 33.134 23 37H25C25 32.0294 20.9706 28 16 28V30ZM23 37V65H25V37H23ZM23 65C23 68.866 19.866 72 16 72V74C20.9706 74 25 69.9706 25 65H23ZM17 79V73H15V79H17ZM23 85C19.6863 85 17 82.3137 17 79H15C15 83.4183 18.5817 87 23 87V85ZM55 85H23V87H55V85ZM63 77C58.0294 77 54 81.0294 54 86H56C56 82.134 59.134 79 63 79V77ZM270 77L63 77V79L270 79V77ZM279 86C279 81.0294 274.971 77 270 77V79C273.866 79 277 82.134 277 86H279ZM309 85L278 85V87L309 87V85ZM315 79C315 82.3137 312.314 85 309 85V87C313.418 87 317 83.4183 317 79H315ZM315 73V79H317V73H315ZM316 72C312.134 72 309 68.866 309 65H307C307 69.9706 311.029 74 316 74V72ZM309 65V37H307V65H309ZM309 37C309 33.134 312.134 30 316 30V28C311.029 28 307 32.0294 307 37H309ZM315 23V29H317V23H315ZM309 17C312.314 17 315 19.6863 315 23H317C317 18.5817 313.418 15 309 15V17ZM55 17H309V15H55V17ZM23 17H55V15H23V17ZM55 17L278 17V15L55 15V17ZM277 16C277 19.866 273.866 23 270 23V25C274.971 25 279 20.9706 279 16H277ZM270 23L63 23V25L270 25V23ZM63 23C59.134 23 56 19.866 56 16H54C54 20.9706 58.0294 25 63 25V23Z"
            fill="white" fill-opacity="0.5" mask="url(#path-1-inside-1_715_866)" />
    </g>
    <g opacity="0.3" filter="url(#filter1_d_715_866)">
        <line x1="95.5" y1="51.5" x2="50" y2="51.5" stroke="#52FF00" />
        <line x1="87.625" y1="46.5" x2="57.875" y2="46.5" stroke="#52FF00" />
        <line x1="87.625" y1="56.5" x2="57.875" y2="56.5" stroke="#52FF00" />
    </g>
    <g opacity="0.3" filter="url(#filter2_d_715_866)">
        <line x1="282.5" y1="51.5" x2="237" y2="51.5" stroke="#52FF00" />
        <line x1="274.625" y1="46.5" x2="244.875" y2="46.5" stroke="#52FF00" />
        <line x1="274.625" y1="56.5" x2="244.875" y2="56.5" stroke="#52FF00" />
    </g>
    <g filter="url(#filter3_d_715_866)">
        <path
            d="M60 16V16C60 18.2091 61.7909 20 64 20L269 20C271.209 20 273 18.2091 273 16V16L60 16Z"
            fill="#52FF00" />
    </g>
    <g filter="url(#filter4_d_715_866)">
        <path
            d="M60 86V86C60 83.7909 61.7909 82 64 82L269 82C271.209 82 273 83.7909 273 86V86L60 86Z"
            fill="#52FF00" />
    </g>
    <g filter="url(#filter5_d_715_866)">
        <path d="M16 33V33C18.7614 33 21 35.2386 21 38L21 64C21 66.7614 18.7614 69 16 69V69L16 33Z"
            fill="#52FF00" />
    </g>
    <g filter="url(#filter6_d_715_866)">
        <path d="M316 33V33C313.239 33 311 35.2386 311 38V64C311 66.7614 313.239 69 316 69V69V33Z"
            fill="#52FF00" />
    </g>
    <defs>
        <filter id="filter0_d_715_866" x="0" y="0" width="332" height="102"
            filterUnits="userSpaceOnUse" color-interpolation-filters="sRGB">
            <feFlood flood-opacity="0" result="BackgroundImageFix" />
            <feColorMatrix in="SourceAlpha" type="matrix"
                values="0 0 0 0 0 0 0 0 0 0 0 0 0 0 0 0 0 0 127 0" result="hardAlpha" />
            <feOffset />
            <feGaussianBlur stdDeviation="8" />
            <feComposite in2="hardAlpha" operator="out" />
            <feColorMatrix type="matrix" values="0 0 0 0 0.32 0 0 0 0 1 0 0 0 0 0 0 0 0 0.8 0" />
            <feBlend mode="normal" in2="BackgroundImageFix" result="effect1_dropShadow_715_866" />
            <feBlend mode="normal" in="SourceGraphic" in2="effect1_dropShadow_715_866"
                result="shape" />
        </filter>
        <filter id="filter1_d_715_866" x="34" y="30" width="77.5" height="43"
            filterUnits="userSpaceOnUse" color-interpolation-filters="sRGB">
            <feFlood flood-opacity="0" result="BackgroundImageFix" />
            <feColorMatrix in="SourceAlpha" type="matrix"
                values="0 0 0 0 0 0 0 0 0 0 0 0 0 0 0 0 0 0 127 0" result="hardAlpha" />
            <feOffset />
            <feGaussianBlur stdDeviation="8" />
            <feComposite in2="hardAlpha" operator="out" />
            <feColorMatrix type="matrix" values="0 0 0 0 0.32 0 0 0 0 1 0 0 0 0 0 0 0 0 0.8 0" />
            <feBlend mode="normal" in2="BackgroundImageFix" result="effect1_dropShadow_715_866" />
            <feBlend mode="normal" in="SourceGraphic" in2="effect1_dropShadow_715_866"
                result="shape" />
        </filter>
        <filter id="filter2_d_715_866" x="221" y="30" width="77.5" height="43"
            filterUnits="userSpaceOnUse" color-interpolation-filters="sRGB">
            <feFlood flood-opacity="0" result="BackgroundImageFix" />
            <feColorMatrix in="SourceAlpha" type="matrix"
                values="0 0 0 0 0 0 0 0 0 0 0 0 0 0 0 0 0 0 127 0" result="hardAlpha" />
            <feOffset />
            <feGaussianBlur stdDeviation="8" />
            <feComposite in2="hardAlpha" operator="out" />
            <feColorMatrix type="matrix" values="0 0 0 0 0.32 0 0 0 0 1 0 0 0 0 0 0 0 0 0.8 0" />
            <feBlend mode="normal" in2="BackgroundImageFix" result="effect1_dropShadow_715_866" />
            <feBlend mode="normal" in="SourceGraphic" in2="effect1_dropShadow_715_866"
                result="shape" />
        </filter>
        <filter id="filter3_d_715_866" x="44" y="0" width="245" height="36"
            filterUnits="userSpaceOnUse" color-interpolation-filters="sRGB">
            <feFlood flood-opacity="0" result="BackgroundImageFix" />
            <feColorMatrix in="SourceAlpha" type="matrix"
                values="0 0 0 0 0 0 0 0 0 0 0 0 0 0 0 0 0 0 127 0" result="hardAlpha" />
            <feOffset />
            <feGaussianBlur stdDeviation="8" />
            <feComposite in2="hardAlpha" operator="out" />
            <feColorMatrix type="matrix" values="0 0 0 0 0.32 0 0 0 0 1 0 0 0 0 0 0 0 0 0.8 0" />
            <feBlend mode="normal" in2="BackgroundImageFix" result="effect1_dropShadow_715_866" />
            <feBlend mode="normal" in="SourceGraphic" in2="effect1_dropShadow_715_866"
                result="shape" />
        </filter>
        <filter id="filter4_d_715_866" x="44" y="66" width="245" height="36"
            filterUnits="userSpaceOnUse" color-interpolation-filters="sRGB">
            <feFlood flood-opacity="0" result="BackgroundImageFix" />
            <feColorMatrix in="SourceAlpha" type="matrix"
                values="0 0 0 0 0 0 0 0 0 0 0 0 0 0 0 0 0 0 127 0" result="hardAlpha" />
            <feOffset />
            <feGaussianBlur stdDeviation="8" />
            <feComposite in2="hardAlpha" operator="out" />
            <feColorMatrix type="matrix" values="0 0 0 0 0.32 0 0 0 0 1 0 0 0 0 0 0 0 0 0.8 0" />
            <feBlend mode="normal" in2="BackgroundImageFix" result="effect1_dropShadow_715_866" />
            <feBlend mode="normal" in="SourceGraphic" in2="effect1_dropShadow_715_866"
                result="shape" />
        </filter>
        <filter id="filter5_d_715_866" x="0" y="17" width="37" height="68"
            filterUnits="userSpaceOnUse" color-interpolation-filters="sRGB">
            <feFlood flood-opacity="0" result="BackgroundImageFix" />
            <feColorMatrix in="SourceAlpha" type="matrix"
                values="0 0 0 0 0 0 0 0 0 0 0 0 0 0 0 0 0 0 127 0" result="hardAlpha" />
            <feOffset />
            <feGaussianBlur stdDeviation="8" />
            <feComposite in2="hardAlpha" operator="out" />
            <feColorMatrix type="matrix" values="0 0 0 0 0.32 0 0 0 0 1 0 0 0 0 0 0 0 0 0.8 0" />
            <feBlend mode="normal" in2="BackgroundImageFix" result="effect1_dropShadow_715_866" />
            <feBlend mode="normal" in="SourceGraphic" in2="effect1_dropShadow_715_866"
                result="shape" />
        </filter>
        <filter id="filter6_d_715_866" x="295" y="17" width="37" height="68"
            filterUnits="userSpaceOnUse" color-interpolation-filters="sRGB">
            <feFlood flood-opacity="0" result="BackgroundImageFix" />
            <feColorMatrix in="SourceAlpha" type="matrix"
                values="0 0 0 0 0 0 0 0 0 0 0 0 0 0 0 0 0 0 127 0" result="hardAlpha" />
            <feOffset />
            <feGaussianBlur stdDeviation="8" />
            <feComposite in2="hardAlpha" operator="out" />
            <feColorMatrix type="matrix" values="0 0 0 0 0.32 0 0 0 0 1 0 0 0 0 0 0 0 0 0.8 0" />
            <feBlend mode="normal" in2="BackgroundImageFix" result="effect1_dropShadow_715_866" />
            <feBlend mode="normal" in="SourceGraphic" in2="effect1_dropShadow_715_866"
                result="shape" />
        </filter>
    </defs>
</svg>
    