<svg width="254" height="55" viewBox="0 0 254 55" fill="none" xmlns="http://www.w3.org/2000/svg">
<g opacity="0.8">
<mask id="path-1-inside-1_0_1" fill="white">
<path fill-rule="evenodd" clip-rule="evenodd" d="M5.49565 0C2.46049 0 0 2.46049 0 5.49565V11C2.76142 11 5 13.2386 5 16V39C5 41.7614 2.76142 44 0 44V49.5043C0 52.5395 2.46049 55 5.49565 55H39H248.504C251.54 55 254 52.5395 254 49.5043V44C251.239 44 249 41.7614 249 39V16C249 13.2386 251.239 11 254 11V5.49565C254 2.46049 251.54 0 248.504 0H39H5.49565ZM39 0L215 7.6932e-06C215 2.76143 212.761 5 210 5L44 4.99999C41.2386 4.99999 39 2.76142 39 0ZM39 55L215 55C215 52.2386 212.761 50 210 50L44 50C41.2386 50 39 52.2386 39 55Z"/>
</mask>
<path fill-rule="evenodd" clip-rule="evenodd" d="M5.49565 0C2.46049 0 0 2.46049 0 5.49565V11C2.76142 11 5 13.2386 5 16V39C5 41.7614 2.76142 44 0 44V49.5043C0 52.5395 2.46049 55 5.49565 55H39H248.504C251.54 55 254 52.5395 254 49.5043V44C251.239 44 249 41.7614 249 39V16C249 13.2386 251.239 11 254 11V5.49565C254 2.46049 251.54 0 248.504 0H39H5.49565ZM39 0L215 7.6932e-06C215 2.76143 212.761 5 210 5L44 4.99999C41.2386 4.99999 39 2.76142 39 0ZM39 55L215 55C215 52.2386 212.761 50 210 50L44 50C41.2386 50 39 52.2386 39 55Z" fill="#FFE500" fill-opacity="0.5"/>
<path d="M0 11H-1V12H0V11ZM0 44V43H-1V44H0ZM254 44H255V43H254V44ZM254 11V12H255V11H254ZM215 7.6932e-06H216V-0.999992L215 -0.999992L215 7.6932e-06ZM210 5L210 6H210V5ZM44 4.99999L44 3.99999H44V4.99999ZM215 55L215 56L216 56V55H215ZM210 50L210 49H210L210 50ZM44 50L44 51H44L44 50ZM1 5.49565C1 3.01277 3.01277 1 5.49565 1V-1C1.9082 -1 -1 1.9082 -1 5.49565H1ZM1 11V5.49565H-1V11H1ZM6 16C6 12.6863 3.31371 10 0 10V12C2.20914 12 4 13.7909 4 16H6ZM6 39V16H4V39H6ZM0 45C3.31371 45 6 42.3137 6 39H4C4 41.2091 2.20914 43 0 43V45ZM1 49.5043V44H-1V49.5043H1ZM5.49565 54C3.01277 54 1 51.9872 1 49.5043H-1C-1 53.0918 1.9082 56 5.49565 56V54ZM39 54H5.49565V56H39V54ZM248.504 54H39V56H248.504V54ZM253 49.5043C253 51.9872 250.987 54 248.504 54V56C252.092 56 255 53.0918 255 49.5043H253ZM253 44V49.5043H255V44H253ZM254 43C251.791 43 250 41.2091 250 39H248C248 42.3137 250.686 45 254 45V43ZM250 39V16H248V39H250ZM250 16C250 13.7909 251.791 12 254 12V10C250.686 10 248 12.6863 248 16H250ZM253 5.49565V11H255V5.49565H253ZM248.504 1C250.987 1 253 3.01277 253 5.49565H255C255 1.9082 252.092 -1 248.504 -1V1ZM39 1H248.504V-1H39V1ZM5.49565 1H39V-1H5.49565V1ZM215 -0.999992L39 -1L39 1L215 1.00001L215 -0.999992ZM210 6C213.314 6 216 3.31371 216 7.6932e-06H214C214 2.20914 212.209 4 210 4V6ZM44 5.99999L210 6L210 4L44 3.99999L44 5.99999ZM38 0C38 3.3137 40.6863 5.99999 44 5.99999V3.99999C41.7909 3.99999 40 2.20914 40 0H38ZM39 56L215 56L215 54L39 54L39 56ZM216 55C216 51.6863 213.314 49 210 49V51C212.209 51 214 52.7909 214 55H216ZM210 49L44 49L44 51L210 51L210 49ZM44 49C40.6863 49 38 51.6863 38 55H40C40 52.7909 41.7909 51 44 51V49Z" fill="#FFE500" fill-opacity="0.5" mask="url(#path-1-inside-1_0_1)"/>
</g>
<path d="M0 13V13C1.65685 13 3 14.3431 3 16V39C3 40.6569 1.65685 42 0 42V42V13Z" fill="#FFE500"/>
<path d="M212 0V0C212 1.65686 210.657 3.00001 209 3.00001L45 3C43.3431 3 42 1.65685 42 -7.43094e-06V-7.43094e-06L212 0Z" fill="#FFE500"/>
<path d="M212 55V55C212 53.3431 210.657 52 209 52L45 52C43.3431 52 42 53.3431 42 55V55L212 55Z" fill="#FFE500"/>
<path d="M254 13V13C252.343 13 251 14.3431 251 16V39C251 40.6569 252.343 42 254 42V42V13Z" fill="#FFE500"/>
</svg>
