<svg width="181" height="47" viewBox="0 0 181 47" fill="none" xmlns="http://www.w3.org/2000/svg">
    <g style="mix-blend-mode:hard-light" opacity="0.8">
        <mask id="path-1-inside-1_708_1187" fill="white">
            <path fill-rule="evenodd" clip-rule="evenodd"
                d="M0 10C3.31361 10.0001 5.99979 12.6864 5.99979 16V31C5.99979 34.3136 3.31361 36.9999 0 37V41.5043C0 44.5395 2.46049 47 5.49565 47H14.9998H175.504C178.54 47 181 44.5395 181 41.5043V5.49565C181 2.46049 178.54 0 175.504 0H14.9998H5.49565C2.46049 0 0 2.46049 0 5.49565V10ZM14.9998 0L174 7.61203e-06C174 3.31371 171.313 6 168 6L20.9998 5.99999C17.6861 5.99999 14.9998 3.31371 14.9998 0ZM14.9998 47L174 47C174 43.6863 171.313 41 168 41L20.9998 41C17.6861 41 14.9998 43.6863 14.9998 47ZM181 10C177.686 10 175 12.6863 175 16V31C175 34.3137 177.686 37 181 37V10Z" />
        </mask>
        <path
            fill-rule="evenodd"
            clip-rule="evenodd"
            d="M0 10C3.31361 10.0001 5.99979 12.6864 5.99979 16V31C5.99979 34.3136 3.31361 36.9999 0 37V41.5043C0 44.5395 2.46049 47 5.49565 47H14.9998H175.504C178.54 47 181 44.5395 181 41.5043V5.49565C181 2.46049 178.54 0 175.504 0H14.9998H5.49565C2.46049 0 0 2.46049 0 5.49565V10ZM14.9998 0L174 7.61203e-06C174 3.31371 171.313 6 168 6L20.9998 5.99999C17.6861 5.99999 14.9998 3.31371 14.9998 0ZM14.9998 47L174 47C174 43.6863 171.313 41 168 41L20.9998 41C17.6861 41 14.9998 43.6863 14.9998 47ZM181 10C177.686 10 175 12.6863 175 16V31C175 34.3137 177.686 37 181 37V10Z"
            fill="#40C700"
            fill-opacity="0.3"
            class='bg'
        />
        <path
            d="M0 10H-1V11L-3.3961e-05 11L0 10ZM0 37L-3.33854e-05 36L-1 36V37H0ZM174 7.61203e-06H175V-0.999992L174 -0.999992V7.61203e-06ZM168 6V5V6ZM20.9998 5.99999V6.99999V5.99999ZM174 47V48H175V47H174ZM168 41V40V41ZM20.9998 41V42V41ZM181 10H182V9H181V10ZM181 37V38H182V37H181ZM6.99979 16C6.99979 12.1341 3.86592 9.00013 3.3961e-05 9L-3.3961e-05 11C2.76131 11.0001 4.99979 13.2386 4.99979 16H6.99979ZM6.99979 31V16H4.99979V31H6.99979ZM3.33854e-05 38C3.86592 37.9999 6.99979 34.8659 6.99979 31H4.99979C4.99979 33.7614 2.76131 35.9999 -3.33854e-05 36L3.33854e-05 38ZM1 41.5043V37H-1V41.5043H1ZM5.49565 46C3.01277 46 1 43.9872 1 41.5043H-1C-1 45.0918 1.9082 48 5.49565 48V46ZM14.9998 46H5.49565V48H14.9998V46ZM175.504 46H14.9998V48H175.504V46ZM180 41.5043C180 43.9872 177.987 46 175.504 46V48C179.092 48 182 45.0918 182 41.5043H180ZM180 5.49565V41.5043H182V5.49565H180ZM175.504 1C177.987 1 180 3.01277 180 5.49565H182C182 1.9082 179.092 -1 175.504 -1V1ZM14.9998 1H175.504V-1H14.9998V1ZM5.49565 1H14.9998V-1H5.49565V1ZM1 5.49565C1 3.01277 3.01277 1 5.49565 1V-1C1.9082 -1 -1 1.9082 -1 5.49565H1ZM1 10V5.49565H-1V10H1ZM174 -0.999992L14.9998 -1V1L174 1.00001V-0.999992ZM168 7C171.866 7 175 3.866 175 7.61203e-06H173C173 2.76143 170.761 5 168 5V7ZM20.9998 6.99999L168 7V5L20.9998 4.99999V6.99999ZM13.9998 0C13.9998 3.86599 17.1338 6.99999 20.9998 6.99999V4.99999C18.2384 4.99999 15.9998 2.76142 15.9998 0H13.9998ZM14.9998 48L174 48V46L14.9998 46V48ZM175 47C175 43.134 171.866 40 168 40V42C170.761 42 173 44.2386 173 47H175ZM168 40L20.9998 40V42L168 42V40ZM20.9998 40C17.1338 40 13.9998 43.134 13.9998 47H15.9998C15.9998 44.2386 18.2384 42 20.9998 42V40ZM176 16C176 13.2386 178.238 11 181 11V9C177.134 9 174 12.134 174 16H176ZM176 31V16H174V31H176ZM181 36C178.238 36 176 33.7614 176 31H174C174 34.866 177.134 38 181 38V36ZM180 10V37H182V10H180Z"
            fill="#40C700" fill-opacity="0.5" mask="url(#path-1-inside-1_708_1187)" />
    </g>
    <path d="M0 14C1.65685 14 3 15.3431 3 17V31C3 32.6569 1.65685 34 0 34V14Z" fill="#52FF00" />
    <path opacity="0.4"
        d="M171 0C171 1.65686 169.657 3.00001 168 3.00001L21 3C19.3431 3 18 1.65685 18 -6.68784e-06L171 0Z"
        fill="#52FF00" />
    <path opacity="0.4"
        d="M18 47C18 45.3431 19.3431 44 21 44L168 44C169.657 44 171 45.3431 171 47L18 47Z"
        fill="#52FF00" />
    <path d="M181 14C179.343 14 178 15.3431 178 17V31C178 32.6569 179.343 34 181 34V14Z"
        fill="#52FF00" />
</svg>