<svg width="256" height="55" viewBox="0 0 256 55" fill="none" xmlns="http://www.w3.org/2000/svg">
<g opacity="0.8">
<mask id="path-1-inside-1_1_56" fill="white">
<path fill-rule="evenodd" clip-rule="evenodd" d="M5.49565 0C2.46049 0 0 2.46049 0 5.49565V11C2.76142 11 5 13.2386 5 16V39C5 41.7614 2.76142 44 0 44V49.5043C0 52.5395 2.46049 55 5.49565 55H40H250.504C253.54 55 256 52.5395 256 49.5043V44C253.239 44 251 41.7614 251 39V16C251 13.2386 253.239 11 256 11V5.49565C256 2.46049 253.54 0 250.504 0H40H5.49565ZM40 0L216 7.6932e-06C216 2.76143 213.761 5 211 5L45 4.99999C42.2386 4.99999 40 2.76142 40 0ZM40 55L216 55C216 52.2386 213.761 50 211 50L45 50C42.2386 50 40 52.2386 40 55Z"/>
</mask>
<path fill-rule="evenodd" clip-rule="evenodd" d="M5.49565 0C2.46049 0 0 2.46049 0 5.49565V11C2.76142 11 5 13.2386 5 16V39C5 41.7614 2.76142 44 0 44V49.5043C0 52.5395 2.46049 55 5.49565 55H40H250.504C253.54 55 256 52.5395 256 49.5043V44C253.239 44 251 41.7614 251 39V16C251 13.2386 253.239 11 256 11V5.49565C256 2.46049 253.54 0 250.504 0H40H5.49565ZM40 0L216 7.6932e-06C216 2.76143 213.761 5 211 5L45 4.99999C42.2386 4.99999 40 2.76142 40 0ZM40 55L216 55C216 52.2386 213.761 50 211 50L45 50C42.2386 50 40 52.2386 40 55Z" fill="#52FF00" fill-opacity="0.3"/>
<path d="M0 11H-1V12H0V11ZM0 44V43H-1V44H0ZM256 44H257V43H256V44ZM256 11V12H257V11H256ZM216 7.6932e-06H217V-0.999992L216 -0.999992L216 7.6932e-06ZM211 5L211 6H211V5ZM45 4.99999L45 3.99999H45V4.99999ZM216 55L216 56L217 56V55H216ZM211 50L211 49H211L211 50ZM45 50L45 51H45L45 50ZM1 5.49565C1 3.01277 3.01277 1 5.49565 1V-1C1.9082 -1 -1 1.9082 -1 5.49565H1ZM1 11V5.49565H-1V11H1ZM6 16C6 12.6863 3.31371 10 0 10V12C2.20914 12 4 13.7909 4 16H6ZM6 39V16H4V39H6ZM0 45C3.31371 45 6 42.3137 6 39H4C4 41.2091 2.20914 43 0 43V45ZM1 49.5043V44H-1V49.5043H1ZM5.49565 54C3.01277 54 1 51.9872 1 49.5043H-1C-1 53.0918 1.9082 56 5.49565 56V54ZM40 54H5.49565V56H40V54ZM250.504 54H40V56H250.504V54ZM255 49.5043C255 51.9872 252.987 54 250.504 54V56C254.092 56 257 53.0918 257 49.5043H255ZM255 44V49.5043H257V44H255ZM256 43C253.791 43 252 41.2091 252 39H250C250 42.3137 252.686 45 256 45V43ZM252 39V16H250V39H252ZM252 16C252 13.7909 253.791 12 256 12V10C252.686 10 250 12.6863 250 16H252ZM255 5.49565V11H257V5.49565H255ZM250.504 1C252.987 1 255 3.01277 255 5.49565H257C257 1.9082 254.092 -1 250.504 -1V1ZM40 1H250.504V-1H40V1ZM5.49565 1H40V-1H5.49565V1ZM216 -0.999992L40 -1L40 1L216 1.00001L216 -0.999992ZM211 6C214.314 6 217 3.31371 217 7.6932e-06H215C215 2.20914 213.209 4 211 4V6ZM45 5.99999L211 6L211 4L45 3.99999L45 5.99999ZM39 0C39 3.3137 41.6863 5.99999 45 5.99999V3.99999C42.7909 3.99999 41 2.20914 41 0H39ZM40 56L216 56L216 54L40 54L40 56ZM217 55C217 51.6863 214.314 49 211 49V51C213.209 51 215 52.7909 215 55H217ZM211 49L45 49L45 51L211 51L211 49ZM45 49C41.6863 49 39 51.6863 39 55H41C41 52.7909 42.7909 51 45 51V49Z" fill="#52FF00" fill-opacity="0.5" mask="url(#path-1-inside-1_1_56)"/>
</g>
<path d="M0 13V13C1.65685 13 3 14.3431 3 16V39C3 40.6569 1.65685 42 0 42V42V13Z" fill="#52FF00"/>
<path d="M213 0V0C213 1.65686 211.657 3.00001 210 3.00001L46 3C44.3431 3 43 1.65685 43 -7.43094e-06V-7.43094e-06L213 0Z" fill="#52FF00"/>
<path d="M213 55V55C213 53.3431 211.657 52 210 52L46 52C44.3431 52 43 53.3431 43 55V55L213 55Z" fill="#52FF00"/>
<path d="M256 13V13C254.343 13 253 14.3431 253 16V39C253 40.6569 254.343 42 256 42V42V13Z" fill="#52FF00"/>
</svg>
