<svg width="470" height="70" viewBox="0 0 470 70" fill="none" xmlns="http://www.w3.org/2000/svg">
<g style="mix-blend-mode:hard-light" opacity="0.8">
<mask id="path-1-inside-1_1602_2743" fill="white">
<path fill-rule="evenodd" clip-rule="evenodd" d="M7 0C3.13401 0 0 3.13401 0 7V13C4.41828 13 8 16.5817 8 21V49C8 53.4183 4.41828 57 0 57V63C0 66.866 3.13399 70 6.99999 70L40 70C40 65.5817 43.5817 62 48 62L425 62C429.418 62 433 65.5817 433 70H463C466.866 70 470 66.866 470 63V57C465.582 57 462 53.4183 462 49V21C462 16.5817 465.582 13 470 13V7C470 3.13401 466.866 0 463 0H7ZM40 9.53674e-06C40 4.41828 43.5817 8 48 8L425 8.00001C429.418 8.00001 433 4.41829 433 1.92844e-05L40 9.53674e-06Z"/>
</mask>
<path fill-rule="evenodd" clip-rule="evenodd" d="M7 0C3.13401 0 0 3.13401 0 7V13C4.41828 13 8 16.5817 8 21V49C8 53.4183 4.41828 57 0 57V63C0 66.866 3.13399 70 6.99999 70L40 70C40 65.5817 43.5817 62 48 62L425 62C429.418 62 433 65.5817 433 70H463C466.866 70 470 66.866 470 63V57C465.582 57 462 53.4183 462 49V21C462 16.5817 465.582 13 470 13V7C470 3.13401 466.866 0 463 0H7ZM40 9.53674e-06C40 4.41828 43.5817 8 48 8L425 8.00001C429.418 8.00001 433 4.41829 433 1.92844e-05L40 9.53674e-06Z" fill="#50AF95" fill-opacity="0.5"/>
<path d="M0 13H-1V14H0V13ZM0 57V56H-1V57H0ZM6.99999 70V69V70ZM40 70V71H41V70H40ZM48 62V63V62ZM425 62V61V62ZM433 70H432V71H433V70ZM470 57H471V56H470V57ZM470 13V14H471V13H470ZM48 8V7V8ZM40 9.53674e-06V-0.99999H39V9.53674e-06H40ZM425 8.00001V9.00001V8.00001ZM433 1.92844e-05H434V-0.999981H433V1.92844e-05ZM1 7C1 3.68629 3.68629 1 7 1V-1C2.58172 -1 -1 2.58172 -1 7H1ZM1 13V7H-1V13H1ZM0 14C3.86599 14 7 17.134 7 21H9C9 16.0294 4.97056 12 0 12V14ZM7 21V49H9V21H7ZM7 49C7 52.866 3.86599 56 0 56V58C4.97056 58 9 53.9706 9 49H7ZM1 63V57H-1V63H1ZM6.99999 69C3.68628 69 1 66.3137 1 63H-1C-1 67.4183 2.58171 71 6.99999 71V69ZM40 69L6.99999 69V71L40 71V69ZM48 61C43.0294 61 39 65.0294 39 70H41C41 66.134 44.134 63 48 63V61ZM425 61L48 61V63L425 63V61ZM434 70C434 65.0294 429.971 61 425 61V63C428.866 63 432 66.134 432 70H434ZM463 69H433V71H463V69ZM469 63C469 66.3137 466.314 69 463 69V71C467.418 71 471 67.4183 471 63H469ZM469 57V63H471V57H469ZM470 56C466.134 56 463 52.866 463 49H461C461 53.9706 465.029 58 470 58V56ZM463 49V21H461V49H463ZM463 21C463 17.134 466.134 14 470 14V12C465.029 12 461 16.0294 461 21H463ZM469 7V13H471V7H469ZM463 1C466.314 1 469 3.68629 469 7H471C471 2.58172 467.418 -1 463 -1V1ZM7 1H463V-1H7V1ZM48 7C44.134 7 41 3.866 41 9.53674e-06H39C39 4.97056 43.0294 9 48 9V7ZM425 7.00001L48 7V9L425 9.00001V7.00001ZM432 1.92844e-05C432 3.866 428.866 7.00001 425 7.00001V9.00001C429.971 9.00001 434 4.97058 434 1.92844e-05H432ZM40 1.00001L433 1.00002V-0.999981L40 -0.99999V1.00001Z" fill="#50AF95" fill-opacity="0.5" mask="url(#path-1-inside-1_1602_2743)"/>
</g>
<path opacity="0.5" d="M46 0V0C46 2.20913 47.7909 3.99999 50 3.99999L423 4C425.209 4 427 2.20914 427 9.35966e-06V9.35966e-06L46 0Z" fill="#50AF95"/>
<path opacity="0.5" d="M46 70V70C46 67.7909 47.7909 66 50 66L423 66C425.209 66 427 67.7909 427 70V70L46 70Z" fill="#50AF95"/>
<path d="M0 17V17C2.76142 17 5 19.2386 5 22L5 48C5 50.7614 2.76142 53 0 53H0L0 17Z" fill="#50AF95"/>
<path d="M470 17V17C467.239 17 465 19.2386 465 22V48C465 50.7614 467.239 53 470 53V53V17Z" fill="#50AF95"/>
</svg>
