<svg width="32" height="32" viewBox="0 0 32 32" fill="none" xmlns="http://www.w3.org/2000/svg">
<circle opacity="0.8" cx="15.9986" cy="16" r="11.8107" stroke="url(#paint0_radial_1112_2743)" stroke-width="4.95" stroke-dasharray="1.5 2.5"/>
<path d="M12.7707 18.9697C10.7374 18.9697 9.14453 17.8642 9.14453 16.4529C9.14453 16.2357 9.32149 16.0595 9.54013 16.0595C9.75876 16.0595 9.93572 16.2357 9.93572 16.4529C9.93572 17.3906 11.2341 18.183 12.7708 18.183C14.3075 18.183 15.6059 17.3906 15.6059 16.4529C15.6059 16.2357 15.7828 16.0595 16.0015 16.0595C16.2201 16.0595 16.3971 16.2357 16.3971 16.4529C16.3971 17.8642 14.8041 18.9697 12.7709 18.9697H12.7707Z" fill="#FF008A"/>
<path d="M12.7707 20.6465C10.7374 20.6465 9.14453 19.5409 9.14453 18.1296C9.14453 17.9123 9.32149 17.7361 9.54013 17.7361C9.75876 17.7361 9.93572 17.9123 9.93572 18.1296C9.93572 19.0672 11.2341 19.8596 12.7708 19.8596C14.3075 19.8596 15.6059 19.0672 15.6059 18.1296C15.6059 17.9123 15.7828 17.7361 16.0015 17.7361C16.2201 17.7361 16.3971 17.9123 16.3971 18.1296C16.3971 19.5409 14.8041 20.6465 12.7709 20.6465H12.7707Z" fill="#FF008A"/>
<path d="M12.7707 22.3232C10.7374 22.3232 9.14453 21.2175 9.14453 19.8058C9.14453 19.5886 9.32149 19.4124 9.54013 19.4124C9.75876 19.4124 9.93572 19.5887 9.93572 19.8058C9.93572 20.7438 11.2341 21.5365 12.7708 21.5365C14.3075 21.5365 15.6059 20.7439 15.6059 19.8058C15.6059 19.5886 15.7828 19.4124 16.0015 19.4124C16.2201 19.4124 16.3971 19.5886 16.3971 19.8058C16.3971 21.2175 14.8041 22.3232 12.7709 22.3232H12.7707Z" fill="#FF008A"/>
<path d="M12.7707 17.2931C10.7374 17.2931 9.14453 16.1876 9.14453 14.7761C9.14453 13.3644 10.7375 12.2585 12.7707 12.2585C14.804 12.2585 16.3969 13.3644 16.3969 14.7761C16.3969 16.1876 14.804 17.2931 12.7707 17.2931ZM12.7707 13.0454C11.2341 13.0454 9.93566 13.838 9.93566 14.7759C9.93566 15.7136 11.2341 16.506 12.7707 16.506C14.3074 16.506 15.6058 15.7136 15.6058 14.7759C15.6058 13.838 14.3074 13.0454 12.7707 13.0454Z" fill="#FF008A"/>
<path d="M12.7707 24C10.7374 24 9.14453 22.8944 9.14453 21.4831V14.7761C9.14453 14.5589 9.32149 14.3827 9.54013 14.3827C9.75876 14.3827 9.93572 14.5589 9.93572 14.7761V21.4831C9.93572 22.4208 11.2341 23.2132 12.7708 23.2132C14.3075 23.2132 15.6059 22.4208 15.6059 21.4831V14.7761C15.6059 14.5589 15.7828 14.3827 16.0015 14.3827C16.2201 14.3827 16.3971 14.5589 16.3971 14.7761V21.4831C16.3971 22.8944 14.8041 24 12.7709 24H12.7707Z" fill="#FF008A"/>
<path d="M19.2317 18.9697C17.1984 18.9697 15.6055 17.8641 15.6055 16.4527C15.6055 16.2355 15.7824 16.0593 16.0011 16.0593C16.2197 16.0593 16.3967 16.2355 16.3967 16.4527C16.3967 17.3904 17.695 18.1828 19.2317 18.1828C20.7684 18.1828 22.0668 17.3906 22.0668 16.4529C22.0668 16.2357 22.2438 16.0595 22.4624 16.0595C22.681 16.0595 22.858 16.2357 22.858 16.4529C22.858 17.8642 21.265 18.9697 19.2318 18.9697H19.2317Z" fill="#FF008A"/>
<path d="M19.2317 20.6465C17.1984 20.6465 15.6055 19.5409 15.6055 18.1296C15.6055 17.9123 15.7824 17.7361 16.0011 17.7361C16.2197 17.7361 16.3967 17.9123 16.3967 18.1296C16.3967 19.0672 17.695 19.8596 19.2317 19.8596C20.7684 19.8596 22.0668 19.0672 22.0668 18.1296C22.0668 17.9123 22.2438 17.7361 22.4624 17.7361C22.681 17.7361 22.858 17.9123 22.858 18.1296C22.858 19.5409 21.265 20.6465 19.2318 20.6465H19.2317Z" fill="#FF008A"/>
<path d="M19.2317 22.3231C17.1984 22.3231 15.6055 21.2172 15.6055 19.8056C15.6055 19.5883 15.7824 19.4121 16.0011 19.4121C16.2197 19.4121 16.3967 19.5883 16.3967 19.8056C16.3967 20.7435 17.695 21.5362 19.2317 21.5362C20.7684 21.5362 22.0668 20.7438 22.0668 19.8058C22.0668 19.5885 22.2438 19.4123 22.4624 19.4123C22.681 19.4123 22.858 19.5885 22.858 19.8058C22.858 21.2175 21.265 22.3231 19.2318 22.3231H19.2317Z" fill="#FF008A"/>
<path d="M19.2317 17.2931C17.1984 17.2931 15.6055 16.1874 15.6055 14.7761C15.6055 13.3644 17.1985 12.2585 19.2317 12.2585C21.265 12.2587 22.8579 13.3644 22.8579 14.7761C22.8579 16.1876 21.2649 17.2931 19.2317 17.2931ZM19.2317 13.0454C17.695 13.0454 16.3966 13.8378 16.3966 14.7761C16.3966 15.7138 17.695 16.5062 19.2317 16.5062C20.7684 16.506 22.0668 15.7136 22.0668 14.7759C22.0668 13.838 20.7684 13.0454 19.2317 13.0454Z" fill="#FF008A"/>
<path d="M19.2317 24C17.1984 24 15.6055 22.8944 15.6055 21.4831V14.7761C15.6055 14.5589 15.7824 14.3827 16.0011 14.3827C16.2197 14.3827 16.3967 14.5589 16.3967 14.7761V21.4831C16.3967 22.4208 17.695 23.2132 19.2317 23.2132C20.7684 23.2132 22.0668 22.4208 22.0668 21.4831V14.7761C22.0668 14.5589 22.2438 14.3827 22.4624 14.3827C22.681 14.3827 22.858 14.5589 22.858 14.7761V21.4831C22.858 22.8944 21.265 24 19.2318 24H19.2317Z" fill="#FF008A"/>
<path d="M12.7707 13.0337C10.7374 13.0337 9.14453 11.9283 9.14453 10.517C9.14453 9.10562 10.7375 8 12.7707 8C14.804 8 16.3969 9.10562 16.3969 10.517C16.3969 11.9283 14.804 13.0337 12.7707 13.0337ZM12.7707 8.78694C11.2341 8.78694 9.93566 9.57934 9.93566 10.517C9.93566 11.4547 11.2341 12.2471 12.7707 12.2471C14.3074 12.2471 15.6058 11.4547 15.6058 10.517C15.6058 9.57934 14.3074 8.78694 12.7707 8.78694Z" fill="#FF008A"/>
<path d="M19.2317 13.0337C17.1984 13.0337 15.6055 11.9281 15.6055 10.5167C15.6055 9.10526 17.1985 8 19.2317 8C21.2649 8 22.8579 9.10562 22.8579 10.517C22.8579 11.9283 21.2649 13.0337 19.2317 13.0337ZM19.2317 8.78694C17.695 8.78694 16.3966 9.57934 16.3966 10.517C16.3966 11.4547 17.695 12.2471 19.2317 12.2471C20.7684 12.2471 22.0668 11.4547 22.0668 10.517C22.0668 9.57934 20.7684 8.78694 19.2317 8.78694Z" fill="#FF008A"/>
<path d="M9.54013 15.3416C9.32149 15.3416 9.14453 15.1654 9.14453 14.9482V10.517C9.14453 10.2998 9.32149 10.1236 9.54013 10.1236C9.75876 10.1236 9.93572 10.2998 9.93572 10.517V14.9482C9.93572 15.1653 9.75876 15.3416 9.54013 15.3416Z" fill="#FF008A"/>
<path d="M22.462 15.1695C22.2434 15.1695 22.0664 14.9933 22.0664 14.7761V10.517C22.0664 10.2998 22.2434 10.1236 22.462 10.1236C22.6806 10.1236 22.8576 10.2998 22.8576 10.517V14.7761C22.8576 14.9933 22.6806 15.1695 22.462 15.1695Z" fill="#FF008A"/>
<path d="M16.0011 15.1695C15.7824 15.1695 15.6055 14.9933 15.6055 14.7761V10.517C15.6055 10.2998 15.7824 10.1236 16.0011 10.1236C16.2197 10.1236 16.3967 10.2998 16.3967 10.517V14.7761C16.3967 14.9933 16.2197 15.1695 16.0011 15.1695Z" fill="#FF008A"/>
<circle cx="16" cy="16" r="15.25" stroke="#FF008A" stroke-width="1.5"/>
<defs>
<radialGradient id="paint0_radial_1112_2743" cx="0" cy="0" r="1" gradientUnits="userSpaceOnUse" gradientTransform="translate(8.99052 7.37467) rotate(47.7639) scale(27.6684)">
<stop stop-color="#FF008A" stop-opacity="0.8"/>
<stop offset="1" stop-color="#FF008A" stop-opacity="0.2"/>
</radialGradient>
</defs>
</svg>
