<svg width="47" height="33" viewBox="0 0 47 33" fill="none" xmlns="http://www.w3.org/2000/svg">
<path d="M46.5765 5.25834C45.7156 4.50289 44.5248 3.34927 43.5549 2.5311L43.4975 2.49292C43.402 2.42005 43.2943 2.36289 43.179 2.32383C40.8403 1.9093 29.9562 -0.0243135 29.7439 0.000231615C29.6844 0.00815152 29.6275 0.0286545 29.5775 0.0602308L29.5229 0.101139C29.4558 0.165939 29.4048 0.244222 29.3737 0.330227L29.3594 0.365681V0.559314V0.589314C30.5847 3.83199 35.4227 14.4546 36.3754 16.9473C36.4327 17.1163 36.5418 17.4382 36.7455 17.4545H36.7914C36.9005 17.4545 37.3653 16.8709 37.3653 16.8709C37.3653 16.8709 45.6755 7.29285 46.5162 6.27287C46.6251 6.14723 46.7211 6.01208 46.8032 5.86924C46.8241 5.75747 46.8143 5.64246 46.7745 5.5354C46.7348 5.42834 46.6666 5.33289 46.5765 5.25834ZM39.4974 6.37378L43.0441 3.57836L45.1245 5.40015L39.4974 6.37378ZM38.12 6.19105L32.0137 1.43476L41.8934 3.16655L38.12 6.19105ZM38.671 7.4374L44.9208 6.48014L37.7757 14.6618L38.671 7.4374ZM31.1844 1.9093L37.6092 7.09104L36.6795 14.6673L31.1844 1.9093Z" fill="#FF060A"/>
<path fill-rule="evenodd" clip-rule="evenodd" d="M6.59258 5.94689L1.0229 17.4741C1.0017 17.517 0.994988 17.5654 1.00373 17.6123C1.01248 17.6592 1.03622 17.7021 1.07149 17.7348L16.1139 31.9372C16.1566 31.9775 16.2135 32.0001 16.2727 32.0001C16.3319 32.0001 16.3888 31.9775 16.4315 31.9372L31.4739 17.7357C31.5092 17.703 31.5329 17.6601 31.5417 17.6132C31.5504 17.5663 31.5437 17.5178 31.5225 17.475L25.9528 5.94777C25.9349 5.90906 25.906 5.87627 25.8696 5.85331C25.8332 5.83035 25.7909 5.8182 25.7477 5.81832H6.79957C6.75615 5.81778 6.71351 5.82964 6.67678 5.85245C6.64006 5.87527 6.61081 5.90806 6.59258 5.94689Z" stroke="#28C79B" stroke-width="1.5"/>
<path fill-rule="evenodd" clip-rule="evenodd" d="M18.1985 18.8373C18.0911 18.8454 17.536 18.8786 16.2977 18.8786C15.3128 18.8786 14.6135 18.849 14.3682 18.8373C10.562 18.6695 7.72104 18.0055 7.72104 17.2106C7.72104 16.4156 10.562 15.7525 14.3682 15.582V18.176C14.6171 18.194 15.3298 18.2361 16.3147 18.2361C17.4966 18.2361 18.0884 18.1868 18.1949 18.1769V15.5838C21.9931 15.7534 24.8278 16.4174 24.8278 17.2106C24.8278 18.0037 21.9939 18.6677 18.1949 18.8364L18.1985 18.8373ZM18.1985 15.3155V12.9943H23.499V9.45459H9.06766V12.9943H14.3673V15.3146C10.0597 15.5129 6.82031 16.368 6.82031 17.3927C6.82031 18.4174 10.0597 19.2716 14.3673 19.4708V26.9091H18.1976V19.4681C22.4953 19.2698 25.7294 18.4156 25.7294 17.3918C25.7294 16.368 22.498 15.5138 18.1976 15.3146L18.1985 15.3155Z" fill="#28C79B"/>
</svg>
