<svg width="47" height="33" viewBox="0 0 47 33" fill="none" xmlns="http://www.w3.org/2000/svg">
<path d="M33.211 8.53333L33.22 11.8342L36.0237 13.4847V15.4172L31.5791 12.8095V7.56807L33.211 8.53333ZM33.211 5.23243V7.15595L31.5781 6.18969V4.26616L33.211 3.2999L34.8518 4.26616L33.211 5.23243ZM37.1946 4.26616L38.8274 3.2999L40.4683 4.26616L38.8274 5.23243L37.1946 4.26616Z" fill="#F0B90B"/>
<path d="M34.3906 11.1501V9.21755L36.0235 10.1838V12.1073L34.3906 11.1501ZM37.1944 14.1769L38.8272 15.1432L40.468 14.1769V16.1004L38.8272 17.0667L37.1944 16.1004V14.1769ZM42.8098 4.26619L44.4426 3.29993L46.0835 4.26619V6.18972L44.4426 7.15598V5.23246L42.8098 4.26619ZM44.4426 11.8343L44.4516 8.53336L46.0845 7.5671V12.8085L41.6399 15.4162V13.4837L44.4426 11.8343Z" fill="#F0B90B"/>
<path d="M43.2696 11.1502L41.6367 12.1074V10.1839L43.2696 9.21765V11.1502Z" fill="#F0B90B"/>
<path d="M43.2718 5.91662L43.2808 7.84915L40.469 9.49961V12.8085L38.8362 13.7658L37.2033 12.8085V9.49961L34.3916 7.84915V5.91662L36.0315 4.95036L38.8262 6.60881L41.6379 4.95036L43.2788 5.91662H43.2718ZM34.3906 2.61672L38.8272 0L43.2718 2.61672L41.6389 3.58298L38.8272 1.92453L36.0235 3.58298L34.3906 2.61672Z" fill="#F0B90B"/>
<path fill-rule="evenodd" clip-rule="evenodd" d="M6.46832 6.52567L1.02239 17.7967C1.00167 17.8387 0.995099 17.886 1.00365 17.9319C1.0122 17.9777 1.03542 18.0197 1.06991 18.0516L15.778 31.9384C15.8198 31.9779 15.8755 32 15.9334 32C15.9912 32 16.0469 31.9779 16.0887 31.9384L30.7968 18.0525C30.8313 18.0206 30.8545 17.9786 30.8631 17.9327C30.8716 17.8869 30.865 17.8395 30.8443 17.7976L25.3984 6.52653C25.3808 6.48868 25.3525 6.45661 25.317 6.43417C25.2814 6.41172 25.24 6.39984 25.1978 6.39995H6.6707C6.62825 6.39943 6.58656 6.41102 6.55065 6.43333C6.51474 6.45564 6.48614 6.4877 6.46832 6.52567Z" stroke="#28C79B" stroke-width="1.5"/>
<path fill-rule="evenodd" clip-rule="evenodd" d="M17.8168 19.1297C17.7117 19.1376 17.169 19.1701 15.9582 19.1701C14.9952 19.1701 14.3114 19.1411 14.0716 19.1297C10.35 18.9656 7.57212 18.3164 7.57212 17.5391C7.57212 16.7618 10.35 16.1134 14.0716 15.9468V18.4831C14.3149 18.5007 15.0118 18.5419 15.9748 18.5419C17.1304 18.5419 17.7091 18.4936 17.8133 18.484V15.9485C21.527 16.1143 24.2987 16.7636 24.2987 17.5391C24.2987 18.3147 21.5279 18.9639 17.8133 19.1288L17.8168 19.1297ZM17.8168 15.6862V13.4165H22.9995V9.95547H8.88882V13.4165H14.0707V15.6853C9.85883 15.8792 6.69141 16.7153 6.69141 17.7172C6.69141 18.7191 9.85883 19.5543 14.0707 19.7491V27.0222H17.8159V19.7465C22.0181 19.5526 25.1803 18.7174 25.1803 17.7163C25.1803 16.7153 22.0208 15.8801 17.8159 15.6853L17.8168 15.6862Z" fill="#28C79B"/>
</svg>
