<svg width="34" height="30" viewBox="0 0 34 30" fill="none" xmlns="http://www.w3.org/2000/svg">
<path fill-rule="evenodd" clip-rule="evenodd" d="M6.8589 1.13752L1.02399 13.4652C1.00179 13.5111 0.994749 13.5629 1.00391 13.613C1.01307 13.6632 1.03795 13.7091 1.0749 13.744L16.8336 28.9327C16.8784 28.9759 16.938 29 17 29C17.062 29 17.1216 28.9759 17.1664 28.9327L32.9251 13.745C32.9621 13.7101 32.9869 13.6642 32.9961 13.614C33.0053 13.5638 32.9982 13.512 32.976 13.4662L27.1411 1.13847C27.1223 1.09707 27.092 1.06199 27.0539 1.03744C27.0157 1.01289 26.9714 0.999898 26.9261 1.00002H7.07574C7.03026 0.999449 6.98559 1.01213 6.94711 1.03653C6.90864 1.06092 6.878 1.096 6.8589 1.13752Z" stroke="#28C79B" stroke-width="1.5"/>
<path fill-rule="evenodd" clip-rule="evenodd" d="M19.0259 14.7312C18.9127 14.7398 18.3282 14.7748 17.0243 14.7748C15.9873 14.7748 15.2509 14.7436 14.9926 14.7312C10.9848 14.5539 7.99337 13.8522 7.99337 13.012C7.99337 12.1718 10.9848 11.471 14.9926 11.2908V14.0323C15.2547 14.0513 16.0052 14.0959 17.0422 14.0959C18.2867 14.0959 18.9099 14.0437 19.0221 14.0333V11.2927C23.0214 11.472 26.0063 12.1737 26.0063 13.012C26.0063 13.8503 23.0223 14.552 19.0221 14.7303L19.0259 14.7312ZM19.0259 11.0092V8.55599H24.6072V4.815H9.41132V8.55599H14.9917V11.0083C10.4559 11.2178 7.04492 12.1215 7.04492 13.2045C7.04492 14.2874 10.4559 15.1902 14.9917 15.4007V23.262H19.0249V15.3979C23.5503 15.1883 26.9557 14.2855 26.9557 13.2035C26.9557 12.1215 23.5531 11.2188 19.0249 11.0083L19.0259 11.0092Z" fill="#28C79B"/>
</svg>
