<?xml version="1.0" standalone="no"?>
<!DOCTYPE svg PUBLIC "-//W3C//DTD SVG 1.1//EN" "http://www.w3.org/Graphics/SVG/1.1/DTD/svg11.dtd" >
<svg xmlns="http://www.w3.org/2000/svg" xmlns:xlink="http://www.w3.org/1999/xlink" version="1.1">
<metadata>
Created by FontForge 20170731 at Thu Jan 26 18:06:16 2023
 By Aleksey,,,
Copyright (c) 2019 by Mathieu Desjardins. All rights reserved.
</metadata>
<defs>
<font id="PPNeueMachina-InktrapLightItalic" horiz-adv-x="0" >
  <font-face 
    font-family="PP Neue Machina Inktrap Light It"
    font-weight="300"
    font-style="italic"
    font-stretch="normal"
    units-per-em="2048"
    panose-1="0 0 0 0 0 0 0 0 0 0"
    ascent="1638"
    descent="-410"
    x-height="1016"
    cap-height="1444"
    bbox="-213 -496 3174.68 2013"
    underline-thickness="102"
    underline-position="-307"
    slope="-11"
    unicode-range="U+0020-FB02"
  />
<missing-glyph horiz-adv-x="952" 
d="M780 1516v-1905h-604v1905h604zM317 -258h318v63h-195l133 91h62v61h-318v-61h134l-134 -91v-63zM317 2h318v215h-318v-215zM317 332h318v215h-191v-107h64v43h63v-90h-190v154h-64v-215zM317 588h318v190h-64v-125h-254v-65zM317 696h191v133h127v64h-318v-64h127v-69
h-127v-64zM317 944h318v66h-127v133h-191v-199zM317 1192h318v63h-127v70h127v64h-316v-64h125v-70h-127v-63zM381 63v91h190v-91h-190zM381 1010v67h63v-67h-63z" />
    <glyph glyph-name="fi" unicode="fi" horiz-adv-x="1556" 
d="M813 1376q-95 0 -144 -54t-71 -161l-29 -145h605q69 0 92.5 -32.5t9.5 -104.5l-146 -750h281l-22 -129h-1393l22 129h230l147 758h-229l27 129h227l29 149q69 340 391 340h463l-23 -129h-467zM397 129h582l147 758h-581z" />
    <glyph glyph-name="fl" unicode="fl" horiz-adv-x="1536" 
d="M166 887l27 129h225l33 168q64 321 389 321h438q94 0 76 -90l-250 -1286h287l-25 -129h-1370l22 129h228l147 758h-227zM397 129h557l244 1247h-385q-97 0 -143.5 -45.5t-67.5 -148.5l-33 -166h295l-24 -129h-295z" />
    <glyph glyph-name="f_f" unicode="ff" horiz-adv-x="1546" 
d="M166 887l27 129h231l12 65q64 328 391 328h408q99 96 276 96h177l-23 -129h-180q-97 0 -143.5 -45.5t-67.5 -148.5l-33 -166h295l-25 -129h-294l-148 -758h295l-25 -129h-1345l24 129h232l147 758h-231zM399 129h519l147 758h-516zM573 1016h517l32 168q7 41 29 98h-348
q-99 0 -147.5 -48t-69.5 -155z" />
    <glyph glyph-name="f_f_i" unicode="ffi" horiz-adv-x="2230" 
d="M166 887l27 129h231l12 65q64 328 391 328h416q99 96 270 96h463l-22 -129h-467q-95 0 -144 -54t-71 -161l-29 -145h604q69 0 93 -32.5t10 -104.5l-146 -750h281l-23 -129h-1392l22 129h230l147 758h-520l-150 -758h293l-24 -129h-674l24 129h232l147 758h-231zM573 1016
h521l28 149q11 58 35 117h-354q-99 0 -147.5 -48t-69.5 -155zM1071 129h582l147 758h-581z" />
    <glyph glyph-name=".notdef" horiz-adv-x="952" 
d="M780 1516v-1905h-604v1905h604zM317 -258h318v63h-195l133 91h62v61h-318v-61h134l-134 -91v-63zM317 2h318v215h-318v-215zM317 332h318v215h-191v-107h64v43h63v-90h-190v154h-64v-215zM317 588h318v190h-64v-125h-254v-65zM317 696h191v133h127v64h-318v-64h127v-69
h-127v-64zM317 944h318v66h-127v133h-191v-199zM317 1192h318v63h-127v70h127v64h-316v-64h125v-70h-127v-63zM381 63v91h190v-91h-190zM381 1010v67h63v-67h-63z" />
    <glyph glyph-name=".null" 
 />
    <glyph glyph-name="nonmarkingreturn" horiz-adv-x="682" 
 />
    <glyph glyph-name="space" unicode=" " horiz-adv-x="690" 
 />
    <glyph glyph-name="space" unicode="&#xa0;" horiz-adv-x="690" 
 />
    <glyph glyph-name="exclam" unicode="!" horiz-adv-x="679" 
d="M260 -20q-69 0 -114 47.5t-42 117.5q3 68 53 115t119 47q68 0 114.5 -47.5t43.5 -114.5q-3 -70 -54.5 -117.5t-119.5 -47.5zM272 496l168 948h152l-197 -948h-123z" />
    <glyph glyph-name="quotedbl" unicode="&#x22;" horiz-adv-x="755" 
d="M367 1511h147l-96 -503h-148zM537 1008l96 503h147l-96 -503h-147z" />
    <glyph glyph-name="numbersign" unicode="#" horiz-adv-x="2113" 
d="M350 1016h498l256 561l119 -53l-232 -508h533l256 561l118 -53l-231 -508h348v-123h-403l-226 -492h433v-122h-488l-268 -590l-119 53l244 537h-533l-268 -590l-119 53l244 537h-358v122h415l224 492h-443v123zM711 401h534l223 492h-532z" />
    <glyph glyph-name="dollar" unicode="$" horiz-adv-x="1400" 
d="M1278 377q-42 -397 -578 -397h-36l-56 -283h-119l58 293q-240 34 -354 174.5t-89 374.5h154q-49 -366 313 -420l113 581l-111 35q-309 96 -282 357q19 182 156.5 277t379.5 95h4l56 283h119l-56 -289q221 -28 324.5 -153t83.5 -334h-154q43 317 -280 358l-101 -524
l148 -45q334 -103 307 -383zM444 1098q-11 -86 38.5 -145t168.5 -95l60 -18l96 495q-326 -6 -363 -237zM688 109h19q195 0 296.5 65t118.5 197q27 184 -225 264l-100 31z" />
    <glyph glyph-name="percent" unicode="%" horiz-adv-x="2289" 
d="M565 608q-184 0 -295 121.5t-102 296.5q9 176 132 297t308 121q184 0 295.5 -121.5t102.5 -296.5q-9 -176 -132.5 -297t-308.5 -121zM293 1026q-6 -121 72.5 -207t205.5 -86q128 0 215 86t93 207t-72.5 207t-204.5 86q-127 0 -215 -86t-94 -207zM639 27l991 1425l105 -49
l-992 -1426zM1368 406q9 176 132 296.5t308 120.5q184 0 295.5 -121t102.5 -296q-9 -176 -132.5 -297t-308.5 -121q-184 0 -295 121.5t-102 296.5zM1493 406q-6 -121 73 -207t206 -86q128 0 214.5 86t92.5 207t-72 206.5t-205 85.5t-215 -85.5t-94 -206.5z" />
    <glyph glyph-name="ampersand" unicode="&#x26;" horiz-adv-x="1851" 
d="M129 487q20 213 159.5 347.5t319.5 134.5q93 0 168.5 -32.5t104.5 -70.5l8 45l-258 439l14 94h1073l-22 -129h-877l551 -936q189 238 264 631h158q-93 -477 -348 -756l172 -293l-123 -74l-158 265q-253 -207 -594 -207q-296 0 -464 146t-148 396zM283 489
q-13 -196 110.5 -304.5t354.5 -108.5q303 0 520 192l-226 379q-120 201 -360 201q-173 0 -281 -95.5t-118 -263.5z" />
    <glyph glyph-name="quotesingle" unicode="'" horiz-adv-x="491" 
d="M367 1511h147l-96 -503h-148z" />
    <glyph glyph-name="parenleft" unicode="(" horiz-adv-x="876" 
d="M557 -246q-132 47 -218.5 138t-122.5 212.5t-38.5 273t33.5 320.5q27 138 67.5 254t99.5 214.5t133.5 169.5t172.5 115t213 54l-25 -135q-395 -44 -520 -692q-126 -650 232 -789z" />
    <glyph glyph-name="parenright" unicode=")" horiz-adv-x="878" 
d="M369 1505q132 -47 218.5 -138t122.5 -212.5t38.5 -273t-33.5 -320.5q-27 -138 -67.5 -254t-99.5 -214.5t-133.5 -169.5t-172.5 -115t-213 -54l24 135q394 44 520 693t-231 788z" />
    <glyph glyph-name="asterisk" unicode="*" horiz-adv-x="1036" 
d="M270 1223l60 112l221 -104l59 -57l-8 83l51 254l119 -12l-49 -254l-39 -82l74 43l252 51l16 -120l-252 -54l-82 7l53 -54l107 -223l-113 -61l-104 223l-12 80l-45 -74l-187 -193l-82 84l187 189l73 43l-77 12z" />
    <glyph glyph-name="plus" unicode="+" horiz-adv-x="1312" 
d="M188 575h420l80 418h125l-80 -418h418l-23 -126h-421l-80 -418h-125l80 418h-418z" />
    <glyph glyph-name="comma" unicode="," horiz-adv-x="563" 
d="M211 328l133 -52l-264 -561l-133 52z" />
    <glyph glyph-name="hyphen" unicode="-" horiz-adv-x="1312" 
d="M188 575h963l-23 -126h-964z" />
    <glyph glyph-name="period" unicode="." horiz-adv-x="679" 
d="M260 -20q-69 0 -114 47.5t-42 117.5q3 68 53 115t119 47q68 0 114.5 -47.5t43.5 -114.5q-3 -70 -54.5 -117.5t-119.5 -47.5z" />
    <glyph glyph-name="slash" unicode="/" horiz-adv-x="1005" 
d="M1085 1659l113 -53l-1194 -1835l-113 53z" />
    <glyph glyph-name="zero" unicode="0" horiz-adv-x="1476" 
d="M702 -20q-202 0 -335 107.5t-178 291t-3 414.5q56 306 230.5 488.5t443.5 182.5q202 0 334 -108t177 -290.5t5 -412.5q-37 -200 -124.5 -350t-229 -236.5t-320.5 -86.5zM336 776q-43 -230 10 -399l813 811q-104 145 -305 145q-208 0 -339.5 -151.5t-178.5 -405.5z
M401 258q105 -147 308 -147q204 0 337.5 150t180.5 411q42 234 -10 399z" />
    <glyph glyph-name="one" unicode="1" horiz-adv-x="972" 
d="M170 805q393 146 504 639h311l-283 -1444h-153l252 1290l47 109h-45q-27 -101 -59.5 -185.5t-83.5 -173t-113.5 -156.5t-152 -125.5t-197.5 -90.5z" />
    <glyph glyph-name="two" unicode="2" horiz-adv-x="1366" 
d="M156 745q20 123 53 226.5t87.5 196t126.5 157t173.5 102t224.5 37.5q92 0 172.5 -20.5t148 -62.5t111 -107t61 -153.5t-2.5 -202.5q-24 -145 -100.5 -268.5t-191 -212.5t-261 -153t-311.5 -98t-343 -39l-10 -45l119 29h944l-22 -131h-1104l51 266q32 0 75 3t112 12.5
t139.5 24.5t153.5 41.5t158.5 60.5t150 85.5t131.5 112.5t100 145t59 181q34 198 -59.5 300.5t-278.5 102.5q-208 0 -334.5 -139.5t-179.5 -450.5h-153z" />
    <glyph glyph-name="three" unicode="3" horiz-adv-x="1378" 
d="M289 551q-37 -234 55 -338t305 -104q198 0 305 82t121 235q10 137 -59 204.5t-201 67.5h-170l23 127h227q132 0 203.5 61.5t85.5 168.5q7 60 -7 109t-51.5 88.5t-109.5 61t-174 21.5q-204 0 -313.5 -89.5t-137.5 -272.5h-153q29 239 185.5 365t430.5 126
q252 0 375 -103.5t112 -275.5q-8 -133 -94 -216t-250 -93l-8 -45q262 -65 236 -328q-19 -194 -170 -308.5t-414 -114.5q-283 0 -415.5 140.5t-90.5 430.5h154z" />
    <glyph glyph-name="four" unicode="4" horiz-adv-x="1353" 
d="M997 999h152l-107 -544h189l-25 -129h-190l-64 -326h-151l63 326h-768l56 278q134 56 257 137t230.5 186t190.5 238t128 279h158q-220 -656 -946 -969l-8 -43l117 23h612z" />
    <glyph glyph-name="five" unicode="5" horiz-adv-x="1433" 
d="M694 -25q-125 0 -232 35t-186 100t-118.5 168.5t-26.5 231.5h152q-12 -101 18 -180.5t90.5 -127t138.5 -72t168 -24.5q182 0 299.5 97t149.5 276q35 204 -69.5 313t-295.5 109q-115 0 -199.5 -39.5t-158.5 -107.5l-191 143l213 547h938l-26 -129h-809l-178 -459l32 -25
q155 193 416 193q118 0 215.5 -36t165.5 -107.5t93 -178t-1 -247.5q-46 -231 -202.5 -355.5t-395.5 -124.5z" />
    <glyph glyph-name="six" unicode="6" horiz-adv-x="1402" 
d="M690 -20q-142 0 -253 48t-183 142.5t-94.5 233.5t12.5 321q27 139 64.5 244t101 197.5t151 151.5t215 92.5t291.5 33.5h353l-23 -131l-375 2q-132 1 -235.5 -30.5t-176.5 -92t-122 -139.5t-82 -183l-55 -92h40q58 120 172 185t275 65q135 0 240 -45.5t166.5 -124.5
t85 -185t2.5 -227q-38 -214 -187 -340t-383 -126zM301 588q-44 -197 72 -337t327 -140q166 0 272 93.5t136 258.5q36 204 -69.5 323t-309.5 119q-169 0 -281.5 -84t-146.5 -233z" />
    <glyph glyph-name="seven" unicode="7" horiz-adv-x="1193" 
d="M227 0q92 467 337 781t667 511l10 45l-115 -24h-897l25 131h1053l-54 -266q-358 -167 -571 -453.5t-299 -724.5h-156z" />
    <glyph glyph-name="eight" unicode="8" horiz-adv-x="1374" 
d="M631 -20q-274 0 -414 113t-129 302q6 82 39.5 147.5t91 111.5t127 77t158.5 53l8 43q-106 40 -158 108.5t-41 184.5q21 175 163.5 259.5t365.5 84.5q233 0 354 -88t111 -254q-11 -132 -89.5 -204t-228.5 -113l-8 -45q295 -100 262 -367q-24 -190 -183.5 -301.5
t-428.5 -111.5zM250 420q-16 -145 81 -228t310 -83q212 0 326.5 83t130.5 228q14 143 -82.5 226t-306.5 83q-212 0 -327.5 -83.5t-131.5 -225.5zM463 1096q-14 -130 67 -185t250 -55q168 0 260.5 55t106.5 185q14 129 -67 184t-249 55q-169 0 -261.5 -55t-106.5 -184z" />
    <glyph glyph-name="nine" unicode="9" horiz-adv-x="1402" 
d="M795 1464q142 0 253 -48t183 -142.5t94.5 -233.5t-12.5 -321q-27 -139 -64.5 -244t-101.5 -197.5t-151.5 -151.5t-215 -92.5t-291.5 -33.5h-352l23 131l375 -2q106 -1 194 20t154 58.5t118.5 94t88 123t61.5 148.5l55 93h-41q-58 -120 -171.5 -185t-274.5 -65
q-180 0 -303 78.5t-171 209.5t-20 293q38 214 187 340.5t383 126.5zM377 981q-36 -204 69.5 -323t309.5 -119q169 0 281.5 84t146.5 233q29 129 -13.5 239t-145 174t-241.5 64q-166 0 -271.5 -93.5t-135.5 -258.5z" />
    <glyph glyph-name="colon" unicode=":" horiz-adv-x="679" 
d="M260 -20q-69 0 -114 47.5t-42 117.5q3 68 53 115t119 47q68 0 114.5 -47.5t43.5 -114.5q-3 -70 -54.5 -117.5t-119.5 -47.5zM244 866q3 68 53 115t119 47q68 0 114 -47.5t43 -114.5q-3 -70 -54.5 -118t-119.5 -48q-69 0 -113.5 47.5t-41.5 118.5z" />
    <glyph glyph-name="semicolon" unicode=";" horiz-adv-x="563" 
d="M211 328l133 -52l-264 -561l-133 52zM246 866q3 68 53 115t119 47q68 0 114 -47.5t43 -114.5q-3 -70 -54.5 -118t-119.5 -48q-69 0 -113.5 47.5t-41.5 118.5z" />
    <glyph glyph-name="less" unicode="&#x3c;" horiz-adv-x="1314" 
d="M188 584l973 313l31 -131l-860 -268l747 -273l-69 -112l-852 317z" />
    <glyph glyph-name="equal" unicode="=" horiz-adv-x="1310" 
d="M227 780h963l-25 -125h-962zM121 242l24 127h965l-25 -127h-964z" />
    <glyph glyph-name="greater" unicode="&#x3e;" horiz-adv-x="1316" 
d="M1128 434l-972 -313l-31 131l860 268l-747 273l69 112l852 -317z" />
    <glyph glyph-name="question" unicode="?" horiz-adv-x="878" 
d="M360 -20q-69 0 -113.5 47.5t-41.5 117.5q3 68 53 115t119 47q68 0 114.5 -47.5t43.5 -114.5q-3 -70 -55 -117.5t-120 -47.5zM119 1034q32 213 157 324.5t332 111.5q87 0 156.5 -20t113.5 -55.5t72.5 -83t33 -102t-4.5 -113.5q-74 -376 -756 -465l-6 -37l90 20h438
l-20 -112h-578l48 233q58 4 118 13.5t131.5 26.5t135 45.5t119.5 66t94.5 92t50.5 119.5q22 116 -42.5 188t-203.5 72q-142 0 -229 -82t-113 -242h-137z" />
    <glyph glyph-name="at" unicode="@" horiz-adv-x="2099" 
d="M1034 -315q-131 -2 -247 18t-208.5 59t-169.5 95t-132 125.5t-92.5 151t-55.5 171.5t-17.5 187t19.5 198q72 363 328.5 576t619.5 213q168 0 316 -42.5t263.5 -123.5t192.5 -198.5t101.5 -268t-8.5 -332.5q-23 -124 -69 -213t-111.5 -141.5t-143.5 -76.5t-174 -24h-53
q-48 0 -75 27.5t-11 71.5l49 127h-45q-57 -110 -161.5 -169t-231.5 -59q-149 0 -252 74t-142.5 203t-9.5 291q41 208 170 330t305 122q156 0 274.5 -86.5t135.5 -236.5h47l-6 92l39 211h133l-172 -889h45q127 0 212 81t120 269q30 160 9 292.5t-86 235.5t-164.5 173.5
t-227 107.5t-271.5 37q-314 0 -537 -186.5t-284 -503.5q-17 -87 -17.5 -171t14.5 -163t48 -150.5t81 -133t116 -111t150 -84t185.5 -52.5t221.5 -16l587 8l-20 -108zM653 608q-20 -105 -3 -186.5t63.5 -137t116 -84t155.5 -28.5q147 0 250.5 92t134.5 254q38 192 -57 313
t-285 121q-145 0 -244.5 -91t-130.5 -253z" />
    <glyph glyph-name="A" unicode="A" horiz-adv-x="1394" 
d="M-35 0l752 1444h330l186 -1444h-154l-73 575h-580l-299 -575h-162zM494 705h495l-90 694h-45z" />
    <glyph glyph-name="B" unicode="B" horiz-adv-x="1402" 
d="M55 0l283 1444h422q110 0 191 -9.5t149 -33t109 -63.5t61 -102t14 -146q-8 -103 -59.5 -176t-125 -104.5t-159.5 -27.5l-8 -45q77 -5 137.5 -27.5t105 -63.5t64 -108t10.5 -155q-24 -207 -174.5 -295t-423.5 -88h-596zM233 127h429q81 0 140 6.5t114 24.5t91 49t61 81
t34 120q18 156 -76 219t-295 63h-387zM367 813h329q80 0 137.5 5.5t111.5 21.5t89 43.5t59 73t31 108.5q9 69 -3.5 116.5t-38 74t-79.5 40.5t-105.5 17.5t-137.5 3.5h-295z" />
    <glyph glyph-name="C" unicode="C" horiz-adv-x="1589" 
d="M758 -20q-207 0 -349.5 98t-201.5 265.5t-33 379.5q25 211 122.5 378t262.5 265t371 98q273 0 426 -154t155 -423h-153q2 214 -110.5 330t-327.5 116q-251 0 -404.5 -168t-187.5 -442q-23 -180 16.5 -316t147.5 -216t276 -80q216 0 356.5 116.5t192.5 331.5h153
q-63 -270 -251.5 -424.5t-460.5 -154.5z" />
    <glyph glyph-name="D" unicode="D" horiz-adv-x="1454" 
d="M55 0l283 1444h151l-282 -1444h-152zM207 0l26 131h328q63 0 113 4t113.5 18t112.5 38.5t101.5 69t91 105.5t70 152t47.5 205q19 91 13 164t-12 130t-33 101t-51 75.5t-65 53t-76 34.5t-83 20t-86 9.5t-86 2.5h-266l24 131h252q70 0 130 -5.5t125.5 -20t116 -39
t101.5 -63t81 -92.5t55.5 -126.5t24.5 -165.5t-11 -209q-17 -130 -53 -236t-82.5 -180t-109.5 -130t-127 -89t-142 -53.5t-148 -27.5t-151 -7h-344z" />
    <glyph glyph-name="E" unicode="E" horiz-adv-x="1245" 
d="M55 0l283 1444h977l-25 -131h-825l-103 -525h723l-24 -129h-723l-105 -528h826l-27 -131h-977z" />
    <glyph glyph-name="F" unicode="F" horiz-adv-x="1204" 
d="M55 0l283 1444h938l-27 -131h-784l-109 -549h686l-24 -131h-686l-125 -633h-152z" />
    <glyph glyph-name="G" unicode="G" horiz-adv-x="1613" 
d="M743 -20q-161 0 -279.5 55.5t-186 155t-93.5 230.5t-10 288q23 226 118 395.5t258.5 264.5t375.5 95q258 0 406 -141.5t159 -394.5h-154q-5 195 -111.5 301t-301.5 106q-169 0 -297.5 -80t-203 -220.5t-95.5 -329.5q-14 -126 3 -230.5t67 -188t146.5 -130.5t233.5 -47
q243 0 373 134t176 406h-600l23 119h636q62 0 85 -25.5t12 -80.5l-127 -662h-156l21 98l118 260h-51q-11 -44 -31.5 -89t-64 -98.5t-101.5 -94.5t-148.5 -68.5t-199.5 -27.5z" />
    <glyph glyph-name="H" unicode="H" horiz-adv-x="1472" 
d="M338 1444h151l-131 -666h859l131 666h153l-282 -1444h-154l127 649h-858l-127 -649h-152z" />
    <glyph glyph-name="I" unicode="I" horiz-adv-x="1062" 
d="M315 1444h797l-25 -131h-323l-229 -1182h321l-27 -131h-796l26 131h324l229 1182h-321z" />
    <glyph glyph-name="J" unicode="J" horiz-adv-x="1085" 
d="M461 0h-490l27 131h457q144 0 225.5 88t114.5 262l161 832h-510l25 131h530q75 0 99 -27t10 -96l-170 -877q-43 -219 -165.5 -331.5t-313.5 -112.5z" />
    <glyph glyph-name="K" unicode="K" horiz-adv-x="1325" 
d="M55 0l283 1444h151l-127 -647h95l762 647h211l-832 -715l555 -729h-188l-512 666h-115l-131 -666h-152z" />
    <glyph glyph-name="L" unicode="L" horiz-adv-x="1103" 
d="M172 0q-56 0 -80 31t-14 88l260 1325h151l-256 -1313h728l-25 -131h-764z" />
    <glyph glyph-name="M" unicode="M" horiz-adv-x="1822" 
d="M55 0l283 1444h303l154 -1399h45l700 1399h313l-282 -1444h-154l248 1272l51 127h-45l-702 -1399h-312l-155 1399h-45l-2 -127l-248 -1272h-152z" />
    <glyph glyph-name="N" unicode="N" horiz-adv-x="1536" 
d="M55 0l283 1444h309l471 -1399h45l-2 111l252 1288h152l-283 -1444h-309l-471 1399h-45l2 -111l-252 -1288h-152z" />
    <glyph glyph-name="O" unicode="O" horiz-adv-x="1603" 
d="M176 723q15 157 73.5 292.5t152 235.5t226 156.5t287.5 56.5q154 0 275 -56.5t195.5 -156.5t107.5 -235t18 -293t-73.5 -294t-152.5 -235.5t-226.5 -156.5t-286.5 -57t-275 56.5t-195.5 156.5t-107.5 236t-18 294zM330 723q-15 -133 5 -244t74 -193.5t148 -128.5t221 -46
t230.5 46t175 128.5t115.5 193t59 244.5q20 179 -20.5 314.5t-149.5 215.5t-277 80t-294.5 -80.5t-196.5 -215.5t-90 -314z" />
    <glyph glyph-name="P" unicode="P" horiz-adv-x="1251" 
d="M55 0l283 1444h151l-178 -912l21 101h260q82 0 144 7.5t123.5 29t103.5 58.5t73 99t43 148q12 85 -1.5 146t-45 98t-86.5 58.5t-114.5 28.5t-141.5 7h-225l24 131h209q116 0 203 -13.5t158 -46.5t112.5 -86t57.5 -134t2 -189q-17 -135 -67.5 -228t-136 -145.5t-192.5 -75
t-253 -22.5h-277l-98 -504h-152z" />
    <glyph glyph-name="Q" unicode="Q" horiz-adv-x="1566" 
d="M1348 -315q-302 69 -562 81t-561 -30l11 125q19 2 95.5 11t107.5 13t99 14.5t111 20.5t100 26t107 36l-10 34q-59 -16 -129 -16q-97 0 -182.5 29.5t-149.5 82.5t-113 127t-73.5 163t-30 191t17.5 210q58 297 250.5 479t464.5 182q219 0 370 -105.5t209 -290t13 -415.5
q-26 -135 -77 -248t-115.5 -193.5t-147.5 -144.5t-165.5 -104t-176.5 -69q237 -3 561 -78zM338 784q-37 -189 4 -338t158 -235t293 -86q215 0 358 143t190 404q37 189 -1.5 338t-153.5 236t-291 87q-215 0 -362 -147.5t-195 -401.5z" />
    <glyph glyph-name="R" unicode="R" horiz-adv-x="1368" 
d="M55 0l283 1444h487q104 0 181 -9.5t146 -35.5t109 -69.5t58 -114.5t6 -168q-21 -156 -93.5 -229.5t-215.5 -104.5l-8 -45h118q125 0 103 -117l-109 -551h-153l114 586h-759l-115 -586h-152zM348 717h383q82 0 136.5 5.5t110.5 23t91 49.5t61 87t37 134q12 86 -3.5 144.5
t-41 88.5t-85 45t-100 17t-122.5 2h-350z" />
    <glyph glyph-name="S" unicode="S" horiz-adv-x="1392" 
d="M1272 377q-42 -397 -578 -397q-316 0 -470 144.5t-126 414.5h154q-29 -215 85.5 -322.5t362.5 -107.5q195 0 297 65t119 197q27 184 -225 264l-324 100q-309 96 -282 357q19 182 156.5 277t379.5 95q283 0 418.5 -128.5t112.5 -364.5h-154q25 182 -71 273t-310 91
q-342 0 -379 -237q-11 -86 38.5 -145t168.5 -95l320 -98q334 -103 307 -383z" />
    <glyph glyph-name="T" unicode="T" horiz-adv-x="1341" 
d="M272 1444h1162l-27 -131h-504l-256 -1313h-151l256 1313h-504z" />
    <glyph glyph-name="U" unicode="U" horiz-adv-x="1355" 
d="M127 580l170 864h152l-168 -864q-46 -236 38.5 -352.5t315.5 -116.5q211 0 313.5 98.5t145.5 314.5l180 920h151l-184 -946q-51 -259 -197.5 -388.5t-416.5 -129.5q-294 0 -426 152t-74 448z" />
    <glyph glyph-name="V" unicode="V" horiz-adv-x="1394" 
d="M432 0l-186 1444h153l181 -1399h45l727 1399h161l-751 -1444h-330z" />
    <glyph glyph-name="W" unicode="W" horiz-adv-x="1828" 
d="M1966 1444l-555 -1444h-299v1399h-45l-541 -1399h-301l2 1444h150l10 -1266l-37 -133h45l543 1399h315l-2 -1399h47l21 133l491 1266h156z" />
    <glyph glyph-name="X" unicode="X" horiz-adv-x="1368" 
d="M1212 0h-163l-310 659h-45l-551 -659h-184l616 739l-333 705h161l314 -653h47l545 653h186l-618 -737z" />
    <glyph glyph-name="Y" unicode="Y" horiz-adv-x="1335" 
d="M1282 1444h166l-604 -826h-78l-123 -618h-151l120 618h-77l-283 826h156l262 -785h45z" />
    <glyph glyph-name="Z" unicode="Z" horiz-adv-x="1335" 
d="M14 0l62 311l1255 981l8 45l-114 -24h-955l27 131h1108l-62 -311l-1255 -981l-8 -46l115 25h954l-27 -131h-1108z" />
    <glyph glyph-name="bracketleft" unicode="[" horiz-adv-x="878" 
d="M369 1505h528l-23 -123h-387l-292 -1505h387l-25 -123h-528z" />
    <glyph glyph-name="backslash" unicode="\" horiz-adv-x="991" 
d="M358 1657l478 -1835l-123 -49l-477 1835z" />
    <glyph glyph-name="bracketright" unicode="]" horiz-adv-x="876" 
d="M557 -246h-528l22 123h387l293 1505h-387l25 123h528z" />
    <glyph glyph-name="asciicircum" unicode="^" horiz-adv-x="1110" 
d="M848 786l-92 613h-45l-332 -613h-152l365 658h293l106 -658h-143z" />
    <glyph glyph-name="underscore" unicode="_" horiz-adv-x="1230" 
d="M16 -96h963l-23 -127h-964z" />
    <glyph glyph-name="grave" unicode="`" horiz-adv-x="989" 
d="M969 1305l-51 -113l-580 160l51 112z" />
    <glyph glyph-name="a" unicode="a" horiz-adv-x="1208" 
d="M72 279q6 126 90 204.5t252 91.5l460 39q17 151 -51 224t-205 73q-121 0 -193.5 -60.5t-107.5 -193.5h-155q43 177 159 279t300 102q106 0 188.5 -33t135.5 -97t71.5 -158t-4.5 -215l-78 -406h149l-24 -129h-176q-55 0 -81 31t-14 86l7 39l57 123h-47q-21 -50 -43.5 -90
t-58 -80.5t-77.5 -67.5t-102.5 -44t-132.5 -17q-84 0 -146.5 21.5t-95.5 52.5t-52 74.5t-23 78.5t-2 72zM225 299q-13 -93 38 -143t155 -50q162 0 283 113t153 277l-414 -39q-103 -9 -154 -45t-61 -113z" />
    <glyph glyph-name="b" unicode="b" horiz-adv-x="1337" 
d="M53 0l293 1505h152l-117 -600l-47 -112h47q50 111 153 179t248 68q151 0 262 -73.5t158 -207t15 -300.5q-42 -213 -185.5 -345t-343.5 -132q-163 0 -277 86t-124 241h-43l2 -104l-41 -205h-152zM313 555q-21 -111 0 -198.5t74.5 -139t125 -78t155.5 -26.5q158 0 262 91
t137 271q40 212 -55 325t-281 113q-166 0 -276 -92.5t-142 -265.5z" />
    <glyph glyph-name="c" unicode="c" horiz-adv-x="1206" 
d="M121 557q38 207 184 344t357 137q120 0 219.5 -44t164 -137.5t64.5 -221.5h-154q-1 133 -83 202.5t-211 69.5q-159 0 -261 -101.5t-133 -260.5q-12 -70 -10 -134.5t26 -120.5t62.5 -97.5t100 -65t139.5 -23.5q123 0 206.5 64.5t127.5 212.5h151q-22 -109 -75.5 -190.5
t-125 -127t-147.5 -67t-156 -21.5q-113 0 -207.5 43t-155 120.5t-85.5 184.5t2 234z" />
    <glyph glyph-name="d" unicode="d" horiz-adv-x="1339" 
d="M555 -25q-232 0 -357.5 164.5t-76.5 415.5q42 215 185 347t343 132q162 0 277 -86.5t125 -242.5h43l-2 106l139 694h149l-293 -1505h-151l20 113l48 110h-48q-50 -112 -153.5 -180t-247.5 -68zM270 541q-40 -212 55 -325.5t281 -113.5q166 0 276 93t142 266
q19 116 0 199.5t-73.5 137.5t-125.5 79.5t-155 25.5q-159 0 -263 -91t-137 -271z" />
    <glyph glyph-name="e" unicode="e" horiz-adv-x="1200" 
d="M117 522q29 243 173.5 378.5t362.5 135.5q221 0 336 -130.5t90 -362.5l-8 -62h-815q-10 -110 16 -193t96 -133.5t179 -50.5q136 0 229 66t137 184h148q-25 -73 -64 -135t-100 -118.5t-152 -88.5t-202 -32q-120 0 -210 42.5t-140.5 117.5t-69.5 172t-6 210zM274 600h666
q4 148 -74.5 229.5t-222.5 81.5q-136 0 -237.5 -83t-131.5 -228z" />
    <glyph glyph-name="f" unicode="f" horiz-adv-x="874" 
d="M166 887l27 129h225l33 168q64 321 389 321h176l-23 -129h-180q-97 0 -143.5 -45.5t-67.5 -148.5l-33 -166h295l-24 -129h-295l-148 -758h295l-24 -129h-672l22 129h228l147 758h-227z" />
    <glyph glyph-name="g" unicode="g" horiz-adv-x="1339" 
d="M555 -25q-232 0 -357.5 164.5t-76.5 415.5q42 215 185 347t343 132q162 0 277 -86.5t125 -242.5h43l-2 106l41 205h153l-199 -1016l-53 -274q-25 -119 -157 -119h-758l24 129h742l51 264l20 113l48 110h-48q-50 -112 -153.5 -180t-247.5 -68zM270 541q-40 -212 55 -325.5
t281 -113.5q166 0 276 93t142 266q19 116 0 199.5t-73.5 137.5t-125.5 79.5t-155 25.5q-159 0 -263 -91t-137 -271z" />
    <glyph glyph-name="h" unicode="h" horiz-adv-x="1220" 
d="M55 0l291 1505h152l-123 -633l-49 -110h49q55 126 159 198t242 72q194 0 281.5 -120t44.5 -332l-111 -580h-151l112 582q32 167 -28 246t-211 79q-153 0 -265 -117t-149 -309l-92 -481h-152z" />
    <glyph glyph-name="i" unicode="i" horiz-adv-x="886" 
d="M14 0l25 129h280l148 758h-203l25 129h237q53 0 73.5 -26.5t10.5 -84.5l-149 -776h282l-24 -129h-705zM469 1335q6 54 49 92.5t98 38.5q56 0 91.5 -38.5t29.5 -92.5q-4 -55 -47.5 -94t-99.5 -39q-55 0 -90.5 38.5t-30.5 94.5z" />
    <glyph glyph-name="j" unicode="j" horiz-adv-x="589" 
d="M135 -57q32 39 46 72t24 83l153 789h-208l24 129h240q60 0 84.5 -24.5t11.5 -82.5l-162 -839q-9 -49 -23 -82.5t-44 -73.5l-215 -295h-162zM365 1335q6 54 49 92.5t98 38.5q56 0 91.5 -38.5t29.5 -92.5q-4 -55 -48 -94t-100 -39q-55 0 -90 38.5t-30 94.5z" />
    <glyph glyph-name="k" unicode="k" horiz-adv-x="1087" 
d="M55 0l291 1505h152l-179 -917h115l479 428h203l-571 -502l368 -514h-182l-330 463h-106l-88 -463h-152z" />
    <glyph glyph-name="l" unicode="l" horiz-adv-x="884" 
d="M-4 0l22 129h285l244 1247h-205l23 129h262q46 0 66.5 -23t11.5 -67l-250 -1286h284l-22 -129h-721z" />
    <glyph glyph-name="m" unicode="m" horiz-adv-x="1835" 
d="M53 0l197 1016h151l-26 -146l-49 -110h47q117 274 364 274q144 0 217.5 -73.5t79.5 -200.5h39q117 274 365 274q94 0 160 -34t96.5 -91.5t39.5 -134t-10 -160.5l-118 -614h-152l113 586q33 162 -8.5 240.5t-176.5 78.5q-139 0 -242.5 -112.5t-138.5 -303.5l-96 -489h-151
l112 586q33 162 -8 240.5t-176 78.5q-139 0 -242.5 -112.5t-138.5 -303.5l-96 -489h-152z" />
    <glyph glyph-name="n" unicode="n" horiz-adv-x="1218" 
d="M53 0l197 1016h151l-28 -144l-49 -110h49q55 126 159 198t242 72q194 0 281 -120t47 -332l-113 -580h-151l112 582q33 166 -27.5 245.5t-211.5 79.5q-153 0 -265 -117t-149 -309l-92 -481h-152z" />
    <glyph glyph-name="o" unicode="o" horiz-adv-x="1296" 
d="M117 508q6 109 49.5 205.5t115.5 168t175.5 113t222.5 41.5t217 -41.5t161.5 -113t96 -168t25.5 -205.5q-8 -146 -79.5 -265.5t-198 -191t-284.5 -71.5q-159 0 -277.5 71.5t-175.5 191t-48 265.5zM268 508q-11 -169 84 -284t275 -115q178 0 285 114.5t116 284.5
t-84.5 284.5t-271.5 114.5q-121 0 -212 -55.5t-138.5 -144.5t-53.5 -199z" />
    <glyph glyph-name="p" unicode="p" horiz-adv-x="1337" 
d="M-23 -393l275 1409h151l-22 -113l-45 -110h47q50 111 153 179t248 68q151 0 262 -73.5t158 -207t15 -300.5q-42 -213 -185.5 -345t-343.5 -132q-163 0 -277 86t-124 241h-43l2 -104l-119 -598h-152zM315 555q-21 -111 0 -198.5t74.5 -139t125 -78t155.5 -26.5
q158 0 262 91t137 271q40 212 -55 325t-281 113q-167 0 -276.5 -92.5t-141.5 -265.5z" />
    <glyph glyph-name="q" unicode="q" horiz-adv-x="1337" 
d="M1284 1016l-274 -1409h-152l98 504l48 112h-48q-50 -111 -154 -179.5t-249 -68.5q-151 0 -261.5 74t-156.5 207t-14 299q42 215 185 347t343 132q162 0 277 -86.5t125 -242.5h41v106l41 205h151zM268 541q-40 -212 56 -325.5t282 -113.5q166 0 276 93t142 266
q19 116 0 199.5t-73.5 137.5t-125.5 79.5t-155 25.5q-158 0 -262.5 -91t-139.5 -271z" />
    <glyph glyph-name="r" unicode="r" horiz-adv-x="892" 
d="M225 881q23 135 162 135h555l-27 -129h-538l-172 -887h-152z" />
    <glyph glyph-name="s" unicode="s" horiz-adv-x="1015" 
d="M504 -25q-108 0 -194 25.5t-146.5 76t-85.5 131t-8 183.5h149q-14 -75 2.5 -132.5t59 -91t101.5 -50.5t132 -17q196 0 225 152q11 57 -18.5 94t-112.5 68l-243 92q-215 81 -179 276q25 122 125.5 189t255.5 67q128 0 220 -38t137.5 -119.5t25.5 -196.5h-151
q19 104 -44.5 166.5t-193.5 62.5q-90 0 -151 -37t-70 -94q-12 -57 16.5 -95t102.5 -66l223 -82q124 -47 177 -118.5t32 -180.5q-25 -128 -125 -196.5t-262 -68.5z" />
    <glyph glyph-name="t" unicode="t" horiz-adv-x="870" 
d="M707 129l-25 -129h-373q-69 0 -95.5 33t-14.5 104l145 750h-221l27 129h219l53 270l162 45l-62 -315h316l-27 -129h-313l-148 -760z" />
    <glyph glyph-name="u" unicode="u" horiz-adv-x="1218" 
d="M444 -16q-194 0 -280 120t-45 332l110 580h152l-113 -582q-33 -166 27.5 -245.5t212.5 -79.5q153 0 265 117t149 309l92 481h151l-196 -1016h-152l29 141l49 113h-49q-55 -127 -158.5 -198.5t-243.5 -71.5z" />
    <glyph glyph-name="v" unicode="v" horiz-adv-x="1087" 
d="M983 1016h158l-535 -1016h-317l-146 1016h148l137 -971h45z" />
    <glyph glyph-name="w" unicode="w" horiz-adv-x="1757" 
d="M174 1016h141l78 -848l-24 -123h41l411 971h309l35 -971h41l23 125l403 846h146l-480 -1016h-276l-31 971h-45l-407 -971h-281z" />
    <glyph glyph-name="x" unicode="x" horiz-adv-x="1132" 
d="M-27 0l451 524l-254 492h164l225 -447h35l385 447h180l-450 -518l254 -498h-168l-224 446h-34l-385 -446h-179z" />
    <glyph glyph-name="y" unicode="y" horiz-adv-x="1200" 
d="M1167 1016l-196 -1016h2l-53 -274q-25 -119 -158 -119h-758l25 129h741l51 264h-2l29 143l49 111h-49q-55 -126 -159.5 -198t-242.5 -72q-193 0 -280 120t-47 332l112 580h152l-113 -582q-33 -166 27.5 -245.5t212.5 -79.5q153 0 265 117t149 309l92 481h151z" />
    <glyph glyph-name="z" unicode="z" horiz-adv-x="1085" 
d="M12 0l58 291l931 586l9 41l-142 -27h-682l23 125h864l-55 -287l-932 -588l-10 -43l143 29h682l-27 -127h-862z" />
    <glyph glyph-name="braceleft" unicode="{" horiz-adv-x="974" 
d="M205 655q94 -1 165.5 21t115 61.5t67.5 83.5t35 97q28 127 -22 221.5t-158 122.5l36 182h541l-20 -103h-398l-92 37l-8 -45q156 -66 214 -177.5t30 -250.5q-27 -136 -120.5 -216t-246.5 -89l-8 -45q140 -45 199 -146.5t32 -238.5q-57 -291 -395 -342l-8 -45l104 12h396
l-19 -102h-543l41 215q116 2 198 77.5t105 202.5q6 40 6 80t-17.5 80.5t-46.5 75t-82.5 64.5t-125.5 49z" />
    <glyph glyph-name="bar" unicode="|" horiz-adv-x="475" 
d="M416 1747h125l-398 -2050h-125z" />
    <glyph glyph-name="braceright" unicode="}" horiz-adv-x="974" 
d="M797 481q-94 1 -165.5 -21t-115 -61t-67.5 -83t-35 -97q-28 -127 22 -221.5t158 -122.5l-37 -182h-541l21 102h397l92 -37l9 45q-156 66 -214 177.5t-30 250.5q27 136 120.5 216.5t245.5 89.5l9 45q-140 45 -199.5 146.5t-32.5 238.5q57 291 395 342l9 45l-105 -13h-395
l18 103h543l-41 -215q-116 -2 -198 -78t-105 -203q-6 -40 -6 -80t17.5 -80t46.5 -74.5t82.5 -64.5t125.5 -49z" />
    <glyph glyph-name="asciitilde" unicode="~" horiz-adv-x="1306" 
d="M152 385q6 73 33 127.5t67 85t83 45t89 14.5q66 0 134.5 -25.5t116 -56t107 -56t109.5 -25.5q51 0 88.5 30t54.5 113h123q-6 -72 -33 -126.5t-67 -84.5t-83 -44.5t-89 -14.5q-66 0 -134.5 25.5t-116 56t-107 56t-109.5 25.5q-115 0 -144 -145h-122z" />
    <glyph glyph-name="exclamdown" unicode="&#xa1;" horiz-adv-x="679" 
d="M420 1036q69 0 113.5 -47.5t41.5 -118.5q-3 -67 -53 -114t-119 -47q-68 0 -114 47t-43 114q3 70 54.5 118t119.5 48zM88 -428l197 948h123l-168 -948h-152z" />
    <glyph glyph-name="cent" unicode="&#xa2;" horiz-adv-x="1206" 
d="M162 772q38 203 178 339t344 142l96 494l119 -2l-96 -500q152 -28 250 -130.5t98 -264.5h-152q-1 114 -61 181t-160 85l-153 -797h2q123 0 207.5 65t126.5 212h151q-22 -109 -75.5 -190.5t-125 -127t-147.5 -67t-156 -21.5h-8l-96 -493l-119 2l98 506q-181 44 -272 198.5
t-49 368.5zM309 760q-29 -151 21.5 -268.5t177.5 -155.5l151 784q-142 -14 -232 -113t-118 -247z" />
    <glyph glyph-name="sterling" unicode="&#xa3;" horiz-adv-x="1273" 
d="M123 221q148 37 238.5 121t115.5 209q8 44 8 98h-284l22 119h250q-4 28 -13 78t-14.5 83.5t-10 77t-3 83.5t9.5 77q13 67 38.5 116.5t68 79t79 47t101.5 24.5t104 8.5t116 1.5h5h408l-25 -129h-387q-77 0 -125.5 -3.5t-93.5 -14.5t-71.5 -32.5t-45.5 -55.5t-28 -85
q-7 -31 -8.5 -63.5t3.5 -76t8.5 -66t14.5 -79t14 -71.5h439l-25 -119h-399q3 -69 -8 -127q-14 -72 -48 -130.5t-78 -97.5t-104 -69.5t-117 -48.5t-126 -31l-9 -43l113 13l848 14l-25 -129h-999z" />
    <glyph glyph-name="currency" unicode="&#xa4;" horiz-adv-x="1372" 
d="M705 305q-161 0 -269 94l-358 -301l-78 95l358 299q-59 100 -53 231q9 163 115 278l-211 263l98 79l211 -262q107 60 230 60q160 0 270 -99l360 301l76 -92l-362 -301q57 -102 51 -227q-9 -160 -113 -277l217 -268l-98 -80l-217 269q-105 -62 -227 -62zM430 723
q-5 -123 74 -208t207 -85q127 0 214 85.5t93 207.5q6 121 -72.5 207t-206.5 86q-127 0 -215 -86t-94 -207z" />
    <glyph glyph-name="yen" unicode="&#xa5;" horiz-adv-x="1349" 
d="M1288 1444h166l-573 -785h241l-24 -118h-342l-19 -103h340l-22 -119h-342l-64 -319h-151l61 319h-344l25 119h344l20 103h-344l23 118h243l-268 785h156l262 -785h45z" />
    <glyph glyph-name="brokenbar" unicode="&#xa6;" horiz-adv-x="475" 
d="M268 989l148 758h125l-148 -758h-125zM18 -303l148 758h125l-148 -758h-125z" />
    <glyph glyph-name="section" unicode="&#xa7;" horiz-adv-x="1327" 
d="M555 -375q-103 0 -189.5 25.5t-150 74.5t-94 128.5t-17.5 179.5h154q-11 -76 9 -134.5t65 -92.5t103.5 -51t129.5 -17q233 0 271 188q19 87 -24.5 138.5t-160.5 101.5l-252 108q-261 112 -223 334q20 109 97.5 173.5t197.5 68.5l8 39q-71 57 -99 124.5t-11 155.5
q24 135 134.5 214t293.5 79q143 0 248.5 -46.5t159 -139.5t36.5 -221h-149q20 146 -68 218.5t-238 72.5q-231 0 -268 -185q-14 -81 26.5 -134.5t160.5 -106.5l247 -107q265 -113 226 -332q-22 -109 -99.5 -173t-204.5 -68l-8 -39q155 -97 121 -279q-24 -139 -133.5 -218
t-298.5 -79zM330 618q-32 -162 149 -239l174 -72q101 -41 179.5 -27t128 66t63.5 127q32 160 -139 232l-183 77q-146 55 -247 5.5t-125 -169.5z" />
    <glyph glyph-name="dieresis" unicode="&#xa8;" horiz-adv-x="1040" 
d="M463 1184q-59 0 -97 41.5t-34 99.5q6 58 50 98.5t103 40.5t98 -41t33 -98q-4 -58 -49 -99.5t-104 -41.5zM739 1325q6 58 50.5 98.5t103.5 40.5q58 0 97 -41t34 -98q-4 -58 -49.5 -99.5t-104.5 -41.5q-60 0 -98 41t-33 100z" />
    <glyph glyph-name="copyright" unicode="&#xa9;" horiz-adv-x="2269" 
d="M1087 -473q-161 0 -303 38.5t-252 110t-194 172.5t-129 226.5t-57 272.5t22 310q47 244 193.5 438t361 303t457.5 109q193 0 357.5 -54.5t282.5 -154.5t194.5 -240t95 -311t-16.5 -368q-47 -245 -193.5 -439.5t-361 -303.5t-457.5 -109zM281 643q-31 -147 -20.5 -279.5
t50 -245.5t113.5 -204.5t171.5 -155.5t223 -98.5t268.5 -34.5q216 0 408.5 99t324 274.5t173.5 394.5q31 147 20.5 279.5t-50 245.5t-114 204.5t-172 155.5t-223 98.5t-268.5 34.5q-215 0 -407 -99t-323.5 -274.5t-174.5 -394.5zM641 559q38 207 184 344t357 137
q120 0 219.5 -44t164 -137.5t64.5 -221.5h-153q-1 133 -83.5 202.5t-211.5 69.5q-159 0 -261 -101.5t-133 -260.5q-12 -70 -10 -134.5t26 -120.5t62.5 -97.5t100 -65t139.5 -23.5q123 0 206.5 64.5t127.5 212.5h151q-22 -109 -75.5 -190.5t-125 -127t-147.5 -67t-156 -21.5
q-113 0 -207.5 43t-155 120.5t-85.5 184.5t2 234z" />
    <glyph glyph-name="guillemotleft" unicode="&#xab;" horiz-adv-x="1409" 
d="M745 41l-110 -84l-459 565l658 547l92 -96l-559 -465zM578 522l657 547l92 -96l-559 -465l379 -467l-111 -84z" />
    <glyph glyph-name="logicalnot" unicode="&#xac;" horiz-adv-x="1200" 
d="M217 729h963l-25 -125l-68 -354h-124l67 354h-835z" />
    <glyph glyph-name="registered" unicode="&#xae;" horiz-adv-x="1325" 
d="M725 565q-150 0 -256 66t-152.5 175.5t-33.5 244.5q9 101 49.5 189t107.5 154t163 104t208 38q150 0 256 -66t152.5 -175t33.5 -244q-9 -101 -49.5 -189t-107.5 -154.5t-163 -104.5t-208 -38zM379 1051q-9 -81 9 -153t60 -127.5t113.5 -87.5t163.5 -32q182 0 298 115.5
t134 284.5q9 81 -9 153t-60.5 127t-113.5 87t-163 32q-182 0 -298 -115t-134 -284zM514 813l94 481h180q49 0 87 -5.5t73.5 -19.5t53.5 -43t14 -71q-4 -51 -37.5 -78.5t-81.5 -32.5l-4 -24h41q54 0 45 -47l-29 -160h-96l31 160h-242l-31 -160h-98zM659 1061h125
q66 0 95.5 15t35.5 59q6 42 -19.5 56.5t-90.5 14.5h-117z" />
    <glyph glyph-name="macron" unicode="&#xaf;" horiz-adv-x="1007" 
d="M344 1393h639v-125l-639 -2v127z" />
    <glyph glyph-name="degree" unicode="&#xb0;" horiz-adv-x="970" 
d="M565 608q-184 0 -295 121.5t-102 296.5q9 176 132 297t308 121q184 0 295.5 -121.5t102.5 -296.5q-9 -176 -132.5 -297t-308.5 -121zM293 1026q-6 -121 72.5 -207t205.5 -86q128 0 215 86t93 207t-72.5 207t-204.5 86q-127 0 -215 -86t-94 -207z" />
    <glyph glyph-name="plusminus" unicode="&#xb1;" horiz-adv-x="1310" 
d="M217 733h420l55 295h127l-57 -295h418l-25 -125h-416l-57 -293h-125l55 293h-419zM86 55l25 127h964l-26 -127h-963z" />
    <glyph glyph-name="uni00B2" unicode="&#xb2;" horiz-adv-x="962" 
d="M266 1495q44 244 165.5 357.5t299.5 113.5q83 0 153 -23t122.5 -69t74.5 -122.5t6 -174.5q-17 -101 -69.5 -184t-131 -140.5t-182.5 -98.5t-220.5 -61.5t-247.5 -25.5l-9 -35l230 25h528l-22 -117h-791l45 236q41 1 87.5 4.5t116 15t133.5 29t133 50t122 74.5t93 105
t54 139q20 120 -38 188t-187 68q-136 0 -216 -84t-116 -270h-133z" />
    <glyph glyph-name="uni00B3" unicode="&#xb3;" horiz-adv-x="972" 
d="M369 1325q-23 -153 37.5 -218t205.5 -65q134 0 200 49t75 148q17 176 -170 176h-117l23 111h157q173 0 185 147q8 84 -44 130t-182 46q-138 0 -210 -55.5t-89 -173.5h-133q19 170 131.5 258t306.5 88q181 0 272.5 -73t86.5 -193q-10 -204 -256 -215l-8 -37
q96 -12 144 -68.5t38 -158.5q-13 -141 -122 -218t-294 -77q-201 0 -299.5 97t-70.5 302h133z" />
    <glyph glyph-name="acute" unicode="&#xb4;" horiz-adv-x="989" 
d="M336 1186l-6 125l643 162l6 -127z" />
    <glyph glyph-name="paragraph" unicode="&#xb6;" horiz-adv-x="1333" 
d="M780 500q-285 10 -409 129t-105 342q24 234 181 353.5t468 119.5h175l-349 -1784h-125zM891 -340l346 1784h127l-348 -1784h-125z" />
    <glyph glyph-name="periodcentered" unicode="&#xb7;" horiz-adv-x="679" 
d="M332 344q-69 0 -114 48t-42 118q3 68 53 115t119 47q68 0 114.5 -47.5t43.5 -114.5q-3 -70 -54.5 -118t-119.5 -48z" />
    <glyph glyph-name="cedilla" unicode="&#xb8;" horiz-adv-x="757" 
d="M29 -254q85 0 123.5 1t85 7t64.5 20t20 38q6 43 -43 43q-29 0 -59 -11t-85 -43l-49 93l111 106h145l-121 -104q56 18 107 18q54 0 89 -28.5t29 -84.5q-3 -39 -18.5 -68t-45 -48t-64.5 -31t-88 -18.5t-104 -8.5t-124 -2z" />
    <glyph glyph-name="uni00B9" unicode="&#xb9;" horiz-adv-x="712" 
d="M549 940l174 885l39 88h-37q-24 -93 -55.5 -166t-81 -145.5t-125.5 -125.5t-176 -83l-23 125q279 102 346 434h273l-197 -1012h-137z" />
    <glyph glyph-name="guillemotright" unicode="&#xbb;" horiz-adv-x="1409" 
d="M664 985l110 84l459 -565l-658 -547l-92 96l559 465zM84 53l559 465l-379 467l111 84l459 -565l-658 -547z" />
    <glyph glyph-name="onequarter" unicode="&#xbc;" horiz-adv-x="2072" 
d="M451 432l174 885l39 88h-37q-24 -93 -55.5 -166.5t-81.5 -145.5t-126 -125t-176 -83l-22 125q279 102 346 434h272l-196 -1012h-137zM487 27l992 1425l104 -49l-991 -1426zM1149 215l45 242q194 69 342.5 213.5t206.5 341.5h133q-139 -469 -668 -666l-6 -37l96 23h404
l67 344h136l-68 -344h127l-22 -117h-127l-41 -215h-136l41 215h-530z" />
    <glyph glyph-name="onehalf" unicode="&#xbd;" horiz-adv-x="2254" 
d="M451 432l174 885l39 88h-37q-24 -93 -55.5 -166.5t-81.5 -145.5t-126 -125t-176 -83l-22 125q279 102 346 434h272l-196 -1012h-137zM487 27l992 1425l104 -49l-991 -1426zM1280 0l45 236q41 1 87.5 4.5t116 15t133.5 29t133 50t122 74.5t93 105t54 139q20 120 -38 188
t-187 68q-136 0 -216 -84t-116 -270h-133q44 244 165.5 357.5t299.5 113.5q83 0 153 -23t122.5 -69t74.5 -122.5t6 -174.5q-17 -101 -70 -184t-131.5 -140.5t-182.5 -98.5t-220.5 -61.5t-247.5 -25.5l-8 -35l230 25h528l-22 -117h-791z" />
    <glyph glyph-name="threequarters" unicode="&#xbe;" horiz-adv-x="2301" 
d="M270 817q-23 -152 37.5 -217t206.5 -65q134 0 199.5 48.5t74.5 147.5q17 176 -170 176h-116l22 111h158q172 0 184 147q8 84 -43.5 130t-181.5 46q-138 0 -210 -55.5t-89 -173.5h-133q19 170 131.5 258t306.5 88q181 0 272.5 -73t86.5 -193q-10 -204 -256 -215l-9 -37
q96 -12 144.5 -68.5t38.5 -158.5q-13 -141 -122 -218t-294 -77q-201 0 -300 97t-71 302h133zM717 27l991 1425l104 -49l-991 -1426zM1378 215l45 242q194 69 342.5 213.5t206.5 341.5h133q-139 -469 -667 -666l-6 -37l96 23h403l68 344h135l-68 -344h127l-22 -117h-127
l-41 -215h-135l41 215h-531z" />
    <glyph glyph-name="questiondown" unicode="&#xbf;" horiz-adv-x="878" 
d="M518 1036q69 0 114 -48t42 -118q-3 -67 -53 -114t-119 -47q-68 0 -114.5 47t-43.5 114q3 70 54.5 118t119.5 48zM-100 -80q74 376 755 465l7 37l-91 -21h-438l21 113h577l-47 -233q-58 -4 -118 -13.5t-131.5 -26.5t-135 -45.5t-119.5 -66t-94.5 -92t-50.5 -119.5
q-22 -116 42.5 -188t203.5 -72q142 0 229 82t113 242h137q-32 -213 -157.5 -325t-332.5 -112q-73 0 -133.5 14t-103 39.5t-74.5 60.5t-46.5 77t-19 88.5t6.5 95.5z" />
    <glyph glyph-name="Agrave" unicode="&#xc0;" horiz-adv-x="1394" 
d="M-35 0l752 1444h330l186 -1444h-154l-73 575h-580l-299 -575h-162zM494 705h495l-90 694h-45zM629 1780l51 112l580 -159l-52 -113z" />
    <glyph glyph-name="Aacute" unicode="&#xc1;" horiz-adv-x="1394" 
d="M-35 0l752 1444h330l186 -1444h-154l-73 575h-580l-299 -575h-162zM494 705h495l-90 694h-45zM616 1739l644 162l6 -127l-643 -160z" />
    <glyph glyph-name="Acircumflex" unicode="&#xc2;" horiz-adv-x="1394" 
d="M-35 0l752 1444h330l186 -1444h-154l-73 575h-580l-299 -575h-162zM494 705h495l-90 694h-45zM604 1675l365 258l276 -270l-102 -84l-193 195l-268 -195z" />
    <glyph glyph-name="Atilde" unicode="&#xc3;" horiz-adv-x="1394" 
d="M-35 0l752 1444h330l186 -1444h-154l-73 575h-580l-299 -575h-162zM494 705h495l-90 694h-45zM561 1636q39 269 236 269q47 0 86 -17t64.5 -41t48 -48t46.5 -41t48 -17q40 0 68 29.5t44 113.5h125q-39 -268 -233 -268q-47 0 -86.5 17t-65.5 41t-48.5 48t-46.5 41t-48 17
q-40 0 -68 -30t-45 -114h-125z" />
    <glyph glyph-name="Adieresis" unicode="&#xc4;" horiz-adv-x="1394" 
d="M-35 0l752 1444h330l186 -1444h-154l-73 575h-580l-299 -575h-162zM494 705h495l-90 694h-45zM596 1753q6 58 50.5 98.5t103.5 40.5t98 -41t33 -98q-4 -58 -49.5 -99.5t-104.5 -41.5t-97 41.5t-34 99.5zM1004 1753q6 58 50 98.5t103 40.5q58 0 97 -41t34 -98
q-4 -58 -49 -99.5t-104 -41.5q-60 0 -98 41t-33 100z" />
    <glyph glyph-name="Aring" unicode="&#xc5;" horiz-adv-x="1394" 
d="M-35 0l752 1444h330l186 -1444h-154l-73 575h-580l-299 -575h-162zM494 705h495l-90 694h-45zM647 1794q0 90 62.5 154.5t171.5 64.5t172 -64.5t63 -154.5q0 -89 -63.5 -154t-171.5 -65q-109 0 -171.5 64.5t-62.5 154.5zM770 1794q0 -46 29 -73t82 -27q54 0 82 26.5
t28 73.5q0 45 -28.5 71.5t-81.5 26.5t-82 -26.5t-29 -71.5z" />
    <glyph glyph-name="AE" unicode="&#xc6;" horiz-adv-x="2099" 
d="M-96 0l1091 1444h1174l-25 -131h-825l-102 -525h722l-24 -129h-723l-105 -528h826l-27 -131h-977l113 575h-506l-434 -575h-178zM616 707h433l135 692h-45z" />
    <glyph glyph-name="Ccedilla" unicode="&#xc7;" horiz-adv-x="1589" 
d="M758 -20h-15l-96 -84q56 18 107 18q54 0 89 -28.5t29 -84.5q-3 -39 -18.5 -68t-45 -48t-64.5 -31t-88 -18.5t-104 -8.5t-124 -2l27 121q85 0 123.5 1t85 7t64.5 20t20 38q6 43 -43 43q-29 0 -59 -11t-85 -43l-49 93l102 100q-161 31 -269 134t-151 256t-20 339
q25 211 122.5 378t262.5 265t371 98q273 0 426 -154t155 -423h-153q2 214 -110.5 330t-327.5 116q-251 0 -404.5 -168t-187.5 -442q-23 -180 16.5 -316t147.5 -216t276 -80q216 0 356.5 116.5t192.5 331.5h153q-63 -270 -251.5 -424.5t-460.5 -154.5z" />
    <glyph glyph-name="Egrave" unicode="&#xc8;" horiz-adv-x="1245" 
d="M55 0l283 1444h977l-25 -131h-825l-103 -525h723l-24 -129h-723l-105 -528h826l-27 -131h-977zM526 1780l52 112l579 -159l-51 -113z" />
    <glyph glyph-name="Eacute" unicode="&#xc9;" horiz-adv-x="1245" 
d="M55 0l283 1444h977l-25 -131h-825l-103 -525h723l-24 -129h-723l-105 -528h826l-27 -131h-977zM514 1739l643 162l6 -127l-643 -160z" />
    <glyph glyph-name="Ecircumflex" unicode="&#xca;" horiz-adv-x="1245" 
d="M55 0l283 1444h977l-25 -131h-825l-103 -525h723l-24 -129h-723l-105 -528h826l-27 -131h-977zM502 1675l364 258l277 -270l-103 -84l-192 195l-268 -195z" />
    <glyph glyph-name="Edieresis" unicode="&#xcb;" horiz-adv-x="1245" 
d="M55 0l283 1444h977l-25 -131h-825l-103 -525h723l-24 -129h-723l-105 -528h826l-27 -131h-977zM494 1753q6 58 50 98.5t103 40.5t98 -41t33 -98q-4 -58 -49 -99.5t-104 -41.5t-97 41.5t-34 99.5zM901 1753q6 58 50.5 98.5t103.5 40.5q58 0 97 -41t34 -98
q-4 -58 -49.5 -99.5t-104.5 -41.5q-60 0 -98 41t-33 100z" />
    <glyph glyph-name="Igrave" unicode="&#xcc;" horiz-adv-x="1062" 
d="M315 1444h797l-25 -131h-323l-229 -1182h321l-27 -131h-796l26 131h324l229 1182h-321zM461 1780l51 112l580 -159l-52 -113z" />
    <glyph glyph-name="Iacute" unicode="&#xcd;" horiz-adv-x="1062" 
d="M315 1444h797l-25 -131h-323l-229 -1182h321l-27 -131h-796l26 131h324l229 1182h-321zM449 1739l643 162l6 -127l-643 -160z" />
    <glyph glyph-name="Icircumflex" unicode="&#xce;" horiz-adv-x="1062" 
d="M315 1444h797l-25 -131h-323l-229 -1182h321l-27 -131h-796l26 131h324l229 1182h-321zM438 1675l365 258l276 -270l-102 -84l-193 195l-268 -195z" />
    <glyph glyph-name="Idieresis" unicode="&#xcf;" horiz-adv-x="1062" 
d="M315 1444h797l-25 -131h-323l-229 -1182h321l-27 -131h-796l26 131h324l229 1182h-321zM428 1753q6 58 50.5 98.5t103.5 40.5t98 -41t33 -98q-4 -58 -49.5 -99.5t-104.5 -41.5t-97 41.5t-34 99.5zM836 1753q6 58 50 98.5t103 40.5q58 0 97 -41t34 -98q-4 -58 -49 -99.5
t-104 -41.5q-60 0 -98 41t-33 100z" />
    <glyph glyph-name="Eth" unicode="&#xd0;" horiz-adv-x="1466" 
d="M66 0l129 657h-181l23 125h182l129 662h152l-129 -662h368l-22 -125h-371l-129 -657h-151zM217 0l27 131h327q63 0 113 4t113.5 18t113 38.5t102 69t91 105.5t70 152t47.5 205q12 80 13 149t-8.5 122t-25 97t-41 75.5t-53 56t-64 40t-70.5 26t-76.5 15.5t-77 7t-77.5 2
h-266l25 131h252q70 0 130 -5.5t125.5 -20t116 -39t101 -63t80.5 -92.5t55.5 -126.5t24.5 -165.5t-11 -209q-17 -130 -53 -236t-82.5 -180t-109.5 -130t-127 -89t-142 -53.5t-148 -27.5t-151 -7h-344z" />
    <glyph glyph-name="Ntilde" unicode="&#xd1;" horiz-adv-x="1536" 
d="M55 0l283 1444h309l471 -1399h45l-2 111l252 1288h152l-283 -1444h-309l-471 1399h-45l2 -111l-252 -1288h-152zM672 1636q39 269 235 269q47 0 86 -17t64.5 -41t48 -48t46.5 -41t48 -17q40 0 68.5 29.5t44.5 113.5h125q-39 -268 -234 -268q-47 0 -86.5 17t-65.5 41
t-48.5 48t-46.5 41t-48 17q-39 0 -67 -29.5t-45 -114.5h-125z" />
    <glyph glyph-name="Ograve" unicode="&#xd2;" horiz-adv-x="1603" 
d="M176 723q15 157 73.5 292.5t152 235.5t226 156.5t287.5 56.5q154 0 275 -56.5t195.5 -156.5t107.5 -235t18 -293t-73.5 -294t-152.5 -235.5t-226.5 -156.5t-286.5 -57t-275 56.5t-195.5 156.5t-107.5 236t-18 294zM330 723q-15 -133 5 -244t74 -193.5t148 -128.5t221 -46
t230.5 46t175 128.5t115.5 193t59 244.5q20 179 -20.5 314.5t-149.5 215.5t-277 80t-294.5 -80.5t-196.5 -215.5t-90 -314zM733 1780l51 112l580 -159l-51 -113z" />
    <glyph glyph-name="Oacute" unicode="&#xd3;" horiz-adv-x="1603" 
d="M176 723q15 157 73.5 292.5t152 235.5t226 156.5t287.5 56.5q154 0 275 -56.5t195.5 -156.5t107.5 -235t18 -293t-73.5 -294t-152.5 -235.5t-226.5 -156.5t-286.5 -57t-275 56.5t-195.5 156.5t-107.5 236t-18 294zM330 723q-15 -133 5 -244t74 -193.5t148 -128.5t221 -46
t230.5 46t175 128.5t115.5 193t59 244.5q20 179 -20.5 314.5t-149.5 215.5t-277 80t-294.5 -80.5t-196.5 -215.5t-90 -314zM721 1739l643 162l6 -127l-643 -160z" />
    <glyph glyph-name="Ocircumflex" unicode="&#xd4;" horiz-adv-x="1603" 
d="M176 723q15 157 73.5 292.5t152 235.5t226 156.5t287.5 56.5q154 0 275 -56.5t195.5 -156.5t107.5 -235t18 -293t-73.5 -294t-152.5 -235.5t-226.5 -156.5t-286.5 -57t-275 56.5t-195.5 156.5t-107.5 236t-18 294zM330 723q-15 -133 5 -244t74 -193.5t148 -128.5t221 -46
t230.5 46t175 128.5t115.5 193t59 244.5q20 179 -20.5 314.5t-149.5 215.5t-277 80t-294.5 -80.5t-196.5 -215.5t-90 -314zM709 1675l364 258l277 -270l-103 -84l-192 195l-269 -195z" />
    <glyph glyph-name="Otilde" unicode="&#xd5;" horiz-adv-x="1603" 
d="M176 723q15 157 73.5 292.5t152 235.5t226 156.5t287.5 56.5q154 0 275 -56.5t195.5 -156.5t107.5 -235t18 -293t-73.5 -294t-152.5 -235.5t-226.5 -156.5t-286.5 -57t-275 56.5t-195.5 156.5t-107.5 236t-18 294zM330 723q-15 -133 5 -244t74 -193.5t148 -128.5t221 -46
t230.5 46t175 128.5t115.5 193t59 244.5q20 179 -20.5 314.5t-149.5 215.5t-277 80t-294.5 -80.5t-196.5 -215.5t-90 -314zM666 1636q39 269 235 269q47 0 86 -17t64.5 -41t48 -48t46.5 -41t48 -17q40 0 68.5 29.5t44.5 113.5h125q-39 -268 -234 -268q-47 0 -86.5 17
t-65.5 41t-48.5 48t-46.5 41t-48 17q-39 0 -67 -29.5t-45 -114.5h-125z" />
    <glyph glyph-name="Odieresis" unicode="&#xd6;" horiz-adv-x="1603" 
d="M176 723q15 157 73.5 292.5t152 235.5t226 156.5t287.5 56.5q154 0 275 -56.5t195.5 -156.5t107.5 -235t18 -293t-73.5 -294t-152.5 -235.5t-226.5 -156.5t-286.5 -57t-275 56.5t-195.5 156.5t-107.5 236t-18 294zM330 723q-15 -133 5 -244t74 -193.5t148 -128.5t221 -46
t230.5 46t175 128.5t115.5 193t59 244.5q20 179 -20.5 314.5t-149.5 215.5t-277 80t-294.5 -80.5t-196.5 -215.5t-90 -314zM700 1753q6 58 50.5 98.5t103.5 40.5t98 -41t33 -98q-4 -58 -49.5 -99.5t-104.5 -41.5t-97 41.5t-34 99.5zM1108 1753q6 58 50.5 98.5t103.5 40.5
q58 0 97 -41t34 -98q-4 -58 -49.5 -99.5t-104.5 -41.5q-60 0 -98 41t-33 100z" />
    <glyph glyph-name="multiply" unicode="&#xd7;" horiz-adv-x="1124" 
d="M334 893l237 -293l357 297l80 -96l-359 -299l240 -295l-96 -78l-238 293l-356 -297l-80 96l358 299l-239 295z" />
    <glyph glyph-name="Oslash" unicode="&#xd8;" horiz-adv-x="1607" 
d="M176 723q15 157 73.5 292.5t152 235.5t226 156.5t287.5 56.5q203 0 351 -98l155 201l103 -66l-166 -215q90 -101 129 -245.5t24 -317.5q-15 -158 -73.5 -294t-152.5 -235.5t-226.5 -156.5t-286.5 -57q-205 0 -348 98l-158 -203l-100 66l166 215q-92 101 -131.5 247
t-24.5 320zM330 723q-32 -291 90 -453l764 987q-109 76 -273 76q-168 0 -294.5 -80.5t-196.5 -215.5t-90 -314zM506 186q107 -75 272 -75q127 0 230.5 46t175 128.5t115.5 193t59 244.5q31 285 -88 451z" />
    <glyph glyph-name="Ugrave" unicode="&#xd9;" horiz-adv-x="1355" 
d="M127 580l170 864h152l-168 -864q-46 -236 38.5 -352.5t315.5 -116.5q211 0 313.5 98.5t145.5 314.5l180 920h151l-184 -946q-51 -259 -197.5 -388.5t-416.5 -129.5q-294 0 -426 152t-74 448zM606 1780l51 112l580 -159l-51 -113z" />
    <glyph glyph-name="Uacute" unicode="&#xda;" horiz-adv-x="1355" 
d="M127 580l170 864h152l-168 -864q-46 -236 38.5 -352.5t315.5 -116.5q211 0 313.5 98.5t145.5 314.5l180 920h151l-184 -946q-51 -259 -197.5 -388.5t-416.5 -129.5q-294 0 -426 152t-74 448zM596 1739l643 162l6 -127l-643 -160z" />
    <glyph glyph-name="Ucircumflex" unicode="&#xdb;" horiz-adv-x="1355" 
d="M127 580l170 864h152l-168 -864q-46 -236 38.5 -352.5t315.5 -116.5q211 0 313.5 98.5t145.5 314.5l180 920h151l-184 -946q-51 -259 -197.5 -388.5t-416.5 -129.5q-294 0 -426 152t-74 448zM584 1675l364 258l277 -270l-103 -84l-192 195l-268 -195z" />
    <glyph glyph-name="Udieresis" unicode="&#xdc;" horiz-adv-x="1355" 
d="M127 580l170 864h152l-168 -864q-46 -236 38.5 -352.5t315.5 -116.5q211 0 313.5 98.5t145.5 314.5l180 920h151l-184 -946q-51 -259 -197.5 -388.5t-416.5 -129.5q-294 0 -426 152t-74 448zM573 1753q6 58 50.5 98.5t103.5 40.5t98 -41t33 -98q-4 -58 -49 -99.5
t-104 -41.5t-97.5 41.5t-34.5 99.5zM981 1753q6 58 50.5 98.5t103.5 40.5q58 0 97 -41t34 -98q-4 -58 -49.5 -99.5t-104.5 -41.5q-60 0 -98 41t-33 100z" />
    <glyph glyph-name="Yacute" unicode="&#xdd;" horiz-adv-x="1335" 
d="M1282 1444h166l-604 -826h-78l-123 -618h-151l120 618h-77l-283 826h156l262 -785h45zM586 1739l643 162l6 -127l-643 -160z" />
    <glyph glyph-name="Thorn" unicode="&#xde;" horiz-adv-x="1255" 
d="M55 0l283 1444h151l-49 -252h207q146 0 248 -22.5t175.5 -75t102 -145.5t11.5 -228t-68 -228t-137 -145.5t-193.5 -75t-253.5 -22.5h-276l-49 -250h-152zM281 381h264q82 0 143.5 7.5t123 29t103 58.5t72.5 99t43 148q12 85 -1.5 146t-45 98t-87 58.5t-115.5 28.5t-142 7
h-225z" />
    <glyph glyph-name="germandbls" unicode="&#xdf;" horiz-adv-x="1101" 
d="M319 0l27 129l256 2q131 2 197 45t84 146q10 35 7.5 68t-7 56t-19 46.5t-28 39.5t-33.5 35l-76 66q-6 6 -24.5 22.5t-25.5 23.5t-21 22.5t-18.5 27t-10.5 28.5t-5.5 36t5.5 41q2 13 6 24.5t7.5 21t10.5 19.5t10.5 16t13.5 16t13.5 14t16 13.5t16 12t18 13.5t17.5 13
l75 56q73 54 89 133q20 104 -38.5 158.5t-170.5 54.5q-116 0 -186.5 -61.5t-96.5 -194.5l-223 -1143h-150l228 1169q70 361 428 361q86 0 157.5 -20.5t124 -60.5t74.5 -106.5t6 -152.5q-13 -66 -44 -112.5t-83 -84.5l-78 -55q-33 -24 -44 -32.5t-26.5 -29t-19.5 -42.5
q-5 -23 2.5 -44t16 -31.5t33 -32.5t32.5 -30l72 -67q18 -18 31 -33t29 -38t25 -47.5t16 -55.5t6 -69t-9 -81q-14 -72 -44 -126t-70 -88t-95 -54.5t-112.5 -28.5t-128.5 -8h-263z" />
    <glyph glyph-name="agrave" unicode="&#xe0;" horiz-adv-x="1208" 
d="M72 279q6 126 90 204.5t252 91.5l460 39q17 151 -51 224t-205 73q-121 0 -193.5 -60.5t-107.5 -193.5h-155q43 177 159 279t300 102q106 0 188.5 -33t135.5 -97t71.5 -158t-4.5 -215l-78 -406h149l-24 -129h-176q-55 0 -81 31t-14 86l7 39l57 123h-47q-21 -50 -43.5 -90
t-58 -80.5t-77.5 -67.5t-102.5 -44t-132.5 -17q-84 0 -146.5 21.5t-95.5 52.5t-52 74.5t-23 78.5t-2 72zM225 299q-13 -93 38 -143t155 -50q162 0 283 113t153 277l-414 -39q-103 -9 -154 -45t-61 -113zM426 1352l51 112l580 -159l-51 -113z" />
    <glyph glyph-name="aacute" unicode="&#xe1;" horiz-adv-x="1208" 
d="M72 279q6 126 90 204.5t252 91.5l460 39q17 151 -51 224t-205 73q-121 0 -193.5 -60.5t-107.5 -193.5h-155q43 177 159 279t300 102q106 0 188.5 -33t135.5 -97t71.5 -158t-4.5 -215l-78 -406h149l-24 -129h-176q-55 0 -81 31t-14 86l7 39l57 123h-47q-21 -50 -43.5 -90
t-58 -80.5t-77.5 -67.5t-102.5 -44t-132.5 -17q-84 0 -146.5 21.5t-95.5 52.5t-52 74.5t-23 78.5t-2 72zM225 299q-13 -93 38 -143t155 -50q162 0 283 113t153 277l-414 -39q-103 -9 -154 -45t-61 -113zM416 1311l643 162l6 -127l-643 -160z" />
    <glyph glyph-name="acircumflex" unicode="&#xe2;" horiz-adv-x="1208" 
d="M72 279q6 126 90 204.5t252 91.5l460 39q17 151 -51 224t-205 73q-121 0 -193.5 -60.5t-107.5 -193.5h-155q43 177 159 279t300 102q106 0 188.5 -33t135.5 -97t71.5 -158t-4.5 -215l-78 -406h149l-24 -129h-176q-55 0 -81 31t-14 86l7 39l57 123h-47q-21 -50 -43.5 -90
t-58 -80.5t-77.5 -67.5t-102.5 -44t-132.5 -17q-84 0 -146.5 21.5t-95.5 52.5t-52 74.5t-23 78.5t-2 72zM225 299q-13 -93 38 -143t155 -50q162 0 283 113t153 277l-414 -39q-103 -9 -154 -45t-61 -113zM403 1247l365 258l276 -270l-102 -84l-192 195l-269 -195z" />
    <glyph glyph-name="atilde" unicode="&#xe3;" horiz-adv-x="1208" 
d="M72 279q6 126 90 204.5t252 91.5l460 39q17 151 -51 224t-205 73q-121 0 -193.5 -60.5t-107.5 -193.5h-155q43 177 159 279t300 102q106 0 188.5 -33t135.5 -97t71.5 -158t-4.5 -215l-78 -406h149l-24 -129h-176q-55 0 -81 31t-14 86l7 39l57 123h-47q-21 -50 -43.5 -90
t-58 -80.5t-77.5 -67.5t-102.5 -44t-132.5 -17q-84 0 -146.5 21.5t-95.5 52.5t-52 74.5t-23 78.5t-2 72zM225 299q-13 -93 38 -143t155 -50q162 0 283 113t153 277l-414 -39q-103 -9 -154 -45t-61 -113zM358 1208q39 269 236 269q47 0 86 -17t64.5 -41t48 -48t46.5 -41
t48 -17q40 0 68 29.5t44 113.5h125q-39 -268 -233 -268q-47 0 -86.5 17t-65.5 41t-48.5 48t-46.5 41t-48 17q-40 0 -68 -30t-45 -114h-125z" />
    <glyph glyph-name="adieresis" unicode="&#xe4;" horiz-adv-x="1208" 
d="M72 279q6 126 90 204.5t252 91.5l460 39q17 151 -51 224t-205 73q-121 0 -193.5 -60.5t-107.5 -193.5h-155q43 177 159 279t300 102q106 0 188.5 -33t135.5 -97t71.5 -158t-4.5 -215l-78 -406h149l-24 -129h-176q-55 0 -81 31t-14 86l7 39l57 123h-47q-21 -50 -43.5 -90
t-58 -80.5t-77.5 -67.5t-102.5 -44t-132.5 -17q-84 0 -146.5 21.5t-95.5 52.5t-52 74.5t-23 78.5t-2 72zM225 299q-13 -93 38 -143t155 -50q162 0 283 113t153 277l-414 -39q-103 -9 -154 -45t-61 -113zM393 1325q6 58 50.5 98.5t103.5 40.5t98 -41t33 -98
q-4 -58 -49.5 -99.5t-104.5 -41.5t-97 41.5t-34 99.5zM801 1325q6 58 50 98.5t103 40.5q58 0 97 -41t34 -98q-4 -58 -49 -99.5t-104 -41.5q-60 0 -98 41t-33 100z" />
    <glyph glyph-name="aring" unicode="&#xe5;" horiz-adv-x="1208" 
d="M72 279q6 126 90 204.5t252 91.5l460 39q17 151 -51 224t-205 73q-121 0 -193.5 -60.5t-107.5 -193.5h-155q43 177 159 279t300 102q106 0 188.5 -33t135.5 -97t71.5 -158t-4.5 -215l-78 -406h149l-24 -129h-176q-55 0 -81 31t-14 86l7 39l57 123h-47q-21 -50 -43.5 -90
t-58 -80.5t-77.5 -67.5t-102.5 -44t-132.5 -17q-84 0 -146.5 21.5t-95.5 52.5t-52 74.5t-23 78.5t-2 72zM225 299q-13 -93 38 -143t155 -50q162 0 283 113t153 277l-414 -39q-103 -9 -154 -45t-61 -113zM444 1366q0 90 62.5 154.5t171.5 64.5t172 -64.5t63 -154.5
q0 -89 -63.5 -154t-171.5 -65q-109 0 -171.5 64.5t-62.5 154.5zM567 1366q0 -46 29 -73t82 -27q54 0 82 26.5t28 73.5q0 45 -28.5 71.5t-81.5 26.5t-82 -26.5t-29 -71.5z" />
    <glyph glyph-name="ae" unicode="&#xe6;" horiz-adv-x="1949" 
d="M72 283q16 266 342 292l460 39q17 151 -51 224t-205 73q-122 0 -196 -60.5t-109 -193.5h-151q43 177 159 279t300 102q131 0 225.5 -50.5t140.5 -145.5q147 194 416 194q221 0 336 -130.5t90 -362.5l-8 -62h-815q-10 -110 15.5 -193t95.5 -133.5t179 -50.5
q136 0 229.5 66.5t137.5 183.5h147q-25 -73 -64 -135t-100 -118.5t-152 -88.5t-202 -32q-167 0 -270.5 79t-140.5 215h-39q-29 -62 -63.5 -110t-86.5 -92t-126 -68t-167 -24q-87 0 -151 22t-98 53.5t-53 75.5t-23 79t-2 73zM225 301q-14 -96 39 -145.5t154 -49.5
q162 0 283 113t153 277l-414 -39q-102 -9 -152.5 -44t-62.5 -112zM1024 600h666q4 148 -74.5 229.5t-222.5 81.5q-136 0 -237.5 -83t-131.5 -228z" />
    <glyph glyph-name="ccedilla" unicode="&#xe7;" horiz-adv-x="1206" 
d="M121 557q38 207 184 344t357 137q120 0 219.5 -44t164 -137.5t64.5 -221.5h-154q-1 133 -83 202.5t-211 69.5q-159 0 -261 -101.5t-133 -260.5q-12 -70 -10 -134.5t26 -120.5t62.5 -97.5t100 -65t139.5 -23.5q123 0 206.5 64.5t127.5 212.5h151q-22 -109 -75.5 -190.5
t-125 -127t-147.5 -67t-156 -21.5h-20l-92 -79q56 18 106 18q55 0 90 -28.5t29 -84.5q-3 -39 -18.5 -68t-45 -48t-64.5 -31t-88 -18.5t-104 -8.5t-124 -2l26 121q85 0 123.5 1t85 7t64.5 20t20 38q6 43 -43 43q-29 0 -58.5 -10.5t-84.5 -43.5l-50 93l105 100
q-171 51 -258 203.5t-45 359.5z" />
    <glyph glyph-name="egrave" unicode="&#xe8;" horiz-adv-x="1200" 
d="M1085 1305l-51 -113l-579 160l51 112zM117 522q29 243 173.5 378.5t362.5 135.5q221 0 336 -130.5t90 -362.5l-8 -62h-815q-10 -110 16 -193t96 -133.5t179 -50.5q136 0 229 66t137 184h148q-25 -73 -64 -135t-100 -118.5t-152 -88.5t-202 -32q-120 0 -210 42.5
t-140.5 117.5t-69.5 172t-6 210zM274 600h666q4 148 -74.5 229.5t-222.5 81.5q-136 0 -237.5 -83t-131.5 -228z" />
    <glyph glyph-name="eacute" unicode="&#xe9;" horiz-adv-x="1200" 
d="M451 1186l-7 125l643 162l7 -127zM117 522q29 243 173.5 378.5t362.5 135.5q221 0 336 -130.5t90 -362.5l-8 -62h-815q-10 -110 16 -193t96 -133.5t179 -50.5q136 0 229 66t137 184h148q-25 -73 -64 -135t-100 -118.5t-152 -88.5t-202 -32q-120 0 -210 42.5t-140.5 117.5
t-69.5 172t-6 210zM274 600h666q4 148 -74.5 229.5t-222.5 81.5q-136 0 -237.5 -83t-131.5 -228z" />
    <glyph glyph-name="ecircumflex" unicode="&#xea;" horiz-adv-x="1200" 
d="M1073 1235l-102 -84l-193 195l-268 -195l-78 96l365 258zM117 522q29 243 173.5 378.5t362.5 135.5q221 0 336 -130.5t90 -362.5l-8 -62h-815q-10 -110 16 -193t96 -133.5t179 -50.5q136 0 229 66t137 184h148q-25 -73 -64 -135t-100 -118.5t-152 -88.5t-202 -32
q-120 0 -210 42.5t-140.5 117.5t-69.5 172t-6 210zM274 600h666q4 148 -74.5 229.5t-222.5 81.5q-136 0 -237.5 -83t-131.5 -228z" />
    <glyph glyph-name="edieresis" unicode="&#xeb;" horiz-adv-x="1200" 
d="M553 1184q-59 0 -97 41.5t-34 99.5q6 58 50 98.5t103 40.5t98.5 -41t33.5 -98q-4 -58 -49.5 -99.5t-104.5 -41.5zM117 522q29 243 173.5 378.5t362.5 135.5q221 0 336 -130.5t90 -362.5l-8 -62h-815q-10 -110 16 -193t96 -133.5t179 -50.5q136 0 229 66t137 184h148
q-25 -73 -64 -135t-100 -118.5t-152 -88.5t-202 -32q-120 0 -210 42.5t-140.5 117.5t-69.5 172t-6 210zM274 600h666q4 148 -74.5 229.5t-222.5 81.5q-136 0 -237.5 -83t-131.5 -228zM829 1325q6 58 50.5 98.5t103.5 40.5q58 0 97 -41t34 -98q-4 -58 -49 -99.5t-104 -41.5
q-60 0 -98.5 41t-33.5 100z" />
    <glyph glyph-name="igrave" unicode="&#xec;" horiz-adv-x="886" 
d="M14 0l25 129h280l148 758h-203l25 129h237q53 0 73.5 -26.5t10.5 -84.5l-149 -776h282l-24 -129h-705zM289 1352l51 112l580 -159l-52 -113z" />
    <glyph glyph-name="iacute" unicode="&#xed;" horiz-adv-x="886" 
d="M14 0l25 129h280l148 758h-203l25 129h237q53 0 73.5 -26.5t10.5 -84.5l-149 -776h282l-24 -129h-705zM276 1311l644 162l6 -127l-643 -160z" />
    <glyph glyph-name="icircumflex" unicode="&#xee;" horiz-adv-x="890" 
d="M16 0l25 129h281l147 758h-203l25 129h237q53 0 73.5 -26.5t10.5 -84.5l-149 -776h282l-24 -129h-705zM266 1247l365 258l276 -270l-102 -84l-193 195l-268 -195z" />
    <glyph glyph-name="idieresis" unicode="&#xef;" horiz-adv-x="892" 
d="M18 0l25 129h281l147 758h-203l25 129h237q53 0 73.5 -26.5t10.5 -84.5l-149 -776h283l-25 -129h-705zM256 1325q6 58 50.5 98.5t103.5 40.5t98 -41t33 -98q-4 -58 -49.5 -99.5t-104.5 -41.5t-97 41.5t-34 99.5zM664 1325q6 58 50 98.5t103 40.5q58 0 97 -41t34 -98
q-4 -58 -49 -99.5t-104 -41.5q-60 0 -98 41t-33 100z" />
    <glyph glyph-name="eth" unicode="&#xf0;" horiz-adv-x="1323" 
d="M616 -20q-119 0 -221 44t-172 121t-98 193t0 250q42 205 181.5 326.5t348.5 121.5q185 0 310.5 -95.5t156.5 -262.5h29l-18 84q-4 142 -72.5 261.5t-190.5 207.5l-254 -119l-65 98l197 93q-117 56 -275 81l23 129q233 -30 407 -139l291 135l66 -98l-250 -117
q139 -125 197.5 -306t19.5 -406q-47 -279 -211.5 -440.5t-399.5 -161.5zM272 571q-22 -113 -2.5 -199t73 -144t127 -87.5t159.5 -29.5q161 0 271.5 97.5t143.5 250.5q27 127 -13.5 230t-134.5 159.5t-222 56.5q-159 0 -263.5 -87t-138.5 -247z" />
    <glyph glyph-name="ntilde" unicode="&#xf1;" horiz-adv-x="1218" 
d="M53 0l197 1016h151l-28 -144l-49 -110h49q55 126 159 198t242 72q194 0 281 -120t47 -332l-113 -580h-151l112 582q33 166 -27.5 245.5t-211.5 79.5q-153 0 -265 -117t-149 -309l-92 -481h-152zM438 1208q39 269 236 269q47 0 86 -17t64.5 -41t48 -48t46.5 -41t48 -17
q40 0 68 29.5t44 113.5h125q-39 -268 -233 -268q-47 0 -86.5 17t-65.5 41t-48.5 48t-46.5 41t-48 17q-40 0 -68 -30t-45 -114h-125z" />
    <glyph glyph-name="ograve" unicode="&#xf2;" horiz-adv-x="1296" 
d="M117 508q6 109 49.5 205.5t115.5 168t175.5 113t222.5 41.5t217 -41.5t161.5 -113t96 -168t25.5 -205.5q-8 -146 -79.5 -265.5t-198 -191t-284.5 -71.5q-159 0 -277.5 71.5t-175.5 191t-48 265.5zM268 508q-11 -169 84 -284t275 -115q178 0 285 114.5t116 284.5
t-84.5 284.5t-271.5 114.5q-121 0 -212 -55.5t-138.5 -144.5t-53.5 -199zM494 1352l51 112l579 -159l-51 -113z" />
    <glyph glyph-name="oacute" unicode="&#xf3;" horiz-adv-x="1296" 
d="M117 508q6 109 49.5 205.5t115.5 168t175.5 113t222.5 41.5t217 -41.5t161.5 -113t96 -168t25.5 -205.5q-8 -146 -79.5 -265.5t-198 -191t-284.5 -71.5q-159 0 -277.5 71.5t-175.5 191t-48 265.5zM268 508q-11 -169 84 -284t275 -115q178 0 285 114.5t116 284.5
t-84.5 284.5t-271.5 114.5q-121 0 -212 -55.5t-138.5 -144.5t-53.5 -199zM483 1311l643 162l7 -127l-644 -160z" />
    <glyph glyph-name="ocircumflex" unicode="&#xf4;" horiz-adv-x="1296" 
d="M117 508q6 109 49.5 205.5t115.5 168t175.5 113t222.5 41.5t217 -41.5t161.5 -113t96 -168t25.5 -205.5q-8 -146 -79.5 -265.5t-198 -191t-284.5 -71.5q-159 0 -277.5 71.5t-175.5 191t-48 265.5zM268 508q-11 -169 84 -284t275 -115q178 0 285 114.5t116 284.5
t-84.5 284.5t-271.5 114.5q-121 0 -212 -55.5t-138.5 -144.5t-53.5 -199zM471 1247l365 258l276 -270l-102 -84l-193 195l-268 -195z" />
    <glyph glyph-name="otilde" unicode="&#xf5;" horiz-adv-x="1296" 
d="M117 508q6 109 49.5 205.5t115.5 168t175.5 113t222.5 41.5t217 -41.5t161.5 -113t96 -168t25.5 -205.5q-8 -146 -79.5 -265.5t-198 -191t-284.5 -71.5q-159 0 -277.5 71.5t-175.5 191t-48 265.5zM268 508q-11 -169 84 -284t275 -115q178 0 285 114.5t116 284.5
t-84.5 284.5t-271.5 114.5q-121 0 -212 -55.5t-138.5 -144.5t-53.5 -199zM426 1208q39 269 236 269q47 0 85.5 -17t64.5 -41t48 -48t46 -41t48 -17q40 0 68.5 29.5t44.5 113.5h125q-39 -268 -234 -268q-47 0 -86.5 17t-65.5 41t-48 48t-46 41t-48 17q-40 0 -68 -30t-45 -114
h-125z" />
    <glyph glyph-name="odieresis" unicode="&#xf6;" horiz-adv-x="1296" 
d="M117 508q6 109 49.5 205.5t115.5 168t175.5 113t222.5 41.5t217 -41.5t161.5 -113t96 -168t25.5 -205.5q-8 -146 -79.5 -265.5t-198 -191t-284.5 -71.5q-159 0 -277.5 71.5t-175.5 191t-48 265.5zM268 508q-11 -169 84 -284t275 -115q178 0 285 114.5t116 284.5
t-84.5 284.5t-271.5 114.5q-121 0 -212 -55.5t-138.5 -144.5t-53.5 -199zM461 1325q6 58 50 98.5t103 40.5t98 -41t33 -98q-4 -58 -49 -99.5t-104 -41.5t-97 41.5t-34 99.5zM868 1325q6 58 50.5 98.5t103.5 40.5q58 0 97 -41t34 -98q-4 -58 -49.5 -99.5t-104.5 -41.5
q-60 0 -98 41t-33 100z" />
    <glyph glyph-name="divide" unicode="&#xf7;" horiz-adv-x="1312" 
d="M188 575h963l-23 -126h-964zM420 137q3 69 53 116.5t119 47.5q68 0 114.5 -47.5t43.5 -116.5q-4 -69 -56 -116.5t-121 -47.5t-112.5 47.5t-40.5 116.5zM565 881q3 67 53 114t119 47q68 0 114.5 -47t43.5 -114q-4 -70 -55.5 -118t-120.5 -48t-113 47.5t-41 118.5z" />
    <glyph glyph-name="oslash" unicode="&#xf8;" horiz-adv-x="1296" 
d="M117 508q6 109 49.5 205.5t115.5 168t175.5 113t222.5 41.5q145 0 254 -59l115 149l106 -67l-119 -154q76 -74 113.5 -177t30.5 -220q-8 -146 -79.5 -265.5t-198 -191t-284.5 -71.5q-144 0 -253 59l-117 -152l-105 68l119 156q-77 72 -114.5 175.5t-30.5 221.5zM268 508
q-13 -172 84 -285l496 645q-76 39 -176 39q-121 0 -212 -55.5t-138.5 -144.5t-53.5 -199zM449 147q74 -38 178 -38q178 0 285 114.5t116 284.5q9 172 -82 280z" />
    <glyph glyph-name="ugrave" unicode="&#xf9;" horiz-adv-x="1218" 
d="M444 -16q-194 0 -280 120t-45 332l110 580h152l-113 -582q-33 -166 27.5 -245.5t212.5 -79.5q153 0 265 117t149 309l92 481h151l-196 -1016h-152l29 141l49 113h-49q-55 -127 -158.5 -198.5t-243.5 -71.5zM463 1352l51 112l580 -159l-52 -113z" />
    <glyph glyph-name="uacute" unicode="&#xfa;" horiz-adv-x="1218" 
d="M444 -16q-194 0 -280 120t-45 332l110 580h152l-113 -582q-33 -166 27.5 -245.5t212.5 -79.5q153 0 265 117t149 309l92 481h151l-196 -1016h-152l29 141l49 113h-49q-55 -127 -158.5 -198.5t-243.5 -71.5zM451 1311l643 162l6 -127l-643 -160z" />
    <glyph glyph-name="ucircumflex" unicode="&#xfb;" horiz-adv-x="1218" 
d="M444 -16q-194 0 -280 120t-45 332l110 580h152l-113 -582q-33 -166 27.5 -245.5t212.5 -79.5q153 0 265 117t149 309l92 481h151l-196 -1016h-152l29 141l49 113h-49q-55 -127 -158.5 -198.5t-243.5 -71.5zM438 1247l365 258l276 -270l-102 -84l-193 195l-268 -195z" />
    <glyph glyph-name="udieresis" unicode="&#xfc;" horiz-adv-x="1218" 
d="M444 -16q-194 0 -280 120t-45 332l110 580h152l-113 -582q-33 -166 27.5 -245.5t212.5 -79.5q153 0 265 117t149 309l92 481h151l-196 -1016h-152l29 141l49 113h-49q-55 -127 -158.5 -198.5t-243.5 -71.5zM430 1325q6 58 50.5 98.5t103.5 40.5t98 -41t33 -98
q-4 -58 -49.5 -99.5t-104.5 -41.5t-97 41.5t-34 99.5zM838 1325q6 58 50 98.5t103 40.5q58 0 97 -41t34 -98q-4 -58 -49 -99.5t-104 -41.5q-60 0 -98 41t-33 100z" />
    <glyph glyph-name="yacute" unicode="&#xfd;" horiz-adv-x="1200" 
d="M1167 1016l-196 -1016h2l-53 -274q-25 -119 -158 -119h-758l25 129h741l51 264h-2l29 143l49 111h-49q-55 -126 -159.5 -198t-242.5 -72q-193 0 -280 120t-47 332l112 580h152l-113 -582q-33 -166 27.5 -245.5t212.5 -79.5q153 0 265 117t149 309l92 481h151zM354 1311
l643 162l7 -127l-644 -160z" />
    <glyph glyph-name="thorn" unicode="&#xfe;" horiz-adv-x="1337" 
d="M-23 -393l275 1409l94 489h150l-93 -489l-22 -113l-45 -110h47q50 111 153 179t248 68q151 0 262 -73.5t158 -207t15 -300.5q-42 -213 -185.5 -345t-343.5 -132q-163 0 -277 86t-124 241h-43l2 -104l-119 -598h-152zM315 555q-21 -111 0 -198.5t74.5 -139t125 -78
t155.5 -26.5q158 0 262 91t137 271q40 212 -55 325t-281 113q-167 0 -276.5 -92.5t-141.5 -265.5z" />
    <glyph glyph-name="ydieresis" unicode="&#xff;" horiz-adv-x="1200" 
d="M1167 1016l-196 -1016h2l-53 -274q-25 -119 -158 -119h-758l25 129h741l51 264h-2l29 143l49 111h-49q-55 -126 -159.5 -198t-242.5 -72q-193 0 -280 120t-47 332l112 580h152l-113 -582q-33 -166 27.5 -245.5t212.5 -79.5q153 0 265 117t149 309l92 481h151zM332 1325
q6 58 50 98.5t103 40.5t98 -41t33 -98q-4 -58 -49 -99.5t-104 -41.5t-97 41.5t-34 99.5zM739 1325q6 58 50.5 98.5t103.5 40.5q58 0 97 -41t34 -98q-4 -58 -49.5 -99.5t-104.5 -41.5q-60 0 -98 41t-33 100z" />
    <glyph glyph-name="Amacron" unicode="&#x100;" horiz-adv-x="1394" 
d="M-35 0l752 1444h330l186 -1444h-154l-73 575h-580l-299 -575h-162zM494 705h495l-90 694h-45zM563 1694v127h639v-125z" />
    <glyph glyph-name="amacron" unicode="&#x101;" horiz-adv-x="1208" 
d="M72 279q6 126 90 204.5t252 91.5l460 39q17 151 -51 224t-205 73q-121 0 -193.5 -60.5t-107.5 -193.5h-155q43 177 159 279t300 102q106 0 188.5 -33t135.5 -97t71.5 -158t-4.5 -215l-78 -406h149l-24 -129h-176q-55 0 -81 31t-14 86l7 39l57 123h-47q-21 -50 -43.5 -90
t-58 -80.5t-77.5 -67.5t-102.5 -44t-132.5 -17q-84 0 -146.5 21.5t-95.5 52.5t-52 74.5t-23 78.5t-2 72zM225 299q-13 -93 38 -143t155 -50q162 0 283 113t153 277l-414 -39q-103 -9 -154 -45t-61 -113zM360 1266v127h639v-125z" />
    <glyph glyph-name="Abreve" unicode="&#x102;" horiz-adv-x="1394" 
d="M-35 0l752 1444h330l186 -1444h-154l-73 575h-580l-299 -575h-162zM494 705h495l-90 694h-45zM662 1929h126q-24 -118 26 -171.5t144 -53.5q93 0 138.5 54t66.5 171h125q-22 -162 -115.5 -256t-230.5 -94q-145 0 -222.5 96.5t-57.5 253.5z" />
    <glyph glyph-name="abreve" unicode="&#x103;" horiz-adv-x="1208" 
d="M72 279q6 126 90 204.5t252 91.5l460 39q17 151 -51 224t-205 73q-121 0 -193.5 -60.5t-107.5 -193.5h-155q43 177 159 279t300 102q106 0 188.5 -33t135.5 -97t71.5 -158t-4.5 -215l-78 -406h149l-24 -129h-176q-55 0 -81 31t-14 86l7 39l57 123h-47q-21 -50 -43.5 -90
t-58 -80.5t-77.5 -67.5t-102.5 -44t-132.5 -17q-84 0 -146.5 21.5t-95.5 52.5t-52 74.5t-23 78.5t-2 72zM225 299q-13 -93 38 -143t155 -50q162 0 283 113t153 277l-414 -39q-103 -9 -154 -45t-61 -113zM461 1501h127q-24 -118 26 -171.5t144 -53.5q93 0 138.5 54t66.5 171
h124q-22 -162 -115.5 -256t-230.5 -94q-145 0 -222.5 96.5t-57.5 253.5z" />
    <glyph glyph-name="Aogonek" unicode="&#x104;" horiz-adv-x="1394" 
d="M-35 0l752 1444h330l186 -1444h-8l-191 -266l391 2l-24 -127h-408q-76 0 -97 47.5t26 112.5l165 231h-8l-73 575h-580l-299 -575h-162zM494 705h495l-90 694h-45z" />
    <glyph glyph-name="aogonek" unicode="&#x105;" horiz-adv-x="1208" 
d="M72 279q6 126 90 204.5t252 91.5l460 39q17 151 -51 224t-205 73q-121 0 -193.5 -60.5t-107.5 -193.5h-155q43 177 159 279t300 102q106 0 188.5 -33t135.5 -97t71.5 -158t-4.5 -215l-78 -406h149l-26 -129l-191 -266l391 2l-24 -127h-408q-76 0 -97 47.5t26 112.5
l166 231h-37q-55 0 -81 31t-14 86l7 39l57 123h-47q-21 -50 -43.5 -90t-58 -80.5t-77.5 -67.5t-102.5 -44t-132.5 -17q-84 0 -146.5 21.5t-95.5 52.5t-52 74.5t-23 78.5t-2 72zM225 299q-13 -93 38 -143t155 -50q162 0 283 113t153 277l-414 -39q-103 -9 -154 -45t-61 -113z
" />
    <glyph glyph-name="Cacute" unicode="&#x106;" horiz-adv-x="1589" 
d="M758 -20q-207 0 -349.5 98t-201.5 265.5t-33 379.5q25 211 122.5 378t262.5 265t371 98q273 0 426 -154t155 -423h-153q2 214 -110.5 330t-327.5 116q-251 0 -404.5 -168t-187.5 -442q-23 -180 16.5 -316t147.5 -216t276 -80q216 0 356.5 116.5t192.5 331.5h153
q-63 -270 -251.5 -424.5t-460.5 -154.5zM713 1739l643 162l6 -127l-643 -160z" />
    <glyph glyph-name="cacute" unicode="&#x107;" horiz-adv-x="1206" 
d="M121 557q38 207 184 344t357 137q120 0 219.5 -44t164 -137.5t64.5 -221.5h-154q-1 133 -83 202.5t-211 69.5q-159 0 -261 -101.5t-133 -260.5q-12 -70 -10 -134.5t26 -120.5t62.5 -97.5t100 -65t139.5 -23.5q123 0 206.5 64.5t127.5 212.5h151q-22 -109 -75.5 -190.5
t-125 -127t-147.5 -67t-156 -21.5q-113 0 -207.5 43t-155 120.5t-85.5 184.5t2 234zM459 1309l643 161l6 -127l-643 -159z" />
    <glyph glyph-name="Ccircumflex" unicode="&#x108;" horiz-adv-x="1589" 
d="M758 -20q-207 0 -349.5 98t-201.5 265.5t-33 379.5q25 211 122.5 378t262.5 265t371 98q273 0 426 -154t155 -423h-153q2 214 -110.5 330t-327.5 116q-251 0 -404.5 -168t-187.5 -442q-23 -180 16.5 -316t147.5 -216t276 -80q216 0 356.5 116.5t192.5 331.5h153
q-63 -270 -251.5 -424.5t-460.5 -154.5zM700 1675l365 258l276 -270l-102 -84l-192 195l-269 -195z" />
    <glyph glyph-name="ccircumflex" unicode="&#x109;" horiz-adv-x="1206" 
d="M121 557q38 207 184 344t357 137q120 0 219.5 -44t164 -137.5t64.5 -221.5h-154q-1 133 -83 202.5t-211 69.5q-159 0 -261 -101.5t-133 -260.5q-12 -70 -10 -134.5t26 -120.5t62.5 -97.5t100 -65t139.5 -23.5q123 0 206.5 64.5t127.5 212.5h151q-22 -109 -75.5 -190.5
t-125 -127t-147.5 -67t-156 -21.5q-113 0 -207.5 43t-155 120.5t-85.5 184.5t2 234zM446 1245l365 258l276 -270l-102 -84l-192 194l-269 -194z" />
    <glyph glyph-name="Cdotaccent" unicode="&#x10a;" horiz-adv-x="1589" 
d="M758 -20q-207 0 -349.5 98t-201.5 265.5t-33 379.5q25 211 122.5 378t262.5 265t371 98q273 0 426 -154t155 -423h-153q2 214 -110.5 330t-327.5 116q-251 0 -404.5 -168t-187.5 -442q-23 -180 16.5 -316t147.5 -216t276 -80q216 0 356.5 116.5t192.5 331.5h153
q-63 -270 -251.5 -424.5t-460.5 -154.5zM903 1763q6 54 49.5 92.5t98.5 38.5t90.5 -38.5t29.5 -92.5q-4 -55 -47.5 -94t-99.5 -39q-55 0 -90.5 38.5t-30.5 94.5z" />
    <glyph glyph-name="cdotaccent" unicode="&#x10b;" horiz-adv-x="1206" 
d="M121 557q38 207 184 344t357 137q120 0 219.5 -44t164 -137.5t64.5 -221.5h-154q-1 133 -83 202.5t-211 69.5q-159 0 -261 -101.5t-133 -260.5q-12 -70 -10 -134.5t26 -120.5t62.5 -97.5t100 -65t139.5 -23.5q123 0 206.5 64.5t127.5 212.5h151q-22 -109 -75.5 -190.5
t-125 -127t-147.5 -67t-156 -21.5q-113 0 -207.5 43t-155 120.5t-85.5 184.5t2 234zM649 1333q6 54 49.5 92.5t98.5 38.5q56 0 91.5 -38.5t29.5 -92.5q-4 -55 -48 -94t-100 -39q-55 0 -90.5 38.5t-30.5 94.5z" />
    <glyph glyph-name="Ccaron" unicode="&#x10c;" horiz-adv-x="1589" 
d="M758 -20q-207 0 -349.5 98t-201.5 265.5t-33 379.5q25 211 122.5 378t262.5 265t371 98q273 0 426 -154t155 -423h-153q2 214 -110.5 330t-327.5 116q-251 0 -404.5 -168t-187.5 -442q-23 -180 16.5 -316t147.5 -216t276 -80q216 0 356.5 116.5t192.5 331.5h153
q-63 -270 -251.5 -424.5t-460.5 -154.5zM735 1851l101 82l194 -192l266 192l78 -94l-362 -258z" />
    <glyph glyph-name="ccaron" unicode="&#x10d;" horiz-adv-x="1206" 
d="M121 557q38 207 184 344t357 137q120 0 219.5 -44t164 -137.5t64.5 -221.5h-154q-1 133 -83 202.5t-211 69.5q-159 0 -261 -101.5t-133 -260.5q-12 -70 -10 -134.5t26 -120.5t62.5 -97.5t100 -65t139.5 -23.5q123 0 206.5 64.5t127.5 212.5h151q-22 -109 -75.5 -190.5
t-125 -127t-147.5 -67t-156 -21.5q-113 0 -207.5 43t-155 120.5t-85.5 184.5t2 234zM481 1421l101 82l194 -192l266 192l78 -94l-362 -258z" />
    <glyph glyph-name="Dcaron" unicode="&#x10e;" horiz-adv-x="1454" 
d="M55 0l283 1444h151l-282 -1444h-152zM207 0l26 131h328q63 0 113 4t113.5 18t112.5 38.5t101.5 69t91 105.5t70 152t47.5 205q19 91 13 164t-12 130t-33 101t-51 75.5t-65 53t-76 34.5t-83 20t-86 9.5t-86 2.5h-266l24 131h252q70 0 130 -5.5t125.5 -20t116 -39
t101.5 -63t81 -92.5t55.5 -126.5t24.5 -165.5t-11 -209q-17 -130 -53 -236t-82.5 -180t-109.5 -130t-127 -89t-142 -53.5t-148 -27.5t-151 -7h-344zM551 1851l100 82l195 -192l266 192l78 -94l-363 -258z" />
    <glyph glyph-name="dcaron" unicode="&#x10f;" horiz-adv-x="1658" 
d="M555 -25q-232 0 -357.5 164.5t-76.5 415.5q42 215 185 347t343 132q162 0 277 -86.5t125 -242.5h43l-2 106l139 694h149l-293 -1505h-151l20 113l48 110h-48q-50 -112 -153.5 -180t-247.5 -68zM270 541q-40 -212 55 -325.5t281 -113.5q166 0 276 93t142 266
q19 116 0 199.5t-73.5 137.5t-125.5 79.5t-155 25.5q-159 0 -263 -91t-137 -271zM1438 999l98 506h143l-96 -506h-145z" />
    <glyph glyph-name="Dcroat" unicode="&#x110;" horiz-adv-x="1466" 
d="M66 0l129 657h-181l23 125h182l129 662h152l-129 -662h368l-22 -125h-371l-129 -657h-151zM217 0l27 131h327q63 0 113 4t113.5 18t113 38.5t102 69t91 105.5t70 152t47.5 205q12 80 13 149t-8.5 122t-25 97t-41 75.5t-53 56t-64 40t-70.5 26t-76.5 15.5t-77 7t-77.5 2
h-266l25 131h252q70 0 130 -5.5t125.5 -20t116 -39t101 -63t80.5 -92.5t55.5 -126.5t24.5 -165.5t-11 -209q-17 -130 -53 -236t-82.5 -180t-109.5 -130t-127 -89t-142 -53.5t-148 -27.5t-151 -7h-344z" />
    <glyph glyph-name="dcroat" unicode="&#x111;" horiz-adv-x="1345" 
d="M555 -25q-232 0 -357.5 164.5t-76.5 415.5q42 215 185 347t343 132q162 0 277 -86.5t125 -242.5h43l-2 106l90 451h-305l22 124h307l25 119h149l-22 -119h100l-22 -124h-103l-246 -1262h-151l20 113l48 110h-48q-50 -112 -153.5 -180t-247.5 -68zM270 541
q-40 -212 55 -325.5t281 -113.5q166 0 276 93t142 266q19 116 0 199.5t-73.5 137.5t-125.5 79.5t-155 25.5q-159 0 -263 -91t-137 -271z" />
    <glyph glyph-name="Emacron" unicode="&#x112;" horiz-adv-x="1245" 
d="M55 0l283 1444h977l-25 -131h-825l-103 -525h723l-24 -129h-723l-105 -528h826l-27 -131h-977zM461 1694v127h639v-125z" />
    <glyph glyph-name="emacron" unicode="&#x113;" horiz-adv-x="1200" 
d="M389 1393h639v-125l-639 -2v127zM117 522q29 243 173.5 378.5t362.5 135.5q221 0 336 -130.5t90 -362.5l-8 -62h-815q-10 -110 16 -193t96 -133.5t179 -50.5q136 0 229 66t137 184h148q-25 -73 -64 -135t-100 -118.5t-152 -88.5t-202 -32q-120 0 -210 42.5t-140.5 117.5
t-69.5 172t-6 210zM274 600h666q4 148 -74.5 229.5t-222.5 81.5q-136 0 -237.5 -83t-131.5 -228z" />
    <glyph glyph-name="Edotaccent" unicode="&#x116;" horiz-adv-x="1245" 
d="M55 0l283 1444h977l-25 -131h-825l-103 -525h723l-24 -129h-723l-105 -528h826l-27 -131h-977zM707 1763q6 54 49 92.5t98 38.5q56 0 91.5 -38.5t29.5 -92.5q-4 -55 -48 -94t-100 -39q-55 0 -90 38.5t-30 94.5z" />
    <glyph glyph-name="edotaccent" unicode="&#x117;" horiz-adv-x="1200" 
d="M756 1202q-55 0 -90.5 38.5t-30.5 94.5q6 54 49 92.5t98 38.5q56 0 91.5 -38.5t29.5 -92.5q-4 -55 -47.5 -94t-99.5 -39zM117 522q29 243 173.5 378.5t362.5 135.5q221 0 336 -130.5t90 -362.5l-8 -62h-815q-10 -110 16 -193t96 -133.5t179 -50.5q136 0 229 66t137 184
h148q-25 -73 -64 -135t-100 -118.5t-152 -88.5t-202 -32q-120 0 -210 42.5t-140.5 117.5t-69.5 172t-6 210zM274 600h666q4 148 -74.5 229.5t-222.5 81.5q-136 0 -237.5 -83t-131.5 -228z" />
    <glyph glyph-name="Eogonek" unicode="&#x118;" horiz-adv-x="1245" 
d="M55 0l283 1444h977l-25 -131h-825l-103 -525h723l-24 -129h-723l-105 -528h826l-27 -131h-289l-190 -266l391 2l-24 -127h-408q-76 0 -97.5 47.5t25.5 112.5l166 231h-551z" />
    <glyph glyph-name="eogonek" unicode="&#x119;" horiz-adv-x="1200" 
d="M872 -264l-24 -127h-408q-76 0 -97 47.5t26 112.5l151 211q-114 4 -199.5 48t-133 118t-65.5 169.5t-5 206.5q29 243 173.5 378.5t362.5 135.5q221 0 336 -130.5t90 -362.5l-8 -62h-815q-10 -110 16 -193t96 -133.5t179 -50.5q136 0 229 66t137 184h148
q-21 -62 -53 -116.5t-78.5 -105.5t-114 -88.5t-149.5 -53.5l-185 -256zM274 600h666q4 148 -74.5 229.5t-222.5 81.5q-136 0 -237.5 -83t-131.5 -228z" />
    <glyph glyph-name="Ecaron" unicode="&#x11a;" horiz-adv-x="1245" 
d="M55 0l283 1444h977l-25 -131h-825l-103 -525h723l-24 -129h-723l-105 -528h826l-27 -131h-977zM537 1851l100 82l194 -192l267 192l78 -94l-363 -258z" />
    <glyph glyph-name="ecaron" unicode="&#x11b;" horiz-adv-x="1200" 
d="M467 1423l100 82l195 -192l266 192l78 -94l-363 -258zM117 522q29 243 173.5 378.5t362.5 135.5q221 0 336 -130.5t90 -362.5l-8 -62h-815q-10 -110 16 -193t96 -133.5t179 -50.5q136 0 229 66t137 184h148q-25 -73 -64 -135t-100 -118.5t-152 -88.5t-202 -32
q-120 0 -210 42.5t-140.5 117.5t-69.5 172t-6 210zM274 600h666q4 148 -74.5 229.5t-222.5 81.5q-136 0 -237.5 -83t-131.5 -228z" />
    <glyph glyph-name="Gcircumflex" unicode="&#x11c;" horiz-adv-x="1613" 
d="M743 -20q-161 0 -279.5 55.5t-186 155t-93.5 230.5t-10 288q23 226 118 395.5t258.5 264.5t375.5 95q258 0 406 -141.5t159 -394.5h-154q-5 195 -111.5 301t-301.5 106q-169 0 -297.5 -80t-203 -220.5t-95.5 -329.5q-14 -126 3 -230.5t67 -188t146.5 -130.5t233.5 -47
q243 0 373 134t176 406h-600l23 119h636q62 0 85 -25.5t12 -80.5l-127 -662h-156l21 98l118 260h-51q-11 -44 -31.5 -89t-64 -98.5t-101.5 -94.5t-148.5 -68.5t-199.5 -27.5zM707 1675l364 258l277 -270l-103 -84l-192 195l-269 -195z" />
    <glyph glyph-name="gcircumflex" unicode="&#x11d;" horiz-adv-x="1339" 
d="M555 -25q-232 0 -357.5 164.5t-76.5 415.5q42 215 185 347t343 132q162 0 277 -86.5t125 -242.5h43l-2 106l41 205h153l-199 -1016l-53 -274q-25 -119 -157 -119h-758l24 129h742l51 264l20 113l48 110h-48q-50 -112 -153.5 -180t-247.5 -68zM270 541q-40 -212 55 -325.5
t281 -113.5q166 0 276 93t142 266q19 116 0 199.5t-73.5 137.5t-125.5 79.5t-155 25.5q-159 0 -263 -91t-137 -271zM489 1247l365 258l276 -270l-102 -84l-192 195l-269 -195z" />
    <glyph glyph-name="Gbreve" unicode="&#x11e;" horiz-adv-x="1613" 
d="M743 -20q-161 0 -279.5 55.5t-186 155t-93.5 230.5t-10 288q23 226 118 395.5t258.5 264.5t375.5 95q258 0 406 -141.5t159 -394.5h-154q-5 195 -111.5 301t-301.5 106q-169 0 -297.5 -80t-203 -220.5t-95.5 -329.5q-14 -126 3 -230.5t67 -188t146.5 -130.5t233.5 -47
q243 0 373 134t176 406h-600l23 119h636q62 0 85 -25.5t12 -80.5l-127 -662h-156l21 98l118 260h-51q-11 -44 -31.5 -89t-64 -98.5t-101.5 -94.5t-148.5 -68.5t-199.5 -27.5zM764 1929h127q-24 -118 26 -171.5t144 -53.5q93 0 138.5 54t66.5 171h125q-22 -162 -116 -256
t-231 -94q-145 0 -222.5 96.5t-57.5 253.5z" />
    <glyph glyph-name="gbreve" unicode="&#x11f;" horiz-adv-x="1339" 
d="M555 -25q-232 0 -357.5 164.5t-76.5 415.5q42 215 185 347t343 132q162 0 277 -86.5t125 -242.5h43l-2 106l41 205h153l-199 -1016l-53 -274q-25 -119 -157 -119h-758l24 129h742l51 264l20 113l48 110h-48q-50 -112 -153.5 -180t-247.5 -68zM270 541q-40 -212 55 -325.5
t281 -113.5q166 0 276 93t142 266q19 116 0 199.5t-73.5 137.5t-125.5 79.5t-155 25.5q-159 0 -263 -91t-137 -271zM547 1501h127q-24 -118 26 -171.5t144 -53.5q93 0 138.5 54t66.5 171h125q-22 -162 -116 -256t-231 -94q-145 0 -222.5 96.5t-57.5 253.5z" />
    <glyph glyph-name="Gdotaccent" unicode="&#x120;" horiz-adv-x="1613" 
d="M743 -20q-161 0 -279.5 55.5t-186 155t-93.5 230.5t-10 288q23 226 118 395.5t258.5 264.5t375.5 95q258 0 406 -141.5t159 -394.5h-154q-5 195 -111.5 301t-301.5 106q-169 0 -297.5 -80t-203 -220.5t-95.5 -329.5q-14 -126 3 -230.5t67 -188t146.5 -130.5t233.5 -47
q243 0 373 134t176 406h-600l23 119h636q62 0 85 -25.5t12 -80.5l-127 -662h-156l21 98l118 260h-51q-11 -44 -31.5 -89t-64 -98.5t-101.5 -94.5t-148.5 -68.5t-199.5 -27.5zM911 1763q6 54 49.5 92.5t98.5 38.5q56 0 91.5 -38.5t29.5 -92.5q-4 -55 -48 -94t-100 -39
q-55 0 -90.5 38.5t-30.5 94.5z" />
    <glyph glyph-name="gdotaccent" unicode="&#x121;" horiz-adv-x="1339" 
d="M555 -25q-232 0 -357.5 164.5t-76.5 415.5q42 215 185 347t343 132q162 0 277 -86.5t125 -242.5h43l-2 106l41 205h153l-199 -1016l-53 -274q-25 -119 -157 -119h-758l24 129h742l51 264l20 113l48 110h-48q-50 -112 -153.5 -180t-247.5 -68zM270 541q-40 -212 55 -325.5
t281 -113.5q166 0 276 93t142 266q19 116 0 199.5t-73.5 137.5t-125.5 79.5t-155 25.5q-159 0 -263 -91t-137 -271zM692 1335q6 54 49.5 92.5t98.5 38.5q56 0 91.5 -38.5t29.5 -92.5q-4 -55 -48 -94t-100 -39q-55 0 -90.5 38.5t-30.5 94.5z" />
    <glyph glyph-name="uni0122" unicode="&#x122;" horiz-adv-x="1613" 
d="M743 -20q-161 0 -279.5 55.5t-186 155t-93.5 230.5t-10 288q23 226 118 395.5t258.5 264.5t375.5 95q258 0 406 -141.5t159 -394.5h-154q-5 195 -111.5 301t-301.5 106q-169 0 -297.5 -80t-203 -220.5t-95.5 -329.5q-14 -126 3 -230.5t67 -188t146.5 -130.5t233.5 -47
q243 0 373 134t176 406h-600l23 119h636q62 0 85 -25.5t12 -80.5l-127 -662h-156l21 98l118 260h-51q-11 -44 -31.5 -89t-64 -98.5t-101.5 -94.5t-148.5 -68.5t-199.5 -27.5zM391 -430l174 336l140 -45l-173 -336z" />
    <glyph glyph-name="uni0123" unicode="&#x123;" horiz-adv-x="1339" 
d="M555 -25q-232 0 -357.5 164.5t-76.5 415.5q42 215 185 347t343 132q162 0 277 -86.5t125 -242.5h43l-2 106l41 205h153l-199 -1016l-53 -274q-25 -119 -157 -119h-758l24 129h742l51 264l20 113l48 110h-48q-50 -112 -153.5 -180t-247.5 -68zM270 541q-40 -212 55 -325.5
t281 -113.5q166 0 276 93t142 266q19 116 0 199.5t-73.5 137.5t-125.5 79.5t-155 25.5q-159 0 -263 -91t-137 -271zM705 1221l100 364l141 -37l-100 -364z" />
    <glyph glyph-name="Hcircumflex" unicode="&#x124;" horiz-adv-x="1472" 
d="M338 1444h151l-131 -666h859l131 666h153l-282 -1444h-154l127 649h-858l-127 -649h-152zM643 1675l365 258l276 -270l-102 -84l-193 195l-268 -195z" />
    <glyph glyph-name="hcircumflex" unicode="&#x125;" horiz-adv-x="1220" 
d="M55 0l291 1505h152l-123 -633l-49 -110h49q55 126 159 198t242 72q194 0 281.5 -120t44.5 -332l-111 -580h-151l112 582q32 167 -28 246t-211 79q-153 0 -265 -117t-149 -309l-92 -481h-152zM143 1737l365 258l276 -271l-102 -84l-193 195l-268 -195z" />
    <glyph glyph-name="Hbar" unicode="&#x126;" horiz-adv-x="1478" 
d="M342 1444h152l-41 -207h858l41 207h153l-41 -207h123l-24 -125h-123l-217 -1112h-154l127 649h-858l-127 -649h-152l217 1112h-124l22 125h127zM362 778h859l65 334h-858z" />
    <glyph glyph-name="hbar" unicode="&#x127;" horiz-adv-x="1226" 
d="M61 0l244 1262h-112l22 124h115l22 119h152l-23 -119h293l-22 -124h-295l-76 -390l-49 -110h49q55 126 159 198t242 72q194 0 281.5 -120t44.5 -332l-111 -580h-151l112 582q32 167 -28 246t-211 79q-153 0 -265 -117t-149 -309l-92 -481h-152z" />
    <glyph glyph-name="Itilde" unicode="&#x128;" horiz-adv-x="1062" 
d="M315 1444h797l-25 -131h-323l-229 -1182h321l-27 -131h-796l26 131h324l229 1182h-321zM393 1636q39 269 236 269q47 0 86 -17t64.5 -41t48 -48t46.5 -41t48 -17q40 0 68 29.5t44 113.5h125q-39 -268 -233 -268q-47 0 -86.5 17t-65.5 41t-48.5 48t-46.5 41t-48 17
q-40 0 -68 -30t-45 -114h-125z" />
    <glyph glyph-name="itilde" unicode="&#x129;" horiz-adv-x="886" 
d="M14 0l25 129h280l148 758h-203l25 129h237q53 0 73.5 -26.5t10.5 -84.5l-149 -776h282l-24 -129h-705zM221 1208q39 269 236 269q47 0 86 -17t64.5 -41t48 -48t46.5 -41t48 -17q40 0 68 29.5t44 113.5h125q-39 -268 -233 -268q-47 0 -86.5 17t-65.5 41t-48.5 48t-46.5 41
t-48 17q-40 0 -68 -30t-45 -114h-125z" />
    <glyph glyph-name="Imacron" unicode="&#x12a;" horiz-adv-x="1062" 
d="M315 1444h797l-25 -131h-323l-229 -1182h321l-27 -131h-796l26 131h324l229 1182h-321zM395 1694v127h639v-125z" />
    <glyph glyph-name="imacron" unicode="&#x12b;" horiz-adv-x="894" 
d="M16 0l25 129h281l147 758h-203l25 129h237q53 0 73.5 -26.5t10.5 -84.5l-149 -776h282l-24 -129h-705zM231 1266v127h639v-125z" />
    <glyph glyph-name="Iogonek" unicode="&#x12e;" horiz-adv-x="1062" 
d="M315 1444h797l-25 -131h-323l-229 -1182h321l-27 -131h-325l-191 -266l392 2l-25 -127h-408q-76 0 -97 47.5t26 112.5l166 231h-334l26 131h324l229 1182h-321z" />
    <glyph glyph-name="iogonek" unicode="&#x12f;" horiz-adv-x="886" 
d="M14 0l25 129h280l148 758h-203l25 129h237q53 0 73.5 -26.5t10.5 -84.5l-149 -776h282l-24 -129h-268l-191 -266l391 2l-24 -127h-408q-76 0 -97.5 47.5t25.5 112.5l166 231h-299zM469 1335q6 54 49 92.5t98 38.5q56 0 91.5 -38.5t29.5 -92.5q-4 -55 -47.5 -94t-99.5 -39
q-55 0 -90.5 38.5t-30.5 94.5z" />
    <glyph glyph-name="Idotaccent" unicode="&#x130;" horiz-adv-x="1062" 
d="M315 1444h797l-25 -131h-323l-229 -1182h321l-27 -131h-796l26 131h324l229 1182h-321zM641 1763q6 54 49 92.5t98 38.5q56 0 91.5 -38.5t29.5 -92.5q-4 -55 -47.5 -94t-99.5 -39q-55 0 -90.5 38.5t-30.5 94.5z" />
    <glyph glyph-name="dotlessi" unicode="&#x131;" horiz-adv-x="886" 
d="M14 0l25 129h280l148 758h-203l25 129h237q53 0 73.5 -26.5t10.5 -84.5l-149 -776h282l-24 -129h-705z" />
    <glyph glyph-name="IJ" unicode="&#x132;" horiz-adv-x="1212" 
d="M55 0l25 131h504q143 0 224 87.5t116 262.5l188 963h152l-195 -1000q-43 -219 -165.5 -331.5t-313.5 -112.5h-535zM115 309l223 1135h151l-223 -1135h-151z" />
    <glyph glyph-name="ij" unicode="&#x133;" horiz-adv-x="1411" 
d="M958 -57q31 42 45 74.5t23 80.5l154 789h-574l-145 -758h282l-24 -129h-705l25 129h280l148 758h-203l25 129h948q58 0 82 -24.5t14 -82.5l-164 -839q-9 -49 -23 -82.5t-42 -73.5l-215 -295h-164zM469 1335q6 54 49 92.5t98 38.5q56 0 91.5 -38.5t29.5 -92.5
q-4 -55 -47.5 -94t-99.5 -39q-55 0 -90.5 38.5t-30.5 94.5zM1188 1335q6 54 48 92.5t97 38.5t91.5 -38.5t31.5 -92.5q-4 -55 -47.5 -94t-99.5 -39q-57 0 -91.5 38.5t-29.5 94.5z" />
    <glyph glyph-name="Jcircumflex" unicode="&#x134;" horiz-adv-x="1085" 
d="M461 0h-490l27 131h457q144 0 225.5 88t114.5 262l161 832h-510l25 131h530q75 0 99 -27t10 -96l-170 -877q-43 -219 -165.5 -331.5t-313.5 -112.5zM524 1675l365 258l276 -270l-102 -84l-193 195l-268 -195z" />
    <glyph glyph-name="jcircumflex" unicode="&#x135;" horiz-adv-x="589" 
d="M135 -57q32 39 46 72t24 83l153 789h-208l24 129h240q60 0 84.5 -24.5t11.5 -82.5l-162 -839q-9 -49 -23 -82.5t-44 -73.5l-215 -295h-162zM162 1247l364 258l277 -270l-103 -84l-192 195l-268 -195z" />
    <glyph glyph-name="uni0136" unicode="&#x136;" horiz-adv-x="1325" 
d="M55 0l283 1444h151l-127 -647h95l762 647h211l-832 -715l555 -729h-188l-512 666h-115l-131 -666h-152zM281 -430l174 336l139 -45l-172 -336z" />
    <glyph glyph-name="uni0137" unicode="&#x137;" horiz-adv-x="1087" 
d="M55 0l291 1505h152l-179 -917h115l479 428h203l-571 -502l368 -514h-182l-330 463h-106l-88 -463h-152zM164 -430l174 336l139 -45l-172 -336z" />
    <glyph glyph-name="Lacute" unicode="&#x139;" horiz-adv-x="1110" 
d="M178 0q-56 0 -80 31t-14 88l260 1325h152l-256 -1313h727l-25 -131h-764zM397 1739l643 162l7 -127l-644 -160z" />
    <glyph glyph-name="lacute" unicode="&#x13a;" horiz-adv-x="894" 
d="M4 0l23 129h284l244 1247h-205l23 129h262q46 0 66.5 -23t11.5 -67l-250 -1286h285l-23 -129h-721zM340 1800l643 162l6 -127l-643 -160z" />
    <glyph glyph-name="uni013B" unicode="&#x13b;" horiz-adv-x="1103" 
d="M172 0q-56 0 -80 31t-14 88l260 1325h151l-256 -1313h728l-25 -131h-764zM264 -430l174 336l140 -45l-172 -336z" />
    <glyph glyph-name="uni013C" unicode="&#x13c;" horiz-adv-x="884" 
d="M-4 0l22 129h285l244 1247h-205l23 129h262q46 0 66.5 -23t11.5 -67l-250 -1286h284l-22 -129h-721zM72 -430l174 336l139 -45l-172 -336z" />
    <glyph glyph-name="Lcaron" unicode="&#x13d;" horiz-adv-x="1103" 
d="M172 0q-56 0 -80 31t-14 88l260 1325h151l-256 -1313h728l-25 -131h-764zM788 938l99 506h143l-96 -506h-146z" />
    <glyph glyph-name="lcaron" unicode="&#x13e;" horiz-adv-x="890" 
d="M-4 0l22 129h285l244 1247h-205l23 129h262q46 0 66.5 -23t11.5 -67l-250 -1286h284l-22 -129h-721zM756 999l98 506h143l-96 -506h-145z" />
    <glyph glyph-name="Lslash" unicode="&#x141;" horiz-adv-x="1120" 
d="M188 0q-56 0 -80 31t-14 88l107 540l-219 -59l-33 121l278 74l127 649h152l-119 -606l250 67l33 -121l-310 -82l-110 -571h727l-25 -131h-764z" />
    <glyph glyph-name="lslash" unicode="&#x142;" horiz-adv-x="884" 
d="M-4 0l22 129h285l103 528l-259 -65l-6 129l293 74l113 581h-205l23 129h262q46 0 66.5 -23t11.5 -67l-113 -579l262 67l6 -129l-295 -76l-110 -569h284l-22 -129h-721z" />
    <glyph glyph-name="Nacute" unicode="&#x143;" horiz-adv-x="1536" 
d="M55 0l283 1444h309l471 -1399h45l-2 111l252 1288h152l-283 -1444h-309l-471 1399h-45l2 -111l-252 -1288h-152zM727 1739l643 162l6 -127l-643 -160z" />
    <glyph glyph-name="nacute" unicode="&#x144;" horiz-adv-x="1218" 
d="M53 0l197 1016h151l-28 -144l-49 -110h49q55 126 159 198t242 72q194 0 281 -120t47 -332l-113 -580h-151l112 582q33 166 -27.5 245.5t-211.5 79.5q-153 0 -265 -117t-149 -309l-92 -481h-152zM494 1311l643 162l6 -127l-643 -160z" />
    <glyph glyph-name="uni0145" unicode="&#x145;" horiz-adv-x="1536" 
d="M55 0l283 1444h309l471 -1399h45l-2 111l252 1288h152l-283 -1444h-309l-471 1399h-45l2 -111l-252 -1288h-152zM385 -430l174 336l139 -45l-172 -336z" />
    <glyph glyph-name="uni0146" unicode="&#x146;" horiz-adv-x="1218" 
d="M53 0l197 1016h151l-28 -144l-49 -110h49q55 126 159 198t242 72q194 0 281 -120t47 -332l-113 -580h-151l112 582q33 166 -27.5 245.5t-211.5 79.5q-153 0 -265 -117t-149 -309l-92 -481h-152zM240 -430l174 336l139 -45l-172 -336z" />
    <glyph glyph-name="Ncaron" unicode="&#x147;" horiz-adv-x="1536" 
d="M55 0l283 1444h309l471 -1399h45l-2 111l252 1288h152l-283 -1444h-309l-471 1399h-45l2 -111l-252 -1288h-152zM750 1851l100 82l194 -192l267 192l78 -94l-363 -258z" />
    <glyph glyph-name="ncaron" unicode="&#x148;" horiz-adv-x="1218" 
d="M53 0l197 1016h151l-28 -144l-49 -110h49q55 126 159 198t242 72q194 0 281 -120t47 -332l-113 -580h-151l112 582q33 166 -27.5 245.5t-211.5 79.5q-153 0 -265 -117t-149 -309l-92 -481h-152zM518 1423l100 82l195 -192l266 192l78 -94l-362 -258z" />
    <glyph glyph-name="Eng" unicode="&#x14a;" horiz-adv-x="1533" 
d="M55 0l283 1444h309l471 -1399h45l-2 111l252 1288h152l-283 -1444h2l-55 -287q-11 -58 -42 -81t-102 -23h-395l25 129h364l51 262h-157l-471 1399h-45l2 -111l-252 -1288h-152z" />
    <glyph glyph-name="eng" unicode="&#x14b;" horiz-adv-x="1218" 
d="M53 0l197 1016h151l-28 -144l-49 -110h49q55 126 159 198t242 72q194 0 281 -120t47 -332l-113 -580h2l-53 -274q-22 -119 -158 -119h-381l23 129h366l52 264h-2l112 582q33 166 -27.5 245.5t-211.5 79.5q-153 0 -265 -117t-149 -309l-92 -481h-152z" />
    <glyph glyph-name="Omacron" unicode="&#x14c;" horiz-adv-x="1603" 
d="M176 723q15 157 73.5 292.5t152 235.5t226 156.5t287.5 56.5q154 0 275 -56.5t195.5 -156.5t107.5 -235t18 -293t-73.5 -294t-152.5 -235.5t-226.5 -156.5t-286.5 -57t-275 56.5t-195.5 156.5t-107.5 236t-18 294zM330 723q-15 -133 5 -244t74 -193.5t148 -128.5t221 -46
t230.5 46t175 128.5t115.5 193t59 244.5q20 179 -20.5 314.5t-149.5 215.5t-277 80t-294.5 -80.5t-196.5 -215.5t-90 -314zM668 1694v127h639v-125z" />
    <glyph glyph-name="omacron" unicode="&#x14d;" horiz-adv-x="1296" 
d="M117 508q6 109 49.5 205.5t115.5 168t175.5 113t222.5 41.5t217 -41.5t161.5 -113t96 -168t25.5 -205.5q-8 -146 -79.5 -265.5t-198 -191t-284.5 -71.5q-159 0 -277.5 71.5t-175.5 191t-48 265.5zM268 508q-11 -169 84 -284t275 -115q178 0 285 114.5t116 284.5
t-84.5 284.5t-271.5 114.5q-121 0 -212 -55.5t-138.5 -144.5t-53.5 -199zM428 1266v127h639v-125z" />
    <glyph glyph-name="Ohungarumlaut" unicode="&#x150;" horiz-adv-x="1603" 
d="M176 723q15 157 73.5 292.5t152 235.5t226 156.5t287.5 56.5q154 0 275 -56.5t195.5 -156.5t107.5 -235t18 -293t-73.5 -294t-152.5 -235.5t-226.5 -156.5t-286.5 -57t-275 56.5t-195.5 156.5t-107.5 236t-18 294zM330 723q-15 -133 5 -244t74 -193.5t148 -128.5t221 -46
t230.5 46t175 128.5t115.5 193t59 244.5q20 179 -20.5 314.5t-149.5 215.5t-277 80t-294.5 -80.5t-196.5 -215.5t-90 -314zM680 1675l334 275l80 -101l-336 -272zM1001 1675l334 275l78 -101l-334 -272z" />
    <glyph glyph-name="ohungarumlaut" unicode="&#x151;" horiz-adv-x="1296" 
d="M117 508q6 109 49.5 205.5t115.5 168t175.5 113t222.5 41.5t217 -41.5t161.5 -113t96 -168t25.5 -205.5q-8 -146 -79.5 -265.5t-198 -191t-284.5 -71.5q-159 0 -277.5 71.5t-175.5 191t-48 265.5zM268 508q-11 -169 84 -284t275 -115q178 0 285 114.5t116 284.5
t-84.5 284.5t-271.5 114.5q-121 0 -212 -55.5t-138.5 -144.5t-53.5 -199zM442 1247l334 275l80 -101l-336 -272zM764 1247l334 275l78 -101l-334 -272z" />
    <glyph glyph-name="OE" unicode="&#x152;" horiz-adv-x="2408" 
d="M176 723q15 157 73.5 292.5t152 235.5t226 156.5t287.5 56.5q187 0 322.5 -82t206.5 -227l57 289h977l-24 -131h-826l-102 -525h723l-25 -129h-721q-10 -68 -26 -120l-80 -408h825l-27 -131h-976l30 160q-196 -180 -477 -180q-154 0 -275 56.5t-195.5 156.5t-107.5 236
t-18 294zM330 723q-15 -133 5 -244t74 -193.5t148 -128.5t221 -46q215 0 356.5 126.5t196.5 342.5l23 112l4 31q20 179 -20.5 314.5t-149.5 215.5t-277 80t-294.5 -80.5t-196.5 -215.5t-90 -314z" />
    <glyph glyph-name="oe" unicode="&#x153;" horiz-adv-x="2119" 
d="M117 508q6 109 49.5 205.5t115.5 168t175.5 113t222.5 41.5q152 0 266 -65.5t176 -179.5q70 119 186.5 182t264.5 63q221 0 336 -130.5t90 -362.5l-8 -62h-813l-4 -32q-6 -156 66.5 -250.5t225.5 -94.5q136 0 229.5 66.5t137.5 183.5h147q-25 -73 -64 -135t-100 -118.5
t-152 -88.5t-202 -32q-144 0 -241.5 60t-145.5 165q-76 -105 -194 -165t-263 -60q-159 0 -277.5 71.5t-175.5 191t-48 265.5zM268 508q-11 -169 84 -284t275 -115q178 0 285 114.5t116 284.5t-84.5 284.5t-271.5 114.5q-121 0 -212 -55.5t-138.5 -144.5t-53.5 -199z
M1194 600h666q4 148 -74.5 229.5t-222.5 81.5q-136 0 -237.5 -83t-131.5 -228z" />
    <glyph glyph-name="Racute" unicode="&#x154;" horiz-adv-x="1368" 
d="M55 0l283 1444h487q104 0 181 -9.5t146 -35.5t109 -69.5t58 -114.5t6 -168q-21 -156 -93.5 -229.5t-215.5 -104.5l-8 -45h118q125 0 103 -117l-109 -551h-153l114 586h-759l-115 -586h-152zM348 717h383q82 0 136.5 5.5t110.5 23t91 49.5t61 87t37 134q12 86 -3.5 144.5
t-41 88.5t-85 45t-100 17t-122.5 2h-350zM565 1739l643 162l6 -127l-643 -160z" />
    <glyph glyph-name="racute" unicode="&#x155;" horiz-adv-x="894" 
d="M227 881q23 135 162 135h555l-26 -129h-539l-172 -887h-152zM352 1311l643 162l6 -127l-643 -160z" />
    <glyph glyph-name="uni0156" unicode="&#x156;" horiz-adv-x="1368" 
d="M55 0l283 1444h487q104 0 181 -9.5t146 -35.5t109 -69.5t58 -114.5t6 -168q-21 -156 -93.5 -229.5t-215.5 -104.5l-8 -45h118q125 0 103 -117l-109 -551h-153l114 586h-759l-115 -586h-152zM326 -430l174 336l139 -45l-172 -336zM348 717h383q82 0 136.5 5.5t110.5 23
t91 49.5t61 87t37 134q12 86 -3.5 144.5t-41 88.5t-85 45t-100 17t-122.5 2h-350z" />
    <glyph glyph-name="uni0157" unicode="&#x157;" horiz-adv-x="892" 
d="M225 881q23 135 162 135h555l-27 -129h-538l-172 -887h-152zM-152 -430l175 336l139 -45l-172 -336z" />
    <glyph glyph-name="Rcaron" unicode="&#x158;" horiz-adv-x="1368" 
d="M55 0l283 1444h487q104 0 181 -9.5t146 -35.5t109 -69.5t58 -114.5t6 -168q-21 -156 -93.5 -229.5t-215.5 -104.5l-8 -45h118q125 0 103 -117l-109 -551h-153l114 586h-759l-115 -586h-152zM348 717h383q82 0 136.5 5.5t110.5 23t91 49.5t61 87t37 134q12 86 -3.5 144.5
t-41 88.5t-85 45t-100 17t-122.5 2h-350zM588 1851l100 82l195 -192l266 192l78 -94l-363 -258z" />
    <glyph glyph-name="rcaron" unicode="&#x159;" horiz-adv-x="897" 
d="M227 881q23 135 162 135h555l-26 -129h-539l-172 -887h-152zM375 1423l100 82l195 -192l266 192l78 -94l-363 -258z" />
    <glyph glyph-name="Sacute" unicode="&#x15a;" horiz-adv-x="1392" 
d="M1272 377q-42 -397 -578 -397q-316 0 -470 144.5t-126 414.5h154q-29 -215 85.5 -322.5t362.5 -107.5q195 0 297 65t119 197q27 184 -225 264l-324 100q-309 96 -282 357q19 182 156.5 277t379.5 95q283 0 418.5 -128.5t112.5 -364.5h-154q25 182 -71 273t-310 91
q-342 0 -379 -237q-11 -86 38.5 -145t168.5 -95l320 -98q334 -103 307 -383zM618 1739l644 162l6 -127l-643 -160z" />
    <glyph glyph-name="sacute" unicode="&#x15b;" horiz-adv-x="1015" 
d="M504 -25q-108 0 -194 25.5t-146.5 76t-85.5 131t-8 183.5h149q-14 -75 2.5 -132.5t59 -91t101.5 -50.5t132 -17q196 0 225 152q11 57 -18.5 94t-112.5 68l-243 92q-215 81 -179 276q25 122 125.5 189t255.5 67q128 0 220 -38t137.5 -119.5t25.5 -196.5h-151
q19 104 -44.5 166.5t-193.5 62.5q-90 0 -151 -37t-70 -94q-12 -57 16.5 -95t102.5 -66l223 -82q124 -47 177 -118.5t32 -180.5q-25 -128 -125 -196.5t-262 -68.5zM350 1311l643 162l6 -127l-643 -160z" />
    <glyph glyph-name="Scircumflex" unicode="&#x15c;" horiz-adv-x="1392" 
d="M1272 377q-42 -397 -578 -397q-316 0 -470 144.5t-126 414.5h154q-29 -215 85.5 -322.5t362.5 -107.5q195 0 297 65t119 197q27 184 -225 264l-324 100q-309 96 -282 357q19 182 156.5 277t379.5 95q283 0 418.5 -128.5t112.5 -364.5h-154q25 182 -71 273t-310 91
q-342 0 -379 -237q-11 -86 38.5 -145t168.5 -95l320 -98q334 -103 307 -383zM606 1675l365 258l276 -270l-102 -84l-193 195l-268 -195z" />
    <glyph glyph-name="scircumflex" unicode="&#x15d;" horiz-adv-x="1015" 
d="M504 -25q-108 0 -194 25.5t-146.5 76t-85.5 131t-8 183.5h149q-14 -75 2.5 -132.5t59 -91t101.5 -50.5t132 -17q196 0 225 152q11 57 -18.5 94t-112.5 68l-243 92q-215 81 -179 276q25 122 125.5 189t255.5 67q128 0 220 -38t137.5 -119.5t25.5 -196.5h-151
q19 104 -44.5 166.5t-193.5 62.5q-90 0 -151 -37t-70 -94q-12 -57 16.5 -95t102.5 -66l223 -82q124 -47 177 -118.5t32 -180.5q-25 -128 -125 -196.5t-262 -68.5zM338 1247l364 258l277 -270l-102 -84l-193 195l-268 -195z" />
    <glyph glyph-name="Scedilla" unicode="&#x15e;" horiz-adv-x="1392" 
d="M1272 377q-42 -397 -578 -397h-43l-98 -84q56 18 106 18q55 0 90 -28.5t29 -84.5q-3 -39 -18.5 -68t-45 -48t-64.5 -31t-88 -18.5t-104 -8.5t-124 -2l26 121q85 0 123.5 1t85 7t64.5 20t20 38q6 43 -43 43q-29 0 -58.5 -10.5t-84.5 -43.5l-49 93l102 98
q-229 38 -337 177.5t-85 369.5h154q-29 -215 85.5 -322.5t362.5 -107.5q195 0 297 65t119 197q27 184 -225 264l-324 100q-309 96 -282 357q19 182 156.5 277t379.5 95q283 0 418.5 -128.5t112.5 -364.5h-154q25 182 -71 273t-310 91q-342 0 -379 -237q-11 -86 38.5 -145
t168.5 -95l320 -98q334 -103 307 -383z" />
    <glyph glyph-name="scedilla" unicode="&#x15f;" horiz-adv-x="1015" 
d="M504 -25h-39l-94 -79q56 18 106 18q55 0 90 -28.5t29 -84.5q-3 -39 -18.5 -68t-45 -48t-64.5 -31t-88 -18.5t-104 -8.5t-124 -2l26 121q85 0 123.5 1t85 7t64.5 20t20 38q6 43 -43 43q-29 0 -58.5 -10.5t-84.5 -43.5l-49 93l102 100q-147 34 -221 135t-47 262h149
q-14 -75 2.5 -132.5t59 -91t101.5 -50.5t132 -17q196 0 225 152q11 57 -18.5 94t-112.5 68l-243 92q-215 81 -179 276q25 122 125.5 189t255.5 67q128 0 220 -38t137.5 -119.5t25.5 -196.5h-151q19 104 -44.5 166.5t-193.5 62.5q-90 0 -151 -37t-70 -94q-12 -57 16.5 -95
t102.5 -66l223 -82q124 -47 177 -118.5t32 -180.5q-25 -128 -125 -196.5t-262 -68.5z" />
    <glyph glyph-name="Scaron" unicode="&#x160;" horiz-adv-x="1392" 
d="M1272 377q-42 -397 -578 -397q-316 0 -470 144.5t-126 414.5h154q-29 -215 85.5 -322.5t362.5 -107.5q195 0 297 65t119 197q27 184 -225 264l-324 100q-309 96 -282 357q19 182 156.5 277t379.5 95q283 0 418.5 -128.5t112.5 -364.5h-154q25 182 -71 273t-310 91
q-342 0 -379 -237q-11 -86 38.5 -145t168.5 -95l320 -98q334 -103 307 -383zM641 1851l100 82l195 -192l266 192l78 -94l-362 -258z" />
    <glyph glyph-name="scaron" unicode="&#x161;" horiz-adv-x="1015" 
d="M504 -25q-108 0 -194 25.5t-146.5 76t-85.5 131t-8 183.5h149q-14 -75 2.5 -132.5t59 -91t101.5 -50.5t132 -17q196 0 225 152q11 57 -18.5 94t-112.5 68l-243 92q-215 81 -179 276q25 122 125.5 189t255.5 67q128 0 220 -38t137.5 -119.5t25.5 -196.5h-151
q19 104 -44.5 166.5t-193.5 62.5q-90 0 -151 -37t-70 -94q-12 -57 16.5 -95t102.5 -66l223 -82q124 -47 177 -118.5t32 -180.5q-25 -128 -125 -196.5t-262 -68.5zM375 1423l100 82l195 -192l266 192l78 -94l-363 -258z" />
    <glyph glyph-name="uni0162" unicode="&#x162;" horiz-adv-x="1341" 
d="M272 1444h1162l-27 -131h-504l-256 -1313h-4l-121 -104q56 18 107 18q55 0 90 -28.5t29 -84.5q-3 -39 -18.5 -68t-45.5 -48t-65 -31t-88 -18.5t-104 -8.5t-124 -2l27 121q85 0 123.5 1t85 7t64.5 20t20 38q6 43 -43 43q-29 0 -59 -11t-85 -43l-49 93l111 106h-2l256 1313
h-504z" />
    <glyph glyph-name="uni0163" unicode="&#x163;" horiz-adv-x="870" 
d="M707 129l-25 -129h-170l-121 -104q56 18 107 18q54 0 89 -28.5t29 -84.5q-3 -39 -18.5 -68t-45 -48t-64.5 -31t-88 -18.5t-104 -8.5t-124 -2l27 121q85 0 123.5 1t85 7t64.5 20t20 38q6 43 -43 43q-29 0 -59 -11t-85 -43l-49 93l111 106h-58q-69 0 -95.5 33t-14.5 104
l145 750h-221l27 129h219l53 270l162 45l-62 -315h316l-27 -129h-313l-148 -760z" />
    <glyph glyph-name="Tcaron" unicode="&#x164;" horiz-adv-x="1341" 
d="M272 1444h1162l-27 -131h-504l-256 -1313h-151l256 1313h-504zM612 1851l101 82l194 -192l267 192l77 -94l-362 -258z" />
    <glyph glyph-name="tcaron" unicode="&#x165;" horiz-adv-x="872" 
d="M707 129l-25 -129h-373q-69 0 -95.5 33t-14.5 104l145 750h-221l27 129h219l53 270l162 45l-62 -315h316l-27 -129h-313l-148 -760zM754 1137l69 368h146l-70 -368h-145z" />
    <glyph glyph-name="Tbar" unicode="&#x166;" horiz-adv-x="1341" 
d="M272 1444h1162l-27 -131h-504l-102 -531h276l-22 -125h-279l-129 -657h-151l129 657h-273l23 125h274l103 531h-504z" />
    <glyph glyph-name="tbar" unicode="&#x167;" horiz-adv-x="870" 
d="M707 129l-25 -129h-373q-69 0 -95.5 33t-14.5 104l77 398h-178l23 122h178l45 230h-221l27 129h219l53 270l162 45l-62 -315h316l-27 -129h-313l-45 -230h252l-21 -122h-254l-80 -408z" />
    <glyph glyph-name="Utilde" unicode="&#x168;" horiz-adv-x="1355" 
d="M127 580l170 864h152l-168 -864q-46 -236 38.5 -352.5t315.5 -116.5q211 0 313.5 98.5t145.5 314.5l180 920h151l-184 -946q-51 -259 -197.5 -388.5t-416.5 -129.5q-294 0 -426 152t-74 448zM539 1636q39 269 235 269q47 0 86 -17t64.5 -41t48 -48t46.5 -41t48 -17
q40 0 68.5 29.5t44.5 113.5h125q-39 -268 -234 -268q-47 0 -86.5 17t-65.5 41t-48.5 48t-46.5 41t-48 17q-39 0 -67 -29.5t-45 -114.5h-125z" />
    <glyph glyph-name="utilde" unicode="&#x169;" horiz-adv-x="1218" 
d="M444 -16q-194 0 -280 120t-45 332l110 580h152l-113 -582q-33 -166 27.5 -245.5t212.5 -79.5q153 0 265 117t149 309l92 481h151l-196 -1016h-152l29 141l49 113h-49q-55 -127 -158.5 -198.5t-243.5 -71.5zM395 1208q39 269 236 269q47 0 86 -17t64.5 -41t48 -48
t46.5 -41t48 -17q40 0 68 29.5t44 113.5h125q-39 -268 -233 -268q-47 0 -86.5 17t-65.5 41t-48.5 48t-46.5 41t-48 17q-40 0 -68 -30t-45 -114h-125z" />
    <glyph glyph-name="Umacron" unicode="&#x16a;" horiz-adv-x="1355" 
d="M127 580l170 864h152l-168 -864q-46 -236 38.5 -352.5t315.5 -116.5q211 0 313.5 98.5t145.5 314.5l180 920h151l-184 -946q-51 -259 -197.5 -388.5t-416.5 -129.5q-294 0 -426 152t-74 448zM541 1694v127h639v-125z" />
    <glyph glyph-name="umacron" unicode="&#x16b;" horiz-adv-x="1218" 
d="M444 -16q-194 0 -280 120t-45 332l110 580h152l-113 -582q-33 -166 27.5 -245.5t212.5 -79.5q153 0 265 117t149 309l92 481h151l-196 -1016h-152l29 141l49 113h-49q-55 -127 -158.5 -198.5t-243.5 -71.5zM397 1266v127h639v-125z" />
    <glyph glyph-name="Ubreve" unicode="&#x16c;" horiz-adv-x="1355" 
d="M127 580l170 864h152l-168 -864q-46 -236 38.5 -352.5t315.5 -116.5q211 0 313.5 98.5t145.5 314.5l180 920h151l-184 -946q-51 -259 -197.5 -388.5t-416.5 -129.5q-294 0 -426 152t-74 448zM641 1929h127q-24 -118 26 -171.5t144 -53.5q93 0 138.5 54t66.5 171h125
q-22 -162 -115.5 -256t-230.5 -94q-145 0 -223 97t-58 253z" />
    <glyph glyph-name="ubreve" unicode="&#x16d;" horiz-adv-x="1218" 
d="M444 -16q-194 0 -280 120t-45 332l110 580h152l-113 -582q-33 -166 27.5 -245.5t212.5 -79.5q153 0 265 117t149 309l92 481h151l-196 -1016h-152l29 141l49 113h-49q-55 -127 -158.5 -198.5t-243.5 -71.5zM496 1501h127q-24 -118 26 -171.5t144 -53.5q93 0 138 54
t66 171h125q-22 -162 -115.5 -256t-230.5 -94q-145 0 -222.5 96.5t-57.5 253.5z" />
    <glyph glyph-name="Uring" unicode="&#x16e;" horiz-adv-x="1355" 
d="M127 580l170 864h152l-168 -864q-46 -236 38.5 -352.5t315.5 -116.5q211 0 313.5 98.5t145.5 314.5l180 920h151l-184 -946q-51 -259 -197.5 -388.5t-416.5 -129.5q-294 0 -426 152t-74 448zM625 1794q0 90 62 154.5t171 64.5t172.5 -64.5t63.5 -154.5q0 -89 -63.5 -154
t-172.5 -65t-171 64.5t-62 154.5zM748 1794q0 -47 28.5 -73.5t81.5 -26.5q54 0 82.5 26.5t28.5 73.5q0 45 -29 71.5t-82 26.5t-81.5 -26.5t-28.5 -71.5z" />
    <glyph glyph-name="uring" unicode="&#x16f;" horiz-adv-x="1218" 
d="M444 -16q-194 0 -280 120t-45 332l110 580h152l-113 -582q-33 -166 27.5 -245.5t212.5 -79.5q153 0 265 117t149 309l92 481h151l-196 -1016h-152l29 141l49 113h-49q-55 -127 -158.5 -198.5t-243.5 -71.5zM481 1366q0 90 62.5 154.5t171.5 64.5t172 -64.5t63 -154.5
q0 -89 -63.5 -154t-171.5 -65q-109 0 -171.5 64.5t-62.5 154.5zM604 1366q0 -46 29 -73t82 -27q54 0 82 26.5t28 73.5q0 45 -28.5 71.5t-81.5 26.5t-82 -26.5t-29 -71.5z" />
    <glyph glyph-name="Uhungarumlaut" unicode="&#x170;" horiz-adv-x="1355" 
d="M127 580l170 864h152l-168 -864q-46 -236 38.5 -352.5t315.5 -116.5q211 0 313.5 98.5t145.5 314.5l180 920h151l-184 -946q-51 -259 -197.5 -388.5t-416.5 -129.5q-294 0 -426 152t-74 448zM555 1675l334 275l80 -101l-336 -272zM877 1675l333 275l78 -101l-334 -272z
" />
    <glyph glyph-name="uhungarumlaut" unicode="&#x171;" horiz-adv-x="1218" 
d="M444 -16q-194 0 -280 120t-45 332l110 580h152l-113 -582q-33 -166 27.5 -245.5t212.5 -79.5q153 0 265 117t149 309l92 481h151l-196 -1016h-152l29 141l49 113h-49q-55 -127 -158.5 -198.5t-243.5 -71.5zM410 1247l333 275l80 -101l-336 -272zM731 1247l334 275
l78 -101l-334 -272z" />
    <glyph glyph-name="Uogonek" unicode="&#x172;" horiz-adv-x="1355" 
d="M127 580l170 864h152l-168 -864q-46 -236 38.5 -352.5t315.5 -116.5q211 0 313.5 98.5t145.5 314.5l180 920h151l-184 -946q-44 -222 -158 -349t-313 -159l-184 -256l391 2l-25 -127h-407q-76 0 -97.5 47.5t25.5 112.5l152 211q-292 0 -424 152t-74 448z" />
    <glyph glyph-name="uogonek" unicode="&#x173;" horiz-adv-x="1218" 
d="M444 -16q-194 0 -280 120t-45 332l110 580h152l-113 -582q-33 -166 27.5 -245.5t212.5 -79.5q153 0 265 117t149 309l92 481h151l-196 -1014h2l-193 -268l391 2l-24 -127h-408q-76 0 -97 47.5t26 112.5l165 231h-14l29 141l49 113h-49q-55 -127 -158.5 -198.5
t-243.5 -71.5z" />
    <glyph glyph-name="Wcircumflex" unicode="&#x174;" horiz-adv-x="1828" 
d="M1966 1444l-555 -1444h-299v1399h-45l-541 -1399h-301l2 1444h150l10 -1266l-37 -133h45l543 1399h315l-2 -1399h47l21 133l491 1266h156zM819 1675l365 258l276 -270l-102 -84l-193 195l-268 -195z" />
    <glyph glyph-name="wcircumflex" unicode="&#x175;" horiz-adv-x="1757" 
d="M174 1016h141l78 -848l-24 -123h41l411 971h309l35 -971h41l23 125l403 846h146l-480 -1016h-276l-31 971h-45l-407 -971h-281zM700 1247l365 258l276 -270l-102 -84l-192 195l-269 -195z" />
    <glyph glyph-name="Ycircumflex" unicode="&#x176;" horiz-adv-x="1335" 
d="M1282 1444h166l-604 -826h-78l-123 -618h-151l120 618h-77l-283 826h156l262 -785h45zM573 1675l365 258l276 -270l-102 -84l-192 195l-269 -195z" />
    <glyph glyph-name="ycircumflex" unicode="&#x177;" horiz-adv-x="1200" 
d="M1167 1016l-196 -1016h2l-53 -274q-25 -119 -158 -119h-758l25 129h741l51 264h-2l29 143l49 111h-49q-55 -126 -159.5 -198t-242.5 -72q-193 0 -280 120t-47 332l112 580h152l-113 -582q-33 -166 27.5 -245.5t212.5 -79.5q153 0 265 117t149 309l92 481h151zM342 1247
l365 258l276 -270l-102 -84l-193 195l-268 -195z" />
    <glyph glyph-name="Ydieresis" unicode="&#x178;" horiz-adv-x="1335" 
d="M1282 1444h166l-604 -826h-78l-123 -618h-151l120 618h-77l-283 826h156l262 -785h45zM565 1753q6 58 50.5 98.5t103.5 40.5t98 -41t33 -98q-4 -58 -49.5 -99.5t-104.5 -41.5t-97 41.5t-34 99.5zM973 1753q6 58 50 98.5t103 40.5q58 0 97 -41t34 -98q-4 -58 -49 -99.5
t-104 -41.5q-60 0 -98 41t-33 100z" />
    <glyph glyph-name="Zacute" unicode="&#x179;" horiz-adv-x="1335" 
d="M14 0l62 311l1255 981l8 45l-114 -24h-955l27 131h1108l-62 -311l-1255 -981l-8 -46l115 25h954l-27 -131h-1108zM588 1739l643 162l6 -127l-643 -160z" />
    <glyph glyph-name="zacute" unicode="&#x17a;" horiz-adv-x="1085" 
d="M12 0l58 291l931 586l9 41l-142 -27h-682l23 125h864l-55 -287l-932 -588l-10 -43l143 29h682l-27 -127h-862zM377 1311l643 162l6 -127l-643 -160z" />
    <glyph glyph-name="Zdotaccent" unicode="&#x17b;" horiz-adv-x="1335" 
d="M14 0l62 311l1255 981l8 45l-114 -24h-955l27 131h1108l-62 -311l-1255 -981l-8 -46l115 25h954l-27 -131h-1108zM778 1763q6 54 49.5 92.5t98.5 38.5q56 0 91.5 -38.5t29.5 -92.5q-4 -55 -48 -94t-100 -39q-55 0 -90.5 38.5t-30.5 94.5z" />
    <glyph glyph-name="zdotaccent" unicode="&#x17c;" horiz-adv-x="1085" 
d="M12 0l58 291l931 586l9 41l-142 -27h-682l23 125h864l-55 -287l-932 -588l-10 -43l143 29h682l-27 -127h-862zM569 1335q6 54 49.5 92.5t98.5 38.5q56 0 91.5 -38.5t29.5 -92.5q-4 -55 -48 -94t-100 -39q-55 0 -90.5 38.5t-30.5 94.5z" />
    <glyph glyph-name="Zcaron" unicode="&#x17d;" horiz-adv-x="1335" 
d="M14 0l62 311l1255 981l8 45l-114 -24h-955l27 131h1108l-62 -311l-1255 -981l-8 -46l115 25h954l-27 -131h-1108zM610 1851l101 82l194 -192l266 192l78 -94l-362 -258z" />
    <glyph glyph-name="zcaron" unicode="&#x17e;" horiz-adv-x="1085" 
d="M12 0l58 291l931 586l9 41l-142 -27h-682l23 125h864l-55 -287l-932 -588l-10 -43l143 29h682l-27 -127h-862zM399 1423l101 82l194 -192l267 192l77 -94l-362 -258z" />
    <glyph glyph-name="uni018F" unicode="&#x18f;" horiz-adv-x="1585" 
d="M768 -4q-303 0 -463 182.5t-121 507.5l9 74h1150q12 124 -8.5 226t-74 179.5t-149 120.5t-226.5 43q-184 0 -315.5 -102t-196.5 -279h-158q28 80 66 150t96.5 137.5t130 115t169 76.5t210.5 29q138 0 247.5 -38t182 -106t116.5 -162.5t58 -205.5t0 -237
q-36 -337 -230 -524t-493 -187zM334 637q-30 -243 90.5 -378.5t347.5 -135.5q213 0 363.5 136.5t189.5 377.5h-991z" />
    <glyph glyph-name="uni0218" unicode="&#x218;" horiz-adv-x="1392" 
d="M1272 377q-42 -397 -578 -397q-316 0 -470 144.5t-126 414.5h154q-29 -215 85.5 -322.5t362.5 -107.5q195 0 297 65t119 197q27 184 -225 264l-324 100q-309 96 -282 357q19 182 156.5 277t379.5 95q283 0 418.5 -128.5t112.5 -364.5h-154q25 182 -71 273t-310 91
q-342 0 -379 -237q-11 -86 38.5 -145t168.5 -95l320 -98q334 -103 307 -383zM317 -430l175 336l139 -45l-172 -336z" />
    <glyph glyph-name="uni0219" unicode="&#x219;" horiz-adv-x="1015" 
d="M504 -25q-108 0 -194 25.5t-146.5 76t-85.5 131t-8 183.5h149q-14 -75 2.5 -132.5t59 -91t101.5 -50.5t132 -17q196 0 225 152q11 57 -18.5 94t-112.5 68l-243 92q-215 81 -179 276q25 122 125.5 189t255.5 67q128 0 220 -38t137.5 -119.5t25.5 -196.5h-151
q19 104 -44.5 166.5t-193.5 62.5q-90 0 -151 -37t-70 -94q-12 -57 16.5 -95t102.5 -66l223 -82q124 -47 177 -118.5t32 -180.5q-25 -128 -125 -196.5t-262 -68.5zM135 -430l174 336l140 -45l-173 -336z" />
    <glyph glyph-name="uni021A" unicode="&#x21a;" horiz-adv-x="1341" 
d="M272 1444h1162l-27 -131h-504l-256 -1313h-151l256 1313h-504zM289 -430l174 336l139 -45l-172 -336z" />
    <glyph glyph-name="uni021B" unicode="&#x21b;" horiz-adv-x="870" 
d="M707 129l-25 -129h-373q-69 0 -95.5 33t-14.5 104l145 750h-221l27 129h219l53 270l162 45l-62 -315h316l-27 -129h-313l-148 -760zM158 -430l174 336l139 -45l-172 -336z" />
    <glyph glyph-name="uni0237" unicode="&#x237;" horiz-adv-x="589" 
d="M135 -57q32 39 46 72t24 83l153 789h-208l24 129h240q60 0 84.5 -24.5t11.5 -82.5l-162 -839q-9 -49 -23 -82.5t-44 -73.5l-215 -295h-162z" />
    <glyph glyph-name="uni0259" unicode="&#x259;" horiz-adv-x="1200" 
d="M121 473l8 62h815q10 110 -16 192.5t-96 133t-179 50.5q-136 0 -229 -66t-137 -183h-148q25 73 64 135t100 118.5t152 88.5t202 32q120 0 210 -42.5t140.5 -117.5t69.5 -172t6 -210q-29 -243 -173.5 -378.5t-362.5 -135.5q-221 0 -336 130.5t-90 362.5zM260 416
q-4 -148 75 -230t222 -82q136 0 237.5 83.5t131.5 228.5h-666z" />
    <glyph glyph-name="circumflex" unicode="&#x2c6;" horiz-adv-x="989" 
d="M958 1235l-102 -84l-192 195l-269 -195l-78 96l365 258z" />
    <glyph glyph-name="caron" unicode="&#x2c7;" horiz-adv-x="989" 
d="M352 1423l101 82l194 -192l266 192l78 -94l-362 -258z" />
    <glyph glyph-name="breve" unicode="&#x2d8;" horiz-adv-x="976" 
d="M647 1151q-145 0 -222.5 96.5t-57.5 253.5h127q-24 -118 26 -171.5t144 -53.5q93 0 138 54t66 171h125q-22 -162 -115.5 -256t-230.5 -94z" />
    <glyph glyph-name="dotaccent" unicode="&#x2d9;" horiz-adv-x="636" 
d="M463 1202q-55 0 -90.5 38.5t-30.5 94.5q6 54 49 92.5t98 38.5q56 0 91.5 -38.5t29.5 -92.5q-4 -55 -47.5 -94t-99.5 -39z" />
    <glyph glyph-name="ring" unicode="&#x2da;" horiz-adv-x="763" 
d="M578 1147q-109 0 -171.5 64.5t-62.5 154.5t62.5 154.5t171.5 64.5t172 -64.5t63 -154.5q0 -89 -63.5 -154t-171.5 -65zM467 1366q0 -46 29 -73t82 -27q54 0 82 26.5t28 73.5q0 45 -28.5 71.5t-81.5 26.5t-82 -26.5t-29 -71.5z" />
    <glyph glyph-name="ogonek" unicode="&#x2db;" horiz-adv-x="874" 
d="M553 -264l-25 -127h-407q-76 0 -97.5 47.5t25.5 112.5l168 233h137l-192 -268z" />
    <glyph glyph-name="tilde" unicode="&#x2dc;" horiz-adv-x="1038" 
d="M297 1208q39 269 235 269q47 0 86 -17t64.5 -41t48 -48t46.5 -41t48 -17q40 0 68.5 29.5t44.5 113.5h125q-39 -268 -234 -268q-47 0 -86.5 17t-65.5 41t-48 48t-46 41t-48 17q-40 0 -68 -30t-45 -114h-125z" />
    <glyph glyph-name="hungarumlaut" unicode="&#x2dd;" horiz-adv-x="1048" 
d="M639 1247l334 275l78 -101l-334 -272zM317 1247l334 275l80 -101l-336 -272z" />
    <glyph glyph-name="gravecomb" unicode="&#x300;" 
d="M969 1305l-51 -113l-580 160l51 112z" />
    <glyph glyph-name="acutecomb" unicode="&#x301;" 
d="M336 1186l-6 125l643 162l6 -127z" />
    <glyph glyph-name="uni0302" unicode="&#x302;" 
d="M958 1235l-102 -84l-192 195l-269 -195l-78 96l365 258z" />
    <glyph glyph-name="tildecomb" unicode="&#x303;" 
d="M297 1208q39 269 235 269q47 0 86 -17t64.5 -41t48 -48t46.5 -41t48 -17q40 0 68.5 29.5t44.5 113.5h125q-39 -268 -234 -268q-47 0 -86.5 17t-65.5 41t-48 48t-46 41t-48 17q-40 0 -68 -30t-45 -114h-125z" />
    <glyph glyph-name="uni0304" unicode="&#x304;" 
d="M344 1393h639v-125l-639 -2v127z" />
    <glyph glyph-name="uni0306" unicode="&#x306;" 
d="M647 1151q-145 0 -222.5 96.5t-57.5 253.5h127q-24 -118 26 -171.5t144 -53.5q93 0 138 54t66 171h125q-22 -162 -115.5 -256t-230.5 -94z" />
    <glyph glyph-name="uni0307" unicode="&#x307;" 
d="M463 1202q-55 0 -90.5 38.5t-30.5 94.5q6 54 49 92.5t98 38.5q56 0 91.5 -38.5t29.5 -92.5q-4 -55 -47.5 -94t-99.5 -39z" />
    <glyph glyph-name="uni0308" unicode="&#x308;" 
d="M463 1184q-59 0 -97 41.5t-34 99.5q6 58 50 98.5t103 40.5t98 -41t33 -98q-4 -58 -49 -99.5t-104 -41.5zM739 1325q6 58 50.5 98.5t103.5 40.5q58 0 97 -41t34 -98q-4 -58 -49.5 -99.5t-104.5 -41.5q-60 0 -98 41t-33 100z" />
    <glyph glyph-name="uni030A" unicode="&#x30a;" 
d="M578 1147q-109 0 -171.5 64.5t-62.5 154.5t62.5 154.5t171.5 64.5t172 -64.5t63 -154.5q0 -89 -63.5 -154t-171.5 -65zM467 1366q0 -46 29 -73t82 -27q54 0 82 26.5t28 73.5q0 45 -28.5 71.5t-81.5 26.5t-82 -26.5t-29 -71.5z" />
    <glyph glyph-name="uni030B" unicode="&#x30b;" 
d="M639 1247l334 275l78 -101l-334 -272zM317 1247l334 275l80 -101l-336 -272z" />
    <glyph glyph-name="uni030C" unicode="&#x30c;" 
d="M352 1423l101 82l194 -192l266 192l78 -94l-362 -258z" />
    <glyph glyph-name="uni0312" unicode="&#x312;" 
d="M412 1585l141 -37l-100 -364l-142 37z" />
    <glyph glyph-name="uni0326" unicode="&#x326;" 
d="M123 -94l139 -45l-172 -336l-141 45z" />
    <glyph glyph-name="uni0327" unicode="&#x327;" 
d="M29 -254q85 0 123.5 1t85 7t64.5 20t20 38q6 43 -43 43q-29 0 -59 -11t-85 -43l-49 93l111 106h145l-121 -104q56 18 107 18q54 0 89 -28.5t29 -84.5q-3 -39 -18.5 -68t-45 -48t-64.5 -31t-88 -18.5t-104 -8.5t-124 -2z" />
    <glyph glyph-name="uni0328" unicode="&#x328;" 
d="M553 -264l-25 -127h-407q-76 0 -97.5 47.5t25.5 112.5l168 233h137l-192 -268z" />
    <glyph glyph-name="uni0335" unicode="&#x335;" 
d="M283 1384h559l-23 -124h-559z" />
    <glyph glyph-name="uni0337" unicode="&#x337;" 
d="M139 721l713 182l6 -129l-713 -182z" />
    <glyph glyph-name="uni0338" unicode="&#x338;" 
d="M1421 1567l103 -66l-1258 -1626l-100 66z" />
    <glyph glyph-name="uni0400" unicode="&#x400;" horiz-adv-x="1245" 
d="M55 0l283 1444h977l-25 -131h-825l-103 -525h723l-24 -129h-723l-105 -528h826l-27 -131h-977zM526 1780l52 112l579 -159l-51 -113z" />
    <glyph glyph-name="uni0401" unicode="&#x401;" horiz-adv-x="1245" 
d="M55 0l283 1444h977l-25 -131h-825l-103 -525h723l-24 -129h-723l-105 -528h826l-27 -131h-977zM494 1753q6 58 50 98.5t103 40.5t98 -41t33 -98q-4 -58 -49 -99.5t-104 -41.5t-97 41.5t-34 99.5zM901 1753q6 58 50.5 98.5t103.5 40.5q58 0 97 -41t34 -98
q-4 -58 -49.5 -99.5t-104.5 -41.5q-60 0 -98 41t-33 100z" />
    <glyph glyph-name="uni0402" unicode="&#x402;" horiz-adv-x="1722" 
d="M272 1444h1155l-24 -131h-504l-78 -400h326q267 0 372 -102t83 -336q-10 -119 -50 -206.5t-97.5 -139.5t-139 -82.5t-163 -40t-181.5 -6.5l26 131q122 -4 208 18.5t136 71t75 110t34 148.5q11 94 -3 154t-57.5 92.5t-104.5 44.5t-159 12h-329l-154 -782h-151l256 1313
h-500z" />
    <glyph glyph-name="uni0403" unicode="&#x403;" horiz-adv-x="1105" 
d="M455 1444h764l-27 -131h-729l-256 -1313h-154l260 1325q10 57 47.5 88t94.5 31zM473 1739l643 162l6 -127l-643 -160z" />
    <glyph glyph-name="uni0404" unicode="&#x404;" horiz-adv-x="1589" 
d="M758 -20q-207 0 -349.5 98t-201.5 265.5t-33 379.5q25 211 122.5 378t262.5 265t371 98q273 0 426 -154t155 -423h-153q2 214 -110.5 330t-327.5 116q-120 0 -220 -40.5t-172 -114.5t-120 -173.5t-70 -220.5h625l-23 -127h-618q-16 -248 98 -397t348 -149
q216 0 356.5 116.5t192.5 331.5h153q-63 -270 -251.5 -424.5t-460.5 -154.5z" />
    <glyph glyph-name="uni0405" unicode="&#x405;" horiz-adv-x="1392" 
d="M1272 377q-42 -397 -578 -397q-316 0 -470 144.5t-126 414.5h154q-29 -215 85.5 -322.5t362.5 -107.5q195 0 297 65t119 197q27 184 -225 264l-324 100q-309 96 -282 357q19 182 156.5 277t379.5 95q283 0 418.5 -128.5t112.5 -364.5h-154q25 182 -71 273t-310 91
q-342 0 -379 -237q-11 -86 38.5 -145t168.5 -95l320 -98q334 -103 307 -383z" />
    <glyph glyph-name="uni0406" unicode="&#x406;" horiz-adv-x="1062" 
d="M315 1444h797l-25 -131h-323l-229 -1182h321l-27 -131h-796l26 131h324l229 1182h-321z" />
    <glyph glyph-name="uni0407" unicode="&#x407;" horiz-adv-x="1062" 
d="M315 1444h797l-25 -131h-323l-229 -1182h321l-27 -131h-796l26 131h324l229 1182h-321zM428 1753q6 58 50.5 98.5t103.5 40.5t98 -41t33 -98q-4 -58 -49.5 -99.5t-104.5 -41.5t-97 41.5t-34 99.5zM836 1753q6 58 50 98.5t103 40.5q58 0 97 -41t34 -98q-4 -58 -49 -99.5
t-104 -41.5q-60 0 -98 41t-33 100z" />
    <glyph glyph-name="uni0408" unicode="&#x408;" horiz-adv-x="1085" 
d="M461 0h-490l27 131h457q144 0 225.5 88t114.5 262l161 832h-510l25 131h530q75 0 99 -27t10 -96l-170 -877q-43 -219 -165.5 -331.5t-313.5 -112.5z" />
    <glyph glyph-name="uni0409" unicode="&#x409;" horiz-adv-x="2232" 
d="M-2 131q150 8 242 134q96 131 180 469q49 197 149 710h867l-107 -553h273q105 0 185 -12t146.5 -42.5t106 -80t57.5 -126t8 -179.5q-12 -131 -57 -220.5t-123.5 -139t-176 -70.5t-230.5 -21h-517l256 1313h-561q-34 -174 -59 -293t-56 -250t-58 -215.5t-61 -174t-70 -143
t-80 -104.5t-95 -76.5t-112 -41t-134 -15.5zM1180 129h350q96 0 164 13.5t125 48t90.5 98.5t44.5 160q8 77 -4 132.5t-39.5 90t-75.5 55t-103.5 28t-132.5 7.5h-296z" />
    <glyph glyph-name="uni040A" unicode="&#x40a;" horiz-adv-x="2295" 
d="M338 1444h151l-131 -666h859l131 666h153l-106 -553h272q105 0 185 -12t146.5 -42.5t106.5 -80t58 -126t8 -179.5q-10 -105 -42 -183.5t-81.5 -129.5t-121.5 -82t-154.5 -43.5t-188.5 -12.5h-518l127 649h-858l-127 -649h-152zM1245 129h350q96 0 164 13.5t125 48
t90.5 98.5t44.5 160q10 95 -9 158t-69 96.5t-114.5 46t-161.5 12.5h-297z" />
    <glyph glyph-name="uni040B" unicode="&#x40b;" horiz-adv-x="1859" 
d="M1456 0l154 780h-809l-154 -780h-151l256 1313h-504l24 131h1162l-27 -131h-504l-78 -400h858q53 0 72.5 -25t9.5 -81l-157 -807h-152z" />
    <glyph glyph-name="uni040C" unicode="&#x40c;" horiz-adv-x="1343" 
d="M55 0l281 1444h151l-125 -647h113l561 573q39 39 74 57.5t82 18.5h258l-25 -131h-247l-580 -592l555 -723h-192l-515 664h-108l-131 -664h-152zM590 1739l643 162l6 -127l-643 -160z" />
    <glyph glyph-name="uni040D" unicode="&#x40d;" horiz-adv-x="1536" 
d="M1282 0h-152l252 1288l45 111h-45l-1017 -1399h-310l283 1444h151l-251 -1288l-45 -111h45l1017 1399h310zM698 1780l52 112l579 -159l-51 -113z" />
    <glyph glyph-name="uni040F" unicode="&#x40f;" horiz-adv-x="1392" 
d="M55 0l281 1444h151l-256 -1313h781l256 1313h153l-280 -1444h-467l-51 -268h-154l51 268h-465z" />
    <glyph glyph-name="uni0410" unicode="&#x410;" horiz-adv-x="1394" 
d="M-35 0l752 1444h330l186 -1444h-154l-73 575h-580l-299 -575h-162zM494 705h495l-90 694h-45z" />
    <glyph glyph-name="uni0411" unicode="&#x411;" horiz-adv-x="1288" 
d="M1249 1444l-24 -131h-760l-82 -422h272q105 0 185 -12t146.5 -42.5t106.5 -80t58 -126t8 -179.5q-10 -105 -42 -183.5t-81.5 -129.5t-121.5 -82t-154.5 -43.5t-188.5 -12.5h-516l283 1444h911zM233 129h351q96 0 164 13.5t125 48t90.5 98.5t44.5 160q8 77 -4 132.5
t-39.5 90t-75.5 55t-103.5 28t-132.5 7.5h-297z" />
    <glyph glyph-name="uni0412" unicode="&#x412;" horiz-adv-x="1402" 
d="M55 0l283 1444h422q110 0 191 -9.5t149 -33t109 -63.5t61 -102t14 -146q-8 -103 -59.5 -176t-125 -104.5t-159.5 -27.5l-8 -45q77 -5 137.5 -27.5t105 -63.5t64 -108t10.5 -155q-24 -207 -174.5 -295t-423.5 -88h-596zM233 127h429q81 0 140 6.5t114 24.5t91 49t61 81
t34 120q18 156 -76 219t-295 63h-387zM367 813h329q80 0 137.5 5.5t111.5 21.5t89 43.5t59 73t31 108.5q9 69 -3.5 116.5t-38 74t-79.5 40.5t-105.5 17.5t-137.5 3.5h-295z" />
    <glyph glyph-name="uni0413" unicode="&#x413;" horiz-adv-x="1105" 
d="M455 1444h764l-27 -131h-729l-256 -1313h-154l260 1325q10 57 47.5 88t94.5 31z" />
    <glyph glyph-name="uni0414" unicode="&#x414;" horiz-adv-x="1605" 
d="M1499 1444l-258 -1313h96q57 0 81.5 -31t13.5 -88l-54 -280h-153l51 268h-1163l-52 -268h-153l55 280q10 57 47 88t94 31h80q137 236 230 509t176 673l26 131h883zM336 131h751l232 1182h-576q-85 -402 -178 -675t-229 -507z" />
    <glyph glyph-name="uni0415" unicode="&#x415;" horiz-adv-x="1245" 
d="M55 0l283 1444h977l-25 -131h-825l-103 -525h723l-24 -129h-723l-105 -528h826l-27 -131h-977z" />
    <glyph glyph-name="uni0416" unicode="&#x416;" horiz-adv-x="2066" 
d="M1706 0l-467 666h-100l-129 -666h-152l129 666h-98l-694 -666h-215l782 752l-295 563h-248l25 131h231q91 0 133 -76l301 -575h103l127 649h151l-127 -649h107l497 575q67 76 160 76h260l-26 -131h-246l-520 -598l493 -717h-182z" />
    <glyph glyph-name="uni0417" unicode="&#x417;" horiz-adv-x="1378" 
d="M289 551q-37 -234 55 -338t305 -104q198 0 305 82t121 235q10 137 -59 204.5t-201 67.5h-170l23 127h227q132 0 203.5 61.5t85.5 168.5q7 60 -7 109t-51.5 88.5t-109.5 61t-174 21.5q-204 0 -313.5 -89.5t-137.5 -272.5h-153q29 239 185.5 365t430.5 126
q252 0 375 -103.5t112 -275.5q-8 -133 -94 -216t-250 -93l-8 -45q262 -65 236 -328q-19 -194 -170 -308.5t-414 -114.5q-283 0 -415.5 140.5t-90.5 430.5h154z" />
    <glyph glyph-name="uni0418" unicode="&#x418;" horiz-adv-x="1536" 
d="M1282 0h-152l252 1288l45 111h-45l-1017 -1399h-310l283 1444h151l-251 -1288l-45 -111h45l1017 1399h310z" />
    <glyph glyph-name="uni0419" unicode="&#x419;" horiz-adv-x="1536" 
d="M1282 0h-152l252 1288l45 111h-45l-1017 -1399h-310l283 1444h151l-251 -1288l-45 -111h45l1017 1399h310zM731 1929h127q-24 -118 26 -171.5t144 -53.5q93 0 138.5 54t66.5 171h125q-22 -162 -115.5 -256t-230.5 -94q-145 0 -223 97t-58 253z" />
    <glyph glyph-name="uni041A" unicode="&#x41a;" horiz-adv-x="1343" 
d="M55 0l281 1444h151l-125 -647h113l561 573q39 39 74 57.5t82 18.5h258l-25 -131h-247l-580 -592l555 -723h-192l-515 664h-108l-131 -664h-152z" />
    <glyph glyph-name="uni041B" unicode="&#x41b;" horiz-adv-x="1404" 
d="M-2 131q150 8 242 134q96 131 180 469q49 197 149 710h865l-281 -1444h-152l256 1313h-561q-34 -174 -59 -293t-56 -250t-58 -215.5t-61 -174t-70 -143t-80 -104.5t-95 -76.5t-112 -41t-134 -15.5z" />
    <glyph glyph-name="uni041C" unicode="&#x41c;" horiz-adv-x="1822" 
d="M55 0l283 1444h303l154 -1399h45l700 1399h313l-282 -1444h-154l248 1272l51 127h-45l-702 -1399h-312l-155 1399h-45l-2 -127l-248 -1272h-152z" />
    <glyph glyph-name="uni041D" unicode="&#x41d;" horiz-adv-x="1474" 
d="M338 1444h151l-131 -666h859l131 666h153l-282 -1444h-154l127 649h-858l-127 -649h-152z" />
    <glyph glyph-name="uni041E" unicode="&#x41e;" horiz-adv-x="1603" 
d="M176 723q15 157 73.5 292.5t152 235.5t226 156.5t287.5 56.5q154 0 275 -56.5t195.5 -156.5t107.5 -235t18 -293t-73.5 -294t-152.5 -235.5t-226.5 -156.5t-286.5 -57t-275 56.5t-195.5 156.5t-107.5 236t-18 294zM330 723q-15 -133 5 -244t74 -193.5t148 -128.5t221 -46
t230.5 46t175 128.5t115.5 193t59 244.5q20 179 -20.5 314.5t-149.5 215.5t-277 80t-294.5 -80.5t-196.5 -215.5t-90 -314z" />
    <glyph glyph-name="uni041F" unicode="&#x41f;" horiz-adv-x="1390" 
d="M338 1444h1081l-282 -1444h-152l256 1313h-778l-256 -1313h-152z" />
    <glyph glyph-name="uni0420" unicode="&#x420;" horiz-adv-x="1251" 
d="M55 0l283 1444h151l-178 -912l21 101h260q82 0 144 7.5t123.5 29t103.5 58.5t73 99t43 148q12 85 -1.5 146t-45 98t-86.5 58.5t-114.5 28.5t-141.5 7h-225l24 131h209q116 0 203 -13.5t158 -46.5t112.5 -86t57.5 -134t2 -189q-17 -135 -67.5 -228t-136 -145.5t-192.5 -75
t-253 -22.5h-277l-98 -504h-152z" />
    <glyph glyph-name="uni0421" unicode="&#x421;" horiz-adv-x="1589" 
d="M758 -20q-207 0 -349.5 98t-201.5 265.5t-33 379.5q25 211 122.5 378t262.5 265t371 98q273 0 426 -154t155 -423h-153q2 214 -110.5 330t-327.5 116q-251 0 -404.5 -168t-187.5 -442q-23 -180 16.5 -316t147.5 -216t276 -80q216 0 356.5 116.5t192.5 331.5h153
q-63 -270 -251.5 -424.5t-460.5 -154.5z" />
    <glyph glyph-name="uni0422" unicode="&#x422;" horiz-adv-x="1341" 
d="M272 1444h1162l-27 -131h-504l-256 -1313h-151l256 1313h-504z" />
    <glyph glyph-name="uni0423" unicode="&#x423;" horiz-adv-x="1308" 
d="M1255 1444h166l-694 -1012l-31 -158l-30 -155q-22 -119 -160 -119h-440l26 131h424l29 143l28 158l-301 1012h152l235 -813l-14 -70h45l15 70z" />
    <glyph glyph-name="uni0424" unicode="&#x424;" horiz-adv-x="1675" 
d="M950 1452h140l-41 -209q296 -23 439.5 -154t131.5 -370q-14 -264 -208 -398.5t-564 -134.5h-4l-37 -194h-139l39 201q-295 23 -439 154.5t-131 371.5q29 530 770 530h4zM291 719q-17 -189 93 -285.5t347 -114.5l156 801q-288 -3 -433.5 -98.5t-162.5 -302.5zM870 315
q288 3 434.5 101t161.5 303q13 188 -96.5 284t-345.5 113z" />
    <glyph glyph-name="uni0425" unicode="&#x425;" horiz-adv-x="1368" 
d="M1212 0h-163l-310 659h-45l-551 -659h-184l616 739l-333 705h161l314 -653h47l545 653h186l-618 -737z" />
    <glyph glyph-name="uni0426" unicode="&#x426;" horiz-adv-x="1400" 
d="M55 0l283 1444h151l-256 -1313h779l256 1313h151l-256 -1313h88q57 0 81.5 -31t13.5 -88l-54 -280h-153l51 268h-1135z" />
    <glyph glyph-name="uni0427" unicode="&#x427;" horiz-adv-x="1421" 
d="M334 1444h153l-157 -807h809l157 807h154l-283 -1444h-153l98 504h-858q-53 0 -72.5 25t-9.5 83z" />
    <glyph glyph-name="uni0428" unicode="&#x428;" horiz-adv-x="1931" 
d="M55 0l283 1444h151l-256 -1313h584l256 1313h152l-256 -1313h583l256 1313h152l-283 -1444h-1622z" />
    <glyph glyph-name="uni0429" unicode="&#x429;" horiz-adv-x="1941" 
d="M55 0l283 1444h151l-256 -1313h584l256 1313h152l-256 -1313h583l256 1313h152l-256 -1313h135q57 0 81 -31t13 -88l-53 -280h-154l52 268h-1723z" />
    <glyph glyph-name="uni042A" unicode="&#x42a;" horiz-adv-x="1298" 
d="M504 1444l-107 -553h273q105 0 185 -12t146.5 -42.5t106.5 -80t58 -126t8 -179.5q-10 -105 -42 -183.5t-81.5 -129.5t-121.5 -82t-154.5 -43.5t-188.5 -12.5h-516l256 1313h-248l22 131h404zM248 129h350q96 0 164 13.5t125 48t90.5 98.5t44.5 160q10 95 -9 158t-69 96.5
t-114.5 46t-161.5 12.5h-297z" />
    <glyph glyph-name="uni042B" unicode="&#x42b;" horiz-adv-x="1744" 
d="M489 1444l-106 -553h272q105 0 185 -12t146.5 -42.5t106.5 -80t58 -126t8 -179.5q-10 -105 -42 -183.5t-81.5 -129.5t-121.5 -82t-154.5 -43.5t-188.5 -12.5h-516l283 1444h151zM233 129h351q96 0 164 13.5t125 48t90.5 98.5t44.5 160q8 77 -4 132.5t-39.5 90t-75.5 55
t-103.5 28t-132.5 7.5h-297zM1341 0l283 1444h150l-283 -1444h-150z" />
    <glyph glyph-name="uni042C" unicode="&#x42c;" horiz-adv-x="1286" 
d="M489 1444l-106 -553h272q105 0 185 -12t146.5 -42.5t106.5 -80t58 -126t8 -179.5q-10 -105 -42 -183.5t-81.5 -129.5t-121.5 -82t-154.5 -43.5t-188.5 -12.5h-516l283 1444h151zM233 129h351q96 0 164 13.5t125 48t90.5 98.5t44.5 160q8 77 -4 132.5t-39.5 90t-75.5 55
t-103.5 28t-132.5 7.5h-297z" />
    <glyph glyph-name="uni042D" unicode="&#x42d;" horiz-adv-x="1589" 
d="M915 1464q207 0 349.5 -98t201.5 -265.5t33 -379.5q-25 -211 -122.5 -378t-262.5 -265t-371 -98q-273 0 -426 154t-155 423h153q-2 -214 111 -330t328 -116q120 0 220 40.5t172 114t119.5 173t69.5 220.5h-624l22 127h619q16 248 -98.5 397.5t-348.5 149.5
q-216 0 -356.5 -116.5t-192.5 -331.5h-153q63 270 251.5 424.5t460.5 154.5z" />
    <glyph glyph-name="uni042E" unicode="&#x42e;" horiz-adv-x="1894" 
d="M743 723q-11 -103 -8 -194.5t29.5 -168t71.5 -132t118 -86.5t168 -31q93 0 172 30.5t138.5 85t104.5 131t73 168t41 197.5q19 128 4.5 239.5t-56 194t-125 129.5t-200.5 47q-116 0 -210.5 -46t-159 -129.5t-105 -193t-56.5 -241.5zM55 0l283 1444h151l-129 -656h236
q26 148 82.5 270t141.5 213.5t203.5 142t258.5 50.5q147 0 257 -56t173 -156.5t87 -234.5t5 -294t-74 -295t-141 -235.5t-209 -156.5t-270 -56q-141 0 -247.5 50.5t-171 141.5t-92.5 214t-19 271h-244l-129 -657h-152z" />
    <glyph glyph-name="uni042F" unicode="&#x42f;" horiz-adv-x="1296" 
d="M1042 0h-151l131 668h-252l-76 2l-323 -592q-46 -78 -158 -78h-238l25 131h238l305 553q-157 29 -230 117.5t-55 255.5q12 113 57 189.5t124 119.5t177 60.5t234 17.5h475zM410 1057q-9 -67 3.5 -114.5t39.5 -76t78 -44t106 -20.5t137 -5h273l102 518h-311
q-82 0 -137.5 -5t-110.5 -20t-88.5 -43t-58 -75t-33.5 -115z" />
    <glyph glyph-name="uni0430" unicode="&#x430;" horiz-adv-x="1208" 
d="M72 279q6 126 90 204.5t252 91.5l460 39q17 151 -51 224t-205 73q-121 0 -193.5 -60.5t-107.5 -193.5h-155q43 177 159 279t300 102q106 0 188.5 -33t135.5 -97t71.5 -158t-4.5 -215l-78 -406h149l-24 -129h-176q-55 0 -81 31t-14 86l7 39l57 123h-47q-21 -50 -43.5 -90
t-58 -80.5t-77.5 -67.5t-102.5 -44t-132.5 -17q-84 0 -146.5 21.5t-95.5 52.5t-52 74.5t-23 78.5t-2 72zM225 299q-13 -93 38 -143t155 -50q162 0 283 113t153 277l-414 -39q-103 -9 -154 -45t-61 -113z" />
    <glyph glyph-name="uni0431" unicode="&#x431;" horiz-adv-x="1302" 
d="M168 698q28 150 80.5 258.5t135.5 182.5t189.5 119t253.5 73q106 19 165 34.5t95 38t49.5 43.5t30.5 64h183q-13 -48 -34.5 -87t-45 -65.5t-60 -48t-66 -34t-77.5 -23.5t-80 -16.5t-88 -14t-88 -14.5q-206 -37 -330 -126t-168 -253l-59 -96h47q59 141 170 221t266 80
q233 0 360 -159t81 -420q-38 -218 -180 -348t-371 -130q-142 0 -245 53t-158 148.5t-71.5 228t15.5 291.5zM293 559q-38 -195 61 -322.5t285 -127.5q157 0 258.5 95.5t132.5 264.5q20 111 3 193t-66 136.5t-118.5 81.5t-154.5 27q-164 0 -268 -96t-133 -252z" />
    <glyph glyph-name="uni0432" unicode="&#x432;" horiz-adv-x="1122" 
d="M53 0l197 1016h387q97 0 166 -11t122.5 -38t76 -76.5t14.5 -122.5q-6 -50 -25 -88.5t-43.5 -61t-56 -37t-58 -19.5t-53.5 -5l-10 -45q245 -15 223 -248q-31 -264 -434 -264h-506zM217 109h352q135 0 203 41t80 137q13 104 -45.5 145t-192.5 41h-325zM311 584h273
q71 0 114.5 5.5t82 22.5t58.5 50.5t27 87.5q10 87 -47 122t-194 35h-252z" />
    <glyph glyph-name="uni0433" unicode="&#x433;" horiz-adv-x="892" 
d="M225 881q23 135 162 135h555l-27 -129h-538l-172 -887h-152z" />
    <glyph glyph-name="uni0434" unicode="&#x434;" horiz-adv-x="1347" 
d="M178 129q113 172 188 379t134 508h680l-174 -887h88q57 0 81 -30.5t13 -86.5l-53 -280h-152l51 268h-915l-51 -268h-152l53 280q11 56 48 86.5t94 30.5h67zM328 129h528l150 758h-383q-54 -248 -123.5 -426.5t-171.5 -331.5z" />
    <glyph glyph-name="uni0435" unicode="&#x435;" horiz-adv-x="1200" 
d="M117 522q29 243 173.5 378.5t362.5 135.5q221 0 336 -130.5t90 -362.5l-8 -62h-815q-10 -110 16 -193t96 -133.5t179 -50.5q136 0 229 66t137 184h148q-25 -73 -64 -135t-100 -118.5t-152 -88.5t-202 -32q-120 0 -210 42.5t-140.5 117.5t-69.5 172t-6 210zM274 600h666
q4 148 -74.5 229.5t-222.5 81.5q-136 0 -237.5 -83t-131.5 -228z" />
    <glyph glyph-name="uni0436" unicode="&#x436;" horiz-adv-x="1615" 
d="M983 1016l-86 -445h74l338 369q70 76 153 76h172l-24 -129h-164l-336 -371l356 -516h-163l-308 442h-123l-86 -442h-153l86 442h-121l-451 -442h-192l561 549l-197 338h-165l24 129h144q89 0 131 -76l217 -369h73l86 445h154z" />
    <glyph glyph-name="uni0437" unicode="&#x437;" horiz-adv-x="1136" 
d="M256 397q-26 -158 41.5 -230.5t226.5 -72.5q279 0 293 209q6 89 -43.5 134.5t-157.5 45.5h-116l22 111h160q99 0 151.5 43t57.5 119q5 80 -53.5 123t-188.5 43q-152 0 -224.5 -57t-88.5 -165h-148q22 162 138.5 249t328.5 87q197 0 293.5 -72t91.5 -192
q-4 -97 -69.5 -150t-171.5 -63l-11 -47q186 -41 173 -225q-11 -143 -124.5 -225t-316.5 -82q-221 0 -331.5 103t-79.5 314h147z" />
    <glyph glyph-name="uni0438" unicode="&#x438;" horiz-adv-x="1257" 
d="M1008 0h-152l172 881l41 90h-45l-664 -971h-307l197 1016h149l-170 -881l-41 -90h43l664 971h309z" />
    <glyph glyph-name="uni0439" unicode="&#x439;" horiz-adv-x="1257" 
d="M1008 0h-152l172 881l41 90h-45l-664 -971h-307l197 1016h149l-170 -881l-41 -90h43l664 971h309zM508 1501h127q-24 -118 26 -171.5t144 -53.5q93 0 138.5 54t66.5 171h125q-22 -162 -116 -256t-231 -94q-145 0 -222.5 96.5t-57.5 253.5z" />
    <glyph glyph-name="uni043A" unicode="&#x43a;" horiz-adv-x="1046" 
d="M250 1016h151l-86 -445h91l339 369q73 76 158 76h164l-25 -129h-163l-336 -367l354 -520h-172l-309 442h-127l-84 -442h-152z" />
    <glyph glyph-name="uni043B" unicode="&#x43b;" horiz-adv-x="1177" 
d="M1124 1016l-196 -1016h-152l172 887h-418q-28 -139 -46.5 -225t-43 -185t-46 -156t-50.5 -118.5t-60.5 -93.5t-73 -60t-90 -38.5t-110.5 -10.5l27 129q37 0 66 9t54.5 33.5t45 53.5t39.5 85.5t35.5 111t36 147.5t37.5 179t43 221q6 31 9 47h721z" />
    <glyph glyph-name="uni043C" unicode="&#x43c;" horiz-adv-x="1466" 
d="M53 0l197 1016h295l71 -971h46l448 971h303l-196 -1016h-146l170 881l45 90h-47l-461 -971h-286l-86 971h-44l5 -90l-170 -881h-144z" />
    <glyph glyph-name="uni043D" unicode="&#x43d;" horiz-adv-x="1187" 
d="M250 1016h151l-86 -443h582l86 443h152l-197 -1016h-152l86 444h-581l-86 -444h-152z" />
    <glyph glyph-name="uni043E" unicode="&#x43e;" horiz-adv-x="1296" 
d="M117 508q6 109 49.5 205.5t115.5 168t175.5 113t222.5 41.5t217 -41.5t161.5 -113t96 -168t25.5 -205.5q-8 -146 -79.5 -265.5t-198 -191t-284.5 -71.5q-159 0 -277.5 71.5t-175.5 191t-48 265.5zM268 508q-11 -169 84 -284t275 -115q178 0 285 114.5t116 284.5
t-84.5 284.5t-271.5 114.5q-121 0 -212 -55.5t-138.5 -144.5t-53.5 -199z" />
    <glyph glyph-name="uni043F" unicode="&#x43f;" horiz-adv-x="1122" 
d="M250 1016h819l-25 -129l-172 -887h-149l172 887h-518l-172 -887h-152z" />
    <glyph glyph-name="uni0440" unicode="&#x440;" horiz-adv-x="1337" 
d="M-23 -393l275 1409h151l-22 -113l-45 -110h47q50 111 153 179t248 68q151 0 262 -73.5t158 -207t15 -300.5q-42 -213 -185.5 -345t-343.5 -132q-163 0 -277 86t-124 241h-43l2 -104l-119 -598h-152zM315 555q-21 -111 0 -198.5t74.5 -139t125 -78t155.5 -26.5
q158 0 262 91t137 271q40 212 -55 325t-281 113q-167 0 -276.5 -92.5t-141.5 -265.5z" />
    <glyph glyph-name="uni0441" unicode="&#x441;" horiz-adv-x="1206" 
d="M121 557q38 207 184 344t357 137q120 0 219.5 -44t164 -137.5t64.5 -221.5h-154q-1 133 -83 202.5t-211 69.5q-159 0 -261 -101.5t-133 -260.5q-12 -70 -10 -134.5t26 -120.5t62.5 -97.5t100 -65t139.5 -23.5q123 0 206.5 64.5t127.5 212.5h151q-22 -109 -75.5 -190.5
t-125 -127t-147.5 -67t-156 -21.5q-113 0 -207.5 43t-155 120.5t-85.5 184.5t2 234z" />
    <glyph glyph-name="uni0442" unicode="&#x442;" horiz-adv-x="1101" 
d="M190 1016h918l-25 -129h-383l-172 -887h-151l172 887h-385z" />
    <glyph glyph-name="uni0443" unicode="&#x443;" horiz-adv-x="1122" 
d="M1006 1016h170l-635 -1010l-11 -63l-47 -230q-19 -106 -125 -106h-415l26 133h367l41 203l10 63l-244 1010h158l174 -807l-14 -68h45l14 68z" />
    <glyph glyph-name="uni0444" unicode="&#x444;" horiz-adv-x="1507" 
d="M850 1382h147l-69 -354q165 -21 276 -96.5t156.5 -183t32.5 -238.5q-10 -109 -57.5 -203.5t-129.5 -167t-205.5 -115t-275.5 -44.5l-68 -349h-147l70 357q-125 16 -219.5 63t-150.5 117t-80 156.5t-15 185.5q10 108 57 201t128.5 165t205.5 114.5t276 45.5zM266 510
q-20 -158 61.5 -265.5t276.5 -129.5l154 790q-116 -5 -207.5 -38.5t-150 -88t-92 -122t-42.5 -146.5zM750 111q116 5 207 38.5t149.5 88.5t91.5 123t43 149q13 100 -15 180.5t-110 138t-213 72.5z" />
    <glyph glyph-name="uni0445" unicode="&#x445;" horiz-adv-x="1169" 
d="M-27 0l451 524l-254 492h164l225 -447h35l385 447h180l-450 -518l254 -498h-168l-224 446h-34l-385 -446h-179z" />
    <glyph glyph-name="uni0446" unicode="&#x446;" horiz-adv-x="1138" 
d="M53 0l25 129l172 887h149l-172 -887h518l173 887h151l-172 -887h90q57 0 81 -30.5t13 -86.5l-53 -280h-151l51 268h-875z" />
    <glyph glyph-name="uni0447" unicode="&#x447;" horiz-adv-x="1230" 
d="M250 1016h149l-102 -527h629l102 527h150l-197 -1016h-152l70 358h-674q-104 0 -86 91z" />
    <glyph glyph-name="uni0448" unicode="&#x448;" horiz-adv-x="1556" 
d="M53 0l25 129l172 887h151l-172 -887h400l172 887h151l-172 -887h400l172 887h151l-196 -1016h-1254z" />
    <glyph glyph-name="uni0449" unicode="&#x449;" horiz-adv-x="1570" 
d="M53 0l25 129l172 887h151l-172 -887h400l172 887h151l-172 -887h400l172 887h151l-172 -887h88q57 0 81 -30.5t13 -86.5l-53 -280h-151l51 268h-1307z" />
    <glyph glyph-name="uni044A" unicode="&#x44a;" horiz-adv-x="1083" 
d="M543 717q76 0 137 -10t114.5 -35.5t87.5 -65.5t50 -103t8 -145q-7 -82 -34.5 -144.5t-69 -102.5t-99.5 -65t-121 -35.5t-139 -10.5h-411l172 893h-252l26 129h402l-2 -6h2l-13 -62l-12 -61l-33 -176h187zM242 127h219q59 0 99 4t83 17.5t70 38t48.5 67.5t29.5 104
q7 61 -3 104t-31.5 68t-61 38.5t-79 17.5t-98.5 4h-188z" />
    <glyph glyph-name="uni044B" unicode="&#x44b;" horiz-adv-x="1484" 
d="M530 717q96 0 169 -17t130 -56.5t83 -111.5t16 -174q-7 -82 -34.5 -144.5t-69 -102.5t-99.5 -65t-121 -35.5t-139 -10.5h-412l197 1016h151l-57 -299h186zM229 127h220q59 0 99 4t83 17.5t70 38t48 67.5t29 104q7 61 -3 104t-31 68t-60.5 38.5t-79 17.5t-98.5 4h-189z
M1104 0l196 1016h152l-197 -1016h-151z" />
    <glyph glyph-name="uni044C" unicode="&#x44c;" horiz-adv-x="1071" 
d="M530 717q96 0 169 -17t130 -56.5t83 -111.5t16 -174q-7 -82 -34.5 -144.5t-69 -102.5t-99.5 -65t-121 -35.5t-139 -10.5h-412l197 1016h151l-57 -299h186zM229 127h220q59 0 99 4t83 17.5t70 38t48 67.5t29 104q7 61 -3 104t-31 68t-60.5 38.5t-79 17.5t-98.5 4h-189z
" />
    <glyph glyph-name="uni044D" unicode="&#x44d;" horiz-adv-x="1206" 
d="M1085 459q-18 -100 -64.5 -187.5t-114.5 -153t-161.5 -103.5t-199.5 -38q-120 0 -220 44.5t-164.5 138t-64.5 221.5h154q1 -133 83.5 -202.5t211.5 -69.5q154 0 254.5 96t134.5 246h-488l23 120h479q1 97 -32.5 172t-109 121.5t-185.5 46.5q-123 0 -206.5 -64
t-127.5 -212h-152q18 88 57 158.5t89 115.5t111.5 75.5t122.5 43t124 12.5q113 0 207.5 -43t155 -120t85 -184t-1.5 -234z" />
    <glyph glyph-name="uni044E" unicode="&#x44e;" horiz-adv-x="1640" 
d="M991 -20q-111 0 -197 36t-140 99.5t-81.5 147t-27.5 181.5h-254l-86 -444h-152l197 1016h151l-86 -443h240q18 98 60.5 181.5t108 146.5t158 99t203.5 36q119 0 210 -42t143.5 -114.5t75 -167.5t12.5 -204q-9 -109 -49 -204t-106 -167.5t-164 -114.5t-216 -42zM698 508
q-6 -65 -3 -124t24.5 -109.5t55.5 -87t90 -57.5t128 -21q89 0 159 31.5t115 88t71 126t36 153.5t-1 154t-43.5 126t-96 87.5t-152.5 31.5q-90 0 -160.5 -31.5t-115.5 -88t-71 -126t-36 -153.5z" />
    <glyph glyph-name="uni044F" unicode="&#x44f;" horiz-adv-x="1015" 
d="M764 0h-150l197 1016h152zM-61 0l22 121h148l206 334q-125 20 -178 86t-41 188q8 81 39 137.5t84.5 89t120 46.5t156.5 14h315l-20 -103h-304q-114 0 -172 -44.5t-67 -137.5q-10 -93 36.5 -136.5t157.5 -43.5h279l-21 -105h-233l-240 -368q-50 -78 -155 -78h-133z" />
    <glyph glyph-name="uni0450" unicode="&#x450;" horiz-adv-x="1200" 
d="M1085 1305l-51 -113l-579 160l51 112zM117 522q29 243 173.5 378.5t362.5 135.5q221 0 336 -130.5t90 -362.5l-8 -62h-815q-10 -110 16 -193t96 -133.5t179 -50.5q136 0 229 66t137 184h148q-25 -73 -64 -135t-100 -118.5t-152 -88.5t-202 -32q-120 0 -210 42.5
t-140.5 117.5t-69.5 172t-6 210zM274 600h666q4 148 -74.5 229.5t-222.5 81.5q-136 0 -237.5 -83t-131.5 -228z" />
    <glyph glyph-name="uni0451" unicode="&#x451;" horiz-adv-x="1200" 
d="M553 1184q-59 0 -97 41.5t-34 99.5q6 58 50 98.5t103 40.5t98.5 -41t33.5 -98q-4 -58 -49.5 -99.5t-104.5 -41.5zM117 522q29 243 173.5 378.5t362.5 135.5q221 0 336 -130.5t90 -362.5l-8 -62h-815q-10 -110 16 -193t96 -133.5t179 -50.5q136 0 229 66t137 184h148
q-25 -73 -64 -135t-100 -118.5t-152 -88.5t-202 -32q-120 0 -210 42.5t-140.5 117.5t-69.5 172t-6 210zM274 600h666q4 148 -74.5 229.5t-222.5 81.5q-136 0 -237.5 -83t-131.5 -228zM829 1325q6 58 50.5 98.5t103.5 40.5q58 0 97 -41t34 -98q-4 -58 -49 -99.5t-104 -41.5
q-60 0 -98.5 41t-33.5 100z" />
    <glyph glyph-name="uni0452" unicode="&#x452;" horiz-adv-x="1226" 
d="M61 0l244 1262h-112l22 124h115l22 119h152l-23 -119h293l-22 -124h-295l-76 -390l-49 -110h49q55 126 159 198t242 72q194 0 281.5 -120t44.5 -332l-111 -580h-2l-53 -274q-22 -119 -158 -119h-381l23 129h367l51 264h2l112 582q32 167 -28 246t-211 79
q-153 0 -265 -117t-149 -309l-92 -481h-152z" />
    <glyph glyph-name="uni0453" unicode="&#x453;" horiz-adv-x="897" 
d="M225 881q23 135 162 135h555l-27 -129h-538l-172 -887h-152zM352 1311l643 162l6 -127l-643 -160z" />
    <glyph glyph-name="uni0454" unicode="&#x454;" horiz-adv-x="1206" 
d="M121 557q38 207 184 344t357 137q120 0 219.5 -44t164 -137.5t64.5 -221.5h-154q-1 133 -83 202.5t-211 69.5q-154 0 -255 -96t-135 -246h488l-23 -121h-479q-1 -97 33 -172t109.5 -121.5t185.5 -46.5q123 0 206.5 64.5t127.5 212.5h151q-22 -109 -75.5 -190.5t-125 -127
t-147.5 -67t-156 -21.5q-113 0 -207.5 43t-155 120.5t-85.5 184.5t2 234z" />
    <glyph glyph-name="uni0455" unicode="&#x455;" horiz-adv-x="1015" 
d="M504 -25q-108 0 -194 25.5t-146.5 76t-85.5 131t-8 183.5h149q-14 -75 2.5 -132.5t59 -91t101.5 -50.5t132 -17q196 0 225 152q11 57 -18.5 94t-112.5 68l-243 92q-215 81 -179 276q25 122 125.5 189t255.5 67q128 0 220 -38t137.5 -119.5t25.5 -196.5h-151
q19 104 -44.5 166.5t-193.5 62.5q-90 0 -151 -37t-70 -94q-12 -57 16.5 -95t102.5 -66l223 -82q124 -47 177 -118.5t32 -180.5q-25 -128 -125 -196.5t-262 -68.5z" />
    <glyph glyph-name="uni0456" unicode="&#x456;" horiz-adv-x="886" 
d="M14 0l25 129h280l148 758h-203l25 129h237q53 0 73.5 -26.5t10.5 -84.5l-149 -776h282l-24 -129h-705zM469 1335q6 54 49 92.5t98 38.5q56 0 91.5 -38.5t29.5 -92.5q-4 -55 -47.5 -94t-99.5 -39q-55 0 -90.5 38.5t-30.5 94.5z" />
    <glyph glyph-name="uni0457" unicode="&#x457;" horiz-adv-x="886" 
d="M14 0l25 129h280l148 758h-203l25 129h237q53 0 73.5 -26.5t10.5 -84.5l-149 -776h282l-24 -129h-705zM256 1325q6 58 50.5 98.5t103.5 40.5t98 -41t33 -98q-4 -58 -49.5 -99.5t-104.5 -41.5t-97 41.5t-34 99.5zM664 1325q6 58 50 98.5t103 40.5q58 0 97 -41t34 -98
q-4 -58 -49 -99.5t-104 -41.5q-60 0 -98 41t-33 100z" />
    <glyph glyph-name="uni0458" unicode="&#x458;" horiz-adv-x="589" 
d="M135 -57q32 39 46 72t24 83l153 789h-208l24 129h240q60 0 84.5 -24.5t11.5 -82.5l-162 -839q-9 -49 -23 -82.5t-44 -73.5l-215 -295h-162zM365 1335q6 54 49 92.5t98 38.5q56 0 91.5 -38.5t29.5 -92.5q-4 -55 -48 -94t-100 -39q-55 0 -90 38.5t-30 94.5z" />
    <glyph glyph-name="uni0459" unicode="&#x459;" horiz-adv-x="1794" 
d="M1124 1016l-57 -299h186q96 0 169 -17t130 -56.5t83 -111.5t16 -174q-7 -82 -34.5 -144.5t-69 -102.5t-99.5 -65t-121 -35.5t-139 -10.5h-412l172 887h-418q-28 -139 -46.5 -225t-43 -185t-46 -156t-50.5 -118.5t-60.5 -93.5t-73 -60t-90 -38.5t-110.5 -10.5l27 129
q37 0 66 9t54.5 33.5t45 53.5t39.5 85.5t35.5 111t36 147.5t37.5 179t43 221q6 31 9 47h721zM952 127h219q59 0 99 4t83 17.5t70 38t48.5 67.5t29.5 104q7 61 -3 104t-31 68t-60.5 38.5t-79 17.5t-98.5 4h-187z" />
    <glyph glyph-name="uni045A" unicode="&#x45a;" horiz-adv-x="1802" 
d="M250 1016h151l-86 -443h582l86 443h152l-58 -299h187q76 0 137 -10t114.5 -35.5t87.5 -65.5t50 -103t8 -145q-7 -82 -34.5 -144.5t-69 -102.5t-99.5 -65t-121 -35.5t-139 -10.5h-412l86 444h-581l-86 -444h-152zM963 127h219q59 0 99 4t83 17.5t70 38t48 67.5t29 104
q7 61 -3 104t-31 68t-60.5 38.5t-79 17.5t-98.5 4h-186z" />
    <glyph glyph-name="uni045B" unicode="&#x45b;" horiz-adv-x="1226" 
d="M61 0l244 1262h-112l22 124h115l22 119h152l-23 -119h293l-22 -124h-295l-76 -390l-49 -110h49q55 126 159 198t242 72q194 0 281.5 -120t44.5 -332l-111 -580h-151l112 582q32 167 -28 246t-211 79q-153 0 -265 -117t-149 -309l-92 -481h-152z" />
    <glyph glyph-name="uni045C" unicode="&#x45c;" horiz-adv-x="1046" 
d="M250 1016h151l-86 -445h91l339 369q73 76 158 76h164l-25 -129h-163l-336 -367l354 -520h-172l-309 442h-127l-84 -442h-152zM358 1311l643 162l7 -127l-643 -160z" />
    <glyph glyph-name="uni045F" unicode="&#x45f;" horiz-adv-x="1187" 
d="M53 0l197 1014h151l-174 -885h582l172 885h152l-197 -1014h-367l-53 -268h-149l51 268h-365z" />
    <glyph glyph-name="uni0490" unicode="&#x490;" horiz-adv-x="1103" 
d="M455 1444h608l37 188h153l-36 -188h2l-27 -131h-729l-256 -1313h-154l260 1325q10 57 47.5 88t94.5 31z" />
    <glyph glyph-name="uni0491" unicode="&#x491;" horiz-adv-x="897" 
d="M225 881q23 135 162 135h401l48 248h151l-47 -248h2l-27 -129h-538l-172 -887h-152z" />
    <glyph glyph-name="uni1E20" unicode="&#x1e20;" horiz-adv-x="1613" 
d="M743 -20q-161 0 -279.5 55.5t-186 155t-93.5 230.5t-10 288q23 226 118 395.5t258.5 264.5t375.5 95q258 0 406 -141.5t159 -394.5h-154q-5 195 -111.5 301t-301.5 106q-169 0 -297.5 -80t-203 -220.5t-95.5 -329.5q-14 -126 3 -230.5t67 -188t146.5 -130.5t233.5 -47
q243 0 373 134t176 406h-600l23 119h636q62 0 85 -25.5t12 -80.5l-127 -662h-156l21 98l118 260h-51q-11 -44 -31.5 -89t-64 -98.5t-101.5 -94.5t-148.5 -68.5t-199.5 -27.5zM666 1694v127h639v-125z" />
    <glyph glyph-name="uni1E21" unicode="&#x1e21;" horiz-adv-x="1339" 
d="M555 -25q-232 0 -357.5 164.5t-76.5 415.5q42 215 185 347t343 132q162 0 277 -86.5t125 -242.5h43l-2 106l41 205h153l-199 -1016l-53 -274q-25 -119 -157 -119h-758l24 129h742l51 264l20 113l48 110h-48q-50 -112 -153.5 -180t-247.5 -68zM270 541q-40 -212 55 -325.5
t281 -113.5q166 0 276 93t142 266q19 116 0 199.5t-73.5 137.5t-125.5 79.5t-155 25.5q-159 0 -263 -91t-137 -271zM446 1266v127h639v-125z" />
    <glyph glyph-name="Wgrave" unicode="&#x1e80;" horiz-adv-x="1828" 
d="M1966 1444l-555 -1444h-299v1399h-45l-541 -1399h-301l2 1444h150l10 -1266l-37 -133h45l543 1399h315l-2 -1399h47l21 133l491 1266h156zM844 1780l51 112l580 -159l-52 -113z" />
    <glyph glyph-name="wgrave" unicode="&#x1e81;" horiz-adv-x="1757" 
d="M174 1016h141l78 -848l-24 -123h41l411 971h309l35 -971h41l23 125l403 846h146l-480 -1016h-276l-31 971h-45l-407 -971h-281zM725 1352l51 112l580 -159l-51 -113z" />
    <glyph glyph-name="Wacute" unicode="&#x1e82;" horiz-adv-x="1828" 
d="M1966 1444l-555 -1444h-299v1399h-45l-541 -1399h-301l2 1444h150l10 -1266l-37 -133h45l543 1399h315l-2 -1399h47l21 133l491 1266h156zM831 1739l644 162l6 -127l-643 -160z" />
    <glyph glyph-name="wacute" unicode="&#x1e83;" horiz-adv-x="1757" 
d="M174 1016h141l78 -848l-24 -123h41l411 971h309l35 -971h41l23 125l403 846h146l-480 -1016h-276l-31 971h-45l-407 -971h-281zM713 1311l643 162l6 -127l-643 -160z" />
    <glyph glyph-name="Wdieresis" unicode="&#x1e84;" horiz-adv-x="1828" 
d="M1966 1444l-555 -1444h-299v1399h-45l-541 -1399h-301l2 1444h150l10 -1266l-37 -133h45l543 1399h315l-2 -1399h47l21 133l491 1266h156zM811 1753q6 58 50.5 98.5t103.5 40.5t98 -41t33 -98q-4 -58 -49.5 -99.5t-104.5 -41.5t-97 41.5t-34 99.5zM1219 1753
q6 58 50 98.5t103 40.5q58 0 97 -41t34 -98q-4 -58 -49 -99.5t-104 -41.5q-60 0 -98 41t-33 100z" />
    <glyph glyph-name="wdieresis" unicode="&#x1e85;" horiz-adv-x="1757" 
d="M174 1016h141l78 -848l-24 -123h41l411 971h309l35 -971h41l23 125l403 846h146l-480 -1016h-276l-31 971h-45l-407 -971h-281zM692 1325q6 58 50.5 98.5t103.5 40.5t98 -41t33 -98q-4 -58 -49.5 -99.5t-104.5 -41.5t-97 41.5t-34 99.5zM1100 1325q6 58 50 98.5t103 40.5
q58 0 97 -41t34 -98q-4 -58 -49 -99.5t-104 -41.5q-60 0 -98 41t-33 100z" />
    <glyph glyph-name="uni1E9E" unicode="&#x1e9e;" horiz-adv-x="1304" 
d="M258 1049q41 206 171.5 310.5t330.5 104.5q99 0 185.5 -25.5t148 -72.5t87.5 -120t5 -161q-24 -107 -130 -188t-300 -113l2 -41q77 9 148 7.5t132 -25.5t104.5 -63t65.5 -104t15 -148q-6 -83 -34.5 -149.5t-67 -108.5t-93 -72.5t-100.5 -45.5t-103 -23t-85.5 -9.5
t-61.5 -1.5h-354l24 131h342q172 0 269.5 75.5t111.5 215.5q8 79 -21.5 134t-83 78.5t-122.5 30.5t-139 -10l-19 205q173 27 252 84.5t96 138.5q26 122 -54.5 187t-219.5 65q-291 0 -354 -317l-197 -1018h-152z" />
    <glyph glyph-name="uni1EBC" unicode="&#x1ebc;" horiz-adv-x="1245" 
d="M55 0l283 1444h977l-25 -131h-825l-103 -525h723l-24 -129h-723l-105 -528h826l-27 -131h-977zM459 1636q39 269 235 269q47 0 86 -17t64.5 -41t48 -48t46.5 -41t48 -17q40 0 68.5 29.5t44.5 113.5h125q-39 -268 -234 -268q-47 0 -86.5 17t-65.5 41t-48.5 48t-46.5 41
t-48 17q-39 0 -67 -29.5t-45 -114.5h-125z" />
    <glyph glyph-name="uni1EBD" unicode="&#x1ebd;" horiz-adv-x="1200" 
d="M387 1208q39 269 236 269q47 0 85.5 -17t64.5 -41t48 -48t46 -41t48 -17q40 0 68.5 29.5t44.5 113.5h125q-39 -268 -233 -268q-47 0 -86.5 17t-65.5 41t-48.5 48t-46.5 41t-48 17q-40 0 -68 -30t-45 -114h-125zM117 522q29 243 173.5 378.5t362.5 135.5q221 0 336 -130.5
t90 -362.5l-8 -62h-815q-10 -110 16 -193t96 -133.5t179 -50.5q136 0 229 66t137 184h148q-25 -73 -64 -135t-100 -118.5t-152 -88.5t-202 -32q-120 0 -210 42.5t-140.5 117.5t-69.5 172t-6 210zM274 600h666q4 148 -74.5 229.5t-222.5 81.5q-136 0 -237.5 -83t-131.5 -228z
" />
    <glyph glyph-name="Ygrave" unicode="&#x1ef2;" horiz-adv-x="1335" 
d="M1282 1444h166l-604 -826h-78l-123 -618h-151l120 618h-77l-283 826h156l262 -785h45zM598 1780l51 112l580 -159l-51 -113z" />
    <glyph glyph-name="ygrave" unicode="&#x1ef3;" horiz-adv-x="1200" 
d="M1167 1016l-196 -1016h2l-53 -274q-25 -119 -158 -119h-758l25 129h741l51 264h-2l29 143l49 111h-49q-55 -126 -159.5 -198t-242.5 -72q-193 0 -280 120t-47 332l112 580h152l-113 -582q-33 -166 27.5 -245.5t212.5 -79.5q153 0 265 117t149 309l92 481h151zM365 1352
l51 112l579 -159l-51 -113z" />
    <glyph glyph-name="uni1EF8" unicode="&#x1ef8;" horiz-adv-x="1335" 
d="M1282 1444h166l-604 -826h-78l-123 -618h-151l120 618h-77l-283 826h156l262 -785h45zM528 1636q39 269 236 269q47 0 86 -17t64.5 -41t48 -48t46.5 -41t48 -17q40 0 68 29.5t44 113.5h125q-39 -268 -233 -268q-47 0 -86.5 17t-65.5 41t-48.5 48t-46.5 41t-48 17
q-40 0 -68 -30t-45 -114h-125z" />
    <glyph glyph-name="uni1EF9" unicode="&#x1ef9;" horiz-adv-x="1200" 
d="M1167 1016l-196 -1016h2l-53 -274q-25 -119 -158 -119h-758l25 129h741l51 264h-2l29 143l49 111h-49q-55 -126 -159.5 -198t-242.5 -72q-193 0 -280 120t-47 332l112 580h152l-113 -582q-33 -166 27.5 -245.5t212.5 -79.5q153 0 265 117t149 309l92 481h151zM297 1208
q39 269 235 269q47 0 86 -17t64.5 -41t48 -48t46.5 -41t48 -17q40 0 68.5 29.5t44.5 113.5h125q-39 -268 -234 -268q-47 0 -86.5 17t-65.5 41t-48 48t-46 41t-48 17q-40 0 -68 -30t-45 -114h-125z" />
    <glyph glyph-name="endash" unicode="&#x2013;" horiz-adv-x="1724" 
d="M188 575h1375l-23 -126h-1376z" />
    <glyph glyph-name="emdash" unicode="&#x2014;" horiz-adv-x="2134" 
d="M188 575h1784l-22 -126h-1786z" />
    <glyph glyph-name="quoteleft" unicode="&#x2018;" horiz-adv-x="643" 
d="M401 944l-133 51l264 561l134 -51z" />
    <glyph glyph-name="quoteright" unicode="&#x2019;" horiz-adv-x="638" 
d="M422 944l-53 580l137 32l53 -579z" />
    <glyph glyph-name="quotesinglbase" unicode="&#x201a;" horiz-adv-x="645" 
d="M293 328l133 -52l-264 -561l-133 52z" />
    <glyph glyph-name="quotedblleft" unicode="&#x201c;" horiz-adv-x="911" 
d="M401 944l-133 51l264 561l134 -51zM537 995l264 561l133 -51l-264 -561z" />
    <glyph glyph-name="quotedblright" unicode="&#x201d;" horiz-adv-x="903" 
d="M422 944l-53 580l137 32l53 -579zM635 1524l137 32l53 -579l-137 -33z" />
    <glyph glyph-name="quotedblbase" unicode="&#x201e;" horiz-adv-x="911" 
d="M293 328l133 -52l-264 -561l-133 52zM297 -233l264 561l133 -52l-264 -561z" />
    <glyph glyph-name="dagger" unicode="&#x2020;" horiz-adv-x="1134" 
d="M745 1747h125l-77 -401h331l-24 -127h-332l-176 -910h-125l176 910h-332l25 127h332z" />
    <glyph glyph-name="daggerdbl" unicode="&#x2021;" horiz-adv-x="1136" 
d="M238 838h331l74 381h-330l25 127h330l77 401h127l-77 -401h331l-24 -127h-332l-74 -381h330l-25 -127h-329l-78 -402h-127l78 402h-332z" />
    <glyph glyph-name="bullet" unicode="&#x2022;" horiz-adv-x="1318" 
d="M635 27q-203 0 -334.5 139t-122.5 346q9 197 155.5 335t348.5 138q97 0 184.5 -37.5t149.5 -100.5t96.5 -151t30.5 -184q-9 -204 -159 -344.5t-349 -140.5z" />
    <glyph glyph-name="ellipsis" unicode="&#x2026;" horiz-adv-x="1908" 
d="M260 -20q-69 0 -114 47.5t-42 117.5q3 68 53 115t119 47q68 0 114.5 -47.5t43.5 -114.5q-3 -70 -54.5 -117.5t-119.5 -47.5zM719 145q3 68 53 115t119 47q68 0 114.5 -47.5t43.5 -114.5q-3 -70 -55 -117.5t-120 -47.5q-69 0 -113.5 47.5t-41.5 117.5zM1333 145
q3 68 53 115t119 47q68 0 114.5 -47.5t43.5 -114.5q-3 -70 -54.5 -117.5t-119.5 -47.5q-69 0 -114 47.5t-42 117.5z" />
    <glyph glyph-name="perthousand" unicode="&#x2030;" horiz-adv-x="3258" 
d="M565 608q-184 0 -295 121.5t-102 296.5q9 176 132 297t308 121q184 0 295.5 -121.5t102.5 -296.5q-9 -176 -132.5 -297t-308.5 -121zM293 1026q-6 -121 72.5 -207t205.5 -86q128 0 215 86t93 207t-72.5 207t-204.5 86q-127 0 -215 -86t-94 -207zM639 27l991 1425l105 -49
l-992 -1426zM1368 406q9 176 132 296.5t308 120.5q184 0 295.5 -121t102.5 -296q-9 -176 -132.5 -297t-308.5 -121q-184 0 -295 121.5t-102 296.5zM1493 406q-6 -121 73 -207t206 -86q128 0 214.5 86t92.5 207t-72 206.5t-205 85.5t-215 -85.5t-94 -206.5zM2337 406
q9 176 132 296.5t308 120.5q184 0 295 -121t102 -296q-9 -176 -132 -297t-308 -121q-184 0 -295 121.5t-102 296.5zM2462 406q-6 -121 72.5 -207t205.5 -86q128 0 214.5 86t92.5 207t-72 206.5t-204 85.5q-127 0 -215 -85.5t-94 -206.5z" />
    <glyph glyph-name="guilsinglleft" unicode="&#x2039;" horiz-adv-x="1007" 
d="M745 41l-110 -84l-459 565l658 547l92 -96l-559 -465z" />
    <glyph glyph-name="guilsinglright" unicode="&#x203a;" horiz-adv-x="1007" 
d="M264 985l111 84l459 -565l-658 -547l-92 96l559 465z" />
    <glyph glyph-name="fraction" unicode="&#x2044;" horiz-adv-x="589" 
d="M778 1452l105 -49l-992 -1426l-104 50z" />
    <glyph glyph-name="uni2070" unicode="&#x2070;" horiz-adv-x="1046" 
d="M268 1446q27 230 160.5 375t341.5 145q139 0 230.5 -68.5t126.5 -185t16 -266.5q-29 -231 -162 -375.5t-340 -144.5q-139 0 -230.5 68t-126.5 184.5t-16 267.5zM403 1446q-17 -122 5 -219l550 536q-67 86 -194 86q-147 0 -240.5 -109.5t-120.5 -293.5zM453 1130
q66 -88 194 -88q147 0 240.5 109.5t120.5 294.5q18 126 -7 221z" />
    <glyph glyph-name="uni2074" unicode="&#x2074;" horiz-adv-x="956" 
d="M260 1397q194 69 342.5 213.5t206.5 341.5h133q-139 -469 -668 -666l-6 -37l97 23h403l68 344h135l-68 -344h127l-22 -117h-127l-41 -215h-135l40 215h-530z" />
    <glyph glyph-name="uni2075" unicode="&#x2075;" horiz-adv-x="1026" 
d="M647 926q-195 0 -303 96t-98 278h135q-11 -125 59 -191.5t211 -66.5q132 0 212 70.5t89 198.5q9 117 -51.5 179t-181.5 62q-151 0 -264 -129l-172 107l190 422h668l-23 -117h-559l-153 -334l28 -16q106 178 322 178q165 0 253 -92t78 -262q-10 -177 -130 -280t-310 -103z
" />
    <glyph glyph-name="uni2076" unicode="&#x2076;" horiz-adv-x="993" 
d="M272 1456q22 140 75 239t131.5 155t170.5 80.5t205 23.5l262 -2l-20 -117l-277 2q-97 1 -172 -22.5t-125 -67.5t-81.5 -96.5t-51.5 -120.5l-49 -72l37 -4q40 98 126 151.5t208 53.5q182 0 281 -113t67 -291q-27 -153 -134 -240t-278 -87q-75 0 -138 17.5t-116.5 56.5
t-84.5 100.5t-43.5 149.5t7.5 204zM383 1333q-22 -119 52 -202.5t218 -83.5q116 0 186 58.5t89 166.5q22 136 -52.5 208t-205.5 72q-120 0 -194.5 -59.5t-92.5 -159.5z" />
    <glyph glyph-name="uni2077" unicode="&#x2077;" horiz-adv-x="841" 
d="M295 940q64 324 240.5 539t474.5 342l8 37l-92 -23h-619l23 117h743l-43 -221q-247 -111 -390.5 -301.5t-201.5 -489.5h-143z" />
    <glyph glyph-name="uni2078" unicode="&#x2078;" horiz-adv-x="964" 
d="M203 1219q19 212 299 264l8 37q-74 27 -116 72t-34 128q7 83 60.5 139.5t135 81.5t185.5 25q102 0 178.5 -25t121.5 -81.5t38 -139.5q-20 -177 -237 -209l-8 -36q104 -35 158 -94.5t44 -163.5q-14 -132 -133 -211.5t-313 -79.5q-190 0 -294.5 79.5t-92.5 213.5zM340 1235
q-10 -88 56 -144.5t206 -56.5q139 0 216 56t87 145q9 93 -55 147t-205 54q-142 0 -219 -54t-86 -147zM489 1704q-20 -152 207 -152q224 0 244 152q7 77 -45.5 115.5t-161.5 38.5q-226 0 -244 -154z" />
    <glyph glyph-name="uni2079" unicode="&#x2079;" horiz-adv-x="993" 
d="M1083 1427q-22 -140 -75 -239t-131 -154.5t-169.5 -80t-205.5 -23.5l-264 2l22 117l277 -2q97 -1 172 22.5t125 67.5t81.5 96.5t51.5 120.5l47 71l-35 5q-42 -98 -127.5 -151.5t-206.5 -53.5q-182 0 -281 112.5t-67 290.5q25 153 133 240.5t279 87.5q74 0 136.5 -17.5
t116 -56.5t85 -100.5t44 -150t-7.5 -204.5zM428 1612q-22 -135 52.5 -208t203.5 -73q121 0 196 59.5t93 159.5q21 120 -53.5 204.5t-217.5 84.5q-115 0 -185 -59t-89 -168z" />
    <glyph glyph-name="uni2080" unicode="&#x2080;" horiz-adv-x="1046" 
d="M47 301q27 230 160.5 375t341.5 145q139 0 230.5 -68.5t126.5 -185t16 -266.5q-29 -231 -162 -375.5t-340 -144.5q-139 0 -230.5 68t-126.5 184.5t-16 267.5zM182 301q-18 -124 4 -219l551 536q-68 87 -194 87q-147 0 -240.5 -110t-120.5 -294zM231 -14q66 -88 195 -88
q147 0 240 109t120 294q18 128 -6 221z" />
    <glyph glyph-name="uni2081" unicode="&#x2081;" horiz-adv-x="712" 
d="M328 -205l174 885l39 88h-37q-24 -93 -55.5 -166t-81 -145.5t-125.5 -125.5t-176 -83l-23 125q279 102 346 434h273l-197 -1012h-137z" />
    <glyph glyph-name="uni2082" unicode="&#x2082;" horiz-adv-x="962" 
d="M45 350q44 244 165.5 357.5t299.5 113.5q83 0 153 -23t122.5 -69t74.5 -122.5t6 -174.5q-17 -101 -70 -184t-131.5 -140.5t-182.5 -98.5t-220.5 -61.5t-247.5 -25.5l-8 -35l230 25h528l-23 -117h-790l45 236q41 1 87.5 4.5t116 15t133.5 29.5t133 50.5t122 74.5t93 105
t54 139q20 120 -38 188t-187 68q-136 0 -215.5 -84.5t-116.5 -270.5h-133z" />
    <glyph glyph-name="uni2083" unicode="&#x2083;" horiz-adv-x="972" 
d="M147 180q-23 -152 37.5 -217t206.5 -65q134 0 200 48.5t75 147.5q17 176 -170 176h-117l22 111h158q172 0 184 147q8 84 -44 130.5t-181 46.5q-138 0 -210 -56t-89 -174h-133q19 170 131.5 258t306.5 88q181 0 272.5 -73t86.5 -193q-10 -204 -256 -215l-9 -37
q96 -12 144.5 -68.5t38.5 -158.5q-13 -141 -122 -218t-294 -77q-201 0 -300 97t-71 302h133z" />
    <glyph glyph-name="uni2084" unicode="&#x2084;" horiz-adv-x="956" 
d="M39 252q194 69 342.5 213.5t206.5 341.5h133q-139 -469 -668 -666l-6 -37l96 23h404l67 344h136l-68 -344h127l-23 -117h-127l-41 -215h-135l41 215h-530z" />
    <glyph glyph-name="uni2085" unicode="&#x2085;" horiz-adv-x="1026" 
d="M426 -219q-195 0 -303 96.5t-98 278.5h135q-11 -125 59 -191.5t211 -66.5q132 0 212 70t89 198q9 117 -52 179.5t-181 62.5q-152 0 -265 -129l-172 106l191 422h668l-23 -117h-559l-154 -334l29 -16q106 178 322 178q165 0 253 -92t78 -262q-10 -177 -130 -280t-310 -103
z" />
    <glyph glyph-name="uni2086" unicode="&#x2086;" horiz-adv-x="993" 
d="M51 311q22 140 75 239t131.5 155t170.5 80.5t205 23.5l262 -2l-21 -117l-276 2q-97 1 -172 -22.5t-125 -67.5t-81.5 -96.5t-51.5 -120.5l-49 -72l37 -4q40 98 125.5 151.5t207.5 53.5q182 0 281.5 -112.5t67.5 -290.5q-27 -153 -134 -240.5t-278 -87.5q-75 0 -138 17.5
t-116.5 56.5t-84.5 100.5t-43.5 149.5t7.5 204zM162 188q-22 -119 52 -202.5t218 -83.5q116 0 186 58.5t89 166.5q22 136 -52.5 208.5t-205.5 72.5q-120 0 -194.5 -60t-92.5 -160z" />
    <glyph glyph-name="uni2087" unicode="&#x2087;" horiz-adv-x="841" 
d="M74 -205q64 324 240 539t474 342l9 37l-92 -23h-619l23 117h743l-43 -221q-247 -111 -390.5 -301.5t-201.5 -489.5h-143z" />
    <glyph glyph-name="uni2088" unicode="&#x2088;" horiz-adv-x="964" 
d="M-18 74q19 212 299 264l8 37q-74 27 -116 72t-34 128q7 83 60.5 139.5t135 81.5t185.5 25q102 0 178.5 -25t121.5 -81.5t38 -139.5q-20 -176 -237 -208l-9 -37q104 -35 158.5 -94.5t44.5 -163.5q-14 -132 -133 -211.5t-313 -79.5q-190 0 -294.5 79.5t-92.5 213.5zM119 90
q-10 -88 56 -144.5t206 -56.5q139 0 216 56t87 145q9 93 -55 147t-205 54q-142 0 -219 -54t-86 -147zM268 559q-20 -151 207 -151q224 0 244 151q7 77 -45.5 115.5t-161.5 38.5q-226 0 -244 -154z" />
    <glyph glyph-name="uni2089" unicode="&#x2089;" horiz-adv-x="993" 
d="M862 283q-22 -140 -75 -239t-131 -155t-170 -80.5t-205 -23.5l-265 2l23 117l276 -2q97 -1 172 22.5t125 67.5t81.5 96.5t51.5 120.5l48 72l-35 4q-42 -98 -127.5 -151.5t-206.5 -53.5q-182 0 -281 112.5t-67 290.5q25 153 132.5 240.5t278.5 87.5q74 0 137 -17.5
t116.5 -56.5t85 -100.5t44 -149.5t-7.5 -204zM207 467q-22 -135 52.5 -208t203.5 -73q121 0 196 60t93 160q21 120 -53.5 204t-217.5 84q-115 0 -185 -59t-89 -168z" />
    <glyph glyph-name="Euro" unicode="&#x20ac;" horiz-adv-x="1660" 
d="M258 901h180q69 256 227.5 407.5t395.5 151.5q221 0 355 -130t145 -337h-146q-3 166 -106.5 252t-259.5 86q-339 0 -461 -430h497l-24 -119h-500l-2 -12q-13 -84 -16 -111h493l-22 -118h-477q0 -207 93 -319.5t285 -112.5q169 0 266 88t144 256h152q-64 -228 -208 -352
t-362 -124q-248 0 -380 153.5t-138 410.5h-203l25 118h182q5 51 19 123h-176z" />
    <glyph glyph-name="trademark" unicode="&#x2122;" horiz-adv-x="1800" 
d="M356 1444h549l-16 -96h-219l-113 -588h-113l113 588h-219zM874 760l132 684h221l41 -639h20l295 639h219l-131 -684h-112l96 500l61 139h-39l-293 -639h-221l-49 639h-37l6 -139l-96 -500h-113z" />
    <glyph glyph-name="oneeighth" unicode="&#x215b;" horiz-adv-x="2197" 
d="M451 432l174 885l39 88h-37q-24 -93 -55.5 -166.5t-81.5 -145.5t-126 -125t-176 -83l-22 125q279 102 346 434h272l-196 -1012h-137zM487 27l992 1425l104 -49l-991 -1426zM1253 279q19 212 299 264l9 37q-74 27 -116 72t-34 128q7 83 60.5 139.5t135 81.5t185.5 25
q102 0 178.5 -25t121.5 -81.5t38 -139.5q-20 -177 -238 -209l-8 -36q104 -35 158.5 -95t44.5 -164q-14 -132 -133.5 -211t-313.5 -79q-190 0 -294.5 79.5t-92.5 213.5zM1391 295q-10 -88 56 -144.5t206 -56.5q139 0 216 56t87 145q9 93 -55 147t-205 54q-142 0 -219 -54
t-86 -147zM1540 764q-20 -152 207 -152q224 0 244 152q7 77 -45.5 115.5t-161.5 38.5q-226 0 -244 -154z" />
    <glyph glyph-name="threeeighths" unicode="&#x215c;" horiz-adv-x="2426" 
d="M270 817q-23 -152 37.5 -217t206.5 -65q134 0 199.5 48.5t74.5 147.5q17 176 -170 176h-116l22 111h158q172 0 184 147q8 84 -43.5 130t-181.5 46q-138 0 -210 -55.5t-89 -173.5h-133q19 170 131.5 258t306.5 88q181 0 272.5 -73t86.5 -193q-10 -204 -256 -215l-9 -37
q96 -12 144.5 -68.5t38.5 -158.5q-13 -141 -122 -218t-294 -77q-201 0 -300 97t-71 302h133zM717 27l991 1425l104 -49l-991 -1426zM1483 279q19 212 299 264l8 37q-74 27 -116 72t-34 128q7 83 60.5 139.5t135 81.5t185.5 25q102 0 178.5 -25t121.5 -81.5t38 -139.5
q-20 -177 -237 -209l-8 -36q104 -35 158 -94.5t44 -164.5q-14 -132 -133 -211t-313 -79q-190 0 -294.5 79.5t-92.5 213.5zM1620 295q-10 -88 56 -144.5t206 -56.5q139 0 216 56t87 145q9 93 -55 147t-205 54q-142 0 -219 -54t-86 -147zM1769 764q-20 -152 207 -152
q224 0 244 152q7 77 -45.5 115.5t-161.5 38.5q-226 0 -244 -154z" />
    <glyph glyph-name="fiveeighths" unicode="&#x215d;" horiz-adv-x="2480" 
d="M549 418q-195 0 -303.5 96.5t-98.5 278.5h136q-11 -125 59 -191.5t211 -66.5q132 0 212 70t89 198q9 117 -51.5 179t-181.5 62q-152 0 -265 -129l-172 107l191 422h667l-22 -117h-559l-154 -334l29 -16q106 178 321 178q165 0 253.5 -92t78.5 -262q-10 -177 -130 -280
t-310 -103zM770 27l991 1425l105 -49l-992 -1426zM1536 279q19 212 299 264l8 37q-74 27 -115.5 72t-33.5 128q7 83 60.5 139.5t135 81.5t185.5 25q102 0 178.5 -25t121.5 -81.5t38 -139.5q-20 -177 -238 -209l-8 -36q104 -35 158.5 -95t44.5 -164q-14 -132 -133.5 -211
t-313.5 -79q-190 0 -294.5 79.5t-92.5 213.5zM1673 295q-10 -88 56 -144.5t206 -56.5q139 0 216 56t87 145q9 93 -55 147t-205 54q-142 0 -219 -54t-86 -147zM1823 764q-20 -152 207 -152q223 0 243 152q7 77 -45.5 115.5t-161.5 38.5q-225 0 -243 -154z" />
    <glyph glyph-name="seveneighths" unicode="&#x215e;" horiz-adv-x="2113" 
d="M197 432q64 324 240 539t474 342l9 37l-93 -23h-618l22 117h744l-43 -221q-247 -111 -390.5 -301.5t-201.5 -489.5h-143zM403 27l992 1425l104 -49l-991 -1426zM1169 279q19 212 299 264l9 37q-74 27 -116 72t-34 128q7 83 60.5 139.5t135 81.5t185.5 25q102 0 178.5 -25
t121.5 -81.5t38 -139.5q-20 -177 -238 -209l-8 -36q104 -35 158.5 -95t44.5 -164q-14 -132 -133.5 -211t-313.5 -79q-190 0 -294.5 79.5t-92.5 213.5zM1307 295q-10 -88 56 -144.5t206 -56.5q139 0 216 56t87 145q9 93 -55 147t-205 54q-142 0 -219 -54t-86 -147zM1456 764
q-20 -152 207 -152q224 0 244 152q7 77 -45.5 115.5t-161.5 38.5q-226 0 -244 -154z" />
    <glyph glyph-name="arrowleft" unicode="&#x2190;" horiz-adv-x="1513" 
d="M1327 575v-135h-897l404 -401l-101 -88l-559 555l559 557l101 -88l-400 -400h893z" />
    <glyph glyph-name="arrowup" unicode="&#x2191;" horiz-adv-x="1460" 
d="M666 -51v893l-400 -400l-88 101l557 559l555 -559l-88 -101l-401 404v-897h-135z" />
    <glyph glyph-name="arrowright" unicode="&#x2192;" horiz-adv-x="1513" 
d="M186 575h893l-399 400l100 88l559 -557l-559 -555l-100 88l403 401h-897v135z" />
    <glyph glyph-name="arrowdown" unicode="&#x2193;" horiz-adv-x="1460" 
d="M657 1075h136v-897l401 404l88 -101l-555 -559l-557 559l88 101l399 -400v893z" />
    <glyph glyph-name="arrowboth" unicode="&#x2194;" horiz-adv-x="2258" 
d="M997 907h893l-399 400l100 88l559 -557l-559 -555l-100 88l403 401h-897v135zM174 506l559 557l101 -88l-400 -400h893v-135h-897l404 -401l-101 -88z" />
    <glyph glyph-name="arrowupdn" unicode="&#x2195;" horiz-adv-x="1921" 
d="M721 328v893l-399 -400l-89 101l558 559l555 -559l-89 -101l-401 404v-897h-135zM569 63l88 101l400 -400v893h135v-897l401 404l88 -101l-555 -559z" />
    <glyph glyph-name="uni2196" unicode="&#x2196;" horiz-adv-x="1607" 
d="M1128 47l-630 631v-565l-133 8l-3 790l789 -4l8 -133l-567 2l633 -635z" />
    <glyph glyph-name="uni2197" unicode="&#x2197;" horiz-adv-x="1538" 
d="M295 182l631 631h-566l11 133l788 2l-2 -788l-133 -8v569l-633 -635z" />
    <glyph glyph-name="uni2198" unicode="&#x2198;" horiz-adv-x="1607" 
d="M442 930l633 -631v565l133 -8v-790l-786 4l-10 133l569 -2l-633 635z" />
    <glyph glyph-name="uni2199" unicode="&#x2199;" horiz-adv-x="1538" 
d="M1194 797l-631 -631h565l-8 -133l-790 -2l4 788l133 8l-2 -567l635 633z" />
    <glyph glyph-name="partialdiff" unicode="&#x2202;" horiz-adv-x="1323" 
d="M616 -20q-119 0 -221 44t-172 121t-98 193t0 250q42 205 181.5 326.5t348.5 121.5q185 0 310.5 -95.5t156.5 -262.5h29l-18 84q-5 159 -89.5 290.5t-232 217t-338.5 114.5l23 129q185 -24 333.5 -98t249 -190.5t141 -282t7.5 -360.5q-47 -279 -211.5 -440.5
t-399.5 -161.5zM272 571q-22 -113 -2.5 -199t73 -144t127 -87.5t159.5 -29.5q161 0 271.5 97.5t143.5 250.5q27 127 -13.5 230t-134.5 159.5t-222 56.5q-159 0 -263.5 -87t-138.5 -247z" />
    <glyph glyph-name="emptyset" unicode="&#x2205;" horiz-adv-x="2027" 
d="M985 -256q-241 0 -428 113l-197 -256l-112 71l203 262q-131 116 -197 282t-57 359q9 171 77 323.5t180.5 265t272 178t342.5 65.5q241 0 428 -113l197 256l112 -71l-202 -262q131 -116 197 -282.5t57 -359.5q-9 -171 -77 -323.5t-181 -264.5t-272.5 -177.5t-342.5 -65.5z
M322 575q-9 -157 45 -297.5t161 -240.5l891 1155q-159 94 -354 94q-153 0 -289 -57.5t-232.5 -154.5t-155.5 -226.5t-66 -272.5zM635 -41q159 -94 354 -94q152 0 288 57.5t233 154t156.5 226.5t66.5 272q9 157 -45.5 297.5t-161.5 241.5z" />
    <glyph glyph-name="product" unicode="&#x220f;" horiz-adv-x="1546" 
d="M356 1444h1198l-24 -125h-268l-328 -1688h-146l328 1688h-371l-327 -1688h-148l328 1688h-266z" />
    <glyph glyph-name="summation" unicode="&#x2211;" horiz-adv-x="1212" 
d="M6 -369l43 224l742 680l8 36l-480 684l39 189h863l-25 -125h-633l-104 22l-8 -43l495 -688l-28 -143l-762 -690l-9 -43l113 22h633l-25 -125h-862z" />
    <glyph glyph-name="minus" unicode="&#x2212;" horiz-adv-x="1312" 
d="M188 575h963l-23 -126h-964z" />
    <glyph glyph-name="radical" unicode="&#x221a;" horiz-adv-x="1638" 
d="M1120 1341q43 103 148 103h379l-23 -117h-389l-764 -1696h-258l-55 789h116l52 -744h45z" />
    <glyph glyph-name="infinity" unicode="&#x221e;" horiz-adv-x="2072" 
d="M197 614q17 169 141 275t303 106q64 0 122 -17.5t100 -42.5t83.5 -65.5t68 -74t58.5 -80.5q40 44 63.5 68t64.5 62.5t76 60.5t80 45t96 33.5t106 10.5q175 0 276 -106.5t84 -274.5q-19 -169 -143 -275t-303 -106q-64 0 -121.5 17.5t-98 42.5t-81.5 66.5t-66 74t-57 80.5
q-47 -51 -77.5 -81.5t-82.5 -73.5t-97.5 -66.5t-108 -41.5t-128.5 -18q-174 0 -275.5 106.5t-82.5 274.5zM344 616q-15 -119 47.5 -188.5t183.5 -69.5q60 0 115 19t107 57.5t93 78.5t95 101q-31 48 -55 81.5t-57.5 69t-66.5 56.5t-76.5 35t-92.5 14q-120 0 -199 -69
t-94 -185zM1135 614q41 -62 71 -101t73 -78.5t93 -58t111 -18.5q119 0 200.5 70t94.5 188q14 116 -49 185t-183 69q-61 0 -115.5 -18.5t-107 -58t-92.5 -78t-96 -101.5z" />
    <glyph glyph-name="integral" unicode="&#x222b;" horiz-adv-x="1085" 
d="M29 -369v125h286l340 1583q22 105 129 105h285v-125h-281l-339 -1583q-22 -105 -130 -105h-290z" />
    <glyph glyph-name="approxequal" unicode="&#x2248;" horiz-adv-x="1306" 
d="M193 592q6 73 33 127.5t67 85t83 45t89 14.5q66 0 134.5 -25.5t116 -56.5t107 -56.5t109.5 -25.5t88 30.5t55 113.5h123q-6 -72 -33 -126.5t-67 -85t-83 -45t-89 -14.5q-66 0 -134.5 25.5t-116 56.5t-107 56.5t-109.5 25.5q-115 0 -144 -145h-122zM113 176q5 59 24 106.5
t46 78t61.5 51t69.5 29t71 8.5q66 0 134.5 -25.5t116 -56.5t107 -56.5t109.5 -25.5q51 0 88.5 30t54.5 113h123q-6 -72 -33 -126.5t-67 -84.5t-83 -44.5t-89 -14.5q-66 0 -134.5 25.5t-116 56.5t-107 56.5t-109.5 25.5q-113 0 -143 -146h-123z" />
    <glyph glyph-name="notequal" unicode="&#x2260;" horiz-adv-x="1310" 
d="M227 780h514l174 301l105 -59l-139 -242h309l-25 -125h-356l-166 -286h467l-25 -127h-514l-174 -301l-104 61l137 240h-309l24 127h359l166 286h-467z" />
    <glyph glyph-name="lessequal" unicode="&#x2264;" horiz-adv-x="1314" 
d="M225 770l973 313l31 -129l-860 -270l747 -270l-69 -115l-852 319zM90 55l25 127h962l-22 -127h-965z" />
    <glyph glyph-name="greaterequal" unicode="&#x2265;" horiz-adv-x="1318" 
d="M1165 612l-972 -313l-31 131l860 268l-748 273l70 112l852 -317zM88 55l25 127h962l-22 -127h-965z" />
    <glyph glyph-name="uni2460" unicode="&#x2460;" horiz-adv-x="2273" 
d="M1184 -240q-208 0 -391.5 76.5t-314.5 208t-207 316t-76 393.5q0 208 76 391.5t207 314.5t314.5 207t391.5 76q209 0 393 -76t315 -207t207 -314.5t76 -391.5q0 -209 -76 -393.5t-207 -316t-315 -208t-393 -76.5zM303 754q0 -188 67.5 -354t184 -284t280.5 -186.5
t349 -68.5t348.5 68.5t280 186.5t184 284t67.5 354t-67.5 354t-184 284t-280 186.5t-348.5 68.5t-349 -68.5t-280.5 -186.5t-184 -284t-67.5 -354zM797 805q139 55 197.5 168t60.5 274h272v-1011h-135v884l20 88h-34q-7 -94 -24 -167t-53 -145.5t-101.5 -125t-159.5 -82.5z
" />
    <glyph glyph-name="uni2461" unicode="&#x2461;" horiz-adv-x="2273" 
d="M1184 -240q-208 0 -391.5 76.5t-314.5 208t-207 316t-76 393.5q0 208 76 391.5t207 314.5t314.5 207t391.5 76q209 0 393 -76t315 -207t207 -314.5t76 -391.5q0 -209 -76 -393.5t-207 -316t-315 -208t-393 -76.5zM303 754q0 -188 67.5 -354t184 -284t280.5 -186.5
t349 -68.5t348.5 68.5t280 186.5t184 284t67.5 354t-67.5 354t-184 284t-280 186.5t-348.5 68.5t-349 -68.5t-280.5 -186.5t-184 -284t-67.5 -354zM782 764q0 130 34 228t94.5 156t138.5 86t172 28q167 0 266.5 -89t99.5 -253q0 -95 -38 -175.5t-104.5 -140t-163 -107
t-206 -79t-241.5 -53.5v-35l92 20h661v-114h-790v235q34 5 69.5 11t104.5 23.5t128.5 38.5t127.5 58t115.5 80t79.5 105.5t32 134.5q0 108 -59 165.5t-174 57.5q-306 0 -306 -381h-133z" />
    <glyph glyph-name="uni2462" unicode="&#x2462;" horiz-adv-x="2273" 
d="M1184 -240q-208 0 -391.5 76.5t-314.5 208t-207 316t-76 393.5q0 208 76 391.5t207 314.5t314.5 207t391.5 76q209 0 393 -76t315 -207t207 -314.5t76 -391.5q0 -209 -76 -393.5t-207 -316t-315 -208t-393 -76.5zM303 754q0 -188 67.5 -354t184 -284t280.5 -186.5
t349 -68.5t348.5 68.5t280 186.5t184 284t67.5 354t-67.5 354t-184 284t-280 186.5t-348.5 68.5t-349 -68.5t-280.5 -186.5t-184 -284t-67.5 -354zM780 621h133q0 -153 69.5 -219t217.5 -66q252 0 252 199q0 176 -184 176h-140v110h140q170 0 170 148q0 176 -238 176
q-142 0 -207 -56.5t-65 -175.5h-133q0 171 106 260t301 89q178 0 275.5 -73.5t97.5 -193.5q0 -180 -203 -211v-36q107 -21 162 -72t55 -162q0 -138 -102.5 -215.5t-284.5 -77.5q-201 0 -311.5 97.5t-110.5 302.5z" />
    <glyph glyph-name="uni2463" unicode="&#x2463;" horiz-adv-x="2273" 
d="M1184 -240q-208 0 -391.5 76.5t-314.5 208t-207 316t-76 393.5q0 208 76 391.5t207 314.5t314.5 207t391.5 76q209 0 393 -76t315 -207t207 -314.5t76 -391.5q0 -209 -76 -393.5t-207 -316t-315 -208t-393 -76.5zM303 754q0 -188 67.5 -354t184 -284t280.5 -186.5
t349 -68.5t348.5 68.5t280 186.5t184 284t67.5 354t-67.5 354t-184 284t-280 186.5t-348.5 68.5t-349 -68.5t-280.5 -186.5t-184 -284t-67.5 -354zM750 451v241q180 69 300 213.5t140 341.5h133q-50 -468 -537 -665v-37l93 22h401v342h135v-342h127v-116h-127v-215h-135v215
h-530z" />
    <glyph glyph-name="uni2464" unicode="&#x2464;" horiz-adv-x="2273" 
d="M1184 -240q-208 0 -391.5 76.5t-314.5 208t-207 316t-76 393.5q0 208 76 391.5t207 314.5t314.5 207t391.5 76q209 0 393 -76t315 -207t207 -314.5t76 -391.5q0 -209 -76 -393.5t-207 -316t-315 -208t-393 -76.5zM303 754q0 -188 67.5 -354t184 -284t280.5 -186.5
t349 -68.5t348.5 68.5t280 186.5t184 284t67.5 354t-67.5 354t-184 284t-280 186.5t-348.5 68.5t-349 -68.5t-280.5 -186.5t-184 -284t-67.5 -354zM762 596h137q0 -126 74 -193t215 -67q133 0 207.5 71t74.5 199q0 117 -65.5 179.5t-187.5 62.5q-152 0 -252 -131l-183 108
l84 422h666v-117h-557l-66 -333l31 -21q93 182 313 182q165 0 259 -92t94 -262q0 -177 -114 -280t-306 -103q-194 0 -309 96.5t-115 278.5z" />
    <glyph glyph-name="uni2465" unicode="&#x2465;" horiz-adv-x="2273" 
d="M1184 -240q-208 0 -391.5 76.5t-314.5 208t-207 316t-76 393.5q0 208 76 391.5t207 314.5t314.5 207t391.5 76q209 0 393 -76t315 -207t207 -314.5t76 -391.5q0 -209 -76 -393.5t-207 -316t-315 -208t-393 -76.5zM303 754q0 -188 67.5 -354t184 -284t280.5 -186.5
t349 -68.5t348.5 68.5t280 186.5t184 284t67.5 354t-67.5 354t-184 284t-280 186.5t-348.5 68.5t-349 -68.5t-280.5 -186.5t-184 -284t-67.5 -354zM772 702q0 96 13 174t47 149t87.5 118.5t138.5 75.5t197 28h265v-117h-277q-96 0 -167.5 -28.5t-112.5 -79t-62.5 -107.5
t-28.5 -127l-32 -75h34q25 113 118 178t233 65q169 0 270.5 -100t101.5 -258q0 -172 -106.5 -274.5t-292.5 -102.5q-201 0 -313.5 123t-112.5 358zM905 596q0 -107 76 -183.5t211 -76.5q128 0 198 68t70 194q0 115 -71 182.5t-193 67.5q-135 0 -213 -68.5t-78 -183.5z" />
    <glyph glyph-name="uni2466" unicode="&#x2466;" horiz-adv-x="2273" 
d="M1184 -240q-208 0 -391.5 76.5t-314.5 208t-207 316t-76 393.5q0 208 76 391.5t207 314.5t314.5 207t391.5 76q209 0 393 -76t315 -207t207 -314.5t76 -391.5q0 -209 -76 -393.5t-207 -316t-315 -208t-393 -76.5zM303 754q0 -188 67.5 -354t184 -284t280.5 -186.5
t349 -68.5t348.5 68.5t280 186.5t184 284t67.5 354t-67.5 354t-184 284t-280 186.5t-348.5 68.5t-349 -68.5t-280.5 -186.5t-184 -284t-67.5 -354zM813 1130v117h743v-221q-226 -111 -333 -301.5t-107 -488.5h-137q0 323 134.5 537.5t406.5 342.5v37l-88 -23h-619z" />
    <glyph glyph-name="uni2467" unicode="&#x2467;" horiz-adv-x="2273" 
d="M1184 -240q-208 0 -391.5 76.5t-314.5 208t-207 316t-76 393.5q0 208 76 391.5t207 314.5t314.5 207t391.5 76q209 0 393 -76t315 -207t207 -314.5t76 -391.5q0 -209 -76 -393.5t-207 -316t-315 -208t-393 -76.5zM303 754q0 -188 67.5 -354t184 -284t280.5 -186.5
t349 -68.5t348.5 68.5t280 186.5t184 284t67.5 354t-67.5 354t-184 284t-280 186.5t-348.5 68.5t-349 -68.5t-280.5 -186.5t-184 -284t-67.5 -354zM768 512q0 109 63.5 170t186.5 90v37q-95 25 -144 73.5t-49 139.5q0 81 49.5 136.5t128.5 79.5t181 24q159 0 259.5 -60
t100.5 -180q0 -87 -48.5 -137t-143.5 -76v-37q121 -29 185.5 -91.5t64.5 -168.5q0 -134 -112 -212.5t-306 -78.5t-305 78.5t-111 212.5zM901 532q0 -94 71 -147t212 -53q142 0 211 53t69 147q0 93 -69.5 146t-210.5 53q-142 0 -212.5 -53t-70.5 -146zM958 997q0 -81 57 -115
t169 -34q113 0 169 34t56 115q0 82 -57 117t-168 35t-168.5 -35.5t-57.5 -116.5z" />
    <glyph glyph-name="uni2468" unicode="&#x2468;" horiz-adv-x="2273" 
d="M1184 -240q-208 0 -391.5 76.5t-314.5 208t-207 316t-76 393.5q0 208 76 391.5t207 314.5t314.5 207t391.5 76q209 0 393 -76t315 -207t207 -314.5t76 -391.5q0 -209 -76 -393.5t-207 -316t-315 -208t-393 -76.5zM303 754q0 -188 67.5 -354t184 -284t280.5 -186.5
t349 -68.5t348.5 68.5t280 186.5t184 284t67.5 354t-67.5 354t-184 284t-280 186.5t-348.5 68.5t-349 -68.5t-280.5 -186.5t-184 -284t-67.5 -354zM772 883q0 172 106 275.5t289 103.5q204 0 317 -123.5t113 -358.5q0 -97 -13.5 -175t-47.5 -148.5t-88.5 -118t-139 -75
t-196.5 -27.5h-266v114h276q335 0 373 342l35 74h-37q-26 -113 -118 -177.5t-232 -64.5q-169 0 -270 100t-101 259zM905 883q0 -115 72 -182.5t194 -67.5q135 0 212 68.5t77 183.5q0 108 -74 184t-208 76q-130 0 -201.5 -67.5t-71.5 -194.5z" />
    <glyph glyph-name="uni24EA" unicode="&#x24ea;" horiz-adv-x="2273" 
d="M1184 -240q-208 0 -391.5 76.5t-314.5 208t-207 316t-76 393.5q0 208 76 391.5t207 314.5t314.5 207t391.5 76q209 0 393 -76t315 -207t207 -314.5t76 -391.5q0 -209 -76 -393.5t-207 -316t-315 -208t-393 -76.5zM303 754q0 -188 67.5 -354t184 -284t280.5 -186.5
t349 -68.5t348.5 68.5t280 186.5t184 284t67.5 354t-67.5 354t-184 284t-280 186.5t-348.5 68.5t-349 -68.5t-280.5 -186.5t-184 -284t-67.5 -354zM748 741q0 150 49 266.5t149.5 185.5t239.5 69q207 0 321.5 -145t114.5 -376q0 -233 -114 -376.5t-322 -143.5t-323 143.5
t-115 376.5zM883 741q0 -131 41 -231l460 555q-77 80 -198 80q-147 0 -225 -110.5t-78 -293.5zM987 416q77 -80 199 -80q147 0 224 109.5t77 295.5q0 134 -41 230z" />
    <glyph glyph-name="uni24FF" unicode="&#x24ff;" horiz-adv-x="2273" 
d="M1184 -240q-208 0 -391.5 76.5t-314.5 208t-207 316t-76 393.5q0 208 76 391.5t207 314.5t314.5 207t391.5 76q209 0 393 -76t315 -207t207 -314.5t76 -391.5q0 -209 -76 -393.5t-207 -316t-315 -208t-393 -76.5zM748 741q0 -233 115 -376.5t323 -143.5t322 143.5
t114 376.5q0 231 -114.5 376t-321.5 145q-139 0 -239.5 -69t-149.5 -185.5t-49 -266.5zM883 741q0 183 78 293.5t225 110.5q121 0 198 -80l-460 -553q-41 96 -41 229zM987 416l457 555q43 -87 43 -230q0 -186 -77 -295.5t-224 -109.5q-122 0 -199 80z" />
    <glyph glyph-name="lozenge" unicode="&#x25ca;" horiz-adv-x="1110" 
d="M322 63l-97 711l353 604h292l97 -710l-353 -605h-292zM369 754l86 -645h45l323 577l-86 647h-45z" />
    <glyph glyph-name="circle" unicode="&#x25cb;" horiz-adv-x="2269" 
d="M1087 -473q-161 0 -303 38.5t-252 110t-194 172.5t-129 226.5t-57 272.5t22 310q47 244 193.5 438t361 303t457.5 109q193 0 357.5 -54.5t282.5 -154.5t194.5 -240t95 -311t-16.5 -368q-47 -245 -193.5 -439.5t-361 -303.5t-457.5 -109zM281 643q-31 -147 -20.5 -279.5
t50 -245.5t113.5 -204.5t171.5 -155.5t223 -98.5t268.5 -34.5q216 0 408.5 99t324 274.5t173.5 394.5q31 147 20.5 279.5t-50 245.5t-114 204.5t-172 155.5t-223 98.5t-268.5 34.5q-215 0 -407 -99t-323.5 -274.5t-174.5 -394.5z" />
    <glyph glyph-name="uni25CF" unicode="&#x25cf;" horiz-adv-x="2269" 
d="M1087 -473q-161 0 -303 38.5t-252 110t-194 172.5t-129 226.5t-57 272.5t22 310q35 183 130 341t228.5 269.5t303 175.5t350.5 64q193 0 357.5 -54.5t282.5 -154.5t194.5 -240t95 -311t-16.5 -368q-47 -245 -194 -439.5t-361.5 -303.5t-456.5 -109z" />
    <glyph glyph-name="uni2776" unicode="&#x2776;" horiz-adv-x="2273" 
d="M1184 -240q-208 0 -391.5 76.5t-314.5 208t-207 316t-76 393.5q0 208 76 391.5t207 314.5t314.5 207t391.5 76q209 0 393 -76t315 -207t207 -314.5t76 -391.5q0 -209 -76 -393.5t-207 -316t-315 -208t-393 -76.5zM797 805l43 -117q94 30 159.5 82.5t101.5 125t53 145.5
t24 167h34l-20 -88v-884h135v1011h-272q-2 -161 -60.5 -274t-197.5 -168z" />
    <glyph glyph-name="uni2777" unicode="&#x2777;" horiz-adv-x="2273" 
d="M1184 -240q-208 0 -391.5 76.5t-314.5 208t-207 316t-76 393.5q0 208 76 391.5t207 314.5t314.5 207t391.5 76q209 0 393 -76t315 -207t207 -314.5t76 -391.5q0 -209 -76 -393.5t-207 -316t-315 -208t-393 -76.5zM782 764h133q0 381 306 381q115 0 174 -57.5t59 -165.5
q0 -72 -32 -134.5t-79.5 -105.5t-115.5 -80t-127.5 -58t-128.5 -38.5t-104.5 -23.5t-69.5 -11v-235h790v114h-661l-92 -20v35q132 22 241.5 53.5t206 79t163 107t104.5 140t38 175.5q0 164 -99.5 253t-266.5 89q-94 0 -172 -28t-138.5 -86t-94.5 -156t-34 -228z" />
    <glyph glyph-name="uni2778" unicode="&#x2778;" horiz-adv-x="2273" 
d="M1184 -240q-208 0 -391.5 76.5t-314.5 208t-207 316t-76 393.5q0 208 76 391.5t207 314.5t314.5 207t391.5 76q209 0 393 -76t315 -207t207 -314.5t76 -391.5q0 -209 -76 -393.5t-207 -316t-315 -208t-393 -76.5zM780 621q0 -205 110.5 -302.5t311.5 -97.5
q182 0 284.5 77.5t102.5 215.5q0 111 -55 162t-162 72v36q203 31 203 211q0 120 -97.5 193.5t-275.5 73.5q-195 0 -301 -89t-106 -260h133q0 119 65 175.5t207 56.5q238 0 238 -176q0 -148 -170 -148h-140v-110h140q184 0 184 -176q0 -199 -252 -199q-148 0 -217.5 66
t-69.5 219h-133z" />
    <glyph glyph-name="uni2779" unicode="&#x2779;" horiz-adv-x="2273" 
d="M1184 -240q-208 0 -391.5 76.5t-314.5 208t-207 316t-76 393.5q0 208 76 391.5t207 314.5t314.5 207t391.5 76q209 0 393 -76t315 -207t207 -314.5t76 -391.5q0 -209 -76 -393.5t-207 -316t-315 -208t-393 -76.5zM750 451h530v-215h135v215h127v116h-127v342h-135v-342
h-401l-93 -22v37q487 197 537 665h-133q-20 -197 -140 -341.5t-300 -213.5v-241z" />
    <glyph glyph-name="uni277A" unicode="&#x277a;" horiz-adv-x="2273" 
d="M1184 -240q-208 0 -391.5 76.5t-314.5 208t-207 316t-76 393.5q0 208 76 391.5t207 314.5t314.5 207t391.5 76q209 0 393 -76t315 -207t207 -314.5t76 -391.5q0 -209 -76 -393.5t-207 -316t-315 -208t-393 -76.5zM762 596q0 -182 115 -278.5t309 -96.5q192 0 306 103
t114 280q0 170 -94 262t-259 92q-220 0 -313 -182l-31 21l66 333h557v117h-666l-84 -422l183 -108q100 131 252 131q122 0 187.5 -62.5t65.5 -179.5q0 -128 -74.5 -199t-207.5 -71q-141 0 -215 67t-74 193h-137z" />
    <glyph glyph-name="uni277B" unicode="&#x277b;" horiz-adv-x="2273" 
d="M1184 -240q-208 0 -391.5 76.5t-314.5 208t-207 316t-76 393.5q0 208 76 391.5t207 314.5t314.5 207t391.5 76q209 0 393 -76t315 -207t207 -314.5t76 -391.5q0 -209 -76 -393.5t-207 -316t-315 -208t-393 -76.5zM772 702q0 -235 112.5 -358t313.5 -123
q186 0 292.5 102.5t106.5 274.5q0 158 -101.5 258t-270.5 100q-140 0 -233 -65t-118 -178h-34l32 75q7 70 28.5 127t62.5 107.5t112.5 79t167.5 28.5h277v117h-265q-112 0 -197 -28t-138.5 -75.5t-87.5 -118.5t-47 -149t-13 -174zM905 596q0 115 78 183.5t213 68.5
q122 0 193 -67.5t71 -182.5q0 -126 -70 -194t-198 -68q-135 0 -211 76.5t-76 183.5z" />
    <glyph glyph-name="uni277C" unicode="&#x277c;" horiz-adv-x="2273" 
d="M1184 -240q-208 0 -391.5 76.5t-314.5 208t-207 316t-76 393.5q0 208 76 391.5t207 314.5t314.5 207t391.5 76q209 0 393 -76t315 -207t207 -314.5t76 -391.5q0 -209 -76 -393.5t-207 -316t-315 -208t-393 -76.5zM813 1130h619l88 23v-37q-272 -128 -406.5 -342.5
t-134.5 -537.5h137q0 298 107 488.5t333 301.5v221h-743v-117z" />
    <glyph glyph-name="uni277D" unicode="&#x277d;" horiz-adv-x="2273" 
d="M1184 -240q-208 0 -391.5 76.5t-314.5 208t-207 316t-76 393.5q0 208 76 391.5t207 314.5t314.5 207t391.5 76q209 0 393 -76t315 -207t207 -314.5t76 -391.5q0 -209 -76 -393.5t-207 -316t-315 -208t-393 -76.5zM768 512q0 -134 111 -212.5t305 -78.5t306 78.5
t112 212.5q0 106 -64.5 168.5t-185.5 91.5v37q95 26 143.5 76t48.5 137q0 120 -100.5 180t-259.5 60q-102 0 -181 -24t-128.5 -79.5t-49.5 -136.5q0 -91 49 -139.5t144 -73.5v-37q-123 -29 -186.5 -90t-63.5 -170zM901 532q0 93 70.5 146t212.5 53q141 0 210.5 -53
t69.5 -146q0 -94 -69 -147t-211 -53q-141 0 -212 53t-71 147zM958 997q0 81 57.5 116.5t168.5 35.5t168 -35t57 -117q0 -81 -56 -115t-169 -34q-112 0 -169 34t-57 115z" />
    <glyph glyph-name="uni277E" unicode="&#x277e;" horiz-adv-x="2273" 
d="M1184 -240q-208 0 -391.5 76.5t-314.5 208t-207 316t-76 393.5q0 208 76 391.5t207 314.5t314.5 207t391.5 76q209 0 393 -76t315 -207t207 -314.5t76 -391.5q0 -209 -76 -393.5t-207 -316t-315 -208t-393 -76.5zM772 883q0 -159 101 -259t270 -100q140 0 232 64.5
t118 177.5h37l-35 -74q-38 -342 -373 -342h-276v-114h266q112 0 196.5 27.5t139 75t88.5 118t47.5 148.5t13.5 175q0 235 -113 358.5t-317 123.5q-183 0 -289 -103.5t-106 -275.5zM905 883q0 127 71.5 194.5t201.5 67.5q134 0 208 -76t74 -184q0 -115 -77 -183.5t-212 -68.5
q-122 0 -194 67.5t-72 182.5z" />
    <glyph glyph-name="uniA78B" unicode="&#xa78b;" horiz-adv-x="493" 
d="M352 1444h148l-97 -504h-147z" />
    <glyph glyph-name="uniA78C" unicode="&#xa78c;" horiz-adv-x="493" 
d="M367 1511h147l-96 -503h-148z" />
    <glyph glyph-name="uni004A0301" horiz-adv-x="1085" 
d="M461 0h-490l27 131h457q144 0 225.5 88t114.5 262l161 832h-510l25 131h530q75 0 99 -27t10 -96l-170 -877q-43 -219 -165.5 -331.5t-313.5 -112.5zM537 1739l643 162l6 -127l-643 -160z" />
    <glyph glyph-name="M.001" horiz-adv-x="1832" 
d="M55 0l283 1444h311l156 -1399h43l702 1399h314l-283 -1444h-154l248 1272l45 127h-45l-702 -1399h-311l-156 1399h-45l-6 -127l-248 -1272h-152z" />
    <glyph glyph-name="uni013B.loclMAH" horiz-adv-x="1103" 
d="M172 0q-56 0 -80 31t-14 88l260 1325h151l-256 -1313h728l-25 -131h-764zM264 -430l174 336l140 -45l-172 -336z" />
    <glyph glyph-name="uni0145.loclMAH" horiz-adv-x="1536" 
d="M55 0l283 1444h309l471 -1399h45l-2 111l252 1288h152l-283 -1444h-309l-471 1399h-45l2 -111l-252 -1288h-152zM385 -430l174 336l139 -45l-172 -336z" />
    <glyph glyph-name="G.ss03" horiz-adv-x="1654" 
d="M174 725q21 158 80.5 291.5t152.5 234t226 157t291 56.5q261 0 404 -146t151 -390h-156q-3 192 -102 299.5t-303 107.5q-256 0 -403.5 -165t-186.5 -447q-27 -191 7 -327t134.5 -211.5t263.5 -75.5q209 0 317.5 127t161.5 405h-510l25 127h709q63 0 85 -26.5t11 -79.5
l-129 -662h-152l105 539l61 184h-45q-79 -388 -230.5 -565.5t-418.5 -177.5q-154 0 -270 55.5t-183.5 154.5t-92 235.5t-3.5 299.5z" />
    <glyph glyph-name="Gbreve.ss03" horiz-adv-x="1654" 
d="M174 725q21 158 80.5 291.5t152.5 234t226 157t291 56.5q261 0 404 -146t151 -390h-156q-3 192 -102 299.5t-303 107.5q-256 0 -403.5 -165t-186.5 -447q-27 -191 7 -327t134.5 -211.5t263.5 -75.5q209 0 317.5 127t161.5 405h-510l25 127h709q63 0 85 -26.5t11 -79.5
l-129 -662h-152l105 539l61 184h-45q-79 -388 -230.5 -565.5t-418.5 -177.5q-154 0 -270 55.5t-183.5 154.5t-92 235.5t-3.5 299.5zM762 1929h127q-24 -118 26 -171.5t144 -53.5q93 0 138.5 54t66.5 171h125q-22 -162 -116 -256t-231 -94q-145 0 -222.5 96.5t-57.5 253.5z
" />
    <glyph glyph-name="uni0122.ss03" horiz-adv-x="1654" 
d="M174 725q21 158 80.5 291.5t152.5 234t226 157t291 56.5q261 0 404 -146t151 -390h-156q-3 192 -102 299.5t-303 107.5q-256 0 -403.5 -165t-186.5 -447q-27 -191 7 -327t134.5 -211.5t263.5 -75.5q209 0 317.5 127t161.5 405h-510l25 127h709q63 0 85 -26.5t11 -79.5
l-129 -662h-152l105 539l61 184h-45q-79 -388 -230.5 -565.5t-418.5 -177.5q-154 0 -270 55.5t-183.5 154.5t-92 235.5t-3.5 299.5zM377 -430l174 336l139 -45l-172 -336z" />
    <glyph glyph-name="Gdotaccent.ss03" horiz-adv-x="1654" 
d="M174 725q21 158 80.5 291.5t152.5 234t226 157t291 56.5q261 0 404 -146t151 -390h-156q-3 192 -102 299.5t-303 107.5q-256 0 -403.5 -165t-186.5 -447q-27 -191 7 -327t134.5 -211.5t263.5 -75.5q209 0 317.5 127t161.5 405h-510l25 127h709q63 0 85 -26.5t11 -79.5
l-129 -662h-152l105 539l61 184h-45q-79 -388 -230.5 -565.5t-418.5 -177.5q-154 0 -270 55.5t-183.5 154.5t-92 235.5t-3.5 299.5zM909 1763q6 54 49.5 92.5t98.5 38.5q56 0 91.5 -38.5t29.5 -92.5q-4 -55 -48 -94t-100 -39q-55 0 -90.5 38.5t-30.5 94.5z" />
    <glyph glyph-name="R.ss04" horiz-adv-x="1406" 
d="M55 0l283 1444h475q134 0 230 -19t166.5 -63.5t101 -122.5t20.5 -190q-13 -175 -124.5 -277t-321.5 -86l-8 -47q44 -13 69 -30t54 -67t55 -139l121 -403h-168l-111 393q-34 125 -77 162t-163 37h-329l-115 -592h-158zM354 719h383q80 0 137.5 6.5t111.5 25t89.5 51
t60.5 85.5t35 127q10 75 -2 128.5t-39.5 86t-77.5 51t-106 25t-135 6.5h-342z" />
    <glyph glyph-name="Racute.ss04" horiz-adv-x="1406" 
d="M55 0l283 1444h475q134 0 230 -19t166.5 -63.5t101 -122.5t20.5 -190q-13 -175 -124.5 -277t-321.5 -86l-8 -47q44 -13 69 -30t54 -67t55 -139l121 -403h-168l-111 393q-34 125 -77 162t-163 37h-329l-115 -592h-158zM354 719h383q80 0 137.5 6.5t111.5 25t89.5 51
t60.5 85.5t35 127q10 75 -2 128.5t-39.5 86t-77.5 51t-106 25t-135 6.5h-342zM612 1739l643 162l7 -127l-644 -160z" />
    <glyph glyph-name="Rcaron.ss04" horiz-adv-x="1406" 
d="M55 0l283 1444h475q134 0 230 -19t166.5 -63.5t101 -122.5t20.5 -190q-13 -175 -124.5 -277t-321.5 -86l-8 -47q44 -13 69 -30t54 -67t55 -139l121 -403h-168l-111 393q-34 125 -77 162t-163 37h-329l-115 -592h-158zM354 719h383q80 0 137.5 6.5t111.5 25t89.5 51
t60.5 85.5t35 127q10 75 -2 128.5t-39.5 86t-77.5 51t-106 25t-135 6.5h-342zM635 1851l100 82l195 -192l266 192l78 -94l-363 -258z" />
    <glyph glyph-name="uni0156.ss04" horiz-adv-x="1406" 
d="M55 0l283 1444h475q134 0 230 -19t166.5 -63.5t101 -122.5t20.5 -190q-13 -175 -124.5 -277t-321.5 -86l-8 -47q44 -13 69 -30t54 -67t55 -139l121 -403h-168l-111 393q-34 125 -77 162t-163 37h-329l-115 -592h-158zM311 -430l174 336l140 -45l-172 -336zM354 719h383
q80 0 137.5 6.5t111.5 25t89.5 51t60.5 85.5t35 127q10 75 -2 128.5t-39.5 86t-77.5 51t-106 25t-135 6.5h-342z" />
    <glyph glyph-name="Y.ss07" horiz-adv-x="1335" 
d="M1278 1444h170l-696 -899l-109 -545h-151l106 545l-346 899h158l272 -713l-23 -110h46l22 110z" />
    <glyph glyph-name="Yacute.ss07" horiz-adv-x="1335" 
d="M1278 1444h170l-696 -899l-109 -545h-151l106 545l-346 899h158l272 -713l-23 -110h46l22 110zM586 1739l643 162l6 -127l-643 -160z" />
    <glyph glyph-name="Ycircumflex.ss07" horiz-adv-x="1335" 
d="M1278 1444h170l-696 -899l-109 -545h-151l106 545l-346 899h158l272 -713l-23 -110h46l22 110zM573 1675l365 258l276 -270l-102 -84l-192 195l-269 -195z" />
    <glyph glyph-name="Ydieresis.ss07" horiz-adv-x="1335" 
d="M1278 1444h170l-696 -899l-109 -545h-151l106 545l-346 899h158l272 -713l-23 -110h46l22 110zM565 1753q6 58 50.5 98.5t103.5 40.5t98 -41t33 -98q-4 -58 -49.5 -99.5t-104.5 -41.5t-97 41.5t-34 99.5zM973 1753q6 58 50 98.5t103 40.5q58 0 97 -41t34 -98
q-4 -58 -49 -99.5t-104 -41.5q-60 0 -98 41t-33 100z" />
    <glyph glyph-name="Ygrave.ss07" horiz-adv-x="1335" 
d="M1278 1444h170l-696 -899l-109 -545h-151l106 545l-346 899h158l272 -713l-23 -110h46l22 110zM598 1780l51 112l580 -159l-51 -113z" />
    <glyph glyph-name="uni1EF8.ss07" horiz-adv-x="1335" 
d="M1278 1444h170l-696 -899l-109 -545h-151l106 545l-346 899h158l272 -713l-23 -110h46l22 110zM528 1636q39 269 236 269q47 0 86 -17t64.5 -41t48 -48t46.5 -41t48 -17q40 0 68 29.5t44 113.5h125q-39 -268 -233 -268q-47 0 -86.5 17t-65.5 41t-48.5 48t-46.5 41t-48 17
q-40 0 -68 -30t-45 -114h-125z" />
    <glyph glyph-name="i.loclTRK" horiz-adv-x="886" 
d="M14 0l25 129h280l148 758h-203l25 129h237q53 0 73.5 -26.5t10.5 -84.5l-149 -776h282l-24 -129h-705zM469 1335q6 54 49 92.5t98 38.5q56 0 91.5 -38.5t29.5 -92.5q-4 -55 -47.5 -94t-99.5 -39q-55 0 -90.5 38.5t-30.5 94.5z" />
    <glyph glyph-name="uni006A0301" horiz-adv-x="589" 
d="M135 -57q32 39 46 72t24 83l153 789h-208l24 129h240q60 0 84.5 -24.5t11.5 -82.5l-162 -839q-9 -49 -23 -82.5t-44 -73.5l-215 -295h-162zM174 1311l643 162l6 -127l-643 -160z" />
    <glyph glyph-name="uni013C.loclMAH" horiz-adv-x="884" 
d="M-4 0l22 129h285l244 1247h-205l23 129h262q46 0 66.5 -23t11.5 -67l-250 -1286h284l-22 -129h-721zM72 -430l174 336l139 -45l-172 -336z" />
    <glyph glyph-name="uni0146.loclMAH" horiz-adv-x="1218" 
d="M53 0l197 1016h151l-28 -144l-49 -110h49q55 126 159 198t242 72q194 0 281 -120t47 -332l-113 -580h-151l112 582q33 166 -27.5 245.5t-211.5 79.5q-153 0 -265 -117t-149 -309l-92 -481h-152zM240 -430l174 336l139 -45l-172 -336z" />
    <glyph glyph-name="a.ss01" horiz-adv-x="1339" 
d="M555 -25q-232 0 -357.5 164.5t-76.5 415.5q42 215 185 347t343 132q162 0 277 -86.5t125 -242.5h43l-2 106l41 205h153l-199 -1016h-151l20 113l48 110h-48q-50 -112 -153.5 -180t-247.5 -68zM270 541q-40 -212 55 -325.5t281 -113.5q166 0 276 93t142 266
q19 116 0 199.5t-73.5 137.5t-125.5 79.5t-155 25.5q-159 0 -263 -91t-137 -271z" />
    <glyph glyph-name="aacute.ss01" horiz-adv-x="1339" 
d="M555 -25q-232 0 -357.5 164.5t-76.5 415.5q42 215 185 347t343 132q162 0 277 -86.5t125 -242.5h43l-2 106l41 205h153l-199 -1016h-151l20 113l48 110h-48q-50 -112 -153.5 -180t-247.5 -68zM270 541q-40 -212 55 -325.5t281 -113.5q166 0 276 93t142 266
q19 116 0 199.5t-73.5 137.5t-125.5 79.5t-155 25.5q-159 0 -263 -91t-137 -271zM502 1311l643 162l6 -127l-643 -160z" />
    <glyph glyph-name="abreve.ss01" horiz-adv-x="1339" 
d="M555 -25q-232 0 -357.5 164.5t-76.5 415.5q42 215 185 347t343 132q162 0 277 -86.5t125 -242.5h43l-2 106l41 205h153l-199 -1016h-151l20 113l48 110h-48q-50 -112 -153.5 -180t-247.5 -68zM270 541q-40 -212 55 -325.5t281 -113.5q166 0 276 93t142 266
q19 116 0 199.5t-73.5 137.5t-125.5 79.5t-155 25.5q-159 0 -263 -91t-137 -271zM547 1501h127q-24 -118 26 -171.5t144 -53.5q93 0 138.5 54t66.5 171h125q-22 -162 -116 -256t-231 -94q-145 0 -222.5 96.5t-57.5 253.5z" />
    <glyph glyph-name="acircumflex.ss01" horiz-adv-x="1339" 
d="M555 -25q-232 0 -357.5 164.5t-76.5 415.5q42 215 185 347t343 132q162 0 277 -86.5t125 -242.5h43l-2 106l41 205h153l-199 -1016h-151l20 113l48 110h-48q-50 -112 -153.5 -180t-247.5 -68zM270 541q-40 -212 55 -325.5t281 -113.5q166 0 276 93t142 266
q19 116 0 199.5t-73.5 137.5t-125.5 79.5t-155 25.5q-159 0 -263 -91t-137 -271zM489 1247l365 258l276 -270l-102 -84l-192 195l-269 -195z" />
    <glyph glyph-name="adieresis.ss01" horiz-adv-x="1339" 
d="M555 -25q-232 0 -357.5 164.5t-76.5 415.5q42 215 185 347t343 132q162 0 277 -86.5t125 -242.5h43l-2 106l41 205h153l-199 -1016h-151l20 113l48 110h-48q-50 -112 -153.5 -180t-247.5 -68zM270 541q-40 -212 55 -325.5t281 -113.5q166 0 276 93t142 266
q19 116 0 199.5t-73.5 137.5t-125.5 79.5t-155 25.5q-159 0 -263 -91t-137 -271zM481 1325q6 58 50.5 98.5t103.5 40.5t98 -41t33 -98q-4 -58 -49.5 -99.5t-104.5 -41.5t-97 41.5t-34 99.5zM889 1325q6 58 50 98.5t103 40.5t97.5 -41t34.5 -98q-4 -58 -49.5 -99.5
t-104.5 -41.5q-60 0 -98 41t-33 100z" />
    <glyph glyph-name="agrave.ss01" horiz-adv-x="1339" 
d="M555 -25q-232 0 -357.5 164.5t-76.5 415.5q42 215 185 347t343 132q162 0 277 -86.5t125 -242.5h43l-2 106l41 205h153l-199 -1016h-151l20 113l48 110h-48q-50 -112 -153.5 -180t-247.5 -68zM270 541q-40 -212 55 -325.5t281 -113.5q166 0 276 93t142 266
q19 116 0 199.5t-73.5 137.5t-125.5 79.5t-155 25.5q-159 0 -263 -91t-137 -271zM514 1352l51 112l580 -159l-51 -113z" />
    <glyph glyph-name="amacron.ss01" horiz-adv-x="1339" 
d="M555 -25q-232 0 -357.5 164.5t-76.5 415.5q42 215 185 347t343 132q162 0 277 -86.5t125 -242.5h43l-2 106l41 205h153l-199 -1016h-151l20 113l48 110h-48q-50 -112 -153.5 -180t-247.5 -68zM270 541q-40 -212 55 -325.5t281 -113.5q166 0 276 93t142 266
q19 116 0 199.5t-73.5 137.5t-125.5 79.5t-155 25.5q-159 0 -263 -91t-137 -271zM446 1266v127h639v-125z" />
    <glyph glyph-name="aogonek.ss01" horiz-adv-x="1339" 
d="M555 -25q-232 0 -357.5 164.5t-76.5 415.5q42 215 185 347t343 132q162 0 277 -86.5t125 -242.5h43l-2 106l41 205h153l-199 -1014h3l-193 -268l391 2l-24 -127h-408q-76 0 -97.5 47.5t25.5 112.5l166 231h-14l20 113l48 110h-48q-50 -112 -153.5 -180t-247.5 -68z
M270 541q-40 -212 55 -325.5t281 -113.5q166 0 276 93t142 266q19 116 0 199.5t-73.5 137.5t-125.5 79.5t-155 25.5q-159 0 -263 -91t-137 -271z" />
    <glyph glyph-name="aring.ss01" horiz-adv-x="1339" 
d="M555 -25q-232 0 -357.5 164.5t-76.5 415.5q42 215 185 347t343 132q162 0 277 -86.5t125 -242.5h43l-2 106l41 205h153l-199 -1016h-151l20 113l48 110h-48q-50 -112 -153.5 -180t-247.5 -68zM270 541q-40 -212 55 -325.5t281 -113.5q166 0 276 93t142 266
q19 116 0 199.5t-73.5 137.5t-125.5 79.5t-155 25.5q-159 0 -263 -91t-137 -271zM530 1366q0 90 62.5 154.5t171.5 64.5t172 -64.5t63 -154.5q0 -89 -63.5 -154t-171.5 -65q-109 0 -171.5 64.5t-62.5 154.5zM653 1366q0 -46 29 -73t82 -27q54 0 82 26.5t28 73.5
q0 45 -28.5 71.5t-81.5 26.5t-82 -26.5t-29 -71.5z" />
    <glyph glyph-name="atilde.ss01" horiz-adv-x="1339" 
d="M555 -25q-232 0 -357.5 164.5t-76.5 415.5q42 215 185 347t343 132q162 0 277 -86.5t125 -242.5h43l-2 106l41 205h153l-199 -1016h-151l20 113l48 110h-48q-50 -112 -153.5 -180t-247.5 -68zM270 541q-40 -212 55 -325.5t281 -113.5q166 0 276 93t142 266
q19 116 0 199.5t-73.5 137.5t-125.5 79.5t-155 25.5q-159 0 -263 -91t-137 -271zM444 1208q39 269 236 269q47 0 86 -17t64.5 -41t48 -48t46.5 -41t48 -17q40 0 68 29.5t44 113.5h125q-39 -268 -233 -268q-47 0 -86.5 17t-65.5 41t-48.5 48t-46.5 41t-48 17q-40 0 -68 -30
t-45 -114h-125z" />
    <glyph glyph-name="r.ss02" horiz-adv-x="835" 
d="M53 0l197 1016h153l-34 -182l-50 -109h48q54 135 158 213t249 78h133l-24 -129h-181q-151 0 -259.5 -118.5t-147.5 -315.5l-88 -453h-154z" />
    <glyph glyph-name="racute.ss02" horiz-adv-x="835" 
d="M53 0l197 1016h153l-34 -182l-50 -109h48q54 135 158 213t249 78h133l-24 -129h-181q-151 0 -259.5 -118.5t-147.5 -315.5l-88 -453h-154zM190 1311l644 162l6 -127l-643 -160z" />
    <glyph glyph-name="rcaron.ss02" horiz-adv-x="835" 
d="M53 0l197 1016h153l-34 -182l-50 -109h48q54 135 158 213t249 78h133l-24 -129h-181q-151 0 -259.5 -118.5t-147.5 -315.5l-88 -453h-154zM213 1423l100 82l195 -192l266 192l78 -94l-363 -258z" />
    <glyph glyph-name="uni0157.ss02" horiz-adv-x="835" 
d="M53 0l197 1016h153l-34 -182l-50 -109h48q54 135 158 213t249 78h133l-24 -129h-181q-151 0 -259.5 -118.5t-147.5 -315.5l-88 -453h-154zM-25 -430l175 336l139 -45l-172 -336z" />
    <glyph glyph-name="g.ss05" horiz-adv-x="1329" 
d="M18 -246q114 -1 212 0t181.5 5t151 11.5t119.5 20.5t88 32t56 45t24 60q12 113 -132 132q-125 17 -437 -45q-31 -7 -91 -19q-33 -7 -49 -10l-2 112q284 52 492 113v45q-150 -23 -269 15t-181.5 133t-45.5 229q13 102 64 181.5t127.5 126.5t166 71t187.5 24
q222 0 346 -114q80 62 130.5 78t129.5 16h90l-26 -129h-88q-98 0 -170 -49q56 -103 41 -232q-21 -169 -173 -293t-403 -192l2 -2q71 12 135 14.5t124.5 -8t103 -35.5t64.5 -71t15 -111q-13 -107 -105.5 -168.5t-311.5 -90t-598 -22.5zM287 627q-18 -143 67 -218t244 -75
q160 0 263.5 74.5t121.5 218.5q17 142 -70 217.5t-239 75.5q-158 0 -264 -75.5t-123 -217.5z" />
    <glyph glyph-name="gbreve.ss05" horiz-adv-x="1329" 
d="M18 -246q114 -1 212 0t181.5 5t151 11.5t119.5 20.5t88 32t56 45t24 60q12 113 -132 132q-125 17 -437 -45q-31 -7 -91 -19q-33 -7 -49 -10l-2 112q284 52 492 113v45q-150 -23 -269 15t-181.5 133t-45.5 229q13 102 64 181.5t127.5 126.5t166 71t187.5 24
q222 0 346 -114q80 62 130.5 78t129.5 16h90l-26 -129h-88q-98 0 -170 -49q56 -103 41 -232q-21 -169 -173 -293t-403 -192l2 -2q71 12 135 14.5t124.5 -8t103 -35.5t64.5 -71t15 -111q-13 -107 -105.5 -168.5t-311.5 -90t-598 -22.5zM287 627q-18 -143 67 -218t244 -75
q160 0 263.5 74.5t121.5 218.5q17 142 -70 217.5t-239 75.5q-158 0 -264 -75.5t-123 -217.5zM492 1501h126q-24 -118 26 -171.5t144 -53.5q93 0 138.5 54t66.5 171h125q-22 -162 -115.5 -256t-230.5 -94q-145 0 -222.5 96.5t-57.5 253.5z" />
    <glyph glyph-name="gcircumflex.ss05" horiz-adv-x="1329" 
d="M18 -246q114 -1 212 0t181.5 5t151 11.5t119.5 20.5t88 32t56 45t24 60q12 113 -132 132q-125 17 -437 -45q-31 -7 -91 -19q-33 -7 -49 -10l-2 112q284 52 492 113v45q-150 -23 -269 15t-181.5 133t-45.5 229q13 102 64 181.5t127.5 126.5t166 71t187.5 24
q222 0 346 -114q80 62 130.5 78t129.5 16h90l-26 -129h-88q-98 0 -170 -49q56 -103 41 -232q-21 -169 -173 -293t-403 -192l2 -2q71 12 135 14.5t124.5 -8t103 -35.5t64.5 -71t15 -111q-13 -107 -105.5 -168.5t-311.5 -90t-598 -22.5zM287 627q-18 -143 67 -218t244 -75
q160 0 263.5 74.5t121.5 218.5q17 142 -70 217.5t-239 75.5q-158 0 -264 -75.5t-123 -217.5zM434 1247l365 258l276 -270l-102 -84l-193 195l-268 -195z" />
    <glyph glyph-name="uni0123.ss05" horiz-adv-x="1329" 
d="M18 -246q114 -1 212 0t181.5 5t151 11.5t119.5 20.5t88 32t56 45t24 60q12 113 -132 132q-125 17 -437 -45q-31 -7 -91 -19q-33 -7 -49 -10l-2 112q284 52 492 113v45q-150 -23 -269 15t-181.5 133t-45.5 229q13 102 64 181.5t127.5 126.5t166 71t187.5 24
q222 0 346 -114q80 62 130.5 78t129.5 16h90l-26 -129h-88q-98 0 -170 -49q56 -103 41 -232q-21 -169 -173 -293t-403 -192l2 -2q71 12 135 14.5t124.5 -8t103 -35.5t64.5 -71t15 -111q-13 -107 -105.5 -168.5t-311.5 -90t-598 -22.5zM287 627q-18 -143 67 -218t244 -75
q160 0 263.5 74.5t121.5 218.5q17 142 -70 217.5t-239 75.5q-158 0 -264 -75.5t-123 -217.5zM649 1221l101 364l141 -37l-100 -364z" />
    <glyph glyph-name="gdotaccent.ss05" horiz-adv-x="1329" 
d="M18 -246q114 -1 212 0t181.5 5t151 11.5t119.5 20.5t88 32t56 45t24 60q12 113 -132 132q-125 17 -437 -45q-31 -7 -91 -19q-33 -7 -49 -10l-2 112q284 52 492 113v45q-150 -23 -269 15t-181.5 133t-45.5 229q13 102 64 181.5t127.5 126.5t166 71t187.5 24
q222 0 346 -114q80 62 130.5 78t129.5 16h90l-26 -129h-88q-98 0 -170 -49q56 -103 41 -232q-21 -169 -173 -293t-403 -192l2 -2q71 12 135 14.5t124.5 -8t103 -35.5t64.5 -71t15 -111q-13 -107 -105.5 -168.5t-311.5 -90t-598 -22.5zM287 627q-18 -143 67 -218t244 -75
q160 0 263.5 74.5t121.5 218.5q17 142 -70 217.5t-239 75.5q-158 0 -264 -75.5t-123 -217.5zM639 1335q6 54 49 92.5t98 38.5q56 0 91.5 -38.5t29.5 -92.5q-4 -55 -47.5 -94t-99.5 -39q-55 0 -90.5 38.5t-30.5 94.5z" />
    <glyph glyph-name="uni1E21.ss05" horiz-adv-x="1329" 
d="M18 -246q114 -1 212 0t181.5 5t151 11.5t119.5 20.5t88 32t56 45t24 60q12 113 -132 132q-125 17 -437 -45q-31 -7 -91 -19q-33 -7 -49 -10l-2 112q284 52 492 113v45q-150 -23 -269 15t-181.5 133t-45.5 229q13 102 64 181.5t127.5 126.5t166 71t187.5 24
q222 0 346 -114q80 62 130.5 78t129.5 16h90l-26 -129h-88q-98 0 -170 -49q56 -103 41 -232q-21 -169 -173 -293t-403 -192l2 -2q71 12 135 14.5t124.5 -8t103 -35.5t64.5 -71t15 -111q-13 -107 -105.5 -168.5t-311.5 -90t-598 -22.5zM287 627q-18 -143 67 -218t244 -75
q160 0 263.5 74.5t121.5 218.5q17 142 -70 217.5t-239 75.5q-158 0 -264 -75.5t-123 -217.5zM393 1266v127h639v-125z" />
    <glyph glyph-name="k.ss06" horiz-adv-x="1124" 
d="M55 0l291 1505h152l-191 -983l604 293l39 201h148l-39 -199q-19 -86 -98 -123l-302 -147l299 -547h-165l-265 483l-252 -125l-69 -358h-152z" />
    <glyph glyph-name="uni0137.ss06" horiz-adv-x="1124" 
d="M55 0l291 1505h152l-191 -983l604 293l39 201h148l-39 -199q-19 -86 -98 -123l-302 -147l299 -547h-165l-265 483l-252 -125l-69 -358h-152zM195 -430l174 336l139 -45l-172 -336z" />
    <glyph glyph-name="y.ss07" horiz-adv-x="1122" 
d="M1006 1016h170l-635 -1010l-11 -63l-47 -230q-19 -106 -125 -106h-415l26 133h367l41 203l10 63l-244 1010h158l174 -807l-14 -68h45l14 68z" />
    <glyph glyph-name="yacute.ss07" horiz-adv-x="1122" 
d="M1006 1016h170l-635 -1010l-11 -63l-47 -230q-19 -106 -125 -106h-415l26 133h367l41 203l10 63l-244 1010h158l174 -807l-14 -68h45l14 68zM395 1311l643 162l6 -127l-643 -160z" />
    <glyph glyph-name="ycircumflex.ss07" horiz-adv-x="1122" 
d="M1006 1016h170l-635 -1010l-11 -63l-47 -230q-19 -106 -125 -106h-415l26 133h367l41 203l10 63l-244 1010h158l174 -807l-14 -68h45l14 68zM383 1247l365 258l276 -270l-102 -84l-193 195l-268 -195z" />
    <glyph glyph-name="ydieresis.ss07" horiz-adv-x="1122" 
d="M1006 1016h170l-635 -1010l-11 -63l-47 -230q-19 -106 -125 -106h-415l26 133h367l41 203l10 63l-244 1010h158l174 -807l-14 -68h45l14 68zM375 1325q6 58 50 98.5t103 40.5t98 -41t33 -98q-4 -58 -49 -99.5t-104 -41.5t-97 41.5t-34 99.5zM782 1325q6 58 50.5 98.5
t103.5 40.5q58 0 97 -41t34 -98q-4 -58 -49.5 -99.5t-104.5 -41.5q-60 0 -98 41t-33 100z" />
    <glyph glyph-name="ygrave.ss07" horiz-adv-x="1122" 
d="M1006 1016h170l-635 -1010l-11 -63l-47 -230q-19 -106 -125 -106h-415l26 133h367l41 203l10 63l-244 1010h158l174 -807l-14 -68h45l14 68zM408 1352l51 112l579 -159l-51 -113z" />
    <glyph glyph-name="uni1EF9.ss07" horiz-adv-x="1122" 
d="M1006 1016h170l-635 -1010l-11 -63l-47 -230q-19 -106 -125 -106h-415l26 133h367l41 203l10 63l-244 1010h158l174 -807l-14 -68h45l14 68zM340 1208q39 269 235 269q47 0 86 -17t64.5 -41t48 -48t46.5 -41t48 -17q40 0 68.5 29.5t44.5 113.5h125q-39 -268 -234 -268
q-47 0 -86.5 17t-65.5 41t-48 48t-46 41t-48 17q-40 0 -68 -30t-45 -114h-125z" />
    <glyph glyph-name="r.ss08" horiz-adv-x="995" 
d="M14 0l25 129h201l147 758h-203l27 129h246q106 0 88 -90l-21 -107l-45 -94h43q56 135 160.5 213t249.5 78h133l-25 -129h-180q-151 0 -260.5 -118.5t-148.5 -315.5l-62 -324h361l-27 -129h-709z" />
    <glyph glyph-name="racute.ss08" horiz-adv-x="995" 
d="M14 0l25 129h201l147 758h-203l27 129h246q106 0 88 -90l-21 -107l-45 -94h43q56 135 160.5 213t249.5 78h133l-25 -129h-180q-151 0 -260.5 -118.5t-148.5 -315.5l-62 -324h361l-27 -129h-709zM317 1311l644 162l6 -127l-643 -160z" />
    <glyph glyph-name="rcaron.ss08" horiz-adv-x="995" 
d="M14 0l25 129h201l147 758h-203l27 129h246q106 0 88 -90l-21 -107l-45 -94h43q56 135 160.5 213t249.5 78h133l-25 -129h-180q-151 0 -260.5 -118.5t-148.5 -315.5l-62 -324h361l-27 -129h-709zM342 1423l100 82l195 -192l266 192l78 -94l-363 -258z" />
    <glyph glyph-name="uni0157.ss08" horiz-adv-x="995" 
d="M14 0l25 129h201l147 758h-203l27 129h246q106 0 88 -90l-21 -107l-45 -94h43q56 135 160.5 213t249.5 78h133l-25 -129h-180q-151 0 -260.5 -118.5t-148.5 -315.5l-62 -324h361l-27 -129h-709zM102 -430l174 336l140 -45l-172 -336z" />
    <glyph glyph-name="y.ss10" horiz-adv-x="1087" 
d="M-43 -393l25 127h321l152 266h-170l-142 1016h150l135 -971h45l512 971h156l-688 -1301q-56 -108 -152 -108h-344z" />
    <glyph glyph-name="yacute.ss10" horiz-adv-x="1087" 
d="M-43 -393l25 127h321l152 266h-170l-142 1016h150l135 -971h45l512 971h156l-688 -1301q-56 -108 -152 -108h-344zM377 1311l643 162l6 -127l-643 -160z" />
    </font>
</defs>
</svg>
